%TF.GenerationSoftware,KiCad,Pcbnew,9.0.0*%
%TF.CreationDate,2025-06-19T17:55:55+01:00*%
%TF.ProjectId,solderbit-gamepad,736f6c64-6572-4626-9974-2d67616d6570,v0.7*%
%TF.SameCoordinates,Original*%
%TF.FileFunction,Profile,NP*%
%FSLAX46Y46*%
G04 Gerber Fmt 4.6, Leading zero omitted, Abs format (unit mm)*
G04 Created by KiCad (PCBNEW 9.0.0) date 2025-06-19 17:55:55*
%MOMM*%
%LPD*%
G01*
G04 APERTURE LIST*
%TA.AperFunction,Profile*%
%ADD10C,0.100000*%
%TD*%
G04 APERTURE END LIST*
D10*
X134265410Y-36564719D02*
X149280007Y-36564719D01*
X159764719Y-51800000D02*
G75*
G02*
X161264700Y-53300000I-19J-1500000D01*
G01*
X68608986Y-83564721D02*
G75*
G02*
X71437415Y-84736291I14J-3999979D01*
G01*
X127250000Y-44764719D02*
X81250000Y-44764719D01*
X130250691Y-41764700D02*
X130250691Y-40614720D01*
X161264719Y-53300000D02*
X161264719Y-71564720D01*
X161264719Y-71564720D02*
G75*
G02*
X149264720Y-83564719I-11999999J0D01*
G01*
X81250000Y-44764719D02*
G75*
G02*
X78250081Y-41764719I100J3000019D01*
G01*
X74235363Y-36564719D02*
G75*
G02*
X78250036Y-40614719I-35463J-4049981D01*
G01*
X137094266Y-84736292D02*
G75*
G02*
X139922692Y-83564679I2828434J-2828308D01*
G01*
X47264719Y-48564719D02*
X47264719Y-71564720D01*
X149280007Y-36564719D02*
G75*
G02*
X161166710Y-46919806I-7J-11999981D01*
G01*
X128608986Y-83564721D02*
G75*
G02*
X131437415Y-84736291I14J-3999979D01*
G01*
X146763911Y-48800001D02*
X159559755Y-48799961D01*
X146763911Y-51800001D02*
G75*
G02*
X146763911Y-48799999I-11J1500001D01*
G01*
X128608986Y-83564719D02*
X79931644Y-83564719D01*
X78250082Y-41764719D02*
X78250082Y-40614720D01*
X47264718Y-48564720D02*
G75*
G02*
X59264719Y-36564718I12000002J0D01*
G01*
X139931644Y-83564719D02*
X149264720Y-83564719D01*
X59264720Y-83564719D02*
X68609001Y-83564719D01*
X130250691Y-40614719D02*
G75*
G02*
X134265410Y-36564746I4050109J19D01*
G01*
X59264720Y-83564718D02*
G75*
G02*
X47264722Y-71564719I0J11999998D01*
G01*
X161165307Y-46920000D02*
G75*
G02*
X159559755Y-48802831I-1605507J-256900D01*
G01*
X77094266Y-84736292D02*
G75*
G02*
X79922692Y-83564709I2828434J-2828408D01*
G01*
X77094266Y-84736294D02*
G75*
G02*
X71437412Y-84736294I-2828427J2828426D01*
G01*
X137094266Y-84736294D02*
G75*
G02*
X131437412Y-84736294I-2828427J2828426D01*
G01*
X130250000Y-41764700D02*
G75*
G02*
X127250000Y-44764700I-3000000J0D01*
G01*
X159764719Y-51800001D02*
X146763911Y-51800001D01*
X74235363Y-36564719D02*
X59264719Y-36564719D01*
M02*
