G04 #@! TF.GenerationSoftware,KiCad,Pcbnew,8.0.0*
G04 #@! TF.CreationDate,2024-05-31T17:11:35+01:00*
G04 #@! TF.ProjectId,basic_kit_SMT_bumpers_D_pad,62617369-635f-46b6-9974-5f534d545f62,v1.4*
G04 #@! TF.SameCoordinates,Original*
G04 #@! TF.FileFunction,Copper,L1,Top*
G04 #@! TF.FilePolarity,Positive*
%FSLAX46Y46*%
G04 Gerber Fmt 4.6, Leading zero omitted, Abs format (unit mm)*
G04 Created by KiCad (PCBNEW 8.0.0) date 2024-05-31 17:11:35*
%MOMM*%
%LPD*%
G01*
G04 APERTURE LIST*
G04 Aperture macros list*
%AMRoundRect*
0 Rectangle with rounded corners*
0 $1 Rounding radius*
0 $2 $3 $4 $5 $6 $7 $8 $9 X,Y pos of 4 corners*
0 Add a 4 corners polygon primitive as box body*
4,1,4,$2,$3,$4,$5,$6,$7,$8,$9,$2,$3,0*
0 Add four circle primitives for the rounded corners*
1,1,$1+$1,$2,$3*
1,1,$1+$1,$4,$5*
1,1,$1+$1,$6,$7*
1,1,$1+$1,$8,$9*
0 Add four rect primitives between the rounded corners*
20,1,$1+$1,$2,$3,$4,$5,0*
20,1,$1+$1,$4,$5,$6,$7,0*
20,1,$1+$1,$6,$7,$8,$9,0*
20,1,$1+$1,$8,$9,$2,$3,0*%
G04 Aperture macros list end*
G04 #@! TA.AperFunction,SMDPad,CuDef*
%ADD10RoundRect,0.250000X-0.412500X-0.650000X0.412500X-0.650000X0.412500X0.650000X-0.412500X0.650000X0*%
G04 #@! TD*
G04 #@! TA.AperFunction,SMDPad,CuDef*
%ADD11RoundRect,0.250000X-0.625000X0.400000X-0.625000X-0.400000X0.625000X-0.400000X0.625000X0.400000X0*%
G04 #@! TD*
G04 #@! TA.AperFunction,SMDPad,CuDef*
%ADD12RoundRect,0.250000X-0.400000X-0.625000X0.400000X-0.625000X0.400000X0.625000X-0.400000X0.625000X0*%
G04 #@! TD*
G04 #@! TA.AperFunction,SMDPad,CuDef*
%ADD13RoundRect,0.250000X0.400000X0.625000X-0.400000X0.625000X-0.400000X-0.625000X0.400000X-0.625000X0*%
G04 #@! TD*
G04 #@! TA.AperFunction,SMDPad,CuDef*
%ADD14R,2.100000X1.400000*%
G04 #@! TD*
G04 #@! TA.AperFunction,SMDPad,CuDef*
%ADD15R,0.900000X1.500000*%
G04 #@! TD*
G04 #@! TA.AperFunction,SMDPad,CuDef*
%ADD16RoundRect,0.250000X0.650000X-0.412500X0.650000X0.412500X-0.650000X0.412500X-0.650000X-0.412500X0*%
G04 #@! TD*
G04 #@! TA.AperFunction,SMDPad,CuDef*
%ADD17R,1.400000X4.500000*%
G04 #@! TD*
G04 #@! TA.AperFunction,SMDPad,CuDef*
%ADD18R,3.500000X1.600000*%
G04 #@! TD*
G04 #@! TA.AperFunction,SMDPad,CuDef*
%ADD19R,0.533400X1.701800*%
G04 #@! TD*
G04 #@! TA.AperFunction,ComponentPad*
%ADD20C,5.000000*%
G04 #@! TD*
G04 #@! TA.AperFunction,ViaPad*
%ADD21C,3.400000*%
G04 #@! TD*
G04 #@! TA.AperFunction,ViaPad*
%ADD22C,0.800000*%
G04 #@! TD*
G04 #@! TA.AperFunction,Conductor*
%ADD23C,0.250000*%
G04 #@! TD*
G04 #@! TA.AperFunction,Conductor*
%ADD24C,0.500000*%
G04 #@! TD*
G04 APERTURE END LIST*
D10*
X113955000Y-68326000D03*
X117080000Y-68326000D03*
X107605000Y-68326000D03*
X110730000Y-68326000D03*
X101255000Y-68326000D03*
X104380000Y-68326000D03*
X94905000Y-68326000D03*
X98030000Y-68326000D03*
X88555000Y-68326000D03*
X91680000Y-68326000D03*
D11*
X85076000Y-61823000D03*
X85076000Y-64923000D03*
D12*
X58881000Y-53721000D03*
X61981000Y-53721000D03*
D13*
X146951000Y-53721000D03*
X143851000Y-53721000D03*
D11*
X78105000Y-77190000D03*
X78105000Y-80290000D03*
X81280000Y-77190000D03*
X81280000Y-80290000D03*
X84455000Y-77190000D03*
X84455000Y-80290000D03*
X87630000Y-77190000D03*
X87630000Y-80290000D03*
X149098000Y-77444000D03*
X149098000Y-80544000D03*
X145923000Y-77444000D03*
X145923000Y-80544000D03*
D14*
X129308000Y-72208000D03*
X129308000Y-76708000D03*
X138408000Y-72208000D03*
X138408000Y-76708000D03*
D15*
X113906000Y-65733000D03*
X117206000Y-65733000D03*
X117206000Y-60833000D03*
X113906000Y-60833000D03*
D16*
X95885000Y-77177500D03*
X95885000Y-80302500D03*
D15*
X88506000Y-65735200D03*
X91806000Y-65735200D03*
X91806000Y-60835200D03*
X88506000Y-60835200D03*
D17*
X141305000Y-54229000D03*
X137305000Y-54229000D03*
D18*
X144055000Y-50779000D03*
X134555000Y-50779000D03*
D14*
X136326500Y-64933000D03*
X136326500Y-69433000D03*
X145426500Y-64933000D03*
X145426500Y-69433000D03*
X57045000Y-68580000D03*
X57045000Y-73080000D03*
X66145000Y-68580000D03*
X66145000Y-73080000D03*
D17*
X64661000Y-54229000D03*
X68661000Y-54229000D03*
D18*
X71411000Y-50779000D03*
X61911000Y-50779000D03*
D19*
X98411000Y-81254600D03*
X99681000Y-81254600D03*
X100951000Y-81254600D03*
X102221000Y-81254600D03*
X103491000Y-81254600D03*
X104761000Y-81254600D03*
X106031000Y-81254600D03*
X107301000Y-81254600D03*
X107301000Y-76073000D03*
X106031000Y-76073000D03*
X104761000Y-76073000D03*
X103491000Y-76073000D03*
X102221000Y-76073000D03*
X100951000Y-76073000D03*
X99681000Y-76073000D03*
X98411000Y-76073000D03*
D14*
X64030000Y-61305000D03*
X64030000Y-65805000D03*
X73130000Y-61305000D03*
X73130000Y-65805000D03*
D15*
X94856000Y-65733000D03*
X98156000Y-65733000D03*
X98156000Y-60833000D03*
X94856000Y-60833000D03*
X101206000Y-65733000D03*
X104506000Y-65733000D03*
X104506000Y-60833000D03*
X101206000Y-60833000D03*
D14*
X64030000Y-75855000D03*
X64030000Y-80355000D03*
X73130000Y-75855000D03*
X73130000Y-80355000D03*
D15*
X107556000Y-65733000D03*
X110856000Y-65733000D03*
X110856000Y-60833000D03*
X107556000Y-60833000D03*
D14*
X71015000Y-68580000D03*
X71015000Y-73080000D03*
X80115000Y-68580000D03*
X80115000Y-73080000D03*
D20*
X81328500Y-52197000D03*
X91488500Y-52197000D03*
X102918500Y-52197000D03*
X114348500Y-52197000D03*
X124508500Y-52197000D03*
D21*
X149225000Y-67171400D03*
D22*
X102730000Y-61960000D03*
X130140000Y-80240000D03*
X103505000Y-83185000D03*
X107750000Y-83190000D03*
X82930000Y-71730000D03*
X82930000Y-65340000D03*
X106010000Y-74030000D03*
X107696000Y-73406000D03*
X100960000Y-83190000D03*
X61595000Y-70866000D03*
X68580000Y-63627000D03*
X100965000Y-74041000D03*
X75565000Y-70866000D03*
X102235000Y-74041000D03*
X63700000Y-78340000D03*
X102210000Y-83190000D03*
X105730000Y-83190000D03*
X143380000Y-78820000D03*
X66675000Y-52705000D03*
X103505000Y-74041000D03*
X139305000Y-52705000D03*
X104770000Y-74040000D03*
D23*
X103505000Y-83185000D02*
X103491000Y-83171000D01*
X103491000Y-83171000D02*
X103491000Y-81254600D01*
X129308000Y-76708000D02*
X129308000Y-79408000D01*
X129308000Y-79408000D02*
X130140000Y-80240000D01*
X96984500Y-76073000D02*
X96984500Y-76078000D01*
X96984500Y-76078000D02*
X95885000Y-77177500D01*
X125582000Y-70458000D02*
X122307000Y-67183000D01*
X134620000Y-59436000D02*
X130054000Y-59436000D01*
X130054000Y-59436000D02*
X122307000Y-67183000D01*
X122307000Y-67183000D02*
X119761000Y-67183000D01*
X119761000Y-67183000D02*
X119634000Y-67056000D01*
X138408000Y-76708000D02*
X138408000Y-77702000D01*
X138408000Y-77702000D02*
X140589000Y-79883000D01*
X140589000Y-79883000D02*
X144399000Y-79883000D01*
X145923000Y-78359000D02*
X145923000Y-77444000D01*
X144399000Y-79883000D02*
X145923000Y-78359000D01*
X125582000Y-70458000D02*
X132180000Y-70458000D01*
X132180000Y-70458000D02*
X133930000Y-72208000D01*
X133930000Y-72208000D02*
X138408000Y-72208000D01*
X134620000Y-59436000D02*
X142494000Y-59436000D01*
X142494000Y-59436000D02*
X145426500Y-62368500D01*
X145426500Y-62368500D02*
X145426500Y-64933000D01*
X143383000Y-78817000D02*
X143383000Y-74041000D01*
X143383000Y-74041000D02*
X138775000Y-69433000D01*
X138775000Y-69433000D02*
X136326500Y-69433000D01*
X149098000Y-77444000D02*
X149098000Y-73104500D01*
X149098000Y-73104500D02*
X145426500Y-69433000D01*
X143383000Y-78817000D02*
X143380000Y-78820000D01*
X143320000Y-78760000D02*
X143380000Y-78820000D01*
D24*
X119634000Y-59723500D02*
X119634000Y-67056000D01*
X119634000Y-67056000D02*
X119634000Y-69088000D01*
X119634000Y-69088000D02*
X118364000Y-70358000D01*
X94996000Y-70358000D02*
X88392000Y-70358000D01*
X101346000Y-70358000D02*
X94996000Y-70358000D01*
X107696000Y-70358000D02*
X101346000Y-70358000D01*
X114046000Y-70358000D02*
X107696000Y-70358000D01*
X88392000Y-70358000D02*
X86360000Y-70358000D01*
X118364000Y-70358000D02*
X114046000Y-70358000D01*
D23*
X113955000Y-68326000D02*
X113955000Y-70267000D01*
X113955000Y-70267000D02*
X114046000Y-70358000D01*
X107605000Y-70267000D02*
X107696000Y-70358000D01*
X107605000Y-68326000D02*
X107605000Y-70267000D01*
X101255000Y-70267000D02*
X101346000Y-70358000D01*
X101255000Y-68326000D02*
X101255000Y-70267000D01*
X113955000Y-68326000D02*
X113955000Y-65782000D01*
X113955000Y-65782000D02*
X113906000Y-65733000D01*
X107605000Y-68326000D02*
X107605000Y-65782000D01*
X107605000Y-65782000D02*
X107556000Y-65733000D01*
X101255000Y-68326000D02*
X101255000Y-65782000D01*
X101255000Y-65782000D02*
X101206000Y-65733000D01*
X94905000Y-68326000D02*
X94905000Y-65782000D01*
X94905000Y-65782000D02*
X94856000Y-65733000D01*
X94996000Y-70358000D02*
X94905000Y-70267000D01*
X94905000Y-70267000D02*
X94905000Y-68326000D01*
X88555000Y-68326000D02*
X88555000Y-65784200D01*
X88555000Y-65784200D02*
X88506000Y-65735200D01*
X88392000Y-70358000D02*
X88555000Y-70195000D01*
X88555000Y-70195000D02*
X88555000Y-68326000D01*
X86614000Y-72644000D02*
X86614000Y-70612000D01*
X86614000Y-70612000D02*
X86360000Y-70358000D01*
X77307000Y-61305000D02*
X83185000Y-67183000D01*
X99002700Y-73971300D02*
X99669000Y-73305000D01*
X99669000Y-73305000D02*
X107595000Y-73305000D01*
X107595000Y-73305000D02*
X107696000Y-73406000D01*
X99695000Y-78867000D02*
X99695000Y-81240600D01*
X107696000Y-73406000D02*
X107510000Y-73220000D01*
X99002700Y-78174700D02*
X99695000Y-78867000D01*
X99695000Y-81240600D02*
X99681000Y-81254600D01*
X99002700Y-73971300D02*
X99002700Y-78174700D01*
D24*
X114348500Y-54438000D02*
X119634000Y-59723500D01*
X86360000Y-70358000D02*
X83185000Y-67183000D01*
D23*
X81788000Y-68580000D02*
X83185000Y-67183000D01*
X83185000Y-67183000D02*
X68580000Y-67183000D01*
X86530000Y-75330000D02*
X82930000Y-71730000D01*
X93020000Y-78720000D02*
X89630000Y-75330000D01*
X89630000Y-75330000D02*
X86530000Y-75330000D01*
X97350000Y-78720000D02*
X93020000Y-78720000D01*
X98411000Y-79781000D02*
X97350000Y-78720000D01*
X98411000Y-81254600D02*
X98411000Y-79781000D01*
X98411000Y-76073000D02*
X96984500Y-76073000D01*
X80115000Y-68580000D02*
X81788000Y-68580000D01*
X73130000Y-58698000D02*
X73130000Y-60960000D01*
X68580000Y-67183000D02*
X67197000Y-67183000D01*
X73130000Y-58698000D02*
X68661000Y-54229000D01*
X137305000Y-56751000D02*
X137305000Y-54229000D01*
X101293500Y-65820500D02*
X101206000Y-65733000D01*
X107643500Y-65820500D02*
X107556000Y-65733000D01*
X73130000Y-61305000D02*
X77307000Y-61305000D01*
X67197000Y-67183000D02*
X66145000Y-68235000D01*
X68580000Y-73045000D02*
X68580000Y-67183000D01*
X94943500Y-65820500D02*
X94856000Y-65733000D01*
X98411000Y-76073000D02*
X96379000Y-74041000D01*
X96379000Y-74041000D02*
X88011000Y-74041000D01*
X73130000Y-75855000D02*
X71390000Y-75855000D01*
X88593500Y-65822700D02*
X88506000Y-65735200D01*
X71390000Y-75855000D02*
X68580000Y-73045000D01*
X134620000Y-59436000D02*
X137305000Y-56751000D01*
X88011000Y-74041000D02*
X86614000Y-72644000D01*
X113993500Y-65820500D02*
X113906000Y-65733000D01*
X91806000Y-65735200D02*
X91806000Y-63883000D01*
X91806000Y-63883000D02*
X94856000Y-60833000D01*
X88506000Y-63118000D02*
X88506000Y-60835200D01*
X85076000Y-64923000D02*
X86701000Y-64923000D01*
X85076000Y-64923000D02*
X85431000Y-64923000D01*
X86701000Y-64923000D02*
X88506000Y-63118000D01*
X98156000Y-65733000D02*
X98156000Y-63883000D01*
X98156000Y-63883000D02*
X101206000Y-60833000D01*
X104506000Y-65733000D02*
X104506000Y-63883000D01*
X104506000Y-63883000D02*
X107556000Y-60833000D01*
X110856000Y-63883000D02*
X113906000Y-60833000D01*
X110856000Y-65733000D02*
X110856000Y-63883000D01*
X66857000Y-73080000D02*
X66145000Y-73080000D01*
X78105000Y-77190000D02*
X70967000Y-77190000D01*
X70967000Y-77190000D02*
X66857000Y-73080000D01*
X70739000Y-78740000D02*
X66829000Y-74830000D01*
X65432000Y-74830000D02*
X63881000Y-73279000D01*
X66829000Y-74830000D02*
X65432000Y-74830000D01*
X63881000Y-68444000D02*
X66520000Y-65805000D01*
X63881000Y-73279000D02*
X63881000Y-68444000D01*
X66520000Y-65805000D02*
X73130000Y-65805000D01*
X81280000Y-77190000D02*
X79730000Y-78740000D01*
X79730000Y-78740000D02*
X70739000Y-78740000D01*
X84225000Y-77190000D02*
X80115000Y-73080000D01*
X84455000Y-77190000D02*
X84225000Y-77190000D01*
X87630000Y-77190000D02*
X89535000Y-79095000D01*
X89535000Y-81280000D02*
X88519000Y-82296000D01*
X88519000Y-82296000D02*
X75071000Y-82296000D01*
X75071000Y-82296000D02*
X73130000Y-80355000D01*
X89535000Y-79095000D02*
X89535000Y-81280000D01*
X82930000Y-63969000D02*
X85076000Y-61823000D01*
X91488500Y-54438000D02*
X85076000Y-60850500D01*
X85076000Y-60850500D02*
X85076000Y-61823000D01*
X98411000Y-81254600D02*
X98375600Y-81290000D01*
X82930000Y-65340000D02*
X82930000Y-63969000D01*
X81311000Y-54438000D02*
X81266000Y-54483000D01*
X107301000Y-75488800D02*
X107301000Y-76073000D01*
X106010000Y-74030000D02*
X107301000Y-75321000D01*
X107301000Y-75321000D02*
X107301000Y-76073000D01*
X107442000Y-75347800D02*
X107301000Y-75488800D01*
X81328500Y-54438000D02*
X81311000Y-54438000D01*
X100951000Y-81254600D02*
X100951000Y-83181000D01*
X61595000Y-70866000D02*
X59381000Y-73080000D01*
X59381000Y-73080000D02*
X57045000Y-73080000D01*
X100951000Y-83181000D02*
X100960000Y-83190000D01*
X68580000Y-63627000D02*
X66208000Y-63627000D01*
X100965000Y-74041000D02*
X100965000Y-73914000D01*
X100951000Y-74055000D02*
X100965000Y-74041000D01*
X66208000Y-63627000D02*
X64030000Y-65805000D01*
X100951000Y-76073000D02*
X100951000Y-74055000D01*
X102221000Y-76073000D02*
X102221000Y-74055000D01*
X102221000Y-74055000D02*
X102235000Y-74041000D01*
X75565000Y-70866000D02*
X73351000Y-73080000D01*
X73351000Y-73080000D02*
X71015000Y-73080000D01*
X64030000Y-78670000D02*
X63700000Y-78340000D01*
X102221000Y-83179000D02*
X102210000Y-83190000D01*
X64030000Y-80355000D02*
X64030000Y-78670000D01*
X102221000Y-81254600D02*
X102221000Y-83179000D01*
X102221000Y-83171000D02*
X102210000Y-83182000D01*
X102210000Y-83182000D02*
X102210000Y-83190000D01*
X104761000Y-81254600D02*
X104761000Y-82221000D01*
X104761000Y-82221000D02*
X105730000Y-83190000D01*
X61981000Y-53721000D02*
X62035000Y-53775000D01*
X66675000Y-52705000D02*
X65151000Y-54229000D01*
X61981000Y-53721000D02*
X64153000Y-53721000D01*
X62489000Y-54229000D02*
X61981000Y-53721000D01*
X64153000Y-53721000D02*
X64661000Y-54229000D01*
X65151000Y-54229000D02*
X64661000Y-54229000D01*
X103491000Y-74055000D02*
X103505000Y-74041000D01*
X103491000Y-76073000D02*
X103491000Y-74055000D01*
X104761000Y-76073000D02*
X104761000Y-74049000D01*
X139305000Y-52705000D02*
X140829000Y-54229000D01*
X143851000Y-53721000D02*
X141813000Y-53721000D01*
X104761000Y-74049000D02*
X104770000Y-74040000D01*
X141813000Y-53721000D02*
X141305000Y-54229000D01*
X140829000Y-54229000D02*
X141305000Y-54229000D01*
G04 #@! TA.AperFunction,Conductor*
G36*
X80449404Y-49376685D02*
G01*
X80495159Y-49429489D01*
X80505103Y-49498647D01*
X80476078Y-49562203D01*
X80419256Y-49599385D01*
X80351377Y-49620537D01*
X80158156Y-49707498D01*
X80068758Y-49747734D01*
X80047943Y-49757102D01*
X79979629Y-49798399D01*
X79763173Y-49929251D01*
X79501244Y-50134460D01*
X79265960Y-50369744D01*
X79060751Y-50631673D01*
X78888601Y-50916445D01*
X78888600Y-50916447D01*
X78752036Y-51219880D01*
X78752030Y-51219895D01*
X78653046Y-51537550D01*
X78653044Y-51537556D01*
X78653044Y-51537559D01*
X78613380Y-51754000D01*
X78593063Y-51864863D01*
X78572973Y-52197000D01*
X78593063Y-52529136D01*
X78593063Y-52529141D01*
X78593064Y-52529142D01*
X78653044Y-52856441D01*
X78653045Y-52856445D01*
X78653046Y-52856449D01*
X78752030Y-53174104D01*
X78752034Y-53174116D01*
X78752037Y-53174123D01*
X78888602Y-53477557D01*
X79025435Y-53703906D01*
X79060751Y-53762326D01*
X79265960Y-54024255D01*
X79501244Y-54259539D01*
X79763173Y-54464748D01*
X79763178Y-54464751D01*
X79763182Y-54464754D01*
X80047943Y-54636898D01*
X80351377Y-54773463D01*
X80351390Y-54773467D01*
X80351395Y-54773469D01*
X80435716Y-54799744D01*
X80669059Y-54872456D01*
X80996358Y-54932436D01*
X81328500Y-54952527D01*
X81660642Y-54932436D01*
X81987941Y-54872456D01*
X82305623Y-54773463D01*
X82609057Y-54636898D01*
X82893818Y-54464754D01*
X82894351Y-54464337D01*
X83027855Y-54359743D01*
X83155752Y-54259542D01*
X83391042Y-54024252D01*
X83596254Y-53762318D01*
X83768398Y-53477557D01*
X83904963Y-53174123D01*
X84003956Y-52856441D01*
X84063936Y-52529142D01*
X84084027Y-52197000D01*
X84063936Y-51864858D01*
X84003956Y-51537559D01*
X83955124Y-51380851D01*
X83904969Y-51219895D01*
X83904967Y-51219890D01*
X83904963Y-51219877D01*
X83768398Y-50916443D01*
X83596254Y-50631682D01*
X83596251Y-50631678D01*
X83596248Y-50631673D01*
X83391039Y-50369744D01*
X83155755Y-50134460D01*
X82893826Y-49929251D01*
X82893818Y-49929246D01*
X82609057Y-49757102D01*
X82305623Y-49620537D01*
X82237743Y-49599385D01*
X82179597Y-49560648D01*
X82151623Y-49496623D01*
X82162704Y-49427638D01*
X82209323Y-49375594D01*
X82274635Y-49357000D01*
X90542365Y-49357000D01*
X90609404Y-49376685D01*
X90655159Y-49429489D01*
X90665103Y-49498647D01*
X90636078Y-49562203D01*
X90579256Y-49599385D01*
X90511377Y-49620537D01*
X90318156Y-49707498D01*
X90228758Y-49747734D01*
X90207943Y-49757102D01*
X90139629Y-49798399D01*
X89923173Y-49929251D01*
X89661244Y-50134460D01*
X89425960Y-50369744D01*
X89220751Y-50631673D01*
X89048601Y-50916445D01*
X89048600Y-50916447D01*
X88912036Y-51219880D01*
X88912030Y-51219895D01*
X88813046Y-51537550D01*
X88813044Y-51537556D01*
X88813044Y-51537559D01*
X88773380Y-51754000D01*
X88753063Y-51864863D01*
X88732973Y-52197000D01*
X88753063Y-52529136D01*
X88753063Y-52529141D01*
X88753064Y-52529142D01*
X88813044Y-52856441D01*
X88813045Y-52856445D01*
X88813046Y-52856449D01*
X88912030Y-53174104D01*
X88912034Y-53174116D01*
X88912037Y-53174123D01*
X89048602Y-53477557D01*
X89185435Y-53703906D01*
X89220751Y-53762326D01*
X89425960Y-54024255D01*
X89661244Y-54259539D01*
X89923173Y-54464748D01*
X89923178Y-54464751D01*
X89923182Y-54464754D01*
X90207943Y-54636898D01*
X90423846Y-54734068D01*
X90476901Y-54779533D01*
X90496953Y-54846463D01*
X90477637Y-54913610D01*
X90460636Y-54934825D01*
X84845438Y-60550025D01*
X84775527Y-60619935D01*
X84775525Y-60619937D01*
X84775525Y-60619938D01*
X84726090Y-60705562D01*
X84726090Y-60705563D01*
X84707360Y-60775467D01*
X84704601Y-60785762D01*
X84704600Y-60785766D01*
X84700499Y-60801066D01*
X84699439Y-60809123D01*
X84697457Y-60808862D01*
X84680815Y-60865539D01*
X84628011Y-60911294D01*
X84576501Y-60922500D01*
X84403130Y-60922500D01*
X84403123Y-60922501D01*
X84343516Y-60928908D01*
X84208671Y-60979202D01*
X84208664Y-60979206D01*
X84093455Y-61065452D01*
X84093452Y-61065455D01*
X84007206Y-61180664D01*
X84007202Y-61180671D01*
X83956908Y-61315517D01*
X83950501Y-61375116D01*
X83950501Y-61375123D01*
X83950500Y-61375135D01*
X83950500Y-62270870D01*
X83950501Y-62270876D01*
X83957738Y-62338196D01*
X83955867Y-62338397D01*
X83952666Y-62398123D01*
X83923410Y-62444551D01*
X82699438Y-63668525D01*
X82629526Y-63738436D01*
X82580091Y-63824059D01*
X82580091Y-63824060D01*
X82580090Y-63824062D01*
X82554500Y-63919565D01*
X82554500Y-63919567D01*
X82554500Y-64747796D01*
X82534815Y-64814835D01*
X82512727Y-64840611D01*
X82439518Y-64905468D01*
X82349781Y-65035475D01*
X82349780Y-65035476D01*
X82293762Y-65183181D01*
X82274722Y-65339999D01*
X82274722Y-65340000D01*
X82286922Y-65440481D01*
X82275461Y-65509404D01*
X82228557Y-65561190D01*
X82161101Y-65579397D01*
X82094511Y-65558244D01*
X82076145Y-65543108D01*
X77537563Y-61004526D01*
X77537562Y-61004525D01*
X77451938Y-60955090D01*
X77404186Y-60942295D01*
X77404184Y-60942294D01*
X77404182Y-60942293D01*
X77356436Y-60929500D01*
X77356435Y-60929500D01*
X74554500Y-60929500D01*
X74487461Y-60909815D01*
X74441706Y-60857011D01*
X74430500Y-60805500D01*
X74430500Y-60580323D01*
X74430499Y-60580321D01*
X74415967Y-60507264D01*
X74415966Y-60507260D01*
X74360601Y-60424399D01*
X74277740Y-60369034D01*
X74277739Y-60369033D01*
X74277735Y-60369032D01*
X74204677Y-60354500D01*
X74204674Y-60354500D01*
X73629500Y-60354500D01*
X73562461Y-60334815D01*
X73516706Y-60282011D01*
X73505500Y-60230500D01*
X73505500Y-58648567D01*
X73505500Y-58648565D01*
X73479910Y-58553062D01*
X73430475Y-58467438D01*
X73360562Y-58397525D01*
X69647819Y-54684782D01*
X69614334Y-54623459D01*
X69611500Y-54597101D01*
X69611500Y-51953500D01*
X69631185Y-51886461D01*
X69683989Y-51840706D01*
X69735500Y-51829500D01*
X73185676Y-51829500D01*
X73185677Y-51829499D01*
X73258740Y-51814966D01*
X73341601Y-51759601D01*
X73396966Y-51676740D01*
X73411500Y-51603674D01*
X73411500Y-49954326D01*
X73411500Y-49954323D01*
X73411499Y-49954321D01*
X73396967Y-49881264D01*
X73396966Y-49881260D01*
X73341601Y-49798399D01*
X73279792Y-49757100D01*
X73258739Y-49743033D01*
X73258735Y-49743032D01*
X73185677Y-49728500D01*
X73185674Y-49728500D01*
X69636326Y-49728500D01*
X69636323Y-49728500D01*
X69563264Y-49743032D01*
X69563260Y-49743033D01*
X69480399Y-49798399D01*
X69425033Y-49881260D01*
X69425032Y-49881264D01*
X69410500Y-49954321D01*
X69410500Y-51604500D01*
X69390815Y-51671539D01*
X69338011Y-51717294D01*
X69286500Y-51728500D01*
X67936323Y-51728500D01*
X67863264Y-51743032D01*
X67863260Y-51743033D01*
X67780399Y-51798399D01*
X67725033Y-51881260D01*
X67725032Y-51881264D01*
X67710500Y-51954321D01*
X67710500Y-56503678D01*
X67725032Y-56576735D01*
X67725033Y-56576739D01*
X67725034Y-56576740D01*
X67780399Y-56659601D01*
X67863259Y-56714965D01*
X67863260Y-56714966D01*
X67863264Y-56714967D01*
X67936321Y-56729499D01*
X67936324Y-56729500D01*
X67936326Y-56729500D01*
X69385676Y-56729500D01*
X69385677Y-56729499D01*
X69458740Y-56714966D01*
X69541601Y-56659601D01*
X69596966Y-56576740D01*
X69611500Y-56503674D01*
X69611500Y-56009899D01*
X69631185Y-55942860D01*
X69683989Y-55897105D01*
X69753147Y-55887161D01*
X69816703Y-55916186D01*
X69823181Y-55922218D01*
X72718181Y-58817218D01*
X72751666Y-58878541D01*
X72754500Y-58904899D01*
X72754500Y-60230500D01*
X72734815Y-60297539D01*
X72682011Y-60343294D01*
X72630500Y-60354500D01*
X72055323Y-60354500D01*
X71982264Y-60369032D01*
X71982260Y-60369033D01*
X71899399Y-60424399D01*
X71844033Y-60507260D01*
X71844032Y-60507264D01*
X71829500Y-60580321D01*
X71829500Y-62029678D01*
X71844032Y-62102735D01*
X71844033Y-62102739D01*
X71844034Y-62102740D01*
X71899399Y-62185601D01*
X71956210Y-62223560D01*
X71982260Y-62240966D01*
X71982264Y-62240967D01*
X72055321Y-62255499D01*
X72055324Y-62255500D01*
X72055326Y-62255500D01*
X74204676Y-62255500D01*
X74204677Y-62255499D01*
X74277740Y-62240966D01*
X74360601Y-62185601D01*
X74415966Y-62102740D01*
X74430500Y-62029674D01*
X74430500Y-61804500D01*
X74450185Y-61737461D01*
X74502989Y-61691706D01*
X74554500Y-61680500D01*
X77100101Y-61680500D01*
X77167140Y-61700185D01*
X77187782Y-61716819D01*
X82066782Y-66595819D01*
X82100267Y-66657142D01*
X82095283Y-66726834D01*
X82053411Y-66782767D01*
X81987947Y-66807184D01*
X81979101Y-66807500D01*
X74511138Y-66807500D01*
X74444099Y-66787815D01*
X74398344Y-66735011D01*
X74388400Y-66665853D01*
X74408034Y-66614611D01*
X74415966Y-66602740D01*
X74430500Y-66529674D01*
X74430500Y-65080326D01*
X74430500Y-65080323D01*
X74430499Y-65080321D01*
X74415967Y-65007264D01*
X74415966Y-65007260D01*
X74410592Y-64999217D01*
X74360601Y-64924399D01*
X74277740Y-64869034D01*
X74277739Y-64869033D01*
X74277735Y-64869032D01*
X74204677Y-64854500D01*
X74204674Y-64854500D01*
X72055326Y-64854500D01*
X72055323Y-64854500D01*
X71982264Y-64869032D01*
X71982260Y-64869033D01*
X71899399Y-64924399D01*
X71844033Y-65007260D01*
X71844032Y-65007264D01*
X71829500Y-65080321D01*
X71829500Y-65305500D01*
X71809815Y-65372539D01*
X71757011Y-65418294D01*
X71705500Y-65429500D01*
X66470564Y-65429500D01*
X66375061Y-65455089D01*
X66289438Y-65504525D01*
X66289435Y-65504527D01*
X65542181Y-66251782D01*
X65480858Y-66285267D01*
X65411166Y-66280283D01*
X65355233Y-66238411D01*
X65330816Y-66172947D01*
X65330500Y-66164101D01*
X65330500Y-65086898D01*
X65350185Y-65019859D01*
X65366819Y-64999217D01*
X66327218Y-64038819D01*
X66388541Y-64005334D01*
X66414899Y-64002500D01*
X67983692Y-64002500D01*
X68050731Y-64022185D01*
X68085742Y-64056061D01*
X68088163Y-64059569D01*
X68089515Y-64061528D01*
X68089517Y-64061530D01*
X68207760Y-64166283D01*
X68207762Y-64166284D01*
X68347634Y-64239696D01*
X68501014Y-64277500D01*
X68501015Y-64277500D01*
X68658985Y-64277500D01*
X68812365Y-64239696D01*
X68952240Y-64166283D01*
X69070483Y-64061530D01*
X69160220Y-63931523D01*
X69216237Y-63783818D01*
X69235278Y-63627000D01*
X69216237Y-63470182D01*
X69160220Y-63322477D01*
X69070483Y-63192470D01*
X68952240Y-63087717D01*
X68952238Y-63087716D01*
X68952237Y-63087715D01*
X68812365Y-63014303D01*
X68658986Y-62976500D01*
X68658985Y-62976500D01*
X68501015Y-62976500D01*
X68501014Y-62976500D01*
X68347634Y-63014303D01*
X68207762Y-63087715D01*
X68089516Y-63192470D01*
X68087089Y-63195987D01*
X68085742Y-63197938D01*
X68031463Y-63241929D01*
X67983692Y-63251500D01*
X66158563Y-63251500D01*
X66115880Y-63262937D01*
X66115879Y-63262936D01*
X66063066Y-63277088D01*
X66063059Y-63277091D01*
X65977436Y-63326526D01*
X64485782Y-64818181D01*
X64424459Y-64851666D01*
X64398101Y-64854500D01*
X62955323Y-64854500D01*
X62882264Y-64869032D01*
X62882260Y-64869033D01*
X62799399Y-64924399D01*
X62744033Y-65007260D01*
X62744032Y-65007264D01*
X62729500Y-65080321D01*
X62729500Y-66529678D01*
X62744032Y-66602735D01*
X62744033Y-66602739D01*
X62744034Y-66602740D01*
X62799399Y-66685601D01*
X62859601Y-66725826D01*
X62882260Y-66740966D01*
X62882264Y-66740967D01*
X62955321Y-66755499D01*
X62955324Y-66755500D01*
X62955326Y-66755500D01*
X64739101Y-66755500D01*
X64806140Y-66775185D01*
X64851895Y-66827989D01*
X64861839Y-66897147D01*
X64832814Y-66960703D01*
X64826782Y-66967181D01*
X63580527Y-68213435D01*
X63580525Y-68213437D01*
X63580525Y-68213438D01*
X63531090Y-68299062D01*
X63531090Y-68299063D01*
X63509420Y-68379937D01*
X63505500Y-68394565D01*
X63505500Y-73328435D01*
X63529001Y-73416140D01*
X63531091Y-73423941D01*
X63575994Y-73501714D01*
X63580527Y-73509565D01*
X64763782Y-74692819D01*
X64797267Y-74754142D01*
X64792283Y-74823834D01*
X64750411Y-74879767D01*
X64684947Y-74904184D01*
X64676101Y-74904500D01*
X62955323Y-74904500D01*
X62882264Y-74919032D01*
X62882260Y-74919033D01*
X62799399Y-74974399D01*
X62744033Y-75057260D01*
X62744032Y-75057264D01*
X62729500Y-75130321D01*
X62729500Y-76579678D01*
X62744032Y-76652735D01*
X62744033Y-76652739D01*
X62744034Y-76652740D01*
X62799399Y-76735601D01*
X62858329Y-76774976D01*
X62882260Y-76790966D01*
X62882264Y-76790967D01*
X62955321Y-76805499D01*
X62955324Y-76805500D01*
X62955326Y-76805500D01*
X65104676Y-76805500D01*
X65104677Y-76805499D01*
X65177740Y-76790966D01*
X65260601Y-76735601D01*
X65315966Y-76652740D01*
X65330500Y-76579674D01*
X65330500Y-75329500D01*
X65350185Y-75262461D01*
X65402989Y-75216706D01*
X65454500Y-75205500D01*
X66622101Y-75205500D01*
X66689140Y-75225185D01*
X66709782Y-75241819D01*
X70438525Y-78970562D01*
X70508438Y-79040475D01*
X70581583Y-79082705D01*
X70594062Y-79089910D01*
X70641811Y-79102705D01*
X70641812Y-79102705D01*
X70651903Y-79105408D01*
X70689564Y-79115500D01*
X70689565Y-79115500D01*
X70689566Y-79115500D01*
X79779435Y-79115500D01*
X79779436Y-79115500D01*
X79827186Y-79102705D01*
X79874938Y-79089910D01*
X79960562Y-79040475D01*
X80030475Y-78970562D01*
X80874218Y-78126817D01*
X80935541Y-78093333D01*
X80961899Y-78090499D01*
X81952871Y-78090499D01*
X81952872Y-78090499D01*
X82012483Y-78084091D01*
X82147331Y-78033796D01*
X82262546Y-77947546D01*
X82348796Y-77832331D01*
X82399091Y-77697483D01*
X82405500Y-77637873D01*
X82405499Y-76742128D01*
X82399091Y-76682517D01*
X82392748Y-76665511D01*
X82348797Y-76547671D01*
X82348793Y-76547664D01*
X82262547Y-76432455D01*
X82262544Y-76432452D01*
X82147335Y-76346206D01*
X82147328Y-76346202D01*
X82012482Y-76295908D01*
X82012483Y-76295908D01*
X81952883Y-76289501D01*
X81952881Y-76289500D01*
X81952873Y-76289500D01*
X81952864Y-76289500D01*
X80607129Y-76289500D01*
X80607123Y-76289501D01*
X80547516Y-76295908D01*
X80412671Y-76346202D01*
X80412664Y-76346206D01*
X80297455Y-76432452D01*
X80297452Y-76432455D01*
X80211206Y-76547664D01*
X80211202Y-76547671D01*
X80160908Y-76682517D01*
X80154512Y-76742011D01*
X80154501Y-76742123D01*
X80154500Y-76742135D01*
X80154500Y-77637870D01*
X80154501Y-77637876D01*
X80161738Y-77705196D01*
X80159867Y-77705397D01*
X80156666Y-77765123D01*
X80127410Y-77811551D01*
X79610782Y-78328181D01*
X79549459Y-78361666D01*
X79523101Y-78364500D01*
X70945899Y-78364500D01*
X70878860Y-78344815D01*
X70858218Y-78328181D01*
X67059563Y-74529526D01*
X67059562Y-74529525D01*
X66973938Y-74480090D01*
X66926186Y-74467295D01*
X66926184Y-74467294D01*
X66926182Y-74467293D01*
X66878436Y-74454500D01*
X66878435Y-74454500D01*
X65638899Y-74454500D01*
X65571860Y-74434815D01*
X65551218Y-74418181D01*
X65375218Y-74242181D01*
X65341733Y-74180858D01*
X65346717Y-74111166D01*
X65388589Y-74055233D01*
X65454053Y-74030816D01*
X65462899Y-74030500D01*
X67225101Y-74030500D01*
X67292140Y-74050185D01*
X67312781Y-74066818D01*
X70736437Y-77490475D01*
X70822063Y-77539911D01*
X70917564Y-77565500D01*
X70917565Y-77565500D01*
X76860336Y-77565500D01*
X76927375Y-77585185D01*
X76973130Y-77637989D01*
X76983626Y-77676246D01*
X76985909Y-77697483D01*
X77036202Y-77832328D01*
X77036206Y-77832335D01*
X77122452Y-77947544D01*
X77122455Y-77947547D01*
X77237664Y-78033793D01*
X77237671Y-78033797D01*
X77372517Y-78084091D01*
X77372516Y-78084091D01*
X77379444Y-78084835D01*
X77432127Y-78090500D01*
X78777872Y-78090499D01*
X78837483Y-78084091D01*
X78972331Y-78033796D01*
X79087546Y-77947546D01*
X79173796Y-77832331D01*
X79224091Y-77697483D01*
X79230500Y-77637873D01*
X79230499Y-76742128D01*
X79224091Y-76682517D01*
X79217748Y-76665511D01*
X79173797Y-76547671D01*
X79173793Y-76547664D01*
X79087547Y-76432455D01*
X79087544Y-76432452D01*
X78972335Y-76346206D01*
X78972328Y-76346202D01*
X78837482Y-76295908D01*
X78837483Y-76295908D01*
X78777883Y-76289501D01*
X78777881Y-76289500D01*
X78777873Y-76289500D01*
X78777864Y-76289500D01*
X77432129Y-76289500D01*
X77432123Y-76289501D01*
X77372516Y-76295908D01*
X77237671Y-76346202D01*
X77237664Y-76346206D01*
X77122455Y-76432452D01*
X77122452Y-76432455D01*
X77036206Y-76547664D01*
X77036202Y-76547671D01*
X76985908Y-76682516D01*
X76983625Y-76703757D01*
X76956886Y-76768308D01*
X76899493Y-76808155D01*
X76860336Y-76814500D01*
X74534542Y-76814500D01*
X74467503Y-76794815D01*
X74421748Y-76742011D01*
X74411804Y-76672853D01*
X74414012Y-76664804D01*
X74413584Y-76664719D01*
X74430499Y-76579678D01*
X74430500Y-76579676D01*
X74430500Y-75130323D01*
X74430499Y-75130321D01*
X74415967Y-75057264D01*
X74415966Y-75057260D01*
X74397434Y-75029525D01*
X74360601Y-74974399D01*
X74277740Y-74919034D01*
X74277739Y-74919033D01*
X74277735Y-74919032D01*
X74204677Y-74904500D01*
X74204674Y-74904500D01*
X72055326Y-74904500D01*
X72055323Y-74904500D01*
X71982264Y-74919032D01*
X71982260Y-74919033D01*
X71899399Y-74974399D01*
X71844033Y-75057260D01*
X71844032Y-75057264D01*
X71829500Y-75130321D01*
X71829500Y-75355500D01*
X71809815Y-75422539D01*
X71757011Y-75468294D01*
X71705500Y-75479500D01*
X71596899Y-75479500D01*
X71529860Y-75459815D01*
X71509218Y-75443181D01*
X70308218Y-74242181D01*
X70274733Y-74180858D01*
X70279717Y-74111166D01*
X70321589Y-74055233D01*
X70387053Y-74030816D01*
X70395899Y-74030500D01*
X72089676Y-74030500D01*
X72089677Y-74030499D01*
X72162740Y-74015966D01*
X72245601Y-73960601D01*
X72300966Y-73877740D01*
X72315499Y-73804678D01*
X78814500Y-73804678D01*
X78829032Y-73877735D01*
X78829033Y-73877739D01*
X78841274Y-73896059D01*
X78884399Y-73960601D01*
X78930741Y-73991565D01*
X78967260Y-74015966D01*
X78967264Y-74015967D01*
X79040321Y-74030499D01*
X79040324Y-74030500D01*
X79040326Y-74030500D01*
X80483101Y-74030500D01*
X80550140Y-74050185D01*
X80570782Y-74066819D01*
X83293181Y-76789218D01*
X83326666Y-76850541D01*
X83329500Y-76876899D01*
X83329500Y-77637870D01*
X83329501Y-77637876D01*
X83335908Y-77697483D01*
X83386202Y-77832328D01*
X83386206Y-77832335D01*
X83472452Y-77947544D01*
X83472455Y-77947547D01*
X83587664Y-78033793D01*
X83587671Y-78033797D01*
X83722517Y-78084091D01*
X83722516Y-78084091D01*
X83729444Y-78084835D01*
X83782127Y-78090500D01*
X85127872Y-78090499D01*
X85187483Y-78084091D01*
X85322331Y-78033796D01*
X85437546Y-77947546D01*
X85523796Y-77832331D01*
X85574091Y-77697483D01*
X85580500Y-77637873D01*
X85580499Y-76742128D01*
X85574091Y-76682517D01*
X85567748Y-76665511D01*
X85523797Y-76547671D01*
X85523793Y-76547664D01*
X85437547Y-76432455D01*
X85437544Y-76432452D01*
X85322335Y-76346206D01*
X85322328Y-76346202D01*
X85187482Y-76295908D01*
X85187483Y-76295908D01*
X85127883Y-76289501D01*
X85127881Y-76289500D01*
X85127873Y-76289500D01*
X85127865Y-76289500D01*
X83906900Y-76289500D01*
X83839861Y-76269815D01*
X83819219Y-76253181D01*
X81451819Y-73885781D01*
X81418334Y-73824458D01*
X81415500Y-73798100D01*
X81415500Y-72355323D01*
X81415499Y-72355321D01*
X81400967Y-72282264D01*
X81400966Y-72282260D01*
X81392295Y-72269283D01*
X81345601Y-72199399D01*
X81262740Y-72144034D01*
X81262739Y-72144033D01*
X81262735Y-72144032D01*
X81189677Y-72129500D01*
X81189674Y-72129500D01*
X79040326Y-72129500D01*
X79040323Y-72129500D01*
X78967264Y-72144032D01*
X78967260Y-72144033D01*
X78884399Y-72199399D01*
X78829033Y-72282260D01*
X78829032Y-72282264D01*
X78814500Y-72355321D01*
X78814500Y-73804678D01*
X72315499Y-73804678D01*
X72315500Y-73804674D01*
X72315500Y-73579500D01*
X72335185Y-73512461D01*
X72387989Y-73466706D01*
X72439500Y-73455500D01*
X73400435Y-73455500D01*
X73400436Y-73455500D01*
X73448186Y-73442705D01*
X73495938Y-73429910D01*
X73581562Y-73380475D01*
X73651475Y-73310562D01*
X73651474Y-73310562D01*
X73710043Y-73251993D01*
X73710042Y-73251993D01*
X75409218Y-71552819D01*
X75470541Y-71519334D01*
X75496899Y-71516500D01*
X75643985Y-71516500D01*
X75797365Y-71478696D01*
X75937240Y-71405283D01*
X76055483Y-71300530D01*
X76145220Y-71170523D01*
X76201237Y-71022818D01*
X76220278Y-70866000D01*
X76214276Y-70816564D01*
X76201237Y-70709181D01*
X76179992Y-70653164D01*
X76145220Y-70561477D01*
X76055483Y-70431470D01*
X75937240Y-70326717D01*
X75937238Y-70326716D01*
X75937237Y-70326715D01*
X75797365Y-70253303D01*
X75643986Y-70215500D01*
X75643985Y-70215500D01*
X75486015Y-70215500D01*
X75486014Y-70215500D01*
X75332634Y-70253303D01*
X75192762Y-70326715D01*
X75074516Y-70431471D01*
X74984781Y-70561475D01*
X74984780Y-70561476D01*
X74928763Y-70709181D01*
X74909722Y-70866000D01*
X74915896Y-70916854D01*
X74904435Y-70985777D01*
X74880481Y-71019480D01*
X73231782Y-72668181D01*
X73170459Y-72701666D01*
X73144101Y-72704500D01*
X72439500Y-72704500D01*
X72372461Y-72684815D01*
X72326706Y-72632011D01*
X72315500Y-72580500D01*
X72315500Y-72355323D01*
X72315499Y-72355321D01*
X72300967Y-72282264D01*
X72300966Y-72282260D01*
X72292295Y-72269283D01*
X72245601Y-72199399D01*
X72162740Y-72144034D01*
X72162739Y-72144033D01*
X72162735Y-72144032D01*
X72089677Y-72129500D01*
X72089674Y-72129500D01*
X69940326Y-72129500D01*
X69940323Y-72129500D01*
X69867264Y-72144032D01*
X69867260Y-72144033D01*
X69784399Y-72199399D01*
X69729033Y-72282260D01*
X69729032Y-72282264D01*
X69714500Y-72355321D01*
X69714500Y-73349101D01*
X69694815Y-73416140D01*
X69642011Y-73461895D01*
X69572853Y-73471839D01*
X69509297Y-73442814D01*
X69502819Y-73436782D01*
X68991819Y-72925782D01*
X68958334Y-72864459D01*
X68955500Y-72838101D01*
X68955500Y-67682500D01*
X68975185Y-67615461D01*
X69027989Y-67569706D01*
X69079500Y-67558500D01*
X69646558Y-67558500D01*
X69713597Y-67578185D01*
X69759352Y-67630989D01*
X69769296Y-67700147D01*
X69749660Y-67751391D01*
X69729034Y-67782259D01*
X69729032Y-67782264D01*
X69714500Y-67855321D01*
X69714500Y-69304678D01*
X69729032Y-69377735D01*
X69729033Y-69377739D01*
X69729034Y-69377740D01*
X69784399Y-69460601D01*
X69844049Y-69500457D01*
X69867260Y-69515966D01*
X69867264Y-69515967D01*
X69940321Y-69530499D01*
X69940324Y-69530500D01*
X69940326Y-69530500D01*
X72089676Y-69530500D01*
X72089677Y-69530499D01*
X72162740Y-69515966D01*
X72245601Y-69460601D01*
X72300966Y-69377740D01*
X72315500Y-69304674D01*
X72315500Y-67855326D01*
X72315500Y-67855323D01*
X72315499Y-67855321D01*
X72300967Y-67782264D01*
X72300966Y-67782262D01*
X72300966Y-67782260D01*
X72280339Y-67751390D01*
X72259462Y-67684713D01*
X72277947Y-67617333D01*
X72329926Y-67570643D01*
X72383442Y-67558500D01*
X78746558Y-67558500D01*
X78813597Y-67578185D01*
X78859352Y-67630989D01*
X78869296Y-67700147D01*
X78849660Y-67751391D01*
X78829034Y-67782259D01*
X78829032Y-67782264D01*
X78814500Y-67855321D01*
X78814500Y-69304678D01*
X78829032Y-69377735D01*
X78829033Y-69377739D01*
X78829034Y-69377740D01*
X78884399Y-69460601D01*
X78944049Y-69500457D01*
X78967260Y-69515966D01*
X78967264Y-69515967D01*
X79040321Y-69530499D01*
X79040324Y-69530500D01*
X79040326Y-69530500D01*
X81189676Y-69530500D01*
X81189677Y-69530499D01*
X81262740Y-69515966D01*
X81345601Y-69460601D01*
X81400966Y-69377740D01*
X81415500Y-69304674D01*
X81415500Y-69079500D01*
X81435185Y-69012461D01*
X81487989Y-68966706D01*
X81539500Y-68955500D01*
X81837435Y-68955500D01*
X81837436Y-68955500D01*
X81885186Y-68942705D01*
X81932938Y-68929910D01*
X82018562Y-68880475D01*
X82088475Y-68810562D01*
X83008930Y-67890105D01*
X83070253Y-67856621D01*
X83139944Y-67861605D01*
X83184292Y-67890106D01*
X86052686Y-70758500D01*
X86138268Y-70807911D01*
X86173853Y-70828456D01*
X86172467Y-70830854D01*
X86216347Y-70866205D01*
X86238420Y-70932496D01*
X86238500Y-70936939D01*
X86238500Y-72693435D01*
X86264090Y-72788938D01*
X86313165Y-72873938D01*
X86313526Y-72874563D01*
X87710525Y-74271562D01*
X87780438Y-74341475D01*
X87857118Y-74385746D01*
X87866062Y-74390910D01*
X87913811Y-74403705D01*
X87913812Y-74403705D01*
X87923903Y-74406408D01*
X87961564Y-74416500D01*
X87961565Y-74416500D01*
X96172101Y-74416500D01*
X96239140Y-74436185D01*
X96259782Y-74452819D01*
X97292782Y-75485819D01*
X97326267Y-75547142D01*
X97321283Y-75616834D01*
X97279411Y-75672767D01*
X97213947Y-75697184D01*
X97205101Y-75697500D01*
X97033935Y-75697500D01*
X96935065Y-75697500D01*
X96839562Y-75723090D01*
X96839560Y-75723091D01*
X96839559Y-75723091D01*
X96753936Y-75772526D01*
X96684028Y-75842434D01*
X96679077Y-75848887D01*
X96678801Y-75848675D01*
X96665653Y-75865807D01*
X96303280Y-76228181D01*
X96241957Y-76261666D01*
X96215599Y-76264500D01*
X95187129Y-76264500D01*
X95187123Y-76264501D01*
X95127516Y-76270908D01*
X94992671Y-76321202D01*
X94992664Y-76321206D01*
X94877455Y-76407452D01*
X94877452Y-76407455D01*
X94791206Y-76522664D01*
X94791202Y-76522671D01*
X94740908Y-76657517D01*
X94734501Y-76717116D01*
X94734501Y-76717123D01*
X94734500Y-76717135D01*
X94734500Y-77637870D01*
X94734501Y-77637876D01*
X94740908Y-77697483D01*
X94791202Y-77832328D01*
X94791206Y-77832335D01*
X94877452Y-77947544D01*
X94877455Y-77947547D01*
X94992664Y-78033793D01*
X94992671Y-78033797D01*
X95127517Y-78084091D01*
X95127516Y-78084091D01*
X95134444Y-78084835D01*
X95187127Y-78090500D01*
X96582872Y-78090499D01*
X96642483Y-78084091D01*
X96777331Y-78033796D01*
X96892546Y-77947546D01*
X96978796Y-77832331D01*
X97029091Y-77697483D01*
X97035500Y-77637873D01*
X97035499Y-76717128D01*
X97029091Y-76657517D01*
X97029090Y-76657515D01*
X97029090Y-76657512D01*
X97027308Y-76649969D01*
X97030576Y-76649196D01*
X97026662Y-76594748D01*
X97060122Y-76533415D01*
X97071858Y-76521678D01*
X97108722Y-76484817D01*
X97170045Y-76451333D01*
X97196401Y-76448500D01*
X97769800Y-76448500D01*
X97836839Y-76468185D01*
X97882594Y-76520989D01*
X97893800Y-76572500D01*
X97893800Y-76948578D01*
X97908332Y-77021635D01*
X97908333Y-77021639D01*
X97908334Y-77021640D01*
X97963699Y-77104501D01*
X98045854Y-77159394D01*
X98046560Y-77159866D01*
X98046564Y-77159867D01*
X98119621Y-77174399D01*
X98119624Y-77174400D01*
X98119626Y-77174400D01*
X98503200Y-77174400D01*
X98570239Y-77194085D01*
X98615994Y-77246889D01*
X98627200Y-77298400D01*
X98627200Y-78224135D01*
X98652790Y-78319638D01*
X98652791Y-78319639D01*
X98652791Y-78319640D01*
X98663444Y-78338091D01*
X98681918Y-78370090D01*
X98702226Y-78405263D01*
X99283181Y-78986218D01*
X99316666Y-79047541D01*
X99319500Y-79073899D01*
X99319500Y-80099489D01*
X99299815Y-80166528D01*
X99264392Y-80202591D01*
X99233699Y-80223099D01*
X99178333Y-80305960D01*
X99178332Y-80305963D01*
X99167617Y-80359834D01*
X99135232Y-80421745D01*
X99074516Y-80456319D01*
X99004747Y-80452579D01*
X98948075Y-80411712D01*
X98924383Y-80359834D01*
X98913667Y-80305963D01*
X98913666Y-80305962D01*
X98913666Y-80305960D01*
X98858301Y-80223099D01*
X98841608Y-80211945D01*
X98796804Y-80158332D01*
X98786500Y-80108843D01*
X98786500Y-79731567D01*
X98786499Y-79731560D01*
X98780318Y-79708493D01*
X98780317Y-79708490D01*
X98780313Y-79708475D01*
X98760911Y-79636063D01*
X98711475Y-79550438D01*
X97580563Y-78419526D01*
X97580562Y-78419525D01*
X97494938Y-78370090D01*
X97447186Y-78357295D01*
X97447184Y-78357294D01*
X97447182Y-78357293D01*
X97399436Y-78344500D01*
X97399435Y-78344500D01*
X93226899Y-78344500D01*
X93159860Y-78324815D01*
X93139218Y-78308181D01*
X89860563Y-75029526D01*
X89860562Y-75029525D01*
X89774938Y-74980090D01*
X89727186Y-74967295D01*
X89727184Y-74967294D01*
X89727182Y-74967293D01*
X89679436Y-74954500D01*
X89679435Y-74954500D01*
X86736900Y-74954500D01*
X86669861Y-74934815D01*
X86649219Y-74918181D01*
X83614517Y-71883480D01*
X83581032Y-71822157D01*
X83579102Y-71780857D01*
X83585278Y-71730000D01*
X83566237Y-71573182D01*
X83510220Y-71425477D01*
X83420483Y-71295470D01*
X83302240Y-71190717D01*
X83302238Y-71190716D01*
X83302237Y-71190715D01*
X83162365Y-71117303D01*
X83008986Y-71079500D01*
X83008985Y-71079500D01*
X82851015Y-71079500D01*
X82851014Y-71079500D01*
X82697634Y-71117303D01*
X82557762Y-71190715D01*
X82439516Y-71295471D01*
X82349781Y-71425475D01*
X82349780Y-71425476D01*
X82293762Y-71573181D01*
X82274722Y-71729999D01*
X82274722Y-71730000D01*
X82293762Y-71886818D01*
X82349780Y-72034523D01*
X82439517Y-72164530D01*
X82557760Y-72269283D01*
X82557762Y-72269284D01*
X82697634Y-72342696D01*
X82851014Y-72380500D01*
X82998100Y-72380500D01*
X83065139Y-72400185D01*
X83085781Y-72416819D01*
X86299437Y-75630475D01*
X86385063Y-75679911D01*
X86480564Y-75705500D01*
X86480565Y-75705500D01*
X89423101Y-75705500D01*
X89490140Y-75725185D01*
X89510782Y-75741819D01*
X92719525Y-78950562D01*
X92789438Y-79020475D01*
X92875062Y-79069910D01*
X92922811Y-79082705D01*
X92922812Y-79082705D01*
X92932903Y-79085408D01*
X92970564Y-79095500D01*
X92970565Y-79095500D01*
X97143101Y-79095500D01*
X97210140Y-79115185D01*
X97230782Y-79131819D01*
X97999181Y-79900218D01*
X98032666Y-79961541D01*
X98035500Y-79987899D01*
X98035500Y-80108843D01*
X98015815Y-80175882D01*
X97980392Y-80211945D01*
X97963698Y-80223099D01*
X97908334Y-80305960D01*
X97908332Y-80305964D01*
X97893800Y-80379021D01*
X97893800Y-82130178D01*
X97908332Y-82203235D01*
X97908333Y-82203239D01*
X97908334Y-82203240D01*
X97963699Y-82286101D01*
X98035500Y-82334076D01*
X98046560Y-82341466D01*
X98046564Y-82341467D01*
X98119621Y-82355999D01*
X98119624Y-82356000D01*
X98119626Y-82356000D01*
X98702376Y-82356000D01*
X98702377Y-82355999D01*
X98775440Y-82341466D01*
X98858301Y-82286101D01*
X98913666Y-82203240D01*
X98915691Y-82193058D01*
X98924383Y-82149366D01*
X98956768Y-82087455D01*
X99017483Y-82052881D01*
X99087253Y-82056620D01*
X99143925Y-82097487D01*
X99167617Y-82149366D01*
X99178332Y-82203235D01*
X99178333Y-82203239D01*
X99178334Y-82203240D01*
X99233699Y-82286101D01*
X99305500Y-82334076D01*
X99316560Y-82341466D01*
X99316564Y-82341467D01*
X99389621Y-82355999D01*
X99389624Y-82356000D01*
X99389626Y-82356000D01*
X99972376Y-82356000D01*
X99972377Y-82355999D01*
X100045440Y-82341466D01*
X100128301Y-82286101D01*
X100183666Y-82203240D01*
X100185691Y-82193058D01*
X100194383Y-82149366D01*
X100226768Y-82087455D01*
X100287483Y-82052881D01*
X100357253Y-82056620D01*
X100413925Y-82097487D01*
X100437617Y-82149366D01*
X100448332Y-82203235D01*
X100448333Y-82203239D01*
X100448334Y-82203240D01*
X100503699Y-82286101D01*
X100520389Y-82297253D01*
X100565195Y-82350862D01*
X100575500Y-82400355D01*
X100575500Y-82605769D01*
X100555815Y-82672808D01*
X100533727Y-82698584D01*
X100469518Y-82755468D01*
X100379781Y-82885475D01*
X100379780Y-82885476D01*
X100323762Y-83033181D01*
X100304722Y-83189999D01*
X100304722Y-83190000D01*
X100323762Y-83346818D01*
X100377884Y-83489523D01*
X100379780Y-83494523D01*
X100469517Y-83624530D01*
X100587760Y-83729283D01*
X100587762Y-83729284D01*
X100727634Y-83802696D01*
X100881014Y-83840500D01*
X100881015Y-83840500D01*
X101038985Y-83840500D01*
X101192365Y-83802696D01*
X101201892Y-83797696D01*
X101332240Y-83729283D01*
X101450483Y-83624530D01*
X101482950Y-83577492D01*
X101537233Y-83533503D01*
X101606681Y-83525843D01*
X101669246Y-83556946D01*
X101687049Y-83577492D01*
X101719517Y-83624530D01*
X101837760Y-83729283D01*
X101837762Y-83729284D01*
X101977634Y-83802696D01*
X102131014Y-83840500D01*
X102131015Y-83840500D01*
X102288985Y-83840500D01*
X102442365Y-83802696D01*
X102451892Y-83797696D01*
X102582240Y-83729283D01*
X102700483Y-83624530D01*
X102757175Y-83542396D01*
X102811457Y-83498406D01*
X102880906Y-83490746D01*
X102943471Y-83521849D01*
X102961275Y-83542396D01*
X102985501Y-83577493D01*
X103014517Y-83619530D01*
X103132760Y-83724283D01*
X103144860Y-83730633D01*
X103272634Y-83797696D01*
X103426014Y-83835500D01*
X103426015Y-83835500D01*
X103583985Y-83835500D01*
X103737365Y-83797696D01*
X103877240Y-83724283D01*
X103995483Y-83619530D01*
X104085220Y-83489523D01*
X104141237Y-83341818D01*
X104160278Y-83185000D01*
X104152804Y-83123441D01*
X104141237Y-83028181D01*
X104087116Y-82885477D01*
X104085220Y-82880477D01*
X103995483Y-82750470D01*
X103908272Y-82673208D01*
X103871146Y-82614020D01*
X103866500Y-82580394D01*
X103866500Y-82400355D01*
X103886185Y-82333316D01*
X103921609Y-82297253D01*
X103938301Y-82286101D01*
X103993666Y-82203240D01*
X103995691Y-82193058D01*
X104004383Y-82149366D01*
X104036768Y-82087455D01*
X104097483Y-82052881D01*
X104167253Y-82056620D01*
X104223925Y-82097487D01*
X104247617Y-82149366D01*
X104258332Y-82203235D01*
X104258333Y-82203239D01*
X104258334Y-82203240D01*
X104313698Y-82286100D01*
X104313700Y-82286102D01*
X104373171Y-82325839D01*
X104411667Y-82366940D01*
X104460525Y-82451562D01*
X105045481Y-83036518D01*
X105078966Y-83097841D01*
X105080896Y-83139143D01*
X105074722Y-83189997D01*
X105074722Y-83190000D01*
X105093762Y-83346818D01*
X105147884Y-83489523D01*
X105149780Y-83494523D01*
X105239517Y-83624530D01*
X105357760Y-83729283D01*
X105357762Y-83729284D01*
X105497634Y-83802696D01*
X105651014Y-83840500D01*
X105651015Y-83840500D01*
X105808985Y-83840500D01*
X105962365Y-83802696D01*
X105971892Y-83797696D01*
X106102240Y-83729283D01*
X106220483Y-83624530D01*
X106310220Y-83494523D01*
X106366237Y-83346818D01*
X106385278Y-83190000D01*
X106366237Y-83033182D01*
X106364340Y-83028181D01*
X106339254Y-82962033D01*
X106310220Y-82885477D01*
X106220483Y-82755470D01*
X106102240Y-82650717D01*
X106102238Y-82650716D01*
X106102237Y-82650715D01*
X105986167Y-82589796D01*
X105935954Y-82541211D01*
X105919980Y-82473192D01*
X105943315Y-82407335D01*
X105998552Y-82364548D01*
X106043793Y-82356000D01*
X106322376Y-82356000D01*
X106322377Y-82355999D01*
X106395440Y-82341466D01*
X106478301Y-82286101D01*
X106533666Y-82203240D01*
X106544637Y-82148082D01*
X106577020Y-82086174D01*
X106637736Y-82051599D01*
X106707505Y-82055338D01*
X106764178Y-82096203D01*
X106787871Y-82148082D01*
X106798803Y-82203041D01*
X106798805Y-82203044D01*
X106854060Y-82285739D01*
X106936755Y-82340994D01*
X106936759Y-82340996D01*
X107009671Y-82355499D01*
X107009674Y-82355500D01*
X107176000Y-82355500D01*
X107176000Y-81379600D01*
X107426000Y-81379600D01*
X107426000Y-82355500D01*
X107592326Y-82355500D01*
X107592328Y-82355499D01*
X107665240Y-82340996D01*
X107665244Y-82340994D01*
X107747939Y-82285739D01*
X107803194Y-82203044D01*
X107803196Y-82203040D01*
X107817699Y-82130128D01*
X107817700Y-82130126D01*
X107817700Y-81379600D01*
X107426000Y-81379600D01*
X107176000Y-81379600D01*
X107176000Y-80153700D01*
X107426000Y-80153700D01*
X107426000Y-81129600D01*
X107817700Y-81129600D01*
X107817700Y-80379073D01*
X107817699Y-80379071D01*
X107803196Y-80306159D01*
X107803194Y-80306155D01*
X107747939Y-80223460D01*
X107665244Y-80168205D01*
X107665240Y-80168203D01*
X107592327Y-80153700D01*
X107426000Y-80153700D01*
X107176000Y-80153700D01*
X107009673Y-80153700D01*
X106936759Y-80168203D01*
X106936755Y-80168205D01*
X106854060Y-80223460D01*
X106798805Y-80306155D01*
X106798803Y-80306158D01*
X106787871Y-80361117D01*
X106755485Y-80423028D01*
X106694769Y-80457601D01*
X106624999Y-80453860D01*
X106568328Y-80412993D01*
X106544637Y-80361117D01*
X106533666Y-80305960D01*
X106478301Y-80223099D01*
X106420500Y-80184478D01*
X106395439Y-80167733D01*
X106395435Y-80167732D01*
X106322377Y-80153200D01*
X106322374Y-80153200D01*
X105739626Y-80153200D01*
X105739623Y-80153200D01*
X105666564Y-80167732D01*
X105666560Y-80167733D01*
X105583699Y-80223099D01*
X105528333Y-80305960D01*
X105528332Y-80305963D01*
X105517617Y-80359834D01*
X105485232Y-80421745D01*
X105424516Y-80456319D01*
X105354747Y-80452579D01*
X105298075Y-80411712D01*
X105274383Y-80359834D01*
X105263667Y-80305963D01*
X105263666Y-80305960D01*
X105260352Y-80301000D01*
X105208301Y-80223099D01*
X105150500Y-80184478D01*
X105125439Y-80167733D01*
X105125435Y-80167732D01*
X105052377Y-80153200D01*
X105052374Y-80153200D01*
X104469626Y-80153200D01*
X104469623Y-80153200D01*
X104396564Y-80167732D01*
X104396560Y-80167733D01*
X104313699Y-80223099D01*
X104258333Y-80305960D01*
X104258332Y-80305963D01*
X104247617Y-80359834D01*
X104215232Y-80421745D01*
X104154516Y-80456319D01*
X104084747Y-80452579D01*
X104028075Y-80411712D01*
X104004383Y-80359834D01*
X103993667Y-80305963D01*
X103993666Y-80305960D01*
X103990352Y-80301000D01*
X103938301Y-80223099D01*
X103880500Y-80184478D01*
X103855439Y-80167733D01*
X103855435Y-80167732D01*
X103782377Y-80153200D01*
X103782374Y-80153200D01*
X103199626Y-80153200D01*
X103199623Y-80153200D01*
X103126564Y-80167732D01*
X103126560Y-80167733D01*
X103043699Y-80223099D01*
X102988333Y-80305960D01*
X102988332Y-80305963D01*
X102977617Y-80359834D01*
X102945232Y-80421745D01*
X102884516Y-80456319D01*
X102814747Y-80452579D01*
X102758075Y-80411712D01*
X102734383Y-80359834D01*
X102723667Y-80305963D01*
X102723666Y-80305960D01*
X102720352Y-80301000D01*
X102668301Y-80223099D01*
X102610500Y-80184478D01*
X102585439Y-80167733D01*
X102585435Y-80167732D01*
X102512377Y-80153200D01*
X102512374Y-80153200D01*
X101929626Y-80153200D01*
X101929623Y-80153200D01*
X101856564Y-80167732D01*
X101856560Y-80167733D01*
X101773699Y-80223099D01*
X101718333Y-80305960D01*
X101718332Y-80305963D01*
X101707617Y-80359834D01*
X101675232Y-80421745D01*
X101614516Y-80456319D01*
X101544747Y-80452579D01*
X101488075Y-80411712D01*
X101464383Y-80359834D01*
X101453667Y-80305963D01*
X101453666Y-80305960D01*
X101450352Y-80301000D01*
X101398301Y-80223099D01*
X101340500Y-80184478D01*
X101315439Y-80167733D01*
X101315435Y-80167732D01*
X101242377Y-80153200D01*
X101242374Y-80153200D01*
X100659626Y-80153200D01*
X100659623Y-80153200D01*
X100586564Y-80167732D01*
X100586560Y-80167733D01*
X100503699Y-80223099D01*
X100448333Y-80305960D01*
X100448332Y-80305963D01*
X100437617Y-80359834D01*
X100405232Y-80421745D01*
X100344516Y-80456319D01*
X100274747Y-80452579D01*
X100218075Y-80411712D01*
X100194383Y-80359834D01*
X100183667Y-80305963D01*
X100183666Y-80305960D01*
X100180352Y-80301000D01*
X100128301Y-80223099D01*
X100128299Y-80223098D01*
X100128299Y-80223097D01*
X100125606Y-80221298D01*
X100121060Y-80215858D01*
X100119665Y-80214463D01*
X100119789Y-80214338D01*
X100080803Y-80167684D01*
X100070500Y-80118198D01*
X100070500Y-78817564D01*
X100064326Y-78794525D01*
X100064325Y-78794522D01*
X100044910Y-78722063D01*
X100044909Y-78722060D01*
X100039533Y-78712749D01*
X99995475Y-78636438D01*
X99925562Y-78566525D01*
X99414519Y-78055482D01*
X99381034Y-77994159D01*
X99378200Y-77967801D01*
X99378200Y-77432678D01*
X128007500Y-77432678D01*
X128022032Y-77505735D01*
X128022033Y-77505739D01*
X128022034Y-77505740D01*
X128077399Y-77588601D01*
X128151128Y-77637864D01*
X128160260Y-77643966D01*
X128160264Y-77643967D01*
X128233321Y-77658499D01*
X128233324Y-77658500D01*
X128233326Y-77658500D01*
X128808500Y-77658500D01*
X128875539Y-77678185D01*
X128921294Y-77730989D01*
X128932500Y-77782500D01*
X128932500Y-79457435D01*
X128958090Y-79552938D01*
X128958091Y-79552939D01*
X128958091Y-79552940D01*
X128967834Y-79569815D01*
X129006082Y-79636063D01*
X129007526Y-79638563D01*
X129455481Y-80086518D01*
X129488966Y-80147841D01*
X129490896Y-80189143D01*
X129484722Y-80239997D01*
X129484722Y-80240000D01*
X129503762Y-80396818D01*
X129559780Y-80544523D01*
X129649517Y-80674530D01*
X129767760Y-80779283D01*
X129767762Y-80779284D01*
X129907634Y-80852696D01*
X130061014Y-80890500D01*
X130061015Y-80890500D01*
X130218985Y-80890500D01*
X130372365Y-80852696D01*
X130430128Y-80822379D01*
X130512240Y-80779283D01*
X130630483Y-80674530D01*
X130634300Y-80669000D01*
X144798000Y-80669000D01*
X144798000Y-80991844D01*
X144804401Y-81051372D01*
X144804403Y-81051379D01*
X144854645Y-81186086D01*
X144854649Y-81186093D01*
X144940809Y-81301187D01*
X144940812Y-81301190D01*
X145055906Y-81387350D01*
X145055913Y-81387354D01*
X145190620Y-81437596D01*
X145190627Y-81437598D01*
X145250155Y-81443999D01*
X145250172Y-81444000D01*
X145798000Y-81444000D01*
X145798000Y-80669000D01*
X146048000Y-80669000D01*
X146048000Y-81444000D01*
X146595828Y-81444000D01*
X146595844Y-81443999D01*
X146655372Y-81437598D01*
X146655379Y-81437596D01*
X146790086Y-81387354D01*
X146790093Y-81387350D01*
X146905187Y-81301190D01*
X146905190Y-81301187D01*
X146991350Y-81186093D01*
X146991354Y-81186086D01*
X147041596Y-81051379D01*
X147041598Y-81051372D01*
X147047999Y-80991844D01*
X147048000Y-80991827D01*
X147048000Y-80669000D01*
X147973000Y-80669000D01*
X147973000Y-80991844D01*
X147979401Y-81051372D01*
X147979403Y-81051379D01*
X148029645Y-81186086D01*
X148029649Y-81186093D01*
X148115809Y-81301187D01*
X148115812Y-81301190D01*
X148230906Y-81387350D01*
X148230913Y-81387354D01*
X148365620Y-81437596D01*
X148365627Y-81437598D01*
X148425155Y-81443999D01*
X148425172Y-81444000D01*
X148973000Y-81444000D01*
X148973000Y-80669000D01*
X149223000Y-80669000D01*
X149223000Y-81444000D01*
X149770828Y-81444000D01*
X149770844Y-81443999D01*
X149830372Y-81437598D01*
X149830379Y-81437596D01*
X149965086Y-81387354D01*
X149965093Y-81387350D01*
X150080187Y-81301190D01*
X150080190Y-81301187D01*
X150166350Y-81186093D01*
X150166354Y-81186086D01*
X150216596Y-81051379D01*
X150216598Y-81051372D01*
X150222999Y-80991844D01*
X150223000Y-80991827D01*
X150223000Y-80669000D01*
X149223000Y-80669000D01*
X148973000Y-80669000D01*
X147973000Y-80669000D01*
X147048000Y-80669000D01*
X146048000Y-80669000D01*
X145798000Y-80669000D01*
X144798000Y-80669000D01*
X130634300Y-80669000D01*
X130720220Y-80544523D01*
X130776237Y-80396818D01*
X130795278Y-80240000D01*
X130788537Y-80184478D01*
X130776237Y-80083181D01*
X130740101Y-79987899D01*
X130720220Y-79935477D01*
X130630483Y-79805470D01*
X130512240Y-79700717D01*
X130512238Y-79700716D01*
X130512237Y-79700715D01*
X130372365Y-79627303D01*
X130218986Y-79589500D01*
X130218985Y-79589500D01*
X130071900Y-79589500D01*
X130004861Y-79569815D01*
X129984219Y-79553181D01*
X129719819Y-79288781D01*
X129686334Y-79227458D01*
X129683500Y-79201100D01*
X129683500Y-77782500D01*
X129703185Y-77715461D01*
X129755989Y-77669706D01*
X129807500Y-77658500D01*
X130382676Y-77658500D01*
X130382677Y-77658499D01*
X130455740Y-77643966D01*
X130538601Y-77588601D01*
X130593966Y-77505740D01*
X130608500Y-77432674D01*
X130608500Y-75983326D01*
X130608500Y-75983323D01*
X130608499Y-75983321D01*
X130593967Y-75910264D01*
X130593966Y-75910260D01*
X130538601Y-75827399D01*
X130483235Y-75790405D01*
X130455739Y-75772033D01*
X130455735Y-75772032D01*
X130382677Y-75757500D01*
X130382674Y-75757500D01*
X128233326Y-75757500D01*
X128233323Y-75757500D01*
X128160264Y-75772032D01*
X128160260Y-75772033D01*
X128077399Y-75827399D01*
X128022033Y-75910260D01*
X128022032Y-75910264D01*
X128007500Y-75983321D01*
X128007500Y-77432678D01*
X99378200Y-77432678D01*
X99378200Y-77297900D01*
X99397885Y-77230861D01*
X99450689Y-77185106D01*
X99502200Y-77173900D01*
X99556000Y-77173900D01*
X99556000Y-74972100D01*
X99502200Y-74972100D01*
X99435161Y-74952415D01*
X99389406Y-74899611D01*
X99378200Y-74848100D01*
X99378200Y-74178199D01*
X99397885Y-74111160D01*
X99414519Y-74090518D01*
X99788218Y-73716819D01*
X99849541Y-73683334D01*
X99875899Y-73680500D01*
X100226364Y-73680500D01*
X100293403Y-73700185D01*
X100339158Y-73752989D01*
X100349102Y-73822147D01*
X100342306Y-73848471D01*
X100328763Y-73884181D01*
X100309722Y-74040999D01*
X100309722Y-74041000D01*
X100328762Y-74197818D01*
X100347756Y-74247899D01*
X100384780Y-74345523D01*
X100407257Y-74378086D01*
X100474517Y-74475531D01*
X100533726Y-74527984D01*
X100570853Y-74587173D01*
X100575500Y-74620800D01*
X100575500Y-74927243D01*
X100555815Y-74994282D01*
X100520392Y-75030345D01*
X100503698Y-75041499D01*
X100448334Y-75124360D01*
X100448332Y-75124363D01*
X100437362Y-75179516D01*
X100404977Y-75241427D01*
X100344261Y-75276001D01*
X100274492Y-75272261D01*
X100217820Y-75231394D01*
X100194128Y-75179515D01*
X100183196Y-75124559D01*
X100183194Y-75124555D01*
X100127939Y-75041860D01*
X100045244Y-74986605D01*
X100045240Y-74986603D01*
X99972327Y-74972100D01*
X99806000Y-74972100D01*
X99806000Y-77173900D01*
X99972326Y-77173900D01*
X99972328Y-77173899D01*
X100045240Y-77159396D01*
X100045244Y-77159394D01*
X100127939Y-77104139D01*
X100183194Y-77021444D01*
X100183196Y-77021440D01*
X100194128Y-76966484D01*
X100226512Y-76904573D01*
X100287228Y-76869999D01*
X100356998Y-76873738D01*
X100413670Y-76914604D01*
X100437362Y-76966484D01*
X100448332Y-77021635D01*
X100448333Y-77021639D01*
X100448334Y-77021640D01*
X100503699Y-77104501D01*
X100585854Y-77159394D01*
X100586560Y-77159866D01*
X100586564Y-77159867D01*
X100659621Y-77174399D01*
X100659624Y-77174400D01*
X100659626Y-77174400D01*
X101242376Y-77174400D01*
X101242377Y-77174399D01*
X101315440Y-77159866D01*
X101398301Y-77104501D01*
X101453666Y-77021640D01*
X101453706Y-77021440D01*
X101464383Y-76967766D01*
X101496768Y-76905855D01*
X101557483Y-76871281D01*
X101627253Y-76875020D01*
X101683925Y-76915887D01*
X101707617Y-76967766D01*
X101718332Y-77021635D01*
X101718333Y-77021639D01*
X101718334Y-77021640D01*
X101773699Y-77104501D01*
X101855854Y-77159394D01*
X101856560Y-77159866D01*
X101856564Y-77159867D01*
X101929621Y-77174399D01*
X101929624Y-77174400D01*
X101929626Y-77174400D01*
X102512376Y-77174400D01*
X102512377Y-77174399D01*
X102585440Y-77159866D01*
X102668301Y-77104501D01*
X102723666Y-77021640D01*
X102723706Y-77021440D01*
X102734383Y-76967766D01*
X102766768Y-76905855D01*
X102827483Y-76871281D01*
X102897253Y-76875020D01*
X102953925Y-76915887D01*
X102977617Y-76967766D01*
X102988332Y-77021635D01*
X102988333Y-77021639D01*
X102988334Y-77021640D01*
X103043699Y-77104501D01*
X103125854Y-77159394D01*
X103126560Y-77159866D01*
X103126564Y-77159867D01*
X103199621Y-77174399D01*
X103199624Y-77174400D01*
X103199626Y-77174400D01*
X103782376Y-77174400D01*
X103782377Y-77174399D01*
X103855440Y-77159866D01*
X103938301Y-77104501D01*
X103993666Y-77021640D01*
X103993706Y-77021440D01*
X104004383Y-76967766D01*
X104036768Y-76905855D01*
X104097483Y-76871281D01*
X104167253Y-76875020D01*
X104223925Y-76915887D01*
X104247617Y-76967766D01*
X104258332Y-77021635D01*
X104258333Y-77021639D01*
X104258334Y-77021640D01*
X104313699Y-77104501D01*
X104395854Y-77159394D01*
X104396560Y-77159866D01*
X104396564Y-77159867D01*
X104469621Y-77174399D01*
X104469624Y-77174400D01*
X104469626Y-77174400D01*
X105052376Y-77174400D01*
X105052377Y-77174399D01*
X105125440Y-77159866D01*
X105208301Y-77104501D01*
X105263666Y-77021640D01*
X105274637Y-76966482D01*
X105307020Y-76904574D01*
X105367736Y-76869999D01*
X105437505Y-76873738D01*
X105494178Y-76914603D01*
X105517871Y-76966482D01*
X105528803Y-77021441D01*
X105528805Y-77021444D01*
X105584060Y-77104139D01*
X105666755Y-77159394D01*
X105666759Y-77159396D01*
X105739671Y-77173899D01*
X105739674Y-77173900D01*
X105906000Y-77173900D01*
X105906000Y-74972100D01*
X105739673Y-74972100D01*
X105666759Y-74986603D01*
X105666755Y-74986605D01*
X105584060Y-75041860D01*
X105528805Y-75124555D01*
X105528803Y-75124558D01*
X105517871Y-75179517D01*
X105485485Y-75241428D01*
X105424769Y-75276001D01*
X105354999Y-75272260D01*
X105298328Y-75231393D01*
X105274637Y-75179517D01*
X105263666Y-75124360D01*
X105208301Y-75041499D01*
X105191608Y-75030345D01*
X105146804Y-74976732D01*
X105136500Y-74927243D01*
X105136500Y-74640176D01*
X105156185Y-74573137D01*
X105178274Y-74547360D01*
X105260481Y-74474532D01*
X105260481Y-74474531D01*
X105260483Y-74474530D01*
X105291402Y-74429734D01*
X105345682Y-74385746D01*
X105415131Y-74378086D01*
X105477696Y-74409188D01*
X105495498Y-74429732D01*
X105519517Y-74464530D01*
X105637760Y-74569283D01*
X105637762Y-74569284D01*
X105777634Y-74642696D01*
X105931014Y-74680500D01*
X106078100Y-74680500D01*
X106145139Y-74700185D01*
X106165781Y-74716819D01*
X106209381Y-74760419D01*
X106242866Y-74821742D01*
X106237882Y-74891434D01*
X106196010Y-74947367D01*
X106171645Y-74956454D01*
X106156000Y-74972100D01*
X106156000Y-77173900D01*
X106322326Y-77173900D01*
X106322328Y-77173899D01*
X106395240Y-77159396D01*
X106395244Y-77159394D01*
X106477939Y-77104139D01*
X106533194Y-77021444D01*
X106533196Y-77021440D01*
X106544128Y-76966484D01*
X106576512Y-76904573D01*
X106637228Y-76869999D01*
X106706998Y-76873738D01*
X106763670Y-76914604D01*
X106787362Y-76966484D01*
X106798332Y-77021635D01*
X106798333Y-77021639D01*
X106798334Y-77021640D01*
X106853699Y-77104501D01*
X106935854Y-77159394D01*
X106936560Y-77159866D01*
X106936564Y-77159867D01*
X107009621Y-77174399D01*
X107009624Y-77174400D01*
X107009626Y-77174400D01*
X107592376Y-77174400D01*
X107592377Y-77174399D01*
X107665440Y-77159866D01*
X107748301Y-77104501D01*
X107803666Y-77021640D01*
X107818200Y-76948574D01*
X107818200Y-75197426D01*
X107818200Y-75197423D01*
X107818199Y-75197421D01*
X107803667Y-75124364D01*
X107803666Y-75124360D01*
X107748301Y-75041499D01*
X107666142Y-74986603D01*
X107665439Y-74986133D01*
X107665435Y-74986132D01*
X107592377Y-74971600D01*
X107592374Y-74971600D01*
X107534000Y-74971600D01*
X107466961Y-74951915D01*
X107446319Y-74935281D01*
X106694517Y-74183480D01*
X106661032Y-74122157D01*
X106659102Y-74080857D01*
X106665278Y-74030000D01*
X106646237Y-73873182D01*
X106646236Y-73873179D01*
X106646236Y-73873178D01*
X106636866Y-73848470D01*
X106631499Y-73778807D01*
X106664647Y-73717301D01*
X106725786Y-73683480D01*
X106752808Y-73680500D01*
X107029976Y-73680500D01*
X107097015Y-73700185D01*
X107132026Y-73734060D01*
X107136636Y-73740738D01*
X107205517Y-73840530D01*
X107323760Y-73945283D01*
X107323762Y-73945284D01*
X107463634Y-74018696D01*
X107617014Y-74056500D01*
X107617015Y-74056500D01*
X107774985Y-74056500D01*
X107928365Y-74018696D01*
X107933565Y-74015967D01*
X108068240Y-73945283D01*
X108186483Y-73840530D01*
X108276220Y-73710523D01*
X108332237Y-73562818D01*
X108351278Y-73406000D01*
X108339792Y-73311399D01*
X108332237Y-73249181D01*
X108297846Y-73158500D01*
X108276220Y-73101477D01*
X108186483Y-72971470D01*
X108142695Y-72932678D01*
X128007500Y-72932678D01*
X128022032Y-73005735D01*
X128022033Y-73005739D01*
X128022034Y-73005740D01*
X128077399Y-73088601D01*
X128145439Y-73134063D01*
X128160260Y-73143966D01*
X128160264Y-73143967D01*
X128233321Y-73158499D01*
X128233324Y-73158500D01*
X128233326Y-73158500D01*
X130382676Y-73158500D01*
X130382677Y-73158499D01*
X130455740Y-73143966D01*
X130538601Y-73088601D01*
X130593966Y-73005740D01*
X130608500Y-72932674D01*
X130608500Y-71483326D01*
X130608500Y-71483323D01*
X130608499Y-71483321D01*
X130593967Y-71410264D01*
X130593966Y-71410260D01*
X130590641Y-71405284D01*
X130538601Y-71327399D01*
X130455740Y-71272034D01*
X130455739Y-71272033D01*
X130455735Y-71272032D01*
X130382677Y-71257500D01*
X130382674Y-71257500D01*
X128233326Y-71257500D01*
X128233323Y-71257500D01*
X128160264Y-71272032D01*
X128160260Y-71272033D01*
X128077399Y-71327399D01*
X128022033Y-71410260D01*
X128022032Y-71410264D01*
X128007500Y-71483321D01*
X128007500Y-72932678D01*
X108142695Y-72932678D01*
X108068240Y-72866717D01*
X108068238Y-72866716D01*
X108068237Y-72866715D01*
X107928365Y-72793303D01*
X107774986Y-72755500D01*
X107774985Y-72755500D01*
X107617015Y-72755500D01*
X107617014Y-72755500D01*
X107463634Y-72793303D01*
X107323761Y-72866715D01*
X107323759Y-72866717D01*
X107288091Y-72898316D01*
X107224858Y-72928037D01*
X107205865Y-72929500D01*
X99619564Y-72929500D01*
X99571812Y-72942295D01*
X99571811Y-72942294D01*
X99524063Y-72955089D01*
X99524062Y-72955089D01*
X99438435Y-73004527D01*
X98702227Y-73740735D01*
X98655224Y-73822147D01*
X98652790Y-73826362D01*
X98652790Y-73826363D01*
X98640245Y-73873182D01*
X98630364Y-73910059D01*
X98630363Y-73910063D01*
X98627200Y-73921865D01*
X98627200Y-74847600D01*
X98607515Y-74914639D01*
X98554711Y-74960394D01*
X98503200Y-74971600D01*
X98119623Y-74971600D01*
X98046564Y-74986132D01*
X98046557Y-74986135D01*
X98016442Y-75006257D01*
X97949764Y-75027134D01*
X97882385Y-75008648D01*
X97859872Y-74990835D01*
X96609563Y-73740526D01*
X96609562Y-73740525D01*
X96523938Y-73691090D01*
X96476186Y-73678295D01*
X96476184Y-73678294D01*
X96476182Y-73678293D01*
X96428436Y-73665500D01*
X96428435Y-73665500D01*
X88217899Y-73665500D01*
X88150860Y-73645815D01*
X88130218Y-73629181D01*
X87025819Y-72524782D01*
X86992334Y-72463459D01*
X86989500Y-72437101D01*
X86989500Y-70982500D01*
X87009185Y-70915461D01*
X87061989Y-70869706D01*
X87113500Y-70858500D01*
X118429890Y-70858500D01*
X118429892Y-70858500D01*
X118557186Y-70824392D01*
X118671314Y-70758500D01*
X119931104Y-69498707D01*
X119931109Y-69498704D01*
X119941312Y-69488500D01*
X119941314Y-69488500D01*
X120034500Y-69395314D01*
X120100392Y-69281186D01*
X120134500Y-69153892D01*
X120134500Y-67682500D01*
X120154185Y-67615461D01*
X120206989Y-67569706D01*
X120258500Y-67558500D01*
X122100101Y-67558500D01*
X122167140Y-67578185D01*
X122187782Y-67594819D01*
X125281525Y-70688562D01*
X125351438Y-70758475D01*
X125437062Y-70807910D01*
X125437066Y-70807911D01*
X125469357Y-70816564D01*
X125469358Y-70816564D01*
X125482715Y-70820142D01*
X125532564Y-70833500D01*
X125532565Y-70833500D01*
X131973101Y-70833500D01*
X132040140Y-70853185D01*
X132060781Y-70869818D01*
X133699437Y-72508475D01*
X133785063Y-72557911D01*
X133880564Y-72583500D01*
X133880565Y-72583500D01*
X136983500Y-72583500D01*
X137050539Y-72603185D01*
X137096294Y-72655989D01*
X137107500Y-72707500D01*
X137107500Y-72932678D01*
X137122032Y-73005735D01*
X137122033Y-73005739D01*
X137122034Y-73005740D01*
X137177399Y-73088601D01*
X137245439Y-73134063D01*
X137260260Y-73143966D01*
X137260264Y-73143967D01*
X137333321Y-73158499D01*
X137333324Y-73158500D01*
X137333326Y-73158500D01*
X139482676Y-73158500D01*
X139482677Y-73158499D01*
X139555740Y-73143966D01*
X139638601Y-73088601D01*
X139693966Y-73005740D01*
X139708500Y-72932674D01*
X139708500Y-71483326D01*
X139708500Y-71483323D01*
X139708499Y-71483321D01*
X139693967Y-71410264D01*
X139693966Y-71410260D01*
X139690641Y-71405284D01*
X139638601Y-71327399D01*
X139555740Y-71272034D01*
X139555739Y-71272033D01*
X139555735Y-71272032D01*
X139482677Y-71257500D01*
X139482674Y-71257500D01*
X137333326Y-71257500D01*
X137333323Y-71257500D01*
X137260264Y-71272032D01*
X137260260Y-71272033D01*
X137177399Y-71327399D01*
X137122033Y-71410260D01*
X137122032Y-71410264D01*
X137107500Y-71483321D01*
X137107500Y-71708500D01*
X137087815Y-71775539D01*
X137035011Y-71821294D01*
X136983500Y-71832500D01*
X134136900Y-71832500D01*
X134069861Y-71812815D01*
X134049219Y-71796181D01*
X132410715Y-70157678D01*
X135026000Y-70157678D01*
X135040532Y-70230735D01*
X135040533Y-70230739D01*
X135058905Y-70258235D01*
X135095899Y-70313601D01*
X135178760Y-70368966D01*
X135178764Y-70368967D01*
X135251821Y-70383499D01*
X135251824Y-70383500D01*
X135251826Y-70383500D01*
X137401176Y-70383500D01*
X137401177Y-70383499D01*
X137474240Y-70368966D01*
X137557101Y-70313601D01*
X137612466Y-70230740D01*
X137627000Y-70157674D01*
X137627000Y-69932500D01*
X137646685Y-69865461D01*
X137699489Y-69819706D01*
X137751000Y-69808500D01*
X138568101Y-69808500D01*
X138635140Y-69828185D01*
X138655782Y-69844819D01*
X142971181Y-74160218D01*
X143004666Y-74221541D01*
X143007500Y-74247899D01*
X143007500Y-78225138D01*
X142987815Y-78292177D01*
X142965727Y-78317953D01*
X142889518Y-78385468D01*
X142799781Y-78515475D01*
X142799780Y-78515476D01*
X142743762Y-78663181D01*
X142724722Y-78819999D01*
X142724722Y-78820000D01*
X142743762Y-78976818D01*
X142799780Y-79124523D01*
X142799781Y-79124524D01*
X142889518Y-79254531D01*
X142930327Y-79290685D01*
X142967454Y-79349874D01*
X142966686Y-79419740D01*
X142928269Y-79478099D01*
X142864398Y-79506424D01*
X142848100Y-79507500D01*
X140795900Y-79507500D01*
X140728861Y-79487815D01*
X140708219Y-79471181D01*
X139959098Y-78722060D01*
X139107217Y-77870180D01*
X139073733Y-77808858D01*
X139078717Y-77739166D01*
X139120589Y-77683233D01*
X139186053Y-77658816D01*
X139194899Y-77658500D01*
X139482676Y-77658500D01*
X139482677Y-77658499D01*
X139555740Y-77643966D01*
X139638601Y-77588601D01*
X139693966Y-77505740D01*
X139708500Y-77432674D01*
X139708500Y-75983326D01*
X139708500Y-75983323D01*
X139708499Y-75983321D01*
X139693967Y-75910264D01*
X139693966Y-75910260D01*
X139638601Y-75827399D01*
X139583235Y-75790405D01*
X139555739Y-75772033D01*
X139555735Y-75772032D01*
X139482677Y-75757500D01*
X139482674Y-75757500D01*
X137333326Y-75757500D01*
X137333323Y-75757500D01*
X137260264Y-75772032D01*
X137260260Y-75772033D01*
X137177399Y-75827399D01*
X137122033Y-75910260D01*
X137122032Y-75910264D01*
X137107500Y-75983321D01*
X137107500Y-77432678D01*
X137122032Y-77505735D01*
X137122033Y-77505739D01*
X137122034Y-77505740D01*
X137177399Y-77588601D01*
X137251128Y-77637864D01*
X137260260Y-77643966D01*
X137260264Y-77643967D01*
X137333321Y-77658499D01*
X137333324Y-77658500D01*
X137333326Y-77658500D01*
X137912450Y-77658500D01*
X137979489Y-77678185D01*
X138025244Y-77730989D01*
X138032225Y-77750407D01*
X138032500Y-77751433D01*
X138032500Y-77751435D01*
X138058090Y-77846938D01*
X138107525Y-77932562D01*
X138107526Y-77932563D01*
X140358437Y-80183475D01*
X140444063Y-80232911D01*
X140539564Y-80258500D01*
X140539565Y-80258500D01*
X140539566Y-80258500D01*
X144448435Y-80258500D01*
X144448436Y-80258500D01*
X144496186Y-80245705D01*
X144543938Y-80232910D01*
X144612002Y-80193612D01*
X144679898Y-80177140D01*
X144745926Y-80199992D01*
X144789117Y-80254912D01*
X144798000Y-80301000D01*
X144798000Y-80419000D01*
X145798000Y-80419000D01*
X145798000Y-79644000D01*
X146048000Y-79644000D01*
X146048000Y-80419000D01*
X147048000Y-80419000D01*
X147973000Y-80419000D01*
X148973000Y-80419000D01*
X148973000Y-79644000D01*
X149223000Y-79644000D01*
X149223000Y-80419000D01*
X150223000Y-80419000D01*
X150223000Y-80096172D01*
X150222999Y-80096155D01*
X150216598Y-80036627D01*
X150216596Y-80036620D01*
X150166354Y-79901913D01*
X150166350Y-79901906D01*
X150080190Y-79786812D01*
X150080187Y-79786809D01*
X149965093Y-79700649D01*
X149965086Y-79700645D01*
X149830379Y-79650403D01*
X149830372Y-79650401D01*
X149770844Y-79644000D01*
X149223000Y-79644000D01*
X148973000Y-79644000D01*
X148425155Y-79644000D01*
X148365627Y-79650401D01*
X148365620Y-79650403D01*
X148230913Y-79700645D01*
X148230906Y-79700649D01*
X148115812Y-79786809D01*
X148115809Y-79786812D01*
X148029649Y-79901906D01*
X148029645Y-79901913D01*
X147979403Y-80036620D01*
X147979401Y-80036627D01*
X147973000Y-80096155D01*
X147973000Y-80419000D01*
X147048000Y-80419000D01*
X147048000Y-80096172D01*
X147047999Y-80096155D01*
X147041598Y-80036627D01*
X147041596Y-80036620D01*
X146991354Y-79901913D01*
X146991350Y-79901906D01*
X146905190Y-79786812D01*
X146905187Y-79786809D01*
X146790093Y-79700649D01*
X146790086Y-79700645D01*
X146655379Y-79650403D01*
X146655372Y-79650401D01*
X146595844Y-79644000D01*
X146048000Y-79644000D01*
X145798000Y-79644000D01*
X145468398Y-79644000D01*
X145401359Y-79624315D01*
X145355604Y-79571511D01*
X145345660Y-79502353D01*
X145374685Y-79438797D01*
X145380703Y-79432333D01*
X146223474Y-78589563D01*
X146231846Y-78575063D01*
X146272910Y-78503938D01*
X146289640Y-78441500D01*
X146289640Y-78441499D01*
X146289646Y-78441500D01*
X146289646Y-78441474D01*
X146291013Y-78436375D01*
X146327393Y-78376725D01*
X146390247Y-78346211D01*
X146410780Y-78344499D01*
X146595871Y-78344499D01*
X146595872Y-78344499D01*
X146655483Y-78338091D01*
X146790331Y-78287796D01*
X146905546Y-78201546D01*
X146991796Y-78086331D01*
X147042091Y-77951483D01*
X147048500Y-77891873D01*
X147048499Y-76996128D01*
X147042091Y-76936517D01*
X147017281Y-76869999D01*
X146991797Y-76801671D01*
X146991793Y-76801664D01*
X146905547Y-76686455D01*
X146905544Y-76686452D01*
X146790335Y-76600206D01*
X146790328Y-76600202D01*
X146655482Y-76549908D01*
X146655483Y-76549908D01*
X146595883Y-76543501D01*
X146595881Y-76543500D01*
X146595873Y-76543500D01*
X146595864Y-76543500D01*
X145250129Y-76543500D01*
X145250123Y-76543501D01*
X145190516Y-76549908D01*
X145055671Y-76600202D01*
X145055664Y-76600206D01*
X144940455Y-76686452D01*
X144940452Y-76686455D01*
X144854206Y-76801664D01*
X144854202Y-76801671D01*
X144803908Y-76936517D01*
X144800549Y-76967766D01*
X144797501Y-76996123D01*
X144797500Y-76996135D01*
X144797500Y-77891870D01*
X144797501Y-77891876D01*
X144803908Y-77951483D01*
X144854202Y-78086328D01*
X144854206Y-78086335D01*
X144940452Y-78201544D01*
X144940455Y-78201547D01*
X145055664Y-78287793D01*
X145055671Y-78287797D01*
X145171684Y-78331067D01*
X145227618Y-78372938D01*
X145252035Y-78438402D01*
X145237184Y-78506675D01*
X145216032Y-78534930D01*
X144279782Y-79471181D01*
X144218459Y-79504666D01*
X144192101Y-79507500D01*
X143911900Y-79507500D01*
X143844861Y-79487815D01*
X143799106Y-79435011D01*
X143789162Y-79365853D01*
X143818187Y-79302297D01*
X143829673Y-79290685D01*
X143852768Y-79270224D01*
X143870483Y-79254530D01*
X143960220Y-79124523D01*
X144016237Y-78976818D01*
X144035278Y-78820000D01*
X144032185Y-78794522D01*
X144016237Y-78663181D01*
X143994992Y-78607164D01*
X143960220Y-78515477D01*
X143870483Y-78385470D01*
X143860612Y-78376725D01*
X143800273Y-78323269D01*
X143763146Y-78264080D01*
X143758500Y-78230454D01*
X143758500Y-73991567D01*
X143758500Y-73991565D01*
X143732910Y-73896062D01*
X143683475Y-73810438D01*
X143613562Y-73740525D01*
X140030715Y-70157678D01*
X144126000Y-70157678D01*
X144140532Y-70230735D01*
X144140533Y-70230739D01*
X144158905Y-70258235D01*
X144195899Y-70313601D01*
X144278760Y-70368966D01*
X144278764Y-70368967D01*
X144351821Y-70383499D01*
X144351824Y-70383500D01*
X144351826Y-70383500D01*
X145794601Y-70383500D01*
X145861640Y-70403185D01*
X145882282Y-70419819D01*
X148686181Y-73223718D01*
X148719666Y-73285041D01*
X148722500Y-73311399D01*
X148722500Y-76419500D01*
X148702815Y-76486539D01*
X148650011Y-76532294D01*
X148598501Y-76543500D01*
X148425130Y-76543500D01*
X148425123Y-76543501D01*
X148365516Y-76549908D01*
X148230671Y-76600202D01*
X148230664Y-76600206D01*
X148115455Y-76686452D01*
X148115452Y-76686455D01*
X148029206Y-76801664D01*
X148029202Y-76801671D01*
X147978908Y-76936517D01*
X147975549Y-76967766D01*
X147972501Y-76996123D01*
X147972500Y-76996135D01*
X147972500Y-77891870D01*
X147972501Y-77891876D01*
X147978908Y-77951483D01*
X148029202Y-78086328D01*
X148029206Y-78086335D01*
X148115452Y-78201544D01*
X148115455Y-78201547D01*
X148230664Y-78287793D01*
X148230671Y-78287797D01*
X148365517Y-78338091D01*
X148365516Y-78338091D01*
X148372444Y-78338835D01*
X148425127Y-78344500D01*
X149770872Y-78344499D01*
X149830483Y-78338091D01*
X149965331Y-78287796D01*
X150080546Y-78201546D01*
X150166796Y-78086331D01*
X150217091Y-77951483D01*
X150223500Y-77891873D01*
X150223499Y-76996128D01*
X150217091Y-76936517D01*
X150192281Y-76869999D01*
X150166797Y-76801671D01*
X150166793Y-76801664D01*
X150080547Y-76686455D01*
X150080544Y-76686452D01*
X149965335Y-76600206D01*
X149965328Y-76600202D01*
X149830482Y-76549908D01*
X149830483Y-76549908D01*
X149770883Y-76543501D01*
X149770881Y-76543500D01*
X149770873Y-76543500D01*
X149770865Y-76543500D01*
X149597500Y-76543500D01*
X149530461Y-76523815D01*
X149484706Y-76471011D01*
X149473500Y-76419500D01*
X149473500Y-73055067D01*
X149473500Y-73055065D01*
X149447910Y-72959562D01*
X149398475Y-72873938D01*
X149328562Y-72804025D01*
X146763319Y-70238782D01*
X146729834Y-70177459D01*
X146727000Y-70151101D01*
X146727000Y-68708323D01*
X146726999Y-68708321D01*
X146712467Y-68635264D01*
X146712466Y-68635260D01*
X146678122Y-68583860D01*
X146657101Y-68552399D01*
X146574240Y-68497034D01*
X146574239Y-68497033D01*
X146574235Y-68497032D01*
X146501177Y-68482500D01*
X146501174Y-68482500D01*
X144351826Y-68482500D01*
X144351823Y-68482500D01*
X144278764Y-68497032D01*
X144278760Y-68497033D01*
X144195899Y-68552399D01*
X144140533Y-68635260D01*
X144140532Y-68635264D01*
X144126000Y-68708321D01*
X144126000Y-70157678D01*
X140030715Y-70157678D01*
X139005563Y-69132526D01*
X139005562Y-69132525D01*
X138920439Y-69083379D01*
X138919940Y-69083091D01*
X138919939Y-69083090D01*
X138919938Y-69083090D01*
X138872186Y-69070295D01*
X138872184Y-69070294D01*
X138872182Y-69070293D01*
X138824436Y-69057500D01*
X138824435Y-69057500D01*
X137751000Y-69057500D01*
X137683961Y-69037815D01*
X137638206Y-68985011D01*
X137627000Y-68933500D01*
X137627000Y-68708323D01*
X137626999Y-68708321D01*
X137612467Y-68635264D01*
X137612466Y-68635260D01*
X137578122Y-68583860D01*
X137557101Y-68552399D01*
X137474240Y-68497034D01*
X137474239Y-68497033D01*
X137474235Y-68497032D01*
X137401177Y-68482500D01*
X137401174Y-68482500D01*
X135251826Y-68482500D01*
X135251823Y-68482500D01*
X135178764Y-68497032D01*
X135178760Y-68497033D01*
X135095899Y-68552399D01*
X135040533Y-68635260D01*
X135040532Y-68635264D01*
X135026000Y-68708321D01*
X135026000Y-70157678D01*
X132410715Y-70157678D01*
X132410563Y-70157526D01*
X132410562Y-70157525D01*
X132324938Y-70108090D01*
X132277186Y-70095295D01*
X132277184Y-70095294D01*
X132277182Y-70095293D01*
X132229436Y-70082500D01*
X132229435Y-70082500D01*
X125788899Y-70082500D01*
X125721860Y-70062815D01*
X125701218Y-70046181D01*
X122925718Y-67270681D01*
X122892233Y-67209358D01*
X122894947Y-67171401D01*
X147269518Y-67171401D01*
X147289422Y-67449699D01*
X147348727Y-67722316D01*
X147348729Y-67722323D01*
X147398335Y-67855323D01*
X147446231Y-67983738D01*
X147446233Y-67983742D01*
X147579940Y-68228607D01*
X147579945Y-68228615D01*
X147747138Y-68451960D01*
X147747154Y-68451978D01*
X147944421Y-68649245D01*
X147944439Y-68649261D01*
X148167784Y-68816454D01*
X148167792Y-68816459D01*
X148412657Y-68950166D01*
X148412661Y-68950168D01*
X148412663Y-68950169D01*
X148674077Y-69047671D01*
X148778078Y-69070295D01*
X148946700Y-69106977D01*
X148946702Y-69106977D01*
X148946706Y-69106978D01*
X149194014Y-69124665D01*
X149224999Y-69126882D01*
X149225000Y-69126882D01*
X149225001Y-69126882D01*
X149252881Y-69124887D01*
X149503294Y-69106978D01*
X149775923Y-69047671D01*
X150037337Y-68950169D01*
X150282213Y-68816456D01*
X150505568Y-68649255D01*
X150702855Y-68451968D01*
X150870056Y-68228613D01*
X151003769Y-67983737D01*
X151101271Y-67722323D01*
X151160578Y-67449694D01*
X151180482Y-67171400D01*
X151160578Y-66893106D01*
X151158276Y-66882526D01*
X151125858Y-66733500D01*
X151101271Y-66620477D01*
X151003769Y-66359063D01*
X150907813Y-66183334D01*
X150870059Y-66114192D01*
X150870054Y-66114184D01*
X150702861Y-65890839D01*
X150702845Y-65890821D01*
X150505578Y-65693554D01*
X150505560Y-65693538D01*
X150282215Y-65526345D01*
X150282207Y-65526340D01*
X150037342Y-65392633D01*
X150037338Y-65392631D01*
X149896227Y-65340000D01*
X149775923Y-65295129D01*
X149775919Y-65295128D01*
X149775916Y-65295127D01*
X149503299Y-65235822D01*
X149225001Y-65215918D01*
X149224999Y-65215918D01*
X148946700Y-65235822D01*
X148674083Y-65295127D01*
X148674078Y-65295128D01*
X148674077Y-65295129D01*
X148610875Y-65318701D01*
X148412661Y-65392631D01*
X148412657Y-65392633D01*
X148167792Y-65526340D01*
X148167784Y-65526345D01*
X147944439Y-65693538D01*
X147944421Y-65693554D01*
X147747154Y-65890821D01*
X147747138Y-65890839D01*
X147579945Y-66114184D01*
X147579940Y-66114192D01*
X147446233Y-66359057D01*
X147446231Y-66359061D01*
X147389981Y-66509876D01*
X147355347Y-66602735D01*
X147348727Y-66620483D01*
X147289422Y-66893100D01*
X147269518Y-67171398D01*
X147269518Y-67171401D01*
X122894947Y-67171401D01*
X122897217Y-67139666D01*
X122925718Y-67095319D01*
X124363359Y-65657678D01*
X135026000Y-65657678D01*
X135040532Y-65730735D01*
X135040533Y-65730739D01*
X135040534Y-65730740D01*
X135095899Y-65813601D01*
X135178760Y-65868966D01*
X135178764Y-65868967D01*
X135251821Y-65883499D01*
X135251824Y-65883500D01*
X135251826Y-65883500D01*
X137401176Y-65883500D01*
X137401177Y-65883499D01*
X137474240Y-65868966D01*
X137557101Y-65813601D01*
X137612466Y-65730740D01*
X137627000Y-65657674D01*
X137627000Y-64208326D01*
X137627000Y-64208323D01*
X137626999Y-64208321D01*
X137612467Y-64135264D01*
X137612466Y-64135260D01*
X137605301Y-64124537D01*
X137557101Y-64052399D01*
X137474240Y-63997034D01*
X137474239Y-63997033D01*
X137474235Y-63997032D01*
X137401177Y-63982500D01*
X137401174Y-63982500D01*
X135251826Y-63982500D01*
X135251823Y-63982500D01*
X135178764Y-63997032D01*
X135178760Y-63997033D01*
X135095899Y-64052399D01*
X135040533Y-64135260D01*
X135040532Y-64135264D01*
X135026000Y-64208321D01*
X135026000Y-65657678D01*
X124363359Y-65657678D01*
X130173218Y-59847819D01*
X130234541Y-59814334D01*
X130260899Y-59811500D01*
X134570564Y-59811500D01*
X134570565Y-59811500D01*
X142287101Y-59811500D01*
X142354140Y-59831185D01*
X142374782Y-59847819D01*
X145014681Y-62487718D01*
X145048166Y-62549041D01*
X145051000Y-62575399D01*
X145051000Y-63858500D01*
X145031315Y-63925539D01*
X144978511Y-63971294D01*
X144927000Y-63982500D01*
X144351823Y-63982500D01*
X144278764Y-63997032D01*
X144278760Y-63997033D01*
X144195899Y-64052399D01*
X144140533Y-64135260D01*
X144140532Y-64135264D01*
X144126000Y-64208321D01*
X144126000Y-65657678D01*
X144140532Y-65730735D01*
X144140533Y-65730739D01*
X144140534Y-65730740D01*
X144195899Y-65813601D01*
X144278760Y-65868966D01*
X144278764Y-65868967D01*
X144351821Y-65883499D01*
X144351824Y-65883500D01*
X144351826Y-65883500D01*
X146501176Y-65883500D01*
X146501177Y-65883499D01*
X146574240Y-65868966D01*
X146657101Y-65813601D01*
X146712466Y-65730740D01*
X146727000Y-65657674D01*
X146727000Y-64208326D01*
X146727000Y-64208323D01*
X146726999Y-64208321D01*
X146712467Y-64135264D01*
X146712466Y-64135260D01*
X146705301Y-64124537D01*
X146657101Y-64052399D01*
X146574240Y-63997034D01*
X146574239Y-63997033D01*
X146574235Y-63997032D01*
X146501177Y-63982500D01*
X146501174Y-63982500D01*
X145926000Y-63982500D01*
X145858961Y-63962815D01*
X145813206Y-63910011D01*
X145802000Y-63858500D01*
X145802000Y-62319067D01*
X145802000Y-62319065D01*
X145776410Y-62223562D01*
X145726975Y-62137938D01*
X145657062Y-62068025D01*
X142724563Y-59135526D01*
X142724562Y-59135525D01*
X142638938Y-59086090D01*
X142591186Y-59073295D01*
X142591184Y-59073294D01*
X142591182Y-59073293D01*
X142543436Y-59060500D01*
X142543435Y-59060500D01*
X135825899Y-59060500D01*
X135758860Y-59040815D01*
X135713105Y-58988011D01*
X135703161Y-58918853D01*
X135732186Y-58855297D01*
X135738218Y-58848819D01*
X136189512Y-58397525D01*
X137605474Y-56981563D01*
X137605475Y-56981562D01*
X137654910Y-56895938D01*
X137674880Y-56821405D01*
X137711245Y-56761746D01*
X137774092Y-56731217D01*
X137794655Y-56729500D01*
X138029676Y-56729500D01*
X138029677Y-56729499D01*
X138102740Y-56714966D01*
X138185601Y-56659601D01*
X138240966Y-56576740D01*
X138255500Y-56503674D01*
X138255500Y-52705000D01*
X138649722Y-52705000D01*
X138668762Y-52861818D01*
X138716855Y-52988627D01*
X138724780Y-53009523D01*
X138814517Y-53139530D01*
X138932760Y-53244283D01*
X138932762Y-53244284D01*
X139072634Y-53317696D01*
X139226014Y-53355500D01*
X139373101Y-53355500D01*
X139440140Y-53375185D01*
X139460782Y-53391819D01*
X140318181Y-54249218D01*
X140351666Y-54310541D01*
X140354500Y-54336899D01*
X140354500Y-56503678D01*
X140369032Y-56576735D01*
X140369033Y-56576739D01*
X140369034Y-56576740D01*
X140424399Y-56659601D01*
X140507259Y-56714965D01*
X140507260Y-56714966D01*
X140507264Y-56714967D01*
X140580321Y-56729499D01*
X140580324Y-56729500D01*
X140580326Y-56729500D01*
X142029676Y-56729500D01*
X142029677Y-56729499D01*
X142102740Y-56714966D01*
X142185601Y-56659601D01*
X142240966Y-56576740D01*
X142255500Y-56503674D01*
X142255500Y-54220500D01*
X142275185Y-54153461D01*
X142327989Y-54107706D01*
X142379500Y-54096500D01*
X142826501Y-54096500D01*
X142893540Y-54116185D01*
X142939295Y-54168989D01*
X142950501Y-54220500D01*
X142950501Y-54393876D01*
X142956908Y-54453483D01*
X143007202Y-54588328D01*
X143007206Y-54588335D01*
X143093452Y-54703544D01*
X143093455Y-54703547D01*
X143208664Y-54789793D01*
X143208671Y-54789797D01*
X143343517Y-54840091D01*
X143343516Y-54840091D01*
X143344642Y-54840212D01*
X143403127Y-54846500D01*
X144298872Y-54846499D01*
X144358483Y-54840091D01*
X144493331Y-54789796D01*
X144608546Y-54703546D01*
X144694796Y-54588331D01*
X144745091Y-54453483D01*
X144751500Y-54393873D01*
X144751499Y-53846000D01*
X146051000Y-53846000D01*
X146051000Y-54393844D01*
X146057401Y-54453372D01*
X146057403Y-54453379D01*
X146107645Y-54588086D01*
X146107649Y-54588093D01*
X146193809Y-54703187D01*
X146193812Y-54703190D01*
X146308906Y-54789350D01*
X146308913Y-54789354D01*
X146443620Y-54839596D01*
X146443627Y-54839598D01*
X146503155Y-54845999D01*
X146503172Y-54846000D01*
X146826000Y-54846000D01*
X146826000Y-53846000D01*
X147076000Y-53846000D01*
X147076000Y-54846000D01*
X147398828Y-54846000D01*
X147398844Y-54845999D01*
X147458372Y-54839598D01*
X147458379Y-54839596D01*
X147593086Y-54789354D01*
X147593093Y-54789350D01*
X147708187Y-54703190D01*
X147708190Y-54703187D01*
X147794350Y-54588093D01*
X147794354Y-54588086D01*
X147844596Y-54453379D01*
X147844598Y-54453372D01*
X147850999Y-54393844D01*
X147851000Y-54393827D01*
X147851000Y-53846000D01*
X147076000Y-53846000D01*
X146826000Y-53846000D01*
X146051000Y-53846000D01*
X144751499Y-53846000D01*
X144751499Y-53596000D01*
X146051000Y-53596000D01*
X146826000Y-53596000D01*
X146826000Y-52596000D01*
X147076000Y-52596000D01*
X147076000Y-53596000D01*
X147851000Y-53596000D01*
X147851000Y-53048172D01*
X147850999Y-53048155D01*
X147844598Y-52988627D01*
X147844596Y-52988620D01*
X147794354Y-52853913D01*
X147794350Y-52853906D01*
X147708190Y-52738812D01*
X147708187Y-52738809D01*
X147593093Y-52652649D01*
X147593086Y-52652645D01*
X147458379Y-52602403D01*
X147458372Y-52602401D01*
X147398844Y-52596000D01*
X147076000Y-52596000D01*
X146826000Y-52596000D01*
X146503155Y-52596000D01*
X146443627Y-52602401D01*
X146443620Y-52602403D01*
X146308913Y-52652645D01*
X146308906Y-52652649D01*
X146193812Y-52738809D01*
X146193809Y-52738812D01*
X146107649Y-52853906D01*
X146107645Y-52853913D01*
X146057403Y-52988620D01*
X146057401Y-52988627D01*
X146051000Y-53048155D01*
X146051000Y-53596000D01*
X144751499Y-53596000D01*
X144751499Y-53048128D01*
X144745091Y-52988517D01*
X144721065Y-52924101D01*
X144694797Y-52853671D01*
X144694793Y-52853664D01*
X144608547Y-52738455D01*
X144608544Y-52738452D01*
X144493335Y-52652206D01*
X144493328Y-52652202D01*
X144358482Y-52601908D01*
X144358483Y-52601908D01*
X144298883Y-52595501D01*
X144298881Y-52595500D01*
X144298873Y-52595500D01*
X144298864Y-52595500D01*
X143403129Y-52595500D01*
X143403123Y-52595501D01*
X143343516Y-52601908D01*
X143208671Y-52652202D01*
X143208664Y-52652206D01*
X143093455Y-52738452D01*
X143093452Y-52738455D01*
X143007206Y-52853664D01*
X143007202Y-52853671D01*
X142956908Y-52988517D01*
X142950638Y-53046839D01*
X142950501Y-53048123D01*
X142950500Y-53048135D01*
X142950500Y-53221500D01*
X142930815Y-53288539D01*
X142878011Y-53334294D01*
X142826500Y-53345500D01*
X142379500Y-53345500D01*
X142312461Y-53325815D01*
X142266706Y-53273011D01*
X142255500Y-53221500D01*
X142255500Y-51953500D01*
X142275185Y-51886461D01*
X142327989Y-51840706D01*
X142379500Y-51829500D01*
X145829676Y-51829500D01*
X145829677Y-51829499D01*
X145902740Y-51814966D01*
X145985601Y-51759601D01*
X146040966Y-51676740D01*
X146055500Y-51603674D01*
X146055500Y-49954326D01*
X146055500Y-49954323D01*
X146055499Y-49954321D01*
X146040967Y-49881264D01*
X146040966Y-49881260D01*
X145985601Y-49798399D01*
X145923792Y-49757100D01*
X145902739Y-49743033D01*
X145902735Y-49743032D01*
X145829677Y-49728500D01*
X145829674Y-49728500D01*
X142280326Y-49728500D01*
X142280323Y-49728500D01*
X142207264Y-49743032D01*
X142207260Y-49743033D01*
X142124399Y-49798399D01*
X142069033Y-49881260D01*
X142069032Y-49881264D01*
X142054500Y-49954321D01*
X142054500Y-51604500D01*
X142034815Y-51671539D01*
X141982011Y-51717294D01*
X141930500Y-51728500D01*
X140580323Y-51728500D01*
X140507264Y-51743032D01*
X140507260Y-51743033D01*
X140424399Y-51798399D01*
X140369033Y-51881260D01*
X140369032Y-51881264D01*
X140354500Y-51954321D01*
X140354500Y-52924101D01*
X140334815Y-52991140D01*
X140282011Y-53036895D01*
X140212853Y-53046839D01*
X140149297Y-53017814D01*
X140142819Y-53011782D01*
X139989517Y-52858480D01*
X139956032Y-52797157D01*
X139954102Y-52755857D01*
X139960278Y-52705000D01*
X139941237Y-52548182D01*
X139885220Y-52400477D01*
X139795483Y-52270470D01*
X139677240Y-52165717D01*
X139677238Y-52165716D01*
X139677237Y-52165715D01*
X139537365Y-52092303D01*
X139383986Y-52054500D01*
X139383985Y-52054500D01*
X139226015Y-52054500D01*
X139226014Y-52054500D01*
X139072634Y-52092303D01*
X138932762Y-52165715D01*
X138814516Y-52270471D01*
X138724781Y-52400475D01*
X138724780Y-52400476D01*
X138668762Y-52548181D01*
X138649722Y-52704999D01*
X138649722Y-52705000D01*
X138255500Y-52705000D01*
X138255500Y-51954326D01*
X138255500Y-51954323D01*
X138255499Y-51954321D01*
X138240967Y-51881264D01*
X138240966Y-51881260D01*
X138230007Y-51864858D01*
X138185601Y-51798399D01*
X138106715Y-51745690D01*
X138102739Y-51743033D01*
X138102735Y-51743032D01*
X138029677Y-51728500D01*
X138029674Y-51728500D01*
X136679500Y-51728500D01*
X136612461Y-51708815D01*
X136566706Y-51656011D01*
X136555500Y-51604500D01*
X136555500Y-49954323D01*
X136555499Y-49954321D01*
X136540967Y-49881264D01*
X136540966Y-49881260D01*
X136485601Y-49798399D01*
X136423792Y-49757100D01*
X136402739Y-49743033D01*
X136402735Y-49743032D01*
X136329677Y-49728500D01*
X136329674Y-49728500D01*
X132780326Y-49728500D01*
X132780323Y-49728500D01*
X132707264Y-49743032D01*
X132707260Y-49743033D01*
X132624399Y-49798399D01*
X132569033Y-49881260D01*
X132569032Y-49881264D01*
X132554500Y-49954321D01*
X132554500Y-51603678D01*
X132569032Y-51676735D01*
X132569033Y-51676739D01*
X132569034Y-51676740D01*
X132624399Y-51759601D01*
X132707260Y-51814966D01*
X132707264Y-51814967D01*
X132780321Y-51829499D01*
X132780324Y-51829500D01*
X136230500Y-51829500D01*
X136297539Y-51849185D01*
X136343294Y-51901989D01*
X136354500Y-51953500D01*
X136354500Y-56503678D01*
X136369032Y-56576735D01*
X136369033Y-56576739D01*
X136369034Y-56576740D01*
X136424399Y-56659601D01*
X136507260Y-56714966D01*
X136532239Y-56719934D01*
X136594149Y-56752319D01*
X136628724Y-56813034D01*
X136624985Y-56882804D01*
X136595729Y-56929233D01*
X134500782Y-59024181D01*
X134439459Y-59057666D01*
X134413101Y-59060500D01*
X130004564Y-59060500D01*
X129956812Y-59073295D01*
X129956811Y-59073294D01*
X129909063Y-59086089D01*
X129909062Y-59086089D01*
X129823435Y-59135527D01*
X122187782Y-66771181D01*
X122126459Y-66804666D01*
X122100101Y-66807500D01*
X120258500Y-66807500D01*
X120191461Y-66787815D01*
X120145706Y-66735011D01*
X120134500Y-66683500D01*
X120134500Y-59657610D01*
X120134500Y-59657608D01*
X120100392Y-59530314D01*
X120034500Y-59416186D01*
X119941314Y-59323000D01*
X115498272Y-54879958D01*
X115464787Y-54818635D01*
X115469771Y-54748943D01*
X115511643Y-54693010D01*
X115535057Y-54679203D01*
X115629057Y-54636898D01*
X115913818Y-54464754D01*
X115914351Y-54464337D01*
X116047855Y-54359743D01*
X116175752Y-54259542D01*
X116411042Y-54024252D01*
X116616254Y-53762318D01*
X116788398Y-53477557D01*
X116924963Y-53174123D01*
X117023956Y-52856441D01*
X117083936Y-52529142D01*
X117104027Y-52197000D01*
X117083936Y-51864858D01*
X117023956Y-51537559D01*
X116975124Y-51380851D01*
X116924969Y-51219895D01*
X116924967Y-51219890D01*
X116924963Y-51219877D01*
X116788398Y-50916443D01*
X116616254Y-50631682D01*
X116616251Y-50631678D01*
X116616248Y-50631673D01*
X116411039Y-50369744D01*
X116175755Y-50134460D01*
X115913826Y-49929251D01*
X115913818Y-49929246D01*
X115629057Y-49757102D01*
X115325623Y-49620537D01*
X115257743Y-49599385D01*
X115199597Y-49560648D01*
X115171623Y-49496623D01*
X115182704Y-49427638D01*
X115229323Y-49375594D01*
X115294635Y-49357000D01*
X123564046Y-49357000D01*
X123631085Y-49376685D01*
X123676840Y-49429489D01*
X123686784Y-49498647D01*
X123657759Y-49562203D01*
X123600936Y-49599386D01*
X123531556Y-49621005D01*
X123228180Y-49757543D01*
X123228178Y-49757545D01*
X122943468Y-49929657D01*
X122943459Y-49929662D01*
X122681581Y-50134832D01*
X122652345Y-50164068D01*
X123182675Y-50694398D01*
X123005898Y-50871175D01*
X122475568Y-50340845D01*
X122446332Y-50370081D01*
X122241162Y-50631959D01*
X122241157Y-50631968D01*
X122069045Y-50916678D01*
X122069043Y-50916680D01*
X121932505Y-51220056D01*
X121932499Y-51220071D01*
X121833532Y-51537670D01*
X121773560Y-51864923D01*
X121753474Y-52197000D01*
X121773560Y-52529076D01*
X121833532Y-52856329D01*
X121932499Y-53173928D01*
X121932505Y-53173943D01*
X122069043Y-53477319D01*
X122069045Y-53477321D01*
X122241157Y-53762031D01*
X122241162Y-53762040D01*
X122446332Y-54023918D01*
X122475568Y-54053154D01*
X123005897Y-53522824D01*
X123182674Y-53699601D01*
X122652345Y-54229931D01*
X122681581Y-54259167D01*
X122943459Y-54464337D01*
X122943468Y-54464342D01*
X123228178Y-54636454D01*
X123228180Y-54636456D01*
X123531556Y-54772994D01*
X123531571Y-54773000D01*
X123849170Y-54871967D01*
X124176423Y-54931939D01*
X124508500Y-54952025D01*
X124840576Y-54931939D01*
X125167829Y-54871967D01*
X125485428Y-54773000D01*
X125485443Y-54772994D01*
X125788819Y-54636456D01*
X125788821Y-54636454D01*
X126073531Y-54464342D01*
X126073540Y-54464337D01*
X126335418Y-54259167D01*
X126364654Y-54229931D01*
X125834325Y-53699602D01*
X126011102Y-53522825D01*
X126541431Y-54053154D01*
X126570667Y-54023918D01*
X126775837Y-53762040D01*
X126775842Y-53762031D01*
X126947954Y-53477321D01*
X126947956Y-53477319D01*
X127084494Y-53173943D01*
X127084500Y-53173928D01*
X127183467Y-52856329D01*
X127243439Y-52529076D01*
X127263525Y-52197000D01*
X127243439Y-51864923D01*
X127183467Y-51537670D01*
X127084500Y-51220071D01*
X127084494Y-51220056D01*
X126947956Y-50916680D01*
X126947954Y-50916678D01*
X126775842Y-50631968D01*
X126775837Y-50631959D01*
X126570667Y-50370081D01*
X126541432Y-50340845D01*
X126011102Y-50871175D01*
X125834325Y-50694398D01*
X126364655Y-50164068D01*
X126335418Y-50134832D01*
X126073540Y-49929662D01*
X126073531Y-49929657D01*
X125788821Y-49757545D01*
X125788819Y-49757543D01*
X125485443Y-49621005D01*
X125416064Y-49599386D01*
X125357916Y-49560648D01*
X125329942Y-49496623D01*
X125341023Y-49427637D01*
X125387642Y-49375594D01*
X125452954Y-49357000D01*
X146035397Y-49357000D01*
X146036677Y-49357006D01*
X146267805Y-49359394D01*
X146276728Y-49359810D01*
X146738103Y-49398041D01*
X146748239Y-49399303D01*
X147204261Y-49475400D01*
X147214263Y-49477497D01*
X147662437Y-49590989D01*
X147672241Y-49593909D01*
X148109495Y-49744019D01*
X148119017Y-49747734D01*
X148542397Y-49933446D01*
X148551577Y-49937934D01*
X148958166Y-50157968D01*
X148966953Y-50163203D01*
X149233613Y-50337421D01*
X149353991Y-50416068D01*
X149362320Y-50422015D01*
X149727151Y-50705974D01*
X149734933Y-50712566D01*
X149956405Y-50916445D01*
X150075069Y-51025683D01*
X150082316Y-51032930D01*
X150395431Y-51373064D01*
X150402026Y-51380851D01*
X150683924Y-51743032D01*
X150685976Y-51745668D01*
X150691931Y-51754008D01*
X150944790Y-52141037D01*
X150950035Y-52149840D01*
X151155266Y-52529076D01*
X151170058Y-52556408D01*
X151174557Y-52565612D01*
X151235699Y-52705000D01*
X151360260Y-52988970D01*
X151363985Y-52998517D01*
X151514087Y-53435748D01*
X151517012Y-53445571D01*
X151630499Y-53893722D01*
X151632602Y-53903752D01*
X151708693Y-54359743D01*
X151709960Y-54369913D01*
X151748188Y-54831253D01*
X151748605Y-54840212D01*
X151750993Y-55071322D01*
X151751000Y-55072603D01*
X151751000Y-79270224D01*
X151750994Y-79271478D01*
X151748655Y-79502671D01*
X151748238Y-79511643D01*
X151710010Y-79972999D01*
X151708745Y-79983149D01*
X151632654Y-80439143D01*
X151630551Y-80449174D01*
X151517062Y-80897334D01*
X151514137Y-80907156D01*
X151364037Y-81344386D01*
X151360312Y-81353934D01*
X151174609Y-81777297D01*
X151170108Y-81786504D01*
X150950081Y-82193080D01*
X150944835Y-82201884D01*
X150691986Y-82588899D01*
X150686031Y-82597240D01*
X150402084Y-82962057D01*
X150395460Y-82969878D01*
X150082357Y-83309999D01*
X150075110Y-83317245D01*
X149734983Y-83630356D01*
X149727174Y-83636970D01*
X149472104Y-83835500D01*
X149362365Y-83920913D01*
X149354025Y-83926867D01*
X148966996Y-84179727D01*
X148958192Y-84184974D01*
X148551613Y-84405004D01*
X148542405Y-84409505D01*
X148119051Y-84595206D01*
X148109504Y-84598931D01*
X147672268Y-84749034D01*
X147662445Y-84751959D01*
X147214289Y-84865448D01*
X147204259Y-84867551D01*
X146748263Y-84943643D01*
X146738093Y-84944910D01*
X146276775Y-84983136D01*
X146267782Y-84983554D01*
X146036597Y-84985879D01*
X146035350Y-84985885D01*
X59676608Y-84985885D01*
X59675324Y-84985878D01*
X59444210Y-84983485D01*
X59435254Y-84983068D01*
X58973914Y-84944840D01*
X58963744Y-84943573D01*
X58507753Y-84867482D01*
X58497723Y-84865379D01*
X58049572Y-84751892D01*
X58039749Y-84748967D01*
X57602518Y-84598865D01*
X57592971Y-84595140D01*
X57528733Y-84566962D01*
X57169613Y-84409438D01*
X57160409Y-84404939D01*
X56753844Y-84184917D01*
X56745039Y-84179671D01*
X56358010Y-83926812D01*
X56349677Y-83920862D01*
X55984853Y-83636907D01*
X55977066Y-83630312D01*
X55636932Y-83317197D01*
X55629685Y-83309950D01*
X55514659Y-83184999D01*
X55316568Y-82969815D01*
X55309976Y-82962033D01*
X55026017Y-82597202D01*
X55020070Y-82588873D01*
X54867926Y-82356000D01*
X54767206Y-82201835D01*
X54761976Y-82193058D01*
X54541940Y-81786470D01*
X54537439Y-81777262D01*
X54351735Y-81353901D01*
X54348020Y-81344379D01*
X54257148Y-81079678D01*
X62729500Y-81079678D01*
X62744032Y-81152735D01*
X62744033Y-81152739D01*
X62744034Y-81152740D01*
X62799399Y-81235601D01*
X62882260Y-81290966D01*
X62882264Y-81290967D01*
X62955321Y-81305499D01*
X62955324Y-81305500D01*
X62955326Y-81305500D01*
X65104676Y-81305500D01*
X65104677Y-81305499D01*
X65177740Y-81290966D01*
X65260601Y-81235601D01*
X65315966Y-81152740D01*
X65330499Y-81079678D01*
X71829500Y-81079678D01*
X71844032Y-81152735D01*
X71844033Y-81152739D01*
X71844034Y-81152740D01*
X71899399Y-81235601D01*
X71982260Y-81290966D01*
X71982264Y-81290967D01*
X72055321Y-81305499D01*
X72055324Y-81305500D01*
X72055326Y-81305500D01*
X73498101Y-81305500D01*
X73565140Y-81325185D01*
X73585782Y-81341819D01*
X74840438Y-82596475D01*
X74914589Y-82639286D01*
X74926059Y-82645909D01*
X74926063Y-82645911D01*
X75021564Y-82671500D01*
X75021565Y-82671500D01*
X75021566Y-82671500D01*
X88568435Y-82671500D01*
X88568436Y-82671500D01*
X88616186Y-82658705D01*
X88663938Y-82645910D01*
X88749562Y-82596475D01*
X88819475Y-82526562D01*
X89835474Y-81510563D01*
X89850139Y-81485163D01*
X89884910Y-81424938D01*
X89910500Y-81329435D01*
X89910500Y-80427500D01*
X94735000Y-80427500D01*
X94735000Y-80762844D01*
X94741401Y-80822372D01*
X94741403Y-80822379D01*
X94791645Y-80957086D01*
X94791649Y-80957093D01*
X94877809Y-81072187D01*
X94877812Y-81072190D01*
X94992906Y-81158350D01*
X94992913Y-81158354D01*
X95127620Y-81208596D01*
X95127627Y-81208598D01*
X95187155Y-81214999D01*
X95187172Y-81215000D01*
X95760000Y-81215000D01*
X95760000Y-80427500D01*
X96010000Y-80427500D01*
X96010000Y-81215000D01*
X96582828Y-81215000D01*
X96582844Y-81214999D01*
X96642372Y-81208598D01*
X96642379Y-81208596D01*
X96777086Y-81158354D01*
X96777093Y-81158350D01*
X96892187Y-81072190D01*
X96892190Y-81072187D01*
X96978350Y-80957093D01*
X96978354Y-80957086D01*
X97028596Y-80822379D01*
X97028598Y-80822372D01*
X97034999Y-80762844D01*
X97035000Y-80762827D01*
X97035000Y-80427500D01*
X96010000Y-80427500D01*
X95760000Y-80427500D01*
X94735000Y-80427500D01*
X89910500Y-80427500D01*
X89910500Y-80177500D01*
X94735000Y-80177500D01*
X95760000Y-80177500D01*
X95760000Y-79390000D01*
X96010000Y-79390000D01*
X96010000Y-80177500D01*
X97035000Y-80177500D01*
X97035000Y-79842172D01*
X97034999Y-79842155D01*
X97028598Y-79782627D01*
X97028596Y-79782620D01*
X96978354Y-79647913D01*
X96978350Y-79647906D01*
X96892190Y-79532812D01*
X96892187Y-79532809D01*
X96777093Y-79446649D01*
X96777086Y-79446645D01*
X96642379Y-79396403D01*
X96642372Y-79396401D01*
X96582844Y-79390000D01*
X96010000Y-79390000D01*
X95760000Y-79390000D01*
X95187155Y-79390000D01*
X95127627Y-79396401D01*
X95127620Y-79396403D01*
X94992913Y-79446645D01*
X94992906Y-79446649D01*
X94877812Y-79532809D01*
X94877809Y-79532812D01*
X94791649Y-79647906D01*
X94791645Y-79647913D01*
X94741403Y-79782620D01*
X94741401Y-79782627D01*
X94735000Y-79842155D01*
X94735000Y-80177500D01*
X89910500Y-80177500D01*
X89910500Y-79045565D01*
X89884910Y-78950062D01*
X89836629Y-78866436D01*
X89835475Y-78864437D01*
X88782588Y-77811551D01*
X88749104Y-77750229D01*
X88749505Y-77705329D01*
X88748262Y-77705196D01*
X88753282Y-77658499D01*
X88755500Y-77637873D01*
X88755499Y-76742128D01*
X88749091Y-76682517D01*
X88742748Y-76665511D01*
X88698797Y-76547671D01*
X88698793Y-76547664D01*
X88612547Y-76432455D01*
X88612544Y-76432452D01*
X88497335Y-76346206D01*
X88497328Y-76346202D01*
X88362482Y-76295908D01*
X88362483Y-76295908D01*
X88302883Y-76289501D01*
X88302881Y-76289500D01*
X88302873Y-76289500D01*
X88302864Y-76289500D01*
X86957129Y-76289500D01*
X86957123Y-76289501D01*
X86897516Y-76295908D01*
X86762671Y-76346202D01*
X86762664Y-76346206D01*
X86647455Y-76432452D01*
X86647452Y-76432455D01*
X86561206Y-76547664D01*
X86561202Y-76547671D01*
X86510908Y-76682517D01*
X86504512Y-76742011D01*
X86504501Y-76742123D01*
X86504500Y-76742135D01*
X86504500Y-77637870D01*
X86504501Y-77637876D01*
X86510908Y-77697483D01*
X86561202Y-77832328D01*
X86561206Y-77832335D01*
X86647452Y-77947544D01*
X86647455Y-77947547D01*
X86762664Y-78033793D01*
X86762671Y-78033797D01*
X86897517Y-78084091D01*
X86897516Y-78084091D01*
X86904444Y-78084835D01*
X86957127Y-78090500D01*
X87948099Y-78090499D01*
X88015138Y-78110183D01*
X88035780Y-78126818D01*
X89123181Y-79214218D01*
X89156666Y-79275541D01*
X89159500Y-79301899D01*
X89159500Y-81073101D01*
X89139815Y-81140140D01*
X89123181Y-81160782D01*
X88399782Y-81884181D01*
X88338459Y-81917666D01*
X88312101Y-81920500D01*
X75277899Y-81920500D01*
X75210860Y-81900815D01*
X75190218Y-81884181D01*
X74466819Y-81160782D01*
X74433334Y-81099459D01*
X74430500Y-81073101D01*
X74430500Y-80415000D01*
X76980000Y-80415000D01*
X76980000Y-80737844D01*
X76986401Y-80797372D01*
X76986403Y-80797379D01*
X77036645Y-80932086D01*
X77036649Y-80932093D01*
X77122809Y-81047187D01*
X77122812Y-81047190D01*
X77237906Y-81133350D01*
X77237913Y-81133354D01*
X77372620Y-81183596D01*
X77372627Y-81183598D01*
X77432155Y-81189999D01*
X77432172Y-81190000D01*
X77980000Y-81190000D01*
X77980000Y-80415000D01*
X78230000Y-80415000D01*
X78230000Y-81190000D01*
X78777828Y-81190000D01*
X78777844Y-81189999D01*
X78837372Y-81183598D01*
X78837379Y-81183596D01*
X78972086Y-81133354D01*
X78972093Y-81133350D01*
X79087187Y-81047190D01*
X79087190Y-81047187D01*
X79173350Y-80932093D01*
X79173354Y-80932086D01*
X79223596Y-80797379D01*
X79223598Y-80797372D01*
X79229999Y-80737844D01*
X79230000Y-80737827D01*
X79230000Y-80415000D01*
X80155000Y-80415000D01*
X80155000Y-80737844D01*
X80161401Y-80797372D01*
X80161403Y-80797379D01*
X80211645Y-80932086D01*
X80211649Y-80932093D01*
X80297809Y-81047187D01*
X80297812Y-81047190D01*
X80412906Y-81133350D01*
X80412913Y-81133354D01*
X80547620Y-81183596D01*
X80547627Y-81183598D01*
X80607155Y-81189999D01*
X80607172Y-81190000D01*
X81155000Y-81190000D01*
X81155000Y-80415000D01*
X81405000Y-80415000D01*
X81405000Y-81190000D01*
X81952828Y-81190000D01*
X81952844Y-81189999D01*
X82012372Y-81183598D01*
X82012379Y-81183596D01*
X82147086Y-81133354D01*
X82147093Y-81133350D01*
X82262187Y-81047190D01*
X82262190Y-81047187D01*
X82348350Y-80932093D01*
X82348354Y-80932086D01*
X82398596Y-80797379D01*
X82398598Y-80797372D01*
X82404999Y-80737844D01*
X82405000Y-80737827D01*
X82405000Y-80415000D01*
X83330000Y-80415000D01*
X83330000Y-80737844D01*
X83336401Y-80797372D01*
X83336403Y-80797379D01*
X83386645Y-80932086D01*
X83386649Y-80932093D01*
X83472809Y-81047187D01*
X83472812Y-81047190D01*
X83587906Y-81133350D01*
X83587913Y-81133354D01*
X83722620Y-81183596D01*
X83722627Y-81183598D01*
X83782155Y-81189999D01*
X83782172Y-81190000D01*
X84330000Y-81190000D01*
X84330000Y-80415000D01*
X84580000Y-80415000D01*
X84580000Y-81190000D01*
X85127828Y-81190000D01*
X85127844Y-81189999D01*
X85187372Y-81183598D01*
X85187379Y-81183596D01*
X85322086Y-81133354D01*
X85322093Y-81133350D01*
X85437187Y-81047190D01*
X85437190Y-81047187D01*
X85523350Y-80932093D01*
X85523354Y-80932086D01*
X85573596Y-80797379D01*
X85573598Y-80797372D01*
X85579999Y-80737844D01*
X85580000Y-80737827D01*
X85580000Y-80415000D01*
X86505000Y-80415000D01*
X86505000Y-80737844D01*
X86511401Y-80797372D01*
X86511403Y-80797379D01*
X86561645Y-80932086D01*
X86561649Y-80932093D01*
X86647809Y-81047187D01*
X86647812Y-81047190D01*
X86762906Y-81133350D01*
X86762913Y-81133354D01*
X86897620Y-81183596D01*
X86897627Y-81183598D01*
X86957155Y-81189999D01*
X86957172Y-81190000D01*
X87505000Y-81190000D01*
X87505000Y-80415000D01*
X87755000Y-80415000D01*
X87755000Y-81190000D01*
X88302828Y-81190000D01*
X88302844Y-81189999D01*
X88362372Y-81183598D01*
X88362379Y-81183596D01*
X88497086Y-81133354D01*
X88497093Y-81133350D01*
X88612187Y-81047190D01*
X88612190Y-81047187D01*
X88698350Y-80932093D01*
X88698354Y-80932086D01*
X88748596Y-80797379D01*
X88748598Y-80797372D01*
X88754999Y-80737844D01*
X88755000Y-80737827D01*
X88755000Y-80415000D01*
X87755000Y-80415000D01*
X87505000Y-80415000D01*
X86505000Y-80415000D01*
X85580000Y-80415000D01*
X84580000Y-80415000D01*
X84330000Y-80415000D01*
X83330000Y-80415000D01*
X82405000Y-80415000D01*
X81405000Y-80415000D01*
X81155000Y-80415000D01*
X80155000Y-80415000D01*
X79230000Y-80415000D01*
X78230000Y-80415000D01*
X77980000Y-80415000D01*
X76980000Y-80415000D01*
X74430500Y-80415000D01*
X74430500Y-80165000D01*
X76980000Y-80165000D01*
X77980000Y-80165000D01*
X77980000Y-79390000D01*
X78230000Y-79390000D01*
X78230000Y-80165000D01*
X79230000Y-80165000D01*
X80155000Y-80165000D01*
X81155000Y-80165000D01*
X81155000Y-79390000D01*
X81405000Y-79390000D01*
X81405000Y-80165000D01*
X82405000Y-80165000D01*
X83330000Y-80165000D01*
X84330000Y-80165000D01*
X84330000Y-79390000D01*
X84580000Y-79390000D01*
X84580000Y-80165000D01*
X85580000Y-80165000D01*
X86505000Y-80165000D01*
X87505000Y-80165000D01*
X87505000Y-79390000D01*
X87755000Y-79390000D01*
X87755000Y-80165000D01*
X88755000Y-80165000D01*
X88755000Y-79842172D01*
X88754999Y-79842155D01*
X88748598Y-79782627D01*
X88748596Y-79782620D01*
X88698354Y-79647913D01*
X88698350Y-79647906D01*
X88612190Y-79532812D01*
X88612187Y-79532809D01*
X88497093Y-79446649D01*
X88497086Y-79446645D01*
X88362379Y-79396403D01*
X88362372Y-79396401D01*
X88302844Y-79390000D01*
X87755000Y-79390000D01*
X87505000Y-79390000D01*
X86957155Y-79390000D01*
X86897627Y-79396401D01*
X86897620Y-79396403D01*
X86762913Y-79446645D01*
X86762906Y-79446649D01*
X86647812Y-79532809D01*
X86647809Y-79532812D01*
X86561649Y-79647906D01*
X86561645Y-79647913D01*
X86511403Y-79782620D01*
X86511401Y-79782627D01*
X86505000Y-79842155D01*
X86505000Y-80165000D01*
X85580000Y-80165000D01*
X85580000Y-79842172D01*
X85579999Y-79842155D01*
X85573598Y-79782627D01*
X85573596Y-79782620D01*
X85523354Y-79647913D01*
X85523350Y-79647906D01*
X85437190Y-79532812D01*
X85437187Y-79532809D01*
X85322093Y-79446649D01*
X85322086Y-79446645D01*
X85187379Y-79396403D01*
X85187372Y-79396401D01*
X85127844Y-79390000D01*
X84580000Y-79390000D01*
X84330000Y-79390000D01*
X83782155Y-79390000D01*
X83722627Y-79396401D01*
X83722620Y-79396403D01*
X83587913Y-79446645D01*
X83587906Y-79446649D01*
X83472812Y-79532809D01*
X83472809Y-79532812D01*
X83386649Y-79647906D01*
X83386645Y-79647913D01*
X83336403Y-79782620D01*
X83336401Y-79782627D01*
X83330000Y-79842155D01*
X83330000Y-80165000D01*
X82405000Y-80165000D01*
X82405000Y-79842172D01*
X82404999Y-79842155D01*
X82398598Y-79782627D01*
X82398596Y-79782620D01*
X82348354Y-79647913D01*
X82348350Y-79647906D01*
X82262190Y-79532812D01*
X82262187Y-79532809D01*
X82147093Y-79446649D01*
X82147086Y-79446645D01*
X82012379Y-79396403D01*
X82012372Y-79396401D01*
X81952844Y-79390000D01*
X81405000Y-79390000D01*
X81155000Y-79390000D01*
X80607155Y-79390000D01*
X80547627Y-79396401D01*
X80547620Y-79396403D01*
X80412913Y-79446645D01*
X80412906Y-79446649D01*
X80297812Y-79532809D01*
X80297809Y-79532812D01*
X80211649Y-79647906D01*
X80211645Y-79647913D01*
X80161403Y-79782620D01*
X80161401Y-79782627D01*
X80155000Y-79842155D01*
X80155000Y-80165000D01*
X79230000Y-80165000D01*
X79230000Y-79842172D01*
X79229999Y-79842155D01*
X79223598Y-79782627D01*
X79223596Y-79782620D01*
X79173354Y-79647913D01*
X79173350Y-79647906D01*
X79087190Y-79532812D01*
X79087187Y-79532809D01*
X78972093Y-79446649D01*
X78972086Y-79446645D01*
X78837379Y-79396403D01*
X78837372Y-79396401D01*
X78777844Y-79390000D01*
X78230000Y-79390000D01*
X77980000Y-79390000D01*
X77432155Y-79390000D01*
X77372627Y-79396401D01*
X77372620Y-79396403D01*
X77237913Y-79446645D01*
X77237906Y-79446649D01*
X77122812Y-79532809D01*
X77122809Y-79532812D01*
X77036649Y-79647906D01*
X77036645Y-79647913D01*
X76986403Y-79782620D01*
X76986401Y-79782627D01*
X76980000Y-79842155D01*
X76980000Y-80165000D01*
X74430500Y-80165000D01*
X74430500Y-79630323D01*
X74430499Y-79630321D01*
X74415967Y-79557264D01*
X74415966Y-79557260D01*
X74360601Y-79474399D01*
X74277740Y-79419034D01*
X74277739Y-79419033D01*
X74277735Y-79419032D01*
X74204677Y-79404500D01*
X74204674Y-79404500D01*
X72055326Y-79404500D01*
X72055323Y-79404500D01*
X71982264Y-79419032D01*
X71982260Y-79419033D01*
X71899399Y-79474399D01*
X71844033Y-79557260D01*
X71844032Y-79557264D01*
X71829500Y-79630321D01*
X71829500Y-81079678D01*
X65330499Y-81079678D01*
X65330500Y-81079674D01*
X65330500Y-79630326D01*
X65330500Y-79630323D01*
X65330499Y-79630321D01*
X65315967Y-79557264D01*
X65315966Y-79557260D01*
X65260601Y-79474399D01*
X65177740Y-79419034D01*
X65177739Y-79419033D01*
X65177735Y-79419032D01*
X65104677Y-79404500D01*
X65104674Y-79404500D01*
X64529500Y-79404500D01*
X64462461Y-79384815D01*
X64416706Y-79332011D01*
X64405500Y-79280500D01*
X64405500Y-78620564D01*
X64398666Y-78595062D01*
X64398665Y-78595059D01*
X64397192Y-78589563D01*
X64379910Y-78525063D01*
X64379910Y-78525062D01*
X64361690Y-78493504D01*
X64345217Y-78425607D01*
X64345978Y-78416588D01*
X64355278Y-78340000D01*
X64336237Y-78183182D01*
X64280220Y-78035477D01*
X64190483Y-77905470D01*
X64072240Y-77800717D01*
X64072238Y-77800716D01*
X64072237Y-77800715D01*
X63932365Y-77727303D01*
X63778986Y-77689500D01*
X63778985Y-77689500D01*
X63621015Y-77689500D01*
X63621014Y-77689500D01*
X63467634Y-77727303D01*
X63327762Y-77800715D01*
X63209516Y-77905471D01*
X63119781Y-78035475D01*
X63119780Y-78035476D01*
X63063762Y-78183181D01*
X63044722Y-78339999D01*
X63044722Y-78340000D01*
X63063762Y-78496818D01*
X63110694Y-78620565D01*
X63119780Y-78644523D01*
X63209517Y-78774530D01*
X63327760Y-78879283D01*
X63327762Y-78879284D01*
X63467634Y-78952696D01*
X63506027Y-78962158D01*
X63560175Y-78975504D01*
X63620555Y-79010659D01*
X63652344Y-79072878D01*
X63654500Y-79095901D01*
X63654500Y-79280500D01*
X63634815Y-79347539D01*
X63582011Y-79393294D01*
X63530500Y-79404500D01*
X62955323Y-79404500D01*
X62882264Y-79419032D01*
X62882260Y-79419033D01*
X62799399Y-79474399D01*
X62744033Y-79557260D01*
X62744032Y-79557264D01*
X62729500Y-79630321D01*
X62729500Y-81079678D01*
X54257148Y-81079678D01*
X54197911Y-80907126D01*
X54194989Y-80897312D01*
X54183691Y-80852696D01*
X54081498Y-80449147D01*
X54079401Y-80439143D01*
X54003303Y-79983123D01*
X54002040Y-79972979D01*
X53963810Y-79511613D01*
X53963394Y-79502690D01*
X53961007Y-79271562D01*
X53961000Y-79270281D01*
X53961000Y-73804678D01*
X55744500Y-73804678D01*
X55759032Y-73877735D01*
X55759033Y-73877739D01*
X55771274Y-73896059D01*
X55814399Y-73960601D01*
X55860741Y-73991565D01*
X55897260Y-74015966D01*
X55897264Y-74015967D01*
X55970321Y-74030499D01*
X55970324Y-74030500D01*
X55970326Y-74030500D01*
X58119676Y-74030500D01*
X58119677Y-74030499D01*
X58192740Y-74015966D01*
X58275601Y-73960601D01*
X58330966Y-73877740D01*
X58345500Y-73804674D01*
X58345500Y-73579500D01*
X58365185Y-73512461D01*
X58417989Y-73466706D01*
X58469500Y-73455500D01*
X59430435Y-73455500D01*
X59430436Y-73455500D01*
X59478186Y-73442705D01*
X59525938Y-73429910D01*
X59611562Y-73380475D01*
X59681475Y-73310562D01*
X59681474Y-73310562D01*
X59740043Y-73251993D01*
X59740042Y-73251993D01*
X61439218Y-71552819D01*
X61500541Y-71519334D01*
X61526899Y-71516500D01*
X61673985Y-71516500D01*
X61827365Y-71478696D01*
X61967240Y-71405283D01*
X62085483Y-71300530D01*
X62175220Y-71170523D01*
X62231237Y-71022818D01*
X62250278Y-70866000D01*
X62244276Y-70816564D01*
X62231237Y-70709181D01*
X62209992Y-70653164D01*
X62175220Y-70561477D01*
X62085483Y-70431470D01*
X61967240Y-70326717D01*
X61967238Y-70326716D01*
X61967237Y-70326715D01*
X61827365Y-70253303D01*
X61673986Y-70215500D01*
X61673985Y-70215500D01*
X61516015Y-70215500D01*
X61516014Y-70215500D01*
X61362634Y-70253303D01*
X61222762Y-70326715D01*
X61104516Y-70431471D01*
X61014781Y-70561475D01*
X61014780Y-70561476D01*
X60958763Y-70709181D01*
X60939722Y-70866000D01*
X60945896Y-70916854D01*
X60934435Y-70985777D01*
X60910481Y-71019480D01*
X59261782Y-72668181D01*
X59200459Y-72701666D01*
X59174101Y-72704500D01*
X58469500Y-72704500D01*
X58402461Y-72684815D01*
X58356706Y-72632011D01*
X58345500Y-72580500D01*
X58345500Y-72355323D01*
X58345499Y-72355321D01*
X58330967Y-72282264D01*
X58330966Y-72282260D01*
X58322295Y-72269283D01*
X58275601Y-72199399D01*
X58192740Y-72144034D01*
X58192739Y-72144033D01*
X58192735Y-72144032D01*
X58119677Y-72129500D01*
X58119674Y-72129500D01*
X55970326Y-72129500D01*
X55970323Y-72129500D01*
X55897264Y-72144032D01*
X55897260Y-72144033D01*
X55814399Y-72199399D01*
X55759033Y-72282260D01*
X55759032Y-72282264D01*
X55744500Y-72355321D01*
X55744500Y-73804678D01*
X53961000Y-73804678D01*
X53961000Y-69304678D01*
X55744500Y-69304678D01*
X55759032Y-69377735D01*
X55759033Y-69377739D01*
X55759034Y-69377740D01*
X55814399Y-69460601D01*
X55874049Y-69500457D01*
X55897260Y-69515966D01*
X55897264Y-69515967D01*
X55970321Y-69530499D01*
X55970324Y-69530500D01*
X55970326Y-69530500D01*
X58119676Y-69530500D01*
X58119677Y-69530499D01*
X58192740Y-69515966D01*
X58275601Y-69460601D01*
X58330966Y-69377740D01*
X58345500Y-69304674D01*
X58345500Y-67855326D01*
X58345500Y-67855323D01*
X58345499Y-67855321D01*
X58330967Y-67782264D01*
X58330966Y-67782260D01*
X58310340Y-67751391D01*
X58275601Y-67699399D01*
X58192740Y-67644034D01*
X58192739Y-67644033D01*
X58192735Y-67644032D01*
X58119677Y-67629500D01*
X58119674Y-67629500D01*
X55970326Y-67629500D01*
X55970323Y-67629500D01*
X55897264Y-67644032D01*
X55897260Y-67644033D01*
X55814399Y-67699399D01*
X55759033Y-67782260D01*
X55759032Y-67782264D01*
X55744500Y-67855321D01*
X55744500Y-69304678D01*
X53961000Y-69304678D01*
X53961000Y-62029678D01*
X62729500Y-62029678D01*
X62744032Y-62102735D01*
X62744033Y-62102739D01*
X62744034Y-62102740D01*
X62799399Y-62185601D01*
X62856210Y-62223560D01*
X62882260Y-62240966D01*
X62882264Y-62240967D01*
X62955321Y-62255499D01*
X62955324Y-62255500D01*
X62955326Y-62255500D01*
X65104676Y-62255500D01*
X65104677Y-62255499D01*
X65177740Y-62240966D01*
X65260601Y-62185601D01*
X65315966Y-62102740D01*
X65330500Y-62029674D01*
X65330500Y-60580326D01*
X65330500Y-60580323D01*
X65330499Y-60580321D01*
X65315967Y-60507264D01*
X65315966Y-60507260D01*
X65260601Y-60424399D01*
X65177740Y-60369034D01*
X65177739Y-60369033D01*
X65177735Y-60369032D01*
X65104677Y-60354500D01*
X65104674Y-60354500D01*
X62955326Y-60354500D01*
X62955323Y-60354500D01*
X62882264Y-60369032D01*
X62882260Y-60369033D01*
X62799399Y-60424399D01*
X62744033Y-60507260D01*
X62744032Y-60507264D01*
X62729500Y-60580321D01*
X62729500Y-62029678D01*
X53961000Y-62029678D01*
X53961000Y-55072603D01*
X53961007Y-55071322D01*
X53963394Y-54840193D01*
X53963810Y-54831273D01*
X54002041Y-54369893D01*
X54003303Y-54359763D01*
X54079400Y-53903733D01*
X54081496Y-53893740D01*
X54093585Y-53846000D01*
X57981000Y-53846000D01*
X57981000Y-54393844D01*
X57987401Y-54453372D01*
X57987403Y-54453379D01*
X58037645Y-54588086D01*
X58037649Y-54588093D01*
X58123809Y-54703187D01*
X58123812Y-54703190D01*
X58238906Y-54789350D01*
X58238913Y-54789354D01*
X58373620Y-54839596D01*
X58373627Y-54839598D01*
X58433155Y-54845999D01*
X58433172Y-54846000D01*
X58756000Y-54846000D01*
X58756000Y-53846000D01*
X59006000Y-53846000D01*
X59006000Y-54846000D01*
X59328828Y-54846000D01*
X59328844Y-54845999D01*
X59388372Y-54839598D01*
X59388379Y-54839596D01*
X59523086Y-54789354D01*
X59523093Y-54789350D01*
X59638187Y-54703190D01*
X59638190Y-54703187D01*
X59724350Y-54588093D01*
X59724354Y-54588086D01*
X59774596Y-54453379D01*
X59774598Y-54453372D01*
X59780999Y-54393844D01*
X59781000Y-54393827D01*
X59781000Y-53846000D01*
X59006000Y-53846000D01*
X58756000Y-53846000D01*
X57981000Y-53846000D01*
X54093585Y-53846000D01*
X54156893Y-53596000D01*
X57981000Y-53596000D01*
X58756000Y-53596000D01*
X58756000Y-52596000D01*
X59006000Y-52596000D01*
X59006000Y-53596000D01*
X59781000Y-53596000D01*
X59781000Y-53048172D01*
X59780999Y-53048155D01*
X59774598Y-52988627D01*
X59774596Y-52988620D01*
X59724354Y-52853913D01*
X59724350Y-52853906D01*
X59638190Y-52738812D01*
X59638187Y-52738809D01*
X59523093Y-52652649D01*
X59523086Y-52652645D01*
X59388379Y-52602403D01*
X59388372Y-52602401D01*
X59328844Y-52596000D01*
X59006000Y-52596000D01*
X58756000Y-52596000D01*
X58433155Y-52596000D01*
X58373627Y-52602401D01*
X58373620Y-52602403D01*
X58238913Y-52652645D01*
X58238906Y-52652649D01*
X58123812Y-52738809D01*
X58123809Y-52738812D01*
X58037649Y-52853906D01*
X58037645Y-52853913D01*
X57987403Y-52988620D01*
X57987401Y-52988627D01*
X57981000Y-53048155D01*
X57981000Y-53596000D01*
X54156893Y-53596000D01*
X54194991Y-53445555D01*
X54197907Y-53435764D01*
X54348021Y-52998496D01*
X54351731Y-52988990D01*
X54537451Y-52565592D01*
X54541929Y-52556431D01*
X54761974Y-52149822D01*
X54767197Y-52141056D01*
X55020073Y-51754000D01*
X55026006Y-51745690D01*
X55136539Y-51603678D01*
X59910500Y-51603678D01*
X59925032Y-51676735D01*
X59925033Y-51676739D01*
X59925034Y-51676740D01*
X59980399Y-51759601D01*
X60063260Y-51814966D01*
X60063264Y-51814967D01*
X60136321Y-51829499D01*
X60136324Y-51829500D01*
X63586500Y-51829500D01*
X63653539Y-51849185D01*
X63699294Y-51901989D01*
X63710500Y-51953500D01*
X63710500Y-53221500D01*
X63690815Y-53288539D01*
X63638011Y-53334294D01*
X63586500Y-53345500D01*
X63005499Y-53345500D01*
X62938460Y-53325815D01*
X62892705Y-53273011D01*
X62881499Y-53221500D01*
X62881499Y-53048129D01*
X62881498Y-53048123D01*
X62881497Y-53048116D01*
X62875091Y-52988517D01*
X62851065Y-52924101D01*
X62824797Y-52853671D01*
X62824793Y-52853664D01*
X62738547Y-52738455D01*
X62738544Y-52738452D01*
X62623335Y-52652206D01*
X62623328Y-52652202D01*
X62488482Y-52601908D01*
X62488483Y-52601908D01*
X62428883Y-52595501D01*
X62428881Y-52595500D01*
X62428873Y-52595500D01*
X62428864Y-52595500D01*
X61533129Y-52595500D01*
X61533123Y-52595501D01*
X61473516Y-52601908D01*
X61338671Y-52652202D01*
X61338664Y-52652206D01*
X61223455Y-52738452D01*
X61223452Y-52738455D01*
X61137206Y-52853664D01*
X61137202Y-52853671D01*
X61086908Y-52988517D01*
X61080638Y-53046839D01*
X61080501Y-53048123D01*
X61080500Y-53048135D01*
X61080500Y-54393870D01*
X61080501Y-54393876D01*
X61086908Y-54453483D01*
X61137202Y-54588328D01*
X61137206Y-54588335D01*
X61223452Y-54703544D01*
X61223455Y-54703547D01*
X61338664Y-54789793D01*
X61338671Y-54789797D01*
X61473517Y-54840091D01*
X61473516Y-54840091D01*
X61474642Y-54840212D01*
X61533127Y-54846500D01*
X62428872Y-54846499D01*
X62488483Y-54840091D01*
X62623331Y-54789796D01*
X62738546Y-54703546D01*
X62824796Y-54588331D01*
X62875091Y-54453483D01*
X62881500Y-54393873D01*
X62881500Y-54220500D01*
X62901185Y-54153461D01*
X62953989Y-54107706D01*
X63005500Y-54096500D01*
X63586500Y-54096500D01*
X63653539Y-54116185D01*
X63699294Y-54168989D01*
X63710500Y-54220500D01*
X63710500Y-56503678D01*
X63725032Y-56576735D01*
X63725033Y-56576739D01*
X63725034Y-56576740D01*
X63780399Y-56659601D01*
X63863259Y-56714965D01*
X63863260Y-56714966D01*
X63863264Y-56714967D01*
X63936321Y-56729499D01*
X63936324Y-56729500D01*
X63936326Y-56729500D01*
X65385676Y-56729500D01*
X65385677Y-56729499D01*
X65458740Y-56714966D01*
X65541601Y-56659601D01*
X65596966Y-56576740D01*
X65611500Y-56503674D01*
X65611500Y-54350898D01*
X65631185Y-54283859D01*
X65647815Y-54263221D01*
X66519217Y-53391818D01*
X66580540Y-53358334D01*
X66606898Y-53355500D01*
X66753985Y-53355500D01*
X66907365Y-53317696D01*
X66962918Y-53288539D01*
X67047240Y-53244283D01*
X67165483Y-53139530D01*
X67255220Y-53009523D01*
X67311237Y-52861818D01*
X67330278Y-52705000D01*
X67323922Y-52652649D01*
X67311237Y-52548181D01*
X67289992Y-52492164D01*
X67255220Y-52400477D01*
X67165483Y-52270470D01*
X67047240Y-52165717D01*
X67047238Y-52165716D01*
X67047237Y-52165715D01*
X66907365Y-52092303D01*
X66753986Y-52054500D01*
X66753985Y-52054500D01*
X66596015Y-52054500D01*
X66596014Y-52054500D01*
X66442634Y-52092303D01*
X66302762Y-52165715D01*
X66184516Y-52270471D01*
X66094781Y-52400475D01*
X66094780Y-52400476D01*
X66038763Y-52548181D01*
X66019722Y-52705000D01*
X66019722Y-52705001D01*
X66025896Y-52755854D01*
X66014435Y-52824777D01*
X65990481Y-52858480D01*
X65823180Y-53025781D01*
X65761858Y-53059266D01*
X65692167Y-53054282D01*
X65636233Y-53012411D01*
X65611816Y-52946946D01*
X65611500Y-52938100D01*
X65611500Y-51954323D01*
X65611499Y-51954321D01*
X65596967Y-51881264D01*
X65596966Y-51881260D01*
X65586007Y-51864858D01*
X65541601Y-51798399D01*
X65462715Y-51745690D01*
X65458739Y-51743033D01*
X65458735Y-51743032D01*
X65385677Y-51728500D01*
X65385674Y-51728500D01*
X64035500Y-51728500D01*
X63968461Y-51708815D01*
X63922706Y-51656011D01*
X63911500Y-51604500D01*
X63911500Y-49954323D01*
X63911499Y-49954321D01*
X63896967Y-49881264D01*
X63896966Y-49881260D01*
X63841601Y-49798399D01*
X63779792Y-49757100D01*
X63758739Y-49743033D01*
X63758735Y-49743032D01*
X63685677Y-49728500D01*
X63685674Y-49728500D01*
X60136326Y-49728500D01*
X60136323Y-49728500D01*
X60063264Y-49743032D01*
X60063260Y-49743033D01*
X59980399Y-49798399D01*
X59925033Y-49881260D01*
X59925032Y-49881264D01*
X59910500Y-49954321D01*
X59910500Y-51603678D01*
X55136539Y-51603678D01*
X55309984Y-51380836D01*
X55316555Y-51373077D01*
X55629691Y-51032921D01*
X55636921Y-51025691D01*
X55977077Y-50712555D01*
X55984836Y-50705984D01*
X56349690Y-50422006D01*
X56358000Y-50416073D01*
X56745056Y-50163197D01*
X56753822Y-50157974D01*
X57160431Y-49937929D01*
X57169592Y-49933451D01*
X57592990Y-49747731D01*
X57602496Y-49744021D01*
X58039764Y-49593907D01*
X58049555Y-49590991D01*
X58497740Y-49477496D01*
X58507733Y-49475400D01*
X58963763Y-49399303D01*
X58973893Y-49398041D01*
X59435273Y-49359810D01*
X59444193Y-49359394D01*
X59675322Y-49357006D01*
X59676603Y-49357000D01*
X80382365Y-49357000D01*
X80449404Y-49376685D01*
G37*
G04 #@! TD.AperFunction*
G04 #@! TA.AperFunction,Conductor*
G36*
X102039404Y-49376685D02*
G01*
X102085159Y-49429489D01*
X102095103Y-49498647D01*
X102066078Y-49562203D01*
X102009256Y-49599385D01*
X101941377Y-49620537D01*
X101748156Y-49707498D01*
X101658758Y-49747734D01*
X101637943Y-49757102D01*
X101569629Y-49798399D01*
X101353173Y-49929251D01*
X101091244Y-50134460D01*
X100855960Y-50369744D01*
X100650751Y-50631673D01*
X100478601Y-50916445D01*
X100478600Y-50916447D01*
X100342036Y-51219880D01*
X100342030Y-51219895D01*
X100243046Y-51537550D01*
X100243044Y-51537556D01*
X100243044Y-51537559D01*
X100203380Y-51754000D01*
X100183063Y-51864863D01*
X100162973Y-52197000D01*
X100183063Y-52529136D01*
X100183063Y-52529141D01*
X100183064Y-52529142D01*
X100243044Y-52856441D01*
X100243045Y-52856445D01*
X100243046Y-52856449D01*
X100342030Y-53174104D01*
X100342034Y-53174116D01*
X100342037Y-53174123D01*
X100478602Y-53477557D01*
X100615435Y-53703906D01*
X100650751Y-53762326D01*
X100855960Y-54024255D01*
X101091244Y-54259539D01*
X101353173Y-54464748D01*
X101353178Y-54464751D01*
X101353182Y-54464754D01*
X101637943Y-54636898D01*
X101941377Y-54773463D01*
X101941390Y-54773467D01*
X101941395Y-54773469D01*
X102025716Y-54799744D01*
X102259059Y-54872456D01*
X102586358Y-54932436D01*
X102918500Y-54952527D01*
X103250642Y-54932436D01*
X103577941Y-54872456D01*
X103895623Y-54773463D01*
X104199057Y-54636898D01*
X104483818Y-54464754D01*
X104484351Y-54464337D01*
X104617855Y-54359743D01*
X104745752Y-54259542D01*
X104981042Y-54024252D01*
X105186254Y-53762318D01*
X105358398Y-53477557D01*
X105494963Y-53174123D01*
X105593956Y-52856441D01*
X105653936Y-52529142D01*
X105674027Y-52197000D01*
X105653936Y-51864858D01*
X105593956Y-51537559D01*
X105545124Y-51380851D01*
X105494969Y-51219895D01*
X105494967Y-51219890D01*
X105494963Y-51219877D01*
X105358398Y-50916443D01*
X105186254Y-50631682D01*
X105186251Y-50631678D01*
X105186248Y-50631673D01*
X104981039Y-50369744D01*
X104745755Y-50134460D01*
X104483826Y-49929251D01*
X104483818Y-49929246D01*
X104199057Y-49757102D01*
X103895623Y-49620537D01*
X103827743Y-49599385D01*
X103769597Y-49560648D01*
X103741623Y-49496623D01*
X103752704Y-49427638D01*
X103799323Y-49375594D01*
X103864635Y-49357000D01*
X113402365Y-49357000D01*
X113469404Y-49376685D01*
X113515159Y-49429489D01*
X113525103Y-49498647D01*
X113496078Y-49562203D01*
X113439256Y-49599385D01*
X113371377Y-49620537D01*
X113178156Y-49707498D01*
X113088758Y-49747734D01*
X113067943Y-49757102D01*
X112999629Y-49798399D01*
X112783173Y-49929251D01*
X112521244Y-50134460D01*
X112285960Y-50369744D01*
X112080751Y-50631673D01*
X111908601Y-50916445D01*
X111908600Y-50916447D01*
X111772036Y-51219880D01*
X111772030Y-51219895D01*
X111673046Y-51537550D01*
X111673044Y-51537556D01*
X111673044Y-51537559D01*
X111633380Y-51754000D01*
X111613063Y-51864863D01*
X111592973Y-52197000D01*
X111613063Y-52529136D01*
X111613063Y-52529141D01*
X111613064Y-52529142D01*
X111673044Y-52856441D01*
X111673045Y-52856445D01*
X111673046Y-52856449D01*
X111772030Y-53174104D01*
X111772034Y-53174116D01*
X111772037Y-53174123D01*
X111908602Y-53477557D01*
X112045435Y-53703906D01*
X112080751Y-53762326D01*
X112285960Y-54024255D01*
X112521244Y-54259539D01*
X112783173Y-54464748D01*
X112783178Y-54464751D01*
X112783182Y-54464754D01*
X113067943Y-54636898D01*
X113371377Y-54773463D01*
X113371390Y-54773467D01*
X113371395Y-54773469D01*
X113455716Y-54799744D01*
X113689059Y-54872456D01*
X114016358Y-54932436D01*
X114095827Y-54937242D01*
X114161554Y-54960938D01*
X114176021Y-54973335D01*
X119097181Y-59894495D01*
X119130666Y-59955818D01*
X119133500Y-59982176D01*
X119133500Y-68829324D01*
X119113815Y-68896363D01*
X119097181Y-68917005D01*
X118193005Y-69821181D01*
X118131682Y-69854666D01*
X118105324Y-69857500D01*
X114454500Y-69857500D01*
X114387461Y-69837815D01*
X114341706Y-69785011D01*
X114330500Y-69733500D01*
X114330500Y-69597007D01*
X114350185Y-69529968D01*
X114402989Y-69484213D01*
X114441247Y-69473717D01*
X114474983Y-69470091D01*
X114609831Y-69419796D01*
X114725046Y-69333546D01*
X114811296Y-69218331D01*
X114861591Y-69083483D01*
X114868000Y-69023873D01*
X114867999Y-68451000D01*
X116167500Y-68451000D01*
X116167500Y-69023844D01*
X116173901Y-69083372D01*
X116173903Y-69083379D01*
X116224145Y-69218086D01*
X116224149Y-69218093D01*
X116310309Y-69333187D01*
X116310312Y-69333190D01*
X116425406Y-69419350D01*
X116425413Y-69419354D01*
X116560120Y-69469596D01*
X116560127Y-69469598D01*
X116619655Y-69475999D01*
X116619672Y-69476000D01*
X116955000Y-69476000D01*
X116955000Y-68451000D01*
X117205000Y-68451000D01*
X117205000Y-69476000D01*
X117540328Y-69476000D01*
X117540344Y-69475999D01*
X117599872Y-69469598D01*
X117599879Y-69469596D01*
X117734586Y-69419354D01*
X117734593Y-69419350D01*
X117849687Y-69333190D01*
X117849690Y-69333187D01*
X117935850Y-69218093D01*
X117935854Y-69218086D01*
X117986096Y-69083379D01*
X117986098Y-69083372D01*
X117992499Y-69023844D01*
X117992500Y-69023827D01*
X117992500Y-68451000D01*
X117205000Y-68451000D01*
X116955000Y-68451000D01*
X116167500Y-68451000D01*
X114867999Y-68451000D01*
X114867999Y-68201000D01*
X116167500Y-68201000D01*
X116955000Y-68201000D01*
X116955000Y-67176000D01*
X117205000Y-67176000D01*
X117205000Y-68201000D01*
X117992500Y-68201000D01*
X117992500Y-67628172D01*
X117992499Y-67628155D01*
X117986098Y-67568627D01*
X117986096Y-67568620D01*
X117935854Y-67433913D01*
X117935850Y-67433906D01*
X117849690Y-67318812D01*
X117849687Y-67318809D01*
X117734593Y-67232649D01*
X117734586Y-67232645D01*
X117599879Y-67182403D01*
X117599872Y-67182401D01*
X117540344Y-67176000D01*
X117205000Y-67176000D01*
X116955000Y-67176000D01*
X116619655Y-67176000D01*
X116560127Y-67182401D01*
X116560120Y-67182403D01*
X116425413Y-67232645D01*
X116425406Y-67232649D01*
X116310312Y-67318809D01*
X116310309Y-67318812D01*
X116224149Y-67433906D01*
X116224145Y-67433913D01*
X116173903Y-67568620D01*
X116173901Y-67568627D01*
X116167500Y-67628155D01*
X116167500Y-68201000D01*
X114867999Y-68201000D01*
X114867999Y-67628128D01*
X114861591Y-67568517D01*
X114831505Y-67487853D01*
X114811297Y-67433671D01*
X114811293Y-67433664D01*
X114725047Y-67318455D01*
X114725044Y-67318452D01*
X114609835Y-67232206D01*
X114609828Y-67232202D01*
X114474983Y-67181908D01*
X114441243Y-67178281D01*
X114376693Y-67151543D01*
X114336845Y-67094150D01*
X114330500Y-67054992D01*
X114330500Y-66845244D01*
X114350185Y-66778205D01*
X114402989Y-66732450D01*
X114430305Y-66723627D01*
X114453740Y-66718966D01*
X114536601Y-66663601D01*
X114591966Y-66580740D01*
X114606499Y-66507678D01*
X116505500Y-66507678D01*
X116520032Y-66580735D01*
X116520033Y-66580739D01*
X116521503Y-66582939D01*
X116575399Y-66663601D01*
X116654731Y-66716608D01*
X116658260Y-66718966D01*
X116658264Y-66718967D01*
X116731321Y-66733499D01*
X116731324Y-66733500D01*
X116731326Y-66733500D01*
X117680676Y-66733500D01*
X117680677Y-66733499D01*
X117753740Y-66718966D01*
X117836601Y-66663601D01*
X117891966Y-66580740D01*
X117906500Y-66507674D01*
X117906500Y-64958326D01*
X117906500Y-64958323D01*
X117906499Y-64958321D01*
X117891967Y-64885264D01*
X117891966Y-64885260D01*
X117881124Y-64869034D01*
X117836601Y-64802399D01*
X117757033Y-64749234D01*
X117753739Y-64747033D01*
X117753735Y-64747032D01*
X117680677Y-64732500D01*
X117680674Y-64732500D01*
X116731326Y-64732500D01*
X116731323Y-64732500D01*
X116658264Y-64747032D01*
X116658260Y-64747033D01*
X116575399Y-64802399D01*
X116520033Y-64885260D01*
X116520032Y-64885264D01*
X116505500Y-64958321D01*
X116505500Y-66507678D01*
X114606499Y-66507678D01*
X114606500Y-66507674D01*
X114606500Y-64958326D01*
X114606500Y-64958323D01*
X114606499Y-64958321D01*
X114591967Y-64885264D01*
X114591966Y-64885260D01*
X114581124Y-64869034D01*
X114536601Y-64802399D01*
X114457033Y-64749234D01*
X114453739Y-64747033D01*
X114453735Y-64747032D01*
X114380677Y-64732500D01*
X114380674Y-64732500D01*
X113431326Y-64732500D01*
X113431323Y-64732500D01*
X113358264Y-64747032D01*
X113358260Y-64747033D01*
X113275399Y-64802399D01*
X113220033Y-64885260D01*
X113220032Y-64885264D01*
X113205500Y-64958321D01*
X113205500Y-66507678D01*
X113220032Y-66580735D01*
X113220033Y-66580739D01*
X113221503Y-66582939D01*
X113275399Y-66663601D01*
X113354731Y-66716608D01*
X113358260Y-66718966D01*
X113358264Y-66718967D01*
X113431321Y-66733499D01*
X113431324Y-66733500D01*
X113431326Y-66733500D01*
X113455500Y-66733500D01*
X113522539Y-66753185D01*
X113568294Y-66805989D01*
X113579500Y-66857500D01*
X113579500Y-67054992D01*
X113559815Y-67122031D01*
X113507011Y-67167786D01*
X113468754Y-67178282D01*
X113435016Y-67181908D01*
X113300171Y-67232202D01*
X113300164Y-67232206D01*
X113184955Y-67318452D01*
X113184952Y-67318455D01*
X113098706Y-67433664D01*
X113098702Y-67433671D01*
X113048408Y-67568517D01*
X113042157Y-67626666D01*
X113042001Y-67628123D01*
X113042000Y-67628135D01*
X113042000Y-69023870D01*
X113042001Y-69023876D01*
X113048408Y-69083483D01*
X113098702Y-69218328D01*
X113098706Y-69218335D01*
X113184952Y-69333544D01*
X113184955Y-69333547D01*
X113300164Y-69419793D01*
X113300171Y-69419797D01*
X113435016Y-69470091D01*
X113468757Y-69473719D01*
X113533307Y-69500457D01*
X113573155Y-69557850D01*
X113579500Y-69597008D01*
X113579500Y-69733500D01*
X113559815Y-69800539D01*
X113507011Y-69846294D01*
X113455500Y-69857500D01*
X108104500Y-69857500D01*
X108037461Y-69837815D01*
X107991706Y-69785011D01*
X107980500Y-69733500D01*
X107980500Y-69597007D01*
X108000185Y-69529968D01*
X108052989Y-69484213D01*
X108091247Y-69473717D01*
X108124983Y-69470091D01*
X108259831Y-69419796D01*
X108375046Y-69333546D01*
X108461296Y-69218331D01*
X108511591Y-69083483D01*
X108518000Y-69023873D01*
X108517999Y-68451000D01*
X109817500Y-68451000D01*
X109817500Y-69023844D01*
X109823901Y-69083372D01*
X109823903Y-69083379D01*
X109874145Y-69218086D01*
X109874149Y-69218093D01*
X109960309Y-69333187D01*
X109960312Y-69333190D01*
X110075406Y-69419350D01*
X110075413Y-69419354D01*
X110210120Y-69469596D01*
X110210127Y-69469598D01*
X110269655Y-69475999D01*
X110269672Y-69476000D01*
X110605000Y-69476000D01*
X110605000Y-68451000D01*
X110855000Y-68451000D01*
X110855000Y-69476000D01*
X111190328Y-69476000D01*
X111190344Y-69475999D01*
X111249872Y-69469598D01*
X111249879Y-69469596D01*
X111384586Y-69419354D01*
X111384593Y-69419350D01*
X111499687Y-69333190D01*
X111499690Y-69333187D01*
X111585850Y-69218093D01*
X111585854Y-69218086D01*
X111636096Y-69083379D01*
X111636098Y-69083372D01*
X111642499Y-69023844D01*
X111642500Y-69023827D01*
X111642500Y-68451000D01*
X110855000Y-68451000D01*
X110605000Y-68451000D01*
X109817500Y-68451000D01*
X108517999Y-68451000D01*
X108517999Y-68201000D01*
X109817500Y-68201000D01*
X110605000Y-68201000D01*
X110605000Y-67176000D01*
X110855000Y-67176000D01*
X110855000Y-68201000D01*
X111642500Y-68201000D01*
X111642500Y-67628172D01*
X111642499Y-67628155D01*
X111636098Y-67568627D01*
X111636096Y-67568620D01*
X111585854Y-67433913D01*
X111585850Y-67433906D01*
X111499690Y-67318812D01*
X111499687Y-67318809D01*
X111384593Y-67232649D01*
X111384586Y-67232645D01*
X111249879Y-67182403D01*
X111249872Y-67182401D01*
X111190344Y-67176000D01*
X110855000Y-67176000D01*
X110605000Y-67176000D01*
X110269655Y-67176000D01*
X110210127Y-67182401D01*
X110210120Y-67182403D01*
X110075413Y-67232645D01*
X110075406Y-67232649D01*
X109960312Y-67318809D01*
X109960309Y-67318812D01*
X109874149Y-67433906D01*
X109874145Y-67433913D01*
X109823903Y-67568620D01*
X109823901Y-67568627D01*
X109817500Y-67628155D01*
X109817500Y-68201000D01*
X108517999Y-68201000D01*
X108517999Y-67628128D01*
X108511591Y-67568517D01*
X108481505Y-67487853D01*
X108461297Y-67433671D01*
X108461293Y-67433664D01*
X108375047Y-67318455D01*
X108375044Y-67318452D01*
X108259835Y-67232206D01*
X108259828Y-67232202D01*
X108124983Y-67181908D01*
X108091243Y-67178281D01*
X108026693Y-67151543D01*
X107986845Y-67094150D01*
X107980500Y-67054992D01*
X107980500Y-66845244D01*
X108000185Y-66778205D01*
X108052989Y-66732450D01*
X108080305Y-66723627D01*
X108103740Y-66718966D01*
X108186601Y-66663601D01*
X108241966Y-66580740D01*
X108256499Y-66507678D01*
X110155500Y-66507678D01*
X110170032Y-66580735D01*
X110170033Y-66580739D01*
X110171503Y-66582939D01*
X110225399Y-66663601D01*
X110304731Y-66716608D01*
X110308260Y-66718966D01*
X110308264Y-66718967D01*
X110381321Y-66733499D01*
X110381324Y-66733500D01*
X110381326Y-66733500D01*
X111330676Y-66733500D01*
X111330677Y-66733499D01*
X111403740Y-66718966D01*
X111486601Y-66663601D01*
X111541966Y-66580740D01*
X111556500Y-66507674D01*
X111556500Y-64958326D01*
X111556500Y-64958323D01*
X111556499Y-64958321D01*
X111541967Y-64885264D01*
X111541966Y-64885260D01*
X111531124Y-64869034D01*
X111486601Y-64802399D01*
X111407033Y-64749234D01*
X111403739Y-64747033D01*
X111403736Y-64747032D01*
X111331308Y-64732625D01*
X111269397Y-64700240D01*
X111234823Y-64639523D01*
X111231500Y-64611008D01*
X111231500Y-64089899D01*
X111251185Y-64022860D01*
X111267819Y-64002218D01*
X113400218Y-61869819D01*
X113461541Y-61836334D01*
X113487899Y-61833500D01*
X114380676Y-61833500D01*
X114380677Y-61833499D01*
X114453740Y-61818966D01*
X114536601Y-61763601D01*
X114591966Y-61680740D01*
X114606500Y-61607674D01*
X114606500Y-60958000D01*
X116506000Y-60958000D01*
X116506000Y-61607628D01*
X116520503Y-61680540D01*
X116520505Y-61680544D01*
X116575760Y-61763239D01*
X116658455Y-61818494D01*
X116658459Y-61818496D01*
X116731371Y-61832999D01*
X116731374Y-61833000D01*
X117081000Y-61833000D01*
X117081000Y-60958000D01*
X117331000Y-60958000D01*
X117331000Y-61833000D01*
X117680626Y-61833000D01*
X117680628Y-61832999D01*
X117753540Y-61818496D01*
X117753544Y-61818494D01*
X117836239Y-61763239D01*
X117891494Y-61680544D01*
X117891496Y-61680540D01*
X117905999Y-61607628D01*
X117906000Y-61607626D01*
X117906000Y-60958000D01*
X117331000Y-60958000D01*
X117081000Y-60958000D01*
X116506000Y-60958000D01*
X114606500Y-60958000D01*
X114606500Y-60708000D01*
X116506000Y-60708000D01*
X117081000Y-60708000D01*
X117081000Y-59833000D01*
X117331000Y-59833000D01*
X117331000Y-60708000D01*
X117906000Y-60708000D01*
X117906000Y-60058373D01*
X117905999Y-60058371D01*
X117891496Y-59985459D01*
X117891494Y-59985455D01*
X117836239Y-59902760D01*
X117753544Y-59847505D01*
X117753540Y-59847503D01*
X117680627Y-59833000D01*
X117331000Y-59833000D01*
X117081000Y-59833000D01*
X116731373Y-59833000D01*
X116658459Y-59847503D01*
X116658455Y-59847505D01*
X116575760Y-59902760D01*
X116520505Y-59985455D01*
X116520503Y-59985459D01*
X116506000Y-60058371D01*
X116506000Y-60708000D01*
X114606500Y-60708000D01*
X114606500Y-60058326D01*
X114606500Y-60058323D01*
X114606499Y-60058321D01*
X114591967Y-59985264D01*
X114591966Y-59985260D01*
X114589905Y-59982176D01*
X114536601Y-59902399D01*
X114457033Y-59849234D01*
X114453739Y-59847033D01*
X114453735Y-59847032D01*
X114380677Y-59832500D01*
X114380674Y-59832500D01*
X113431326Y-59832500D01*
X113431323Y-59832500D01*
X113358264Y-59847032D01*
X113358260Y-59847033D01*
X113275399Y-59902399D01*
X113220033Y-59985260D01*
X113220032Y-59985264D01*
X113205500Y-60058321D01*
X113205500Y-60951101D01*
X113185815Y-61018140D01*
X113169181Y-61038782D01*
X110555526Y-63652436D01*
X110506091Y-63738059D01*
X110506091Y-63738060D01*
X110506090Y-63738062D01*
X110480500Y-63833565D01*
X110480500Y-63833567D01*
X110480500Y-64611008D01*
X110460815Y-64678047D01*
X110408011Y-64723802D01*
X110380692Y-64732625D01*
X110308263Y-64747032D01*
X110308260Y-64747033D01*
X110225399Y-64802399D01*
X110170033Y-64885260D01*
X110170032Y-64885264D01*
X110155500Y-64958321D01*
X110155500Y-66507678D01*
X108256499Y-66507678D01*
X108256500Y-66507674D01*
X108256500Y-64958326D01*
X108256500Y-64958323D01*
X108256499Y-64958321D01*
X108241967Y-64885264D01*
X108241966Y-64885260D01*
X108231124Y-64869034D01*
X108186601Y-64802399D01*
X108107033Y-64749234D01*
X108103739Y-64747033D01*
X108103735Y-64747032D01*
X108030677Y-64732500D01*
X108030674Y-64732500D01*
X107081326Y-64732500D01*
X107081323Y-64732500D01*
X107008264Y-64747032D01*
X107008260Y-64747033D01*
X106925399Y-64802399D01*
X106870033Y-64885260D01*
X106870032Y-64885264D01*
X106855500Y-64958321D01*
X106855500Y-66507678D01*
X106870032Y-66580735D01*
X106870033Y-66580739D01*
X106871503Y-66582939D01*
X106925399Y-66663601D01*
X107004731Y-66716608D01*
X107008260Y-66718966D01*
X107008264Y-66718967D01*
X107081321Y-66733499D01*
X107081324Y-66733500D01*
X107081326Y-66733500D01*
X107105500Y-66733500D01*
X107172539Y-66753185D01*
X107218294Y-66805989D01*
X107229500Y-66857500D01*
X107229500Y-67054992D01*
X107209815Y-67122031D01*
X107157011Y-67167786D01*
X107118754Y-67178282D01*
X107085016Y-67181908D01*
X106950171Y-67232202D01*
X106950164Y-67232206D01*
X106834955Y-67318452D01*
X106834952Y-67318455D01*
X106748706Y-67433664D01*
X106748702Y-67433671D01*
X106698408Y-67568517D01*
X106692157Y-67626666D01*
X106692001Y-67628123D01*
X106692000Y-67628135D01*
X106692000Y-69023870D01*
X106692001Y-69023876D01*
X106698408Y-69083483D01*
X106748702Y-69218328D01*
X106748706Y-69218335D01*
X106834952Y-69333544D01*
X106834955Y-69333547D01*
X106950164Y-69419793D01*
X106950171Y-69419797D01*
X107085016Y-69470091D01*
X107118757Y-69473719D01*
X107183307Y-69500457D01*
X107223155Y-69557850D01*
X107229500Y-69597008D01*
X107229500Y-69733500D01*
X107209815Y-69800539D01*
X107157011Y-69846294D01*
X107105500Y-69857500D01*
X101754500Y-69857500D01*
X101687461Y-69837815D01*
X101641706Y-69785011D01*
X101630500Y-69733500D01*
X101630500Y-69597007D01*
X101650185Y-69529968D01*
X101702989Y-69484213D01*
X101741247Y-69473717D01*
X101774983Y-69470091D01*
X101909831Y-69419796D01*
X102025046Y-69333546D01*
X102111296Y-69218331D01*
X102161591Y-69083483D01*
X102168000Y-69023873D01*
X102167999Y-68451000D01*
X103467500Y-68451000D01*
X103467500Y-69023844D01*
X103473901Y-69083372D01*
X103473903Y-69083379D01*
X103524145Y-69218086D01*
X103524149Y-69218093D01*
X103610309Y-69333187D01*
X103610312Y-69333190D01*
X103725406Y-69419350D01*
X103725413Y-69419354D01*
X103860120Y-69469596D01*
X103860127Y-69469598D01*
X103919655Y-69475999D01*
X103919672Y-69476000D01*
X104255000Y-69476000D01*
X104255000Y-68451000D01*
X104505000Y-68451000D01*
X104505000Y-69476000D01*
X104840328Y-69476000D01*
X104840344Y-69475999D01*
X104899872Y-69469598D01*
X104899879Y-69469596D01*
X105034586Y-69419354D01*
X105034593Y-69419350D01*
X105149687Y-69333190D01*
X105149690Y-69333187D01*
X105235850Y-69218093D01*
X105235854Y-69218086D01*
X105286096Y-69083379D01*
X105286098Y-69083372D01*
X105292499Y-69023844D01*
X105292500Y-69023827D01*
X105292500Y-68451000D01*
X104505000Y-68451000D01*
X104255000Y-68451000D01*
X103467500Y-68451000D01*
X102167999Y-68451000D01*
X102167999Y-68201000D01*
X103467500Y-68201000D01*
X104255000Y-68201000D01*
X104255000Y-67176000D01*
X104505000Y-67176000D01*
X104505000Y-68201000D01*
X105292500Y-68201000D01*
X105292500Y-67628172D01*
X105292499Y-67628155D01*
X105286098Y-67568627D01*
X105286096Y-67568620D01*
X105235854Y-67433913D01*
X105235850Y-67433906D01*
X105149690Y-67318812D01*
X105149687Y-67318809D01*
X105034593Y-67232649D01*
X105034586Y-67232645D01*
X104899879Y-67182403D01*
X104899872Y-67182401D01*
X104840344Y-67176000D01*
X104505000Y-67176000D01*
X104255000Y-67176000D01*
X103919655Y-67176000D01*
X103860127Y-67182401D01*
X103860120Y-67182403D01*
X103725413Y-67232645D01*
X103725406Y-67232649D01*
X103610312Y-67318809D01*
X103610309Y-67318812D01*
X103524149Y-67433906D01*
X103524145Y-67433913D01*
X103473903Y-67568620D01*
X103473901Y-67568627D01*
X103467500Y-67628155D01*
X103467500Y-68201000D01*
X102167999Y-68201000D01*
X102167999Y-67628128D01*
X102161591Y-67568517D01*
X102131505Y-67487853D01*
X102111297Y-67433671D01*
X102111293Y-67433664D01*
X102025047Y-67318455D01*
X102025044Y-67318452D01*
X101909835Y-67232206D01*
X101909828Y-67232202D01*
X101774983Y-67181908D01*
X101741243Y-67178281D01*
X101676693Y-67151543D01*
X101636845Y-67094150D01*
X101630500Y-67054992D01*
X101630500Y-66845244D01*
X101650185Y-66778205D01*
X101702989Y-66732450D01*
X101730305Y-66723627D01*
X101753740Y-66718966D01*
X101836601Y-66663601D01*
X101891966Y-66580740D01*
X101906499Y-66507678D01*
X103805500Y-66507678D01*
X103820032Y-66580735D01*
X103820033Y-66580739D01*
X103821503Y-66582939D01*
X103875399Y-66663601D01*
X103954731Y-66716608D01*
X103958260Y-66718966D01*
X103958264Y-66718967D01*
X104031321Y-66733499D01*
X104031324Y-66733500D01*
X104031326Y-66733500D01*
X104980676Y-66733500D01*
X104980677Y-66733499D01*
X105053740Y-66718966D01*
X105136601Y-66663601D01*
X105191966Y-66580740D01*
X105206500Y-66507674D01*
X105206500Y-64958326D01*
X105206500Y-64958323D01*
X105206499Y-64958321D01*
X105191967Y-64885264D01*
X105191966Y-64885260D01*
X105181124Y-64869034D01*
X105136601Y-64802399D01*
X105057033Y-64749234D01*
X105053739Y-64747033D01*
X105053736Y-64747032D01*
X104981308Y-64732625D01*
X104919397Y-64700240D01*
X104884823Y-64639523D01*
X104881500Y-64611008D01*
X104881500Y-64089899D01*
X104901185Y-64022860D01*
X104917819Y-64002218D01*
X107050218Y-61869819D01*
X107111541Y-61836334D01*
X107137899Y-61833500D01*
X108030676Y-61833500D01*
X108030677Y-61833499D01*
X108103740Y-61818966D01*
X108186601Y-61763601D01*
X108241966Y-61680740D01*
X108256500Y-61607674D01*
X108256500Y-60958000D01*
X110156000Y-60958000D01*
X110156000Y-61607628D01*
X110170503Y-61680540D01*
X110170505Y-61680544D01*
X110225760Y-61763239D01*
X110308455Y-61818494D01*
X110308459Y-61818496D01*
X110381371Y-61832999D01*
X110381374Y-61833000D01*
X110731000Y-61833000D01*
X110731000Y-60958000D01*
X110981000Y-60958000D01*
X110981000Y-61833000D01*
X111330626Y-61833000D01*
X111330628Y-61832999D01*
X111403540Y-61818496D01*
X111403544Y-61818494D01*
X111486239Y-61763239D01*
X111541494Y-61680544D01*
X111541496Y-61680540D01*
X111555999Y-61607628D01*
X111556000Y-61607626D01*
X111556000Y-60958000D01*
X110981000Y-60958000D01*
X110731000Y-60958000D01*
X110156000Y-60958000D01*
X108256500Y-60958000D01*
X108256500Y-60708000D01*
X110156000Y-60708000D01*
X110731000Y-60708000D01*
X110731000Y-59833000D01*
X110981000Y-59833000D01*
X110981000Y-60708000D01*
X111556000Y-60708000D01*
X111556000Y-60058373D01*
X111555999Y-60058371D01*
X111541496Y-59985459D01*
X111541494Y-59985455D01*
X111486239Y-59902760D01*
X111403544Y-59847505D01*
X111403540Y-59847503D01*
X111330627Y-59833000D01*
X110981000Y-59833000D01*
X110731000Y-59833000D01*
X110381373Y-59833000D01*
X110308459Y-59847503D01*
X110308455Y-59847505D01*
X110225760Y-59902760D01*
X110170505Y-59985455D01*
X110170503Y-59985459D01*
X110156000Y-60058371D01*
X110156000Y-60708000D01*
X108256500Y-60708000D01*
X108256500Y-60058326D01*
X108256500Y-60058323D01*
X108256499Y-60058321D01*
X108241967Y-59985264D01*
X108241966Y-59985260D01*
X108239905Y-59982176D01*
X108186601Y-59902399D01*
X108107033Y-59849234D01*
X108103739Y-59847033D01*
X108103735Y-59847032D01*
X108030677Y-59832500D01*
X108030674Y-59832500D01*
X107081326Y-59832500D01*
X107081323Y-59832500D01*
X107008264Y-59847032D01*
X107008260Y-59847033D01*
X106925399Y-59902399D01*
X106870033Y-59985260D01*
X106870032Y-59985264D01*
X106855500Y-60058321D01*
X106855500Y-60951101D01*
X106835815Y-61018140D01*
X106819181Y-61038782D01*
X104205526Y-63652436D01*
X104156091Y-63738059D01*
X104156091Y-63738060D01*
X104156090Y-63738062D01*
X104130500Y-63833565D01*
X104130500Y-63833567D01*
X104130500Y-64611008D01*
X104110815Y-64678047D01*
X104058011Y-64723802D01*
X104030692Y-64732625D01*
X103958263Y-64747032D01*
X103958260Y-64747033D01*
X103875399Y-64802399D01*
X103820033Y-64885260D01*
X103820032Y-64885264D01*
X103805500Y-64958321D01*
X103805500Y-66507678D01*
X101906499Y-66507678D01*
X101906500Y-66507674D01*
X101906500Y-64958326D01*
X101906500Y-64958323D01*
X101906499Y-64958321D01*
X101891967Y-64885264D01*
X101891966Y-64885260D01*
X101881124Y-64869034D01*
X101836601Y-64802399D01*
X101757033Y-64749234D01*
X101753739Y-64747033D01*
X101753735Y-64747032D01*
X101680677Y-64732500D01*
X101680674Y-64732500D01*
X100731326Y-64732500D01*
X100731323Y-64732500D01*
X100658264Y-64747032D01*
X100658260Y-64747033D01*
X100575399Y-64802399D01*
X100520033Y-64885260D01*
X100520032Y-64885264D01*
X100505500Y-64958321D01*
X100505500Y-66507678D01*
X100520032Y-66580735D01*
X100520033Y-66580739D01*
X100521503Y-66582939D01*
X100575399Y-66663601D01*
X100654731Y-66716608D01*
X100658260Y-66718966D01*
X100658264Y-66718967D01*
X100731321Y-66733499D01*
X100731324Y-66733500D01*
X100731326Y-66733500D01*
X100755500Y-66733500D01*
X100822539Y-66753185D01*
X100868294Y-66805989D01*
X100879500Y-66857500D01*
X100879500Y-67054992D01*
X100859815Y-67122031D01*
X100807011Y-67167786D01*
X100768754Y-67178282D01*
X100735016Y-67181908D01*
X100600171Y-67232202D01*
X100600164Y-67232206D01*
X100484955Y-67318452D01*
X100484952Y-67318455D01*
X100398706Y-67433664D01*
X100398702Y-67433671D01*
X100348408Y-67568517D01*
X100342157Y-67626666D01*
X100342001Y-67628123D01*
X100342000Y-67628135D01*
X100342000Y-69023870D01*
X100342001Y-69023876D01*
X100348408Y-69083483D01*
X100398702Y-69218328D01*
X100398706Y-69218335D01*
X100484952Y-69333544D01*
X100484955Y-69333547D01*
X100600164Y-69419793D01*
X100600171Y-69419797D01*
X100735016Y-69470091D01*
X100768757Y-69473719D01*
X100833307Y-69500457D01*
X100873155Y-69557850D01*
X100879500Y-69597008D01*
X100879500Y-69733500D01*
X100859815Y-69800539D01*
X100807011Y-69846294D01*
X100755500Y-69857500D01*
X95404500Y-69857500D01*
X95337461Y-69837815D01*
X95291706Y-69785011D01*
X95280500Y-69733500D01*
X95280500Y-69597007D01*
X95300185Y-69529968D01*
X95352989Y-69484213D01*
X95391247Y-69473717D01*
X95424983Y-69470091D01*
X95559831Y-69419796D01*
X95675046Y-69333546D01*
X95761296Y-69218331D01*
X95811591Y-69083483D01*
X95818000Y-69023873D01*
X95817999Y-68451000D01*
X97117500Y-68451000D01*
X97117500Y-69023844D01*
X97123901Y-69083372D01*
X97123903Y-69083379D01*
X97174145Y-69218086D01*
X97174149Y-69218093D01*
X97260309Y-69333187D01*
X97260312Y-69333190D01*
X97375406Y-69419350D01*
X97375413Y-69419354D01*
X97510120Y-69469596D01*
X97510127Y-69469598D01*
X97569655Y-69475999D01*
X97569672Y-69476000D01*
X97905000Y-69476000D01*
X97905000Y-68451000D01*
X98155000Y-68451000D01*
X98155000Y-69476000D01*
X98490328Y-69476000D01*
X98490344Y-69475999D01*
X98549872Y-69469598D01*
X98549879Y-69469596D01*
X98684586Y-69419354D01*
X98684593Y-69419350D01*
X98799687Y-69333190D01*
X98799690Y-69333187D01*
X98885850Y-69218093D01*
X98885854Y-69218086D01*
X98936096Y-69083379D01*
X98936098Y-69083372D01*
X98942499Y-69023844D01*
X98942500Y-69023827D01*
X98942500Y-68451000D01*
X98155000Y-68451000D01*
X97905000Y-68451000D01*
X97117500Y-68451000D01*
X95817999Y-68451000D01*
X95817999Y-68201000D01*
X97117500Y-68201000D01*
X97905000Y-68201000D01*
X97905000Y-67176000D01*
X98155000Y-67176000D01*
X98155000Y-68201000D01*
X98942500Y-68201000D01*
X98942500Y-67628172D01*
X98942499Y-67628155D01*
X98936098Y-67568627D01*
X98936096Y-67568620D01*
X98885854Y-67433913D01*
X98885850Y-67433906D01*
X98799690Y-67318812D01*
X98799687Y-67318809D01*
X98684593Y-67232649D01*
X98684586Y-67232645D01*
X98549879Y-67182403D01*
X98549872Y-67182401D01*
X98490344Y-67176000D01*
X98155000Y-67176000D01*
X97905000Y-67176000D01*
X97569655Y-67176000D01*
X97510127Y-67182401D01*
X97510120Y-67182403D01*
X97375413Y-67232645D01*
X97375406Y-67232649D01*
X97260312Y-67318809D01*
X97260309Y-67318812D01*
X97174149Y-67433906D01*
X97174145Y-67433913D01*
X97123903Y-67568620D01*
X97123901Y-67568627D01*
X97117500Y-67628155D01*
X97117500Y-68201000D01*
X95817999Y-68201000D01*
X95817999Y-67628128D01*
X95811591Y-67568517D01*
X95781505Y-67487853D01*
X95761297Y-67433671D01*
X95761293Y-67433664D01*
X95675047Y-67318455D01*
X95675044Y-67318452D01*
X95559835Y-67232206D01*
X95559828Y-67232202D01*
X95424983Y-67181908D01*
X95391243Y-67178281D01*
X95326693Y-67151543D01*
X95286845Y-67094150D01*
X95280500Y-67054992D01*
X95280500Y-66845244D01*
X95300185Y-66778205D01*
X95352989Y-66732450D01*
X95380305Y-66723627D01*
X95403740Y-66718966D01*
X95486601Y-66663601D01*
X95541966Y-66580740D01*
X95556499Y-66507678D01*
X97455500Y-66507678D01*
X97470032Y-66580735D01*
X97470033Y-66580739D01*
X97471503Y-66582939D01*
X97525399Y-66663601D01*
X97604731Y-66716608D01*
X97608260Y-66718966D01*
X97608264Y-66718967D01*
X97681321Y-66733499D01*
X97681324Y-66733500D01*
X97681326Y-66733500D01*
X98630676Y-66733500D01*
X98630677Y-66733499D01*
X98703740Y-66718966D01*
X98786601Y-66663601D01*
X98841966Y-66580740D01*
X98856500Y-66507674D01*
X98856500Y-64958326D01*
X98856500Y-64958323D01*
X98856499Y-64958321D01*
X98841967Y-64885264D01*
X98841966Y-64885260D01*
X98831124Y-64869034D01*
X98786601Y-64802399D01*
X98707033Y-64749234D01*
X98703739Y-64747033D01*
X98703736Y-64747032D01*
X98631308Y-64732625D01*
X98569397Y-64700240D01*
X98534823Y-64639523D01*
X98531500Y-64611008D01*
X98531500Y-64089899D01*
X98551185Y-64022860D01*
X98567819Y-64002218D01*
X100700218Y-61869819D01*
X100761541Y-61836334D01*
X100787899Y-61833500D01*
X101680676Y-61833500D01*
X101680677Y-61833499D01*
X101753740Y-61818966D01*
X101836601Y-61763601D01*
X101891966Y-61680740D01*
X101906500Y-61607674D01*
X101906500Y-60958000D01*
X103806000Y-60958000D01*
X103806000Y-61607628D01*
X103820503Y-61680540D01*
X103820505Y-61680544D01*
X103875760Y-61763239D01*
X103958455Y-61818494D01*
X103958459Y-61818496D01*
X104031371Y-61832999D01*
X104031374Y-61833000D01*
X104381000Y-61833000D01*
X104381000Y-60958000D01*
X104631000Y-60958000D01*
X104631000Y-61833000D01*
X104980626Y-61833000D01*
X104980628Y-61832999D01*
X105053540Y-61818496D01*
X105053544Y-61818494D01*
X105136239Y-61763239D01*
X105191494Y-61680544D01*
X105191496Y-61680540D01*
X105205999Y-61607628D01*
X105206000Y-61607626D01*
X105206000Y-60958000D01*
X104631000Y-60958000D01*
X104381000Y-60958000D01*
X103806000Y-60958000D01*
X101906500Y-60958000D01*
X101906500Y-60708000D01*
X103806000Y-60708000D01*
X104381000Y-60708000D01*
X104381000Y-59833000D01*
X104631000Y-59833000D01*
X104631000Y-60708000D01*
X105206000Y-60708000D01*
X105206000Y-60058373D01*
X105205999Y-60058371D01*
X105191496Y-59985459D01*
X105191494Y-59985455D01*
X105136239Y-59902760D01*
X105053544Y-59847505D01*
X105053540Y-59847503D01*
X104980627Y-59833000D01*
X104631000Y-59833000D01*
X104381000Y-59833000D01*
X104031373Y-59833000D01*
X103958459Y-59847503D01*
X103958455Y-59847505D01*
X103875760Y-59902760D01*
X103820505Y-59985455D01*
X103820503Y-59985459D01*
X103806000Y-60058371D01*
X103806000Y-60708000D01*
X101906500Y-60708000D01*
X101906500Y-60058326D01*
X101906500Y-60058323D01*
X101906499Y-60058321D01*
X101891967Y-59985264D01*
X101891966Y-59985260D01*
X101889905Y-59982176D01*
X101836601Y-59902399D01*
X101757033Y-59849234D01*
X101753739Y-59847033D01*
X101753735Y-59847032D01*
X101680677Y-59832500D01*
X101680674Y-59832500D01*
X100731326Y-59832500D01*
X100731323Y-59832500D01*
X100658264Y-59847032D01*
X100658260Y-59847033D01*
X100575399Y-59902399D01*
X100520033Y-59985260D01*
X100520032Y-59985264D01*
X100505500Y-60058321D01*
X100505500Y-60951101D01*
X100485815Y-61018140D01*
X100469181Y-61038782D01*
X97855526Y-63652436D01*
X97806091Y-63738059D01*
X97806091Y-63738060D01*
X97806090Y-63738062D01*
X97780500Y-63833565D01*
X97780500Y-63833567D01*
X97780500Y-64611008D01*
X97760815Y-64678047D01*
X97708011Y-64723802D01*
X97680692Y-64732625D01*
X97608263Y-64747032D01*
X97608260Y-64747033D01*
X97525399Y-64802399D01*
X97470033Y-64885260D01*
X97470032Y-64885264D01*
X97455500Y-64958321D01*
X97455500Y-66507678D01*
X95556499Y-66507678D01*
X95556500Y-66507674D01*
X95556500Y-64958326D01*
X95556500Y-64958323D01*
X95556499Y-64958321D01*
X95541967Y-64885264D01*
X95541966Y-64885260D01*
X95531124Y-64869034D01*
X95486601Y-64802399D01*
X95407033Y-64749234D01*
X95403739Y-64747033D01*
X95403735Y-64747032D01*
X95330677Y-64732500D01*
X95330674Y-64732500D01*
X94381326Y-64732500D01*
X94381323Y-64732500D01*
X94308264Y-64747032D01*
X94308260Y-64747033D01*
X94225399Y-64802399D01*
X94170033Y-64885260D01*
X94170032Y-64885264D01*
X94155500Y-64958321D01*
X94155500Y-66507678D01*
X94170032Y-66580735D01*
X94170033Y-66580739D01*
X94171503Y-66582939D01*
X94225399Y-66663601D01*
X94304731Y-66716608D01*
X94308260Y-66718966D01*
X94308264Y-66718967D01*
X94381321Y-66733499D01*
X94381324Y-66733500D01*
X94381326Y-66733500D01*
X94405500Y-66733500D01*
X94472539Y-66753185D01*
X94518294Y-66805989D01*
X94529500Y-66857500D01*
X94529500Y-67054992D01*
X94509815Y-67122031D01*
X94457011Y-67167786D01*
X94418754Y-67178282D01*
X94385016Y-67181908D01*
X94250171Y-67232202D01*
X94250164Y-67232206D01*
X94134955Y-67318452D01*
X94134952Y-67318455D01*
X94048706Y-67433664D01*
X94048702Y-67433671D01*
X93998408Y-67568517D01*
X93992157Y-67626666D01*
X93992001Y-67628123D01*
X93992000Y-67628135D01*
X93992000Y-69023870D01*
X93992001Y-69023876D01*
X93998408Y-69083483D01*
X94048702Y-69218328D01*
X94048706Y-69218335D01*
X94134952Y-69333544D01*
X94134955Y-69333547D01*
X94250164Y-69419793D01*
X94250171Y-69419797D01*
X94385016Y-69470091D01*
X94418757Y-69473719D01*
X94483307Y-69500457D01*
X94523155Y-69557850D01*
X94529500Y-69597008D01*
X94529500Y-69733500D01*
X94509815Y-69800539D01*
X94457011Y-69846294D01*
X94405500Y-69857500D01*
X89054500Y-69857500D01*
X88987461Y-69837815D01*
X88941706Y-69785011D01*
X88930500Y-69733500D01*
X88930500Y-69597007D01*
X88950185Y-69529968D01*
X89002989Y-69484213D01*
X89041247Y-69473717D01*
X89074983Y-69470091D01*
X89209831Y-69419796D01*
X89325046Y-69333546D01*
X89411296Y-69218331D01*
X89461591Y-69083483D01*
X89468000Y-69023873D01*
X89467999Y-68451000D01*
X90767500Y-68451000D01*
X90767500Y-69023844D01*
X90773901Y-69083372D01*
X90773903Y-69083379D01*
X90824145Y-69218086D01*
X90824149Y-69218093D01*
X90910309Y-69333187D01*
X90910312Y-69333190D01*
X91025406Y-69419350D01*
X91025413Y-69419354D01*
X91160120Y-69469596D01*
X91160127Y-69469598D01*
X91219655Y-69475999D01*
X91219672Y-69476000D01*
X91555000Y-69476000D01*
X91555000Y-68451000D01*
X91805000Y-68451000D01*
X91805000Y-69476000D01*
X92140328Y-69476000D01*
X92140344Y-69475999D01*
X92199872Y-69469598D01*
X92199879Y-69469596D01*
X92334586Y-69419354D01*
X92334593Y-69419350D01*
X92449687Y-69333190D01*
X92449690Y-69333187D01*
X92535850Y-69218093D01*
X92535854Y-69218086D01*
X92586096Y-69083379D01*
X92586098Y-69083372D01*
X92592499Y-69023844D01*
X92592500Y-69023827D01*
X92592500Y-68451000D01*
X91805000Y-68451000D01*
X91555000Y-68451000D01*
X90767500Y-68451000D01*
X89467999Y-68451000D01*
X89467999Y-68201000D01*
X90767500Y-68201000D01*
X91555000Y-68201000D01*
X91555000Y-67176000D01*
X91805000Y-67176000D01*
X91805000Y-68201000D01*
X92592500Y-68201000D01*
X92592500Y-67628172D01*
X92592499Y-67628155D01*
X92586098Y-67568627D01*
X92586096Y-67568620D01*
X92535854Y-67433913D01*
X92535850Y-67433906D01*
X92449690Y-67318812D01*
X92449687Y-67318809D01*
X92334593Y-67232649D01*
X92334586Y-67232645D01*
X92199879Y-67182403D01*
X92199872Y-67182401D01*
X92140344Y-67176000D01*
X91805000Y-67176000D01*
X91555000Y-67176000D01*
X91219655Y-67176000D01*
X91160127Y-67182401D01*
X91160120Y-67182403D01*
X91025413Y-67232645D01*
X91025406Y-67232649D01*
X90910312Y-67318809D01*
X90910309Y-67318812D01*
X90824149Y-67433906D01*
X90824145Y-67433913D01*
X90773903Y-67568620D01*
X90773901Y-67568627D01*
X90767500Y-67628155D01*
X90767500Y-68201000D01*
X89467999Y-68201000D01*
X89467999Y-67628128D01*
X89461591Y-67568517D01*
X89431505Y-67487853D01*
X89411297Y-67433671D01*
X89411293Y-67433664D01*
X89325047Y-67318455D01*
X89325044Y-67318452D01*
X89209835Y-67232206D01*
X89209828Y-67232202D01*
X89074983Y-67181908D01*
X89041243Y-67178281D01*
X88976693Y-67151543D01*
X88936845Y-67094150D01*
X88930500Y-67054992D01*
X88930500Y-66847444D01*
X88950185Y-66780405D01*
X89002989Y-66734650D01*
X89030305Y-66725827D01*
X89053740Y-66721166D01*
X89136601Y-66665801D01*
X89191966Y-66582940D01*
X89206499Y-66509878D01*
X91105500Y-66509878D01*
X91120032Y-66582935D01*
X91120033Y-66582939D01*
X91120034Y-66582940D01*
X91175399Y-66665801D01*
X91251438Y-66716608D01*
X91258260Y-66721166D01*
X91258264Y-66721167D01*
X91331321Y-66735699D01*
X91331324Y-66735700D01*
X91331326Y-66735700D01*
X92280676Y-66735700D01*
X92280677Y-66735699D01*
X92353740Y-66721166D01*
X92436601Y-66665801D01*
X92491966Y-66582940D01*
X92506500Y-66509874D01*
X92506500Y-64960526D01*
X92506500Y-64960523D01*
X92506499Y-64960521D01*
X92491967Y-64887464D01*
X92491966Y-64887460D01*
X92479654Y-64869034D01*
X92436601Y-64804599D01*
X92353740Y-64749234D01*
X92353739Y-64749233D01*
X92353736Y-64749232D01*
X92281308Y-64734825D01*
X92219397Y-64702440D01*
X92184823Y-64641723D01*
X92181500Y-64613208D01*
X92181500Y-64089899D01*
X92201185Y-64022860D01*
X92217819Y-64002218D01*
X94350218Y-61869819D01*
X94411541Y-61836334D01*
X94437899Y-61833500D01*
X95330676Y-61833500D01*
X95330677Y-61833499D01*
X95403740Y-61818966D01*
X95486601Y-61763601D01*
X95541966Y-61680740D01*
X95556500Y-61607674D01*
X95556500Y-60958000D01*
X97456000Y-60958000D01*
X97456000Y-61607628D01*
X97470503Y-61680540D01*
X97470505Y-61680544D01*
X97525760Y-61763239D01*
X97608455Y-61818494D01*
X97608459Y-61818496D01*
X97681371Y-61832999D01*
X97681374Y-61833000D01*
X98031000Y-61833000D01*
X98031000Y-60958000D01*
X98281000Y-60958000D01*
X98281000Y-61833000D01*
X98630626Y-61833000D01*
X98630628Y-61832999D01*
X98703540Y-61818496D01*
X98703544Y-61818494D01*
X98786239Y-61763239D01*
X98841494Y-61680544D01*
X98841496Y-61680540D01*
X98855999Y-61607628D01*
X98856000Y-61607626D01*
X98856000Y-60958000D01*
X98281000Y-60958000D01*
X98031000Y-60958000D01*
X97456000Y-60958000D01*
X95556500Y-60958000D01*
X95556500Y-60708000D01*
X97456000Y-60708000D01*
X98031000Y-60708000D01*
X98031000Y-59833000D01*
X98281000Y-59833000D01*
X98281000Y-60708000D01*
X98856000Y-60708000D01*
X98856000Y-60058373D01*
X98855999Y-60058371D01*
X98841496Y-59985459D01*
X98841494Y-59985455D01*
X98786239Y-59902760D01*
X98703544Y-59847505D01*
X98703540Y-59847503D01*
X98630627Y-59833000D01*
X98281000Y-59833000D01*
X98031000Y-59833000D01*
X97681373Y-59833000D01*
X97608459Y-59847503D01*
X97608455Y-59847505D01*
X97525760Y-59902760D01*
X97470505Y-59985455D01*
X97470503Y-59985459D01*
X97456000Y-60058371D01*
X97456000Y-60708000D01*
X95556500Y-60708000D01*
X95556500Y-60058326D01*
X95556500Y-60058323D01*
X95556499Y-60058321D01*
X95541967Y-59985264D01*
X95541966Y-59985260D01*
X95539905Y-59982176D01*
X95486601Y-59902399D01*
X95407033Y-59849234D01*
X95403739Y-59847033D01*
X95403735Y-59847032D01*
X95330677Y-59832500D01*
X95330674Y-59832500D01*
X94381326Y-59832500D01*
X94381323Y-59832500D01*
X94308264Y-59847032D01*
X94308260Y-59847033D01*
X94225399Y-59902399D01*
X94170033Y-59985260D01*
X94170032Y-59985264D01*
X94155500Y-60058321D01*
X94155500Y-60951101D01*
X94135815Y-61018140D01*
X94119181Y-61038782D01*
X91505526Y-63652436D01*
X91456091Y-63738059D01*
X91456091Y-63738060D01*
X91456090Y-63738062D01*
X91430500Y-63833565D01*
X91430500Y-63833567D01*
X91430500Y-64613208D01*
X91410815Y-64680247D01*
X91358011Y-64726002D01*
X91330692Y-64734825D01*
X91258263Y-64749232D01*
X91258260Y-64749233D01*
X91175399Y-64804599D01*
X91120033Y-64887460D01*
X91120032Y-64887464D01*
X91105500Y-64960521D01*
X91105500Y-66509878D01*
X89206499Y-66509878D01*
X89206500Y-66509874D01*
X89206500Y-64960526D01*
X89206500Y-64960523D01*
X89206499Y-64960521D01*
X89191967Y-64887464D01*
X89191966Y-64887460D01*
X89179654Y-64869034D01*
X89136601Y-64804599D01*
X89053740Y-64749234D01*
X89053739Y-64749233D01*
X89053735Y-64749232D01*
X88980677Y-64734700D01*
X88980674Y-64734700D01*
X88031326Y-64734700D01*
X88031323Y-64734700D01*
X87958264Y-64749232D01*
X87958260Y-64749233D01*
X87875399Y-64804599D01*
X87820033Y-64887460D01*
X87820032Y-64887464D01*
X87805500Y-64960521D01*
X87805500Y-66509878D01*
X87820032Y-66582935D01*
X87820033Y-66582939D01*
X87820034Y-66582940D01*
X87875399Y-66665801D01*
X87951438Y-66716608D01*
X87958260Y-66721166D01*
X87958264Y-66721167D01*
X88031321Y-66735699D01*
X88031324Y-66735700D01*
X88031326Y-66735700D01*
X88055500Y-66735700D01*
X88122539Y-66755385D01*
X88168294Y-66808189D01*
X88179500Y-66859700D01*
X88179500Y-67054992D01*
X88159815Y-67122031D01*
X88107011Y-67167786D01*
X88068754Y-67178282D01*
X88035016Y-67181908D01*
X87900171Y-67232202D01*
X87900164Y-67232206D01*
X87784955Y-67318452D01*
X87784952Y-67318455D01*
X87698706Y-67433664D01*
X87698702Y-67433671D01*
X87648408Y-67568517D01*
X87642157Y-67626666D01*
X87642001Y-67628123D01*
X87642000Y-67628135D01*
X87642000Y-69023870D01*
X87642001Y-69023876D01*
X87648408Y-69083483D01*
X87698702Y-69218328D01*
X87698706Y-69218335D01*
X87784952Y-69333544D01*
X87784955Y-69333547D01*
X87900164Y-69419793D01*
X87900171Y-69419797D01*
X88035016Y-69470091D01*
X88068757Y-69473719D01*
X88133307Y-69500457D01*
X88173155Y-69557850D01*
X88179500Y-69597008D01*
X88179500Y-69733500D01*
X88159815Y-69800539D01*
X88107011Y-69846294D01*
X88055500Y-69857500D01*
X86618676Y-69857500D01*
X86551637Y-69837815D01*
X86530995Y-69821181D01*
X83492316Y-66782502D01*
X83492314Y-66782500D01*
X83420375Y-66740966D01*
X83378187Y-66716608D01*
X83322399Y-66701660D01*
X83250892Y-66682500D01*
X83250891Y-66682500D01*
X83243042Y-66680397D01*
X83243444Y-66678893D01*
X83187999Y-66654357D01*
X83180412Y-66647375D01*
X82730946Y-66197909D01*
X82697461Y-66136586D01*
X82702445Y-66066894D01*
X82744317Y-66010961D01*
X82809781Y-65986544D01*
X82848304Y-65989832D01*
X82849036Y-65990012D01*
X82851013Y-65990499D01*
X82851014Y-65990500D01*
X82851015Y-65990500D01*
X83008985Y-65990500D01*
X83162365Y-65952696D01*
X83302240Y-65879283D01*
X83420483Y-65774530D01*
X83510220Y-65644523D01*
X83566237Y-65496818D01*
X83581530Y-65370870D01*
X83950500Y-65370870D01*
X83950501Y-65370876D01*
X83956908Y-65430483D01*
X84007202Y-65565328D01*
X84007206Y-65565335D01*
X84093452Y-65680544D01*
X84093455Y-65680547D01*
X84208664Y-65766793D01*
X84208671Y-65766797D01*
X84343517Y-65817091D01*
X84343516Y-65817091D01*
X84350444Y-65817835D01*
X84403127Y-65823500D01*
X85748872Y-65823499D01*
X85808483Y-65817091D01*
X85943331Y-65766796D01*
X86058546Y-65680546D01*
X86144796Y-65565331D01*
X86195091Y-65430483D01*
X86197375Y-65409243D01*
X86224114Y-65344692D01*
X86281507Y-65304845D01*
X86320664Y-65298500D01*
X86750435Y-65298500D01*
X86750436Y-65298500D01*
X86798186Y-65285705D01*
X86845938Y-65272910D01*
X86931562Y-65223475D01*
X87001475Y-65153562D01*
X88806474Y-63348563D01*
X88847738Y-63277092D01*
X88847739Y-63277091D01*
X88855909Y-63262940D01*
X88855910Y-63262937D01*
X88881500Y-63167435D01*
X88881500Y-61957191D01*
X88901185Y-61890152D01*
X88953989Y-61844397D01*
X88981309Y-61835574D01*
X89053735Y-61821167D01*
X89053735Y-61821166D01*
X89053740Y-61821166D01*
X89136601Y-61765801D01*
X89191966Y-61682940D01*
X89206500Y-61609874D01*
X89206500Y-60960200D01*
X91106000Y-60960200D01*
X91106000Y-61609828D01*
X91120503Y-61682740D01*
X91120505Y-61682744D01*
X91175760Y-61765439D01*
X91258455Y-61820694D01*
X91258459Y-61820696D01*
X91331371Y-61835199D01*
X91331374Y-61835200D01*
X91681000Y-61835200D01*
X91681000Y-60960200D01*
X91931000Y-60960200D01*
X91931000Y-61835200D01*
X92280626Y-61835200D01*
X92280628Y-61835199D01*
X92353540Y-61820696D01*
X92353544Y-61820694D01*
X92436239Y-61765439D01*
X92491494Y-61682744D01*
X92491496Y-61682740D01*
X92505999Y-61609828D01*
X92506000Y-61609826D01*
X92506000Y-60960200D01*
X91931000Y-60960200D01*
X91681000Y-60960200D01*
X91106000Y-60960200D01*
X89206500Y-60960200D01*
X89206500Y-60710200D01*
X91106000Y-60710200D01*
X91681000Y-60710200D01*
X91681000Y-59835200D01*
X91931000Y-59835200D01*
X91931000Y-60710200D01*
X92506000Y-60710200D01*
X92506000Y-60060573D01*
X92505999Y-60060571D01*
X92491496Y-59987659D01*
X92491494Y-59987655D01*
X92436239Y-59904960D01*
X92353544Y-59849705D01*
X92353540Y-59849703D01*
X92280627Y-59835200D01*
X91931000Y-59835200D01*
X91681000Y-59835200D01*
X91331373Y-59835200D01*
X91258459Y-59849703D01*
X91258455Y-59849705D01*
X91175760Y-59904960D01*
X91120505Y-59987655D01*
X91120503Y-59987659D01*
X91106000Y-60060571D01*
X91106000Y-60710200D01*
X89206500Y-60710200D01*
X89206500Y-60060526D01*
X89206500Y-60060523D01*
X89206499Y-60060521D01*
X89191967Y-59987464D01*
X89191966Y-59987460D01*
X89188435Y-59982176D01*
X89136601Y-59904599D01*
X89053740Y-59849234D01*
X89053739Y-59849233D01*
X89053735Y-59849232D01*
X88980677Y-59834700D01*
X88980674Y-59834700D01*
X88031326Y-59834700D01*
X88031323Y-59834700D01*
X87958264Y-59849232D01*
X87958260Y-59849233D01*
X87875399Y-59904599D01*
X87820033Y-59987460D01*
X87820032Y-59987464D01*
X87805500Y-60060521D01*
X87805500Y-61609878D01*
X87820032Y-61682935D01*
X87820033Y-61682939D01*
X87838405Y-61710435D01*
X87875399Y-61765801D01*
X87954261Y-61818494D01*
X87958260Y-61821166D01*
X87958264Y-61821167D01*
X88030691Y-61835574D01*
X88092602Y-61867959D01*
X88127176Y-61928674D01*
X88130500Y-61957191D01*
X88130500Y-62911101D01*
X88110815Y-62978140D01*
X88094181Y-62998782D01*
X86581782Y-64511181D01*
X86520459Y-64544666D01*
X86494101Y-64547500D01*
X86320664Y-64547500D01*
X86253625Y-64527815D01*
X86207870Y-64475011D01*
X86197374Y-64436754D01*
X86197170Y-64434857D01*
X86195091Y-64415517D01*
X86144796Y-64280669D01*
X86144795Y-64280668D01*
X86144793Y-64280664D01*
X86058547Y-64165455D01*
X86058544Y-64165452D01*
X85943335Y-64079206D01*
X85943328Y-64079202D01*
X85808482Y-64028908D01*
X85808483Y-64028908D01*
X85748883Y-64022501D01*
X85748881Y-64022500D01*
X85748873Y-64022500D01*
X85748864Y-64022500D01*
X84403129Y-64022500D01*
X84403123Y-64022501D01*
X84343516Y-64028908D01*
X84208671Y-64079202D01*
X84208664Y-64079206D01*
X84093455Y-64165452D01*
X84093452Y-64165455D01*
X84007206Y-64280664D01*
X84007202Y-64280671D01*
X83956908Y-64415517D01*
X83950501Y-64475116D01*
X83950500Y-64475135D01*
X83950500Y-65370870D01*
X83581530Y-65370870D01*
X83585278Y-65340000D01*
X83581010Y-65304845D01*
X83566237Y-65183181D01*
X83527229Y-65080326D01*
X83510220Y-65035477D01*
X83420483Y-64905470D01*
X83420481Y-64905468D01*
X83347273Y-64840611D01*
X83310146Y-64781422D01*
X83305500Y-64747796D01*
X83305500Y-64175898D01*
X83325185Y-64108859D01*
X83341814Y-64088222D01*
X84670218Y-62759817D01*
X84731541Y-62726333D01*
X84757899Y-62723499D01*
X85748871Y-62723499D01*
X85748872Y-62723499D01*
X85808483Y-62717091D01*
X85943331Y-62666796D01*
X86058546Y-62580546D01*
X86144796Y-62465331D01*
X86195091Y-62330483D01*
X86201500Y-62270873D01*
X86201499Y-61375128D01*
X86195091Y-61315517D01*
X86144796Y-61180669D01*
X86144795Y-61180668D01*
X86144793Y-61180664D01*
X86058547Y-61065455D01*
X86058544Y-61065452D01*
X85943335Y-60979206D01*
X85943328Y-60979202D01*
X85808482Y-60928908D01*
X85800938Y-60927126D01*
X85801556Y-60924510D01*
X85748915Y-60902693D01*
X85709078Y-60845293D01*
X85706598Y-60775467D01*
X85739057Y-60718478D01*
X91472820Y-54984715D01*
X91534141Y-54951232D01*
X91553003Y-54948625D01*
X91820642Y-54932436D01*
X92147941Y-54872456D01*
X92465623Y-54773463D01*
X92769057Y-54636898D01*
X93053818Y-54464754D01*
X93054351Y-54464337D01*
X93187855Y-54359743D01*
X93315752Y-54259542D01*
X93551042Y-54024252D01*
X93756254Y-53762318D01*
X93928398Y-53477557D01*
X94064963Y-53174123D01*
X94163956Y-52856441D01*
X94223936Y-52529142D01*
X94244027Y-52197000D01*
X94223936Y-51864858D01*
X94163956Y-51537559D01*
X94115124Y-51380851D01*
X94064969Y-51219895D01*
X94064967Y-51219890D01*
X94064963Y-51219877D01*
X93928398Y-50916443D01*
X93756254Y-50631682D01*
X93756251Y-50631678D01*
X93756248Y-50631673D01*
X93551039Y-50369744D01*
X93315755Y-50134460D01*
X93053826Y-49929251D01*
X93053818Y-49929246D01*
X92769057Y-49757102D01*
X92465623Y-49620537D01*
X92397743Y-49599385D01*
X92339597Y-49560648D01*
X92311623Y-49496623D01*
X92322704Y-49427638D01*
X92369323Y-49375594D01*
X92434635Y-49357000D01*
X101972365Y-49357000D01*
X102039404Y-49376685D01*
G37*
G04 #@! TD.AperFunction*
M02*
