M48
; DRILL file {KiCad 9.0.0} date 2025-06-19T17:56:10+0100
; FORMAT={-:-/ absolute / metric / decimal}
; #@! TF.CreationDate,2025-06-19T17:56:10+01:00
; #@! TF.GenerationSoftware,Kicad,Pcbnew,9.0.0
; #@! TF.FileFunction,Plated,1,2,PTH
FMAT,2
METRIC
; #@! TA.AperFunction,Plated,PTH,ViaDrill
T1C0.400
; #@! TA.AperFunction,Plated,PTH,ComponentDrill
T2C0.600
; #@! TA.AperFunction,Plated,PTH,ComponentDrill
T3C4.000
%
G90
G05
T1
X54.015Y-64.315
X62.14Y-56.315
X62.265Y-72.315
X64.265Y-42.065
X70.015Y-64.315
X82.765Y-78.315
X84.015Y-78.315
X85.265Y-81.94
X85.515Y-67.815
X85.515Y-73.065
X86.515Y-76.565
X86.515Y-81.94
X87.765Y-73.065
X87.765Y-81.94
X88.265Y-61.815
X89.015Y-81.94
X90.333Y-73.065
X91.64Y-73.065
X96.265Y-61.815
X97.64Y-74.565
X97.64Y-80.315
X104.265Y-61.815
X108.43Y-74.23
X112.265Y-61.815
X120.265Y-61.815
X128.765Y-69.94
X138.015Y-68.315
X139.765Y-59.94
X144.14Y-42.065
X146.015Y-60.315
T3
X74.265Y-40.565
X74.265Y-82.565
X82.675Y-47.565
X92.835Y-47.565
X104.265Y-47.565
X115.695Y-47.565
X125.855Y-47.565
X134.265Y-40.565
X134.265Y-82.565
T2
G00X63.465Y-37.565
M15
G01X65.065Y-37.565
M16
G05
G00X143.465Y-37.565
M15
G01X145.065Y-37.565
M16
G05
M30
