%TF.GenerationSoftware,KiCad,Pcbnew,9.0.0*%
%TF.CreationDate,2025-06-19T17:41:54+01:00*%
%TF.ProjectId,solderbit-paste,736f6c64-6572-4626-9974-2d7061737465,v0.7*%
%TF.SameCoordinates,Original*%
%TF.FileFunction,Paste,Top*%
%TF.FilePolarity,Positive*%
%FSLAX46Y46*%
G04 Gerber Fmt 4.6, Leading zero omitted, Abs format (unit mm)*
G04 Created by KiCad (PCBNEW 9.0.0) date 2025-06-19 17:41:54*
%MOMM*%
%LPD*%
G01*
G04 APERTURE LIST*
G04 Aperture macros list*
%AMRoundRect*
0 Rectangle with rounded corners*
0 $1 Rounding radius*
0 $2 $3 $4 $5 $6 $7 $8 $9 X,Y pos of 4 corners*
0 Add a 4 corners polygon primitive as box body*
4,1,4,$2,$3,$4,$5,$6,$7,$8,$9,$2,$3,0*
0 Add four circle primitives for the rounded corners*
1,1,$1+$1,$2,$3*
1,1,$1+$1,$4,$5*
1,1,$1+$1,$6,$7*
1,1,$1+$1,$8,$9*
0 Add four rect primitives between the rounded corners*
20,1,$1+$1,$2,$3,$4,$5,0*
20,1,$1+$1,$4,$5,$6,$7,0*
20,1,$1+$1,$6,$7,$8,$9,0*
20,1,$1+$1,$8,$9,$2,$3,0*%
G04 Aperture macros list end*
%ADD10RoundRect,0.162500X0.162500X-0.587500X0.162500X0.587500X-0.162500X0.587500X-0.162500X-0.587500X0*%
%ADD11RoundRect,0.301886X-0.598114X0.498114X-0.598114X-0.498114X0.598114X-0.498114X0.598114X0.498114X0*%
%ADD12RoundRect,0.307693X0.567307X-0.492307X0.567307X0.492307X-0.567307X0.492307X-0.567307X-0.492307X0*%
%ADD13RoundRect,0.250000X-0.400000X0.725000X-0.400000X-0.725000X0.400000X-0.725000X0.400000X0.725000X0*%
%ADD14RoundRect,0.250000X-0.800000X-0.450000X0.800000X-0.450000X0.800000X0.450000X-0.800000X0.450000X0*%
%ADD15RoundRect,0.301886X0.598114X-0.498114X0.598114X0.498114X-0.598114X0.498114X-0.598114X-0.498114X0*%
%ADD16RoundRect,0.250000X0.375000X-1.025000X0.375000X1.025000X-0.375000X1.025000X-0.375000X-1.025000X0*%
%ADD17R,0.533400X2.010100*%
%ADD18RoundRect,0.250001X1.849999X-0.499999X1.849999X0.499999X-1.849999X0.499999X-1.849999X-0.499999X0*%
%ADD19RoundRect,0.300000X1.750000X-0.300000X1.750000X0.300000X-1.750000X0.300000X-1.750000X-0.300000X0*%
%ADD20RoundRect,0.301886X-0.498114X-0.598114X0.498114X-0.598114X0.498114X0.598114X-0.498114X0.598114X0*%
%ADD21RoundRect,0.307693X-0.567307X0.492307X-0.567307X-0.492307X0.567307X-0.492307X0.567307X0.492307X0*%
%ADD22RoundRect,0.250000X-0.250000X-0.875000X0.250000X-0.875000X0.250000X0.875000X-0.250000X0.875000X0*%
G04 APERTURE END LIST*
D10*
X125314719Y-71519719D03*
X127202219Y-71519719D03*
X126264719Y-68609719D03*
D11*
X117764719Y-76114719D03*
X117764719Y-79514719D03*
D12*
X82200000Y-58700000D03*
X82200000Y-55300000D03*
D13*
X126500000Y-55460281D03*
X126500000Y-59010281D03*
D14*
X51714719Y-59814719D03*
X51714719Y-64314719D03*
X60814719Y-59814719D03*
X60814719Y-64314719D03*
D15*
X78164719Y-79264719D03*
X78164719Y-75864719D03*
D16*
X86639719Y-59975000D03*
X89889719Y-59975000D03*
X89889719Y-54025000D03*
X86639719Y-54025000D03*
D17*
X82701200Y-80309669D03*
X83971200Y-80309669D03*
X85241200Y-80309669D03*
X86511200Y-80309669D03*
X87781200Y-80309669D03*
X89051200Y-80309669D03*
X90321200Y-80309669D03*
X91591200Y-80309669D03*
X91591200Y-74819769D03*
X90321200Y-74819769D03*
X89051200Y-74819769D03*
X87781200Y-74819769D03*
X86511200Y-74819769D03*
X85241200Y-74819769D03*
X83971200Y-74819769D03*
X82701200Y-74819769D03*
D18*
X139300000Y-52850000D03*
X139300000Y-46150000D03*
D19*
X132850000Y-50550000D03*
X132850000Y-48450000D03*
D20*
X86564719Y-64014719D03*
X89964719Y-64014719D03*
D10*
X125314719Y-79294719D03*
X126264719Y-79294719D03*
X127214719Y-79294719D03*
X127214719Y-76339719D03*
X125314719Y-76334719D03*
D12*
X130250000Y-58935281D03*
X130250000Y-55535281D03*
D11*
X121764719Y-76114719D03*
X121764719Y-79514719D03*
D21*
X50750000Y-68350000D03*
X50750000Y-71750000D03*
D22*
X101764719Y-74189719D03*
X104264719Y-74189719D03*
X106764719Y-74189719D03*
X101764719Y-80939719D03*
X104264719Y-80939719D03*
X106764719Y-80939719D03*
M02*
