%TF.GenerationSoftware,KiCad,Pcbnew,9.0.0*%
%TF.CreationDate,2025-06-19T18:08:36+01:00*%
%TF.ProjectId,solderbit-gamepad,736f6c64-6572-4626-9974-2d67616d6570,v0.7*%
%TF.SameCoordinates,Original*%
%TF.FileFunction,AssemblyDrawing,Bot*%
%FSLAX46Y46*%
G04 Gerber Fmt 4.6, Leading zero omitted, Abs format (unit mm)*
G04 Created by KiCad (PCBNEW 9.0.0) date 2025-06-19 18:08:36*
%MOMM*%
%LPD*%
G01*
G04 APERTURE LIST*
%ADD10C,0.100000*%
%ADD11C,0.100000*%
%TD*%
%ADD12C,0.138889*%
%ADD13C,0.215278*%
%ADD14C,0.201389*%
%ADD15C,0.216667*%
%ADD16C,0.206944*%
G04 APERTURE END LIST*
D10*
D11*
D10*
X142914719Y-37564719D02*
X142930357Y-37434499D01*
X142985306Y-37295158D01*
X143075810Y-37175810D01*
X143195158Y-37085306D01*
X143334499Y-37030357D01*
X143464719Y-37014719D01*
X145064719Y-37014719D01*
X145194939Y-37030357D01*
X145334280Y-37085306D01*
X145453628Y-37175810D01*
X145544132Y-37295158D01*
X145599081Y-37434499D01*
X145614719Y-37564719D01*
X145614719Y-38564719D01*
X145599081Y-38694939D01*
X145544132Y-38834280D01*
X145453628Y-38953628D01*
X145334280Y-39044132D01*
X145194939Y-39099081D01*
X145064719Y-39114719D01*
X143464719Y-39114719D01*
X143334499Y-39099081D01*
X143195158Y-39044132D01*
X143075810Y-38953628D01*
X142985306Y-38834280D01*
X142930357Y-38694939D01*
X142914719Y-38564719D01*
X142914719Y-37564719D01*
D11*
D10*
X62914719Y-37564719D02*
X62930357Y-37434499D01*
X62985306Y-37295158D01*
X63075810Y-37175810D01*
X63195158Y-37085306D01*
X63334499Y-37030357D01*
X63464719Y-37014719D01*
X65064719Y-37014719D01*
X65194939Y-37030357D01*
X65334280Y-37085306D01*
X65453628Y-37175810D01*
X65544132Y-37295158D01*
X65599081Y-37434499D01*
X65614719Y-37564719D01*
X65614719Y-38564719D01*
X65599081Y-38694939D01*
X65544132Y-38834280D01*
X65453628Y-38953628D01*
X65334280Y-39044132D01*
X65194939Y-39099081D01*
X65064719Y-39114719D01*
X63464719Y-39114719D01*
X63334499Y-39099081D01*
X63195158Y-39044132D01*
X63075810Y-38953628D01*
X62985306Y-38834280D01*
X62930357Y-38694939D01*
X62914719Y-38564719D01*
X62914719Y-37564719D01*
D12*
X134740909Y-41328528D02*
X133788529Y-41328528D01*
X134264719Y-41328528D02*
X134264719Y-39661862D01*
X134264719Y-39661862D02*
X134105989Y-39899957D01*
X134105989Y-39899957D02*
X133947259Y-40058687D01*
X133947259Y-40058687D02*
X133788529Y-40138052D01*
D10*
X136764719Y-40564719D02*
G75*
G02*
X131764719Y-40564719I-2500000J0D01*
G01*
X131764719Y-40564719D02*
G75*
G02*
X136764719Y-40564719I2500000J0D01*
G01*
D12*
X74740909Y-83328528D02*
X73788529Y-83328528D01*
X74264719Y-83328528D02*
X74264719Y-81661862D01*
X74264719Y-81661862D02*
X74105989Y-81899957D01*
X74105989Y-81899957D02*
X73947259Y-82058687D01*
X73947259Y-82058687D02*
X73788529Y-82138052D01*
D10*
X76764719Y-82564719D02*
G75*
G02*
X71764719Y-82564719I-2500000J0D01*
G01*
X71764719Y-82564719D02*
G75*
G02*
X76764719Y-82564719I2500000J0D01*
G01*
D12*
X134740909Y-83328528D02*
X133788529Y-83328528D01*
X134264719Y-83328528D02*
X134264719Y-81661862D01*
X134264719Y-81661862D02*
X134105989Y-81899957D01*
X134105989Y-81899957D02*
X133947259Y-82058687D01*
X133947259Y-82058687D02*
X133788529Y-82138052D01*
D10*
X136764719Y-82564719D02*
G75*
G02*
X131764719Y-82564719I-2500000J0D01*
G01*
X131764719Y-82564719D02*
G75*
G02*
X136764719Y-82564719I2500000J0D01*
G01*
D12*
X74740909Y-41328528D02*
X73788529Y-41328528D01*
X74264719Y-41328528D02*
X74264719Y-39661862D01*
X74264719Y-39661862D02*
X74105989Y-39899957D01*
X74105989Y-39899957D02*
X73947259Y-40058687D01*
X73947259Y-40058687D02*
X73788529Y-40138052D01*
D10*
X76764719Y-40564719D02*
G75*
G02*
X71764719Y-40564719I-2500000J0D01*
G01*
X71764719Y-40564719D02*
G75*
G02*
X76764719Y-40564719I2500000J0D01*
G01*
D12*
X83150909Y-48328528D02*
X82198529Y-48328528D01*
X82674719Y-48328528D02*
X82674719Y-46661862D01*
X82674719Y-46661862D02*
X82515989Y-46899957D01*
X82515989Y-46899957D02*
X82357259Y-47058687D01*
X82357259Y-47058687D02*
X82198529Y-47138052D01*
D10*
X83093485Y-45100041D02*
X83366808Y-45162426D01*
X83631428Y-45255020D01*
X83884016Y-45376660D01*
X84121397Y-45525817D01*
X84340585Y-45700614D01*
X84538824Y-45898853D01*
X84713621Y-46118041D01*
X84862778Y-46355422D01*
X84984418Y-46608010D01*
X85077012Y-46872630D01*
X85139397Y-47145953D01*
X85170786Y-47424543D01*
X85170786Y-47704895D01*
X85139397Y-47983485D01*
X85077012Y-48256808D01*
X84984418Y-48521428D01*
X84862778Y-48774016D01*
X84713621Y-49011397D01*
X84538824Y-49230585D01*
X84340585Y-49428824D01*
X84121397Y-49603621D01*
X83884016Y-49752778D01*
X83631428Y-49874418D01*
X83366808Y-49967012D01*
X83093485Y-50029397D01*
X82814895Y-50060786D01*
X82534543Y-50060786D01*
X82255953Y-50029397D01*
X81982630Y-49967012D01*
X81718010Y-49874418D01*
X81465422Y-49752778D01*
X81228041Y-49603621D01*
X81008853Y-49428824D01*
X80810614Y-49230585D01*
X80635817Y-49011397D01*
X80486660Y-48774016D01*
X80365020Y-48521428D01*
X80272426Y-48256808D01*
X80210041Y-47983485D01*
X80178652Y-47704895D01*
X80178652Y-47424543D01*
X80210041Y-47145953D01*
X80272426Y-46872630D01*
X80365020Y-46608010D01*
X80486660Y-46355422D01*
X80635817Y-46118041D01*
X80810614Y-45898853D01*
X81008853Y-45700614D01*
X81228041Y-45525817D01*
X81465422Y-45376660D01*
X81718010Y-45255020D01*
X81982630Y-45162426D01*
X82255953Y-45100041D01*
X82534543Y-45068652D01*
X82814895Y-45068652D01*
X83093485Y-45100041D01*
D13*
X83858623Y-50201623D02*
X83858623Y-51677813D01*
X83858623Y-50939718D02*
X81275290Y-50939718D01*
X81275290Y-50939718D02*
X81644338Y-51185750D01*
X81644338Y-51185750D02*
X81890370Y-51431781D01*
X81890370Y-51431781D02*
X82013386Y-51677813D01*
D10*
X82966061Y-47102779D02*
X83079100Y-47168042D01*
X83171396Y-47260338D01*
X83236659Y-47373377D01*
X83270441Y-47499456D01*
X83270441Y-47564719D01*
X85174719Y-47564719D01*
X85174719Y-54814719D01*
X81264724Y-54814719D01*
X81264724Y-54810082D01*
X81078723Y-54807268D01*
X80709585Y-54761203D01*
X80348991Y-54669782D01*
X80174719Y-54604718D01*
X80174719Y-47564719D01*
X82278997Y-47564719D01*
X82278997Y-47499456D01*
X82312779Y-47373377D01*
X82378042Y-47260338D01*
X82470338Y-47168042D01*
X82583377Y-47102779D01*
X82709456Y-47068997D01*
X82839982Y-47068997D01*
X82966061Y-47102779D01*
D13*
X91681322Y-51677813D02*
X91558306Y-51554797D01*
X91558306Y-51554797D02*
X91435290Y-51308766D01*
X91435290Y-51308766D02*
X91435290Y-50693686D01*
X91435290Y-50693686D02*
X91558306Y-50447655D01*
X91558306Y-50447655D02*
X91681322Y-50324639D01*
X91681322Y-50324639D02*
X91927354Y-50201623D01*
X91927354Y-50201623D02*
X92173386Y-50201623D01*
X92173386Y-50201623D02*
X92542433Y-50324639D01*
X92542433Y-50324639D02*
X94018623Y-51800829D01*
X94018623Y-51800829D02*
X94018623Y-50201623D01*
D10*
X93026061Y-47102779D02*
X93139100Y-47168042D01*
X93231396Y-47260338D01*
X93296659Y-47373377D01*
X93330441Y-47499456D01*
X93330441Y-47564719D01*
X95334719Y-47564719D01*
X95334719Y-54814719D01*
X90334719Y-54814719D01*
X90334719Y-47564719D01*
X92338997Y-47564719D01*
X92338997Y-47499456D01*
X92372779Y-47373377D01*
X92438042Y-47260338D01*
X92530338Y-47168042D01*
X92643377Y-47102779D01*
X92769456Y-47068997D01*
X92899982Y-47068997D01*
X93026061Y-47102779D01*
D12*
X92358529Y-46820592D02*
X92437894Y-46741227D01*
X92437894Y-46741227D02*
X92596624Y-46661862D01*
X92596624Y-46661862D02*
X92993449Y-46661862D01*
X92993449Y-46661862D02*
X93152179Y-46741227D01*
X93152179Y-46741227D02*
X93231544Y-46820592D01*
X93231544Y-46820592D02*
X93310909Y-46979322D01*
X93310909Y-46979322D02*
X93310909Y-47138052D01*
X93310909Y-47138052D02*
X93231544Y-47376147D01*
X93231544Y-47376147D02*
X92279164Y-48328528D01*
X92279164Y-48328528D02*
X93310909Y-48328528D01*
D10*
X93253485Y-45100041D02*
X93526808Y-45162426D01*
X93791428Y-45255020D01*
X94044016Y-45376660D01*
X94281397Y-45525817D01*
X94500585Y-45700614D01*
X94698824Y-45898853D01*
X94873621Y-46118041D01*
X95022778Y-46355422D01*
X95144418Y-46608010D01*
X95237012Y-46872630D01*
X95299397Y-47145953D01*
X95330786Y-47424543D01*
X95330786Y-47704895D01*
X95299397Y-47983485D01*
X95237012Y-48256808D01*
X95144418Y-48521428D01*
X95022778Y-48774016D01*
X94873621Y-49011397D01*
X94698824Y-49230585D01*
X94500585Y-49428824D01*
X94281397Y-49603621D01*
X94044016Y-49752778D01*
X93791428Y-49874418D01*
X93526808Y-49967012D01*
X93253485Y-50029397D01*
X92974895Y-50060786D01*
X92694543Y-50060786D01*
X92415953Y-50029397D01*
X92142630Y-49967012D01*
X91878010Y-49874418D01*
X91625422Y-49752778D01*
X91388041Y-49603621D01*
X91168853Y-49428824D01*
X90970614Y-49230585D01*
X90795817Y-49011397D01*
X90646660Y-48774016D01*
X90525020Y-48521428D01*
X90432426Y-48256808D01*
X90370041Y-47983485D01*
X90338652Y-47704895D01*
X90338652Y-47424543D01*
X90370041Y-47145953D01*
X90432426Y-46872630D01*
X90525020Y-46608010D01*
X90646660Y-46355422D01*
X90795817Y-46118041D01*
X90970614Y-45898853D01*
X91168853Y-45700614D01*
X91388041Y-45525817D01*
X91625422Y-45376660D01*
X91878010Y-45255020D01*
X92142630Y-45162426D01*
X92415953Y-45100041D01*
X92694543Y-45068652D01*
X92974895Y-45068652D01*
X93253485Y-45100041D01*
D13*
X102865290Y-51800829D02*
X102865290Y-50201623D01*
X102865290Y-50201623D02*
X103849417Y-51062734D01*
X103849417Y-51062734D02*
X103849417Y-50693686D01*
X103849417Y-50693686D02*
X103972433Y-50447655D01*
X103972433Y-50447655D02*
X104095449Y-50324639D01*
X104095449Y-50324639D02*
X104341481Y-50201623D01*
X104341481Y-50201623D02*
X104956560Y-50201623D01*
X104956560Y-50201623D02*
X105202592Y-50324639D01*
X105202592Y-50324639D02*
X105325608Y-50447655D01*
X105325608Y-50447655D02*
X105448623Y-50693686D01*
X105448623Y-50693686D02*
X105448623Y-51431781D01*
X105448623Y-51431781D02*
X105325608Y-51677813D01*
X105325608Y-51677813D02*
X105202592Y-51800829D01*
D10*
X104456061Y-47102779D02*
X104569100Y-47168042D01*
X104661396Y-47260338D01*
X104726659Y-47373377D01*
X104760441Y-47499456D01*
X104760441Y-47564719D01*
X106764719Y-47564719D01*
X106764719Y-54814719D01*
X101764719Y-54814719D01*
X101764719Y-47564719D01*
X103768997Y-47564719D01*
X103768997Y-47499456D01*
X103802779Y-47373377D01*
X103868042Y-47260338D01*
X103960338Y-47168042D01*
X104073377Y-47102779D01*
X104199456Y-47068997D01*
X104329982Y-47068997D01*
X104456061Y-47102779D01*
D12*
X103709164Y-46661862D02*
X104740909Y-46661862D01*
X104740909Y-46661862D02*
X104185354Y-47296782D01*
X104185354Y-47296782D02*
X104423449Y-47296782D01*
X104423449Y-47296782D02*
X104582179Y-47376147D01*
X104582179Y-47376147D02*
X104661544Y-47455512D01*
X104661544Y-47455512D02*
X104740909Y-47614242D01*
X104740909Y-47614242D02*
X104740909Y-48011067D01*
X104740909Y-48011067D02*
X104661544Y-48169797D01*
X104661544Y-48169797D02*
X104582179Y-48249163D01*
X104582179Y-48249163D02*
X104423449Y-48328528D01*
X104423449Y-48328528D02*
X103947259Y-48328528D01*
X103947259Y-48328528D02*
X103788529Y-48249163D01*
X103788529Y-48249163D02*
X103709164Y-48169797D01*
D10*
X104683485Y-45100041D02*
X104956808Y-45162426D01*
X105221428Y-45255020D01*
X105474016Y-45376660D01*
X105711397Y-45525817D01*
X105930585Y-45700614D01*
X106128824Y-45898853D01*
X106303621Y-46118041D01*
X106452778Y-46355422D01*
X106574418Y-46608010D01*
X106667012Y-46872630D01*
X106729397Y-47145953D01*
X106760786Y-47424543D01*
X106760786Y-47704895D01*
X106729397Y-47983485D01*
X106667012Y-48256808D01*
X106574418Y-48521428D01*
X106452778Y-48774016D01*
X106303621Y-49011397D01*
X106128824Y-49230585D01*
X105930585Y-49428824D01*
X105711397Y-49603621D01*
X105474016Y-49752778D01*
X105221428Y-49874418D01*
X104956808Y-49967012D01*
X104683485Y-50029397D01*
X104404895Y-50060786D01*
X104124543Y-50060786D01*
X103845953Y-50029397D01*
X103572630Y-49967012D01*
X103308010Y-49874418D01*
X103055422Y-49752778D01*
X102818041Y-49603621D01*
X102598853Y-49428824D01*
X102400614Y-49230585D01*
X102225817Y-49011397D01*
X102076660Y-48774016D01*
X101955020Y-48521428D01*
X101862426Y-48256808D01*
X101800041Y-47983485D01*
X101768652Y-47704895D01*
X101768652Y-47424543D01*
X101800041Y-47145953D01*
X101862426Y-46872630D01*
X101955020Y-46608010D01*
X102076660Y-46355422D01*
X102225817Y-46118041D01*
X102400614Y-45898853D01*
X102598853Y-45700614D01*
X102818041Y-45525817D01*
X103055422Y-45376660D01*
X103308010Y-45255020D01*
X103572630Y-45162426D01*
X103845953Y-45100041D01*
X104124543Y-45068652D01*
X104404895Y-45068652D01*
X104683485Y-45100041D01*
D14*
X115191131Y-50729401D02*
X116802242Y-50729401D01*
X114270497Y-51304798D02*
X115996687Y-51880194D01*
X115996687Y-51880194D02*
X115996687Y-50384163D01*
D10*
X118194719Y-54814719D02*
X113194719Y-54814719D01*
X113194719Y-47564719D01*
X118194719Y-47564719D01*
X118194719Y-54814719D01*
D12*
X116012179Y-47217417D02*
X116012179Y-48328528D01*
X115615354Y-46582497D02*
X115218529Y-47772972D01*
X115218529Y-47772972D02*
X116250274Y-47772972D01*
D10*
X116113485Y-45100041D02*
X116386808Y-45162426D01*
X116651428Y-45255020D01*
X116904016Y-45376660D01*
X117141397Y-45525817D01*
X117360585Y-45700614D01*
X117558824Y-45898853D01*
X117733621Y-46118041D01*
X117882778Y-46355422D01*
X118004418Y-46608010D01*
X118097012Y-46872630D01*
X118159397Y-47145953D01*
X118190786Y-47424543D01*
X118190786Y-47704895D01*
X118159397Y-47983485D01*
X118097012Y-48256808D01*
X118004418Y-48521428D01*
X117882778Y-48774016D01*
X117733621Y-49011397D01*
X117558824Y-49230585D01*
X117360585Y-49428824D01*
X117141397Y-49603621D01*
X116904016Y-49752778D01*
X116651428Y-49874418D01*
X116386808Y-49967012D01*
X116113485Y-50029397D01*
X115834895Y-50060786D01*
X115554543Y-50060786D01*
X115275953Y-50029397D01*
X115002630Y-49967012D01*
X114738010Y-49874418D01*
X114485422Y-49752778D01*
X114248041Y-49603621D01*
X114028853Y-49428824D01*
X113830614Y-49230585D01*
X113655817Y-49011397D01*
X113506660Y-48774016D01*
X113385020Y-48521428D01*
X113292426Y-48256808D01*
X113230041Y-47983485D01*
X113198652Y-47704895D01*
X113198652Y-47424543D01*
X113230041Y-47145953D01*
X113292426Y-46872630D01*
X113385020Y-46608010D01*
X113506660Y-46355422D01*
X113655817Y-46118041D01*
X113830614Y-45898853D01*
X114028853Y-45700614D01*
X114248041Y-45525817D01*
X114485422Y-45376660D01*
X114738010Y-45255020D01*
X115002630Y-45162426D01*
X115275953Y-45100041D01*
X115554543Y-45068652D01*
X115834895Y-45068652D01*
X116113485Y-45100041D01*
D15*
X124446261Y-50345671D02*
X124446261Y-51583766D01*
X124446261Y-51583766D02*
X125684356Y-51707575D01*
X125684356Y-51707575D02*
X125560547Y-51583766D01*
X125560547Y-51583766D02*
X125436737Y-51336147D01*
X125436737Y-51336147D02*
X125436737Y-50717099D01*
X125436737Y-50717099D02*
X125560547Y-50469480D01*
X125560547Y-50469480D02*
X125684356Y-50345671D01*
X125684356Y-50345671D02*
X125931975Y-50221861D01*
X125931975Y-50221861D02*
X126551023Y-50221861D01*
X126551023Y-50221861D02*
X126798642Y-50345671D01*
X126798642Y-50345671D02*
X126922452Y-50469480D01*
X126922452Y-50469480D02*
X127046261Y-50717099D01*
X127046261Y-50717099D02*
X127046261Y-51336147D01*
X127046261Y-51336147D02*
X126922452Y-51583766D01*
X126922452Y-51583766D02*
X126798642Y-51707575D01*
D10*
X125946061Y-47102779D02*
X126059100Y-47168042D01*
X126151396Y-47260338D01*
X126216659Y-47373377D01*
X126250441Y-47499456D01*
X126250441Y-47564719D01*
X128354719Y-47564719D01*
X128354719Y-54864719D01*
X123354719Y-54864719D01*
X123354719Y-47564719D01*
X125258997Y-47564719D01*
X125258997Y-47499456D01*
X125292779Y-47373377D01*
X125358042Y-47260338D01*
X125450338Y-47168042D01*
X125563377Y-47102779D01*
X125689456Y-47068997D01*
X125819982Y-47068997D01*
X125946061Y-47102779D01*
D12*
X126251544Y-46661862D02*
X125457894Y-46661862D01*
X125457894Y-46661862D02*
X125378529Y-47455512D01*
X125378529Y-47455512D02*
X125457894Y-47376147D01*
X125457894Y-47376147D02*
X125616624Y-47296782D01*
X125616624Y-47296782D02*
X126013449Y-47296782D01*
X126013449Y-47296782D02*
X126172179Y-47376147D01*
X126172179Y-47376147D02*
X126251544Y-47455512D01*
X126251544Y-47455512D02*
X126330909Y-47614242D01*
X126330909Y-47614242D02*
X126330909Y-48011067D01*
X126330909Y-48011067D02*
X126251544Y-48169797D01*
X126251544Y-48169797D02*
X126172179Y-48249163D01*
X126172179Y-48249163D02*
X126013449Y-48328528D01*
X126013449Y-48328528D02*
X125616624Y-48328528D01*
X125616624Y-48328528D02*
X125457894Y-48249163D01*
X125457894Y-48249163D02*
X125378529Y-48169797D01*
D10*
X126273485Y-45100041D02*
X126546808Y-45162426D01*
X126811428Y-45255020D01*
X127064016Y-45376660D01*
X127301397Y-45525817D01*
X127520585Y-45700614D01*
X127718824Y-45898853D01*
X127893621Y-46118041D01*
X128042778Y-46355422D01*
X128164418Y-46608010D01*
X128257012Y-46872630D01*
X128319397Y-47145953D01*
X128350786Y-47424543D01*
X128350786Y-47704895D01*
X128319397Y-47983485D01*
X128257012Y-48256808D01*
X128164418Y-48521428D01*
X128042778Y-48774016D01*
X127893621Y-49011397D01*
X127718824Y-49230585D01*
X127520585Y-49428824D01*
X127301397Y-49603621D01*
X127064016Y-49752778D01*
X126811428Y-49874418D01*
X126546808Y-49967012D01*
X126273485Y-50029397D01*
X125994895Y-50060786D01*
X125714543Y-50060786D01*
X125435953Y-50029397D01*
X125162630Y-49967012D01*
X124898010Y-49874418D01*
X124645422Y-49752778D01*
X124408041Y-49603621D01*
X124188853Y-49428824D01*
X123990614Y-49230585D01*
X123815817Y-49011397D01*
X123666660Y-48774016D01*
X123545020Y-48521428D01*
X123452426Y-48256808D01*
X123390041Y-47983485D01*
X123358652Y-47704895D01*
X123358652Y-47424543D01*
X123390041Y-47145953D01*
X123452426Y-46872630D01*
X123545020Y-46608010D01*
X123666660Y-46355422D01*
X123815817Y-46118041D01*
X123990614Y-45898853D01*
X124188853Y-45700614D01*
X124408041Y-45525817D01*
X124645422Y-45376660D01*
X124898010Y-45255020D01*
X125162630Y-45162426D01*
X125435953Y-45100041D01*
X125714543Y-45068652D01*
X125994895Y-45068652D01*
X126273485Y-45100041D01*
X72664719Y-72314719D02*
X78714719Y-72314719D01*
X78714719Y-67414719D01*
X72664719Y-67414719D01*
X72664719Y-61314719D01*
X80114719Y-61314719D01*
X80114719Y-67414719D01*
X79214719Y-67414719D01*
X79214719Y-72314719D01*
X80114719Y-72314719D01*
X80114719Y-78414719D01*
X72664719Y-78414719D01*
X72664719Y-72314719D01*
D16*
X132849243Y-76502794D02*
X131430195Y-76502794D01*
X132139719Y-76502794D02*
X132139719Y-74019461D01*
X132139719Y-74019461D02*
X131903211Y-74374223D01*
X131903211Y-74374223D02*
X131666703Y-74610731D01*
X131666703Y-74610731D02*
X131430195Y-74728985D01*
D10*
X128414719Y-72314719D02*
X128414719Y-78414719D01*
X135864719Y-78414719D01*
X135864719Y-72314719D01*
X128414719Y-72314719D01*
D16*
X131430195Y-63255969D02*
X131548449Y-63137715D01*
X131548449Y-63137715D02*
X131784957Y-63019461D01*
X131784957Y-63019461D02*
X132376227Y-63019461D01*
X132376227Y-63019461D02*
X132612735Y-63137715D01*
X132612735Y-63137715D02*
X132730989Y-63255969D01*
X132730989Y-63255969D02*
X132849243Y-63492477D01*
X132849243Y-63492477D02*
X132849243Y-63728985D01*
X132849243Y-63728985D02*
X132730989Y-64083747D01*
X132730989Y-64083747D02*
X131311941Y-65502794D01*
X131311941Y-65502794D02*
X132849243Y-65502794D01*
D10*
X128414719Y-61314719D02*
X128414719Y-67414719D01*
X135864719Y-67414719D01*
X135864719Y-61314719D01*
X128414719Y-61314719D01*
M02*
