%TF.GenerationSoftware,KiCad,Pcbnew,9.0.6*%
%TF.CreationDate,2026-02-02T16:58:08+00:00*%
%TF.ProjectId,solderbit-gamepad,736f6c64-6572-4626-9974-2d67616d6570,v0.8*%
%TF.SameCoordinates,PX636f40fPY2cfad2f*%
%TF.FileFunction,AssemblyDrawing,Bot*%
%FSLAX46Y46*%
G04 Gerber Fmt 4.6, Leading zero omitted, Abs format (unit mm)*
G04 Created by KiCad (PCBNEW 9.0.6) date 2026-02-02 16:58:08*
%MOMM*%
%LPD*%
G01*
G04 APERTURE LIST*
%ADD10C,0.075000*%
%ADD11C,0.172222*%
%ADD12C,0.100000*%
%ADD13C,0.100000*%
%TD*%
%ADD14C,0.138889*%
%ADD15C,0.206944*%
G04 APERTURE END LIST*
D10*
X392856Y-22665504D02*
X321428Y-22689314D01*
X321428Y-22689314D02*
X297618Y-22713123D01*
X297618Y-22713123D02*
X273809Y-22760742D01*
X273809Y-22760742D02*
X273809Y-22832171D01*
X273809Y-22832171D02*
X297618Y-22879790D01*
X297618Y-22879790D02*
X321428Y-22903600D01*
X321428Y-22903600D02*
X369047Y-22927409D01*
X369047Y-22927409D02*
X559523Y-22927409D01*
X559523Y-22927409D02*
X559523Y-22427409D01*
X559523Y-22427409D02*
X392856Y-22427409D01*
X392856Y-22427409D02*
X345237Y-22451219D01*
X345237Y-22451219D02*
X321428Y-22475028D01*
X321428Y-22475028D02*
X297618Y-22522647D01*
X297618Y-22522647D02*
X297618Y-22570266D01*
X297618Y-22570266D02*
X321428Y-22617885D01*
X321428Y-22617885D02*
X345237Y-22641695D01*
X345237Y-22641695D02*
X392856Y-22665504D01*
X392856Y-22665504D02*
X559523Y-22665504D01*
X130951Y-22427409D02*
X-154763Y-22427409D01*
X-11906Y-22927409D02*
X-11906Y-22427409D01*
X-583334Y-22927409D02*
X-297620Y-22927409D01*
X-440477Y-22927409D02*
X-440477Y-22427409D01*
X-440477Y-22427409D02*
X-392858Y-22498838D01*
X-392858Y-22498838D02*
X-345239Y-22546457D01*
X-345239Y-22546457D02*
X-297620Y-22570266D01*
X-692979Y-22677409D02*
X672023Y-22677409D01*
D11*
X12020476Y-947123D02*
X10839524Y-947123D01*
X11430000Y-947123D02*
X11430000Y1119543D01*
X11430000Y1119543D02*
X11233175Y824305D01*
X11233175Y824305D02*
X11036350Y627479D01*
X11036350Y627479D02*
X10839524Y529067D01*
D12*
%TO.C,CN4*%
X14530000Y0D02*
G75*
G02*
X8330000Y0I-3100000J0D01*
G01*
X8330000Y0D02*
G75*
G02*
X14530000Y0I3100000J0D01*
G01*
%TD*%
D11*
X590476Y-947123D02*
X-590476Y-947123D01*
X0Y-947123D02*
X0Y1119543D01*
X0Y1119543D02*
X-196825Y824305D01*
X-196825Y824305D02*
X-393650Y627479D01*
X-393650Y627479D02*
X-590476Y529067D01*
D12*
%TO.C,CN3*%
X3100000Y0D02*
G75*
G02*
X-3100000Y0I-3100000J0D01*
G01*
X-3100000Y0D02*
G75*
G02*
X3100000Y0I3100000J0D01*
G01*
%TD*%
D11*
X-20999524Y-947123D02*
X-22180476Y-947123D01*
X-21590000Y-947123D02*
X-21590000Y1119543D01*
X-21590000Y1119543D02*
X-21786825Y824305D01*
X-21786825Y824305D02*
X-21983650Y627479D01*
X-21983650Y627479D02*
X-22180476Y529067D01*
D12*
%TO.C,CN1*%
X-18490000Y0D02*
G75*
G02*
X-24690000Y0I-3100000J0D01*
G01*
X-24690000Y0D02*
G75*
G02*
X-18490000Y0I3100000J0D01*
G01*
%TD*%
D11*
X22180476Y-947123D02*
X20999524Y-947123D01*
X21590000Y-947123D02*
X21590000Y1119543D01*
X21590000Y1119543D02*
X21393175Y824305D01*
X21393175Y824305D02*
X21196350Y627479D01*
X21196350Y627479D02*
X20999524Y529067D01*
D12*
%TO.C,CN5*%
X24690000Y0D02*
G75*
G02*
X18490000Y0I-3100000J0D01*
G01*
X18490000Y0D02*
G75*
G02*
X24690000Y0I3100000J0D01*
G01*
%TD*%
D11*
X-10839524Y-947123D02*
X-12020476Y-947123D01*
X-11430000Y-947123D02*
X-11430000Y1119543D01*
X-11430000Y1119543D02*
X-11626825Y824305D01*
X-11626825Y824305D02*
X-11823650Y627479D01*
X-11823650Y627479D02*
X-12020476Y529067D01*
D12*
%TO.C,CN2*%
X-8330000Y0D02*
G75*
G02*
X-14530000Y0I-3100000J0D01*
G01*
X-14530000Y0D02*
G75*
G02*
X-8330000Y0I3100000J0D01*
G01*
%TD*%
D13*
%TO.C,S8*%
D12*
X38650000Y9600000D02*
X38665638Y9730220D01*
X38720587Y9869561D01*
X38811091Y9988909D01*
X38930439Y10079413D01*
X39069780Y10134362D01*
X39200000Y10150000D01*
X40800000Y10150000D01*
X40930220Y10134362D01*
X41069561Y10079413D01*
X41188909Y9988909D01*
X41279413Y9869561D01*
X41334362Y9730220D01*
X41350000Y9600000D01*
X41350000Y8600000D01*
X41334362Y8469780D01*
X41279413Y8330439D01*
X41188909Y8211091D01*
X41069561Y8120587D01*
X40930220Y8065638D01*
X40800000Y8050000D01*
X39200000Y8050000D01*
X39069780Y8065638D01*
X38930439Y8120587D01*
X38811091Y8211091D01*
X38720587Y8330439D01*
X38665638Y8469780D01*
X38650000Y8600000D01*
X38650000Y9600000D01*
%TD*%
D13*
%TO.C,S7*%
D12*
X-41350000Y9600000D02*
X-41334362Y9730220D01*
X-41279413Y9869561D01*
X-41188909Y9988909D01*
X-41069561Y10079413D01*
X-40930220Y10134362D01*
X-40800000Y10150000D01*
X-39200000Y10150000D01*
X-39069780Y10134362D01*
X-38930439Y10079413D01*
X-38811091Y9988909D01*
X-38720587Y9869561D01*
X-38665638Y9730220D01*
X-38650000Y9600000D01*
X-38650000Y8600000D01*
X-38665638Y8469780D01*
X-38720587Y8330439D01*
X-38811091Y8211091D01*
X-38930439Y8120587D01*
X-39069780Y8065638D01*
X-39200000Y8050000D01*
X-40800000Y8050000D01*
X-40930220Y8065638D01*
X-41069561Y8120587D01*
X-41188909Y8211091D01*
X-41279413Y8330439D01*
X-41334362Y8469780D01*
X-41350000Y8600000D01*
X-41350000Y9600000D01*
%TD*%
D14*
X30476190Y5836191D02*
X29523810Y5836191D01*
X30000000Y5836191D02*
X30000000Y7502857D01*
X30000000Y7502857D02*
X29841270Y7264762D01*
X29841270Y7264762D02*
X29682540Y7106032D01*
X29682540Y7106032D02*
X29523810Y7026667D01*
D12*
%TO.C,H2*%
X32500000Y6600000D02*
G75*
G02*
X27500000Y6600000I-2500000J0D01*
G01*
X27500000Y6600000D02*
G75*
G02*
X32500000Y6600000I2500000J0D01*
G01*
%TD*%
D14*
X-29523810Y-36163809D02*
X-30476190Y-36163809D01*
X-30000000Y-36163809D02*
X-30000000Y-34497143D01*
X-30000000Y-34497143D02*
X-30158730Y-34735238D01*
X-30158730Y-34735238D02*
X-30317460Y-34893968D01*
X-30317460Y-34893968D02*
X-30476190Y-34973333D01*
D12*
%TO.C,H3*%
X-27500000Y-35400000D02*
G75*
G02*
X-32500000Y-35400000I-2500000J0D01*
G01*
X-32500000Y-35400000D02*
G75*
G02*
X-27500000Y-35400000I2500000J0D01*
G01*
%TD*%
D14*
X30476190Y-36163809D02*
X29523810Y-36163809D01*
X30000000Y-36163809D02*
X30000000Y-34497143D01*
X30000000Y-34497143D02*
X29841270Y-34735238D01*
X29841270Y-34735238D02*
X29682540Y-34893968D01*
X29682540Y-34893968D02*
X29523810Y-34973333D01*
D12*
%TO.C,H4*%
X32500000Y-35400000D02*
G75*
G02*
X27500000Y-35400000I-2500000J0D01*
G01*
X27500000Y-35400000D02*
G75*
G02*
X32500000Y-35400000I2500000J0D01*
G01*
%TD*%
D14*
X-29523810Y5836191D02*
X-30476190Y5836191D01*
X-30000000Y5836191D02*
X-30000000Y7502857D01*
X-30000000Y7502857D02*
X-30158730Y7264762D01*
X-30158730Y7264762D02*
X-30317460Y7106032D01*
X-30317460Y7106032D02*
X-30476190Y7026667D01*
D12*
%TO.C,H1*%
X-27500000Y6600000D02*
G75*
G02*
X-32500000Y6600000I-2500000J0D01*
G01*
X-32500000Y6600000D02*
G75*
G02*
X-27500000Y6600000I2500000J0D01*
G01*
%TD*%
%TO.C,BT1*%
X-31600000Y-25150000D02*
X-25550000Y-25150000D01*
X-25550000Y-20250000D01*
X-31600000Y-20250000D01*
X-31600000Y-14150000D01*
X-24150000Y-14150000D01*
X-24150000Y-20250000D01*
X-25050000Y-20250000D01*
X-25050000Y-25150000D01*
X-24150000Y-25150000D01*
X-24150000Y-31250000D01*
X-31600000Y-31250000D01*
X-31600000Y-25150000D01*
D15*
X28584524Y-29338075D02*
X27165476Y-29338075D01*
X27875000Y-29338075D02*
X27875000Y-26854742D01*
X27875000Y-26854742D02*
X27638492Y-27209504D01*
X27638492Y-27209504D02*
X27401984Y-27446012D01*
X27401984Y-27446012D02*
X27165476Y-27564266D01*
D12*
X24150000Y-25150000D02*
X24150000Y-31250000D01*
X31600000Y-31250000D01*
X31600000Y-25150000D01*
X24150000Y-25150000D01*
D15*
X27165476Y-16091250D02*
X27283730Y-15972996D01*
X27283730Y-15972996D02*
X27520238Y-15854742D01*
X27520238Y-15854742D02*
X28111508Y-15854742D01*
X28111508Y-15854742D02*
X28348016Y-15972996D01*
X28348016Y-15972996D02*
X28466270Y-16091250D01*
X28466270Y-16091250D02*
X28584524Y-16327758D01*
X28584524Y-16327758D02*
X28584524Y-16564266D01*
X28584524Y-16564266D02*
X28466270Y-16919028D01*
X28466270Y-16919028D02*
X27047222Y-18338075D01*
X27047222Y-18338075D02*
X28584524Y-18338075D01*
D12*
X24150000Y-14150000D02*
X24150000Y-20250000D01*
X31600000Y-20250000D01*
X31600000Y-14150000D01*
X24150000Y-14150000D01*
X-31600000Y-11625000D02*
X31600000Y-34050000D01*
X-31600000Y-34050000D02*
X31600000Y-11625000D01*
%TD*%
M02*
