%TF.GenerationSoftware,KiCad,Pcbnew,10.0.2*%
%TF.CreationDate,2026-06-17T18:46:00+01:00*%
%TF.ProjectId,solderbit-gamepad,736f6c64-6572-4626-9974-2d67616d6570,v0.9*%
%TF.SameCoordinates,PX636f40fPY2cfad2f*%
%TF.FileFunction,AssemblyDrawing,Top*%
%FSLAX46Y46*%
G04 Gerber Fmt 4.6, Leading zero omitted, Abs format (unit mm)*
G04 Created by KiCad (PCBNEW 10.0.2) date 2026-06-17 18:46:00*
%MOMM*%
%LPD*%
G01*
G04 APERTURE LIST*
%ADD10C,0.075000*%
%ADD11C,0.150000*%
%ADD12C,0.100000*%
%ADD13C,0.070833*%
%ADD14C,0.041667*%
%ADD15C,0.058333*%
%ADD16C,0.116667*%
%ADD17C,0.050000*%
%ADD18C,0.048611*%
%ADD19C,0.016667*%
%ADD20C,0.172222*%
%ADD21C,0.222222*%
%ADD22C,0.054167*%
%ADD23C,0.044450*%
%ADD24C,0.138889*%
%ADD25C,0.062500*%
G04 APERTURE END LIST*
D10*
X15630952Y-11427409D02*
X15630952Y-10927409D01*
X15630952Y-10927409D02*
X15750000Y-10927409D01*
X15750000Y-10927409D02*
X15821428Y-10951219D01*
X15821428Y-10951219D02*
X15869047Y-10998838D01*
X15869047Y-10998838D02*
X15892857Y-11046457D01*
X15892857Y-11046457D02*
X15916666Y-11141695D01*
X15916666Y-11141695D02*
X15916666Y-11213123D01*
X15916666Y-11213123D02*
X15892857Y-11308361D01*
X15892857Y-11308361D02*
X15869047Y-11355980D01*
X15869047Y-11355980D02*
X15821428Y-11403600D01*
X15821428Y-11403600D02*
X15750000Y-11427409D01*
X15750000Y-11427409D02*
X15630952Y-11427409D01*
X16369047Y-10927409D02*
X16130952Y-10927409D01*
X16130952Y-10927409D02*
X16107143Y-11165504D01*
X16107143Y-11165504D02*
X16130952Y-11141695D01*
X16130952Y-11141695D02*
X16178571Y-11117885D01*
X16178571Y-11117885D02*
X16297619Y-11117885D01*
X16297619Y-11117885D02*
X16345238Y-11141695D01*
X16345238Y-11141695D02*
X16369047Y-11165504D01*
X16369047Y-11165504D02*
X16392857Y-11213123D01*
X16392857Y-11213123D02*
X16392857Y-11332171D01*
X16392857Y-11332171D02*
X16369047Y-11379790D01*
X16369047Y-11379790D02*
X16345238Y-11403600D01*
X16345238Y-11403600D02*
X16297619Y-11427409D01*
X16297619Y-11427409D02*
X16178571Y-11427409D01*
X16178571Y-11427409D02*
X16130952Y-11403600D01*
X16130952Y-11403600D02*
X16107143Y-11379790D01*
X15518452Y-11177409D02*
X16505357Y-11177409D01*
X22275028Y-22947619D02*
X22251219Y-22995238D01*
X22251219Y-22995238D02*
X22203600Y-23042857D01*
X22203600Y-23042857D02*
X22132171Y-23114285D01*
X22132171Y-23114285D02*
X22108361Y-23161904D01*
X22108361Y-23161904D02*
X22108361Y-23209523D01*
X22227409Y-23185714D02*
X22203600Y-23233333D01*
X22203600Y-23233333D02*
X22155980Y-23280952D01*
X22155980Y-23280952D02*
X22060742Y-23304761D01*
X22060742Y-23304761D02*
X21894076Y-23304761D01*
X21894076Y-23304761D02*
X21798838Y-23280952D01*
X21798838Y-23280952D02*
X21751219Y-23233333D01*
X21751219Y-23233333D02*
X21727409Y-23185714D01*
X21727409Y-23185714D02*
X21727409Y-23090476D01*
X21727409Y-23090476D02*
X21751219Y-23042857D01*
X21751219Y-23042857D02*
X21798838Y-22995238D01*
X21798838Y-22995238D02*
X21894076Y-22971428D01*
X21894076Y-22971428D02*
X22060742Y-22971428D01*
X22060742Y-22971428D02*
X22155980Y-22995238D01*
X22155980Y-22995238D02*
X22203600Y-23042857D01*
X22203600Y-23042857D02*
X22227409Y-23090476D01*
X22227409Y-23090476D02*
X22227409Y-23185714D01*
X22227409Y-22495237D02*
X22227409Y-22780951D01*
X22227409Y-22638094D02*
X21727409Y-22638094D01*
X21727409Y-22638094D02*
X21798838Y-22685713D01*
X21798838Y-22685713D02*
X21846457Y-22733332D01*
X21846457Y-22733332D02*
X21870266Y-22780951D01*
X39619048Y6396400D02*
X39690476Y6372591D01*
X39690476Y6372591D02*
X39809524Y6372591D01*
X39809524Y6372591D02*
X39857143Y6396400D01*
X39857143Y6396400D02*
X39880952Y6420210D01*
X39880952Y6420210D02*
X39904762Y6467829D01*
X39904762Y6467829D02*
X39904762Y6515448D01*
X39904762Y6515448D02*
X39880952Y6563067D01*
X39880952Y6563067D02*
X39857143Y6586877D01*
X39857143Y6586877D02*
X39809524Y6610686D01*
X39809524Y6610686D02*
X39714286Y6634496D01*
X39714286Y6634496D02*
X39666667Y6658305D01*
X39666667Y6658305D02*
X39642857Y6682115D01*
X39642857Y6682115D02*
X39619048Y6729734D01*
X39619048Y6729734D02*
X39619048Y6777353D01*
X39619048Y6777353D02*
X39642857Y6824972D01*
X39642857Y6824972D02*
X39666667Y6848781D01*
X39666667Y6848781D02*
X39714286Y6872591D01*
X39714286Y6872591D02*
X39833333Y6872591D01*
X39833333Y6872591D02*
X39904762Y6848781D01*
X40190476Y6658305D02*
X40142857Y6682115D01*
X40142857Y6682115D02*
X40119047Y6705924D01*
X40119047Y6705924D02*
X40095238Y6753543D01*
X40095238Y6753543D02*
X40095238Y6777353D01*
X40095238Y6777353D02*
X40119047Y6824972D01*
X40119047Y6824972D02*
X40142857Y6848781D01*
X40142857Y6848781D02*
X40190476Y6872591D01*
X40190476Y6872591D02*
X40285714Y6872591D01*
X40285714Y6872591D02*
X40333333Y6848781D01*
X40333333Y6848781D02*
X40357142Y6824972D01*
X40357142Y6824972D02*
X40380952Y6777353D01*
X40380952Y6777353D02*
X40380952Y6753543D01*
X40380952Y6753543D02*
X40357142Y6705924D01*
X40357142Y6705924D02*
X40333333Y6682115D01*
X40333333Y6682115D02*
X40285714Y6658305D01*
X40285714Y6658305D02*
X40190476Y6658305D01*
X40190476Y6658305D02*
X40142857Y6634496D01*
X40142857Y6634496D02*
X40119047Y6610686D01*
X40119047Y6610686D02*
X40095238Y6563067D01*
X40095238Y6563067D02*
X40095238Y6467829D01*
X40095238Y6467829D02*
X40119047Y6420210D01*
X40119047Y6420210D02*
X40142857Y6396400D01*
X40142857Y6396400D02*
X40190476Y6372591D01*
X40190476Y6372591D02*
X40285714Y6372591D01*
X40285714Y6372591D02*
X40333333Y6396400D01*
X40333333Y6396400D02*
X40357142Y6420210D01*
X40357142Y6420210D02*
X40380952Y6467829D01*
X40380952Y6467829D02*
X40380952Y6563067D01*
X40380952Y6563067D02*
X40357142Y6610686D01*
X40357142Y6610686D02*
X40333333Y6634496D01*
X40333333Y6634496D02*
X40285714Y6658305D01*
X39506548Y6622591D02*
X40493452Y6622591D01*
X13679790Y-30733333D02*
X13703600Y-30757142D01*
X13703600Y-30757142D02*
X13727409Y-30828571D01*
X13727409Y-30828571D02*
X13727409Y-30876190D01*
X13727409Y-30876190D02*
X13703600Y-30947618D01*
X13703600Y-30947618D02*
X13655980Y-30995237D01*
X13655980Y-30995237D02*
X13608361Y-31019047D01*
X13608361Y-31019047D02*
X13513123Y-31042856D01*
X13513123Y-31042856D02*
X13441695Y-31042856D01*
X13441695Y-31042856D02*
X13346457Y-31019047D01*
X13346457Y-31019047D02*
X13298838Y-30995237D01*
X13298838Y-30995237D02*
X13251219Y-30947618D01*
X13251219Y-30947618D02*
X13227409Y-30876190D01*
X13227409Y-30876190D02*
X13227409Y-30828571D01*
X13227409Y-30828571D02*
X13251219Y-30757142D01*
X13251219Y-30757142D02*
X13275028Y-30733333D01*
X13227409Y-30566666D02*
X13227409Y-30233333D01*
X13227409Y-30233333D02*
X13727409Y-30447618D01*
X-53287310Y-6968614D02*
X-53525405Y-7135280D01*
X-53287310Y-7254328D02*
X-53787310Y-7254328D01*
X-53787310Y-7254328D02*
X-53787310Y-7063852D01*
X-53787310Y-7063852D02*
X-53763500Y-7016233D01*
X-53763500Y-7016233D02*
X-53739691Y-6992423D01*
X-53739691Y-6992423D02*
X-53692072Y-6968614D01*
X-53692072Y-6968614D02*
X-53620643Y-6968614D01*
X-53620643Y-6968614D02*
X-53573024Y-6992423D01*
X-53573024Y-6992423D02*
X-53549215Y-7016233D01*
X-53549215Y-7016233D02*
X-53525405Y-7063852D01*
X-53525405Y-7063852D02*
X-53525405Y-7254328D01*
X-53739691Y-6778137D02*
X-53763500Y-6754328D01*
X-53763500Y-6754328D02*
X-53787310Y-6706709D01*
X-53787310Y-6706709D02*
X-53787310Y-6587661D01*
X-53787310Y-6587661D02*
X-53763500Y-6540042D01*
X-53763500Y-6540042D02*
X-53739691Y-6516233D01*
X-53739691Y-6516233D02*
X-53692072Y-6492423D01*
X-53692072Y-6492423D02*
X-53644453Y-6492423D01*
X-53644453Y-6492423D02*
X-53573024Y-6516233D01*
X-53573024Y-6516233D02*
X-53287310Y-6801947D01*
X-53287310Y-6801947D02*
X-53287310Y-6492423D01*
X-53537310Y-7366828D02*
X-53537310Y-6379923D01*
D11*
X-690477Y-5734580D02*
X-738096Y-5782200D01*
X-738096Y-5782200D02*
X-880953Y-5829819D01*
X-880953Y-5829819D02*
X-976191Y-5829819D01*
X-976191Y-5829819D02*
X-1119048Y-5782200D01*
X-1119048Y-5782200D02*
X-1214286Y-5686961D01*
X-1214286Y-5686961D02*
X-1261905Y-5591723D01*
X-1261905Y-5591723D02*
X-1309524Y-5401247D01*
X-1309524Y-5401247D02*
X-1309524Y-5258390D01*
X-1309524Y-5258390D02*
X-1261905Y-5067914D01*
X-1261905Y-5067914D02*
X-1214286Y-4972676D01*
X-1214286Y-4972676D02*
X-1119048Y-4877438D01*
X-1119048Y-4877438D02*
X-976191Y-4829819D01*
X-976191Y-4829819D02*
X-880953Y-4829819D01*
X-880953Y-4829819D02*
X-738096Y-4877438D01*
X-738096Y-4877438D02*
X-690477Y-4925057D01*
X-261905Y-5829819D02*
X-261905Y-4829819D01*
X-261905Y-4829819D02*
X309523Y-5829819D01*
X309523Y-5829819D02*
X309523Y-4829819D01*
X690476Y-4829819D02*
X1309523Y-4829819D01*
X1309523Y-4829819D02*
X976190Y-5210771D01*
X976190Y-5210771D02*
X1119047Y-5210771D01*
X1119047Y-5210771D02*
X1214285Y-5258390D01*
X1214285Y-5258390D02*
X1261904Y-5306009D01*
X1261904Y-5306009D02*
X1309523Y-5401247D01*
X1309523Y-5401247D02*
X1309523Y-5639342D01*
X1309523Y-5639342D02*
X1261904Y-5734580D01*
X1261904Y-5734580D02*
X1214285Y-5782200D01*
X1214285Y-5782200D02*
X1119047Y-5829819D01*
X1119047Y-5829819D02*
X833333Y-5829819D01*
X833333Y-5829819D02*
X738095Y-5782200D01*
X738095Y-5782200D02*
X690476Y-5734580D01*
D10*
X-52772591Y2216667D02*
X-53010686Y2050001D01*
X-52772591Y1930953D02*
X-53272591Y1930953D01*
X-53272591Y1930953D02*
X-53272591Y2121429D01*
X-53272591Y2121429D02*
X-53248781Y2169048D01*
X-53248781Y2169048D02*
X-53224972Y2192858D01*
X-53224972Y2192858D02*
X-53177353Y2216667D01*
X-53177353Y2216667D02*
X-53105924Y2216667D01*
X-53105924Y2216667D02*
X-53058305Y2192858D01*
X-53058305Y2192858D02*
X-53034496Y2169048D01*
X-53034496Y2169048D02*
X-53010686Y2121429D01*
X-53010686Y2121429D02*
X-53010686Y1930953D01*
X-53272591Y2383334D02*
X-53272591Y2716667D01*
X-53272591Y2716667D02*
X-52772591Y2502382D01*
X-53022593Y1818453D02*
X-53022593Y2829164D01*
X7916666Y-18379790D02*
X7892857Y-18403600D01*
X7892857Y-18403600D02*
X7821428Y-18427409D01*
X7821428Y-18427409D02*
X7773809Y-18427409D01*
X7773809Y-18427409D02*
X7702381Y-18403600D01*
X7702381Y-18403600D02*
X7654762Y-18355980D01*
X7654762Y-18355980D02*
X7630952Y-18308361D01*
X7630952Y-18308361D02*
X7607143Y-18213123D01*
X7607143Y-18213123D02*
X7607143Y-18141695D01*
X7607143Y-18141695D02*
X7630952Y-18046457D01*
X7630952Y-18046457D02*
X7654762Y-17998838D01*
X7654762Y-17998838D02*
X7702381Y-17951219D01*
X7702381Y-17951219D02*
X7773809Y-17927409D01*
X7773809Y-17927409D02*
X7821428Y-17927409D01*
X7821428Y-17927409D02*
X7892857Y-17951219D01*
X7892857Y-17951219D02*
X7916666Y-17975028D01*
X8369047Y-17927409D02*
X8130952Y-17927409D01*
X8130952Y-17927409D02*
X8107143Y-18165504D01*
X8107143Y-18165504D02*
X8130952Y-18141695D01*
X8130952Y-18141695D02*
X8178571Y-18117885D01*
X8178571Y-18117885D02*
X8297619Y-18117885D01*
X8297619Y-18117885D02*
X8345238Y-18141695D01*
X8345238Y-18141695D02*
X8369047Y-18165504D01*
X8369047Y-18165504D02*
X8392857Y-18213123D01*
X8392857Y-18213123D02*
X8392857Y-18332171D01*
X8392857Y-18332171D02*
X8369047Y-18379790D01*
X8369047Y-18379790D02*
X8345238Y-18403600D01*
X8345238Y-18403600D02*
X8297619Y-18427409D01*
X8297619Y-18427409D02*
X8178571Y-18427409D01*
X8178571Y-18427409D02*
X8130952Y-18403600D01*
X8130952Y-18403600D02*
X8107143Y-18379790D01*
X7494643Y-18177409D02*
X8505357Y-18177409D01*
X-21372591Y-11283333D02*
X-21610686Y-11449999D01*
X-21372591Y-11569047D02*
X-21872591Y-11569047D01*
X-21872591Y-11569047D02*
X-21872591Y-11378571D01*
X-21872591Y-11378571D02*
X-21848781Y-11330952D01*
X-21848781Y-11330952D02*
X-21824972Y-11307142D01*
X-21824972Y-11307142D02*
X-21777353Y-11283333D01*
X-21777353Y-11283333D02*
X-21705924Y-11283333D01*
X-21705924Y-11283333D02*
X-21658305Y-11307142D01*
X-21658305Y-11307142D02*
X-21634496Y-11330952D01*
X-21634496Y-11330952D02*
X-21610686Y-11378571D01*
X-21610686Y-11378571D02*
X-21610686Y-11569047D01*
X-21372591Y-11045237D02*
X-21372591Y-10949999D01*
X-21372591Y-10949999D02*
X-21396400Y-10902380D01*
X-21396400Y-10902380D02*
X-21420210Y-10878571D01*
X-21420210Y-10878571D02*
X-21491639Y-10830952D01*
X-21491639Y-10830952D02*
X-21586877Y-10807142D01*
X-21586877Y-10807142D02*
X-21777353Y-10807142D01*
X-21777353Y-10807142D02*
X-21824972Y-10830952D01*
X-21824972Y-10830952D02*
X-21848781Y-10854761D01*
X-21848781Y-10854761D02*
X-21872591Y-10902380D01*
X-21872591Y-10902380D02*
X-21872591Y-10997618D01*
X-21872591Y-10997618D02*
X-21848781Y-11045237D01*
X-21848781Y-11045237D02*
X-21824972Y-11069047D01*
X-21824972Y-11069047D02*
X-21777353Y-11092856D01*
X-21777353Y-11092856D02*
X-21658305Y-11092856D01*
X-21658305Y-11092856D02*
X-21610686Y-11069047D01*
X-21610686Y-11069047D02*
X-21586877Y-11045237D01*
X-21586877Y-11045237D02*
X-21563067Y-10997618D01*
X-21563067Y-10997618D02*
X-21563067Y-10902380D01*
X-21563067Y-10902380D02*
X-21586877Y-10854761D01*
X-21586877Y-10854761D02*
X-21610686Y-10830952D01*
X-21610686Y-10830952D02*
X-21658305Y-10807142D01*
X22077409Y-11804328D02*
X21577409Y-11804328D01*
X21577409Y-11804328D02*
X21577409Y-11685280D01*
X21577409Y-11685280D02*
X21601219Y-11613852D01*
X21601219Y-11613852D02*
X21648838Y-11566233D01*
X21648838Y-11566233D02*
X21696457Y-11542423D01*
X21696457Y-11542423D02*
X21791695Y-11518614D01*
X21791695Y-11518614D02*
X21863123Y-11518614D01*
X21863123Y-11518614D02*
X21958361Y-11542423D01*
X21958361Y-11542423D02*
X22005980Y-11566233D01*
X22005980Y-11566233D02*
X22053600Y-11613852D01*
X22053600Y-11613852D02*
X22077409Y-11685280D01*
X22077409Y-11685280D02*
X22077409Y-11804328D01*
X21577409Y-11090042D02*
X21577409Y-11185280D01*
X21577409Y-11185280D02*
X21601219Y-11232899D01*
X21601219Y-11232899D02*
X21625028Y-11256709D01*
X21625028Y-11256709D02*
X21696457Y-11304328D01*
X21696457Y-11304328D02*
X21791695Y-11328137D01*
X21791695Y-11328137D02*
X21982171Y-11328137D01*
X21982171Y-11328137D02*
X22029790Y-11304328D01*
X22029790Y-11304328D02*
X22053600Y-11280518D01*
X22053600Y-11280518D02*
X22077409Y-11232899D01*
X22077409Y-11232899D02*
X22077409Y-11137661D01*
X22077409Y-11137661D02*
X22053600Y-11090042D01*
X22053600Y-11090042D02*
X22029790Y-11066233D01*
X22029790Y-11066233D02*
X21982171Y-11042423D01*
X21982171Y-11042423D02*
X21863123Y-11042423D01*
X21863123Y-11042423D02*
X21815504Y-11066233D01*
X21815504Y-11066233D02*
X21791695Y-11090042D01*
X21791695Y-11090042D02*
X21767885Y-11137661D01*
X21767885Y-11137661D02*
X21767885Y-11232899D01*
X21767885Y-11232899D02*
X21791695Y-11280518D01*
X21791695Y-11280518D02*
X21815504Y-11304328D01*
X21815504Y-11304328D02*
X21863123Y-11328137D01*
D11*
X20899523Y-5734580D02*
X20851904Y-5782200D01*
X20851904Y-5782200D02*
X20709047Y-5829819D01*
X20709047Y-5829819D02*
X20613809Y-5829819D01*
X20613809Y-5829819D02*
X20470952Y-5782200D01*
X20470952Y-5782200D02*
X20375714Y-5686961D01*
X20375714Y-5686961D02*
X20328095Y-5591723D01*
X20328095Y-5591723D02*
X20280476Y-5401247D01*
X20280476Y-5401247D02*
X20280476Y-5258390D01*
X20280476Y-5258390D02*
X20328095Y-5067914D01*
X20328095Y-5067914D02*
X20375714Y-4972676D01*
X20375714Y-4972676D02*
X20470952Y-4877438D01*
X20470952Y-4877438D02*
X20613809Y-4829819D01*
X20613809Y-4829819D02*
X20709047Y-4829819D01*
X20709047Y-4829819D02*
X20851904Y-4877438D01*
X20851904Y-4877438D02*
X20899523Y-4925057D01*
X21328095Y-5829819D02*
X21328095Y-4829819D01*
X21328095Y-4829819D02*
X21899523Y-5829819D01*
X21899523Y-5829819D02*
X21899523Y-4829819D01*
X22851904Y-4829819D02*
X22375714Y-4829819D01*
X22375714Y-4829819D02*
X22328095Y-5306009D01*
X22328095Y-5306009D02*
X22375714Y-5258390D01*
X22375714Y-5258390D02*
X22470952Y-5210771D01*
X22470952Y-5210771D02*
X22709047Y-5210771D01*
X22709047Y-5210771D02*
X22804285Y-5258390D01*
X22804285Y-5258390D02*
X22851904Y-5306009D01*
X22851904Y-5306009D02*
X22899523Y-5401247D01*
X22899523Y-5401247D02*
X22899523Y-5639342D01*
X22899523Y-5639342D02*
X22851904Y-5734580D01*
X22851904Y-5734580D02*
X22804285Y-5782200D01*
X22804285Y-5782200D02*
X22709047Y-5829819D01*
X22709047Y-5829819D02*
X22470952Y-5829819D01*
X22470952Y-5829819D02*
X22375714Y-5782200D01*
X22375714Y-5782200D02*
X22328095Y-5734580D01*
D10*
X-40380952Y6396400D02*
X-40309524Y6372591D01*
X-40309524Y6372591D02*
X-40190476Y6372591D01*
X-40190476Y6372591D02*
X-40142857Y6396400D01*
X-40142857Y6396400D02*
X-40119048Y6420210D01*
X-40119048Y6420210D02*
X-40095238Y6467829D01*
X-40095238Y6467829D02*
X-40095238Y6515448D01*
X-40095238Y6515448D02*
X-40119048Y6563067D01*
X-40119048Y6563067D02*
X-40142857Y6586877D01*
X-40142857Y6586877D02*
X-40190476Y6610686D01*
X-40190476Y6610686D02*
X-40285714Y6634496D01*
X-40285714Y6634496D02*
X-40333333Y6658305D01*
X-40333333Y6658305D02*
X-40357143Y6682115D01*
X-40357143Y6682115D02*
X-40380952Y6729734D01*
X-40380952Y6729734D02*
X-40380952Y6777353D01*
X-40380952Y6777353D02*
X-40357143Y6824972D01*
X-40357143Y6824972D02*
X-40333333Y6848781D01*
X-40333333Y6848781D02*
X-40285714Y6872591D01*
X-40285714Y6872591D02*
X-40166667Y6872591D01*
X-40166667Y6872591D02*
X-40095238Y6848781D01*
X-39928572Y6872591D02*
X-39595239Y6872591D01*
X-39595239Y6872591D02*
X-39809524Y6372591D01*
X-40493452Y6622591D02*
X-39482742Y6622591D01*
X-25920210Y-30483333D02*
X-25896400Y-30507142D01*
X-25896400Y-30507142D02*
X-25872591Y-30578571D01*
X-25872591Y-30578571D02*
X-25872591Y-30626190D01*
X-25872591Y-30626190D02*
X-25896400Y-30697618D01*
X-25896400Y-30697618D02*
X-25944020Y-30745237D01*
X-25944020Y-30745237D02*
X-25991639Y-30769047D01*
X-25991639Y-30769047D02*
X-26086877Y-30792856D01*
X-26086877Y-30792856D02*
X-26158305Y-30792856D01*
X-26158305Y-30792856D02*
X-26253543Y-30769047D01*
X-26253543Y-30769047D02*
X-26301162Y-30745237D01*
X-26301162Y-30745237D02*
X-26348781Y-30697618D01*
X-26348781Y-30697618D02*
X-26372591Y-30626190D01*
X-26372591Y-30626190D02*
X-26372591Y-30578571D01*
X-26372591Y-30578571D02*
X-26348781Y-30507142D01*
X-26348781Y-30507142D02*
X-26324972Y-30483333D01*
X-25872591Y-30007142D02*
X-25872591Y-30292856D01*
X-25872591Y-30149999D02*
X-26372591Y-30149999D01*
X-26372591Y-30149999D02*
X-26301162Y-30197618D01*
X-26301162Y-30197618D02*
X-26253543Y-30245237D01*
X-26253543Y-30245237D02*
X-26229734Y-30292856D01*
D11*
X-12120477Y-5734580D02*
X-12168096Y-5782200D01*
X-12168096Y-5782200D02*
X-12310953Y-5829819D01*
X-12310953Y-5829819D02*
X-12406191Y-5829819D01*
X-12406191Y-5829819D02*
X-12549048Y-5782200D01*
X-12549048Y-5782200D02*
X-12644286Y-5686961D01*
X-12644286Y-5686961D02*
X-12691905Y-5591723D01*
X-12691905Y-5591723D02*
X-12739524Y-5401247D01*
X-12739524Y-5401247D02*
X-12739524Y-5258390D01*
X-12739524Y-5258390D02*
X-12691905Y-5067914D01*
X-12691905Y-5067914D02*
X-12644286Y-4972676D01*
X-12644286Y-4972676D02*
X-12549048Y-4877438D01*
X-12549048Y-4877438D02*
X-12406191Y-4829819D01*
X-12406191Y-4829819D02*
X-12310953Y-4829819D01*
X-12310953Y-4829819D02*
X-12168096Y-4877438D01*
X-12168096Y-4877438D02*
X-12120477Y-4925057D01*
X-11691905Y-5829819D02*
X-11691905Y-4829819D01*
X-11691905Y-4829819D02*
X-11120477Y-5829819D01*
X-11120477Y-5829819D02*
X-11120477Y-4829819D01*
X-10691905Y-4925057D02*
X-10644286Y-4877438D01*
X-10644286Y-4877438D02*
X-10549048Y-4829819D01*
X-10549048Y-4829819D02*
X-10310953Y-4829819D01*
X-10310953Y-4829819D02*
X-10215715Y-4877438D01*
X-10215715Y-4877438D02*
X-10168096Y-4925057D01*
X-10168096Y-4925057D02*
X-10120477Y-5020295D01*
X-10120477Y-5020295D02*
X-10120477Y-5115533D01*
X-10120477Y-5115533D02*
X-10168096Y-5258390D01*
X-10168096Y-5258390D02*
X-10739524Y-5829819D01*
X-10739524Y-5829819D02*
X-10120477Y-5829819D01*
D10*
X-16369048Y-11427409D02*
X-16369048Y-10927409D01*
X-16369048Y-10927409D02*
X-16250000Y-10927409D01*
X-16250000Y-10927409D02*
X-16178572Y-10951219D01*
X-16178572Y-10951219D02*
X-16130953Y-10998838D01*
X-16130953Y-10998838D02*
X-16107143Y-11046457D01*
X-16107143Y-11046457D02*
X-16083334Y-11141695D01*
X-16083334Y-11141695D02*
X-16083334Y-11213123D01*
X-16083334Y-11213123D02*
X-16107143Y-11308361D01*
X-16107143Y-11308361D02*
X-16130953Y-11355980D01*
X-16130953Y-11355980D02*
X-16178572Y-11403600D01*
X-16178572Y-11403600D02*
X-16250000Y-11427409D01*
X-16250000Y-11427409D02*
X-16369048Y-11427409D01*
X-15607143Y-11427409D02*
X-15892857Y-11427409D01*
X-15750000Y-11427409D02*
X-15750000Y-10927409D01*
X-15750000Y-10927409D02*
X-15797619Y-10998838D01*
X-15797619Y-10998838D02*
X-15845238Y-11046457D01*
X-15845238Y-11046457D02*
X-15892857Y-11070266D01*
X-83334Y-18379790D02*
X-107143Y-18403600D01*
X-107143Y-18403600D02*
X-178572Y-18427409D01*
X-178572Y-18427409D02*
X-226191Y-18427409D01*
X-226191Y-18427409D02*
X-297619Y-18403600D01*
X-297619Y-18403600D02*
X-345238Y-18355980D01*
X-345238Y-18355980D02*
X-369048Y-18308361D01*
X-369048Y-18308361D02*
X-392857Y-18213123D01*
X-392857Y-18213123D02*
X-392857Y-18141695D01*
X-392857Y-18141695D02*
X-369048Y-18046457D01*
X-369048Y-18046457D02*
X-345238Y-17998838D01*
X-345238Y-17998838D02*
X-297619Y-17951219D01*
X-297619Y-17951219D02*
X-226191Y-17927409D01*
X-226191Y-17927409D02*
X-178572Y-17927409D01*
X-178572Y-17927409D02*
X-107143Y-17951219D01*
X-107143Y-17951219D02*
X-83334Y-17975028D01*
X345238Y-18094076D02*
X345238Y-18427409D01*
X226190Y-17903600D02*
X107143Y-18260742D01*
X107143Y-18260742D02*
X416666Y-18260742D01*
X-505357Y-18165551D02*
X526311Y-18165551D01*
D11*
X10739523Y-5734580D02*
X10691904Y-5782200D01*
X10691904Y-5782200D02*
X10549047Y-5829819D01*
X10549047Y-5829819D02*
X10453809Y-5829819D01*
X10453809Y-5829819D02*
X10310952Y-5782200D01*
X10310952Y-5782200D02*
X10215714Y-5686961D01*
X10215714Y-5686961D02*
X10168095Y-5591723D01*
X10168095Y-5591723D02*
X10120476Y-5401247D01*
X10120476Y-5401247D02*
X10120476Y-5258390D01*
X10120476Y-5258390D02*
X10168095Y-5067914D01*
X10168095Y-5067914D02*
X10215714Y-4972676D01*
X10215714Y-4972676D02*
X10310952Y-4877438D01*
X10310952Y-4877438D02*
X10453809Y-4829819D01*
X10453809Y-4829819D02*
X10549047Y-4829819D01*
X10549047Y-4829819D02*
X10691904Y-4877438D01*
X10691904Y-4877438D02*
X10739523Y-4925057D01*
X11168095Y-5829819D02*
X11168095Y-4829819D01*
X11168095Y-4829819D02*
X11739523Y-5829819D01*
X11739523Y-5829819D02*
X11739523Y-4829819D01*
X12644285Y-5163152D02*
X12644285Y-5829819D01*
X12406190Y-4782200D02*
X12168095Y-5496485D01*
X12168095Y-5496485D02*
X12787142Y-5496485D01*
D10*
X45837690Y-18968614D02*
X45599595Y-19135280D01*
X45837690Y-19254328D02*
X45337690Y-19254328D01*
X45337690Y-19254328D02*
X45337690Y-19063852D01*
X45337690Y-19063852D02*
X45361500Y-19016233D01*
X45361500Y-19016233D02*
X45385309Y-18992423D01*
X45385309Y-18992423D02*
X45432928Y-18968614D01*
X45432928Y-18968614D02*
X45504357Y-18968614D01*
X45504357Y-18968614D02*
X45551976Y-18992423D01*
X45551976Y-18992423D02*
X45575785Y-19016233D01*
X45575785Y-19016233D02*
X45599595Y-19063852D01*
X45599595Y-19063852D02*
X45599595Y-19254328D01*
X45337690Y-18516233D02*
X45337690Y-18754328D01*
X45337690Y-18754328D02*
X45575785Y-18778137D01*
X45575785Y-18778137D02*
X45551976Y-18754328D01*
X45551976Y-18754328D02*
X45528166Y-18706709D01*
X45528166Y-18706709D02*
X45528166Y-18587661D01*
X45528166Y-18587661D02*
X45551976Y-18540042D01*
X45551976Y-18540042D02*
X45575785Y-18516233D01*
X45575785Y-18516233D02*
X45623404Y-18492423D01*
X45623404Y-18492423D02*
X45742452Y-18492423D01*
X45742452Y-18492423D02*
X45790071Y-18516233D01*
X45790071Y-18516233D02*
X45813881Y-18540042D01*
X45813881Y-18540042D02*
X45837690Y-18587661D01*
X45837690Y-18587661D02*
X45837690Y-18706709D01*
X45837690Y-18706709D02*
X45813881Y-18754328D01*
X45813881Y-18754328D02*
X45790071Y-18778137D01*
X45587690Y-19366828D02*
X45587690Y-18379923D01*
X7630952Y-11427409D02*
X7630952Y-10927409D01*
X7630952Y-10927409D02*
X7750000Y-10927409D01*
X7750000Y-10927409D02*
X7821428Y-10951219D01*
X7821428Y-10951219D02*
X7869047Y-10998838D01*
X7869047Y-10998838D02*
X7892857Y-11046457D01*
X7892857Y-11046457D02*
X7916666Y-11141695D01*
X7916666Y-11141695D02*
X7916666Y-11213123D01*
X7916666Y-11213123D02*
X7892857Y-11308361D01*
X7892857Y-11308361D02*
X7869047Y-11355980D01*
X7869047Y-11355980D02*
X7821428Y-11403600D01*
X7821428Y-11403600D02*
X7750000Y-11427409D01*
X7750000Y-11427409D02*
X7630952Y-11427409D01*
X8345238Y-11094076D02*
X8345238Y-11427409D01*
X8226190Y-10903600D02*
X8107143Y-11260742D01*
X8107143Y-11260742D02*
X8416666Y-11260742D01*
X7518452Y-11165551D02*
X8526311Y-11165551D01*
X31462690Y-2501947D02*
X31819833Y-2501947D01*
X31819833Y-2501947D02*
X31891261Y-2525756D01*
X31891261Y-2525756D02*
X31938881Y-2573375D01*
X31938881Y-2573375D02*
X31962690Y-2644804D01*
X31962690Y-2644804D02*
X31962690Y-2692423D01*
X31510309Y-2287661D02*
X31486500Y-2263852D01*
X31486500Y-2263852D02*
X31462690Y-2216233D01*
X31462690Y-2216233D02*
X31462690Y-2097185D01*
X31462690Y-2097185D02*
X31486500Y-2049566D01*
X31486500Y-2049566D02*
X31510309Y-2025757D01*
X31510309Y-2025757D02*
X31557928Y-2001947D01*
X31557928Y-2001947D02*
X31605547Y-2001947D01*
X31605547Y-2001947D02*
X31676976Y-2025757D01*
X31676976Y-2025757D02*
X31962690Y-2311471D01*
X31962690Y-2311471D02*
X31962690Y-2001947D01*
X49587690Y-18968614D02*
X49349595Y-19135280D01*
X49587690Y-19254328D02*
X49087690Y-19254328D01*
X49087690Y-19254328D02*
X49087690Y-19063852D01*
X49087690Y-19063852D02*
X49111500Y-19016233D01*
X49111500Y-19016233D02*
X49135309Y-18992423D01*
X49135309Y-18992423D02*
X49182928Y-18968614D01*
X49182928Y-18968614D02*
X49254357Y-18968614D01*
X49254357Y-18968614D02*
X49301976Y-18992423D01*
X49301976Y-18992423D02*
X49325785Y-19016233D01*
X49325785Y-19016233D02*
X49349595Y-19063852D01*
X49349595Y-19063852D02*
X49349595Y-19254328D01*
X49087690Y-18540042D02*
X49087690Y-18635280D01*
X49087690Y-18635280D02*
X49111500Y-18682899D01*
X49111500Y-18682899D02*
X49135309Y-18706709D01*
X49135309Y-18706709D02*
X49206738Y-18754328D01*
X49206738Y-18754328D02*
X49301976Y-18778137D01*
X49301976Y-18778137D02*
X49492452Y-18778137D01*
X49492452Y-18778137D02*
X49540071Y-18754328D01*
X49540071Y-18754328D02*
X49563881Y-18730518D01*
X49563881Y-18730518D02*
X49587690Y-18682899D01*
X49587690Y-18682899D02*
X49587690Y-18587661D01*
X49587690Y-18587661D02*
X49563881Y-18540042D01*
X49563881Y-18540042D02*
X49540071Y-18516233D01*
X49540071Y-18516233D02*
X49492452Y-18492423D01*
X49492452Y-18492423D02*
X49373404Y-18492423D01*
X49373404Y-18492423D02*
X49325785Y-18516233D01*
X49325785Y-18516233D02*
X49301976Y-18540042D01*
X49301976Y-18540042D02*
X49278166Y-18587661D01*
X49278166Y-18587661D02*
X49278166Y-18682899D01*
X49278166Y-18682899D02*
X49301976Y-18730518D01*
X49301976Y-18730518D02*
X49325785Y-18754328D01*
X49325785Y-18754328D02*
X49373404Y-18778137D01*
X49337690Y-19366828D02*
X49337690Y-18379923D01*
X-49287310Y-22968614D02*
X-49525405Y-23135280D01*
X-49287310Y-23254328D02*
X-49787310Y-23254328D01*
X-49787310Y-23254328D02*
X-49787310Y-23063852D01*
X-49787310Y-23063852D02*
X-49763500Y-23016233D01*
X-49763500Y-23016233D02*
X-49739691Y-22992423D01*
X-49739691Y-22992423D02*
X-49692072Y-22968614D01*
X-49692072Y-22968614D02*
X-49620643Y-22968614D01*
X-49620643Y-22968614D02*
X-49573024Y-22992423D01*
X-49573024Y-22992423D02*
X-49549215Y-23016233D01*
X-49549215Y-23016233D02*
X-49525405Y-23063852D01*
X-49525405Y-23063852D02*
X-49525405Y-23254328D01*
X-49620643Y-22540042D02*
X-49287310Y-22540042D01*
X-49811119Y-22659090D02*
X-49453977Y-22778137D01*
X-49453977Y-22778137D02*
X-49453977Y-22468614D01*
X-49549611Y-23366828D02*
X-49549611Y-22358969D01*
X-16083334Y-18379790D02*
X-16107143Y-18403600D01*
X-16107143Y-18403600D02*
X-16178572Y-18427409D01*
X-16178572Y-18427409D02*
X-16226191Y-18427409D01*
X-16226191Y-18427409D02*
X-16297619Y-18403600D01*
X-16297619Y-18403600D02*
X-16345238Y-18355980D01*
X-16345238Y-18355980D02*
X-16369048Y-18308361D01*
X-16369048Y-18308361D02*
X-16392857Y-18213123D01*
X-16392857Y-18213123D02*
X-16392857Y-18141695D01*
X-16392857Y-18141695D02*
X-16369048Y-18046457D01*
X-16369048Y-18046457D02*
X-16345238Y-17998838D01*
X-16345238Y-17998838D02*
X-16297619Y-17951219D01*
X-16297619Y-17951219D02*
X-16226191Y-17927409D01*
X-16226191Y-17927409D02*
X-16178572Y-17927409D01*
X-16178572Y-17927409D02*
X-16107143Y-17951219D01*
X-16107143Y-17951219D02*
X-16083334Y-17975028D01*
X-15892857Y-17975028D02*
X-15869048Y-17951219D01*
X-15869048Y-17951219D02*
X-15821429Y-17927409D01*
X-15821429Y-17927409D02*
X-15702381Y-17927409D01*
X-15702381Y-17927409D02*
X-15654762Y-17951219D01*
X-15654762Y-17951219D02*
X-15630953Y-17975028D01*
X-15630953Y-17975028D02*
X-15607143Y-18022647D01*
X-15607143Y-18022647D02*
X-15607143Y-18070266D01*
X-15607143Y-18070266D02*
X-15630953Y-18141695D01*
X-15630953Y-18141695D02*
X-15916667Y-18427409D01*
X-15916667Y-18427409D02*
X-15607143Y-18427409D01*
X21727409Y-31030952D02*
X22132171Y-31030952D01*
X22132171Y-31030952D02*
X22179790Y-31007142D01*
X22179790Y-31007142D02*
X22203600Y-30983333D01*
X22203600Y-30983333D02*
X22227409Y-30935714D01*
X22227409Y-30935714D02*
X22227409Y-30840476D01*
X22227409Y-30840476D02*
X22203600Y-30792857D01*
X22203600Y-30792857D02*
X22179790Y-30769047D01*
X22179790Y-30769047D02*
X22132171Y-30745238D01*
X22132171Y-30745238D02*
X21727409Y-30745238D01*
X21775028Y-30530951D02*
X21751219Y-30507142D01*
X21751219Y-30507142D02*
X21727409Y-30459523D01*
X21727409Y-30459523D02*
X21727409Y-30340475D01*
X21727409Y-30340475D02*
X21751219Y-30292856D01*
X21751219Y-30292856D02*
X21775028Y-30269047D01*
X21775028Y-30269047D02*
X21822647Y-30245237D01*
X21822647Y-30245237D02*
X21870266Y-30245237D01*
X21870266Y-30245237D02*
X21941695Y-30269047D01*
X21941695Y-30269047D02*
X22227409Y-30554761D01*
X22227409Y-30554761D02*
X22227409Y-30245237D01*
X25827409Y-11756709D02*
X25589314Y-11923375D01*
X25827409Y-12042423D02*
X25327409Y-12042423D01*
X25327409Y-12042423D02*
X25327409Y-11851947D01*
X25327409Y-11851947D02*
X25351219Y-11804328D01*
X25351219Y-11804328D02*
X25375028Y-11780518D01*
X25375028Y-11780518D02*
X25422647Y-11756709D01*
X25422647Y-11756709D02*
X25494076Y-11756709D01*
X25494076Y-11756709D02*
X25541695Y-11780518D01*
X25541695Y-11780518D02*
X25565504Y-11804328D01*
X25565504Y-11804328D02*
X25589314Y-11851947D01*
X25589314Y-11851947D02*
X25589314Y-12042423D01*
X25827409Y-11280518D02*
X25827409Y-11566232D01*
X25827409Y-11423375D02*
X25327409Y-11423375D01*
X25327409Y-11423375D02*
X25398838Y-11470994D01*
X25398838Y-11470994D02*
X25446457Y-11518613D01*
X25446457Y-11518613D02*
X25470266Y-11566232D01*
X25327409Y-10970995D02*
X25327409Y-10923376D01*
X25327409Y-10923376D02*
X25351219Y-10875757D01*
X25351219Y-10875757D02*
X25375028Y-10851947D01*
X25375028Y-10851947D02*
X25422647Y-10828138D01*
X25422647Y-10828138D02*
X25517885Y-10804328D01*
X25517885Y-10804328D02*
X25636933Y-10804328D01*
X25636933Y-10804328D02*
X25732171Y-10828138D01*
X25732171Y-10828138D02*
X25779790Y-10851947D01*
X25779790Y-10851947D02*
X25803600Y-10875757D01*
X25803600Y-10875757D02*
X25827409Y-10923376D01*
X25827409Y-10923376D02*
X25827409Y-10970995D01*
X25827409Y-10970995D02*
X25803600Y-11018614D01*
X25803600Y-11018614D02*
X25779790Y-11042423D01*
X25779790Y-11042423D02*
X25732171Y-11066233D01*
X25732171Y-11066233D02*
X25636933Y-11090042D01*
X25636933Y-11090042D02*
X25517885Y-11090042D01*
X25517885Y-11090042D02*
X25422647Y-11066233D01*
X25422647Y-11066233D02*
X25375028Y-11042423D01*
X25375028Y-11042423D02*
X25351219Y-11018614D01*
X25351219Y-11018614D02*
X25327409Y-10970995D01*
X17679790Y-30733333D02*
X17703600Y-30757142D01*
X17703600Y-30757142D02*
X17727409Y-30828571D01*
X17727409Y-30828571D02*
X17727409Y-30876190D01*
X17727409Y-30876190D02*
X17703600Y-30947618D01*
X17703600Y-30947618D02*
X17655980Y-30995237D01*
X17655980Y-30995237D02*
X17608361Y-31019047D01*
X17608361Y-31019047D02*
X17513123Y-31042856D01*
X17513123Y-31042856D02*
X17441695Y-31042856D01*
X17441695Y-31042856D02*
X17346457Y-31019047D01*
X17346457Y-31019047D02*
X17298838Y-30995237D01*
X17298838Y-30995237D02*
X17251219Y-30947618D01*
X17251219Y-30947618D02*
X17227409Y-30876190D01*
X17227409Y-30876190D02*
X17227409Y-30828571D01*
X17227409Y-30828571D02*
X17251219Y-30757142D01*
X17251219Y-30757142D02*
X17275028Y-30733333D01*
X17441695Y-30447618D02*
X17417885Y-30495237D01*
X17417885Y-30495237D02*
X17394076Y-30519047D01*
X17394076Y-30519047D02*
X17346457Y-30542856D01*
X17346457Y-30542856D02*
X17322647Y-30542856D01*
X17322647Y-30542856D02*
X17275028Y-30519047D01*
X17275028Y-30519047D02*
X17251219Y-30495237D01*
X17251219Y-30495237D02*
X17227409Y-30447618D01*
X17227409Y-30447618D02*
X17227409Y-30352380D01*
X17227409Y-30352380D02*
X17251219Y-30304761D01*
X17251219Y-30304761D02*
X17275028Y-30280952D01*
X17275028Y-30280952D02*
X17322647Y-30257142D01*
X17322647Y-30257142D02*
X17346457Y-30257142D01*
X17346457Y-30257142D02*
X17394076Y-30280952D01*
X17394076Y-30280952D02*
X17417885Y-30304761D01*
X17417885Y-30304761D02*
X17441695Y-30352380D01*
X17441695Y-30352380D02*
X17441695Y-30447618D01*
X17441695Y-30447618D02*
X17465504Y-30495237D01*
X17465504Y-30495237D02*
X17489314Y-30519047D01*
X17489314Y-30519047D02*
X17536933Y-30542856D01*
X17536933Y-30542856D02*
X17632171Y-30542856D01*
X17632171Y-30542856D02*
X17679790Y-30519047D01*
X17679790Y-30519047D02*
X17703600Y-30495237D01*
X17703600Y-30495237D02*
X17727409Y-30447618D01*
X17727409Y-30447618D02*
X17727409Y-30352380D01*
X17727409Y-30352380D02*
X17703600Y-30304761D01*
X17703600Y-30304761D02*
X17679790Y-30280952D01*
X17679790Y-30280952D02*
X17632171Y-30257142D01*
X17632171Y-30257142D02*
X17536933Y-30257142D01*
X17536933Y-30257142D02*
X17489314Y-30280952D01*
X17489314Y-30280952D02*
X17465504Y-30304761D01*
X17465504Y-30304761D02*
X17441695Y-30352380D01*
X-53287310Y-22968614D02*
X-53525405Y-23135280D01*
X-53287310Y-23254328D02*
X-53787310Y-23254328D01*
X-53787310Y-23254328D02*
X-53787310Y-23063852D01*
X-53787310Y-23063852D02*
X-53763500Y-23016233D01*
X-53763500Y-23016233D02*
X-53739691Y-22992423D01*
X-53739691Y-22992423D02*
X-53692072Y-22968614D01*
X-53692072Y-22968614D02*
X-53620643Y-22968614D01*
X-53620643Y-22968614D02*
X-53573024Y-22992423D01*
X-53573024Y-22992423D02*
X-53549215Y-23016233D01*
X-53549215Y-23016233D02*
X-53525405Y-23063852D01*
X-53525405Y-23063852D02*
X-53525405Y-23254328D01*
X-53287310Y-22492423D02*
X-53287310Y-22778137D01*
X-53287310Y-22635280D02*
X-53787310Y-22635280D01*
X-53787310Y-22635280D02*
X-53715881Y-22682899D01*
X-53715881Y-22682899D02*
X-53668262Y-22730518D01*
X-53668262Y-22730518D02*
X-53644453Y-22778137D01*
X15916666Y-18379790D02*
X15892857Y-18403600D01*
X15892857Y-18403600D02*
X15821428Y-18427409D01*
X15821428Y-18427409D02*
X15773809Y-18427409D01*
X15773809Y-18427409D02*
X15702381Y-18403600D01*
X15702381Y-18403600D02*
X15654762Y-18355980D01*
X15654762Y-18355980D02*
X15630952Y-18308361D01*
X15630952Y-18308361D02*
X15607143Y-18213123D01*
X15607143Y-18213123D02*
X15607143Y-18141695D01*
X15607143Y-18141695D02*
X15630952Y-18046457D01*
X15630952Y-18046457D02*
X15654762Y-17998838D01*
X15654762Y-17998838D02*
X15702381Y-17951219D01*
X15702381Y-17951219D02*
X15773809Y-17927409D01*
X15773809Y-17927409D02*
X15821428Y-17927409D01*
X15821428Y-17927409D02*
X15892857Y-17951219D01*
X15892857Y-17951219D02*
X15916666Y-17975028D01*
X16345238Y-17927409D02*
X16250000Y-17927409D01*
X16250000Y-17927409D02*
X16202381Y-17951219D01*
X16202381Y-17951219D02*
X16178571Y-17975028D01*
X16178571Y-17975028D02*
X16130952Y-18046457D01*
X16130952Y-18046457D02*
X16107143Y-18141695D01*
X16107143Y-18141695D02*
X16107143Y-18332171D01*
X16107143Y-18332171D02*
X16130952Y-18379790D01*
X16130952Y-18379790D02*
X16154762Y-18403600D01*
X16154762Y-18403600D02*
X16202381Y-18427409D01*
X16202381Y-18427409D02*
X16297619Y-18427409D01*
X16297619Y-18427409D02*
X16345238Y-18403600D01*
X16345238Y-18403600D02*
X16369047Y-18379790D01*
X16369047Y-18379790D02*
X16392857Y-18332171D01*
X16392857Y-18332171D02*
X16392857Y-18213123D01*
X16392857Y-18213123D02*
X16369047Y-18165504D01*
X16369047Y-18165504D02*
X16345238Y-18141695D01*
X16345238Y-18141695D02*
X16297619Y-18117885D01*
X16297619Y-18117885D02*
X16202381Y-18117885D01*
X16202381Y-18117885D02*
X16154762Y-18141695D01*
X16154762Y-18141695D02*
X16130952Y-18165504D01*
X16130952Y-18165504D02*
X16107143Y-18213123D01*
X15494643Y-18177409D02*
X16505357Y-18177409D01*
X-369048Y-11427409D02*
X-369048Y-10927409D01*
X-369048Y-10927409D02*
X-250000Y-10927409D01*
X-250000Y-10927409D02*
X-178572Y-10951219D01*
X-178572Y-10951219D02*
X-130953Y-10998838D01*
X-130953Y-10998838D02*
X-107143Y-11046457D01*
X-107143Y-11046457D02*
X-83334Y-11141695D01*
X-83334Y-11141695D02*
X-83334Y-11213123D01*
X-83334Y-11213123D02*
X-107143Y-11308361D01*
X-107143Y-11308361D02*
X-130953Y-11355980D01*
X-130953Y-11355980D02*
X-178572Y-11403600D01*
X-178572Y-11403600D02*
X-250000Y-11427409D01*
X-250000Y-11427409D02*
X-369048Y-11427409D01*
X83333Y-10927409D02*
X392857Y-10927409D01*
X392857Y-10927409D02*
X226190Y-11117885D01*
X226190Y-11117885D02*
X297619Y-11117885D01*
X297619Y-11117885D02*
X345238Y-11141695D01*
X345238Y-11141695D02*
X369047Y-11165504D01*
X369047Y-11165504D02*
X392857Y-11213123D01*
X392857Y-11213123D02*
X392857Y-11332171D01*
X392857Y-11332171D02*
X369047Y-11379790D01*
X369047Y-11379790D02*
X345238Y-11403600D01*
X345238Y-11403600D02*
X297619Y-11427409D01*
X297619Y-11427409D02*
X154762Y-11427409D01*
X154762Y-11427409D02*
X107143Y-11403600D01*
X107143Y-11403600D02*
X83333Y-11379790D01*
X-481548Y-11177409D02*
X505357Y-11177409D01*
X-666666Y-30603600D02*
X-595238Y-30627409D01*
X-595238Y-30627409D02*
X-476190Y-30627409D01*
X-476190Y-30627409D02*
X-428571Y-30603600D01*
X-428571Y-30603600D02*
X-404762Y-30579790D01*
X-404762Y-30579790D02*
X-380952Y-30532171D01*
X-380952Y-30532171D02*
X-380952Y-30484552D01*
X-380952Y-30484552D02*
X-404762Y-30436933D01*
X-404762Y-30436933D02*
X-428571Y-30413123D01*
X-428571Y-30413123D02*
X-476190Y-30389314D01*
X-476190Y-30389314D02*
X-571428Y-30365504D01*
X-571428Y-30365504D02*
X-619047Y-30341695D01*
X-619047Y-30341695D02*
X-642857Y-30317885D01*
X-642857Y-30317885D02*
X-666666Y-30270266D01*
X-666666Y-30270266D02*
X-666666Y-30222647D01*
X-666666Y-30222647D02*
X-642857Y-30175028D01*
X-642857Y-30175028D02*
X-619047Y-30151219D01*
X-619047Y-30151219D02*
X-571428Y-30127409D01*
X-571428Y-30127409D02*
X-452381Y-30127409D01*
X-452381Y-30127409D02*
X-380952Y-30151219D01*
X-214286Y-30127409D02*
X-95238Y-30627409D01*
X-95238Y-30627409D02*
X0Y-30270266D01*
X0Y-30270266D02*
X95238Y-30627409D01*
X95238Y-30627409D02*
X214286Y-30127409D01*
X666667Y-30627409D02*
X380953Y-30627409D01*
X523810Y-30627409D02*
X523810Y-30127409D01*
X523810Y-30127409D02*
X476191Y-30198838D01*
X476191Y-30198838D02*
X428572Y-30246457D01*
X428572Y-30246457D02*
X380953Y-30270266D01*
X-49162310Y-6968614D02*
X-49400405Y-7135280D01*
X-49162310Y-7254328D02*
X-49662310Y-7254328D01*
X-49662310Y-7254328D02*
X-49662310Y-7063852D01*
X-49662310Y-7063852D02*
X-49638500Y-7016233D01*
X-49638500Y-7016233D02*
X-49614691Y-6992423D01*
X-49614691Y-6992423D02*
X-49567072Y-6968614D01*
X-49567072Y-6968614D02*
X-49495643Y-6968614D01*
X-49495643Y-6968614D02*
X-49448024Y-6992423D01*
X-49448024Y-6992423D02*
X-49424215Y-7016233D01*
X-49424215Y-7016233D02*
X-49400405Y-7063852D01*
X-49400405Y-7063852D02*
X-49400405Y-7254328D01*
X-49662310Y-6801947D02*
X-49662310Y-6492423D01*
X-49662310Y-6492423D02*
X-49471834Y-6659090D01*
X-49471834Y-6659090D02*
X-49471834Y-6587661D01*
X-49471834Y-6587661D02*
X-49448024Y-6540042D01*
X-49448024Y-6540042D02*
X-49424215Y-6516233D01*
X-49424215Y-6516233D02*
X-49376596Y-6492423D01*
X-49376596Y-6492423D02*
X-49257548Y-6492423D01*
X-49257548Y-6492423D02*
X-49209929Y-6516233D01*
X-49209929Y-6516233D02*
X-49186119Y-6540042D01*
X-49186119Y-6540042D02*
X-49162310Y-6587661D01*
X-49162310Y-6587661D02*
X-49162310Y-6730518D01*
X-49162310Y-6730518D02*
X-49186119Y-6778137D01*
X-49186119Y-6778137D02*
X-49209929Y-6801947D01*
X-49412310Y-7366828D02*
X-49412310Y-6379923D01*
X-8369048Y-11427409D02*
X-8369048Y-10927409D01*
X-8369048Y-10927409D02*
X-8250000Y-10927409D01*
X-8250000Y-10927409D02*
X-8178572Y-10951219D01*
X-8178572Y-10951219D02*
X-8130953Y-10998838D01*
X-8130953Y-10998838D02*
X-8107143Y-11046457D01*
X-8107143Y-11046457D02*
X-8083334Y-11141695D01*
X-8083334Y-11141695D02*
X-8083334Y-11213123D01*
X-8083334Y-11213123D02*
X-8107143Y-11308361D01*
X-8107143Y-11308361D02*
X-8130953Y-11355980D01*
X-8130953Y-11355980D02*
X-8178572Y-11403600D01*
X-8178572Y-11403600D02*
X-8250000Y-11427409D01*
X-8250000Y-11427409D02*
X-8369048Y-11427409D01*
X-7892857Y-10975028D02*
X-7869048Y-10951219D01*
X-7869048Y-10951219D02*
X-7821429Y-10927409D01*
X-7821429Y-10927409D02*
X-7702381Y-10927409D01*
X-7702381Y-10927409D02*
X-7654762Y-10951219D01*
X-7654762Y-10951219D02*
X-7630953Y-10975028D01*
X-7630953Y-10975028D02*
X-7607143Y-11022647D01*
X-7607143Y-11022647D02*
X-7607143Y-11070266D01*
X-7607143Y-11070266D02*
X-7630953Y-11141695D01*
X-7630953Y-11141695D02*
X-7916667Y-11427409D01*
X-7916667Y-11427409D02*
X-7607143Y-11427409D01*
X-8481548Y-11177409D02*
X-7494643Y-11177409D01*
X-8083334Y-18379790D02*
X-8107143Y-18403600D01*
X-8107143Y-18403600D02*
X-8178572Y-18427409D01*
X-8178572Y-18427409D02*
X-8226191Y-18427409D01*
X-8226191Y-18427409D02*
X-8297619Y-18403600D01*
X-8297619Y-18403600D02*
X-8345238Y-18355980D01*
X-8345238Y-18355980D02*
X-8369048Y-18308361D01*
X-8369048Y-18308361D02*
X-8392857Y-18213123D01*
X-8392857Y-18213123D02*
X-8392857Y-18141695D01*
X-8392857Y-18141695D02*
X-8369048Y-18046457D01*
X-8369048Y-18046457D02*
X-8345238Y-17998838D01*
X-8345238Y-17998838D02*
X-8297619Y-17951219D01*
X-8297619Y-17951219D02*
X-8226191Y-17927409D01*
X-8226191Y-17927409D02*
X-8178572Y-17927409D01*
X-8178572Y-17927409D02*
X-8107143Y-17951219D01*
X-8107143Y-17951219D02*
X-8083334Y-17975028D01*
X-7916667Y-17927409D02*
X-7607143Y-17927409D01*
X-7607143Y-17927409D02*
X-7773810Y-18117885D01*
X-7773810Y-18117885D02*
X-7702381Y-18117885D01*
X-7702381Y-18117885D02*
X-7654762Y-18141695D01*
X-7654762Y-18141695D02*
X-7630953Y-18165504D01*
X-7630953Y-18165504D02*
X-7607143Y-18213123D01*
X-7607143Y-18213123D02*
X-7607143Y-18332171D01*
X-7607143Y-18332171D02*
X-7630953Y-18379790D01*
X-7630953Y-18379790D02*
X-7654762Y-18403600D01*
X-7654762Y-18403600D02*
X-7702381Y-18427409D01*
X-7702381Y-18427409D02*
X-7845238Y-18427409D01*
X-7845238Y-18427409D02*
X-7892857Y-18403600D01*
X-7892857Y-18403600D02*
X-7916667Y-18379790D01*
X-8505357Y-18177409D02*
X-7494643Y-18177409D01*
D11*
X-22280477Y-5734580D02*
X-22328096Y-5782200D01*
X-22328096Y-5782200D02*
X-22470953Y-5829819D01*
X-22470953Y-5829819D02*
X-22566191Y-5829819D01*
X-22566191Y-5829819D02*
X-22709048Y-5782200D01*
X-22709048Y-5782200D02*
X-22804286Y-5686961D01*
X-22804286Y-5686961D02*
X-22851905Y-5591723D01*
X-22851905Y-5591723D02*
X-22899524Y-5401247D01*
X-22899524Y-5401247D02*
X-22899524Y-5258390D01*
X-22899524Y-5258390D02*
X-22851905Y-5067914D01*
X-22851905Y-5067914D02*
X-22804286Y-4972676D01*
X-22804286Y-4972676D02*
X-22709048Y-4877438D01*
X-22709048Y-4877438D02*
X-22566191Y-4829819D01*
X-22566191Y-4829819D02*
X-22470953Y-4829819D01*
X-22470953Y-4829819D02*
X-22328096Y-4877438D01*
X-22328096Y-4877438D02*
X-22280477Y-4925057D01*
X-21851905Y-5829819D02*
X-21851905Y-4829819D01*
X-21851905Y-4829819D02*
X-21280477Y-5829819D01*
X-21280477Y-5829819D02*
X-21280477Y-4829819D01*
X-20280477Y-5829819D02*
X-20851905Y-5829819D01*
X-20566191Y-5829819D02*
X-20566191Y-4829819D01*
X-20566191Y-4829819D02*
X-20661429Y-4972676D01*
X-20661429Y-4972676D02*
X-20756667Y-5067914D01*
X-20756667Y-5067914D02*
X-20851905Y-5115533D01*
D10*
X53227409Y2216667D02*
X52989314Y2050001D01*
X53227409Y1930953D02*
X52727409Y1930953D01*
X52727409Y1930953D02*
X52727409Y2121429D01*
X52727409Y2121429D02*
X52751219Y2169048D01*
X52751219Y2169048D02*
X52775028Y2192858D01*
X52775028Y2192858D02*
X52822647Y2216667D01*
X52822647Y2216667D02*
X52894076Y2216667D01*
X52894076Y2216667D02*
X52941695Y2192858D01*
X52941695Y2192858D02*
X52965504Y2169048D01*
X52965504Y2169048D02*
X52989314Y2121429D01*
X52989314Y2121429D02*
X52989314Y1930953D01*
X52941695Y2502382D02*
X52917885Y2454763D01*
X52917885Y2454763D02*
X52894076Y2430953D01*
X52894076Y2430953D02*
X52846457Y2407144D01*
X52846457Y2407144D02*
X52822647Y2407144D01*
X52822647Y2407144D02*
X52775028Y2430953D01*
X52775028Y2430953D02*
X52751219Y2454763D01*
X52751219Y2454763D02*
X52727409Y2502382D01*
X52727409Y2502382D02*
X52727409Y2597620D01*
X52727409Y2597620D02*
X52751219Y2645239D01*
X52751219Y2645239D02*
X52775028Y2669048D01*
X52775028Y2669048D02*
X52822647Y2692858D01*
X52822647Y2692858D02*
X52846457Y2692858D01*
X52846457Y2692858D02*
X52894076Y2669048D01*
X52894076Y2669048D02*
X52917885Y2645239D01*
X52917885Y2645239D02*
X52941695Y2597620D01*
X52941695Y2597620D02*
X52941695Y2502382D01*
X52941695Y2502382D02*
X52965504Y2454763D01*
X52965504Y2454763D02*
X52989314Y2430953D01*
X52989314Y2430953D02*
X53036933Y2407144D01*
X53036933Y2407144D02*
X53132171Y2407144D01*
X53132171Y2407144D02*
X53179790Y2430953D01*
X53179790Y2430953D02*
X53203600Y2454763D01*
X53203600Y2454763D02*
X53227409Y2502382D01*
X53227409Y2502382D02*
X53227409Y2597620D01*
X53227409Y2597620D02*
X53203600Y2645239D01*
X53203600Y2645239D02*
X53179790Y2669048D01*
X53179790Y2669048D02*
X53132171Y2692858D01*
X53132171Y2692858D02*
X53036933Y2692858D01*
X53036933Y2692858D02*
X52989314Y2669048D01*
X52989314Y2669048D02*
X52965504Y2645239D01*
X52965504Y2645239D02*
X52941695Y2597620D01*
X52977409Y1818453D02*
X52977409Y2805358D01*
%TO.C,Q1*%
X20337500Y-24620000D02*
G75*
G02*
X20262500Y-24620000I-37500J0D01*
G01*
X20262500Y-24620000D02*
G75*
G02*
X20337500Y-24620000I37500J0D01*
G01*
%TO.C,S5*%
D12*
X31505000Y-20050000D02*
G75*
G02*
X31355000Y-20050000I-75000J0D01*
G01*
X31355000Y-20050000D02*
G75*
G02*
X31505000Y-20050000I75000J0D01*
G01*
%TO.C,S8*%
X38925000Y5070000D02*
G75*
G02*
X38775000Y5070000I-75000J0D01*
G01*
X38775000Y5070000D02*
G75*
G02*
X38925000Y5070000I75000J0D01*
G01*
%TO.C,CN3*%
X2780000Y0D02*
G75*
G02*
X-2780000Y0I-2780000J0D01*
G01*
X-2780000Y0D02*
G75*
G02*
X2780000Y0I2780000J0D01*
G01*
%TO.C,D6*%
X21450000Y-11680281D02*
X21850000Y-11080281D01*
X21850000Y-10735281D02*
X21850000Y-11080281D01*
X21850000Y-11080281D02*
X21300000Y-11080281D01*
X21850000Y-11080281D02*
X22250000Y-11680281D01*
X21850000Y-11080281D02*
X22400000Y-11080281D01*
X21850000Y-11685281D02*
X21850000Y-12135281D01*
X22250000Y-11685281D02*
X21450000Y-11685281D01*
D10*
X22887500Y-9685281D02*
G75*
G02*
X22812500Y-9685281I-37500J0D01*
G01*
X22812500Y-9685281D02*
G75*
G02*
X22887500Y-9685281I37500J0D01*
G01*
%TO.C,S6*%
D12*
X39505000Y-12050000D02*
G75*
G02*
X39355000Y-12050000I-75000J0D01*
G01*
X39355000Y-12050000D02*
G75*
G02*
X39505000Y-12050000I75000J0D01*
G01*
%TO.C,CN5*%
X24370000Y0D02*
G75*
G02*
X18810000Y0I-2780000J0D01*
G01*
X18810000Y0D02*
G75*
G02*
X24370000Y0I2780000J0D01*
G01*
%TO.C,S1*%
D10*
X-52532500Y-16050000D02*
G75*
G02*
X-52607500Y-16050000I-37500J0D01*
G01*
X-52607500Y-16050000D02*
G75*
G02*
X-52532500Y-16050000I37500J0D01*
G01*
%TO.C,S7*%
D12*
X-38775000Y5130000D02*
G75*
G02*
X-38925000Y5130000I-75000J0D01*
G01*
X-38925000Y5130000D02*
G75*
G02*
X-38775000Y5130000I75000J0D01*
G01*
%TO.C,CN2*%
X-8650000Y0D02*
G75*
G02*
X-14210000Y0I-2780000J0D01*
G01*
X-14210000Y0D02*
G75*
G02*
X-8650000Y0I2780000J0D01*
G01*
%TO.C,CN4*%
X14210000Y0D02*
G75*
G02*
X8650000Y0I-2780000J0D01*
G01*
X8650000Y0D02*
G75*
G02*
X14210000Y0I2780000J0D01*
G01*
%TO.C,U1*%
X-22122319Y-28393400D02*
X-22122319Y-30095200D01*
X-22122319Y-30095200D02*
X-22122319Y-30704800D01*
X-22122319Y-30704800D02*
X-22122319Y-32406600D01*
X-22122319Y-32406600D02*
X-12114719Y-32406600D01*
X-21817519Y-28393400D02*
X-21309519Y-28393400D01*
X-21309519Y-32406600D02*
X-21817519Y-32406600D01*
X-20547519Y-28393400D02*
X-20039519Y-28393400D01*
X-20039519Y-32406600D02*
X-20547519Y-32406600D01*
X-19277519Y-28393400D02*
X-18769519Y-28393400D01*
X-18769519Y-32406600D02*
X-19277519Y-32406600D01*
X-18007519Y-28393400D02*
X-17499519Y-28393400D01*
X-17499519Y-32406600D02*
X-18007519Y-32406600D01*
X-16737519Y-28393400D02*
X-16229519Y-28393400D01*
X-16229519Y-32406600D02*
X-16737519Y-32406600D01*
X-15467519Y-28393400D02*
X-14959519Y-28393400D01*
X-14959519Y-32406600D02*
X-15467519Y-32406600D01*
X-14197519Y-28393400D02*
X-13689519Y-28393400D01*
X-13689519Y-32406600D02*
X-14197519Y-32406600D01*
X-12927519Y-28393400D02*
X-12419519Y-28393400D01*
X-12419519Y-32406600D02*
X-12927519Y-32406600D01*
X-12114719Y-28393400D02*
X-22122319Y-28393400D01*
X-12114719Y-32406600D02*
X-12114719Y-28393400D01*
X-22122319Y-29892400D02*
G75*
G02*
X-22122319Y-30907600I0J-507600D01*
G01*
D10*
X-22212300Y-33195514D02*
G75*
G02*
X-22287300Y-33195514I-37500J0D01*
G01*
X-22287300Y-33195514D02*
G75*
G02*
X-22212300Y-33195514I37500J0D01*
G01*
%TO.C,S2*%
D12*
X-44495000Y-8050000D02*
G75*
G02*
X-44645000Y-8050000I-75000J0D01*
G01*
X-44645000Y-8050000D02*
G75*
G02*
X-44495000Y-8050000I75000J0D01*
G01*
%TO.C,J2*%
D10*
X30922781Y-3360281D02*
G75*
G02*
X30847781Y-3360281I-37500J0D01*
G01*
X30847781Y-3360281D02*
G75*
G02*
X30922781Y-3360281I37500J0D01*
G01*
%TO.C,S4*%
D12*
X-44495000Y-24050000D02*
G75*
G02*
X-44645000Y-24050000I-75000J0D01*
G01*
X-44645000Y-24050000D02*
G75*
G02*
X-44495000Y-24050000I75000J0D01*
G01*
%TO.C,SW1*%
D10*
X-3412500Y-27050000D02*
G75*
G02*
X-3487500Y-27050000I-37500J0D01*
G01*
X-3487500Y-27050000D02*
G75*
G02*
X-3412500Y-27050000I37500J0D01*
G01*
%TO.C,S3*%
D12*
X-36495000Y-16050000D02*
G75*
G02*
X-36645000Y-16050000I-75000J0D01*
G01*
X-36645000Y-16050000D02*
G75*
G02*
X-36495000Y-16050000I75000J0D01*
G01*
%TO.C,CN1*%
X-18810000Y0D02*
G75*
G02*
X-24370000Y0I-2780000J0D01*
G01*
X-24370000Y0D02*
G75*
G02*
X-18810000Y0I2780000J0D01*
G01*
%TD*%
D13*
X14764543Y-13932142D02*
X14764543Y-14417857D01*
X14764543Y-14175000D02*
X13914543Y-14175000D01*
X13914543Y-14175000D02*
X14035971Y-14255952D01*
X14035971Y-14255952D02*
X14116924Y-14336904D01*
X14116924Y-14336904D02*
X14157400Y-14417857D01*
D12*
X14000000Y-15450000D02*
X13904329Y-15430970D01*
X13823223Y-15376777D01*
X13769030Y-15295671D01*
X13750000Y-15200000D01*
X13750000Y-13150000D01*
X13769030Y-13054329D01*
X13823223Y-12973223D01*
X13904329Y-12919030D01*
X14000000Y-12900000D01*
X14750000Y-12900000D01*
X14845671Y-12919030D01*
X14926777Y-12973223D01*
X14980970Y-13054329D01*
X15000000Y-13150000D01*
X15000000Y-15200000D01*
X14980970Y-15295671D01*
X14926777Y-15376777D01*
X14845671Y-15430970D01*
X14750000Y-15450000D01*
X14000000Y-15450000D01*
D13*
X17245495Y-14417857D02*
X17205019Y-14377381D01*
X17205019Y-14377381D02*
X17164543Y-14296428D01*
X17164543Y-14296428D02*
X17164543Y-14094047D01*
X17164543Y-14094047D02*
X17205019Y-14013095D01*
X17205019Y-14013095D02*
X17245495Y-13972619D01*
X17245495Y-13972619D02*
X17326447Y-13932142D01*
X17326447Y-13932142D02*
X17407400Y-13932142D01*
X17407400Y-13932142D02*
X17528828Y-13972619D01*
X17528828Y-13972619D02*
X18014543Y-14458333D01*
X18014543Y-14458333D02*
X18014543Y-13932142D01*
D12*
X17250000Y-15450000D02*
X17154329Y-15430970D01*
X17073223Y-15376777D01*
X17019030Y-15295671D01*
X17000000Y-15200000D01*
X17000000Y-13150000D01*
X17019030Y-13054329D01*
X17073223Y-12973223D01*
X17154329Y-12919030D01*
X17250000Y-12900000D01*
X18000000Y-12900000D01*
X18095671Y-12919030D01*
X18176777Y-12973223D01*
X18230970Y-13054329D01*
X18250000Y-13150000D01*
X18250000Y-15200000D01*
X18230970Y-15295671D01*
X18176777Y-15376777D01*
X18095671Y-15430970D01*
X18000000Y-15450000D01*
X17250000Y-15450000D01*
D13*
X17164543Y-8508333D02*
X17164543Y-7982142D01*
X17164543Y-7982142D02*
X17488352Y-8265476D01*
X17488352Y-8265476D02*
X17488352Y-8144047D01*
X17488352Y-8144047D02*
X17528828Y-8063095D01*
X17528828Y-8063095D02*
X17569305Y-8022619D01*
X17569305Y-8022619D02*
X17650257Y-7982142D01*
X17650257Y-7982142D02*
X17852638Y-7982142D01*
X17852638Y-7982142D02*
X17933590Y-8022619D01*
X17933590Y-8022619D02*
X17974067Y-8063095D01*
X17974067Y-8063095D02*
X18014543Y-8144047D01*
X18014543Y-8144047D02*
X18014543Y-8386904D01*
X18014543Y-8386904D02*
X17974067Y-8467857D01*
X17974067Y-8467857D02*
X17933590Y-8508333D01*
D12*
X17250000Y-9500000D02*
X17154329Y-9480970D01*
X17073223Y-9426777D01*
X17019030Y-9345671D01*
X17000000Y-9250000D01*
X17000000Y-7200000D01*
X17019030Y-7104329D01*
X17073223Y-7023223D01*
X17154329Y-6969030D01*
X17250000Y-6950000D01*
X18000000Y-6950000D01*
X18095671Y-6969030D01*
X18176777Y-7023223D01*
X18230970Y-7104329D01*
X18250000Y-7200000D01*
X18250000Y-9250000D01*
X18230970Y-9345671D01*
X18176777Y-9426777D01*
X18095671Y-9480970D01*
X18000000Y-9500000D01*
X17250000Y-9500000D01*
D13*
X14197876Y-8063095D02*
X14764543Y-8063095D01*
X13874067Y-8265476D02*
X14481209Y-8467857D01*
X14481209Y-8467857D02*
X14481209Y-7941666D01*
D12*
X14000000Y-9500000D02*
X13904329Y-9480970D01*
X13823223Y-9426777D01*
X13769030Y-9345671D01*
X13750000Y-9250000D01*
X13750000Y-7200000D01*
X13769030Y-7104329D01*
X13823223Y-7023223D01*
X13904329Y-6969030D01*
X14000000Y-6950000D01*
X14750000Y-6950000D01*
X14845671Y-6969030D01*
X14926777Y-7023223D01*
X14980970Y-7104329D01*
X15000000Y-7200000D01*
X15000000Y-9250000D01*
X14980970Y-9345671D01*
X14926777Y-9426777D01*
X14845671Y-9480970D01*
X14750000Y-9500000D01*
X14000000Y-9500000D01*
X13095000Y-6950000D02*
X18575000Y-15450000D01*
X18575000Y-6950000D02*
X13095000Y-15450000D01*
D14*
X21279142Y-24212142D02*
X21279142Y-24497856D01*
X21279142Y-24354999D02*
X20779142Y-24354999D01*
X20779142Y-24354999D02*
X20850571Y-24402618D01*
X20850571Y-24402618D02*
X20898190Y-24450237D01*
X20898190Y-24450237D02*
X20921999Y-24497856D01*
D12*
X20887500Y-25105000D02*
X20825314Y-25092630D01*
X20772595Y-25057405D01*
X20737370Y-25004686D01*
X20725000Y-24942500D01*
X20725000Y-23767500D01*
X20737370Y-23705314D01*
X20772595Y-23652595D01*
X20825314Y-23617370D01*
X20887500Y-23605000D01*
X21212500Y-23605000D01*
X21274686Y-23617370D01*
X21327405Y-23652595D01*
X21362630Y-23705314D01*
X21375000Y-23767500D01*
X21375000Y-24942500D01*
X21362630Y-25004686D01*
X21327405Y-25057405D01*
X21274686Y-25092630D01*
X21212500Y-25105000D01*
X20887500Y-25105000D01*
D14*
X22714261Y-24497856D02*
X22690452Y-24474047D01*
X22690452Y-24474047D02*
X22666642Y-24426428D01*
X22666642Y-24426428D02*
X22666642Y-24307380D01*
X22666642Y-24307380D02*
X22690452Y-24259761D01*
X22690452Y-24259761D02*
X22714261Y-24235952D01*
X22714261Y-24235952D02*
X22761880Y-24212142D01*
X22761880Y-24212142D02*
X22809499Y-24212142D01*
X22809499Y-24212142D02*
X22880928Y-24235952D01*
X22880928Y-24235952D02*
X23166642Y-24521666D01*
X23166642Y-24521666D02*
X23166642Y-24212142D01*
D12*
X22775000Y-25105000D02*
X22712814Y-25092630D01*
X22660095Y-25057405D01*
X22624870Y-25004686D01*
X22612500Y-24942500D01*
X22612500Y-23767500D01*
X22624870Y-23705314D01*
X22660095Y-23652595D01*
X22712814Y-23617370D01*
X22775000Y-23605000D01*
X23100000Y-23605000D01*
X23162186Y-23617370D01*
X23214905Y-23652595D01*
X23250130Y-23705314D01*
X23262500Y-23767500D01*
X23262500Y-24942500D01*
X23250130Y-25004686D01*
X23214905Y-25057405D01*
X23162186Y-25092630D01*
X23100000Y-25105000D01*
X22775000Y-25105000D01*
D14*
X21729142Y-21611666D02*
X21729142Y-21302142D01*
X21729142Y-21302142D02*
X21919618Y-21468809D01*
X21919618Y-21468809D02*
X21919618Y-21397380D01*
X21919618Y-21397380D02*
X21943428Y-21349761D01*
X21943428Y-21349761D02*
X21967237Y-21325952D01*
X21967237Y-21325952D02*
X22014856Y-21302142D01*
X22014856Y-21302142D02*
X22133904Y-21302142D01*
X22133904Y-21302142D02*
X22181523Y-21325952D01*
X22181523Y-21325952D02*
X22205333Y-21349761D01*
X22205333Y-21349761D02*
X22229142Y-21397380D01*
X22229142Y-21397380D02*
X22229142Y-21540237D01*
X22229142Y-21540237D02*
X22205333Y-21587856D01*
X22205333Y-21587856D02*
X22181523Y-21611666D01*
D12*
X21837500Y-22195000D02*
X21775314Y-22182630D01*
X21722595Y-22147405D01*
X21687370Y-22094686D01*
X21675000Y-22032500D01*
X21675000Y-20857500D01*
X21687370Y-20795314D01*
X21722595Y-20742595D01*
X21775314Y-20707370D01*
X21837500Y-20695000D01*
X22162500Y-20695000D01*
X22224686Y-20707370D01*
X22277405Y-20742595D01*
X22312630Y-20795314D01*
X22325000Y-20857500D01*
X22325000Y-22032500D01*
X22312630Y-22094686D01*
X22277405Y-22147405D01*
X22224686Y-22182630D01*
X22162500Y-22195000D01*
X21837500Y-22195000D01*
D15*
X31650000Y-16970799D02*
X31250000Y-16970799D01*
X31450000Y-16970799D02*
X31450000Y-16270799D01*
X31450000Y-16270799D02*
X31383333Y-16370799D01*
X31383333Y-16370799D02*
X31316667Y-16437466D01*
X31316667Y-16437466D02*
X31250000Y-16470799D01*
D12*
X30400000Y-16200000D02*
X30419030Y-16104329D01*
X30473223Y-16023223D01*
X30554329Y-15969030D01*
X30650000Y-15950000D01*
X32250000Y-15950000D01*
X32345671Y-15969030D01*
X32426777Y-16023223D01*
X32480970Y-16104329D01*
X32500000Y-16200000D01*
X32500000Y-17100000D01*
X32480970Y-17195671D01*
X32426777Y-17276777D01*
X32345671Y-17330970D01*
X32250000Y-17350000D01*
X30650000Y-17350000D01*
X30554329Y-17330970D01*
X30473223Y-17276777D01*
X30419030Y-17195671D01*
X30400000Y-17100000D01*
X30400000Y-16200000D01*
D15*
X31250000Y-20837466D02*
X31283333Y-20804132D01*
X31283333Y-20804132D02*
X31350000Y-20770799D01*
X31350000Y-20770799D02*
X31516667Y-20770799D01*
X31516667Y-20770799D02*
X31583333Y-20804132D01*
X31583333Y-20804132D02*
X31616667Y-20837466D01*
X31616667Y-20837466D02*
X31650000Y-20904132D01*
X31650000Y-20904132D02*
X31650000Y-20970799D01*
X31650000Y-20970799D02*
X31616667Y-21070799D01*
X31616667Y-21070799D02*
X31216667Y-21470799D01*
X31216667Y-21470799D02*
X31650000Y-21470799D01*
D12*
X30400000Y-20700000D02*
X30419030Y-20604329D01*
X30473223Y-20523223D01*
X30554329Y-20469030D01*
X30650000Y-20450000D01*
X32250000Y-20450000D01*
X32345671Y-20469030D01*
X32426777Y-20523223D01*
X32480970Y-20604329D01*
X32500000Y-20700000D01*
X32500000Y-21600000D01*
X32480970Y-21695671D01*
X32426777Y-21776777D01*
X32345671Y-21830970D01*
X32250000Y-21850000D01*
X30650000Y-21850000D01*
X30554329Y-21830970D01*
X30473223Y-21776777D01*
X30419030Y-21695671D01*
X30400000Y-21600000D01*
X30400000Y-20700000D01*
D15*
X40316667Y-16270799D02*
X40750000Y-16270799D01*
X40750000Y-16270799D02*
X40516667Y-16537466D01*
X40516667Y-16537466D02*
X40616667Y-16537466D01*
X40616667Y-16537466D02*
X40683333Y-16570799D01*
X40683333Y-16570799D02*
X40716667Y-16604132D01*
X40716667Y-16604132D02*
X40750000Y-16670799D01*
X40750000Y-16670799D02*
X40750000Y-16837466D01*
X40750000Y-16837466D02*
X40716667Y-16904132D01*
X40716667Y-16904132D02*
X40683333Y-16937466D01*
X40683333Y-16937466D02*
X40616667Y-16970799D01*
X40616667Y-16970799D02*
X40416667Y-16970799D01*
X40416667Y-16970799D02*
X40350000Y-16937466D01*
X40350000Y-16937466D02*
X40316667Y-16904132D01*
D12*
X39500000Y-16200000D02*
X39519030Y-16104329D01*
X39573223Y-16023223D01*
X39654329Y-15969030D01*
X39750000Y-15950000D01*
X41350000Y-15950000D01*
X41445671Y-15969030D01*
X41526777Y-16023223D01*
X41580970Y-16104329D01*
X41600000Y-16200000D01*
X41600000Y-17100000D01*
X41580970Y-17195671D01*
X41526777Y-17276777D01*
X41445671Y-17330970D01*
X41350000Y-17350000D01*
X39750000Y-17350000D01*
X39654329Y-17330970D01*
X39573223Y-17276777D01*
X39519030Y-17195671D01*
X39500000Y-17100000D01*
X39500000Y-16200000D01*
D15*
X40683333Y-21004132D02*
X40683333Y-21470799D01*
X40516667Y-20737466D02*
X40350000Y-21237466D01*
X40350000Y-21237466D02*
X40783333Y-21237466D01*
D12*
X39500000Y-20700000D02*
X39519030Y-20604329D01*
X39573223Y-20523223D01*
X39654329Y-20469030D01*
X39750000Y-20450000D01*
X41350000Y-20450000D01*
X41445671Y-20469030D01*
X41526777Y-20523223D01*
X41580970Y-20604329D01*
X41600000Y-20700000D01*
X41600000Y-21600000D01*
X41580970Y-21695671D01*
X41526777Y-21776777D01*
X41445671Y-21830970D01*
X41350000Y-21850000D01*
X39750000Y-21850000D01*
X39654329Y-21830970D01*
X39573223Y-21776777D01*
X39519030Y-21695671D01*
X39500000Y-21600000D01*
X39500000Y-20700000D01*
X30105000Y-15605000D02*
X41895000Y-22195000D01*
X41895000Y-15605000D02*
X30105000Y-22195000D01*
X37000000Y8250000D02*
X36980970Y8154329D01*
X36926777Y8073223D01*
X36845671Y8019030D01*
X36750000Y8000000D01*
X34850000Y8000000D01*
X34754329Y8019030D01*
X34673223Y8073223D01*
X34619030Y8154329D01*
X34600000Y8250000D01*
X34600000Y9350000D01*
X34619030Y9445671D01*
X34673223Y9526777D01*
X34754329Y9580970D01*
X34850000Y9600000D01*
X36750000Y9600000D01*
X36845671Y9580970D01*
X36926777Y9526777D01*
X36980970Y9445671D01*
X37000000Y9350000D01*
X37000000Y8250000D01*
X39200000Y9050000D02*
X40800000Y9050000D01*
X40800000Y10150000D02*
G75*
G02*
X40800000Y9050000I0J-550000D01*
G01*
X40800000Y10150000D02*
X39200000Y10150000D01*
X39200000Y10150000D02*
G75*
G03*
X39200000Y9050000I0J-550000D01*
G01*
X45400000Y8250000D02*
X45380970Y8154329D01*
X45326777Y8073223D01*
X45245671Y8019030D01*
X45150000Y8000000D01*
X43250000Y8000000D01*
X43154329Y8019030D01*
X43073223Y8073223D01*
X43019030Y8154329D01*
X43000000Y8250000D01*
X43000000Y9350000D01*
X43019030Y9445671D01*
X43073223Y9526777D01*
X43154329Y9580970D01*
X43250000Y9600000D01*
X45150000Y9600000D01*
X45245671Y9580970D01*
X45326777Y9526777D01*
X45380970Y9445671D01*
X45400000Y9350000D01*
X45400000Y8250000D01*
D16*
X38391599Y5550001D02*
X38391599Y4750001D01*
X38391599Y5150001D02*
X36991599Y5150001D01*
X36991599Y5150001D02*
X37191599Y5016668D01*
X37191599Y5016668D02*
X37324933Y4883334D01*
X37324933Y4883334D02*
X37391599Y4750001D01*
D12*
X37300000Y2900000D02*
X37204329Y2919030D01*
X37123223Y2973223D01*
X37069030Y3054329D01*
X37050000Y3150000D01*
X37050000Y7150000D01*
X37069030Y7245671D01*
X37123223Y7326777D01*
X37204329Y7380970D01*
X37300000Y7400000D01*
X38200000Y7400000D01*
X38295671Y7380970D01*
X38376777Y7326777D01*
X38430970Y7245671D01*
X38450000Y7150000D01*
X38450000Y3150000D01*
X38430970Y3054329D01*
X38376777Y2973223D01*
X38295671Y2919030D01*
X38200000Y2900000D01*
X37300000Y2900000D01*
D16*
X41624933Y4750001D02*
X41558266Y4816668D01*
X41558266Y4816668D02*
X41491599Y4950001D01*
X41491599Y4950001D02*
X41491599Y5283334D01*
X41491599Y5283334D02*
X41558266Y5416668D01*
X41558266Y5416668D02*
X41624933Y5483334D01*
X41624933Y5483334D02*
X41758266Y5550001D01*
X41758266Y5550001D02*
X41891599Y5550001D01*
X41891599Y5550001D02*
X42091599Y5483334D01*
X42091599Y5483334D02*
X42891599Y4683334D01*
X42891599Y4683334D02*
X42891599Y5550001D01*
D12*
X41800000Y2900000D02*
X41704329Y2919030D01*
X41623223Y2973223D01*
X41569030Y3054329D01*
X41550000Y3150000D01*
X41550000Y7150000D01*
X41569030Y7245671D01*
X41623223Y7326777D01*
X41704329Y7380970D01*
X41800000Y7400000D01*
X42700000Y7400000D01*
X42795671Y7380970D01*
X42876777Y7326777D01*
X42930970Y7245671D01*
X42950000Y7150000D01*
X42950000Y3150000D01*
X42930970Y3054329D01*
X42876777Y2973223D01*
X42795671Y2919030D01*
X42700000Y2900000D01*
X41800000Y2900000D01*
X34355000Y10445000D02*
X45645000Y2655000D01*
X45645000Y10445000D02*
X34355000Y2655000D01*
D17*
X13671428Y-29224971D02*
X13328571Y-29224971D01*
X13500000Y-29224971D02*
X13500000Y-28624971D01*
X13500000Y-28624971D02*
X13442857Y-28710685D01*
X13442857Y-28710685D02*
X13385714Y-28767828D01*
X13385714Y-28767828D02*
X13328571Y-28796400D01*
D12*
X14098114Y-28150000D02*
X14167231Y-28158019D01*
X14268721Y-28202831D01*
X14347169Y-28281279D01*
X14391981Y-28382769D01*
X14400000Y-28451886D01*
X14400000Y-29448114D01*
X14391981Y-29517231D01*
X14347169Y-29618721D01*
X14268721Y-29697169D01*
X14167231Y-29741981D01*
X14098114Y-29750000D01*
X12901886Y-29750000D01*
X12832769Y-29741981D01*
X12731279Y-29697169D01*
X12652831Y-29618721D01*
X12608019Y-29517231D01*
X12600000Y-29448114D01*
X12600000Y-28451886D01*
X12608019Y-28382769D01*
X12652831Y-28281279D01*
X12731279Y-28202831D01*
X12832769Y-28158019D01*
X12901886Y-28150000D01*
X14098114Y-28150000D01*
D17*
X13328571Y-32082114D02*
X13357143Y-32053542D01*
X13357143Y-32053542D02*
X13414286Y-32024971D01*
X13414286Y-32024971D02*
X13557143Y-32024971D01*
X13557143Y-32024971D02*
X13614286Y-32053542D01*
X13614286Y-32053542D02*
X13642857Y-32082114D01*
X13642857Y-32082114D02*
X13671428Y-32139257D01*
X13671428Y-32139257D02*
X13671428Y-32196400D01*
X13671428Y-32196400D02*
X13642857Y-32282114D01*
X13642857Y-32282114D02*
X13300000Y-32624971D01*
X13300000Y-32624971D02*
X13671428Y-32624971D01*
D12*
X14098114Y-31550000D02*
X14167231Y-31558019D01*
X14268721Y-31602831D01*
X14347169Y-31681279D01*
X14391981Y-31782769D01*
X14400000Y-31851886D01*
X14400000Y-32848114D01*
X14391981Y-32917231D01*
X14347169Y-33018721D01*
X14268721Y-33097169D01*
X14167231Y-33141981D01*
X14098114Y-33150000D01*
X12901886Y-33150000D01*
X12832769Y-33141981D01*
X12731279Y-33097169D01*
X12652831Y-33018721D01*
X12608019Y-32917231D01*
X12600000Y-32848114D01*
X12600000Y-31851886D01*
X12608019Y-31782769D01*
X12652831Y-31681279D01*
X12731279Y-31602831D01*
X12832769Y-31558019D01*
X12901886Y-31550000D01*
X14098114Y-31550000D01*
D18*
X-53348052Y-5452614D02*
X-53681385Y-5452614D01*
X-53514719Y-5452614D02*
X-53514719Y-4869281D01*
X-53514719Y-4869281D02*
X-53570274Y-4952615D01*
X-53570274Y-4952615D02*
X-53625830Y-5008170D01*
X-53625830Y-5008170D02*
X-53681385Y-5035948D01*
D12*
X-52947412Y-4385281D02*
X-52876966Y-4393454D01*
X-52773523Y-4439128D01*
X-52693566Y-4519085D01*
X-52647892Y-4622528D01*
X-52639720Y-4692975D01*
X-52639719Y-5677588D01*
X-52647892Y-5748034D01*
X-52693566Y-5851477D01*
X-52773523Y-5931434D01*
X-52876966Y-5977108D01*
X-52947413Y-5985280D01*
X-54082026Y-5985281D01*
X-54152472Y-5977108D01*
X-54255915Y-5931434D01*
X-54335872Y-5851477D01*
X-54381546Y-5748034D01*
X-54389718Y-5677587D01*
X-54389719Y-4692974D01*
X-54381546Y-4622528D01*
X-54335872Y-4519085D01*
X-54255915Y-4439128D01*
X-54152472Y-4393454D01*
X-54082025Y-4385282D01*
X-52947412Y-4385281D01*
D18*
X-53681385Y-8324837D02*
X-53653608Y-8297059D01*
X-53653608Y-8297059D02*
X-53598052Y-8269281D01*
X-53598052Y-8269281D02*
X-53459163Y-8269281D01*
X-53459163Y-8269281D02*
X-53403608Y-8297059D01*
X-53403608Y-8297059D02*
X-53375830Y-8324837D01*
X-53375830Y-8324837D02*
X-53348052Y-8380392D01*
X-53348052Y-8380392D02*
X-53348052Y-8435948D01*
X-53348052Y-8435948D02*
X-53375830Y-8519281D01*
X-53375830Y-8519281D02*
X-53709163Y-8852614D01*
X-53709163Y-8852614D02*
X-53348052Y-8852614D01*
D12*
X-52947412Y-7785281D02*
X-52876966Y-7793454D01*
X-52773523Y-7839128D01*
X-52693566Y-7919085D01*
X-52647892Y-8022528D01*
X-52639720Y-8092975D01*
X-52639719Y-9077588D01*
X-52647892Y-9148034D01*
X-52693566Y-9251477D01*
X-52773523Y-9331434D01*
X-52876966Y-9377108D01*
X-52947413Y-9385280D01*
X-54082026Y-9385281D01*
X-54152472Y-9377108D01*
X-54255915Y-9331434D01*
X-54335872Y-9251477D01*
X-54381546Y-9148034D01*
X-54389718Y-9077587D01*
X-54389719Y-8092974D01*
X-54381546Y-8022528D01*
X-54335872Y-7919085D01*
X-54255915Y-7839128D01*
X-54152472Y-7793454D01*
X-54082025Y-7785282D01*
X-52947412Y-7785281D01*
X-52349719Y-4090281D02*
X-54679719Y-9680281D01*
X-52349719Y-9680281D02*
X-54679719Y-4090281D01*
D19*
X-3442858Y-91656D02*
X-3557143Y-91656D01*
X-3500000Y-91656D02*
X-3500000Y108344D01*
X-3500000Y108344D02*
X-3519048Y79772D01*
X-3519048Y79772D02*
X-3538096Y60725D01*
X-3538096Y60725D02*
X-3557143Y51201D01*
D12*
X-3200000Y0D02*
G75*
G02*
X-3800000Y0I-300000J0D01*
G01*
X-3800000Y0D02*
G75*
G02*
X-3200000Y0I300000J0D01*
G01*
D19*
X-3361556Y658344D02*
X-3475841Y658344D01*
X-3418698Y658344D02*
X-3418698Y858344D01*
X-3418698Y858344D02*
X-3437746Y829772D01*
X-3437746Y829772D02*
X-3456794Y810725D01*
X-3456794Y810725D02*
X-3475841Y801201D01*
D12*
X-3118698Y750000D02*
G75*
G02*
X-3718698Y750000I-300000J0D01*
G01*
X-3718698Y750000D02*
G75*
G02*
X-3118698Y750000I300000J0D01*
G01*
D19*
X-3361556Y-841656D02*
X-3475841Y-841656D01*
X-3418698Y-841656D02*
X-3418698Y-641656D01*
X-3418698Y-641656D02*
X-3437746Y-670228D01*
X-3437746Y-670228D02*
X-3456794Y-689275D01*
X-3456794Y-689275D02*
X-3475841Y-698799D01*
D12*
X-3118698Y-750000D02*
G75*
G02*
X-3718698Y-750000I-300000J0D01*
G01*
X-3718698Y-750000D02*
G75*
G02*
X-3118698Y-750000I300000J0D01*
G01*
D20*
X590476Y-947123D02*
X-590476Y-947123D01*
X0Y-947123D02*
X0Y1119543D01*
X0Y1119543D02*
X-196825Y824305D01*
X-196825Y824305D02*
X-393650Y627479D01*
X-393650Y627479D02*
X-590476Y529067D01*
D12*
X3100000Y0D02*
G75*
G02*
X-3100000Y0I-3100000J0D01*
G01*
X-3100000Y0D02*
G75*
G02*
X3100000Y0I3100000J0D01*
G01*
D21*
X761904Y-1222095D02*
X-761905Y-1222095D01*
X-1Y-1222095D02*
X-1Y1444571D01*
X-1Y1444571D02*
X-253969Y1063619D01*
X-253969Y1063619D02*
X-507937Y809651D01*
X-507937Y809651D02*
X-761905Y682667D01*
D12*
X-4000000Y500000D02*
X-3984315Y676420D01*
X-3928653Y870950D01*
X-3834972Y1050293D01*
X-3707107Y1207107D01*
X-3550293Y1334972D01*
X-3370950Y1428653D01*
X-3176420Y1484315D01*
X-3000000Y1500000D01*
X3000000Y1500000D01*
X3176420Y1484315D01*
X3370950Y1428653D01*
X3550293Y1334972D01*
X3707107Y1207107D01*
X3834972Y1050293D01*
X3928653Y870950D01*
X3984315Y676420D01*
X4000000Y500000D01*
X4000000Y-500000D01*
X3984315Y-676420D01*
X3928653Y-870950D01*
X3834972Y-1050293D01*
X3707107Y-1207107D01*
X3550293Y-1334972D01*
X3370950Y-1428653D01*
X3176420Y-1484315D01*
X3000000Y-1500000D01*
X-3000000Y-1500000D01*
X-3176420Y-1484315D01*
X-3370950Y-1428653D01*
X-3550293Y-1334972D01*
X-3707107Y-1207107D01*
X-3834972Y-1050293D01*
X-3928653Y-870950D01*
X-3984315Y-676420D01*
X-4000000Y-500000D01*
X-4000000Y500000D01*
D19*
X3475840Y658344D02*
X3361555Y658344D01*
X3418698Y658344D02*
X3418698Y858344D01*
X3418698Y858344D02*
X3399650Y829772D01*
X3399650Y829772D02*
X3380602Y810725D01*
X3380602Y810725D02*
X3361555Y801201D01*
D12*
X3718698Y750000D02*
G75*
G02*
X3118698Y750000I-300000J0D01*
G01*
X3118698Y750000D02*
G75*
G02*
X3718698Y750000I300000J0D01*
G01*
D19*
X3475840Y-841656D02*
X3361555Y-841656D01*
X3418698Y-841656D02*
X3418698Y-641656D01*
X3418698Y-641656D02*
X3399650Y-670228D01*
X3399650Y-670228D02*
X3380602Y-689275D01*
X3380602Y-689275D02*
X3361555Y-698799D01*
D12*
X3718698Y-750000D02*
G75*
G02*
X3118698Y-750000I-300000J0D01*
G01*
X3118698Y-750000D02*
G75*
G02*
X3718698Y-750000I300000J0D01*
G01*
D19*
X3557142Y-91656D02*
X3442857Y-91656D01*
X3500000Y-91656D02*
X3500000Y108344D01*
X3500000Y108344D02*
X3480952Y79772D01*
X3480952Y79772D02*
X3461904Y60725D01*
X3461904Y60725D02*
X3442857Y51201D01*
D12*
X3800000Y0D02*
G75*
G02*
X3200000Y0I-300000J0D01*
G01*
X3200000Y0D02*
G75*
G02*
X3800000Y0I300000J0D01*
G01*
D18*
X-52833333Y332667D02*
X-53166666Y332667D01*
X-53000000Y332667D02*
X-53000000Y916000D01*
X-53000000Y916000D02*
X-53055555Y832666D01*
X-53055555Y832666D02*
X-53111111Y777111D01*
X-53111111Y777111D02*
X-53166666Y749333D01*
D12*
X-53567307Y-200000D02*
X-53637753Y-191827D01*
X-53741196Y-146153D01*
X-53821153Y-66196D01*
X-53866827Y37247D01*
X-53874999Y107694D01*
X-53875000Y1092307D01*
X-53866827Y1162753D01*
X-53821153Y1266196D01*
X-53741196Y1346153D01*
X-53637753Y1391827D01*
X-53567306Y1399999D01*
X-52432693Y1400000D01*
X-52362247Y1391827D01*
X-52258804Y1346153D01*
X-52178847Y1266196D01*
X-52133173Y1162753D01*
X-52125001Y1092306D01*
X-52125000Y107693D01*
X-52133173Y37247D01*
X-52178847Y-66196D01*
X-52258804Y-146153D01*
X-52362247Y-191827D01*
X-52432694Y-199999D01*
X-53567307Y-200000D01*
D18*
X-53166666Y4260444D02*
X-53138889Y4288222D01*
X-53138889Y4288222D02*
X-53083333Y4316000D01*
X-53083333Y4316000D02*
X-52944444Y4316000D01*
X-52944444Y4316000D02*
X-52888889Y4288222D01*
X-52888889Y4288222D02*
X-52861111Y4260444D01*
X-52861111Y4260444D02*
X-52833333Y4204889D01*
X-52833333Y4204889D02*
X-52833333Y4149333D01*
X-52833333Y4149333D02*
X-52861111Y4066000D01*
X-52861111Y4066000D02*
X-53194444Y3732667D01*
X-53194444Y3732667D02*
X-52833333Y3732667D01*
D12*
X-53567307Y3200000D02*
X-53637753Y3208173D01*
X-53741196Y3253847D01*
X-53821153Y3333804D01*
X-53866827Y3437247D01*
X-53874999Y3507694D01*
X-53875000Y4492307D01*
X-53866827Y4562753D01*
X-53821153Y4666196D01*
X-53741196Y4746153D01*
X-53637753Y4791827D01*
X-53567306Y4799999D01*
X-52432693Y4800000D01*
X-52362247Y4791827D01*
X-52258804Y4746153D01*
X-52178847Y4666196D01*
X-52133173Y4562753D01*
X-52125001Y4492306D01*
X-52125000Y3507693D01*
X-52133173Y3437247D01*
X-52178847Y3333804D01*
X-52258804Y3253847D01*
X-52362247Y3208173D01*
X-52432694Y3200001D01*
X-53567307Y3200000D01*
X-54165000Y-495000D02*
X-51835000Y5095000D01*
X-54165000Y5095000D02*
X-51835000Y-495000D01*
D17*
X6574971Y-18028571D02*
X6574971Y-18371428D01*
X6574971Y-18199999D02*
X5974971Y-18199999D01*
X5974971Y-18199999D02*
X6060685Y-18257142D01*
X6060685Y-18257142D02*
X6117828Y-18314285D01*
X6117828Y-18314285D02*
X6146400Y-18371428D01*
D12*
X5500000Y-17601886D02*
X5508019Y-17532769D01*
X5552831Y-17431279D01*
X5631279Y-17352831D01*
X5732769Y-17308019D01*
X5801886Y-17300000D01*
X6798114Y-17300000D01*
X6867231Y-17308019D01*
X6968721Y-17352831D01*
X7047169Y-17431279D01*
X7091981Y-17532769D01*
X7100000Y-17601886D01*
X7100000Y-18798114D01*
X7091981Y-18867231D01*
X7047169Y-18968721D01*
X6968721Y-19047169D01*
X6867231Y-19091981D01*
X6798114Y-19100000D01*
X5801886Y-19100000D01*
X5732769Y-19091981D01*
X5631279Y-19047169D01*
X5552831Y-18968721D01*
X5508019Y-18867231D01*
X5500000Y-18798114D01*
X5500000Y-17601886D01*
D17*
X9432114Y-18371428D02*
X9403542Y-18342856D01*
X9403542Y-18342856D02*
X9374971Y-18285714D01*
X9374971Y-18285714D02*
X9374971Y-18142856D01*
X9374971Y-18142856D02*
X9403542Y-18085714D01*
X9403542Y-18085714D02*
X9432114Y-18057142D01*
X9432114Y-18057142D02*
X9489257Y-18028571D01*
X9489257Y-18028571D02*
X9546400Y-18028571D01*
X9546400Y-18028571D02*
X9632114Y-18057142D01*
X9632114Y-18057142D02*
X9974971Y-18399999D01*
X9974971Y-18399999D02*
X9974971Y-18028571D01*
D12*
X8900000Y-17601886D02*
X8908019Y-17532769D01*
X8952831Y-17431279D01*
X9031279Y-17352831D01*
X9132769Y-17308019D01*
X9201886Y-17300000D01*
X10198114Y-17300000D01*
X10267231Y-17308019D01*
X10368721Y-17352831D01*
X10447169Y-17431279D01*
X10491981Y-17532769D01*
X10500000Y-17601886D01*
X10500000Y-18798114D01*
X10491981Y-18867231D01*
X10447169Y-18968721D01*
X10368721Y-19047169D01*
X10267231Y-19091981D01*
X10198114Y-19100000D01*
X9201886Y-19100000D01*
X9132769Y-19091981D01*
X9031279Y-19047169D01*
X8952831Y-18968721D01*
X8908019Y-18867231D01*
X8900000Y-18798114D01*
X8900000Y-17601886D01*
X5205000Y-17005000D02*
X10795000Y-19395000D01*
X10795000Y-17005000D02*
X5205000Y-19395000D01*
D18*
X-21433333Y-13167333D02*
X-21766666Y-13167333D01*
X-21600000Y-13167333D02*
X-21600000Y-12584000D01*
X-21600000Y-12584000D02*
X-21655555Y-12667334D01*
X-21655555Y-12667334D02*
X-21711111Y-12722889D01*
X-21711111Y-12722889D02*
X-21766666Y-12750667D01*
D12*
X-22167307Y-13700000D02*
X-22237753Y-13691827D01*
X-22341196Y-13646153D01*
X-22421153Y-13566196D01*
X-22466827Y-13462753D01*
X-22474999Y-13392306D01*
X-22475000Y-12407693D01*
X-22466827Y-12337247D01*
X-22421153Y-12233804D01*
X-22341196Y-12153847D01*
X-22237753Y-12108173D01*
X-22167306Y-12100001D01*
X-21032693Y-12100000D01*
X-20962247Y-12108173D01*
X-20858804Y-12153847D01*
X-20778847Y-12233804D01*
X-20733173Y-12337247D01*
X-20725001Y-12407694D01*
X-20725000Y-13392307D01*
X-20733173Y-13462753D01*
X-20778847Y-13566196D01*
X-20858804Y-13646153D01*
X-20962247Y-13691827D01*
X-21032694Y-13699999D01*
X-22167307Y-13700000D01*
D18*
X-21766666Y-9239556D02*
X-21738889Y-9211778D01*
X-21738889Y-9211778D02*
X-21683333Y-9184000D01*
X-21683333Y-9184000D02*
X-21544444Y-9184000D01*
X-21544444Y-9184000D02*
X-21488889Y-9211778D01*
X-21488889Y-9211778D02*
X-21461111Y-9239556D01*
X-21461111Y-9239556D02*
X-21433333Y-9295111D01*
X-21433333Y-9295111D02*
X-21433333Y-9350667D01*
X-21433333Y-9350667D02*
X-21461111Y-9434000D01*
X-21461111Y-9434000D02*
X-21794444Y-9767333D01*
X-21794444Y-9767333D02*
X-21433333Y-9767333D01*
D12*
X-22167307Y-10300000D02*
X-22237753Y-10291827D01*
X-22341196Y-10246153D01*
X-22421153Y-10166196D01*
X-22466827Y-10062753D01*
X-22474999Y-9992306D01*
X-22475000Y-9007693D01*
X-22466827Y-8937247D01*
X-22421153Y-8833804D01*
X-22341196Y-8753847D01*
X-22237753Y-8708173D01*
X-22167306Y-8700001D01*
X-21032693Y-8700000D01*
X-20962247Y-8708173D01*
X-20858804Y-8753847D01*
X-20778847Y-8833804D01*
X-20733173Y-8937247D01*
X-20725001Y-9007694D01*
X-20725000Y-9992307D01*
X-20733173Y-10062753D01*
X-20778847Y-10166196D01*
X-20858804Y-10246153D01*
X-20962247Y-10291827D01*
X-21032694Y-10299999D01*
X-22167307Y-10300000D01*
D22*
X22147885Y-9474566D02*
X22147885Y-9845995D01*
X22147885Y-9660281D02*
X21497885Y-9660281D01*
X21497885Y-9660281D02*
X21590742Y-9722185D01*
X21590742Y-9722185D02*
X21652647Y-9784090D01*
X21652647Y-9784090D02*
X21683599Y-9845995D01*
D12*
X22250000Y-8685281D02*
X22345671Y-8704311D01*
X22426777Y-8758504D01*
X22480970Y-8839610D01*
X22500000Y-8935281D01*
X22500000Y-10385281D01*
X22480970Y-10480952D01*
X22426777Y-10562058D01*
X22345671Y-10616251D01*
X22250000Y-10635281D01*
X21450000Y-10635281D01*
X21354329Y-10616251D01*
X21273223Y-10562058D01*
X21219030Y-10480952D01*
X21200000Y-10385281D01*
X21200000Y-8935281D01*
X21219030Y-8839610D01*
X21273223Y-8758504D01*
X21354329Y-8704311D01*
X21450000Y-8685281D01*
X22250000Y-8685281D01*
D22*
X21559790Y-13395995D02*
X21528837Y-13365043D01*
X21528837Y-13365043D02*
X21497885Y-13303138D01*
X21497885Y-13303138D02*
X21497885Y-13148376D01*
X21497885Y-13148376D02*
X21528837Y-13086471D01*
X21528837Y-13086471D02*
X21559790Y-13055519D01*
X21559790Y-13055519D02*
X21621694Y-13024566D01*
X21621694Y-13024566D02*
X21683599Y-13024566D01*
X21683599Y-13024566D02*
X21776456Y-13055519D01*
X21776456Y-13055519D02*
X22147885Y-13426947D01*
X22147885Y-13426947D02*
X22147885Y-13024566D01*
D12*
X22250000Y-12235281D02*
X22345671Y-12254311D01*
X22426777Y-12308504D01*
X22480970Y-12389610D01*
X22500000Y-12485281D01*
X22500000Y-13935281D01*
X22480970Y-14030952D01*
X22426777Y-14112058D01*
X22345671Y-14166251D01*
X22250000Y-14185281D01*
X21450000Y-14185281D01*
X21354329Y-14166251D01*
X21273223Y-14112058D01*
X21219030Y-14030952D01*
X21200000Y-13935281D01*
X21200000Y-12485281D01*
X21219030Y-12389610D01*
X21273223Y-12308504D01*
X21354329Y-12254311D01*
X21450000Y-12235281D01*
X22250000Y-12235281D01*
D15*
X39650000Y-8970799D02*
X39250000Y-8970799D01*
X39450000Y-8970799D02*
X39450000Y-8270799D01*
X39450000Y-8270799D02*
X39383333Y-8370799D01*
X39383333Y-8370799D02*
X39316667Y-8437466D01*
X39316667Y-8437466D02*
X39250000Y-8470799D01*
D12*
X38400000Y-8200000D02*
X38419030Y-8104329D01*
X38473223Y-8023223D01*
X38554329Y-7969030D01*
X38650000Y-7950000D01*
X40250000Y-7950000D01*
X40345671Y-7969030D01*
X40426777Y-8023223D01*
X40480970Y-8104329D01*
X40500000Y-8200000D01*
X40500000Y-9100000D01*
X40480970Y-9195671D01*
X40426777Y-9276777D01*
X40345671Y-9330970D01*
X40250000Y-9350000D01*
X38650000Y-9350000D01*
X38554329Y-9330970D01*
X38473223Y-9276777D01*
X38419030Y-9195671D01*
X38400000Y-9100000D01*
X38400000Y-8200000D01*
D15*
X39250000Y-12837466D02*
X39283333Y-12804132D01*
X39283333Y-12804132D02*
X39350000Y-12770799D01*
X39350000Y-12770799D02*
X39516667Y-12770799D01*
X39516667Y-12770799D02*
X39583333Y-12804132D01*
X39583333Y-12804132D02*
X39616667Y-12837466D01*
X39616667Y-12837466D02*
X39650000Y-12904132D01*
X39650000Y-12904132D02*
X39650000Y-12970799D01*
X39650000Y-12970799D02*
X39616667Y-13070799D01*
X39616667Y-13070799D02*
X39216667Y-13470799D01*
X39216667Y-13470799D02*
X39650000Y-13470799D01*
D12*
X38400000Y-12700000D02*
X38419030Y-12604329D01*
X38473223Y-12523223D01*
X38554329Y-12469030D01*
X38650000Y-12450000D01*
X40250000Y-12450000D01*
X40345671Y-12469030D01*
X40426777Y-12523223D01*
X40480970Y-12604329D01*
X40500000Y-12700000D01*
X40500000Y-13600000D01*
X40480970Y-13695671D01*
X40426777Y-13776777D01*
X40345671Y-13830970D01*
X40250000Y-13850000D01*
X38650000Y-13850000D01*
X38554329Y-13830970D01*
X38473223Y-13776777D01*
X38419030Y-13695671D01*
X38400000Y-13600000D01*
X38400000Y-12700000D01*
D15*
X48316667Y-8270799D02*
X48750000Y-8270799D01*
X48750000Y-8270799D02*
X48516667Y-8537466D01*
X48516667Y-8537466D02*
X48616667Y-8537466D01*
X48616667Y-8537466D02*
X48683333Y-8570799D01*
X48683333Y-8570799D02*
X48716667Y-8604132D01*
X48716667Y-8604132D02*
X48750000Y-8670799D01*
X48750000Y-8670799D02*
X48750000Y-8837466D01*
X48750000Y-8837466D02*
X48716667Y-8904132D01*
X48716667Y-8904132D02*
X48683333Y-8937466D01*
X48683333Y-8937466D02*
X48616667Y-8970799D01*
X48616667Y-8970799D02*
X48416667Y-8970799D01*
X48416667Y-8970799D02*
X48350000Y-8937466D01*
X48350000Y-8937466D02*
X48316667Y-8904132D01*
D12*
X47500000Y-8200000D02*
X47519030Y-8104329D01*
X47573223Y-8023223D01*
X47654329Y-7969030D01*
X47750000Y-7950000D01*
X49350000Y-7950000D01*
X49445671Y-7969030D01*
X49526777Y-8023223D01*
X49580970Y-8104329D01*
X49600000Y-8200000D01*
X49600000Y-9100000D01*
X49580970Y-9195671D01*
X49526777Y-9276777D01*
X49445671Y-9330970D01*
X49350000Y-9350000D01*
X47750000Y-9350000D01*
X47654329Y-9330970D01*
X47573223Y-9276777D01*
X47519030Y-9195671D01*
X47500000Y-9100000D01*
X47500000Y-8200000D01*
D15*
X48683333Y-13004132D02*
X48683333Y-13470799D01*
X48516667Y-12737466D02*
X48350000Y-13237466D01*
X48350000Y-13237466D02*
X48783333Y-13237466D01*
D12*
X47500000Y-12700000D02*
X47519030Y-12604329D01*
X47573223Y-12523223D01*
X47654329Y-12469030D01*
X47750000Y-12450000D01*
X49350000Y-12450000D01*
X49445671Y-12469030D01*
X49526777Y-12523223D01*
X49580970Y-12604329D01*
X49600000Y-12700000D01*
X49600000Y-13600000D01*
X49580970Y-13695671D01*
X49526777Y-13776777D01*
X49445671Y-13830970D01*
X49350000Y-13850000D01*
X47750000Y-13850000D01*
X47654329Y-13830970D01*
X47573223Y-13776777D01*
X47519030Y-13695671D01*
X47500000Y-13600000D01*
X47500000Y-12700000D01*
X38105000Y-7605000D02*
X49895000Y-14195000D01*
X49895000Y-7605000D02*
X38105000Y-14195000D01*
D19*
X18147142Y-91656D02*
X18032857Y-91656D01*
X18090000Y-91656D02*
X18090000Y108344D01*
X18090000Y108344D02*
X18070952Y79772D01*
X18070952Y79772D02*
X18051904Y60725D01*
X18051904Y60725D02*
X18032857Y51201D01*
D12*
X18390000Y0D02*
G75*
G02*
X17790000Y0I-300000J0D01*
G01*
X17790000Y0D02*
G75*
G02*
X18390000Y0I300000J0D01*
G01*
D19*
X18228444Y658344D02*
X18114159Y658344D01*
X18171302Y658344D02*
X18171302Y858344D01*
X18171302Y858344D02*
X18152254Y829772D01*
X18152254Y829772D02*
X18133206Y810725D01*
X18133206Y810725D02*
X18114159Y801201D01*
D12*
X18471302Y750000D02*
G75*
G02*
X17871302Y750000I-300000J0D01*
G01*
X17871302Y750000D02*
G75*
G02*
X18471302Y750000I300000J0D01*
G01*
D19*
X18228444Y-841656D02*
X18114159Y-841656D01*
X18171302Y-841656D02*
X18171302Y-641656D01*
X18171302Y-641656D02*
X18152254Y-670228D01*
X18152254Y-670228D02*
X18133206Y-689275D01*
X18133206Y-689275D02*
X18114159Y-698799D01*
D12*
X18471302Y-750000D02*
G75*
G02*
X17871302Y-750000I-300000J0D01*
G01*
X17871302Y-750000D02*
G75*
G02*
X18471302Y-750000I300000J0D01*
G01*
D20*
X22180476Y-947123D02*
X20999524Y-947123D01*
X21590000Y-947123D02*
X21590000Y1119543D01*
X21590000Y1119543D02*
X21393175Y824305D01*
X21393175Y824305D02*
X21196350Y627479D01*
X21196350Y627479D02*
X20999524Y529067D01*
D12*
X24690000Y0D02*
G75*
G02*
X18490000Y0I-3100000J0D01*
G01*
X18490000Y0D02*
G75*
G02*
X24690000Y0I3100000J0D01*
G01*
D21*
X22351904Y-1222095D02*
X20828095Y-1222095D01*
X21589999Y-1222095D02*
X21589999Y1444571D01*
X21589999Y1444571D02*
X21336031Y1063619D01*
X21336031Y1063619D02*
X21082063Y809651D01*
X21082063Y809651D02*
X20828095Y682667D01*
D12*
X17590000Y500000D02*
X17605685Y676420D01*
X17661347Y870950D01*
X17755028Y1050293D01*
X17882893Y1207107D01*
X18039707Y1334972D01*
X18219050Y1428653D01*
X18413580Y1484315D01*
X18590000Y1500000D01*
X24590000Y1500000D01*
X24766420Y1484315D01*
X24960950Y1428653D01*
X25140293Y1334972D01*
X25297107Y1207107D01*
X25424972Y1050293D01*
X25518653Y870950D01*
X25574315Y676420D01*
X25590000Y500000D01*
X25590000Y-500000D01*
X25574315Y-676420D01*
X25518653Y-870950D01*
X25424972Y-1050293D01*
X25297107Y-1207107D01*
X25140293Y-1334972D01*
X24960950Y-1428653D01*
X24766420Y-1484315D01*
X24590000Y-1500000D01*
X18590000Y-1500000D01*
X18413580Y-1484315D01*
X18219050Y-1428653D01*
X18039707Y-1334972D01*
X17882893Y-1207107D01*
X17755028Y-1050293D01*
X17661347Y-870950D01*
X17605685Y-676420D01*
X17590000Y-500000D01*
X17590000Y500000D01*
D19*
X25065840Y658344D02*
X24951555Y658344D01*
X25008698Y658344D02*
X25008698Y858344D01*
X25008698Y858344D02*
X24989650Y829772D01*
X24989650Y829772D02*
X24970602Y810725D01*
X24970602Y810725D02*
X24951555Y801201D01*
D12*
X25308698Y750000D02*
G75*
G02*
X24708698Y750000I-300000J0D01*
G01*
X24708698Y750000D02*
G75*
G02*
X25308698Y750000I300000J0D01*
G01*
D19*
X25065840Y-841656D02*
X24951555Y-841656D01*
X25008698Y-841656D02*
X25008698Y-641656D01*
X25008698Y-641656D02*
X24989650Y-670228D01*
X24989650Y-670228D02*
X24970602Y-689275D01*
X24970602Y-689275D02*
X24951555Y-698799D01*
D12*
X25308698Y-750000D02*
G75*
G02*
X24708698Y-750000I-300000J0D01*
G01*
X24708698Y-750000D02*
G75*
G02*
X25308698Y-750000I300000J0D01*
G01*
D19*
X25147142Y-91656D02*
X25032857Y-91656D01*
X25090000Y-91656D02*
X25090000Y108344D01*
X25090000Y108344D02*
X25070952Y79772D01*
X25070952Y79772D02*
X25051904Y60725D01*
X25051904Y60725D02*
X25032857Y51201D01*
D12*
X25390000Y0D02*
G75*
G02*
X24790000Y0I-300000J0D01*
G01*
X24790000Y0D02*
G75*
G02*
X25390000Y0I300000J0D01*
G01*
D15*
X-52350000Y-12970799D02*
X-52750000Y-12970799D01*
X-52550000Y-12970799D02*
X-52550000Y-12270799D01*
X-52550000Y-12270799D02*
X-52616667Y-12370799D01*
X-52616667Y-12370799D02*
X-52683333Y-12437466D01*
X-52683333Y-12437466D02*
X-52750000Y-12470799D01*
D12*
X-53600000Y-12200000D02*
X-53580970Y-12104329D01*
X-53526777Y-12023223D01*
X-53445671Y-11969030D01*
X-53350000Y-11950000D01*
X-51750000Y-11950000D01*
X-51654329Y-11969030D01*
X-51573223Y-12023223D01*
X-51519030Y-12104329D01*
X-51500000Y-12200000D01*
X-51500000Y-13100000D01*
X-51519030Y-13195671D01*
X-51573223Y-13276777D01*
X-51654329Y-13330970D01*
X-51750000Y-13350000D01*
X-53350000Y-13350000D01*
X-53445671Y-13330970D01*
X-53526777Y-13276777D01*
X-53580970Y-13195671D01*
X-53600000Y-13100000D01*
X-53600000Y-12200000D01*
D15*
X-52750000Y-16837466D02*
X-52716667Y-16804132D01*
X-52716667Y-16804132D02*
X-52650000Y-16770799D01*
X-52650000Y-16770799D02*
X-52483333Y-16770799D01*
X-52483333Y-16770799D02*
X-52416667Y-16804132D01*
X-52416667Y-16804132D02*
X-52383333Y-16837466D01*
X-52383333Y-16837466D02*
X-52350000Y-16904132D01*
X-52350000Y-16904132D02*
X-52350000Y-16970799D01*
X-52350000Y-16970799D02*
X-52383333Y-17070799D01*
X-52383333Y-17070799D02*
X-52783333Y-17470799D01*
X-52783333Y-17470799D02*
X-52350000Y-17470799D01*
D12*
X-53600000Y-16700000D02*
X-53580970Y-16604329D01*
X-53526777Y-16523223D01*
X-53445671Y-16469030D01*
X-53350000Y-16450000D01*
X-51750000Y-16450000D01*
X-51654329Y-16469030D01*
X-51573223Y-16523223D01*
X-51519030Y-16604329D01*
X-51500000Y-16700000D01*
X-51500000Y-17600000D01*
X-51519030Y-17695671D01*
X-51573223Y-17776777D01*
X-51654329Y-17830970D01*
X-51750000Y-17850000D01*
X-53350000Y-17850000D01*
X-53445671Y-17830970D01*
X-53526777Y-17776777D01*
X-53580970Y-17695671D01*
X-53600000Y-17600000D01*
X-53600000Y-16700000D01*
D15*
X-43683333Y-12270799D02*
X-43250000Y-12270799D01*
X-43250000Y-12270799D02*
X-43483333Y-12537466D01*
X-43483333Y-12537466D02*
X-43383333Y-12537466D01*
X-43383333Y-12537466D02*
X-43316667Y-12570799D01*
X-43316667Y-12570799D02*
X-43283333Y-12604132D01*
X-43283333Y-12604132D02*
X-43250000Y-12670799D01*
X-43250000Y-12670799D02*
X-43250000Y-12837466D01*
X-43250000Y-12837466D02*
X-43283333Y-12904132D01*
X-43283333Y-12904132D02*
X-43316667Y-12937466D01*
X-43316667Y-12937466D02*
X-43383333Y-12970799D01*
X-43383333Y-12970799D02*
X-43583333Y-12970799D01*
X-43583333Y-12970799D02*
X-43650000Y-12937466D01*
X-43650000Y-12937466D02*
X-43683333Y-12904132D01*
D12*
X-44500000Y-12200000D02*
X-44480970Y-12104329D01*
X-44426777Y-12023223D01*
X-44345671Y-11969030D01*
X-44250000Y-11950000D01*
X-42650000Y-11950000D01*
X-42554329Y-11969030D01*
X-42473223Y-12023223D01*
X-42419030Y-12104329D01*
X-42400000Y-12200000D01*
X-42400000Y-13100000D01*
X-42419030Y-13195671D01*
X-42473223Y-13276777D01*
X-42554329Y-13330970D01*
X-42650000Y-13350000D01*
X-44250000Y-13350000D01*
X-44345671Y-13330970D01*
X-44426777Y-13276777D01*
X-44480970Y-13195671D01*
X-44500000Y-13100000D01*
X-44500000Y-12200000D01*
D15*
X-43316667Y-17004132D02*
X-43316667Y-17470799D01*
X-43483333Y-16737466D02*
X-43650000Y-17237466D01*
X-43650000Y-17237466D02*
X-43216667Y-17237466D01*
D12*
X-44500000Y-16700000D02*
X-44480970Y-16604329D01*
X-44426777Y-16523223D01*
X-44345671Y-16469030D01*
X-44250000Y-16450000D01*
X-42650000Y-16450000D01*
X-42554329Y-16469030D01*
X-42473223Y-16523223D01*
X-42419030Y-16604329D01*
X-42400000Y-16700000D01*
X-42400000Y-17600000D01*
X-42419030Y-17695671D01*
X-42473223Y-17776777D01*
X-42554329Y-17830970D01*
X-42650000Y-17850000D01*
X-44250000Y-17850000D01*
X-44345671Y-17830970D01*
X-44426777Y-17776777D01*
X-44480970Y-17695671D01*
X-44500000Y-17600000D01*
X-44500000Y-16700000D01*
X-43000000Y8250000D02*
X-43019030Y8154329D01*
X-43073223Y8073223D01*
X-43154329Y8019030D01*
X-43250000Y8000000D01*
X-45150000Y8000000D01*
X-45245671Y8019030D01*
X-45326777Y8073223D01*
X-45380970Y8154329D01*
X-45400000Y8250000D01*
X-45400000Y9350000D01*
X-45380970Y9445671D01*
X-45326777Y9526777D01*
X-45245671Y9580970D01*
X-45150000Y9600000D01*
X-43250000Y9600000D01*
X-43154329Y9580970D01*
X-43073223Y9526777D01*
X-43019030Y9445671D01*
X-43000000Y9350000D01*
X-43000000Y8250000D01*
X-40800000Y9050000D02*
X-39200000Y9050000D01*
X-39200000Y10150000D02*
G75*
G02*
X-39200000Y9050000I0J-550000D01*
G01*
X-39200000Y10150000D02*
X-40800000Y10150000D01*
X-40800000Y10150000D02*
G75*
G03*
X-40800000Y9050000I0J-550000D01*
G01*
X-34600000Y8250000D02*
X-34619030Y8154329D01*
X-34673223Y8073223D01*
X-34754329Y8019030D01*
X-34850000Y8000000D01*
X-36750000Y8000000D01*
X-36845671Y8019030D01*
X-36926777Y8073223D01*
X-36980970Y8154329D01*
X-37000000Y8250000D01*
X-37000000Y9350000D01*
X-36980970Y9445671D01*
X-36926777Y9526777D01*
X-36845671Y9580970D01*
X-36750000Y9600000D01*
X-34850000Y9600000D01*
X-34754329Y9580970D01*
X-34673223Y9526777D01*
X-34619030Y9445671D01*
X-34600000Y9350000D01*
X-34600000Y8250000D01*
D16*
X-37108401Y5550001D02*
X-37108401Y4750001D01*
X-37108401Y5150001D02*
X-38508401Y5150001D01*
X-38508401Y5150001D02*
X-38308401Y5016668D01*
X-38308401Y5016668D02*
X-38175067Y4883334D01*
X-38175067Y4883334D02*
X-38108401Y4750001D01*
D12*
X-38200000Y2900000D02*
X-38295671Y2919030D01*
X-38376777Y2973223D01*
X-38430970Y3054329D01*
X-38450000Y3150000D01*
X-38450000Y7150000D01*
X-38430970Y7245671D01*
X-38376777Y7326777D01*
X-38295671Y7380970D01*
X-38200000Y7400000D01*
X-37300000Y7400000D01*
X-37204329Y7380970D01*
X-37123223Y7326777D01*
X-37069030Y7245671D01*
X-37050000Y7150000D01*
X-37050000Y3150000D01*
X-37069030Y3054329D01*
X-37123223Y2973223D01*
X-37204329Y2919030D01*
X-37300000Y2900000D01*
X-38200000Y2900000D01*
D16*
X-42875067Y4750001D02*
X-42941734Y4816668D01*
X-42941734Y4816668D02*
X-43008401Y4950001D01*
X-43008401Y4950001D02*
X-43008401Y5283334D01*
X-43008401Y5283334D02*
X-42941734Y5416668D01*
X-42941734Y5416668D02*
X-42875067Y5483334D01*
X-42875067Y5483334D02*
X-42741734Y5550001D01*
X-42741734Y5550001D02*
X-42608401Y5550001D01*
X-42608401Y5550001D02*
X-42408401Y5483334D01*
X-42408401Y5483334D02*
X-41608401Y4683334D01*
X-41608401Y4683334D02*
X-41608401Y5550001D01*
D12*
X-42700000Y2900000D02*
X-42795671Y2919030D01*
X-42876777Y2973223D01*
X-42930970Y3054329D01*
X-42950000Y3150000D01*
X-42950000Y7150000D01*
X-42930970Y7245671D01*
X-42876777Y7326777D01*
X-42795671Y7380970D01*
X-42700000Y7400000D01*
X-41800000Y7400000D01*
X-41704329Y7380970D01*
X-41623223Y7326777D01*
X-41569030Y7245671D01*
X-41550000Y7150000D01*
X-41550000Y3150000D01*
X-41569030Y3054329D01*
X-41623223Y2973223D01*
X-41704329Y2919030D01*
X-41800000Y2900000D01*
X-42700000Y2900000D01*
X-45645000Y10445000D02*
X-34355000Y2655000D01*
X-34355000Y10445000D02*
X-45645000Y2655000D01*
D17*
X-25928572Y-32374971D02*
X-26271429Y-32374971D01*
X-26100000Y-32374971D02*
X-26100000Y-31774971D01*
X-26100000Y-31774971D02*
X-26157143Y-31860685D01*
X-26157143Y-31860685D02*
X-26214286Y-31917828D01*
X-26214286Y-31917828D02*
X-26271429Y-31946400D01*
D12*
X-26698114Y-32900000D02*
X-26767231Y-32891981D01*
X-26868721Y-32847169D01*
X-26947169Y-32768721D01*
X-26991981Y-32667231D01*
X-27000000Y-32598114D01*
X-27000000Y-31601886D01*
X-26991981Y-31532769D01*
X-26947169Y-31431279D01*
X-26868721Y-31352831D01*
X-26767231Y-31308019D01*
X-26698114Y-31300000D01*
X-25501886Y-31300000D01*
X-25432769Y-31308019D01*
X-25331279Y-31352831D01*
X-25252831Y-31431279D01*
X-25208019Y-31532769D01*
X-25200000Y-31601886D01*
X-25200000Y-32598114D01*
X-25208019Y-32667231D01*
X-25252831Y-32768721D01*
X-25331279Y-32847169D01*
X-25432769Y-32891981D01*
X-25501886Y-32900000D01*
X-26698114Y-32900000D01*
D17*
X-26271429Y-28432114D02*
X-26242857Y-28403542D01*
X-26242857Y-28403542D02*
X-26185714Y-28374971D01*
X-26185714Y-28374971D02*
X-26042857Y-28374971D01*
X-26042857Y-28374971D02*
X-25985714Y-28403542D01*
X-25985714Y-28403542D02*
X-25957143Y-28432114D01*
X-25957143Y-28432114D02*
X-25928572Y-28489257D01*
X-25928572Y-28489257D02*
X-25928572Y-28546400D01*
X-25928572Y-28546400D02*
X-25957143Y-28632114D01*
X-25957143Y-28632114D02*
X-26300000Y-28974971D01*
X-26300000Y-28974971D02*
X-25928572Y-28974971D01*
D12*
X-26698114Y-29500000D02*
X-26767231Y-29491981D01*
X-26868721Y-29447169D01*
X-26947169Y-29368721D01*
X-26991981Y-29267231D01*
X-27000000Y-29198114D01*
X-27000000Y-28201886D01*
X-26991981Y-28132769D01*
X-26947169Y-28031279D01*
X-26868721Y-27952831D01*
X-26767231Y-27908019D01*
X-26698114Y-27900000D01*
X-25501886Y-27900000D01*
X-25432769Y-27908019D01*
X-25331279Y-27952831D01*
X-25252831Y-28031279D01*
X-25208019Y-28132769D01*
X-25200000Y-28201886D01*
X-25200000Y-29198114D01*
X-25208019Y-29267231D01*
X-25252831Y-29368721D01*
X-25331279Y-29447169D01*
X-25432769Y-29491981D01*
X-25501886Y-29500000D01*
X-26698114Y-29500000D01*
D19*
X-14872858Y-91656D02*
X-14987143Y-91656D01*
X-14930000Y-91656D02*
X-14930000Y108344D01*
X-14930000Y108344D02*
X-14949048Y79772D01*
X-14949048Y79772D02*
X-14968096Y60725D01*
X-14968096Y60725D02*
X-14987143Y51201D01*
D12*
X-14630000Y0D02*
G75*
G02*
X-15230000Y0I-300000J0D01*
G01*
X-15230000Y0D02*
G75*
G02*
X-14630000Y0I300000J0D01*
G01*
D19*
X-14791556Y658344D02*
X-14905841Y658344D01*
X-14848698Y658344D02*
X-14848698Y858344D01*
X-14848698Y858344D02*
X-14867746Y829772D01*
X-14867746Y829772D02*
X-14886794Y810725D01*
X-14886794Y810725D02*
X-14905841Y801201D01*
D12*
X-14548698Y750000D02*
G75*
G02*
X-15148698Y750000I-300000J0D01*
G01*
X-15148698Y750000D02*
G75*
G02*
X-14548698Y750000I300000J0D01*
G01*
D19*
X-14791556Y-841656D02*
X-14905841Y-841656D01*
X-14848698Y-841656D02*
X-14848698Y-641656D01*
X-14848698Y-641656D02*
X-14867746Y-670228D01*
X-14867746Y-670228D02*
X-14886794Y-689275D01*
X-14886794Y-689275D02*
X-14905841Y-698799D01*
D12*
X-14548698Y-750000D02*
G75*
G02*
X-15148698Y-750000I-300000J0D01*
G01*
X-15148698Y-750000D02*
G75*
G02*
X-14548698Y-750000I300000J0D01*
G01*
D20*
X-10839524Y-947123D02*
X-12020476Y-947123D01*
X-11430000Y-947123D02*
X-11430000Y1119543D01*
X-11430000Y1119543D02*
X-11626825Y824305D01*
X-11626825Y824305D02*
X-11823650Y627479D01*
X-11823650Y627479D02*
X-12020476Y529067D01*
D12*
X-8330000Y0D02*
G75*
G02*
X-14530000Y0I-3100000J0D01*
G01*
X-14530000Y0D02*
G75*
G02*
X-8330000Y0I3100000J0D01*
G01*
D21*
X-10668096Y-1222095D02*
X-12191905Y-1222095D01*
X-11430001Y-1222095D02*
X-11430001Y1444571D01*
X-11430001Y1444571D02*
X-11683969Y1063619D01*
X-11683969Y1063619D02*
X-11937937Y809651D01*
X-11937937Y809651D02*
X-12191905Y682667D01*
D12*
X-15430000Y500000D02*
X-15414315Y676420D01*
X-15358653Y870950D01*
X-15264972Y1050293D01*
X-15137107Y1207107D01*
X-14980293Y1334972D01*
X-14800950Y1428653D01*
X-14606420Y1484315D01*
X-14430000Y1500000D01*
X-8430000Y1500000D01*
X-8253580Y1484315D01*
X-8059050Y1428653D01*
X-7879707Y1334972D01*
X-7722893Y1207107D01*
X-7595028Y1050293D01*
X-7501347Y870950D01*
X-7445685Y676420D01*
X-7430000Y500000D01*
X-7430000Y-500000D01*
X-7445685Y-676420D01*
X-7501347Y-870950D01*
X-7595028Y-1050293D01*
X-7722893Y-1207107D01*
X-7879707Y-1334972D01*
X-8059050Y-1428653D01*
X-8253580Y-1484315D01*
X-8430000Y-1500000D01*
X-14430000Y-1500000D01*
X-14606420Y-1484315D01*
X-14800950Y-1428653D01*
X-14980293Y-1334972D01*
X-15137107Y-1207107D01*
X-15264972Y-1050293D01*
X-15358653Y-870950D01*
X-15414315Y-676420D01*
X-15430000Y-500000D01*
X-15430000Y500000D01*
D19*
X-7954160Y658344D02*
X-8068445Y658344D01*
X-8011302Y658344D02*
X-8011302Y858344D01*
X-8011302Y858344D02*
X-8030350Y829772D01*
X-8030350Y829772D02*
X-8049398Y810725D01*
X-8049398Y810725D02*
X-8068445Y801201D01*
D12*
X-7711302Y750000D02*
G75*
G02*
X-8311302Y750000I-300000J0D01*
G01*
X-8311302Y750000D02*
G75*
G02*
X-7711302Y750000I300000J0D01*
G01*
D19*
X-7954160Y-841656D02*
X-8068445Y-841656D01*
X-8011302Y-841656D02*
X-8011302Y-641656D01*
X-8011302Y-641656D02*
X-8030350Y-670228D01*
X-8030350Y-670228D02*
X-8049398Y-689275D01*
X-8049398Y-689275D02*
X-8068445Y-698799D01*
D12*
X-7711302Y-750000D02*
G75*
G02*
X-8311302Y-750000I-300000J0D01*
G01*
X-8311302Y-750000D02*
G75*
G02*
X-7711302Y-750000I300000J0D01*
G01*
D19*
X-7872858Y-91656D02*
X-7987143Y-91656D01*
X-7930000Y-91656D02*
X-7930000Y108344D01*
X-7930000Y108344D02*
X-7949048Y79772D01*
X-7949048Y79772D02*
X-7968096Y60725D01*
X-7968096Y60725D02*
X-7987143Y51201D01*
D12*
X-7630000Y0D02*
G75*
G02*
X-8230000Y0I-300000J0D01*
G01*
X-8230000Y0D02*
G75*
G02*
X-7630000Y0I300000J0D01*
G01*
D13*
X-17235457Y-13932142D02*
X-17235457Y-14417857D01*
X-17235457Y-14175000D02*
X-18085457Y-14175000D01*
X-18085457Y-14175000D02*
X-17964029Y-14255952D01*
X-17964029Y-14255952D02*
X-17883076Y-14336904D01*
X-17883076Y-14336904D02*
X-17842600Y-14417857D01*
D12*
X-18000000Y-15450000D02*
X-18095671Y-15430970D01*
X-18176777Y-15376777D01*
X-18230970Y-15295671D01*
X-18250000Y-15200000D01*
X-18250000Y-13150000D01*
X-18230970Y-13054329D01*
X-18176777Y-12973223D01*
X-18095671Y-12919030D01*
X-18000000Y-12900000D01*
X-17250000Y-12900000D01*
X-17154329Y-12919030D01*
X-17073223Y-12973223D01*
X-17019030Y-13054329D01*
X-17000000Y-13150000D01*
X-17000000Y-15200000D01*
X-17019030Y-15295671D01*
X-17073223Y-15376777D01*
X-17154329Y-15430970D01*
X-17250000Y-15450000D01*
X-18000000Y-15450000D01*
D13*
X-14754505Y-14417857D02*
X-14794981Y-14377381D01*
X-14794981Y-14377381D02*
X-14835457Y-14296428D01*
X-14835457Y-14296428D02*
X-14835457Y-14094047D01*
X-14835457Y-14094047D02*
X-14794981Y-14013095D01*
X-14794981Y-14013095D02*
X-14754505Y-13972619D01*
X-14754505Y-13972619D02*
X-14673553Y-13932142D01*
X-14673553Y-13932142D02*
X-14592600Y-13932142D01*
X-14592600Y-13932142D02*
X-14471172Y-13972619D01*
X-14471172Y-13972619D02*
X-13985457Y-14458333D01*
X-13985457Y-14458333D02*
X-13985457Y-13932142D01*
D12*
X-14750000Y-15450000D02*
X-14845671Y-15430970D01*
X-14926777Y-15376777D01*
X-14980970Y-15295671D01*
X-15000000Y-15200000D01*
X-15000000Y-13150000D01*
X-14980970Y-13054329D01*
X-14926777Y-12973223D01*
X-14845671Y-12919030D01*
X-14750000Y-12900000D01*
X-14000000Y-12900000D01*
X-13904329Y-12919030D01*
X-13823223Y-12973223D01*
X-13769030Y-13054329D01*
X-13750000Y-13150000D01*
X-13750000Y-15200000D01*
X-13769030Y-15295671D01*
X-13823223Y-15376777D01*
X-13904329Y-15430970D01*
X-14000000Y-15450000D01*
X-14750000Y-15450000D01*
D13*
X-14835457Y-8508333D02*
X-14835457Y-7982142D01*
X-14835457Y-7982142D02*
X-14511648Y-8265476D01*
X-14511648Y-8265476D02*
X-14511648Y-8144047D01*
X-14511648Y-8144047D02*
X-14471172Y-8063095D01*
X-14471172Y-8063095D02*
X-14430695Y-8022619D01*
X-14430695Y-8022619D02*
X-14349743Y-7982142D01*
X-14349743Y-7982142D02*
X-14147362Y-7982142D01*
X-14147362Y-7982142D02*
X-14066410Y-8022619D01*
X-14066410Y-8022619D02*
X-14025933Y-8063095D01*
X-14025933Y-8063095D02*
X-13985457Y-8144047D01*
X-13985457Y-8144047D02*
X-13985457Y-8386904D01*
X-13985457Y-8386904D02*
X-14025933Y-8467857D01*
X-14025933Y-8467857D02*
X-14066410Y-8508333D01*
D12*
X-14750000Y-9500000D02*
X-14845671Y-9480970D01*
X-14926777Y-9426777D01*
X-14980970Y-9345671D01*
X-15000000Y-9250000D01*
X-15000000Y-7200000D01*
X-14980970Y-7104329D01*
X-14926777Y-7023223D01*
X-14845671Y-6969030D01*
X-14750000Y-6950000D01*
X-14000000Y-6950000D01*
X-13904329Y-6969030D01*
X-13823223Y-7023223D01*
X-13769030Y-7104329D01*
X-13750000Y-7200000D01*
X-13750000Y-9250000D01*
X-13769030Y-9345671D01*
X-13823223Y-9426777D01*
X-13904329Y-9480970D01*
X-14000000Y-9500000D01*
X-14750000Y-9500000D01*
D13*
X-17802124Y-8063095D02*
X-17235457Y-8063095D01*
X-18125933Y-8265476D02*
X-17518791Y-8467857D01*
X-17518791Y-8467857D02*
X-17518791Y-7941666D01*
D12*
X-18000000Y-9500000D02*
X-18095671Y-9480970D01*
X-18176777Y-9426777D01*
X-18230970Y-9345671D01*
X-18250000Y-9250000D01*
X-18250000Y-7200000D01*
X-18230970Y-7104329D01*
X-18176777Y-7023223D01*
X-18095671Y-6969030D01*
X-18000000Y-6950000D01*
X-17250000Y-6950000D01*
X-17154329Y-6969030D01*
X-17073223Y-7023223D01*
X-17019030Y-7104329D01*
X-17000000Y-7200000D01*
X-17000000Y-9250000D01*
X-17019030Y-9345671D01*
X-17073223Y-9426777D01*
X-17154329Y-9480970D01*
X-17250000Y-9500000D01*
X-18000000Y-9500000D01*
D17*
X-1425029Y-18028571D02*
X-1425029Y-18371428D01*
X-1425029Y-18199999D02*
X-2025029Y-18199999D01*
X-2025029Y-18199999D02*
X-1939315Y-18257142D01*
X-1939315Y-18257142D02*
X-1882172Y-18314285D01*
X-1882172Y-18314285D02*
X-1853600Y-18371428D01*
D12*
X-2500000Y-17601886D02*
X-2491981Y-17532769D01*
X-2447169Y-17431279D01*
X-2368721Y-17352831D01*
X-2267231Y-17308019D01*
X-2198114Y-17300000D01*
X-1201886Y-17300000D01*
X-1132769Y-17308019D01*
X-1031279Y-17352831D01*
X-952831Y-17431279D01*
X-908019Y-17532769D01*
X-900000Y-17601886D01*
X-900000Y-18798114D01*
X-908019Y-18867231D01*
X-952831Y-18968721D01*
X-1031279Y-19047169D01*
X-1132769Y-19091981D01*
X-1201886Y-19100000D01*
X-2198114Y-19100000D01*
X-2267231Y-19091981D01*
X-2368721Y-19047169D01*
X-2447169Y-18968721D01*
X-2491981Y-18867231D01*
X-2500000Y-18798114D01*
X-2500000Y-17601886D01*
D17*
X1432114Y-18371428D02*
X1403542Y-18342856D01*
X1403542Y-18342856D02*
X1374971Y-18285714D01*
X1374971Y-18285714D02*
X1374971Y-18142856D01*
X1374971Y-18142856D02*
X1403542Y-18085714D01*
X1403542Y-18085714D02*
X1432114Y-18057142D01*
X1432114Y-18057142D02*
X1489257Y-18028571D01*
X1489257Y-18028571D02*
X1546400Y-18028571D01*
X1546400Y-18028571D02*
X1632114Y-18057142D01*
X1632114Y-18057142D02*
X1974971Y-18399999D01*
X1974971Y-18399999D02*
X1974971Y-18028571D01*
D12*
X900000Y-17601886D02*
X908019Y-17532769D01*
X952831Y-17431279D01*
X1031279Y-17352831D01*
X1132769Y-17308019D01*
X1201886Y-17300000D01*
X2198114Y-17300000D01*
X2267231Y-17308019D01*
X2368721Y-17352831D01*
X2447169Y-17431279D01*
X2491981Y-17532769D01*
X2500000Y-17601886D01*
X2500000Y-18798114D01*
X2491981Y-18867231D01*
X2447169Y-18968721D01*
X2368721Y-19047169D01*
X2267231Y-19091981D01*
X2198114Y-19100000D01*
X1201886Y-19100000D01*
X1132769Y-19091981D01*
X1031279Y-19047169D01*
X952831Y-18968721D01*
X908019Y-18867231D01*
X900000Y-18798114D01*
X900000Y-17601886D01*
X-2795000Y-17005000D02*
X2795000Y-19395000D01*
X2795000Y-17005000D02*
X-2795000Y-19395000D01*
D19*
X7987142Y-91656D02*
X7872857Y-91656D01*
X7930000Y-91656D02*
X7930000Y108344D01*
X7930000Y108344D02*
X7910952Y79772D01*
X7910952Y79772D02*
X7891904Y60725D01*
X7891904Y60725D02*
X7872857Y51201D01*
D12*
X8230000Y0D02*
G75*
G02*
X7630000Y0I-300000J0D01*
G01*
X7630000Y0D02*
G75*
G02*
X8230000Y0I300000J0D01*
G01*
D19*
X8068444Y658344D02*
X7954159Y658344D01*
X8011302Y658344D02*
X8011302Y858344D01*
X8011302Y858344D02*
X7992254Y829772D01*
X7992254Y829772D02*
X7973206Y810725D01*
X7973206Y810725D02*
X7954159Y801201D01*
D12*
X8311302Y750000D02*
G75*
G02*
X7711302Y750000I-300000J0D01*
G01*
X7711302Y750000D02*
G75*
G02*
X8311302Y750000I300000J0D01*
G01*
D19*
X8068444Y-841656D02*
X7954159Y-841656D01*
X8011302Y-841656D02*
X8011302Y-641656D01*
X8011302Y-641656D02*
X7992254Y-670228D01*
X7992254Y-670228D02*
X7973206Y-689275D01*
X7973206Y-689275D02*
X7954159Y-698799D01*
D12*
X8311302Y-750000D02*
G75*
G02*
X7711302Y-750000I-300000J0D01*
G01*
X7711302Y-750000D02*
G75*
G02*
X8311302Y-750000I300000J0D01*
G01*
D20*
X12020476Y-947123D02*
X10839524Y-947123D01*
X11430000Y-947123D02*
X11430000Y1119543D01*
X11430000Y1119543D02*
X11233175Y824305D01*
X11233175Y824305D02*
X11036350Y627479D01*
X11036350Y627479D02*
X10839524Y529067D01*
D12*
X14530000Y0D02*
G75*
G02*
X8330000Y0I-3100000J0D01*
G01*
X8330000Y0D02*
G75*
G02*
X14530000Y0I3100000J0D01*
G01*
D21*
X12191904Y-1222095D02*
X10668095Y-1222095D01*
X11429999Y-1222095D02*
X11429999Y1444571D01*
X11429999Y1444571D02*
X11176031Y1063619D01*
X11176031Y1063619D02*
X10922063Y809651D01*
X10922063Y809651D02*
X10668095Y682667D01*
D12*
X7430000Y500000D02*
X7445685Y676420D01*
X7501347Y870950D01*
X7595028Y1050293D01*
X7722893Y1207107D01*
X7879707Y1334972D01*
X8059050Y1428653D01*
X8253580Y1484315D01*
X8430000Y1500000D01*
X14430000Y1500000D01*
X14606420Y1484315D01*
X14800950Y1428653D01*
X14980293Y1334972D01*
X15137107Y1207107D01*
X15264972Y1050293D01*
X15358653Y870950D01*
X15414315Y676420D01*
X15430000Y500000D01*
X15430000Y-500000D01*
X15414315Y-676420D01*
X15358653Y-870950D01*
X15264972Y-1050293D01*
X15137107Y-1207107D01*
X14980293Y-1334972D01*
X14800950Y-1428653D01*
X14606420Y-1484315D01*
X14430000Y-1500000D01*
X8430000Y-1500000D01*
X8253580Y-1484315D01*
X8059050Y-1428653D01*
X7879707Y-1334972D01*
X7722893Y-1207107D01*
X7595028Y-1050293D01*
X7501347Y-870950D01*
X7445685Y-676420D01*
X7430000Y-500000D01*
X7430000Y500000D01*
D19*
X14905840Y658344D02*
X14791555Y658344D01*
X14848698Y658344D02*
X14848698Y858344D01*
X14848698Y858344D02*
X14829650Y829772D01*
X14829650Y829772D02*
X14810602Y810725D01*
X14810602Y810725D02*
X14791555Y801201D01*
D12*
X15148698Y750000D02*
G75*
G02*
X14548698Y750000I-300000J0D01*
G01*
X14548698Y750000D02*
G75*
G02*
X15148698Y750000I300000J0D01*
G01*
D19*
X14905840Y-841656D02*
X14791555Y-841656D01*
X14848698Y-841656D02*
X14848698Y-641656D01*
X14848698Y-641656D02*
X14829650Y-670228D01*
X14829650Y-670228D02*
X14810602Y-689275D01*
X14810602Y-689275D02*
X14791555Y-698799D01*
D12*
X15148698Y-750000D02*
G75*
G02*
X14548698Y-750000I-300000J0D01*
G01*
X14548698Y-750000D02*
G75*
G02*
X15148698Y-750000I300000J0D01*
G01*
D19*
X14987142Y-91656D02*
X14872857Y-91656D01*
X14930000Y-91656D02*
X14930000Y108344D01*
X14930000Y108344D02*
X14910952Y79772D01*
X14910952Y79772D02*
X14891904Y60725D01*
X14891904Y60725D02*
X14872857Y51201D01*
D12*
X15230000Y0D02*
G75*
G02*
X14630000Y0I-300000J0D01*
G01*
X14630000Y0D02*
G75*
G02*
X15230000Y0I300000J0D01*
G01*
D23*
X-21319070Y-32992550D02*
X-21319070Y-33297350D01*
X-21319070Y-33144950D02*
X-21852470Y-33144950D01*
X-21852470Y-33144950D02*
X-21776270Y-33195750D01*
X-21776270Y-33195750D02*
X-21725470Y-33246550D01*
X-21725470Y-33246550D02*
X-21700070Y-33297350D01*
D12*
X-21830219Y-34150000D02*
X-21830219Y-32139900D01*
X-21296819Y-32139900D01*
X-21296819Y-34150000D01*
X-21830219Y-34150000D01*
D23*
X-20531670Y-33297350D02*
X-20557070Y-33271950D01*
X-20557070Y-33271950D02*
X-20582470Y-33221150D01*
X-20582470Y-33221150D02*
X-20582470Y-33094150D01*
X-20582470Y-33094150D02*
X-20557070Y-33043350D01*
X-20557070Y-33043350D02*
X-20531670Y-33017950D01*
X-20531670Y-33017950D02*
X-20480870Y-32992550D01*
X-20480870Y-32992550D02*
X-20430070Y-32992550D01*
X-20430070Y-32992550D02*
X-20353870Y-33017950D01*
X-20353870Y-33017950D02*
X-20049070Y-33322750D01*
X-20049070Y-33322750D02*
X-20049070Y-32992550D01*
D12*
X-20560219Y-34150000D02*
X-20560219Y-32139900D01*
X-20026819Y-32139900D01*
X-20026819Y-34150000D01*
X-20560219Y-34150000D01*
D23*
X-19312470Y-33322750D02*
X-19312470Y-32992550D01*
X-19312470Y-32992550D02*
X-19109270Y-33170350D01*
X-19109270Y-33170350D02*
X-19109270Y-33094150D01*
X-19109270Y-33094150D02*
X-19083870Y-33043350D01*
X-19083870Y-33043350D02*
X-19058470Y-33017950D01*
X-19058470Y-33017950D02*
X-19007670Y-32992550D01*
X-19007670Y-32992550D02*
X-18880670Y-32992550D01*
X-18880670Y-32992550D02*
X-18829870Y-33017950D01*
X-18829870Y-33017950D02*
X-18804470Y-33043350D01*
X-18804470Y-33043350D02*
X-18779070Y-33094150D01*
X-18779070Y-33094150D02*
X-18779070Y-33246550D01*
X-18779070Y-33246550D02*
X-18804470Y-33297350D01*
X-18804470Y-33297350D02*
X-18829870Y-33322750D01*
D12*
X-19290219Y-34150000D02*
X-19290219Y-32139900D01*
X-18756819Y-32139900D01*
X-18756819Y-34150000D01*
X-19290219Y-34150000D01*
D23*
X-17864670Y-33043350D02*
X-17509070Y-33043350D01*
X-18067870Y-33170350D02*
X-17686870Y-33297350D01*
X-17686870Y-33297350D02*
X-17686870Y-32967150D01*
D12*
X-18020219Y-34150000D02*
X-18020219Y-32139900D01*
X-17486819Y-32139900D01*
X-17486819Y-34150000D01*
X-18020219Y-34150000D01*
D23*
X-16772470Y-33017950D02*
X-16772470Y-33271950D01*
X-16772470Y-33271950D02*
X-16518470Y-33297350D01*
X-16518470Y-33297350D02*
X-16543870Y-33271950D01*
X-16543870Y-33271950D02*
X-16569270Y-33221150D01*
X-16569270Y-33221150D02*
X-16569270Y-33094150D01*
X-16569270Y-33094150D02*
X-16543870Y-33043350D01*
X-16543870Y-33043350D02*
X-16518470Y-33017950D01*
X-16518470Y-33017950D02*
X-16467670Y-32992550D01*
X-16467670Y-32992550D02*
X-16340670Y-32992550D01*
X-16340670Y-32992550D02*
X-16289870Y-33017950D01*
X-16289870Y-33017950D02*
X-16264470Y-33043350D01*
X-16264470Y-33043350D02*
X-16239070Y-33094150D01*
X-16239070Y-33094150D02*
X-16239070Y-33221150D01*
X-16239070Y-33221150D02*
X-16264470Y-33271950D01*
X-16264470Y-33271950D02*
X-16289870Y-33297350D01*
D12*
X-16750219Y-34150000D02*
X-16750219Y-32139900D01*
X-16216819Y-32139900D01*
X-16216819Y-34150000D01*
X-16750219Y-34150000D01*
D23*
X-15502470Y-33043350D02*
X-15502470Y-33144950D01*
X-15502470Y-33144950D02*
X-15477070Y-33195750D01*
X-15477070Y-33195750D02*
X-15451670Y-33221150D01*
X-15451670Y-33221150D02*
X-15375470Y-33271950D01*
X-15375470Y-33271950D02*
X-15273870Y-33297350D01*
X-15273870Y-33297350D02*
X-15070670Y-33297350D01*
X-15070670Y-33297350D02*
X-15019870Y-33271950D01*
X-15019870Y-33271950D02*
X-14994470Y-33246550D01*
X-14994470Y-33246550D02*
X-14969070Y-33195750D01*
X-14969070Y-33195750D02*
X-14969070Y-33094150D01*
X-14969070Y-33094150D02*
X-14994470Y-33043350D01*
X-14994470Y-33043350D02*
X-15019870Y-33017950D01*
X-15019870Y-33017950D02*
X-15070670Y-32992550D01*
X-15070670Y-32992550D02*
X-15197670Y-32992550D01*
X-15197670Y-32992550D02*
X-15248470Y-33017950D01*
X-15248470Y-33017950D02*
X-15273870Y-33043350D01*
X-15273870Y-33043350D02*
X-15299270Y-33094150D01*
X-15299270Y-33094150D02*
X-15299270Y-33195750D01*
X-15299270Y-33195750D02*
X-15273870Y-33246550D01*
X-15273870Y-33246550D02*
X-15248470Y-33271950D01*
X-15248470Y-33271950D02*
X-15197670Y-33297350D01*
D12*
X-15480219Y-34150000D02*
X-15480219Y-32139900D01*
X-14946819Y-32139900D01*
X-14946819Y-34150000D01*
X-15480219Y-34150000D01*
D23*
X-14232470Y-33322750D02*
X-14232470Y-32967150D01*
X-14232470Y-32967150D02*
X-13699070Y-33195750D01*
D12*
X-14210219Y-34150000D02*
X-14210219Y-32139900D01*
X-13676819Y-32139900D01*
X-13676819Y-34150000D01*
X-14210219Y-34150000D01*
D23*
X-12733870Y-33195750D02*
X-12759270Y-33246550D01*
X-12759270Y-33246550D02*
X-12784670Y-33271950D01*
X-12784670Y-33271950D02*
X-12835470Y-33297350D01*
X-12835470Y-33297350D02*
X-12860870Y-33297350D01*
X-12860870Y-33297350D02*
X-12911670Y-33271950D01*
X-12911670Y-33271950D02*
X-12937070Y-33246550D01*
X-12937070Y-33246550D02*
X-12962470Y-33195750D01*
X-12962470Y-33195750D02*
X-12962470Y-33094150D01*
X-12962470Y-33094150D02*
X-12937070Y-33043350D01*
X-12937070Y-33043350D02*
X-12911670Y-33017950D01*
X-12911670Y-33017950D02*
X-12860870Y-32992550D01*
X-12860870Y-32992550D02*
X-12835470Y-32992550D01*
X-12835470Y-32992550D02*
X-12784670Y-33017950D01*
X-12784670Y-33017950D02*
X-12759270Y-33043350D01*
X-12759270Y-33043350D02*
X-12733870Y-33094150D01*
X-12733870Y-33094150D02*
X-12733870Y-33195750D01*
X-12733870Y-33195750D02*
X-12708470Y-33246550D01*
X-12708470Y-33246550D02*
X-12683070Y-33271950D01*
X-12683070Y-33271950D02*
X-12632270Y-33297350D01*
X-12632270Y-33297350D02*
X-12530670Y-33297350D01*
X-12530670Y-33297350D02*
X-12479870Y-33271950D01*
X-12479870Y-33271950D02*
X-12454470Y-33246550D01*
X-12454470Y-33246550D02*
X-12429070Y-33195750D01*
X-12429070Y-33195750D02*
X-12429070Y-33094150D01*
X-12429070Y-33094150D02*
X-12454470Y-33043350D01*
X-12454470Y-33043350D02*
X-12479870Y-33017950D01*
X-12479870Y-33017950D02*
X-12530670Y-32992550D01*
X-12530670Y-32992550D02*
X-12632270Y-32992550D01*
X-12632270Y-32992550D02*
X-12683070Y-33017950D01*
X-12683070Y-33017950D02*
X-12708470Y-33043350D01*
X-12708470Y-33043350D02*
X-12733870Y-33094150D01*
D12*
X-12940219Y-34150000D02*
X-12940219Y-32139900D01*
X-12406819Y-32139900D01*
X-12406819Y-34150000D01*
X-12940219Y-34150000D01*
D23*
X-12429070Y-27756650D02*
X-12429070Y-27655050D01*
X-12429070Y-27655050D02*
X-12454470Y-27604250D01*
X-12454470Y-27604250D02*
X-12479870Y-27578850D01*
X-12479870Y-27578850D02*
X-12556070Y-27528050D01*
X-12556070Y-27528050D02*
X-12657670Y-27502650D01*
X-12657670Y-27502650D02*
X-12860870Y-27502650D01*
X-12860870Y-27502650D02*
X-12911670Y-27528050D01*
X-12911670Y-27528050D02*
X-12937070Y-27553450D01*
X-12937070Y-27553450D02*
X-12962470Y-27604250D01*
X-12962470Y-27604250D02*
X-12962470Y-27705850D01*
X-12962470Y-27705850D02*
X-12937070Y-27756650D01*
X-12937070Y-27756650D02*
X-12911670Y-27782050D01*
X-12911670Y-27782050D02*
X-12860870Y-27807450D01*
X-12860870Y-27807450D02*
X-12733870Y-27807450D01*
X-12733870Y-27807450D02*
X-12683070Y-27782050D01*
X-12683070Y-27782050D02*
X-12657670Y-27756650D01*
X-12657670Y-27756650D02*
X-12632270Y-27705850D01*
X-12632270Y-27705850D02*
X-12632270Y-27604250D01*
X-12632270Y-27604250D02*
X-12657670Y-27553450D01*
X-12657670Y-27553450D02*
X-12683070Y-27528050D01*
X-12683070Y-27528050D02*
X-12733870Y-27502650D01*
D12*
X-12940219Y-28660100D02*
X-12940219Y-26650000D01*
X-12406819Y-26650000D01*
X-12406819Y-28660100D01*
X-12940219Y-28660100D01*
D23*
X-13699070Y-27756650D02*
X-13699070Y-28061450D01*
X-13699070Y-27909050D02*
X-14232470Y-27909050D01*
X-14232470Y-27909050D02*
X-14156270Y-27959850D01*
X-14156270Y-27959850D02*
X-14105470Y-28010650D01*
X-14105470Y-28010650D02*
X-14080070Y-28061450D01*
X-14232470Y-27426450D02*
X-14232470Y-27375650D01*
X-14232470Y-27375650D02*
X-14207070Y-27324850D01*
X-14207070Y-27324850D02*
X-14181670Y-27299450D01*
X-14181670Y-27299450D02*
X-14130870Y-27274050D01*
X-14130870Y-27274050D02*
X-14029270Y-27248650D01*
X-14029270Y-27248650D02*
X-13902270Y-27248650D01*
X-13902270Y-27248650D02*
X-13800670Y-27274050D01*
X-13800670Y-27274050D02*
X-13749870Y-27299450D01*
X-13749870Y-27299450D02*
X-13724470Y-27324850D01*
X-13724470Y-27324850D02*
X-13699070Y-27375650D01*
X-13699070Y-27375650D02*
X-13699070Y-27426450D01*
X-13699070Y-27426450D02*
X-13724470Y-27477250D01*
X-13724470Y-27477250D02*
X-13749870Y-27502650D01*
X-13749870Y-27502650D02*
X-13800670Y-27528050D01*
X-13800670Y-27528050D02*
X-13902270Y-27553450D01*
X-13902270Y-27553450D02*
X-14029270Y-27553450D01*
X-14029270Y-27553450D02*
X-14130870Y-27528050D01*
X-14130870Y-27528050D02*
X-14181670Y-27502650D01*
X-14181670Y-27502650D02*
X-14207070Y-27477250D01*
X-14207070Y-27477250D02*
X-14232470Y-27426450D01*
D12*
X-14210219Y-28660100D02*
X-14210219Y-26650000D01*
X-13676819Y-26650000D01*
X-13676819Y-28660100D01*
X-14210219Y-28660100D01*
D23*
X-14969070Y-27756650D02*
X-14969070Y-28061450D01*
X-14969070Y-27909050D02*
X-15502470Y-27909050D01*
X-15502470Y-27909050D02*
X-15426270Y-27959850D01*
X-15426270Y-27959850D02*
X-15375470Y-28010650D01*
X-15375470Y-28010650D02*
X-15350070Y-28061450D01*
X-14969070Y-27248650D02*
X-14969070Y-27553450D01*
X-14969070Y-27401050D02*
X-15502470Y-27401050D01*
X-15502470Y-27401050D02*
X-15426270Y-27451850D01*
X-15426270Y-27451850D02*
X-15375470Y-27502650D01*
X-15375470Y-27502650D02*
X-15350070Y-27553450D01*
D12*
X-15480219Y-28660100D02*
X-15480219Y-26650000D01*
X-14946819Y-26650000D01*
X-14946819Y-28660100D01*
X-15480219Y-28660100D01*
D23*
X-16239070Y-27756650D02*
X-16239070Y-28061450D01*
X-16239070Y-27909050D02*
X-16772470Y-27909050D01*
X-16772470Y-27909050D02*
X-16696270Y-27959850D01*
X-16696270Y-27959850D02*
X-16645470Y-28010650D01*
X-16645470Y-28010650D02*
X-16620070Y-28061450D01*
X-16721670Y-27553450D02*
X-16747070Y-27528050D01*
X-16747070Y-27528050D02*
X-16772470Y-27477250D01*
X-16772470Y-27477250D02*
X-16772470Y-27350250D01*
X-16772470Y-27350250D02*
X-16747070Y-27299450D01*
X-16747070Y-27299450D02*
X-16721670Y-27274050D01*
X-16721670Y-27274050D02*
X-16670870Y-27248650D01*
X-16670870Y-27248650D02*
X-16620070Y-27248650D01*
X-16620070Y-27248650D02*
X-16543870Y-27274050D01*
X-16543870Y-27274050D02*
X-16239070Y-27578850D01*
X-16239070Y-27578850D02*
X-16239070Y-27248650D01*
D12*
X-16750219Y-28660100D02*
X-16750219Y-26650000D01*
X-16216819Y-26650000D01*
X-16216819Y-28660100D01*
X-16750219Y-28660100D01*
D23*
X-17509070Y-27756650D02*
X-17509070Y-28061450D01*
X-17509070Y-27909050D02*
X-18042470Y-27909050D01*
X-18042470Y-27909050D02*
X-17966270Y-27959850D01*
X-17966270Y-27959850D02*
X-17915470Y-28010650D01*
X-17915470Y-28010650D02*
X-17890070Y-28061450D01*
X-18042470Y-27578850D02*
X-18042470Y-27248650D01*
X-18042470Y-27248650D02*
X-17839270Y-27426450D01*
X-17839270Y-27426450D02*
X-17839270Y-27350250D01*
X-17839270Y-27350250D02*
X-17813870Y-27299450D01*
X-17813870Y-27299450D02*
X-17788470Y-27274050D01*
X-17788470Y-27274050D02*
X-17737670Y-27248650D01*
X-17737670Y-27248650D02*
X-17610670Y-27248650D01*
X-17610670Y-27248650D02*
X-17559870Y-27274050D01*
X-17559870Y-27274050D02*
X-17534470Y-27299450D01*
X-17534470Y-27299450D02*
X-17509070Y-27350250D01*
X-17509070Y-27350250D02*
X-17509070Y-27502650D01*
X-17509070Y-27502650D02*
X-17534470Y-27553450D01*
X-17534470Y-27553450D02*
X-17559870Y-27578850D01*
D12*
X-18020219Y-28660100D02*
X-18020219Y-26650000D01*
X-17486819Y-26650000D01*
X-17486819Y-28660100D01*
X-18020219Y-28660100D01*
D23*
X-18779070Y-27756650D02*
X-18779070Y-28061450D01*
X-18779070Y-27909050D02*
X-19312470Y-27909050D01*
X-19312470Y-27909050D02*
X-19236270Y-27959850D01*
X-19236270Y-27959850D02*
X-19185470Y-28010650D01*
X-19185470Y-28010650D02*
X-19160070Y-28061450D01*
X-19134670Y-27299450D02*
X-18779070Y-27299450D01*
X-19337870Y-27426450D02*
X-18956870Y-27553450D01*
X-18956870Y-27553450D02*
X-18956870Y-27223250D01*
D12*
X-19290219Y-28660100D02*
X-19290219Y-26650000D01*
X-18756819Y-26650000D01*
X-18756819Y-28660100D01*
X-19290219Y-28660100D01*
D23*
X-20049070Y-27756650D02*
X-20049070Y-28061450D01*
X-20049070Y-27909050D02*
X-20582470Y-27909050D01*
X-20582470Y-27909050D02*
X-20506270Y-27959850D01*
X-20506270Y-27959850D02*
X-20455470Y-28010650D01*
X-20455470Y-28010650D02*
X-20430070Y-28061450D01*
X-20582470Y-27274050D02*
X-20582470Y-27528050D01*
X-20582470Y-27528050D02*
X-20328470Y-27553450D01*
X-20328470Y-27553450D02*
X-20353870Y-27528050D01*
X-20353870Y-27528050D02*
X-20379270Y-27477250D01*
X-20379270Y-27477250D02*
X-20379270Y-27350250D01*
X-20379270Y-27350250D02*
X-20353870Y-27299450D01*
X-20353870Y-27299450D02*
X-20328470Y-27274050D01*
X-20328470Y-27274050D02*
X-20277670Y-27248650D01*
X-20277670Y-27248650D02*
X-20150670Y-27248650D01*
X-20150670Y-27248650D02*
X-20099870Y-27274050D01*
X-20099870Y-27274050D02*
X-20074470Y-27299450D01*
X-20074470Y-27299450D02*
X-20049070Y-27350250D01*
X-20049070Y-27350250D02*
X-20049070Y-27477250D01*
X-20049070Y-27477250D02*
X-20074470Y-27528050D01*
X-20074470Y-27528050D02*
X-20099870Y-27553450D01*
D12*
X-20560219Y-28660100D02*
X-20560219Y-26650000D01*
X-20026819Y-26650000D01*
X-20026819Y-28660100D01*
X-20560219Y-28660100D01*
D23*
X-21319070Y-27756650D02*
X-21319070Y-28061450D01*
X-21319070Y-27909050D02*
X-21852470Y-27909050D01*
X-21852470Y-27909050D02*
X-21776270Y-27959850D01*
X-21776270Y-27959850D02*
X-21725470Y-28010650D01*
X-21725470Y-28010650D02*
X-21700070Y-28061450D01*
X-21852470Y-27299450D02*
X-21852470Y-27401050D01*
X-21852470Y-27401050D02*
X-21827070Y-27451850D01*
X-21827070Y-27451850D02*
X-21801670Y-27477250D01*
X-21801670Y-27477250D02*
X-21725470Y-27528050D01*
X-21725470Y-27528050D02*
X-21623870Y-27553450D01*
X-21623870Y-27553450D02*
X-21420670Y-27553450D01*
X-21420670Y-27553450D02*
X-21369870Y-27528050D01*
X-21369870Y-27528050D02*
X-21344470Y-27502650D01*
X-21344470Y-27502650D02*
X-21319070Y-27451850D01*
X-21319070Y-27451850D02*
X-21319070Y-27350250D01*
X-21319070Y-27350250D02*
X-21344470Y-27299450D01*
X-21344470Y-27299450D02*
X-21369870Y-27274050D01*
X-21369870Y-27274050D02*
X-21420670Y-27248650D01*
X-21420670Y-27248650D02*
X-21547670Y-27248650D01*
X-21547670Y-27248650D02*
X-21598470Y-27274050D01*
X-21598470Y-27274050D02*
X-21623870Y-27299450D01*
X-21623870Y-27299450D02*
X-21649270Y-27350250D01*
X-21649270Y-27350250D02*
X-21649270Y-27451850D01*
X-21649270Y-27451850D02*
X-21623870Y-27502650D01*
X-21623870Y-27502650D02*
X-21598470Y-27528050D01*
X-21598470Y-27528050D02*
X-21547670Y-27553450D01*
D12*
X-21830219Y-28660100D02*
X-21830219Y-26650000D01*
X-21296819Y-26650000D01*
X-21296819Y-28660100D01*
X-21830219Y-28660100D01*
D15*
X-44350000Y-4970799D02*
X-44750000Y-4970799D01*
X-44550000Y-4970799D02*
X-44550000Y-4270799D01*
X-44550000Y-4270799D02*
X-44616667Y-4370799D01*
X-44616667Y-4370799D02*
X-44683333Y-4437466D01*
X-44683333Y-4437466D02*
X-44750000Y-4470799D01*
D12*
X-45600000Y-4200000D02*
X-45580970Y-4104329D01*
X-45526777Y-4023223D01*
X-45445671Y-3969030D01*
X-45350000Y-3950000D01*
X-43750000Y-3950000D01*
X-43654329Y-3969030D01*
X-43573223Y-4023223D01*
X-43519030Y-4104329D01*
X-43500000Y-4200000D01*
X-43500000Y-5100000D01*
X-43519030Y-5195671D01*
X-43573223Y-5276777D01*
X-43654329Y-5330970D01*
X-43750000Y-5350000D01*
X-45350000Y-5350000D01*
X-45445671Y-5330970D01*
X-45526777Y-5276777D01*
X-45580970Y-5195671D01*
X-45600000Y-5100000D01*
X-45600000Y-4200000D01*
D15*
X-44750000Y-8837466D02*
X-44716667Y-8804132D01*
X-44716667Y-8804132D02*
X-44650000Y-8770799D01*
X-44650000Y-8770799D02*
X-44483333Y-8770799D01*
X-44483333Y-8770799D02*
X-44416667Y-8804132D01*
X-44416667Y-8804132D02*
X-44383333Y-8837466D01*
X-44383333Y-8837466D02*
X-44350000Y-8904132D01*
X-44350000Y-8904132D02*
X-44350000Y-8970799D01*
X-44350000Y-8970799D02*
X-44383333Y-9070799D01*
X-44383333Y-9070799D02*
X-44783333Y-9470799D01*
X-44783333Y-9470799D02*
X-44350000Y-9470799D01*
D12*
X-45600000Y-8700000D02*
X-45580970Y-8604329D01*
X-45526777Y-8523223D01*
X-45445671Y-8469030D01*
X-45350000Y-8450000D01*
X-43750000Y-8450000D01*
X-43654329Y-8469030D01*
X-43573223Y-8523223D01*
X-43519030Y-8604329D01*
X-43500000Y-8700000D01*
X-43500000Y-9600000D01*
X-43519030Y-9695671D01*
X-43573223Y-9776777D01*
X-43654329Y-9830970D01*
X-43750000Y-9850000D01*
X-45350000Y-9850000D01*
X-45445671Y-9830970D01*
X-45526777Y-9776777D01*
X-45580970Y-9695671D01*
X-45600000Y-9600000D01*
X-45600000Y-8700000D01*
D15*
X-35683333Y-4270799D02*
X-35250000Y-4270799D01*
X-35250000Y-4270799D02*
X-35483333Y-4537466D01*
X-35483333Y-4537466D02*
X-35383333Y-4537466D01*
X-35383333Y-4537466D02*
X-35316667Y-4570799D01*
X-35316667Y-4570799D02*
X-35283333Y-4604132D01*
X-35283333Y-4604132D02*
X-35250000Y-4670799D01*
X-35250000Y-4670799D02*
X-35250000Y-4837466D01*
X-35250000Y-4837466D02*
X-35283333Y-4904132D01*
X-35283333Y-4904132D02*
X-35316667Y-4937466D01*
X-35316667Y-4937466D02*
X-35383333Y-4970799D01*
X-35383333Y-4970799D02*
X-35583333Y-4970799D01*
X-35583333Y-4970799D02*
X-35650000Y-4937466D01*
X-35650000Y-4937466D02*
X-35683333Y-4904132D01*
D12*
X-36500000Y-4200000D02*
X-36480970Y-4104329D01*
X-36426777Y-4023223D01*
X-36345671Y-3969030D01*
X-36250000Y-3950000D01*
X-34650000Y-3950000D01*
X-34554329Y-3969030D01*
X-34473223Y-4023223D01*
X-34419030Y-4104329D01*
X-34400000Y-4200000D01*
X-34400000Y-5100000D01*
X-34419030Y-5195671D01*
X-34473223Y-5276777D01*
X-34554329Y-5330970D01*
X-34650000Y-5350000D01*
X-36250000Y-5350000D01*
X-36345671Y-5330970D01*
X-36426777Y-5276777D01*
X-36480970Y-5195671D01*
X-36500000Y-5100000D01*
X-36500000Y-4200000D01*
D15*
X-35316667Y-9004132D02*
X-35316667Y-9470799D01*
X-35483333Y-8737466D02*
X-35650000Y-9237466D01*
X-35650000Y-9237466D02*
X-35216667Y-9237466D01*
D12*
X-36500000Y-8700000D02*
X-36480970Y-8604329D01*
X-36426777Y-8523223D01*
X-36345671Y-8469030D01*
X-36250000Y-8450000D01*
X-34650000Y-8450000D01*
X-34554329Y-8469030D01*
X-34473223Y-8523223D01*
X-34419030Y-8604329D01*
X-34400000Y-8700000D01*
X-34400000Y-9600000D01*
X-34419030Y-9695671D01*
X-34473223Y-9776777D01*
X-34554329Y-9830970D01*
X-34650000Y-9850000D01*
X-36250000Y-9850000D01*
X-36345671Y-9830970D01*
X-36426777Y-9776777D01*
X-36480970Y-9695671D01*
X-36500000Y-9600000D01*
X-36500000Y-8700000D01*
X-45895000Y-3605000D02*
X-34105000Y-10195000D01*
X-34105000Y-3605000D02*
X-45895000Y-10195000D01*
D18*
X45776948Y-17452614D02*
X45443615Y-17452614D01*
X45610281Y-17452614D02*
X45610281Y-16869281D01*
X45610281Y-16869281D02*
X45554726Y-16952615D01*
X45554726Y-16952615D02*
X45499170Y-17008170D01*
X45499170Y-17008170D02*
X45443615Y-17035948D01*
D12*
X46177588Y-16385281D02*
X46248034Y-16393454D01*
X46351477Y-16439128D01*
X46431434Y-16519085D01*
X46477108Y-16622528D01*
X46485280Y-16692975D01*
X46485281Y-17677588D01*
X46477108Y-17748034D01*
X46431434Y-17851477D01*
X46351477Y-17931434D01*
X46248034Y-17977108D01*
X46177587Y-17985280D01*
X45042974Y-17985281D01*
X44972528Y-17977108D01*
X44869085Y-17931434D01*
X44789128Y-17851477D01*
X44743454Y-17748034D01*
X44735282Y-17677587D01*
X44735281Y-16692974D01*
X44743454Y-16622528D01*
X44789128Y-16519085D01*
X44869085Y-16439128D01*
X44972528Y-16393454D01*
X45042975Y-16385282D01*
X46177588Y-16385281D01*
D18*
X45443615Y-20324837D02*
X45471392Y-20297059D01*
X45471392Y-20297059D02*
X45526948Y-20269281D01*
X45526948Y-20269281D02*
X45665837Y-20269281D01*
X45665837Y-20269281D02*
X45721392Y-20297059D01*
X45721392Y-20297059D02*
X45749170Y-20324837D01*
X45749170Y-20324837D02*
X45776948Y-20380392D01*
X45776948Y-20380392D02*
X45776948Y-20435948D01*
X45776948Y-20435948D02*
X45749170Y-20519281D01*
X45749170Y-20519281D02*
X45415837Y-20852614D01*
X45415837Y-20852614D02*
X45776948Y-20852614D01*
D12*
X46177588Y-19785281D02*
X46248034Y-19793454D01*
X46351477Y-19839128D01*
X46431434Y-19919085D01*
X46477108Y-20022528D01*
X46485280Y-20092975D01*
X46485281Y-21077588D01*
X46477108Y-21148034D01*
X46431434Y-21251477D01*
X46351477Y-21331434D01*
X46248034Y-21377108D01*
X46177587Y-21385280D01*
X45042974Y-21385281D01*
X44972528Y-21377108D01*
X44869085Y-21331434D01*
X44789128Y-21251477D01*
X44743454Y-21148034D01*
X44735282Y-21077587D01*
X44735281Y-20092974D01*
X44743454Y-20022528D01*
X44789128Y-19919085D01*
X44869085Y-19839128D01*
X44972528Y-19793454D01*
X45042975Y-19785282D01*
X46177588Y-19785281D01*
X46775281Y-16090281D02*
X44445281Y-21680281D01*
X46775281Y-21680281D02*
X44445281Y-16090281D01*
D13*
X6764543Y-13932142D02*
X6764543Y-14417857D01*
X6764543Y-14175000D02*
X5914543Y-14175000D01*
X5914543Y-14175000D02*
X6035971Y-14255952D01*
X6035971Y-14255952D02*
X6116924Y-14336904D01*
X6116924Y-14336904D02*
X6157400Y-14417857D01*
D12*
X6000000Y-15450000D02*
X5904329Y-15430970D01*
X5823223Y-15376777D01*
X5769030Y-15295671D01*
X5750000Y-15200000D01*
X5750000Y-13150000D01*
X5769030Y-13054329D01*
X5823223Y-12973223D01*
X5904329Y-12919030D01*
X6000000Y-12900000D01*
X6750000Y-12900000D01*
X6845671Y-12919030D01*
X6926777Y-12973223D01*
X6980970Y-13054329D01*
X7000000Y-13150000D01*
X7000000Y-15200000D01*
X6980970Y-15295671D01*
X6926777Y-15376777D01*
X6845671Y-15430970D01*
X6750000Y-15450000D01*
X6000000Y-15450000D01*
D13*
X9245495Y-14417857D02*
X9205019Y-14377381D01*
X9205019Y-14377381D02*
X9164543Y-14296428D01*
X9164543Y-14296428D02*
X9164543Y-14094047D01*
X9164543Y-14094047D02*
X9205019Y-14013095D01*
X9205019Y-14013095D02*
X9245495Y-13972619D01*
X9245495Y-13972619D02*
X9326447Y-13932142D01*
X9326447Y-13932142D02*
X9407400Y-13932142D01*
X9407400Y-13932142D02*
X9528828Y-13972619D01*
X9528828Y-13972619D02*
X10014543Y-14458333D01*
X10014543Y-14458333D02*
X10014543Y-13932142D01*
D12*
X9250000Y-15450000D02*
X9154329Y-15430970D01*
X9073223Y-15376777D01*
X9019030Y-15295671D01*
X9000000Y-15200000D01*
X9000000Y-13150000D01*
X9019030Y-13054329D01*
X9073223Y-12973223D01*
X9154329Y-12919030D01*
X9250000Y-12900000D01*
X10000000Y-12900000D01*
X10095671Y-12919030D01*
X10176777Y-12973223D01*
X10230970Y-13054329D01*
X10250000Y-13150000D01*
X10250000Y-15200000D01*
X10230970Y-15295671D01*
X10176777Y-15376777D01*
X10095671Y-15430970D01*
X10000000Y-15450000D01*
X9250000Y-15450000D01*
D13*
X9164543Y-8508333D02*
X9164543Y-7982142D01*
X9164543Y-7982142D02*
X9488352Y-8265476D01*
X9488352Y-8265476D02*
X9488352Y-8144047D01*
X9488352Y-8144047D02*
X9528828Y-8063095D01*
X9528828Y-8063095D02*
X9569305Y-8022619D01*
X9569305Y-8022619D02*
X9650257Y-7982142D01*
X9650257Y-7982142D02*
X9852638Y-7982142D01*
X9852638Y-7982142D02*
X9933590Y-8022619D01*
X9933590Y-8022619D02*
X9974067Y-8063095D01*
X9974067Y-8063095D02*
X10014543Y-8144047D01*
X10014543Y-8144047D02*
X10014543Y-8386904D01*
X10014543Y-8386904D02*
X9974067Y-8467857D01*
X9974067Y-8467857D02*
X9933590Y-8508333D01*
D12*
X9250000Y-9500000D02*
X9154329Y-9480970D01*
X9073223Y-9426777D01*
X9019030Y-9345671D01*
X9000000Y-9250000D01*
X9000000Y-7200000D01*
X9019030Y-7104329D01*
X9073223Y-7023223D01*
X9154329Y-6969030D01*
X9250000Y-6950000D01*
X10000000Y-6950000D01*
X10095671Y-6969030D01*
X10176777Y-7023223D01*
X10230970Y-7104329D01*
X10250000Y-7200000D01*
X10250000Y-9250000D01*
X10230970Y-9345671D01*
X10176777Y-9426777D01*
X10095671Y-9480970D01*
X10000000Y-9500000D01*
X9250000Y-9500000D01*
D13*
X6197876Y-8063095D02*
X6764543Y-8063095D01*
X5874067Y-8265476D02*
X6481209Y-8467857D01*
X6481209Y-8467857D02*
X6481209Y-7941666D01*
D12*
X6000000Y-9500000D02*
X5904329Y-9480970D01*
X5823223Y-9426777D01*
X5769030Y-9345671D01*
X5750000Y-9250000D01*
X5750000Y-7200000D01*
X5769030Y-7104329D01*
X5823223Y-7023223D01*
X5904329Y-6969030D01*
X6000000Y-6950000D01*
X6750000Y-6950000D01*
X6845671Y-6969030D01*
X6926777Y-7023223D01*
X6980970Y-7104329D01*
X7000000Y-7200000D01*
X7000000Y-9250000D01*
X6980970Y-9345671D01*
X6926777Y-9426777D01*
X6845671Y-9480970D01*
X6750000Y-9500000D01*
X6000000Y-9500000D01*
X5095000Y-6950000D02*
X10575000Y-15450000D01*
X10575000Y-6950000D02*
X5095000Y-15450000D01*
X33185282Y-6435281D02*
X33089611Y-6416251D01*
X33008505Y-6362057D01*
X32954311Y-6280951D01*
X32935282Y-6185279D01*
X32935281Y-5185282D01*
X32954311Y-5089611D01*
X33008505Y-5008505D01*
X33089611Y-4954311D01*
X33185283Y-4935282D01*
X36885280Y-4935281D01*
X36980951Y-4954311D01*
X37062057Y-5008505D01*
X37116251Y-5089611D01*
X37135280Y-5185283D01*
X37135281Y-6185280D01*
X37116251Y-6280951D01*
X37062057Y-6362057D01*
X36980951Y-6416251D01*
X36885279Y-6435280D01*
X33185282Y-6435281D01*
X33185282Y264719D02*
X33089611Y283749D01*
X33008505Y337943D01*
X32954311Y419049D01*
X32935282Y514721D01*
X32935281Y1514718D01*
X32954311Y1610389D01*
X33008505Y1691495D01*
X33089611Y1745689D01*
X33185283Y1764718D01*
X36885280Y1764719D01*
X36980951Y1745689D01*
X37062057Y1691495D01*
X37116251Y1610389D01*
X37135280Y1514717D01*
X37135281Y514720D01*
X37116251Y419049D01*
X37062057Y337943D01*
X36980951Y283749D01*
X36885279Y264720D01*
X33185282Y264719D01*
X28928138Y-3935223D02*
X28242424Y-3935223D01*
X28585281Y-3935223D02*
X28585281Y-2735223D01*
X28585281Y-2735223D02*
X28470995Y-2906652D01*
X28470995Y-2906652D02*
X28356710Y-3020938D01*
X28356710Y-3020938D02*
X28242424Y-3078081D01*
X26835281Y-3985281D02*
X26766596Y-3977312D01*
X26665740Y-3932780D01*
X26587782Y-3854822D01*
X26543250Y-3753966D01*
X26535281Y-3685281D01*
X26535281Y-3085281D01*
X26543250Y-3016596D01*
X26587782Y-2915740D01*
X26665740Y-2837782D01*
X26766596Y-2793250D01*
X26835281Y-2785281D01*
X30335281Y-2785281D01*
X30403966Y-2793250D01*
X30504822Y-2837782D01*
X30582780Y-2915740D01*
X30627312Y-3016596D01*
X30635281Y-3085281D01*
X30635281Y-3685281D01*
X30627312Y-3753966D01*
X30582780Y-3854822D01*
X30504822Y-3932780D01*
X30403966Y-3977312D01*
X30335281Y-3985281D01*
X26835281Y-3985281D01*
X28242424Y-749509D02*
X28299567Y-692366D01*
X28299567Y-692366D02*
X28413853Y-635223D01*
X28413853Y-635223D02*
X28699567Y-635223D01*
X28699567Y-635223D02*
X28813853Y-692366D01*
X28813853Y-692366D02*
X28870995Y-749509D01*
X28870995Y-749509D02*
X28928138Y-863795D01*
X28928138Y-863795D02*
X28928138Y-978081D01*
X28928138Y-978081D02*
X28870995Y-1149509D01*
X28870995Y-1149509D02*
X28185281Y-1835223D01*
X28185281Y-1835223D02*
X28928138Y-1835223D01*
X26835281Y-1885281D02*
X26766596Y-1877312D01*
X26665740Y-1832780D01*
X26587782Y-1754822D01*
X26543250Y-1653966D01*
X26535281Y-1585281D01*
X26535281Y-985281D01*
X26543250Y-916596D01*
X26587782Y-815740D01*
X26665740Y-737782D01*
X26766596Y-693250D01*
X26835281Y-685281D01*
X30335281Y-685281D01*
X30403966Y-693250D01*
X30504822Y-737782D01*
X30582780Y-815740D01*
X30627312Y-916596D01*
X30635281Y-985281D01*
X30635281Y-1585281D01*
X30627312Y-1653966D01*
X30582780Y-1754822D01*
X30504822Y-1832780D01*
X30403966Y-1877312D01*
X30335281Y-1885281D01*
X26835281Y-1885281D01*
D18*
X49526948Y-17452614D02*
X49193615Y-17452614D01*
X49360281Y-17452614D02*
X49360281Y-16869281D01*
X49360281Y-16869281D02*
X49304726Y-16952615D01*
X49304726Y-16952615D02*
X49249170Y-17008170D01*
X49249170Y-17008170D02*
X49193615Y-17035948D01*
D12*
X49927588Y-16385281D02*
X49998034Y-16393454D01*
X50101477Y-16439128D01*
X50181434Y-16519085D01*
X50227108Y-16622528D01*
X50235280Y-16692975D01*
X50235281Y-17677588D01*
X50227108Y-17748034D01*
X50181434Y-17851477D01*
X50101477Y-17931434D01*
X49998034Y-17977108D01*
X49927587Y-17985280D01*
X48792974Y-17985281D01*
X48722528Y-17977108D01*
X48619085Y-17931434D01*
X48539128Y-17851477D01*
X48493454Y-17748034D01*
X48485282Y-17677587D01*
X48485281Y-16692974D01*
X48493454Y-16622528D01*
X48539128Y-16519085D01*
X48619085Y-16439128D01*
X48722528Y-16393454D01*
X48792975Y-16385282D01*
X49927588Y-16385281D01*
D18*
X49193615Y-20324837D02*
X49221392Y-20297059D01*
X49221392Y-20297059D02*
X49276948Y-20269281D01*
X49276948Y-20269281D02*
X49415837Y-20269281D01*
X49415837Y-20269281D02*
X49471392Y-20297059D01*
X49471392Y-20297059D02*
X49499170Y-20324837D01*
X49499170Y-20324837D02*
X49526948Y-20380392D01*
X49526948Y-20380392D02*
X49526948Y-20435948D01*
X49526948Y-20435948D02*
X49499170Y-20519281D01*
X49499170Y-20519281D02*
X49165837Y-20852614D01*
X49165837Y-20852614D02*
X49526948Y-20852614D01*
D12*
X49927588Y-19785281D02*
X49998034Y-19793454D01*
X50101477Y-19839128D01*
X50181434Y-19919085D01*
X50227108Y-20022528D01*
X50235280Y-20092975D01*
X50235281Y-21077588D01*
X50227108Y-21148034D01*
X50181434Y-21251477D01*
X50101477Y-21331434D01*
X49998034Y-21377108D01*
X49927587Y-21385280D01*
X48792974Y-21385281D01*
X48722528Y-21377108D01*
X48619085Y-21331434D01*
X48539128Y-21251477D01*
X48493454Y-21148034D01*
X48485282Y-21077587D01*
X48485281Y-20092974D01*
X48493454Y-20022528D01*
X48539128Y-19919085D01*
X48619085Y-19839128D01*
X48722528Y-19793454D01*
X48792975Y-19785282D01*
X49927588Y-19785281D01*
X50525281Y-16090281D02*
X48195281Y-21680281D01*
X50525281Y-21680281D02*
X48195281Y-16090281D01*
D24*
X30476190Y5836191D02*
X29523810Y5836191D01*
X30000000Y5836191D02*
X30000000Y7502857D01*
X30000000Y7502857D02*
X29841270Y7264762D01*
X29841270Y7264762D02*
X29682540Y7106032D01*
X29682540Y7106032D02*
X29523810Y7026667D01*
D12*
X32500000Y6600000D02*
G75*
G02*
X27500000Y6600000I-2500000J0D01*
G01*
X27500000Y6600000D02*
G75*
G02*
X32500000Y6600000I2500000J0D01*
G01*
D18*
X-49348052Y-21452614D02*
X-49681385Y-21452614D01*
X-49514719Y-21452614D02*
X-49514719Y-20869281D01*
X-49514719Y-20869281D02*
X-49570274Y-20952615D01*
X-49570274Y-20952615D02*
X-49625830Y-21008170D01*
X-49625830Y-21008170D02*
X-49681385Y-21035948D01*
D12*
X-48947412Y-20385281D02*
X-48876966Y-20393454D01*
X-48773523Y-20439128D01*
X-48693566Y-20519085D01*
X-48647892Y-20622528D01*
X-48639720Y-20692975D01*
X-48639719Y-21677588D01*
X-48647892Y-21748034D01*
X-48693566Y-21851477D01*
X-48773523Y-21931434D01*
X-48876966Y-21977108D01*
X-48947413Y-21985280D01*
X-50082026Y-21985281D01*
X-50152472Y-21977108D01*
X-50255915Y-21931434D01*
X-50335872Y-21851477D01*
X-50381546Y-21748034D01*
X-50389718Y-21677587D01*
X-50389719Y-20692974D01*
X-50381546Y-20622528D01*
X-50335872Y-20519085D01*
X-50255915Y-20439128D01*
X-50152472Y-20393454D01*
X-50082025Y-20385282D01*
X-48947412Y-20385281D01*
D18*
X-49681385Y-24324837D02*
X-49653608Y-24297059D01*
X-49653608Y-24297059D02*
X-49598052Y-24269281D01*
X-49598052Y-24269281D02*
X-49459163Y-24269281D01*
X-49459163Y-24269281D02*
X-49403608Y-24297059D01*
X-49403608Y-24297059D02*
X-49375830Y-24324837D01*
X-49375830Y-24324837D02*
X-49348052Y-24380392D01*
X-49348052Y-24380392D02*
X-49348052Y-24435948D01*
X-49348052Y-24435948D02*
X-49375830Y-24519281D01*
X-49375830Y-24519281D02*
X-49709163Y-24852614D01*
X-49709163Y-24852614D02*
X-49348052Y-24852614D01*
D12*
X-48947412Y-23785281D02*
X-48876966Y-23793454D01*
X-48773523Y-23839128D01*
X-48693566Y-23919085D01*
X-48647892Y-24022528D01*
X-48639720Y-24092975D01*
X-48639719Y-25077588D01*
X-48647892Y-25148034D01*
X-48693566Y-25251477D01*
X-48773523Y-25331434D01*
X-48876966Y-25377108D01*
X-48947413Y-25385280D01*
X-50082026Y-25385281D01*
X-50152472Y-25377108D01*
X-50255915Y-25331434D01*
X-50335872Y-25251477D01*
X-50381546Y-25148034D01*
X-50389718Y-25077587D01*
X-50389719Y-24092974D01*
X-50381546Y-24022528D01*
X-50335872Y-23919085D01*
X-50255915Y-23839128D01*
X-50152472Y-23793454D01*
X-50082025Y-23785282D01*
X-48947412Y-23785281D01*
X-48349719Y-20090281D02*
X-50679719Y-25680281D01*
X-48349719Y-25680281D02*
X-50679719Y-20090281D01*
D17*
X-17425029Y-18028571D02*
X-17425029Y-18371428D01*
X-17425029Y-18199999D02*
X-18025029Y-18199999D01*
X-18025029Y-18199999D02*
X-17939315Y-18257142D01*
X-17939315Y-18257142D02*
X-17882172Y-18314285D01*
X-17882172Y-18314285D02*
X-17853600Y-18371428D01*
D12*
X-18500000Y-17601886D02*
X-18491981Y-17532769D01*
X-18447169Y-17431279D01*
X-18368721Y-17352831D01*
X-18267231Y-17308019D01*
X-18198114Y-17300000D01*
X-17201886Y-17300000D01*
X-17132769Y-17308019D01*
X-17031279Y-17352831D01*
X-16952831Y-17431279D01*
X-16908019Y-17532769D01*
X-16900000Y-17601886D01*
X-16900000Y-18798114D01*
X-16908019Y-18867231D01*
X-16952831Y-18968721D01*
X-17031279Y-19047169D01*
X-17132769Y-19091981D01*
X-17201886Y-19100000D01*
X-18198114Y-19100000D01*
X-18267231Y-19091981D01*
X-18368721Y-19047169D01*
X-18447169Y-18968721D01*
X-18491981Y-18867231D01*
X-18500000Y-18798114D01*
X-18500000Y-17601886D01*
D17*
X-14567886Y-18371428D02*
X-14596458Y-18342856D01*
X-14596458Y-18342856D02*
X-14625029Y-18285714D01*
X-14625029Y-18285714D02*
X-14625029Y-18142856D01*
X-14625029Y-18142856D02*
X-14596458Y-18085714D01*
X-14596458Y-18085714D02*
X-14567886Y-18057142D01*
X-14567886Y-18057142D02*
X-14510743Y-18028571D01*
X-14510743Y-18028571D02*
X-14453600Y-18028571D01*
X-14453600Y-18028571D02*
X-14367886Y-18057142D01*
X-14367886Y-18057142D02*
X-14025029Y-18399999D01*
X-14025029Y-18399999D02*
X-14025029Y-18028571D01*
D12*
X-15100000Y-17601886D02*
X-15091981Y-17532769D01*
X-15047169Y-17431279D01*
X-14968721Y-17352831D01*
X-14867231Y-17308019D01*
X-14798114Y-17300000D01*
X-13801886Y-17300000D01*
X-13732769Y-17308019D01*
X-13631279Y-17352831D01*
X-13552831Y-17431279D01*
X-13508019Y-17532769D01*
X-13500000Y-17601886D01*
X-13500000Y-18798114D01*
X-13508019Y-18867231D01*
X-13552831Y-18968721D01*
X-13631279Y-19047169D01*
X-13732769Y-19091981D01*
X-13801886Y-19100000D01*
X-14798114Y-19100000D01*
X-14867231Y-19091981D01*
X-14968721Y-19047169D01*
X-15047169Y-18968721D01*
X-15091981Y-18867231D01*
X-15100000Y-18798114D01*
X-15100000Y-17601886D01*
D14*
X21279142Y-31987142D02*
X21279142Y-32272856D01*
X21279142Y-32129999D02*
X20779142Y-32129999D01*
X20779142Y-32129999D02*
X20850571Y-32177618D01*
X20850571Y-32177618D02*
X20898190Y-32225237D01*
X20898190Y-32225237D02*
X20921999Y-32272856D01*
D12*
X20887500Y-32880000D02*
X20825314Y-32867630D01*
X20772595Y-32832405D01*
X20737370Y-32779686D01*
X20725000Y-32717500D01*
X20725000Y-31542500D01*
X20737370Y-31480314D01*
X20772595Y-31427595D01*
X20825314Y-31392370D01*
X20887500Y-31380000D01*
X21212500Y-31380000D01*
X21274686Y-31392370D01*
X21327405Y-31427595D01*
X21362630Y-31480314D01*
X21375000Y-31542500D01*
X21375000Y-32717500D01*
X21362630Y-32779686D01*
X21327405Y-32832405D01*
X21274686Y-32867630D01*
X21212500Y-32880000D01*
X20887500Y-32880000D01*
D14*
X21776761Y-32272856D02*
X21752952Y-32249047D01*
X21752952Y-32249047D02*
X21729142Y-32201428D01*
X21729142Y-32201428D02*
X21729142Y-32082380D01*
X21729142Y-32082380D02*
X21752952Y-32034761D01*
X21752952Y-32034761D02*
X21776761Y-32010952D01*
X21776761Y-32010952D02*
X21824380Y-31987142D01*
X21824380Y-31987142D02*
X21871999Y-31987142D01*
X21871999Y-31987142D02*
X21943428Y-32010952D01*
X21943428Y-32010952D02*
X22229142Y-32296666D01*
X22229142Y-32296666D02*
X22229142Y-31987142D01*
D12*
X21837500Y-32880000D02*
X21775314Y-32867630D01*
X21722595Y-32832405D01*
X21687370Y-32779686D01*
X21675000Y-32717500D01*
X21675000Y-31542500D01*
X21687370Y-31480314D01*
X21722595Y-31427595D01*
X21775314Y-31392370D01*
X21837500Y-31380000D01*
X22162500Y-31380000D01*
X22224686Y-31392370D01*
X22277405Y-31427595D01*
X22312630Y-31480314D01*
X22325000Y-31542500D01*
X22325000Y-32717500D01*
X22312630Y-32779686D01*
X22277405Y-32832405D01*
X22224686Y-32867630D01*
X22162500Y-32880000D01*
X21837500Y-32880000D01*
D14*
X22679142Y-32296666D02*
X22679142Y-31987142D01*
X22679142Y-31987142D02*
X22869618Y-32153809D01*
X22869618Y-32153809D02*
X22869618Y-32082380D01*
X22869618Y-32082380D02*
X22893428Y-32034761D01*
X22893428Y-32034761D02*
X22917237Y-32010952D01*
X22917237Y-32010952D02*
X22964856Y-31987142D01*
X22964856Y-31987142D02*
X23083904Y-31987142D01*
X23083904Y-31987142D02*
X23131523Y-32010952D01*
X23131523Y-32010952D02*
X23155333Y-32034761D01*
X23155333Y-32034761D02*
X23179142Y-32082380D01*
X23179142Y-32082380D02*
X23179142Y-32225237D01*
X23179142Y-32225237D02*
X23155333Y-32272856D01*
X23155333Y-32272856D02*
X23131523Y-32296666D01*
D12*
X22787500Y-32880000D02*
X22725314Y-32867630D01*
X22672595Y-32832405D01*
X22637370Y-32779686D01*
X22625000Y-32717500D01*
X22625000Y-31542500D01*
X22637370Y-31480314D01*
X22672595Y-31427595D01*
X22725314Y-31392370D01*
X22787500Y-31380000D01*
X23112500Y-31380000D01*
X23174686Y-31392370D01*
X23227405Y-31427595D01*
X23262630Y-31480314D01*
X23275000Y-31542500D01*
X23275000Y-32717500D01*
X23262630Y-32779686D01*
X23227405Y-32832405D01*
X23174686Y-32867630D01*
X23112500Y-32880000D01*
X22787500Y-32880000D01*
D14*
X22845809Y-29079761D02*
X23179142Y-29079761D01*
X22655333Y-29198809D02*
X23012475Y-29317856D01*
X23012475Y-29317856D02*
X23012475Y-29008333D01*
D12*
X22787500Y-29925000D02*
X22725314Y-29912630D01*
X22672595Y-29877405D01*
X22637370Y-29824686D01*
X22625000Y-29762500D01*
X22625000Y-28587500D01*
X22637370Y-28525314D01*
X22672595Y-28472595D01*
X22725314Y-28437370D01*
X22787500Y-28425000D01*
X23112500Y-28425000D01*
X23174686Y-28437370D01*
X23227405Y-28472595D01*
X23262630Y-28525314D01*
X23275000Y-28587500D01*
X23275000Y-29762500D01*
X23262630Y-29824686D01*
X23227405Y-29877405D01*
X23174686Y-29912630D01*
X23112500Y-29925000D01*
X22787500Y-29925000D01*
D14*
X20779142Y-29050952D02*
X20779142Y-29289047D01*
X20779142Y-29289047D02*
X21017237Y-29312856D01*
X21017237Y-29312856D02*
X20993428Y-29289047D01*
X20993428Y-29289047D02*
X20969618Y-29241428D01*
X20969618Y-29241428D02*
X20969618Y-29122380D01*
X20969618Y-29122380D02*
X20993428Y-29074761D01*
X20993428Y-29074761D02*
X21017237Y-29050952D01*
X21017237Y-29050952D02*
X21064856Y-29027142D01*
X21064856Y-29027142D02*
X21183904Y-29027142D01*
X21183904Y-29027142D02*
X21231523Y-29050952D01*
X21231523Y-29050952D02*
X21255333Y-29074761D01*
X21255333Y-29074761D02*
X21279142Y-29122380D01*
X21279142Y-29122380D02*
X21279142Y-29241428D01*
X21279142Y-29241428D02*
X21255333Y-29289047D01*
X21255333Y-29289047D02*
X21231523Y-29312856D01*
D12*
X20887500Y-29920000D02*
X20825314Y-29907630D01*
X20772595Y-29872405D01*
X20737370Y-29819686D01*
X20725000Y-29757500D01*
X20725000Y-28582500D01*
X20737370Y-28520314D01*
X20772595Y-28467595D01*
X20825314Y-28432370D01*
X20887500Y-28420000D01*
X21212500Y-28420000D01*
X21274686Y-28432370D01*
X21327405Y-28467595D01*
X21362630Y-28520314D01*
X21375000Y-28582500D01*
X21375000Y-29757500D01*
X21362630Y-29819686D01*
X21327405Y-29872405D01*
X21274686Y-29907630D01*
X21212500Y-29920000D01*
X20887500Y-29920000D01*
D18*
X25766667Y-13402614D02*
X25433334Y-13402614D01*
X25600000Y-13402614D02*
X25600000Y-12819281D01*
X25600000Y-12819281D02*
X25544445Y-12902615D01*
X25544445Y-12902615D02*
X25488889Y-12958170D01*
X25488889Y-12958170D02*
X25433334Y-12985948D01*
D12*
X25032693Y-13935281D02*
X24962247Y-13927108D01*
X24858804Y-13881434D01*
X24778847Y-13801477D01*
X24733173Y-13698034D01*
X24725001Y-13627587D01*
X24725000Y-12642974D01*
X24733173Y-12572528D01*
X24778847Y-12469085D01*
X24858804Y-12389128D01*
X24962247Y-12343454D01*
X25032694Y-12335282D01*
X26167307Y-12335281D01*
X26237753Y-12343454D01*
X26341196Y-12389128D01*
X26421153Y-12469085D01*
X26466827Y-12572528D01*
X26474999Y-12642975D01*
X26475000Y-13627588D01*
X26466827Y-13698034D01*
X26421153Y-13801477D01*
X26341196Y-13881434D01*
X26237753Y-13927108D01*
X26167306Y-13935280D01*
X25032693Y-13935281D01*
D18*
X25433334Y-9474837D02*
X25461111Y-9447059D01*
X25461111Y-9447059D02*
X25516667Y-9419281D01*
X25516667Y-9419281D02*
X25655556Y-9419281D01*
X25655556Y-9419281D02*
X25711111Y-9447059D01*
X25711111Y-9447059D02*
X25738889Y-9474837D01*
X25738889Y-9474837D02*
X25766667Y-9530392D01*
X25766667Y-9530392D02*
X25766667Y-9585948D01*
X25766667Y-9585948D02*
X25738889Y-9669281D01*
X25738889Y-9669281D02*
X25405556Y-10002614D01*
X25405556Y-10002614D02*
X25766667Y-10002614D01*
D12*
X25032693Y-10535281D02*
X24962247Y-10527108D01*
X24858804Y-10481434D01*
X24778847Y-10401477D01*
X24733173Y-10298034D01*
X24725001Y-10227587D01*
X24725000Y-9242974D01*
X24733173Y-9172528D01*
X24778847Y-9069085D01*
X24858804Y-8989128D01*
X24962247Y-8943454D01*
X25032694Y-8935282D01*
X26167307Y-8935281D01*
X26237753Y-8943454D01*
X26341196Y-8989128D01*
X26421153Y-9069085D01*
X26466827Y-9172528D01*
X26474999Y-9242975D01*
X26475000Y-10227588D01*
X26466827Y-10298034D01*
X26421153Y-10401477D01*
X26341196Y-10481434D01*
X26237753Y-10527108D01*
X26167306Y-10535280D01*
X25032693Y-10535281D01*
D17*
X17671428Y-29224971D02*
X17328571Y-29224971D01*
X17500000Y-29224971D02*
X17500000Y-28624971D01*
X17500000Y-28624971D02*
X17442857Y-28710685D01*
X17442857Y-28710685D02*
X17385714Y-28767828D01*
X17385714Y-28767828D02*
X17328571Y-28796400D01*
D12*
X18098114Y-28150000D02*
X18167231Y-28158019D01*
X18268721Y-28202831D01*
X18347169Y-28281279D01*
X18391981Y-28382769D01*
X18400000Y-28451886D01*
X18400000Y-29448114D01*
X18391981Y-29517231D01*
X18347169Y-29618721D01*
X18268721Y-29697169D01*
X18167231Y-29741981D01*
X18098114Y-29750000D01*
X16901886Y-29750000D01*
X16832769Y-29741981D01*
X16731279Y-29697169D01*
X16652831Y-29618721D01*
X16608019Y-29517231D01*
X16600000Y-29448114D01*
X16600000Y-28451886D01*
X16608019Y-28382769D01*
X16652831Y-28281279D01*
X16731279Y-28202831D01*
X16832769Y-28158019D01*
X16901886Y-28150000D01*
X18098114Y-28150000D01*
D17*
X17328571Y-32082114D02*
X17357143Y-32053542D01*
X17357143Y-32053542D02*
X17414286Y-32024971D01*
X17414286Y-32024971D02*
X17557143Y-32024971D01*
X17557143Y-32024971D02*
X17614286Y-32053542D01*
X17614286Y-32053542D02*
X17642857Y-32082114D01*
X17642857Y-32082114D02*
X17671428Y-32139257D01*
X17671428Y-32139257D02*
X17671428Y-32196400D01*
X17671428Y-32196400D02*
X17642857Y-32282114D01*
X17642857Y-32282114D02*
X17300000Y-32624971D01*
X17300000Y-32624971D02*
X17671428Y-32624971D01*
D12*
X18098114Y-31550000D02*
X18167231Y-31558019D01*
X18268721Y-31602831D01*
X18347169Y-31681279D01*
X18391981Y-31782769D01*
X18400000Y-31851886D01*
X18400000Y-32848114D01*
X18391981Y-32917231D01*
X18347169Y-33018721D01*
X18268721Y-33097169D01*
X18167231Y-33141981D01*
X18098114Y-33150000D01*
X16901886Y-33150000D01*
X16832769Y-33141981D01*
X16731279Y-33097169D01*
X16652831Y-33018721D01*
X16608019Y-32917231D01*
X16600000Y-32848114D01*
X16600000Y-31851886D01*
X16608019Y-31782769D01*
X16652831Y-31681279D01*
X16731279Y-31602831D01*
X16832769Y-31558019D01*
X16901886Y-31550000D01*
X18098114Y-31550000D01*
D18*
X-53348052Y-21452614D02*
X-53681385Y-21452614D01*
X-53514719Y-21452614D02*
X-53514719Y-20869281D01*
X-53514719Y-20869281D02*
X-53570274Y-20952615D01*
X-53570274Y-20952615D02*
X-53625830Y-21008170D01*
X-53625830Y-21008170D02*
X-53681385Y-21035948D01*
D12*
X-52947412Y-20385281D02*
X-52876966Y-20393454D01*
X-52773523Y-20439128D01*
X-52693566Y-20519085D01*
X-52647892Y-20622528D01*
X-52639720Y-20692975D01*
X-52639719Y-21677588D01*
X-52647892Y-21748034D01*
X-52693566Y-21851477D01*
X-52773523Y-21931434D01*
X-52876966Y-21977108D01*
X-52947413Y-21985280D01*
X-54082026Y-21985281D01*
X-54152472Y-21977108D01*
X-54255915Y-21931434D01*
X-54335872Y-21851477D01*
X-54381546Y-21748034D01*
X-54389718Y-21677587D01*
X-54389719Y-20692974D01*
X-54381546Y-20622528D01*
X-54335872Y-20519085D01*
X-54255915Y-20439128D01*
X-54152472Y-20393454D01*
X-54082025Y-20385282D01*
X-52947412Y-20385281D01*
D18*
X-53681385Y-24324837D02*
X-53653608Y-24297059D01*
X-53653608Y-24297059D02*
X-53598052Y-24269281D01*
X-53598052Y-24269281D02*
X-53459163Y-24269281D01*
X-53459163Y-24269281D02*
X-53403608Y-24297059D01*
X-53403608Y-24297059D02*
X-53375830Y-24324837D01*
X-53375830Y-24324837D02*
X-53348052Y-24380392D01*
X-53348052Y-24380392D02*
X-53348052Y-24435948D01*
X-53348052Y-24435948D02*
X-53375830Y-24519281D01*
X-53375830Y-24519281D02*
X-53709163Y-24852614D01*
X-53709163Y-24852614D02*
X-53348052Y-24852614D01*
D12*
X-52947412Y-23785281D02*
X-52876966Y-23793454D01*
X-52773523Y-23839128D01*
X-52693566Y-23919085D01*
X-52647892Y-24022528D01*
X-52639720Y-24092975D01*
X-52639719Y-25077588D01*
X-52647892Y-25148034D01*
X-52693566Y-25251477D01*
X-52773523Y-25331434D01*
X-52876966Y-25377108D01*
X-52947413Y-25385280D01*
X-54082026Y-25385281D01*
X-54152472Y-25377108D01*
X-54255915Y-25331434D01*
X-54335872Y-25251477D01*
X-54381546Y-25148034D01*
X-54389718Y-25077587D01*
X-54389719Y-24092974D01*
X-54381546Y-24022528D01*
X-54335872Y-23919085D01*
X-54255915Y-23839128D01*
X-54152472Y-23793454D01*
X-54082025Y-23785282D01*
X-52947412Y-23785281D01*
D17*
X14574971Y-18028571D02*
X14574971Y-18371428D01*
X14574971Y-18199999D02*
X13974971Y-18199999D01*
X13974971Y-18199999D02*
X14060685Y-18257142D01*
X14060685Y-18257142D02*
X14117828Y-18314285D01*
X14117828Y-18314285D02*
X14146400Y-18371428D01*
D12*
X13500000Y-17601886D02*
X13508019Y-17532769D01*
X13552831Y-17431279D01*
X13631279Y-17352831D01*
X13732769Y-17308019D01*
X13801886Y-17300000D01*
X14798114Y-17300000D01*
X14867231Y-17308019D01*
X14968721Y-17352831D01*
X15047169Y-17431279D01*
X15091981Y-17532769D01*
X15100000Y-17601886D01*
X15100000Y-18798114D01*
X15091981Y-18867231D01*
X15047169Y-18968721D01*
X14968721Y-19047169D01*
X14867231Y-19091981D01*
X14798114Y-19100000D01*
X13801886Y-19100000D01*
X13732769Y-19091981D01*
X13631279Y-19047169D01*
X13552831Y-18968721D01*
X13508019Y-18867231D01*
X13500000Y-18798114D01*
X13500000Y-17601886D01*
D17*
X17432114Y-18371428D02*
X17403542Y-18342856D01*
X17403542Y-18342856D02*
X17374971Y-18285714D01*
X17374971Y-18285714D02*
X17374971Y-18142856D01*
X17374971Y-18142856D02*
X17403542Y-18085714D01*
X17403542Y-18085714D02*
X17432114Y-18057142D01*
X17432114Y-18057142D02*
X17489257Y-18028571D01*
X17489257Y-18028571D02*
X17546400Y-18028571D01*
X17546400Y-18028571D02*
X17632114Y-18057142D01*
X17632114Y-18057142D02*
X17974971Y-18399999D01*
X17974971Y-18399999D02*
X17974971Y-18028571D01*
D12*
X16900000Y-17601886D02*
X16908019Y-17532769D01*
X16952831Y-17431279D01*
X17031279Y-17352831D01*
X17132769Y-17308019D01*
X17201886Y-17300000D01*
X18198114Y-17300000D01*
X18267231Y-17308019D01*
X18368721Y-17352831D01*
X18447169Y-17431279D01*
X18491981Y-17532769D01*
X18500000Y-17601886D01*
X18500000Y-18798114D01*
X18491981Y-18867231D01*
X18447169Y-18968721D01*
X18368721Y-19047169D01*
X18267231Y-19091981D01*
X18198114Y-19100000D01*
X17201886Y-19100000D01*
X17132769Y-19091981D01*
X17031279Y-19047169D01*
X16952831Y-18968721D01*
X16908019Y-18867231D01*
X16900000Y-18798114D01*
X16900000Y-17601886D01*
X13205000Y-17005000D02*
X18795000Y-19395000D01*
X18795000Y-17005000D02*
X13205000Y-19395000D01*
D13*
X-1235457Y-13932142D02*
X-1235457Y-14417857D01*
X-1235457Y-14175000D02*
X-2085457Y-14175000D01*
X-2085457Y-14175000D02*
X-1964029Y-14255952D01*
X-1964029Y-14255952D02*
X-1883076Y-14336904D01*
X-1883076Y-14336904D02*
X-1842600Y-14417857D01*
D12*
X-2000000Y-15450000D02*
X-2095671Y-15430970D01*
X-2176777Y-15376777D01*
X-2230970Y-15295671D01*
X-2250000Y-15200000D01*
X-2250000Y-13150000D01*
X-2230970Y-13054329D01*
X-2176777Y-12973223D01*
X-2095671Y-12919030D01*
X-2000000Y-12900000D01*
X-1250000Y-12900000D01*
X-1154329Y-12919030D01*
X-1073223Y-12973223D01*
X-1019030Y-13054329D01*
X-1000000Y-13150000D01*
X-1000000Y-15200000D01*
X-1019030Y-15295671D01*
X-1073223Y-15376777D01*
X-1154329Y-15430970D01*
X-1250000Y-15450000D01*
X-2000000Y-15450000D01*
D13*
X1245495Y-14417857D02*
X1205019Y-14377381D01*
X1205019Y-14377381D02*
X1164543Y-14296428D01*
X1164543Y-14296428D02*
X1164543Y-14094047D01*
X1164543Y-14094047D02*
X1205019Y-14013095D01*
X1205019Y-14013095D02*
X1245495Y-13972619D01*
X1245495Y-13972619D02*
X1326447Y-13932142D01*
X1326447Y-13932142D02*
X1407400Y-13932142D01*
X1407400Y-13932142D02*
X1528828Y-13972619D01*
X1528828Y-13972619D02*
X2014543Y-14458333D01*
X2014543Y-14458333D02*
X2014543Y-13932142D01*
D12*
X1250000Y-15450000D02*
X1154329Y-15430970D01*
X1073223Y-15376777D01*
X1019030Y-15295671D01*
X1000000Y-15200000D01*
X1000000Y-13150000D01*
X1019030Y-13054329D01*
X1073223Y-12973223D01*
X1154329Y-12919030D01*
X1250000Y-12900000D01*
X2000000Y-12900000D01*
X2095671Y-12919030D01*
X2176777Y-12973223D01*
X2230970Y-13054329D01*
X2250000Y-13150000D01*
X2250000Y-15200000D01*
X2230970Y-15295671D01*
X2176777Y-15376777D01*
X2095671Y-15430970D01*
X2000000Y-15450000D01*
X1250000Y-15450000D01*
D13*
X1164543Y-8508333D02*
X1164543Y-7982142D01*
X1164543Y-7982142D02*
X1488352Y-8265476D01*
X1488352Y-8265476D02*
X1488352Y-8144047D01*
X1488352Y-8144047D02*
X1528828Y-8063095D01*
X1528828Y-8063095D02*
X1569305Y-8022619D01*
X1569305Y-8022619D02*
X1650257Y-7982142D01*
X1650257Y-7982142D02*
X1852638Y-7982142D01*
X1852638Y-7982142D02*
X1933590Y-8022619D01*
X1933590Y-8022619D02*
X1974067Y-8063095D01*
X1974067Y-8063095D02*
X2014543Y-8144047D01*
X2014543Y-8144047D02*
X2014543Y-8386904D01*
X2014543Y-8386904D02*
X1974067Y-8467857D01*
X1974067Y-8467857D02*
X1933590Y-8508333D01*
D12*
X1250000Y-9500000D02*
X1154329Y-9480970D01*
X1073223Y-9426777D01*
X1019030Y-9345671D01*
X1000000Y-9250000D01*
X1000000Y-7200000D01*
X1019030Y-7104329D01*
X1073223Y-7023223D01*
X1154329Y-6969030D01*
X1250000Y-6950000D01*
X2000000Y-6950000D01*
X2095671Y-6969030D01*
X2176777Y-7023223D01*
X2230970Y-7104329D01*
X2250000Y-7200000D01*
X2250000Y-9250000D01*
X2230970Y-9345671D01*
X2176777Y-9426777D01*
X2095671Y-9480970D01*
X2000000Y-9500000D01*
X1250000Y-9500000D01*
D13*
X-1802124Y-8063095D02*
X-1235457Y-8063095D01*
X-2125933Y-8265476D02*
X-1518791Y-8467857D01*
X-1518791Y-8467857D02*
X-1518791Y-7941666D01*
D12*
X-2000000Y-9500000D02*
X-2095671Y-9480970D01*
X-2176777Y-9426777D01*
X-2230970Y-9345671D01*
X-2250000Y-9250000D01*
X-2250000Y-7200000D01*
X-2230970Y-7104329D01*
X-2176777Y-7023223D01*
X-2095671Y-6969030D01*
X-2000000Y-6950000D01*
X-1250000Y-6950000D01*
X-1154329Y-6969030D01*
X-1073223Y-7023223D01*
X-1019030Y-7104329D01*
X-1000000Y-7200000D01*
X-1000000Y-9250000D01*
X-1019030Y-9345671D01*
X-1073223Y-9426777D01*
X-1154329Y-9480970D01*
X-1250000Y-9500000D01*
X-2000000Y-9500000D01*
X-2905000Y-6950000D02*
X2575000Y-15450000D01*
X2575000Y-6950000D02*
X-2905000Y-15450000D01*
D24*
X-29523810Y-36163809D02*
X-30476190Y-36163809D01*
X-30000000Y-36163809D02*
X-30000000Y-34497143D01*
X-30000000Y-34497143D02*
X-30158730Y-34735238D01*
X-30158730Y-34735238D02*
X-30317460Y-34893968D01*
X-30317460Y-34893968D02*
X-30476190Y-34973333D01*
D12*
X-27500000Y-35400000D02*
G75*
G02*
X-32500000Y-35400000I-2500000J0D01*
G01*
X-32500000Y-35400000D02*
G75*
G02*
X-27500000Y-35400000I2500000J0D01*
G01*
D15*
X-44350000Y-20970799D02*
X-44750000Y-20970799D01*
X-44550000Y-20970799D02*
X-44550000Y-20270799D01*
X-44550000Y-20270799D02*
X-44616667Y-20370799D01*
X-44616667Y-20370799D02*
X-44683333Y-20437466D01*
X-44683333Y-20437466D02*
X-44750000Y-20470799D01*
D12*
X-45600000Y-20200000D02*
X-45580970Y-20104329D01*
X-45526777Y-20023223D01*
X-45445671Y-19969030D01*
X-45350000Y-19950000D01*
X-43750000Y-19950000D01*
X-43654329Y-19969030D01*
X-43573223Y-20023223D01*
X-43519030Y-20104329D01*
X-43500000Y-20200000D01*
X-43500000Y-21100000D01*
X-43519030Y-21195671D01*
X-43573223Y-21276777D01*
X-43654329Y-21330970D01*
X-43750000Y-21350000D01*
X-45350000Y-21350000D01*
X-45445671Y-21330970D01*
X-45526777Y-21276777D01*
X-45580970Y-21195671D01*
X-45600000Y-21100000D01*
X-45600000Y-20200000D01*
D15*
X-44750000Y-24837466D02*
X-44716667Y-24804132D01*
X-44716667Y-24804132D02*
X-44650000Y-24770799D01*
X-44650000Y-24770799D02*
X-44483333Y-24770799D01*
X-44483333Y-24770799D02*
X-44416667Y-24804132D01*
X-44416667Y-24804132D02*
X-44383333Y-24837466D01*
X-44383333Y-24837466D02*
X-44350000Y-24904132D01*
X-44350000Y-24904132D02*
X-44350000Y-24970799D01*
X-44350000Y-24970799D02*
X-44383333Y-25070799D01*
X-44383333Y-25070799D02*
X-44783333Y-25470799D01*
X-44783333Y-25470799D02*
X-44350000Y-25470799D01*
D12*
X-45600000Y-24700000D02*
X-45580970Y-24604329D01*
X-45526777Y-24523223D01*
X-45445671Y-24469030D01*
X-45350000Y-24450000D01*
X-43750000Y-24450000D01*
X-43654329Y-24469030D01*
X-43573223Y-24523223D01*
X-43519030Y-24604329D01*
X-43500000Y-24700000D01*
X-43500000Y-25600000D01*
X-43519030Y-25695671D01*
X-43573223Y-25776777D01*
X-43654329Y-25830970D01*
X-43750000Y-25850000D01*
X-45350000Y-25850000D01*
X-45445671Y-25830970D01*
X-45526777Y-25776777D01*
X-45580970Y-25695671D01*
X-45600000Y-25600000D01*
X-45600000Y-24700000D01*
D15*
X-35683333Y-20270799D02*
X-35250000Y-20270799D01*
X-35250000Y-20270799D02*
X-35483333Y-20537466D01*
X-35483333Y-20537466D02*
X-35383333Y-20537466D01*
X-35383333Y-20537466D02*
X-35316667Y-20570799D01*
X-35316667Y-20570799D02*
X-35283333Y-20604132D01*
X-35283333Y-20604132D02*
X-35250000Y-20670799D01*
X-35250000Y-20670799D02*
X-35250000Y-20837466D01*
X-35250000Y-20837466D02*
X-35283333Y-20904132D01*
X-35283333Y-20904132D02*
X-35316667Y-20937466D01*
X-35316667Y-20937466D02*
X-35383333Y-20970799D01*
X-35383333Y-20970799D02*
X-35583333Y-20970799D01*
X-35583333Y-20970799D02*
X-35650000Y-20937466D01*
X-35650000Y-20937466D02*
X-35683333Y-20904132D01*
D12*
X-36500000Y-20200000D02*
X-36480970Y-20104329D01*
X-36426777Y-20023223D01*
X-36345671Y-19969030D01*
X-36250000Y-19950000D01*
X-34650000Y-19950000D01*
X-34554329Y-19969030D01*
X-34473223Y-20023223D01*
X-34419030Y-20104329D01*
X-34400000Y-20200000D01*
X-34400000Y-21100000D01*
X-34419030Y-21195671D01*
X-34473223Y-21276777D01*
X-34554329Y-21330970D01*
X-34650000Y-21350000D01*
X-36250000Y-21350000D01*
X-36345671Y-21330970D01*
X-36426777Y-21276777D01*
X-36480970Y-21195671D01*
X-36500000Y-21100000D01*
X-36500000Y-20200000D01*
D15*
X-35316667Y-25004132D02*
X-35316667Y-25470799D01*
X-35483333Y-24737466D02*
X-35650000Y-25237466D01*
X-35650000Y-25237466D02*
X-35216667Y-25237466D01*
D12*
X-36500000Y-24700000D02*
X-36480970Y-24604329D01*
X-36426777Y-24523223D01*
X-36345671Y-24469030D01*
X-36250000Y-24450000D01*
X-34650000Y-24450000D01*
X-34554329Y-24469030D01*
X-34473223Y-24523223D01*
X-34419030Y-24604329D01*
X-34400000Y-24700000D01*
X-34400000Y-25600000D01*
X-34419030Y-25695671D01*
X-34473223Y-25776777D01*
X-34554329Y-25830970D01*
X-34650000Y-25850000D01*
X-36250000Y-25850000D01*
X-36345671Y-25830970D01*
X-36426777Y-25776777D01*
X-36480970Y-25695671D01*
X-36500000Y-25600000D01*
X-36500000Y-24700000D01*
X-45895000Y-19605000D02*
X-34105000Y-26195000D01*
X-34105000Y-19605000D02*
X-45895000Y-26195000D01*
D24*
X30476190Y-36163809D02*
X29523810Y-36163809D01*
X30000000Y-36163809D02*
X30000000Y-34497143D01*
X30000000Y-34497143D02*
X29841270Y-34735238D01*
X29841270Y-34735238D02*
X29682540Y-34893968D01*
X29682540Y-34893968D02*
X29523810Y-34973333D01*
D12*
X32500000Y-35400000D02*
G75*
G02*
X27500000Y-35400000I-2500000J0D01*
G01*
X27500000Y-35400000D02*
G75*
G02*
X32500000Y-35400000I2500000J0D01*
G01*
D25*
X-2156286Y-26810714D02*
X-2156286Y-27239285D01*
X-2156286Y-27025000D02*
X-2906286Y-27025000D01*
X-2906286Y-27025000D02*
X-2799143Y-27096428D01*
X-2799143Y-27096428D02*
X-2727715Y-27167857D01*
X-2727715Y-27167857D02*
X-2692000Y-27239285D01*
D12*
X-3000000Y-26150000D02*
X-2980970Y-26054329D01*
X-2926777Y-25973223D01*
X-2845671Y-25919030D01*
X-2750000Y-25900000D01*
X-2250000Y-25900000D01*
X-2154329Y-25919030D01*
X-2073223Y-25973223D01*
X-2019030Y-26054329D01*
X-2000000Y-26150000D01*
X-2000000Y-27900000D01*
X-2019030Y-27995671D01*
X-2073223Y-28076777D01*
X-2154329Y-28130970D01*
X-2250000Y-28150000D01*
X-2750000Y-28150000D01*
X-2845671Y-28130970D01*
X-2926777Y-28076777D01*
X-2980970Y-27995671D01*
X-3000000Y-27900000D01*
X-3000000Y-26150000D01*
D25*
X-334858Y-27239285D02*
X-370572Y-27203571D01*
X-370572Y-27203571D02*
X-406286Y-27132143D01*
X-406286Y-27132143D02*
X-406286Y-26953571D01*
X-406286Y-26953571D02*
X-370572Y-26882143D01*
X-370572Y-26882143D02*
X-334858Y-26846428D01*
X-334858Y-26846428D02*
X-263429Y-26810714D01*
X-263429Y-26810714D02*
X-192000Y-26810714D01*
X-192000Y-26810714D02*
X-84858Y-26846428D01*
X-84858Y-26846428D02*
X343714Y-27275000D01*
X343714Y-27275000D02*
X343714Y-26810714D01*
D12*
X-500000Y-26150000D02*
X-480970Y-26054329D01*
X-426777Y-25973223D01*
X-345671Y-25919030D01*
X-250000Y-25900000D01*
X250000Y-25900000D01*
X345671Y-25919030D01*
X426777Y-25973223D01*
X480970Y-26054329D01*
X500000Y-26150000D01*
X500000Y-27900000D01*
X480970Y-27995671D01*
X426777Y-28076777D01*
X345671Y-28130970D01*
X250000Y-28150000D01*
X-250000Y-28150000D01*
X-345671Y-28130970D01*
X-426777Y-28076777D01*
X-480970Y-27995671D01*
X-500000Y-27900000D01*
X-500000Y-26150000D01*
D25*
X2093714Y-27275000D02*
X2093714Y-26810714D01*
X2093714Y-26810714D02*
X2379428Y-27060714D01*
X2379428Y-27060714D02*
X2379428Y-26953571D01*
X2379428Y-26953571D02*
X2415142Y-26882143D01*
X2415142Y-26882143D02*
X2450857Y-26846428D01*
X2450857Y-26846428D02*
X2522285Y-26810714D01*
X2522285Y-26810714D02*
X2700857Y-26810714D01*
X2700857Y-26810714D02*
X2772285Y-26846428D01*
X2772285Y-26846428D02*
X2808000Y-26882143D01*
X2808000Y-26882143D02*
X2843714Y-26953571D01*
X2843714Y-26953571D02*
X2843714Y-27167857D01*
X2843714Y-27167857D02*
X2808000Y-27239285D01*
X2808000Y-27239285D02*
X2772285Y-27275000D01*
D12*
X2000000Y-26150000D02*
X2019030Y-26054329D01*
X2073223Y-25973223D01*
X2154329Y-25919030D01*
X2250000Y-25900000D01*
X2750000Y-25900000D01*
X2845671Y-25919030D01*
X2926777Y-25973223D01*
X2980970Y-26054329D01*
X3000000Y-26150000D01*
X3000000Y-27900000D01*
X2980970Y-27995671D01*
X2926777Y-28076777D01*
X2845671Y-28130970D01*
X2750000Y-28150000D01*
X2250000Y-28150000D01*
X2154329Y-28130970D01*
X2073223Y-28076777D01*
X2019030Y-27995671D01*
X2000000Y-27900000D01*
X2000000Y-26150000D01*
D25*
X-2656286Y-33632143D02*
X-2156286Y-33632143D01*
X-2942000Y-33810714D02*
X-2406286Y-33989285D01*
X-2406286Y-33989285D02*
X-2406286Y-33525000D01*
D12*
X-3000000Y-32900000D02*
X-2980970Y-32804329D01*
X-2926777Y-32723223D01*
X-2845671Y-32669030D01*
X-2750000Y-32650000D01*
X-2250000Y-32650000D01*
X-2154329Y-32669030D01*
X-2073223Y-32723223D01*
X-2019030Y-32804329D01*
X-2000000Y-32900000D01*
X-2000000Y-34650000D01*
X-2019030Y-34745671D01*
X-2073223Y-34826777D01*
X-2154329Y-34880970D01*
X-2250000Y-34900000D01*
X-2750000Y-34900000D01*
X-2845671Y-34880970D01*
X-2926777Y-34826777D01*
X-2980970Y-34745671D01*
X-3000000Y-34650000D01*
X-3000000Y-32900000D01*
D25*
X-406286Y-33596428D02*
X-406286Y-33953571D01*
X-406286Y-33953571D02*
X-49143Y-33989285D01*
X-49143Y-33989285D02*
X-84858Y-33953571D01*
X-84858Y-33953571D02*
X-120572Y-33882143D01*
X-120572Y-33882143D02*
X-120572Y-33703571D01*
X-120572Y-33703571D02*
X-84858Y-33632143D01*
X-84858Y-33632143D02*
X-49143Y-33596428D01*
X-49143Y-33596428D02*
X22285Y-33560714D01*
X22285Y-33560714D02*
X200857Y-33560714D01*
X200857Y-33560714D02*
X272285Y-33596428D01*
X272285Y-33596428D02*
X308000Y-33632143D01*
X308000Y-33632143D02*
X343714Y-33703571D01*
X343714Y-33703571D02*
X343714Y-33882143D01*
X343714Y-33882143D02*
X308000Y-33953571D01*
X308000Y-33953571D02*
X272285Y-33989285D01*
D12*
X-500000Y-32900000D02*
X-480970Y-32804329D01*
X-426777Y-32723223D01*
X-345671Y-32669030D01*
X-250000Y-32650000D01*
X250000Y-32650000D01*
X345671Y-32669030D01*
X426777Y-32723223D01*
X480970Y-32804329D01*
X500000Y-32900000D01*
X500000Y-34650000D01*
X480970Y-34745671D01*
X426777Y-34826777D01*
X345671Y-34880970D01*
X250000Y-34900000D01*
X-250000Y-34900000D01*
X-345671Y-34880970D01*
X-426777Y-34826777D01*
X-480970Y-34745671D01*
X-500000Y-34650000D01*
X-500000Y-32900000D01*
D25*
X2093714Y-33632143D02*
X2093714Y-33775000D01*
X2093714Y-33775000D02*
X2129428Y-33846428D01*
X2129428Y-33846428D02*
X2165142Y-33882143D01*
X2165142Y-33882143D02*
X2272285Y-33953571D01*
X2272285Y-33953571D02*
X2415142Y-33989285D01*
X2415142Y-33989285D02*
X2700857Y-33989285D01*
X2700857Y-33989285D02*
X2772285Y-33953571D01*
X2772285Y-33953571D02*
X2808000Y-33917857D01*
X2808000Y-33917857D02*
X2843714Y-33846428D01*
X2843714Y-33846428D02*
X2843714Y-33703571D01*
X2843714Y-33703571D02*
X2808000Y-33632143D01*
X2808000Y-33632143D02*
X2772285Y-33596428D01*
X2772285Y-33596428D02*
X2700857Y-33560714D01*
X2700857Y-33560714D02*
X2522285Y-33560714D01*
X2522285Y-33560714D02*
X2450857Y-33596428D01*
X2450857Y-33596428D02*
X2415142Y-33632143D01*
X2415142Y-33632143D02*
X2379428Y-33703571D01*
X2379428Y-33703571D02*
X2379428Y-33846428D01*
X2379428Y-33846428D02*
X2415142Y-33917857D01*
X2415142Y-33917857D02*
X2450857Y-33953571D01*
X2450857Y-33953571D02*
X2522285Y-33989285D01*
D12*
X2000000Y-32900000D02*
X2019030Y-32804329D01*
X2073223Y-32723223D01*
X2154329Y-32669030D01*
X2250000Y-32650000D01*
X2750000Y-32650000D01*
X2845671Y-32669030D01*
X2926777Y-32723223D01*
X2980970Y-32804329D01*
X3000000Y-32900000D01*
X3000000Y-34650000D01*
X2980970Y-34745671D01*
X2926777Y-34826777D01*
X2845671Y-34880970D01*
X2750000Y-34900000D01*
X2250000Y-34900000D01*
X2154329Y-34880970D01*
X2073223Y-34826777D01*
X2019030Y-34745671D01*
X2000000Y-34650000D01*
X2000000Y-32900000D01*
D18*
X-49223052Y-5452614D02*
X-49556385Y-5452614D01*
X-49389719Y-5452614D02*
X-49389719Y-4869281D01*
X-49389719Y-4869281D02*
X-49445274Y-4952615D01*
X-49445274Y-4952615D02*
X-49500830Y-5008170D01*
X-49500830Y-5008170D02*
X-49556385Y-5035948D01*
D12*
X-48822412Y-4385281D02*
X-48751966Y-4393454D01*
X-48648523Y-4439128D01*
X-48568566Y-4519085D01*
X-48522892Y-4622528D01*
X-48514720Y-4692975D01*
X-48514719Y-5677588D01*
X-48522892Y-5748034D01*
X-48568566Y-5851477D01*
X-48648523Y-5931434D01*
X-48751966Y-5977108D01*
X-48822413Y-5985280D01*
X-49957026Y-5985281D01*
X-50027472Y-5977108D01*
X-50130915Y-5931434D01*
X-50210872Y-5851477D01*
X-50256546Y-5748034D01*
X-50264718Y-5677587D01*
X-50264719Y-4692974D01*
X-50256546Y-4622528D01*
X-50210872Y-4519085D01*
X-50130915Y-4439128D01*
X-50027472Y-4393454D01*
X-49957025Y-4385282D01*
X-48822412Y-4385281D01*
D18*
X-49556385Y-8324837D02*
X-49528608Y-8297059D01*
X-49528608Y-8297059D02*
X-49473052Y-8269281D01*
X-49473052Y-8269281D02*
X-49334163Y-8269281D01*
X-49334163Y-8269281D02*
X-49278608Y-8297059D01*
X-49278608Y-8297059D02*
X-49250830Y-8324837D01*
X-49250830Y-8324837D02*
X-49223052Y-8380392D01*
X-49223052Y-8380392D02*
X-49223052Y-8435948D01*
X-49223052Y-8435948D02*
X-49250830Y-8519281D01*
X-49250830Y-8519281D02*
X-49584163Y-8852614D01*
X-49584163Y-8852614D02*
X-49223052Y-8852614D01*
D12*
X-48822412Y-7785281D02*
X-48751966Y-7793454D01*
X-48648523Y-7839128D01*
X-48568566Y-7919085D01*
X-48522892Y-8022528D01*
X-48514720Y-8092975D01*
X-48514719Y-9077588D01*
X-48522892Y-9148034D01*
X-48568566Y-9251477D01*
X-48648523Y-9331434D01*
X-48751966Y-9377108D01*
X-48822413Y-9385280D01*
X-49957026Y-9385281D01*
X-50027472Y-9377108D01*
X-50130915Y-9331434D01*
X-50210872Y-9251477D01*
X-50256546Y-9148034D01*
X-50264718Y-9077587D01*
X-50264719Y-8092974D01*
X-50256546Y-8022528D01*
X-50210872Y-7919085D01*
X-50130915Y-7839128D01*
X-50027472Y-7793454D01*
X-49957025Y-7785282D01*
X-48822412Y-7785281D01*
X-48224719Y-4090281D02*
X-50554719Y-9680281D01*
X-48224719Y-9680281D02*
X-50554719Y-4090281D01*
D13*
X-9235457Y-13932142D02*
X-9235457Y-14417857D01*
X-9235457Y-14175000D02*
X-10085457Y-14175000D01*
X-10085457Y-14175000D02*
X-9964029Y-14255952D01*
X-9964029Y-14255952D02*
X-9883076Y-14336904D01*
X-9883076Y-14336904D02*
X-9842600Y-14417857D01*
D12*
X-10000000Y-15450000D02*
X-10095671Y-15430970D01*
X-10176777Y-15376777D01*
X-10230970Y-15295671D01*
X-10250000Y-15200000D01*
X-10250000Y-13150000D01*
X-10230970Y-13054329D01*
X-10176777Y-12973223D01*
X-10095671Y-12919030D01*
X-10000000Y-12900000D01*
X-9250000Y-12900000D01*
X-9154329Y-12919030D01*
X-9073223Y-12973223D01*
X-9019030Y-13054329D01*
X-9000000Y-13150000D01*
X-9000000Y-15200000D01*
X-9019030Y-15295671D01*
X-9073223Y-15376777D01*
X-9154329Y-15430970D01*
X-9250000Y-15450000D01*
X-10000000Y-15450000D01*
D13*
X-6754505Y-14417857D02*
X-6794981Y-14377381D01*
X-6794981Y-14377381D02*
X-6835457Y-14296428D01*
X-6835457Y-14296428D02*
X-6835457Y-14094047D01*
X-6835457Y-14094047D02*
X-6794981Y-14013095D01*
X-6794981Y-14013095D02*
X-6754505Y-13972619D01*
X-6754505Y-13972619D02*
X-6673553Y-13932142D01*
X-6673553Y-13932142D02*
X-6592600Y-13932142D01*
X-6592600Y-13932142D02*
X-6471172Y-13972619D01*
X-6471172Y-13972619D02*
X-5985457Y-14458333D01*
X-5985457Y-14458333D02*
X-5985457Y-13932142D01*
D12*
X-6750000Y-15450000D02*
X-6845671Y-15430970D01*
X-6926777Y-15376777D01*
X-6980970Y-15295671D01*
X-7000000Y-15200000D01*
X-7000000Y-13150000D01*
X-6980970Y-13054329D01*
X-6926777Y-12973223D01*
X-6845671Y-12919030D01*
X-6750000Y-12900000D01*
X-6000000Y-12900000D01*
X-5904329Y-12919030D01*
X-5823223Y-12973223D01*
X-5769030Y-13054329D01*
X-5750000Y-13150000D01*
X-5750000Y-15200000D01*
X-5769030Y-15295671D01*
X-5823223Y-15376777D01*
X-5904329Y-15430970D01*
X-6000000Y-15450000D01*
X-6750000Y-15450000D01*
D13*
X-6835457Y-8508333D02*
X-6835457Y-7982142D01*
X-6835457Y-7982142D02*
X-6511648Y-8265476D01*
X-6511648Y-8265476D02*
X-6511648Y-8144047D01*
X-6511648Y-8144047D02*
X-6471172Y-8063095D01*
X-6471172Y-8063095D02*
X-6430695Y-8022619D01*
X-6430695Y-8022619D02*
X-6349743Y-7982142D01*
X-6349743Y-7982142D02*
X-6147362Y-7982142D01*
X-6147362Y-7982142D02*
X-6066410Y-8022619D01*
X-6066410Y-8022619D02*
X-6025933Y-8063095D01*
X-6025933Y-8063095D02*
X-5985457Y-8144047D01*
X-5985457Y-8144047D02*
X-5985457Y-8386904D01*
X-5985457Y-8386904D02*
X-6025933Y-8467857D01*
X-6025933Y-8467857D02*
X-6066410Y-8508333D01*
D12*
X-6750000Y-9500000D02*
X-6845671Y-9480970D01*
X-6926777Y-9426777D01*
X-6980970Y-9345671D01*
X-7000000Y-9250000D01*
X-7000000Y-7200000D01*
X-6980970Y-7104329D01*
X-6926777Y-7023223D01*
X-6845671Y-6969030D01*
X-6750000Y-6950000D01*
X-6000000Y-6950000D01*
X-5904329Y-6969030D01*
X-5823223Y-7023223D01*
X-5769030Y-7104329D01*
X-5750000Y-7200000D01*
X-5750000Y-9250000D01*
X-5769030Y-9345671D01*
X-5823223Y-9426777D01*
X-5904329Y-9480970D01*
X-6000000Y-9500000D01*
X-6750000Y-9500000D01*
D13*
X-9802124Y-8063095D02*
X-9235457Y-8063095D01*
X-10125933Y-8265476D02*
X-9518791Y-8467857D01*
X-9518791Y-8467857D02*
X-9518791Y-7941666D01*
D12*
X-10000000Y-9500000D02*
X-10095671Y-9480970D01*
X-10176777Y-9426777D01*
X-10230970Y-9345671D01*
X-10250000Y-9250000D01*
X-10250000Y-7200000D01*
X-10230970Y-7104329D01*
X-10176777Y-7023223D01*
X-10095671Y-6969030D01*
X-10000000Y-6950000D01*
X-9250000Y-6950000D01*
X-9154329Y-6969030D01*
X-9073223Y-7023223D01*
X-9019030Y-7104329D01*
X-9000000Y-7200000D01*
X-9000000Y-9250000D01*
X-9019030Y-9345671D01*
X-9073223Y-9426777D01*
X-9154329Y-9480970D01*
X-9250000Y-9500000D01*
X-10000000Y-9500000D01*
X-10905000Y-6950000D02*
X-5425000Y-15450000D01*
X-5425000Y-6950000D02*
X-10905000Y-15450000D01*
D17*
X-9425029Y-18028571D02*
X-9425029Y-18371428D01*
X-9425029Y-18199999D02*
X-10025029Y-18199999D01*
X-10025029Y-18199999D02*
X-9939315Y-18257142D01*
X-9939315Y-18257142D02*
X-9882172Y-18314285D01*
X-9882172Y-18314285D02*
X-9853600Y-18371428D01*
D12*
X-10500000Y-17601886D02*
X-10491981Y-17532769D01*
X-10447169Y-17431279D01*
X-10368721Y-17352831D01*
X-10267231Y-17308019D01*
X-10198114Y-17300000D01*
X-9201886Y-17300000D01*
X-9132769Y-17308019D01*
X-9031279Y-17352831D01*
X-8952831Y-17431279D01*
X-8908019Y-17532769D01*
X-8900000Y-17601886D01*
X-8900000Y-18798114D01*
X-8908019Y-18867231D01*
X-8952831Y-18968721D01*
X-9031279Y-19047169D01*
X-9132769Y-19091981D01*
X-9201886Y-19100000D01*
X-10198114Y-19100000D01*
X-10267231Y-19091981D01*
X-10368721Y-19047169D01*
X-10447169Y-18968721D01*
X-10491981Y-18867231D01*
X-10500000Y-18798114D01*
X-10500000Y-17601886D01*
D17*
X-6567886Y-18371428D02*
X-6596458Y-18342856D01*
X-6596458Y-18342856D02*
X-6625029Y-18285714D01*
X-6625029Y-18285714D02*
X-6625029Y-18142856D01*
X-6625029Y-18142856D02*
X-6596458Y-18085714D01*
X-6596458Y-18085714D02*
X-6567886Y-18057142D01*
X-6567886Y-18057142D02*
X-6510743Y-18028571D01*
X-6510743Y-18028571D02*
X-6453600Y-18028571D01*
X-6453600Y-18028571D02*
X-6367886Y-18057142D01*
X-6367886Y-18057142D02*
X-6025029Y-18399999D01*
X-6025029Y-18399999D02*
X-6025029Y-18028571D01*
D12*
X-7100000Y-17601886D02*
X-7091981Y-17532769D01*
X-7047169Y-17431279D01*
X-6968721Y-17352831D01*
X-6867231Y-17308019D01*
X-6798114Y-17300000D01*
X-5801886Y-17300000D01*
X-5732769Y-17308019D01*
X-5631279Y-17352831D01*
X-5552831Y-17431279D01*
X-5508019Y-17532769D01*
X-5500000Y-17601886D01*
X-5500000Y-18798114D01*
X-5508019Y-18867231D01*
X-5552831Y-18968721D01*
X-5631279Y-19047169D01*
X-5732769Y-19091981D01*
X-5801886Y-19100000D01*
X-6798114Y-19100000D01*
X-6867231Y-19091981D01*
X-6968721Y-19047169D01*
X-7047169Y-18968721D01*
X-7091981Y-18867231D01*
X-7100000Y-18798114D01*
X-7100000Y-17601886D01*
X-10795000Y-17005000D02*
X-5205000Y-19395000D01*
X-5205000Y-17005000D02*
X-10795000Y-19395000D01*
D15*
X-36350000Y-12970799D02*
X-36750000Y-12970799D01*
X-36550000Y-12970799D02*
X-36550000Y-12270799D01*
X-36550000Y-12270799D02*
X-36616667Y-12370799D01*
X-36616667Y-12370799D02*
X-36683333Y-12437466D01*
X-36683333Y-12437466D02*
X-36750000Y-12470799D01*
D12*
X-37600000Y-12200000D02*
X-37580970Y-12104329D01*
X-37526777Y-12023223D01*
X-37445671Y-11969030D01*
X-37350000Y-11950000D01*
X-35750000Y-11950000D01*
X-35654329Y-11969030D01*
X-35573223Y-12023223D01*
X-35519030Y-12104329D01*
X-35500000Y-12200000D01*
X-35500000Y-13100000D01*
X-35519030Y-13195671D01*
X-35573223Y-13276777D01*
X-35654329Y-13330970D01*
X-35750000Y-13350000D01*
X-37350000Y-13350000D01*
X-37445671Y-13330970D01*
X-37526777Y-13276777D01*
X-37580970Y-13195671D01*
X-37600000Y-13100000D01*
X-37600000Y-12200000D01*
D15*
X-36750000Y-16837466D02*
X-36716667Y-16804132D01*
X-36716667Y-16804132D02*
X-36650000Y-16770799D01*
X-36650000Y-16770799D02*
X-36483333Y-16770799D01*
X-36483333Y-16770799D02*
X-36416667Y-16804132D01*
X-36416667Y-16804132D02*
X-36383333Y-16837466D01*
X-36383333Y-16837466D02*
X-36350000Y-16904132D01*
X-36350000Y-16904132D02*
X-36350000Y-16970799D01*
X-36350000Y-16970799D02*
X-36383333Y-17070799D01*
X-36383333Y-17070799D02*
X-36783333Y-17470799D01*
X-36783333Y-17470799D02*
X-36350000Y-17470799D01*
D12*
X-37600000Y-16700000D02*
X-37580970Y-16604329D01*
X-37526777Y-16523223D01*
X-37445671Y-16469030D01*
X-37350000Y-16450000D01*
X-35750000Y-16450000D01*
X-35654329Y-16469030D01*
X-35573223Y-16523223D01*
X-35519030Y-16604329D01*
X-35500000Y-16700000D01*
X-35500000Y-17600000D01*
X-35519030Y-17695671D01*
X-35573223Y-17776777D01*
X-35654329Y-17830970D01*
X-35750000Y-17850000D01*
X-37350000Y-17850000D01*
X-37445671Y-17830970D01*
X-37526777Y-17776777D01*
X-37580970Y-17695671D01*
X-37600000Y-17600000D01*
X-37600000Y-16700000D01*
D15*
X-27683333Y-12270799D02*
X-27250000Y-12270799D01*
X-27250000Y-12270799D02*
X-27483333Y-12537466D01*
X-27483333Y-12537466D02*
X-27383333Y-12537466D01*
X-27383333Y-12537466D02*
X-27316667Y-12570799D01*
X-27316667Y-12570799D02*
X-27283333Y-12604132D01*
X-27283333Y-12604132D02*
X-27250000Y-12670799D01*
X-27250000Y-12670799D02*
X-27250000Y-12837466D01*
X-27250000Y-12837466D02*
X-27283333Y-12904132D01*
X-27283333Y-12904132D02*
X-27316667Y-12937466D01*
X-27316667Y-12937466D02*
X-27383333Y-12970799D01*
X-27383333Y-12970799D02*
X-27583333Y-12970799D01*
X-27583333Y-12970799D02*
X-27650000Y-12937466D01*
X-27650000Y-12937466D02*
X-27683333Y-12904132D01*
D12*
X-28500000Y-12200000D02*
X-28480970Y-12104329D01*
X-28426777Y-12023223D01*
X-28345671Y-11969030D01*
X-28250000Y-11950000D01*
X-26650000Y-11950000D01*
X-26554329Y-11969030D01*
X-26473223Y-12023223D01*
X-26419030Y-12104329D01*
X-26400000Y-12200000D01*
X-26400000Y-13100000D01*
X-26419030Y-13195671D01*
X-26473223Y-13276777D01*
X-26554329Y-13330970D01*
X-26650000Y-13350000D01*
X-28250000Y-13350000D01*
X-28345671Y-13330970D01*
X-28426777Y-13276777D01*
X-28480970Y-13195671D01*
X-28500000Y-13100000D01*
X-28500000Y-12200000D01*
D15*
X-27316667Y-17004132D02*
X-27316667Y-17470799D01*
X-27483333Y-16737466D02*
X-27650000Y-17237466D01*
X-27650000Y-17237466D02*
X-27216667Y-17237466D01*
D12*
X-28500000Y-16700000D02*
X-28480970Y-16604329D01*
X-28426777Y-16523223D01*
X-28345671Y-16469030D01*
X-28250000Y-16450000D01*
X-26650000Y-16450000D01*
X-26554329Y-16469030D01*
X-26473223Y-16523223D01*
X-26419030Y-16604329D01*
X-26400000Y-16700000D01*
X-26400000Y-17600000D01*
X-26419030Y-17695671D01*
X-26473223Y-17776777D01*
X-26554329Y-17830970D01*
X-26650000Y-17850000D01*
X-28250000Y-17850000D01*
X-28345671Y-17830970D01*
X-28426777Y-17776777D01*
X-28480970Y-17695671D01*
X-28500000Y-17600000D01*
X-28500000Y-16700000D01*
X-37895000Y-11605000D02*
X-26105000Y-18195000D01*
X-26105000Y-11605000D02*
X-37895000Y-18195000D01*
D24*
X-29523810Y5836191D02*
X-30476190Y5836191D01*
X-30000000Y5836191D02*
X-30000000Y7502857D01*
X-30000000Y7502857D02*
X-30158730Y7264762D01*
X-30158730Y7264762D02*
X-30317460Y7106032D01*
X-30317460Y7106032D02*
X-30476190Y7026667D01*
D12*
X-27500000Y6600000D02*
G75*
G02*
X-32500000Y6600000I-2500000J0D01*
G01*
X-32500000Y6600000D02*
G75*
G02*
X-27500000Y6600000I2500000J0D01*
G01*
D19*
X-25032858Y-91656D02*
X-25147143Y-91656D01*
X-25090000Y-91656D02*
X-25090000Y108344D01*
X-25090000Y108344D02*
X-25109048Y79772D01*
X-25109048Y79772D02*
X-25128096Y60725D01*
X-25128096Y60725D02*
X-25147143Y51201D01*
D12*
X-24790000Y0D02*
G75*
G02*
X-25390000Y0I-300000J0D01*
G01*
X-25390000Y0D02*
G75*
G02*
X-24790000Y0I300000J0D01*
G01*
D19*
X-24951556Y658344D02*
X-25065841Y658344D01*
X-25008698Y658344D02*
X-25008698Y858344D01*
X-25008698Y858344D02*
X-25027746Y829772D01*
X-25027746Y829772D02*
X-25046794Y810725D01*
X-25046794Y810725D02*
X-25065841Y801201D01*
D12*
X-24708698Y750000D02*
G75*
G02*
X-25308698Y750000I-300000J0D01*
G01*
X-25308698Y750000D02*
G75*
G02*
X-24708698Y750000I300000J0D01*
G01*
D19*
X-24951556Y-841656D02*
X-25065841Y-841656D01*
X-25008698Y-841656D02*
X-25008698Y-641656D01*
X-25008698Y-641656D02*
X-25027746Y-670228D01*
X-25027746Y-670228D02*
X-25046794Y-689275D01*
X-25046794Y-689275D02*
X-25065841Y-698799D01*
D12*
X-24708698Y-750000D02*
G75*
G02*
X-25308698Y-750000I-300000J0D01*
G01*
X-25308698Y-750000D02*
G75*
G02*
X-24708698Y-750000I300000J0D01*
G01*
D20*
X-20999524Y-947123D02*
X-22180476Y-947123D01*
X-21590000Y-947123D02*
X-21590000Y1119543D01*
X-21590000Y1119543D02*
X-21786825Y824305D01*
X-21786825Y824305D02*
X-21983650Y627479D01*
X-21983650Y627479D02*
X-22180476Y529067D01*
D12*
X-18490000Y0D02*
G75*
G02*
X-24690000Y0I-3100000J0D01*
G01*
X-24690000Y0D02*
G75*
G02*
X-18490000Y0I3100000J0D01*
G01*
D21*
X-20828096Y-1222095D02*
X-22351905Y-1222095D01*
X-21590001Y-1222095D02*
X-21590001Y1444571D01*
X-21590001Y1444571D02*
X-21843969Y1063619D01*
X-21843969Y1063619D02*
X-22097937Y809651D01*
X-22097937Y809651D02*
X-22351905Y682667D01*
D12*
X-25590000Y500000D02*
X-25574315Y676420D01*
X-25518653Y870950D01*
X-25424972Y1050293D01*
X-25297107Y1207107D01*
X-25140293Y1334972D01*
X-24960950Y1428653D01*
X-24766420Y1484315D01*
X-24590000Y1500000D01*
X-18590000Y1500000D01*
X-18413580Y1484315D01*
X-18219050Y1428653D01*
X-18039707Y1334972D01*
X-17882893Y1207107D01*
X-17755028Y1050293D01*
X-17661347Y870950D01*
X-17605685Y676420D01*
X-17590000Y500000D01*
X-17590000Y-500000D01*
X-17605685Y-676420D01*
X-17661347Y-870950D01*
X-17755028Y-1050293D01*
X-17882893Y-1207107D01*
X-18039707Y-1334972D01*
X-18219050Y-1428653D01*
X-18413580Y-1484315D01*
X-18590000Y-1500000D01*
X-24590000Y-1500000D01*
X-24766420Y-1484315D01*
X-24960950Y-1428653D01*
X-25140293Y-1334972D01*
X-25297107Y-1207107D01*
X-25424972Y-1050293D01*
X-25518653Y-870950D01*
X-25574315Y-676420D01*
X-25590000Y-500000D01*
X-25590000Y500000D01*
D19*
X-18114160Y658344D02*
X-18228445Y658344D01*
X-18171302Y658344D02*
X-18171302Y858344D01*
X-18171302Y858344D02*
X-18190350Y829772D01*
X-18190350Y829772D02*
X-18209398Y810725D01*
X-18209398Y810725D02*
X-18228445Y801201D01*
D12*
X-17871302Y750000D02*
G75*
G02*
X-18471302Y750000I-300000J0D01*
G01*
X-18471302Y750000D02*
G75*
G02*
X-17871302Y750000I300000J0D01*
G01*
D19*
X-18114160Y-841656D02*
X-18228445Y-841656D01*
X-18171302Y-841656D02*
X-18171302Y-641656D01*
X-18171302Y-641656D02*
X-18190350Y-670228D01*
X-18190350Y-670228D02*
X-18209398Y-689275D01*
X-18209398Y-689275D02*
X-18228445Y-698799D01*
D12*
X-17871302Y-750000D02*
G75*
G02*
X-18471302Y-750000I-300000J0D01*
G01*
X-18471302Y-750000D02*
G75*
G02*
X-17871302Y-750000I300000J0D01*
G01*
D19*
X-18032858Y-91656D02*
X-18147143Y-91656D01*
X-18090000Y-91656D02*
X-18090000Y108344D01*
X-18090000Y108344D02*
X-18109048Y79772D01*
X-18109048Y79772D02*
X-18128096Y60725D01*
X-18128096Y60725D02*
X-18147143Y51201D01*
D12*
X-17790000Y0D02*
G75*
G02*
X-18390000Y0I-300000J0D01*
G01*
X-18390000Y0D02*
G75*
G02*
X-17790000Y0I300000J0D01*
G01*
D18*
X53166667Y332667D02*
X52833334Y332667D01*
X53000000Y332667D02*
X53000000Y916000D01*
X53000000Y916000D02*
X52944445Y832666D01*
X52944445Y832666D02*
X52888889Y777111D01*
X52888889Y777111D02*
X52833334Y749333D01*
D12*
X52432693Y-200000D02*
X52362247Y-191827D01*
X52258804Y-146153D01*
X52178847Y-66196D01*
X52133173Y37247D01*
X52125001Y107694D01*
X52125000Y1092307D01*
X52133173Y1162753D01*
X52178847Y1266196D01*
X52258804Y1346153D01*
X52362247Y1391827D01*
X52432694Y1399999D01*
X53567307Y1400000D01*
X53637753Y1391827D01*
X53741196Y1346153D01*
X53821153Y1266196D01*
X53866827Y1162753D01*
X53874999Y1092306D01*
X53875000Y107693D01*
X53866827Y37247D01*
X53821153Y-66196D01*
X53741196Y-146153D01*
X53637753Y-191827D01*
X53567306Y-199999D01*
X52432693Y-200000D01*
D18*
X52833334Y4260444D02*
X52861111Y4288222D01*
X52861111Y4288222D02*
X52916667Y4316000D01*
X52916667Y4316000D02*
X53055556Y4316000D01*
X53055556Y4316000D02*
X53111111Y4288222D01*
X53111111Y4288222D02*
X53138889Y4260444D01*
X53138889Y4260444D02*
X53166667Y4204889D01*
X53166667Y4204889D02*
X53166667Y4149333D01*
X53166667Y4149333D02*
X53138889Y4066000D01*
X53138889Y4066000D02*
X52805556Y3732667D01*
X52805556Y3732667D02*
X53166667Y3732667D01*
D12*
X52432693Y3200000D02*
X52362247Y3208173D01*
X52258804Y3253847D01*
X52178847Y3333804D01*
X52133173Y3437247D01*
X52125001Y3507694D01*
X52125000Y4492307D01*
X52133173Y4562753D01*
X52178847Y4666196D01*
X52258804Y4746153D01*
X52362247Y4791827D01*
X52432694Y4799999D01*
X53567307Y4800000D01*
X53637753Y4791827D01*
X53741196Y4746153D01*
X53821153Y4666196D01*
X53866827Y4562753D01*
X53874999Y4492306D01*
X53875000Y3507693D01*
X53866827Y3437247D01*
X53821153Y3333804D01*
X53741196Y3253847D01*
X53637753Y3208173D01*
X53567306Y3200001D01*
X52432693Y3200000D01*
X51835000Y-495000D02*
X54165000Y5095000D01*
X51835000Y5095000D02*
X54165000Y-495000D01*
M02*
