M48
; DRILL file KiCad 10.0.2 date 2026-06-17T18:31:32
; FORMAT={-:-/ absolute / metric / decimal}
; #@! TF.CreationDate,2026-06-17T18:31:32+01:00
; #@! TF.GenerationSoftware,Kicad,Pcbnew,10.0.2
; #@! TF.FileFunction,Plated,1,2,PTH
FMAT,2
METRIC
; #@! TA.AperFunction,Plated,PTH,ComponentDrill
T1C0.300
; #@! TA.AperFunction,Plated,PTH,ViaDrill
T2C0.400
; #@! TA.AperFunction,Plated,PTH,ComponentDrill
T3C0.600
; #@! TA.AperFunction,Plated,PTH,ComponentDrill
T4C4.000
; #@! TA.AperFunction,Plated,PTH,ComponentDrill
T5C4.200
%
G90
G05
T1
X-25.09Y0.0
X-25.009Y0.75
X-25.009Y-0.75
X-18.171Y0.75
X-18.171Y-0.75
X-18.09Y0.0
X-14.93Y0.0
X-14.849Y0.75
X-14.849Y-0.75
X-8.011Y0.75
X-8.011Y-0.75
X-7.93Y0.0
X-3.5Y0.0
X-3.419Y0.75
X-3.419Y-0.75
X3.419Y0.75
X3.419Y-0.75
X3.5Y0.0
X7.93Y0.0
X8.011Y0.75
X8.011Y-0.75
X14.849Y0.75
X14.849Y-0.75
X14.93Y0.0
X18.09Y0.0
X18.171Y0.75
X18.171Y-0.75
X25.009Y0.75
X25.009Y-0.75
X25.09Y0.0
T2
X-50.25Y-17.15
X-42.125Y-9.15
X-42.0Y-25.15
X-40.0Y5.1
X-34.25Y-17.15
X-21.5Y-31.15
X-20.25Y-31.15
X-19.0Y-34.775
X-18.75Y-20.65
X-18.741Y-25.98
X-17.75Y-29.4
X-17.75Y-34.775
X-16.5Y-25.98
X-16.5Y-34.775
X-16.0Y-15.64
X-15.25Y-34.775
X-13.932Y-25.98
X-12.625Y-25.98
X-8.0Y-15.64
X-6.625Y-27.4
X-6.625Y-33.15
X0.0Y-15.64
X4.166Y-27.066
X8.0Y-15.64
X16.0Y-15.64
X24.5Y-22.775
X33.75Y-21.15
X35.8Y-10.45
X39.875Y5.1
X42.2Y-13.15
T4
X-30.0Y6.6
X-30.0Y-35.4
X30.0Y6.6
X30.0Y-35.4
T5
X-21.59Y0.0
X-11.43Y0.0
X0.0Y0.0
X11.43Y0.0
X21.59Y0.0
T3
G00X-40.8Y9.6
M15
G01X-39.2Y9.6
M16
G05
G00X39.2Y9.6
M15
G01X40.8Y9.6
M16
G05
M30
