<?xml version="1.0" encoding="UTF-8" standalone="no"?>
<!-- Created with Inkscape (http://www.inkscape.org/) -->

<svg
   width="22.911232mm"
   height="9.3302355mm"
   viewBox="0 0 22.911232 9.3302355"
   version="1.1"
   id="svg1"
   xml:space="preserve"
   inkscape:version="1.3.2 (091e20e, 2023-11-25)"
   sodipodi:docname="LSS_L.svg"
   xmlns:inkscape="http://www.inkscape.org/namespaces/inkscape"
   xmlns:sodipodi="http://sodipodi.sourceforge.net/DTD/sodipodi-0.dtd"
   xmlns="http://www.w3.org/2000/svg"
   xmlns:svg="http://www.w3.org/2000/svg"><sodipodi:namedview
     id="namedview1"
     pagecolor="#ffffff"
     bordercolor="#000000"
     borderopacity="0.25"
     inkscape:showpageshadow="2"
     inkscape:pageopacity="0.0"
     inkscape:pagecheckerboard="0"
     inkscape:deskcolor="#d1d1d1"
     inkscape:document-units="mm"
     inkscape:zoom="5.7890407"
     inkscape:cx="-23.406296"
     inkscape:cy="45.60341"
     inkscape:window-width="1432"
     inkscape:window-height="1097"
     inkscape:window-x="0"
     inkscape:window-y="44"
     inkscape:window-maximized="0"
     inkscape:current-layer="g284" /><defs
     id="defs1" /><g
     inkscape:label="[fixed] BG"
     inkscape:groupmode="layer"
     sodipodi:insensitive="true"
     id="g1"
     transform="translate(-17.740515,-41.217581)"><rect
       x="0"
       y="0"
       width="100"
       height="100"
       style="fill:#ffffff;fill-opacity:1;stroke:none"
       id="rect1" /></g><g
     inkscape:label="F.SilkS"
     inkscape:groupmode="layer"
     id="g2"
     transform="translate(-17.740515,-41.217581)" /><g
     style="clip-rule:evenodd;fill-rule:evenodd;stroke-linecap:round;stroke-linejoin:round;stroke-miterlimit:1.5"
     id="g3"
     transform="matrix(0.01129862,0,0,0.01129862,-4.4194922,-11.693973)"><rect
       id="LSS_pcb"
       x="2.342"
       y="1.429"
       width="5634.73"
       height="1947.14"
       style="fill:none" /><g
       id="g284"><path
         d="m 1668.54,1313.94 62.084,-29.615"
         style="fill:none;stroke:#000000;stroke-width:6.67px"
         id="path94" /><path
         d="m 1757.17,1278.2 105.535,0.49"
         style="fill:none;stroke:#000000;stroke-width:6.67px"
         id="path95" /><path
         d="m 1888.88,1284.8 43.223,21.936"
         style="fill:none;stroke:#000000;stroke-width:6.67px"
         id="path96" /><path
         d="m 1958.88,1313.12 h 74.551"
         style="fill:none;stroke:#000000;stroke-width:6.67px"
         id="path97" /><path
         d="m 1655.18,1301.75 v -56.053 l -15.664,-54.05"
         style="fill:none;stroke:#000000;stroke-width:6.67px"
         id="path98" /><path
         d="m 2388.08,1313.41 -58.875,-28.083"
         style="fill:none;stroke:#000000;stroke-width:6.67px"
         id="path99" /><path
         d="M 2302.68,1278.2 H 2200.044"
         style="fill:none;stroke:#000000;stroke-width:6.67px"
         id="path100" /><path
         d="m 2172.68,1282.86 -46.328,23.512"
         style="fill:none;stroke:#000000;stroke-width:6.67px"
         id="path101" /><path
         d="m 2101.87,1313.12 h -77.555"
         style="fill:none;stroke:#000000;stroke-width:6.67px"
         id="path102" /><path
         d="m 1639.52,1191.64 0.653,-99.08 39.056,-19.227 v 45.782 l 17.491,-8.634 v -44.96 l 51.961,-24.409 v 55.933 h 26.804 v -58.544 h 54.544 v 58.338 h 22.403 v -58.513 l 52.788,34.439 v 51.233 l 17.751,7.124 v -41.107 h 54.641 v 47.474 h 19.688 v -48.14 h 36.13"
         style="fill:none;stroke:#000000;stroke-width:6.67px"
         id="path103" /><path
         d="m 2415.26,1189.72 v -97.151 l -39.057,-19.227 v 45.782 l -17.491,-8.634 v -44.96 l -51.961,-24.409 v 55.933 h -26.803 v -58.544 h -54.545 v 58.338 H 2203 v -58.513 l -52.787,34.439 v 51.233 l -17.752,7.124 v -41.107 h -54.641 v 47.474 h -19.688 v -48.14 h -36.13"
         style="fill:none;stroke:#000000;stroke-width:6.67px"
         id="path104" /><path
         d="m 1931.35,1843.71 c 0,7.359 5.974,13.333 13.333,13.333 7.359,0 13.333,-5.974 13.333,-13.333 0,-7.359 -5.974,-13.333 -13.333,-13.333 -7.359,0 -13.333,5.974 -13.333,13.333 z"
         style="fill:none;stroke:#000000;stroke-width:6.67px;stroke-linejoin:miter;stroke-miterlimit:10"
         id="path105" /><path
         d="m 1944.69,1830.38 c 0,-112.596 0,-503.604 0,-503.604"
         style="fill:none;stroke:#000000;stroke-width:6.67px"
         id="path106" /><path
         d="m 2101.77,1843.71 c 0,7.359 5.974,13.333 13.333,13.333 7.359,0 13.333,-5.974 13.333,-13.333 0,-7.359 -5.974,-13.333 -13.333,-13.333 -7.359,0 -13.333,5.974 -13.333,13.333 z"
         style="fill:none;stroke:#000000;stroke-width:6.67px;stroke-linejoin:miter;stroke-miterlimit:10"
         id="path107" /><path
         d="m 2115.1,1830.38 c 0,-112.144 0,-500.317 0,-500.317"
         style="fill:none;stroke:#000000;stroke-width:6.67px"
         id="path108" /><path
         d="M 2115.1,1301.55 V 1201.056"
         style="fill:none;stroke:#000000;stroke-width:6.67px"
         id="path109" /><path
         d="M 1943.83,1298.57 V 1198.076"
         style="fill:none;stroke:#000000;stroke-width:6.67px"
         id="path110" /><path
         d="m 2171.26,1843.71 c 0,7.359 5.974,13.333 13.333,13.333 7.359,0 13.333,-5.974 13.333,-13.333 0,-7.359 -5.974,-13.333 -13.333,-13.333 -7.359,0 -13.333,5.974 -13.333,13.333 z"
         style="fill:none;stroke:#000000;stroke-width:6.67px;stroke-linejoin:miter;stroke-miterlimit:10"
         id="path111" /><path
         d="m 2184.59,1830.38 c 0,-117.228 0,-537.934 0,-537.934"
         style="fill:none;stroke:#000000;stroke-width:6.67px"
         id="path112" /><path
         d="m 2303.67,1843.71 c 0,7.359 5.975,13.333 13.333,13.333 7.359,0 13.334,-5.974 13.334,-13.333 0,-7.359 -5.975,-13.333 -13.334,-13.333 -7.358,0 -13.333,5.974 -13.333,13.333 z"
         style="fill:none;stroke:#000000;stroke-width:6.67px;stroke-linejoin:miter;stroke-miterlimit:10"
         id="path113" /><path
         d="m 2317,1830.38 c 0,-117.251 0,-538.109 0,-538.109"
         style="fill:none;stroke:#000000;stroke-width:6.67px"
         id="path114" /><path
         d="m 1862.55,1842.88 c 0,7.359 5.974,13.333 13.333,13.333 7.359,0 13.333,-5.974 13.333,-13.333 0,-7.359 -5.974,-13.334 -13.333,-13.334 -7.359,0 -13.333,5.975 -13.333,13.334 z"
         style="fill:none;stroke:#000000;stroke-width:6.67px;stroke-linejoin:miter;stroke-miterlimit:10"
         id="path115" /><path
         d="m 1875.88,1829.55 c 0,-117.156 0,-537.401 0,-537.401"
         style="fill:none;stroke:#000000;stroke-width:6.67px"
         id="path116" /><path
         d="m 1730.13,1842.88 c 0,7.359 5.975,13.333 13.334,13.333 7.358,0 13.333,-5.974 13.333,-13.333 0,-7.359 -5.975,-13.334 -13.333,-13.334 -7.359,0 -13.334,5.975 -13.334,13.334 z"
         style="fill:none;stroke:#000000;stroke-width:6.67px;stroke-linejoin:miter;stroke-miterlimit:10"
         id="path117" /><path
         d="M 1743.47,1829.55 V 1292.183"
         style="fill:none;stroke:#000000;stroke-width:6.67px"
         id="path118" /><path
         d="M 2402.56,1829.875 V 1330.192"
         style="fill:none;stroke:#000000;stroke-width:6.67px"
         id="path119"
         sodipodi:nodetypes="cc" /><path
         d="m 2402.56,1302.47 v -55.142 l 12.702,-55.679"
         style="fill:none;stroke:#000000;stroke-width:6.67px"
         id="path120" /><path
         d="m 1812.27,1716.83 v 78.773"
         style="fill:none;stroke:#000000;stroke-width:6.67px"
         id="path121" /><path
         d="m 2253.62,1716.83 v 78.773"
         style="fill:none;stroke:#000000;stroke-width:6.67px"
         id="path122" /><path
         d="m 1655.18,1329.29 v 207.512"
         style="fill:none;stroke:#000000;stroke-width:6.67px"
         id="path123" /><path
         d="m 2253.62,1497.42 v 78.773"
         style="fill:none;stroke:#000000;stroke-width:6.67px"
         id="path124" /><path
         d="m 2033.43,1497.42 v 78.773"
         style="fill:none;stroke:#000000;stroke-width:6.67px"
         id="path125" /><path
         d="m 2085.2,1324.78 v 35.903"
         style="fill:none;stroke:#000000;stroke-width:6.67px"
         id="path126" /><path
         d="m 1974.59,1324.78 v 35.903"
         style="fill:none;stroke:#000000;stroke-width:6.67px"
         id="path127" /><path
         d="m 1910.28,1721.7 v 78.773"
         style="fill:none;stroke:#000000;stroke-width:6.67px"
         id="path128" /><path
         d="m 2150.18,1721.7 v 78.773"
         style="fill:none;stroke:#000000;stroke-width:6.67px"
         id="path129" /><path
         d="m 1812.27,1292.86 v 78.774"
         style="fill:none;stroke:#000000;stroke-width:6.67px"
         id="path130" /><path
         d="m 2253.62,1292.86 v 78.774"
         style="fill:none;stroke:#000000;stroke-width:6.67px"
         id="path131" /><path
         d="m 1639.52,1191.64 94.748,-42.113 h 141.615 l 56.022,28.711"
         style="fill:none;stroke:#000000;stroke-width:6.67px"
         id="path132" /><path
         d="m 1958.58,1184.45 h 74.845"
         style="fill:none;stroke:#000000;stroke-width:6.67px"
         id="path133" /><path
         d="m 2415.26,1191.64 -94.748,-42.113 h -141.615 l -53.711,27.258"
         style="fill:none;stroke:#000000;stroke-width:6.67px"
         id="path134" /><path
         d="m 2102.4,1184.45 h -81.053"
         style="fill:none;stroke:#000000;stroke-width:6.67px"
         id="path135" /><path
         d="m 1138.89,1842.88 c 0,7.359 -5.974,13.333 -13.333,13.333 -7.359,0 -13.333,-5.974 -13.333,-13.333 0,-7.359 5.974,-13.333 13.333,-13.333 7.359,0 13.333,5.974 13.333,13.333 z"
         style="fill:none;stroke:#000000;stroke-width:6.67px;stroke-linejoin:miter;stroke-miterlimit:10"
         id="path136" /><path
         d="m 1125.55,1717.17 c 0,0 0,70.604 0,112.372"
         style="fill:none;stroke:#000000;stroke-width:6.67px"
         id="path137" /><path
         d="m 1416.61,1842.88 c 0,7.359 -5.974,13.333 -13.333,13.333 -7.359,0 -13.333,-5.974 -13.333,-13.333 0,-7.359 5.974,-13.333 13.333,-13.333 7.359,0 13.333,5.974 13.333,13.333 z"
         style="fill:none;stroke:#000000;stroke-width:6.67px;stroke-linejoin:miter;stroke-miterlimit:10"
         id="path138" /><path
         d="m 1403.28,1717.17 c 0,0 0,70.604 0,112.372"
         style="fill:none;stroke:#000000;stroke-width:6.67px"
         id="path139" /><path
         d="m 1289.27,1842.88 c 0,7.359 -5.975,13.333 -13.334,13.333 -7.358,0 -13.333,-5.974 -13.333,-13.333 0,-7.359 5.975,-13.334 13.333,-13.334 7.359,0 13.334,5.975 13.334,13.334 z"
         style="fill:none;stroke:#000000;stroke-width:6.67px;stroke-linejoin:miter;stroke-miterlimit:10"
         id="path140" /><path
         d="m 1275.94,1718.86 v 110.689"
         style="fill:none;stroke:#000000;stroke-width:6.67px"
         id="path141" /><path
         d="m 1567,1842.88 c 0,7.359 -5.975,13.333 -13.333,13.333 -7.359,0 -13.334,-5.974 -13.334,-13.333 0,-7.359 5.975,-13.334 13.334,-13.334 7.358,0 13.333,5.975 13.333,13.334 z"
         style="fill:none;stroke:#000000;stroke-width:6.67px;stroke-linejoin:miter;stroke-miterlimit:10"
         id="path142" /><path
         d="m 1553.67,1718.86 v 110.689"
         style="fill:none;stroke:#000000;stroke-width:6.67px"
         id="path143" /><path
         d="M 1087.58,1636.78 V 1335.197"
         style="fill:none;stroke:#000000;stroke-width:6.67px"
         id="path144" /><path
         d="M 1313.8,1637.13 V 1335.818"
         style="fill:none;stroke:#000000;stroke-width:6.67px"
         id="path145" /><path
         d="m 1313.8,1465.6 51.11,10.686"
         style="fill:none;stroke:#000000;stroke-width:6.67px"
         id="path146" /><path
         d="m 1306.39,1663.83 -105.702,184.015 -106.187,-184.859"
         style="fill:none;stroke:#000000;stroke-width:6.67px"
         id="path147" /><path
         d="m 1584.12,1663.83 -105.702,184.015 -106.187,-184.859"
         style="fill:none;stroke:#000000;stroke-width:6.67px"
         id="path148" /><path
         d="m 1101.69,1650.93 h 197.84"
         style="fill:none;stroke:#000000;stroke-width:6.67px"
         id="path149" /><path
         d="m 1379.42,1650.93 h 197.84"
         style="fill:none;stroke:#000000;stroke-width:6.67px"
         id="path150" /><path
         d="M 1300.13,1320.94 H 1101.894"
         style="fill:none;stroke:#000000;stroke-width:6.67px"
         id="path151" /><path
         d="M 1576.16,1320.94 H 1377.925"
         style="fill:none;stroke:#000000;stroke-width:6.67px"
         id="path152" /><path
         d="m 1099.4,1313.25 101.286,-65.923 100.981,65.725"
         style="fill:none;stroke:#000000;stroke-width:6.67px"
         id="path153" /><path
         d="m 1375.43,1313.25 101.286,-65.923 100.981,65.725"
         style="fill:none;stroke:#000000;stroke-width:6.67px"
         id="path154" /><path
         d="M 1364.29,1637.28 V 1335.542"
         style="fill:none;stroke:#000000;stroke-width:6.67px"
         id="path155" /><path
         d="M 1590.51,1637.28 V 1335.542"
         style="fill:none;stroke:#000000;stroke-width:6.67px"
         id="path156" /><path
         d="m 1698.92,1842.84 c 0.023,7.359 -5.932,13.353 -13.291,13.376 -7.359,0.024 -13.352,-5.932 -13.376,-13.291 -0.023,-7.359 5.932,-13.352 13.291,-13.375 7.359,-0.024 13.352,5.932 13.376,13.29 z"
         style="fill:none;stroke:#000000;stroke-width:6.67px;stroke-linejoin:miter;stroke-miterlimit:10"
         id="path157" /><path
         d="m 1590.51,1517.31 94.107,20.756 c 0,0 0.674,211.636 0.928,291.477"
         style="fill:none;stroke:#000000;stroke-width:6.67px"
         id="path158" /><circle
         cx="1087.58"
         cy="1650.9301"
         r="13.408"
         style="fill:none;stroke:#000000;stroke-width:6.67px"
         id="circle158" /><circle
         cx="1365.3"
         cy="1650.9301"
         r="13.408"
         style="fill:none;stroke:#000000;stroke-width:6.67px"
         id="circle159" /><circle
         cx="1087.58"
         cy="1320.9399"
         r="13.408"
         style="fill:none;stroke:#000000;stroke-width:6.67px"
         id="circle160" /><circle
         cx="1363.6"
         cy="1320.9399"
         r="13.408"
         style="fill:none;stroke:#000000;stroke-width:6.67px"
         id="circle161" /><circle
         cx="1313.8199"
         cy="1650.9301"
         r="13.408"
         style="fill:none;stroke:#000000;stroke-width:6.67px"
         id="circle162" /><circle
         cx="1591.54"
         cy="1650.9301"
         r="13.408"
         style="fill:none;stroke:#000000;stroke-width:6.67px"
         id="circle163" /><circle
         cx="1313.8199"
         cy="1320.9399"
         r="13.408"
         style="fill:none;stroke:#000000;stroke-width:6.67px"
         id="circle164" /><circle
         cx="1589.84"
         cy="1320.9399"
         r="13.408"
         style="fill:none;stroke:#000000;stroke-width:6.67px"
         id="circle165" /><circle
         cx="1655.22"
         cy="1531.8"
         r="13.408"
         style="fill:#ffffff;stroke:#000000;stroke-width:6.67px"
         id="circle166" /><path
         d="m 397.775,1842.85 c -0.018,7.359 5.943,13.347 13.302,13.364 7.359,0.017 13.347,-5.943 13.364,-13.302 0.017,-7.359 -5.943,-13.347 -13.302,-13.364 -7.359,-0.018 -13.347,5.943 -13.364,13.302 z"
         style="fill:none;stroke:#000000;stroke-width:6.67px;stroke-linejoin:miter;stroke-miterlimit:10"
         id="path166" /><path
         d="m 411.139,1829.55 c 0.177,-75.992 0.63,-270.072 0.63,-270.072 l -17.281,-21.942 657.635,-119.797 34.506,8.706"
         style="fill:none;stroke:#000000;stroke-width:6.67px"
         id="path167" /><path
         d="m 604.552,1842.83 c -0.027,7.359 5.927,13.355 13.285,13.381 7.359,0.026 13.355,-5.927 13.381,-13.286 0.026,-7.359 -5.927,-13.354 -13.286,-13.38 -7.359,-0.027 -13.354,5.927 -13.38,13.285 z"
         style="fill:none;stroke:#000000;stroke-width:6.67px;stroke-linecap:butt;stroke-linejoin:miter;stroke-miterlimit:10"
         id="path168" /><path
         d="m 617.932,1829.55 c 0.116,-32.559 0.284,-79.962 0.284,-79.962"
         style="fill:none;stroke:#000000;stroke-width:6.67px;stroke-linecap:butt"
         id="path169" /><path
         d="m 618.354,1711.9 0.172,-49.272 h 320.418 l 0.007,48.893"
         style="fill:none;stroke:#000000;stroke-width:6.67px;stroke-linecap:square"
         id="path170" /><path
         d="m 952.277,1842.88 c 0,7.359 -5.974,13.333 -13.333,13.333 -7.359,0 -13.333,-5.974 -13.333,-13.333 0,-7.359 5.974,-13.334 13.333,-13.334 7.359,0 13.333,5.975 13.333,13.334 z"
         style="fill:none;stroke:#000000;stroke-width:6.67px;stroke-linejoin:miter;stroke-miterlimit:10"
         id="path171" /><path
         d="m 938.944,1754.42 v 75.124"
         style="fill:none;stroke:#000000;stroke-width:6.67px"
         id="path172" /><path
         d="m 616.065,1711.83 c 11.446,0 20.739,9.292 20.739,20.738 0,11.446 -9.293,20.738 -20.739,20.738"
         style="fill:none;stroke:#000000;stroke-width:6.67px;stroke-linecap:butt"
         id="path173" /><path
         d="m 938.944,1711.83 c 11.446,0 20.738,9.292 20.738,20.738 0,11.446 -9.292,20.738 -20.738,20.738"
         style="fill:none;stroke:#000000;stroke-width:6.67px;stroke-linecap:square"
         id="path174" /><path
         d="m 411.749,1732.57 h 712.946"
         style="fill:none;stroke:#000000;stroke-width:6.67px"
         id="path175" /><path
         d="m 1276.07,1732.57 h 126.079"
         style="fill:none;stroke:#000000;stroke-width:6.67px"
         id="path176" /><path
         d="m 2388.9425,1844.0516 c -0.032,7.358 5.917,13.359 13.276,13.39 7.358,0.032 13.358,-5.917 13.39,-13.276 0.032,-7.359 -5.917,-13.359 -13.276,-13.39 -7.359,-0.032 -13.359,5.917 -13.39,13.276 z"
         style="fill:none;stroke:#000000;stroke-width:6.67px;stroke-linejoin:miter;stroke-miterlimit:10"
         id="path189" /><circle
         cx="1655.22"
         cy="1531.8"
         r="13.408"
         style="fill:none;stroke:#000000;stroke-width:6.67px"
         id="circle230" /><circle
         cx="1655.22"
         cy="1315.72"
         r="13.408"
         style="fill:none;stroke:#000000;stroke-width:6.67px"
         id="circle231" /><circle
         cx="2116.04"
         cy="1315.72"
         r="13.408"
         style="fill:none;stroke:#000000;stroke-width:6.67px"
         id="circle232" /><circle
         cx="2116.04"
         cy="1187.05"
         r="13.408"
         style="fill:none;stroke:#000000;stroke-width:6.67px"
         id="circle233" /><circle
         cx="1743.47"
         cy="1278.2"
         r="13.408"
         style="fill:none;stroke:#000000;stroke-width:6.67px"
         id="circle234" /><circle
         cx="2185.6799"
         cy="1278.2"
         r="13.408"
         style="fill:none;stroke:#000000;stroke-width:6.67px"
         id="circle235" /><circle
         cx="1876.45"
         cy="1278.2"
         r="13.408"
         style="fill:none;stroke:#000000;stroke-width:6.67px"
         id="circle245" /><circle
         cx="2317"
         cy="1278.2"
         r="13.408"
         style="fill:none;stroke:#000000;stroke-width:6.67px"
         id="circle246" /><circle
         cx="1944.6899"
         cy="1312.67"
         r="13.408"
         style="fill:none;stroke:#000000;stroke-width:6.67px"
         id="circle247" /><circle
         cx="1944.6899"
         cy="1184"
         r="13.408"
         style="fill:none;stroke:#000000;stroke-width:6.67px"
         id="circle248" /><circle
         cx="2401.8501"
         cy="1316.33"
         r="13.408"
         style="fill:none;stroke:#000000;stroke-width:6.67px"
         id="circle249" /></g></g></svg>
