M48
; DRILL file {KiCad 8.0.0} date 2024-05-31T17:11:50+0100
; FORMAT={-:-/ absolute / metric / decimal}
; #@! TF.CreationDate,2024-05-31T17:11:50+01:00
; #@! TF.GenerationSoftware,Kicad,Pcbnew,8.0.0
; #@! TF.FileFunction,Plated,1,2,PTH
FMAT,2
METRIC
; #@! TA.AperFunction,Plated,PTH,ViaDrill
T1C0.400
; #@! TA.AperFunction,Plated,PTH,ViaDrill
T2C3.000
; #@! TA.AperFunction,Plated,PTH,ComponentDrill
T3C4.000
%
G90
G05
T1
X61.595Y-70.866
X63.7Y-78.34
X66.675Y-52.705
X68.58Y-63.627
X75.565Y-70.866
X82.93Y-65.34
X82.93Y-71.73
X100.96Y-83.19
X100.965Y-74.041
X102.21Y-83.19
X102.235Y-74.041
X102.73Y-61.96
X103.505Y-74.041
X103.505Y-83.185
X104.77Y-74.04
X105.73Y-83.19
X106.01Y-74.03
X107.696Y-73.406
X107.75Y-83.19
X130.14Y-80.24
X139.305Y-52.705
X143.38Y-78.82
T2
X149.225Y-67.171
T3
X81.328Y-52.197
X91.489Y-52.197
X102.918Y-52.197
X114.349Y-52.197
X124.508Y-52.197
M30
