%TF.GenerationSoftware,KiCad,Pcbnew,10.0.2*%
%TF.CreationDate,2026-06-17T18:46:00+01:00*%
%TF.ProjectId,solderbit-gamepad,736f6c64-6572-4626-9974-2d67616d6570,v0.9*%
%TF.SameCoordinates,PX636f40fPY2cfad2f*%
%TF.FileFunction,AssemblyDrawing,Bot*%
%FSLAX46Y46*%
G04 Gerber Fmt 4.6, Leading zero omitted, Abs format (unit mm)*
G04 Created by KiCad (PCBNEW 10.0.2) date 2026-06-17 18:46:00*
%MOMM*%
%LPD*%
G01*
G04 APERTURE LIST*
%ADD10C,0.075000*%
%ADD11C,0.100000*%
%ADD12C,0.016667*%
%ADD13C,0.172222*%
%ADD14C,0.222222*%
%ADD15C,0.138889*%
%ADD16C,0.206944*%
G04 APERTURE END LIST*
D10*
X392856Y-22665504D02*
X321428Y-22689314D01*
X321428Y-22689314D02*
X297618Y-22713123D01*
X297618Y-22713123D02*
X273809Y-22760742D01*
X273809Y-22760742D02*
X273809Y-22832171D01*
X273809Y-22832171D02*
X297618Y-22879790D01*
X297618Y-22879790D02*
X321428Y-22903600D01*
X321428Y-22903600D02*
X369047Y-22927409D01*
X369047Y-22927409D02*
X559523Y-22927409D01*
X559523Y-22927409D02*
X559523Y-22427409D01*
X559523Y-22427409D02*
X392856Y-22427409D01*
X392856Y-22427409D02*
X345237Y-22451219D01*
X345237Y-22451219D02*
X321428Y-22475028D01*
X321428Y-22475028D02*
X297618Y-22522647D01*
X297618Y-22522647D02*
X297618Y-22570266D01*
X297618Y-22570266D02*
X321428Y-22617885D01*
X321428Y-22617885D02*
X345237Y-22641695D01*
X345237Y-22641695D02*
X392856Y-22665504D01*
X392856Y-22665504D02*
X559523Y-22665504D01*
X130951Y-22427409D02*
X-154763Y-22427409D01*
X-11906Y-22927409D02*
X-11906Y-22427409D01*
X-583334Y-22927409D02*
X-297620Y-22927409D01*
X-440477Y-22927409D02*
X-440477Y-22427409D01*
X-440477Y-22427409D02*
X-392858Y-22498838D01*
X-392858Y-22498838D02*
X-345239Y-22546457D01*
X-345239Y-22546457D02*
X-297620Y-22570266D01*
X-692979Y-22677409D02*
X672023Y-22677409D01*
D11*
X38650000Y9600000D02*
X38665638Y9730220D01*
X38720587Y9869561D01*
X38811091Y9988909D01*
X38930439Y10079413D01*
X39069780Y10134362D01*
X39200000Y10150000D01*
X40800000Y10150000D01*
X40930220Y10134362D01*
X41069561Y10079413D01*
X41188909Y9988909D01*
X41279413Y9869561D01*
X41334362Y9730220D01*
X41350000Y9600000D01*
X41350000Y8600000D01*
X41334362Y8469780D01*
X41279413Y8330439D01*
X41188909Y8211091D01*
X41069561Y8120587D01*
X40930220Y8065638D01*
X40800000Y8050000D01*
X39200000Y8050000D01*
X39069780Y8065638D01*
X38930439Y8120587D01*
X38811091Y8211091D01*
X38720587Y8330439D01*
X38665638Y8469780D01*
X38650000Y8600000D01*
X38650000Y9600000D01*
D12*
X-3442858Y-91656D02*
X-3557143Y-91656D01*
X-3500000Y-91656D02*
X-3500000Y108344D01*
X-3500000Y108344D02*
X-3519048Y79772D01*
X-3519048Y79772D02*
X-3538096Y60725D01*
X-3538096Y60725D02*
X-3557143Y51201D01*
D11*
X-3200000Y0D02*
G75*
G02*
X-3800000Y0I-300000J0D01*
G01*
X-3800000Y0D02*
G75*
G02*
X-3200000Y0I300000J0D01*
G01*
D12*
X-3361556Y658344D02*
X-3475841Y658344D01*
X-3418698Y658344D02*
X-3418698Y858344D01*
X-3418698Y858344D02*
X-3437746Y829772D01*
X-3437746Y829772D02*
X-3456794Y810725D01*
X-3456794Y810725D02*
X-3475841Y801201D01*
D11*
X-3118698Y750000D02*
G75*
G02*
X-3718698Y750000I-300000J0D01*
G01*
X-3718698Y750000D02*
G75*
G02*
X-3118698Y750000I300000J0D01*
G01*
D12*
X-3361556Y-841656D02*
X-3475841Y-841656D01*
X-3418698Y-841656D02*
X-3418698Y-641656D01*
X-3418698Y-641656D02*
X-3437746Y-670228D01*
X-3437746Y-670228D02*
X-3456794Y-689275D01*
X-3456794Y-689275D02*
X-3475841Y-698799D01*
D11*
X-3118698Y-750000D02*
G75*
G02*
X-3718698Y-750000I-300000J0D01*
G01*
X-3718698Y-750000D02*
G75*
G02*
X-3118698Y-750000I300000J0D01*
G01*
D13*
X590476Y-947123D02*
X-590476Y-947123D01*
X0Y-947123D02*
X0Y1119543D01*
X0Y1119543D02*
X-196825Y824305D01*
X-196825Y824305D02*
X-393650Y627479D01*
X-393650Y627479D02*
X-590476Y529067D01*
D11*
X3100000Y0D02*
G75*
G02*
X-3100000Y0I-3100000J0D01*
G01*
X-3100000Y0D02*
G75*
G02*
X3100000Y0I3100000J0D01*
G01*
D14*
X761904Y-1222095D02*
X-761905Y-1222095D01*
X-1Y-1222095D02*
X-1Y1444571D01*
X-1Y1444571D02*
X-253969Y1063619D01*
X-253969Y1063619D02*
X-507937Y809651D01*
X-507937Y809651D02*
X-761905Y682667D01*
D11*
X-4000000Y500000D02*
X-3984315Y676420D01*
X-3928653Y870950D01*
X-3834972Y1050293D01*
X-3707107Y1207107D01*
X-3550293Y1334972D01*
X-3370950Y1428653D01*
X-3176420Y1484315D01*
X-3000000Y1500000D01*
X3000000Y1500000D01*
X3176420Y1484315D01*
X3370950Y1428653D01*
X3550293Y1334972D01*
X3707107Y1207107D01*
X3834972Y1050293D01*
X3928653Y870950D01*
X3984315Y676420D01*
X4000000Y500000D01*
X4000000Y-500000D01*
X3984315Y-676420D01*
X3928653Y-870950D01*
X3834972Y-1050293D01*
X3707107Y-1207107D01*
X3550293Y-1334972D01*
X3370950Y-1428653D01*
X3176420Y-1484315D01*
X3000000Y-1500000D01*
X-3000000Y-1500000D01*
X-3176420Y-1484315D01*
X-3370950Y-1428653D01*
X-3550293Y-1334972D01*
X-3707107Y-1207107D01*
X-3834972Y-1050293D01*
X-3928653Y-870950D01*
X-3984315Y-676420D01*
X-4000000Y-500000D01*
X-4000000Y500000D01*
D12*
X3475840Y658344D02*
X3361555Y658344D01*
X3418698Y658344D02*
X3418698Y858344D01*
X3418698Y858344D02*
X3399650Y829772D01*
X3399650Y829772D02*
X3380602Y810725D01*
X3380602Y810725D02*
X3361555Y801201D01*
D11*
X3718698Y750000D02*
G75*
G02*
X3118698Y750000I-300000J0D01*
G01*
X3118698Y750000D02*
G75*
G02*
X3718698Y750000I300000J0D01*
G01*
D12*
X3475840Y-841656D02*
X3361555Y-841656D01*
X3418698Y-841656D02*
X3418698Y-641656D01*
X3418698Y-641656D02*
X3399650Y-670228D01*
X3399650Y-670228D02*
X3380602Y-689275D01*
X3380602Y-689275D02*
X3361555Y-698799D01*
D11*
X3718698Y-750000D02*
G75*
G02*
X3118698Y-750000I-300000J0D01*
G01*
X3118698Y-750000D02*
G75*
G02*
X3718698Y-750000I300000J0D01*
G01*
D12*
X3557142Y-91656D02*
X3442857Y-91656D01*
X3500000Y-91656D02*
X3500000Y108344D01*
X3500000Y108344D02*
X3480952Y79772D01*
X3480952Y79772D02*
X3461904Y60725D01*
X3461904Y60725D02*
X3442857Y51201D01*
D11*
X3800000Y0D02*
G75*
G02*
X3200000Y0I-300000J0D01*
G01*
X3200000Y0D02*
G75*
G02*
X3800000Y0I300000J0D01*
G01*
D12*
X18147142Y-91656D02*
X18032857Y-91656D01*
X18090000Y-91656D02*
X18090000Y108344D01*
X18090000Y108344D02*
X18070952Y79772D01*
X18070952Y79772D02*
X18051904Y60725D01*
X18051904Y60725D02*
X18032857Y51201D01*
D11*
X18390000Y0D02*
G75*
G02*
X17790000Y0I-300000J0D01*
G01*
X17790000Y0D02*
G75*
G02*
X18390000Y0I300000J0D01*
G01*
D12*
X18228444Y658344D02*
X18114159Y658344D01*
X18171302Y658344D02*
X18171302Y858344D01*
X18171302Y858344D02*
X18152254Y829772D01*
X18152254Y829772D02*
X18133206Y810725D01*
X18133206Y810725D02*
X18114159Y801201D01*
D11*
X18471302Y750000D02*
G75*
G02*
X17871302Y750000I-300000J0D01*
G01*
X17871302Y750000D02*
G75*
G02*
X18471302Y750000I300000J0D01*
G01*
D12*
X18228444Y-841656D02*
X18114159Y-841656D01*
X18171302Y-841656D02*
X18171302Y-641656D01*
X18171302Y-641656D02*
X18152254Y-670228D01*
X18152254Y-670228D02*
X18133206Y-689275D01*
X18133206Y-689275D02*
X18114159Y-698799D01*
D11*
X18471302Y-750000D02*
G75*
G02*
X17871302Y-750000I-300000J0D01*
G01*
X17871302Y-750000D02*
G75*
G02*
X18471302Y-750000I300000J0D01*
G01*
D13*
X22180476Y-947123D02*
X20999524Y-947123D01*
X21590000Y-947123D02*
X21590000Y1119543D01*
X21590000Y1119543D02*
X21393175Y824305D01*
X21393175Y824305D02*
X21196350Y627479D01*
X21196350Y627479D02*
X20999524Y529067D01*
D11*
X24690000Y0D02*
G75*
G02*
X18490000Y0I-3100000J0D01*
G01*
X18490000Y0D02*
G75*
G02*
X24690000Y0I3100000J0D01*
G01*
D14*
X22351904Y-1222095D02*
X20828095Y-1222095D01*
X21589999Y-1222095D02*
X21589999Y1444571D01*
X21589999Y1444571D02*
X21336031Y1063619D01*
X21336031Y1063619D02*
X21082063Y809651D01*
X21082063Y809651D02*
X20828095Y682667D01*
D11*
X17590000Y500000D02*
X17605685Y676420D01*
X17661347Y870950D01*
X17755028Y1050293D01*
X17882893Y1207107D01*
X18039707Y1334972D01*
X18219050Y1428653D01*
X18413580Y1484315D01*
X18590000Y1500000D01*
X24590000Y1500000D01*
X24766420Y1484315D01*
X24960950Y1428653D01*
X25140293Y1334972D01*
X25297107Y1207107D01*
X25424972Y1050293D01*
X25518653Y870950D01*
X25574315Y676420D01*
X25590000Y500000D01*
X25590000Y-500000D01*
X25574315Y-676420D01*
X25518653Y-870950D01*
X25424972Y-1050293D01*
X25297107Y-1207107D01*
X25140293Y-1334972D01*
X24960950Y-1428653D01*
X24766420Y-1484315D01*
X24590000Y-1500000D01*
X18590000Y-1500000D01*
X18413580Y-1484315D01*
X18219050Y-1428653D01*
X18039707Y-1334972D01*
X17882893Y-1207107D01*
X17755028Y-1050293D01*
X17661347Y-870950D01*
X17605685Y-676420D01*
X17590000Y-500000D01*
X17590000Y500000D01*
D12*
X25065840Y658344D02*
X24951555Y658344D01*
X25008698Y658344D02*
X25008698Y858344D01*
X25008698Y858344D02*
X24989650Y829772D01*
X24989650Y829772D02*
X24970602Y810725D01*
X24970602Y810725D02*
X24951555Y801201D01*
D11*
X25308698Y750000D02*
G75*
G02*
X24708698Y750000I-300000J0D01*
G01*
X24708698Y750000D02*
G75*
G02*
X25308698Y750000I300000J0D01*
G01*
D12*
X25065840Y-841656D02*
X24951555Y-841656D01*
X25008698Y-841656D02*
X25008698Y-641656D01*
X25008698Y-641656D02*
X24989650Y-670228D01*
X24989650Y-670228D02*
X24970602Y-689275D01*
X24970602Y-689275D02*
X24951555Y-698799D01*
D11*
X25308698Y-750000D02*
G75*
G02*
X24708698Y-750000I-300000J0D01*
G01*
X24708698Y-750000D02*
G75*
G02*
X25308698Y-750000I300000J0D01*
G01*
D12*
X25147142Y-91656D02*
X25032857Y-91656D01*
X25090000Y-91656D02*
X25090000Y108344D01*
X25090000Y108344D02*
X25070952Y79772D01*
X25070952Y79772D02*
X25051904Y60725D01*
X25051904Y60725D02*
X25032857Y51201D01*
D11*
X25390000Y0D02*
G75*
G02*
X24790000Y0I-300000J0D01*
G01*
X24790000Y0D02*
G75*
G02*
X25390000Y0I300000J0D01*
G01*
X-41350000Y9600000D02*
X-41334362Y9730220D01*
X-41279413Y9869561D01*
X-41188909Y9988909D01*
X-41069561Y10079413D01*
X-40930220Y10134362D01*
X-40800000Y10150000D01*
X-39200000Y10150000D01*
X-39069780Y10134362D01*
X-38930439Y10079413D01*
X-38811091Y9988909D01*
X-38720587Y9869561D01*
X-38665638Y9730220D01*
X-38650000Y9600000D01*
X-38650000Y8600000D01*
X-38665638Y8469780D01*
X-38720587Y8330439D01*
X-38811091Y8211091D01*
X-38930439Y8120587D01*
X-39069780Y8065638D01*
X-39200000Y8050000D01*
X-40800000Y8050000D01*
X-40930220Y8065638D01*
X-41069561Y8120587D01*
X-41188909Y8211091D01*
X-41279413Y8330439D01*
X-41334362Y8469780D01*
X-41350000Y8600000D01*
X-41350000Y9600000D01*
D12*
X-14872858Y-91656D02*
X-14987143Y-91656D01*
X-14930000Y-91656D02*
X-14930000Y108344D01*
X-14930000Y108344D02*
X-14949048Y79772D01*
X-14949048Y79772D02*
X-14968096Y60725D01*
X-14968096Y60725D02*
X-14987143Y51201D01*
D11*
X-14630000Y0D02*
G75*
G02*
X-15230000Y0I-300000J0D01*
G01*
X-15230000Y0D02*
G75*
G02*
X-14630000Y0I300000J0D01*
G01*
D12*
X-14791556Y658344D02*
X-14905841Y658344D01*
X-14848698Y658344D02*
X-14848698Y858344D01*
X-14848698Y858344D02*
X-14867746Y829772D01*
X-14867746Y829772D02*
X-14886794Y810725D01*
X-14886794Y810725D02*
X-14905841Y801201D01*
D11*
X-14548698Y750000D02*
G75*
G02*
X-15148698Y750000I-300000J0D01*
G01*
X-15148698Y750000D02*
G75*
G02*
X-14548698Y750000I300000J0D01*
G01*
D12*
X-14791556Y-841656D02*
X-14905841Y-841656D01*
X-14848698Y-841656D02*
X-14848698Y-641656D01*
X-14848698Y-641656D02*
X-14867746Y-670228D01*
X-14867746Y-670228D02*
X-14886794Y-689275D01*
X-14886794Y-689275D02*
X-14905841Y-698799D01*
D11*
X-14548698Y-750000D02*
G75*
G02*
X-15148698Y-750000I-300000J0D01*
G01*
X-15148698Y-750000D02*
G75*
G02*
X-14548698Y-750000I300000J0D01*
G01*
D13*
X-10839524Y-947123D02*
X-12020476Y-947123D01*
X-11430000Y-947123D02*
X-11430000Y1119543D01*
X-11430000Y1119543D02*
X-11626825Y824305D01*
X-11626825Y824305D02*
X-11823650Y627479D01*
X-11823650Y627479D02*
X-12020476Y529067D01*
D11*
X-8330000Y0D02*
G75*
G02*
X-14530000Y0I-3100000J0D01*
G01*
X-14530000Y0D02*
G75*
G02*
X-8330000Y0I3100000J0D01*
G01*
D14*
X-10668096Y-1222095D02*
X-12191905Y-1222095D01*
X-11430001Y-1222095D02*
X-11430001Y1444571D01*
X-11430001Y1444571D02*
X-11683969Y1063619D01*
X-11683969Y1063619D02*
X-11937937Y809651D01*
X-11937937Y809651D02*
X-12191905Y682667D01*
D11*
X-15430000Y500000D02*
X-15414315Y676420D01*
X-15358653Y870950D01*
X-15264972Y1050293D01*
X-15137107Y1207107D01*
X-14980293Y1334972D01*
X-14800950Y1428653D01*
X-14606420Y1484315D01*
X-14430000Y1500000D01*
X-8430000Y1500000D01*
X-8253580Y1484315D01*
X-8059050Y1428653D01*
X-7879707Y1334972D01*
X-7722893Y1207107D01*
X-7595028Y1050293D01*
X-7501347Y870950D01*
X-7445685Y676420D01*
X-7430000Y500000D01*
X-7430000Y-500000D01*
X-7445685Y-676420D01*
X-7501347Y-870950D01*
X-7595028Y-1050293D01*
X-7722893Y-1207107D01*
X-7879707Y-1334972D01*
X-8059050Y-1428653D01*
X-8253580Y-1484315D01*
X-8430000Y-1500000D01*
X-14430000Y-1500000D01*
X-14606420Y-1484315D01*
X-14800950Y-1428653D01*
X-14980293Y-1334972D01*
X-15137107Y-1207107D01*
X-15264972Y-1050293D01*
X-15358653Y-870950D01*
X-15414315Y-676420D01*
X-15430000Y-500000D01*
X-15430000Y500000D01*
D12*
X-7954160Y658344D02*
X-8068445Y658344D01*
X-8011302Y658344D02*
X-8011302Y858344D01*
X-8011302Y858344D02*
X-8030350Y829772D01*
X-8030350Y829772D02*
X-8049398Y810725D01*
X-8049398Y810725D02*
X-8068445Y801201D01*
D11*
X-7711302Y750000D02*
G75*
G02*
X-8311302Y750000I-300000J0D01*
G01*
X-8311302Y750000D02*
G75*
G02*
X-7711302Y750000I300000J0D01*
G01*
D12*
X-7954160Y-841656D02*
X-8068445Y-841656D01*
X-8011302Y-841656D02*
X-8011302Y-641656D01*
X-8011302Y-641656D02*
X-8030350Y-670228D01*
X-8030350Y-670228D02*
X-8049398Y-689275D01*
X-8049398Y-689275D02*
X-8068445Y-698799D01*
D11*
X-7711302Y-750000D02*
G75*
G02*
X-8311302Y-750000I-300000J0D01*
G01*
X-8311302Y-750000D02*
G75*
G02*
X-7711302Y-750000I300000J0D01*
G01*
D12*
X-7872858Y-91656D02*
X-7987143Y-91656D01*
X-7930000Y-91656D02*
X-7930000Y108344D01*
X-7930000Y108344D02*
X-7949048Y79772D01*
X-7949048Y79772D02*
X-7968096Y60725D01*
X-7968096Y60725D02*
X-7987143Y51201D01*
D11*
X-7630000Y0D02*
G75*
G02*
X-8230000Y0I-300000J0D01*
G01*
X-8230000Y0D02*
G75*
G02*
X-7630000Y0I300000J0D01*
G01*
D12*
X7987142Y-91656D02*
X7872857Y-91656D01*
X7930000Y-91656D02*
X7930000Y108344D01*
X7930000Y108344D02*
X7910952Y79772D01*
X7910952Y79772D02*
X7891904Y60725D01*
X7891904Y60725D02*
X7872857Y51201D01*
D11*
X8230000Y0D02*
G75*
G02*
X7630000Y0I-300000J0D01*
G01*
X7630000Y0D02*
G75*
G02*
X8230000Y0I300000J0D01*
G01*
D12*
X8068444Y658344D02*
X7954159Y658344D01*
X8011302Y658344D02*
X8011302Y858344D01*
X8011302Y858344D02*
X7992254Y829772D01*
X7992254Y829772D02*
X7973206Y810725D01*
X7973206Y810725D02*
X7954159Y801201D01*
D11*
X8311302Y750000D02*
G75*
G02*
X7711302Y750000I-300000J0D01*
G01*
X7711302Y750000D02*
G75*
G02*
X8311302Y750000I300000J0D01*
G01*
D12*
X8068444Y-841656D02*
X7954159Y-841656D01*
X8011302Y-841656D02*
X8011302Y-641656D01*
X8011302Y-641656D02*
X7992254Y-670228D01*
X7992254Y-670228D02*
X7973206Y-689275D01*
X7973206Y-689275D02*
X7954159Y-698799D01*
D11*
X8311302Y-750000D02*
G75*
G02*
X7711302Y-750000I-300000J0D01*
G01*
X7711302Y-750000D02*
G75*
G02*
X8311302Y-750000I300000J0D01*
G01*
D13*
X12020476Y-947123D02*
X10839524Y-947123D01*
X11430000Y-947123D02*
X11430000Y1119543D01*
X11430000Y1119543D02*
X11233175Y824305D01*
X11233175Y824305D02*
X11036350Y627479D01*
X11036350Y627479D02*
X10839524Y529067D01*
D11*
X14530000Y0D02*
G75*
G02*
X8330000Y0I-3100000J0D01*
G01*
X8330000Y0D02*
G75*
G02*
X14530000Y0I3100000J0D01*
G01*
D14*
X12191904Y-1222095D02*
X10668095Y-1222095D01*
X11429999Y-1222095D02*
X11429999Y1444571D01*
X11429999Y1444571D02*
X11176031Y1063619D01*
X11176031Y1063619D02*
X10922063Y809651D01*
X10922063Y809651D02*
X10668095Y682667D01*
D11*
X7430000Y500000D02*
X7445685Y676420D01*
X7501347Y870950D01*
X7595028Y1050293D01*
X7722893Y1207107D01*
X7879707Y1334972D01*
X8059050Y1428653D01*
X8253580Y1484315D01*
X8430000Y1500000D01*
X14430000Y1500000D01*
X14606420Y1484315D01*
X14800950Y1428653D01*
X14980293Y1334972D01*
X15137107Y1207107D01*
X15264972Y1050293D01*
X15358653Y870950D01*
X15414315Y676420D01*
X15430000Y500000D01*
X15430000Y-500000D01*
X15414315Y-676420D01*
X15358653Y-870950D01*
X15264972Y-1050293D01*
X15137107Y-1207107D01*
X14980293Y-1334972D01*
X14800950Y-1428653D01*
X14606420Y-1484315D01*
X14430000Y-1500000D01*
X8430000Y-1500000D01*
X8253580Y-1484315D01*
X8059050Y-1428653D01*
X7879707Y-1334972D01*
X7722893Y-1207107D01*
X7595028Y-1050293D01*
X7501347Y-870950D01*
X7445685Y-676420D01*
X7430000Y-500000D01*
X7430000Y500000D01*
D12*
X14905840Y658344D02*
X14791555Y658344D01*
X14848698Y658344D02*
X14848698Y858344D01*
X14848698Y858344D02*
X14829650Y829772D01*
X14829650Y829772D02*
X14810602Y810725D01*
X14810602Y810725D02*
X14791555Y801201D01*
D11*
X15148698Y750000D02*
G75*
G02*
X14548698Y750000I-300000J0D01*
G01*
X14548698Y750000D02*
G75*
G02*
X15148698Y750000I300000J0D01*
G01*
D12*
X14905840Y-841656D02*
X14791555Y-841656D01*
X14848698Y-841656D02*
X14848698Y-641656D01*
X14848698Y-641656D02*
X14829650Y-670228D01*
X14829650Y-670228D02*
X14810602Y-689275D01*
X14810602Y-689275D02*
X14791555Y-698799D01*
D11*
X15148698Y-750000D02*
G75*
G02*
X14548698Y-750000I-300000J0D01*
G01*
X14548698Y-750000D02*
G75*
G02*
X15148698Y-750000I300000J0D01*
G01*
D12*
X14987142Y-91656D02*
X14872857Y-91656D01*
X14930000Y-91656D02*
X14930000Y108344D01*
X14930000Y108344D02*
X14910952Y79772D01*
X14910952Y79772D02*
X14891904Y60725D01*
X14891904Y60725D02*
X14872857Y51201D01*
D11*
X15230000Y0D02*
G75*
G02*
X14630000Y0I-300000J0D01*
G01*
X14630000Y0D02*
G75*
G02*
X15230000Y0I300000J0D01*
G01*
D15*
X30476190Y5836191D02*
X29523810Y5836191D01*
X30000000Y5836191D02*
X30000000Y7502857D01*
X30000000Y7502857D02*
X29841270Y7264762D01*
X29841270Y7264762D02*
X29682540Y7106032D01*
X29682540Y7106032D02*
X29523810Y7026667D01*
D11*
X32500000Y6600000D02*
G75*
G02*
X27500000Y6600000I-2500000J0D01*
G01*
X27500000Y6600000D02*
G75*
G02*
X32500000Y6600000I2500000J0D01*
G01*
D15*
X-29523810Y-36163809D02*
X-30476190Y-36163809D01*
X-30000000Y-36163809D02*
X-30000000Y-34497143D01*
X-30000000Y-34497143D02*
X-30158730Y-34735238D01*
X-30158730Y-34735238D02*
X-30317460Y-34893968D01*
X-30317460Y-34893968D02*
X-30476190Y-34973333D01*
D11*
X-27500000Y-35400000D02*
G75*
G02*
X-32500000Y-35400000I-2500000J0D01*
G01*
X-32500000Y-35400000D02*
G75*
G02*
X-27500000Y-35400000I2500000J0D01*
G01*
D15*
X30476190Y-36163809D02*
X29523810Y-36163809D01*
X30000000Y-36163809D02*
X30000000Y-34497143D01*
X30000000Y-34497143D02*
X29841270Y-34735238D01*
X29841270Y-34735238D02*
X29682540Y-34893968D01*
X29682540Y-34893968D02*
X29523810Y-34973333D01*
D11*
X32500000Y-35400000D02*
G75*
G02*
X27500000Y-35400000I-2500000J0D01*
G01*
X27500000Y-35400000D02*
G75*
G02*
X32500000Y-35400000I2500000J0D01*
G01*
D15*
X-29523810Y5836191D02*
X-30476190Y5836191D01*
X-30000000Y5836191D02*
X-30000000Y7502857D01*
X-30000000Y7502857D02*
X-30158730Y7264762D01*
X-30158730Y7264762D02*
X-30317460Y7106032D01*
X-30317460Y7106032D02*
X-30476190Y7026667D01*
D11*
X-27500000Y6600000D02*
G75*
G02*
X-32500000Y6600000I-2500000J0D01*
G01*
X-32500000Y6600000D02*
G75*
G02*
X-27500000Y6600000I2500000J0D01*
G01*
D12*
X-25032858Y-91656D02*
X-25147143Y-91656D01*
X-25090000Y-91656D02*
X-25090000Y108344D01*
X-25090000Y108344D02*
X-25109048Y79772D01*
X-25109048Y79772D02*
X-25128096Y60725D01*
X-25128096Y60725D02*
X-25147143Y51201D01*
D11*
X-24790000Y0D02*
G75*
G02*
X-25390000Y0I-300000J0D01*
G01*
X-25390000Y0D02*
G75*
G02*
X-24790000Y0I300000J0D01*
G01*
D12*
X-24951556Y658344D02*
X-25065841Y658344D01*
X-25008698Y658344D02*
X-25008698Y858344D01*
X-25008698Y858344D02*
X-25027746Y829772D01*
X-25027746Y829772D02*
X-25046794Y810725D01*
X-25046794Y810725D02*
X-25065841Y801201D01*
D11*
X-24708698Y750000D02*
G75*
G02*
X-25308698Y750000I-300000J0D01*
G01*
X-25308698Y750000D02*
G75*
G02*
X-24708698Y750000I300000J0D01*
G01*
D12*
X-24951556Y-841656D02*
X-25065841Y-841656D01*
X-25008698Y-841656D02*
X-25008698Y-641656D01*
X-25008698Y-641656D02*
X-25027746Y-670228D01*
X-25027746Y-670228D02*
X-25046794Y-689275D01*
X-25046794Y-689275D02*
X-25065841Y-698799D01*
D11*
X-24708698Y-750000D02*
G75*
G02*
X-25308698Y-750000I-300000J0D01*
G01*
X-25308698Y-750000D02*
G75*
G02*
X-24708698Y-750000I300000J0D01*
G01*
D13*
X-20999524Y-947123D02*
X-22180476Y-947123D01*
X-21590000Y-947123D02*
X-21590000Y1119543D01*
X-21590000Y1119543D02*
X-21786825Y824305D01*
X-21786825Y824305D02*
X-21983650Y627479D01*
X-21983650Y627479D02*
X-22180476Y529067D01*
D11*
X-18490000Y0D02*
G75*
G02*
X-24690000Y0I-3100000J0D01*
G01*
X-24690000Y0D02*
G75*
G02*
X-18490000Y0I3100000J0D01*
G01*
D14*
X-20828096Y-1222095D02*
X-22351905Y-1222095D01*
X-21590001Y-1222095D02*
X-21590001Y1444571D01*
X-21590001Y1444571D02*
X-21843969Y1063619D01*
X-21843969Y1063619D02*
X-22097937Y809651D01*
X-22097937Y809651D02*
X-22351905Y682667D01*
D11*
X-25590000Y500000D02*
X-25574315Y676420D01*
X-25518653Y870950D01*
X-25424972Y1050293D01*
X-25297107Y1207107D01*
X-25140293Y1334972D01*
X-24960950Y1428653D01*
X-24766420Y1484315D01*
X-24590000Y1500000D01*
X-18590000Y1500000D01*
X-18413580Y1484315D01*
X-18219050Y1428653D01*
X-18039707Y1334972D01*
X-17882893Y1207107D01*
X-17755028Y1050293D01*
X-17661347Y870950D01*
X-17605685Y676420D01*
X-17590000Y500000D01*
X-17590000Y-500000D01*
X-17605685Y-676420D01*
X-17661347Y-870950D01*
X-17755028Y-1050293D01*
X-17882893Y-1207107D01*
X-18039707Y-1334972D01*
X-18219050Y-1428653D01*
X-18413580Y-1484315D01*
X-18590000Y-1500000D01*
X-24590000Y-1500000D01*
X-24766420Y-1484315D01*
X-24960950Y-1428653D01*
X-25140293Y-1334972D01*
X-25297107Y-1207107D01*
X-25424972Y-1050293D01*
X-25518653Y-870950D01*
X-25574315Y-676420D01*
X-25590000Y-500000D01*
X-25590000Y500000D01*
D12*
X-18114160Y658344D02*
X-18228445Y658344D01*
X-18171302Y658344D02*
X-18171302Y858344D01*
X-18171302Y858344D02*
X-18190350Y829772D01*
X-18190350Y829772D02*
X-18209398Y810725D01*
X-18209398Y810725D02*
X-18228445Y801201D01*
D11*
X-17871302Y750000D02*
G75*
G02*
X-18471302Y750000I-300000J0D01*
G01*
X-18471302Y750000D02*
G75*
G02*
X-17871302Y750000I300000J0D01*
G01*
D12*
X-18114160Y-841656D02*
X-18228445Y-841656D01*
X-18171302Y-841656D02*
X-18171302Y-641656D01*
X-18171302Y-641656D02*
X-18190350Y-670228D01*
X-18190350Y-670228D02*
X-18209398Y-689275D01*
X-18209398Y-689275D02*
X-18228445Y-698799D01*
D11*
X-17871302Y-750000D02*
G75*
G02*
X-18471302Y-750000I-300000J0D01*
G01*
X-18471302Y-750000D02*
G75*
G02*
X-17871302Y-750000I300000J0D01*
G01*
D12*
X-18032858Y-91656D02*
X-18147143Y-91656D01*
X-18090000Y-91656D02*
X-18090000Y108344D01*
X-18090000Y108344D02*
X-18109048Y79772D01*
X-18109048Y79772D02*
X-18128096Y60725D01*
X-18128096Y60725D02*
X-18147143Y51201D01*
D11*
X-17790000Y0D02*
G75*
G02*
X-18390000Y0I-300000J0D01*
G01*
X-18390000Y0D02*
G75*
G02*
X-17790000Y0I300000J0D01*
G01*
X-31600000Y-25150000D02*
X-25550000Y-25150000D01*
X-25550000Y-20250000D01*
X-31600000Y-20250000D01*
X-31600000Y-14150000D01*
X-24150000Y-14150000D01*
X-24150000Y-20250000D01*
X-25050000Y-20250000D01*
X-25050000Y-25150000D01*
X-24150000Y-25150000D01*
X-24150000Y-31250000D01*
X-31600000Y-31250000D01*
X-31600000Y-25150000D01*
D16*
X28584524Y-29338075D02*
X27165476Y-29338075D01*
X27875000Y-29338075D02*
X27875000Y-26854742D01*
X27875000Y-26854742D02*
X27638492Y-27209504D01*
X27638492Y-27209504D02*
X27401984Y-27446012D01*
X27401984Y-27446012D02*
X27165476Y-27564266D01*
D11*
X31600000Y-31250000D02*
X24150000Y-31250000D01*
X24150000Y-25150000D01*
X31600000Y-25150000D01*
X31600000Y-31250000D01*
D16*
X27165476Y-16091250D02*
X27283730Y-15972996D01*
X27283730Y-15972996D02*
X27520238Y-15854742D01*
X27520238Y-15854742D02*
X28111508Y-15854742D01*
X28111508Y-15854742D02*
X28348016Y-15972996D01*
X28348016Y-15972996D02*
X28466270Y-16091250D01*
X28466270Y-16091250D02*
X28584524Y-16327758D01*
X28584524Y-16327758D02*
X28584524Y-16564266D01*
X28584524Y-16564266D02*
X28466270Y-16919028D01*
X28466270Y-16919028D02*
X27047222Y-18338075D01*
X27047222Y-18338075D02*
X28584524Y-18338075D01*
D11*
X31600000Y-20250000D02*
X24150000Y-20250000D01*
X24150000Y-14150000D01*
X31600000Y-14150000D01*
X31600000Y-20250000D01*
X-31600000Y-11625000D02*
X31600000Y-34050000D01*
X31600000Y-11625000D02*
X-31600000Y-34050000D01*
M02*
