%TF.GenerationSoftware,KiCad,Pcbnew,9.0.6*%
%TF.CreationDate,2026-02-02T17:11:22+00:00*%
%TF.ProjectId,custom_paste,63757374-6f6d-45f7-9061-7374652e6b69,v0.8*%
%TF.SameCoordinates,PX636f40fPY2cfad2f*%
%TF.FileFunction,Paste,Top*%
%TF.FilePolarity,Positive*%
%FSLAX46Y46*%
G04 Gerber Fmt 4.6, Leading zero omitted, Abs format (unit mm)*
G04 Created by KiCad (PCBNEW 9.0.6) date 2026-02-02 17:11:22*
%MOMM*%
%LPD*%
G01*
G04 APERTURE LIST*
G04 Aperture macros list*
%AMRoundRect*
0 Rectangle with rounded corners*
0 $1 Rounding radius*
0 $2 $3 $4 $5 $6 $7 $8 $9 X,Y pos of 4 corners*
0 Add a 4 corners polygon primitive as box body*
4,1,4,$2,$3,$4,$5,$6,$7,$8,$9,$2,$3,0*
0 Add four circle primitives for the rounded corners*
1,1,$1+$1,$2,$3*
1,1,$1+$1,$4,$5*
1,1,$1+$1,$6,$7*
1,1,$1+$1,$8,$9*
0 Add four rect primitives between the rounded corners*
20,1,$1+$1,$2,$3,$4,$5,0*
20,1,$1+$1,$4,$5,$6,$7,0*
20,1,$1+$1,$6,$7,$8,$9,0*
20,1,$1+$1,$8,$9,$2,$3,0*%
G04 Aperture macros list end*
%ADD10RoundRect,0.162500X0.162500X-0.587500X0.162500X0.587500X-0.162500X0.587500X-0.162500X-0.587500X0*%
%ADD11RoundRect,0.301886X-0.598114X0.498114X-0.598114X-0.498114X0.598114X-0.498114X0.598114X0.498114X0*%
%ADD12C,1.000000*%
%ADD13RoundRect,0.307693X0.567307X-0.492307X0.567307X0.492307X-0.567307X0.492307X-0.567307X-0.492307X0*%
%ADD14RoundRect,0.250000X-0.400000X0.725000X-0.400000X-0.725000X0.400000X-0.725000X0.400000X0.725000X0*%
%ADD15RoundRect,0.250000X-0.800000X-0.450000X0.800000X-0.450000X0.800000X0.450000X-0.800000X0.450000X0*%
%ADD16RoundRect,0.301886X0.598114X-0.498114X0.598114X0.498114X-0.598114X0.498114X-0.598114X-0.498114X0*%
%ADD17RoundRect,0.250000X0.375000X-1.025000X0.375000X1.025000X-0.375000X1.025000X-0.375000X-1.025000X0*%
%ADD18R,0.533400X2.010100*%
%ADD19RoundRect,0.250001X1.849999X-0.499999X1.849999X0.499999X-1.849999X0.499999X-1.849999X-0.499999X0*%
%ADD20RoundRect,0.300000X1.750000X-0.300000X1.750000X0.300000X-1.750000X0.300000X-1.750000X-0.300000X0*%
%ADD21RoundRect,0.301886X-0.498114X-0.598114X0.498114X-0.598114X0.498114X0.598114X-0.498114X0.598114X0*%
%ADD22RoundRect,0.307693X-0.567307X0.492307X-0.567307X-0.492307X0.567307X-0.492307X0.567307X0.492307X0*%
%ADD23RoundRect,0.250000X-0.250000X-0.875000X0.250000X-0.875000X0.250000X0.875000X-0.250000X0.875000X0*%
G04 APERTURE END LIST*
D10*
%TO.C,Q1*%
X21050000Y-24355000D03*
X22937500Y-24355000D03*
X22000000Y-21445000D03*
%TD*%
D11*
%TO.C,C7*%
X13500000Y-28950000D03*
X13500000Y-32350000D03*
%TD*%
D12*
%TO.C,CN3*%
X-2600000Y0D03*
X-2251666Y1300000D03*
X-2251666Y-1300000D03*
X-1300000Y2251666D03*
X-1300000Y-2251666D03*
X0Y2600000D03*
X0Y-2600000D03*
X1300000Y2251666D03*
X1300000Y-2251666D03*
X2251666Y1300000D03*
X2251666Y-1300000D03*
X2600000Y0D03*
%TD*%
D13*
%TO.C,R9*%
X-21600000Y-12900000D03*
X-21600000Y-9500000D03*
%TD*%
D14*
%TO.C,D6*%
X21850000Y-9660281D03*
X21850000Y-13210281D03*
%TD*%
D12*
%TO.C,CN5*%
X18990000Y0D03*
X19338334Y1300000D03*
X19338334Y-1300000D03*
X20290000Y2251666D03*
X20290000Y-2251666D03*
X21590000Y2600000D03*
X21590000Y-2600000D03*
X22890000Y2251666D03*
X22890000Y-2251666D03*
X23841666Y1300000D03*
X23841666Y-1300000D03*
X24190000Y0D03*
%TD*%
D15*
%TO.C,S1*%
X-52550000Y-12650000D03*
X-52550000Y-17150000D03*
X-43450000Y-12650000D03*
X-43450000Y-17150000D03*
%TD*%
D16*
%TO.C,C1*%
X-26100000Y-32100000D03*
X-26100000Y-28700000D03*
%TD*%
D12*
%TO.C,CN2*%
X-14030000Y0D03*
X-13681666Y1300000D03*
X-13681666Y-1300000D03*
X-12730000Y2251666D03*
X-12730000Y-2251666D03*
X-11430000Y2600000D03*
X-11430000Y-2600000D03*
X-10130000Y2251666D03*
X-10130000Y-2251666D03*
X-9178334Y1300000D03*
X-9178334Y-1300000D03*
X-8830000Y0D03*
%TD*%
D17*
%TO.C,D1*%
X-17625000Y-14175000D03*
X-14375000Y-14175000D03*
X-14375000Y-8225000D03*
X-17625000Y-8225000D03*
%TD*%
D12*
%TO.C,CN4*%
X8830000Y0D03*
X9178334Y1300000D03*
X9178334Y-1300000D03*
X10130000Y2251666D03*
X10130000Y-2251666D03*
X11430000Y2600000D03*
X11430000Y-2600000D03*
X12730000Y2251666D03*
X12730000Y-2251666D03*
X13681666Y1300000D03*
X13681666Y-1300000D03*
X14030000Y0D03*
%TD*%
D18*
%TO.C,U1*%
X-21563519Y-33144950D03*
X-20293519Y-33144950D03*
X-19023519Y-33144950D03*
X-17753519Y-33144950D03*
X-16483519Y-33144950D03*
X-15213519Y-33144950D03*
X-13943519Y-33144950D03*
X-12673519Y-33144950D03*
X-12673519Y-27655050D03*
X-13943519Y-27655050D03*
X-15213519Y-27655050D03*
X-16483519Y-27655050D03*
X-17753519Y-27655050D03*
X-19023519Y-27655050D03*
X-20293519Y-27655050D03*
X-21563519Y-27655050D03*
%TD*%
D19*
%TO.C,J2*%
X35035281Y-5685281D03*
X35035281Y1014719D03*
D20*
X28585281Y-3385281D03*
X28585281Y-1285281D03*
%TD*%
D21*
%TO.C,C2*%
X-17700000Y-18200000D03*
X-14300000Y-18200000D03*
%TD*%
D10*
%TO.C,U2*%
X21050000Y-32130000D03*
X22000000Y-32130000D03*
X22950000Y-32130000D03*
X22950000Y-29175000D03*
X21050000Y-29170000D03*
%TD*%
D13*
%TO.C,R10*%
X25600000Y-13135281D03*
X25600000Y-9735281D03*
%TD*%
D11*
%TO.C,C8*%
X17500000Y-28950000D03*
X17500000Y-32350000D03*
%TD*%
D22*
%TO.C,R1*%
X-53514719Y-21185281D03*
X-53514719Y-24585281D03*
%TD*%
D23*
%TO.C,SW1*%
X-2500000Y-27025000D03*
X0Y-27025000D03*
X2500000Y-27025000D03*
X-2500000Y-33775000D03*
X0Y-33775000D03*
X2500000Y-33775000D03*
%TD*%
D12*
%TO.C,CN1*%
X-24190000Y0D03*
X-23841666Y1300000D03*
X-23841666Y-1300000D03*
X-22890000Y2251666D03*
X-22890000Y-2251666D03*
X-21590000Y2600000D03*
X-21590000Y-2600000D03*
X-20290000Y2251666D03*
X-20290000Y-2251666D03*
X-19338334Y1300000D03*
X-19338334Y-1300000D03*
X-18990000Y0D03*
%TD*%
M02*
