%TF.GenerationSoftware,KiCad,Pcbnew,9.0.0*%
%TF.CreationDate,2025-06-19T17:55:55+01:00*%
%TF.ProjectId,solderbit-gamepad,736f6c64-6572-4626-9974-2d67616d6570,v0.7*%
%TF.SameCoordinates,Original*%
%TF.FileFunction,Legend,Top*%
%TF.FilePolarity,Positive*%
%FSLAX46Y46*%
G04 Gerber Fmt 4.6, Leading zero omitted, Abs format (unit mm)*
G04 Created by KiCad (PCBNEW 9.0.0) date 2025-06-19 17:55:55*
%MOMM*%
%LPD*%
G01*
G04 APERTURE LIST*
%ADD10C,0.500000*%
%ADD11C,0.200000*%
%ADD12C,0.150000*%
%ADD13C,0.180000*%
%ADD14C,0.120000*%
%ADD15C,0.152400*%
G04 APERTURE END LIST*
D10*
G36*
X87662657Y-70025082D02*
G01*
X87662657Y-69586514D01*
X87797696Y-69658138D01*
X87928271Y-69707261D01*
X88059498Y-69737422D01*
X88178467Y-69746951D01*
X88313481Y-69736063D01*
X88404697Y-69708177D01*
X88452196Y-69676442D01*
X88478636Y-69637877D01*
X88487587Y-69590177D01*
X88478184Y-69543395D01*
X88450034Y-69505150D01*
X88408602Y-69474154D01*
X88353558Y-69445616D01*
X88224568Y-69399668D01*
X88089624Y-69353720D01*
X87905983Y-69269609D01*
X87831916Y-69220000D01*
X87772718Y-69164890D01*
X87725535Y-69100997D01*
X87690744Y-69027198D01*
X87670145Y-68944697D01*
X87662657Y-68841726D01*
X87679338Y-68702988D01*
X87726618Y-68590003D01*
X87801158Y-68494323D01*
X87897435Y-68417354D01*
X88010278Y-68359670D01*
X88141678Y-68318588D01*
X88281077Y-68295101D01*
X88427747Y-68287142D01*
X88663442Y-68305155D01*
X88899136Y-68357362D01*
X88899136Y-68775628D01*
X88793244Y-68722588D01*
X88679623Y-68684647D01*
X88562785Y-68661735D01*
X88450034Y-68654269D01*
X88350047Y-68663581D01*
X88267158Y-68690448D01*
X88210829Y-68735938D01*
X88195521Y-68765525D01*
X88190374Y-68799136D01*
X88198120Y-68843567D01*
X88221057Y-68880805D01*
X88301352Y-68939576D01*
X88411566Y-68983692D01*
X88532008Y-69023687D01*
X88726639Y-69105355D01*
X88808753Y-69154255D01*
X88876086Y-69209159D01*
X88931206Y-69273771D01*
X88971798Y-69348682D01*
X88996230Y-69433344D01*
X89005076Y-69539192D01*
X88987419Y-69685777D01*
X88937604Y-69803737D01*
X88859258Y-69902959D01*
X88758238Y-69982340D01*
X88639849Y-70041035D01*
X88500257Y-70082632D01*
X88352467Y-70106120D01*
X88197243Y-70114078D01*
X88006401Y-70103846D01*
X87828752Y-70073929D01*
X87662657Y-70025082D01*
G37*
G36*
X90389538Y-68304073D02*
G01*
X90571704Y-68351805D01*
X90725746Y-68427580D01*
X90856284Y-68531232D01*
X90962945Y-68660583D01*
X91039651Y-68808651D01*
X91087219Y-68979070D01*
X91103886Y-69176796D01*
X91086388Y-69391434D01*
X91036828Y-69573591D01*
X90957635Y-69729113D01*
X90848499Y-69862356D01*
X90713889Y-69969465D01*
X90555800Y-70047592D01*
X90369642Y-70096694D01*
X90149354Y-70114078D01*
X89932125Y-70097162D01*
X89748922Y-70049443D01*
X89593730Y-69973658D01*
X89461963Y-69869988D01*
X89354838Y-69740607D01*
X89277284Y-69590061D01*
X89228845Y-69414216D01*
X89211767Y-69207479D01*
X89212340Y-69200610D01*
X89759939Y-69200610D01*
X89774112Y-69369981D01*
X89811852Y-69494256D01*
X89868601Y-69584156D01*
X89943751Y-69647174D01*
X90040746Y-69686584D01*
X90166451Y-69700850D01*
X90284222Y-69686751D01*
X90375973Y-69647509D01*
X90447977Y-69583990D01*
X90503060Y-69492128D01*
X90540059Y-69363634D01*
X90554034Y-69187024D01*
X90540329Y-69021878D01*
X90503868Y-68900858D01*
X90449125Y-68813467D01*
X90376772Y-68752333D01*
X90283564Y-68714170D01*
X90162940Y-68700370D01*
X90041645Y-68715777D01*
X89944488Y-68759324D01*
X89865727Y-68831040D01*
X89809672Y-68923822D01*
X89773296Y-69044428D01*
X89759939Y-69200610D01*
X89212340Y-69200610D01*
X89229591Y-68993881D01*
X89279968Y-68813815D01*
X89360381Y-68661107D01*
X89471275Y-68531232D01*
X89607539Y-68427451D01*
X89766777Y-68351634D01*
X89953406Y-68303989D01*
X90173168Y-68287142D01*
X90389538Y-68304073D01*
G37*
G36*
X91995067Y-70075000D02*
G01*
X91455443Y-70075000D01*
X91455443Y-67486025D01*
X91995067Y-67486025D01*
X91995067Y-70075000D01*
G37*
G36*
X94160737Y-70075000D02*
G01*
X93621113Y-70075000D01*
X93621113Y-69830757D01*
X93614244Y-69830757D01*
X93532806Y-69933555D01*
X93439863Y-70011584D01*
X93334074Y-70067471D01*
X93212925Y-70102008D01*
X93072941Y-70114078D01*
X92913196Y-70098921D01*
X92774568Y-70055356D01*
X92652856Y-69984209D01*
X92545224Y-69883574D01*
X92461646Y-69763889D01*
X92399401Y-69620053D01*
X92359633Y-69447296D01*
X92345403Y-69239689D01*
X92346485Y-69224424D01*
X92893575Y-69224424D01*
X92905937Y-69374249D01*
X92939468Y-69489258D01*
X92990814Y-69577049D01*
X93063416Y-69645374D01*
X93151716Y-69686432D01*
X93260703Y-69700850D01*
X93363747Y-69686202D01*
X93451509Y-69643444D01*
X93527996Y-69570333D01*
X93583568Y-69478012D01*
X93618724Y-69364514D01*
X93631341Y-69224424D01*
X93631341Y-69093754D01*
X93619744Y-68984456D01*
X93586574Y-68891818D01*
X93532270Y-68812264D01*
X93459889Y-68750288D01*
X93375242Y-68713235D01*
X93274441Y-68700370D01*
X93162014Y-68716411D01*
X93070363Y-68762484D01*
X92994325Y-68840352D01*
X92940928Y-68938607D01*
X92906257Y-69064260D01*
X92893575Y-69224424D01*
X92346485Y-69224424D01*
X92360682Y-69024044D01*
X92403890Y-68840076D01*
X92472442Y-68682582D01*
X92565679Y-68547413D01*
X92684744Y-68433255D01*
X92818402Y-68353000D01*
X92969646Y-68304099D01*
X93143008Y-68287142D01*
X93307848Y-68304172D01*
X93436420Y-68351177D01*
X93536938Y-68425546D01*
X93614244Y-68529553D01*
X93621113Y-68529553D01*
X93621113Y-67486025D01*
X94160737Y-67486025D01*
X94160737Y-70075000D01*
G37*
G36*
X95575612Y-68302799D02*
G01*
X95733713Y-68346854D01*
X95866335Y-68416829D01*
X95977752Y-68512914D01*
X96066518Y-68631112D01*
X96131555Y-68769790D01*
X96172525Y-68932893D01*
X96187037Y-69125505D01*
X96187037Y-69351125D01*
X95046270Y-69351125D01*
X95067736Y-69469101D01*
X95110450Y-69560512D01*
X95173437Y-69631161D01*
X95259373Y-69684004D01*
X95374162Y-69718676D01*
X95526208Y-69731533D01*
X95714766Y-69715835D01*
X95882602Y-69670430D01*
X96033469Y-69596284D01*
X96033469Y-69984630D01*
X95866674Y-70053212D01*
X95659544Y-70097858D01*
X95403323Y-70114078D01*
X95192475Y-70097713D01*
X95016518Y-70051766D01*
X94869185Y-69979150D01*
X94745699Y-69880216D01*
X94646559Y-69756764D01*
X94573960Y-69610183D01*
X94528129Y-69435875D01*
X94511837Y-69227782D01*
X94528601Y-69019870D01*
X95042912Y-69019870D01*
X95686797Y-69019870D01*
X95671905Y-68874638D01*
X95632878Y-68774562D01*
X95573949Y-68707263D01*
X95493124Y-68665956D01*
X95382715Y-68650911D01*
X95300802Y-68662439D01*
X95226825Y-68696822D01*
X95158164Y-68756546D01*
X95103958Y-68831473D01*
X95065486Y-68918444D01*
X95042912Y-69019870D01*
X94528601Y-69019870D01*
X94529148Y-69013084D01*
X94578198Y-68830596D01*
X94656563Y-68674570D01*
X94764475Y-68540696D01*
X94898686Y-68429392D01*
X95045104Y-68351023D01*
X95206376Y-68303484D01*
X95386226Y-68287142D01*
X95575612Y-68302799D01*
G37*
G36*
X97649594Y-68808906D02*
G01*
X97546350Y-68769819D01*
X97422448Y-68756088D01*
X97311589Y-68771080D01*
X97221642Y-68813871D01*
X97147522Y-68885384D01*
X97094710Y-68976644D01*
X97060779Y-69091897D01*
X97048451Y-69237399D01*
X97048451Y-70075000D01*
X96508827Y-70075000D01*
X96508827Y-68326221D01*
X97048451Y-68326221D01*
X97048451Y-68646789D01*
X97055321Y-68646789D01*
X97119090Y-68510036D01*
X97195987Y-68411131D01*
X97285881Y-68342914D01*
X97391147Y-68301578D01*
X97516329Y-68287142D01*
X97596732Y-68293038D01*
X97649594Y-68307903D01*
X97649594Y-68808906D01*
G37*
G36*
X98280962Y-68873325D02*
G01*
X98195426Y-68863834D01*
X98122365Y-68836543D01*
X98059006Y-68791503D01*
X98009386Y-68732226D01*
X97980156Y-68665616D01*
X97970163Y-68589087D01*
X97980536Y-68510602D01*
X98010632Y-68443853D01*
X98061448Y-68385908D01*
X98126299Y-68342456D01*
X98201394Y-68315937D01*
X98289510Y-68306681D01*
X98378713Y-68316148D01*
X98453113Y-68343046D01*
X98515893Y-68386823D01*
X98564804Y-68444949D01*
X98593827Y-68511448D01*
X98603820Y-68589087D01*
X98593538Y-68668897D01*
X98563854Y-68736223D01*
X98514061Y-68794098D01*
X98450214Y-68837183D01*
X98373649Y-68863875D01*
X98280962Y-68873325D01*
G37*
G36*
X98280962Y-70114078D02*
G01*
X98195467Y-70104527D01*
X98122408Y-70077045D01*
X98059006Y-70031646D01*
X98009339Y-69972005D01*
X97980130Y-69905325D01*
X97970163Y-69829077D01*
X97980533Y-69750806D01*
X98010625Y-69684260D01*
X98061448Y-69626509D01*
X98126288Y-69583146D01*
X98201383Y-69556675D01*
X98289510Y-69547435D01*
X98378734Y-69556870D01*
X98453135Y-69583673D01*
X98515893Y-69627272D01*
X98564816Y-69685297D01*
X98593832Y-69751646D01*
X98603820Y-69829077D01*
X98593565Y-69908605D01*
X98563901Y-69976004D01*
X98514061Y-70034241D01*
X98450169Y-70077680D01*
X98373606Y-70104565D01*
X98280962Y-70114078D01*
G37*
G36*
X99527516Y-68592751D02*
G01*
X99534385Y-68592751D01*
X99622777Y-68480955D01*
X99722031Y-68396647D01*
X99833379Y-68336702D01*
X99959241Y-68299922D01*
X100103013Y-68287142D01*
X100268432Y-68302792D01*
X100407145Y-68347129D01*
X100524486Y-68418539D01*
X100624014Y-68518562D01*
X100700314Y-68637649D01*
X100757311Y-68779732D01*
X100793730Y-68949181D01*
X100806738Y-69151304D01*
X100791867Y-69369185D01*
X100749851Y-69555071D01*
X100683333Y-69714105D01*
X100593178Y-69850449D01*
X100477178Y-69966047D01*
X100345815Y-70047281D01*
X100195982Y-70096847D01*
X100022871Y-70114078D01*
X99866651Y-70097698D01*
X99736500Y-70051206D01*
X99626854Y-69975678D01*
X99534385Y-69868309D01*
X99527516Y-69868309D01*
X99527516Y-70075000D01*
X98987892Y-70075000D01*
X98987892Y-69134512D01*
X99518968Y-69134512D01*
X99518968Y-69312504D01*
X99530376Y-69420764D01*
X99562958Y-69512283D01*
X99616207Y-69590635D01*
X99687283Y-69651914D01*
X99769236Y-69688296D01*
X99865640Y-69700850D01*
X99981427Y-69684526D01*
X100074954Y-69637850D01*
X100151709Y-69559342D01*
X100205173Y-69459676D01*
X100240361Y-69328786D01*
X100253375Y-69158173D01*
X100241670Y-69017367D01*
X100209670Y-68907390D01*
X100160258Y-68821728D01*
X100090413Y-68755024D01*
X100003664Y-68714656D01*
X99894644Y-68700370D01*
X99791950Y-68713965D01*
X99703510Y-68753605D01*
X99625671Y-68820812D01*
X99567665Y-68906562D01*
X99531707Y-69009584D01*
X99518968Y-69134512D01*
X98987892Y-69134512D01*
X98987892Y-67486025D01*
X99527516Y-67486025D01*
X99527516Y-68592751D01*
G37*
G36*
X101430015Y-68042899D02*
G01*
X101342144Y-68033334D01*
X101268588Y-68006083D01*
X101206228Y-67961536D01*
X101157600Y-67902722D01*
X101128983Y-67836991D01*
X101119216Y-67761867D01*
X101129169Y-67684670D01*
X101157934Y-67619387D01*
X101206228Y-67563114D01*
X101268280Y-67521063D01*
X101341845Y-67495154D01*
X101430015Y-67486025D01*
X101519296Y-67495211D01*
X101593047Y-67521170D01*
X101654566Y-67563114D01*
X101702401Y-67619331D01*
X101730933Y-67684615D01*
X101740814Y-67761867D01*
X101730927Y-67840297D01*
X101702374Y-67906757D01*
X101654566Y-67964131D01*
X101592925Y-68007052D01*
X101519176Y-68033540D01*
X101430015Y-68042899D01*
G37*
G36*
X101696393Y-70075000D02*
G01*
X101156769Y-70075000D01*
X101156769Y-68326221D01*
X101696393Y-68326221D01*
X101696393Y-70075000D01*
G37*
G36*
X103207950Y-70054544D02*
G01*
X103125571Y-70084841D01*
X103008800Y-70105978D01*
X102847692Y-70114078D01*
X102687438Y-70100420D01*
X102561444Y-70062934D01*
X102462517Y-70004745D01*
X102385565Y-69925915D01*
X102328162Y-69823457D01*
X102290883Y-69691729D01*
X102277233Y-69523011D01*
X102277233Y-68724184D01*
X101993758Y-68724184D01*
X101993758Y-68326221D01*
X102277233Y-68326221D01*
X102277233Y-67951308D01*
X102815177Y-67798656D01*
X102815177Y-68326221D01*
X103207950Y-68326221D01*
X103207950Y-68724184D01*
X102815177Y-68724184D01*
X102815177Y-69428672D01*
X102825961Y-69536513D01*
X102854120Y-69610455D01*
X102896375Y-69659837D01*
X102953920Y-69689936D01*
X103032096Y-69700850D01*
X103116814Y-69689857D01*
X103207950Y-69654902D01*
X103207950Y-70054544D01*
G37*
G36*
X113787830Y-68590236D02*
G01*
X113864009Y-68621755D01*
X113928188Y-68671926D01*
X113980177Y-68738686D01*
X114018772Y-68817776D01*
X114046885Y-68914541D01*
X114062765Y-69018292D01*
X114068257Y-69132222D01*
X114068257Y-69168095D01*
X114062977Y-69280704D01*
X114047649Y-69384250D01*
X114020578Y-69481326D01*
X113982772Y-69562700D01*
X113931328Y-69631834D01*
X113867520Y-69683906D01*
X113791225Y-69716693D01*
X113695939Y-69728327D01*
X113576022Y-69714293D01*
X113488333Y-69676273D01*
X113417905Y-69615604D01*
X113364532Y-69537055D01*
X113364532Y-68765095D01*
X113418195Y-68685770D01*
X113488333Y-68627708D01*
X113575334Y-68592110D01*
X113692428Y-68579012D01*
X113787830Y-68590236D01*
G37*
G36*
X107676727Y-69547282D02*
G01*
X107620398Y-69618265D01*
X107534913Y-69680547D01*
X107423935Y-69724969D01*
X107290823Y-69741913D01*
X107201821Y-69733825D01*
X107135590Y-69712085D01*
X107086728Y-69678868D01*
X107036276Y-69607900D01*
X107019255Y-69519958D01*
X107025315Y-69458608D01*
X107043069Y-69403026D01*
X107073142Y-69353368D01*
X107116495Y-69310825D01*
X107171197Y-69277631D01*
X107244569Y-69250985D01*
X107327417Y-69235402D01*
X107434163Y-69229614D01*
X107676727Y-69229614D01*
X107676727Y-69547282D01*
G37*
G36*
X111712328Y-68584739D02*
G01*
X111784891Y-68605573D01*
X111849343Y-68639237D01*
X111901823Y-68682357D01*
X111943854Y-68735105D01*
X111975248Y-68797609D01*
X111995229Y-68865852D01*
X112004252Y-68939270D01*
X112004252Y-68976823D01*
X111225575Y-68976823D01*
X111247324Y-68889247D01*
X111276714Y-68812875D01*
X111315494Y-68743795D01*
X111361283Y-68686632D01*
X111415787Y-68639824D01*
X111478214Y-68605573D01*
X111547391Y-68584573D01*
X111625218Y-68577333D01*
X111712328Y-68584739D01*
G37*
G36*
X116068911Y-69547282D02*
G01*
X116012582Y-69618265D01*
X115927097Y-69680547D01*
X115816120Y-69724969D01*
X115683007Y-69741913D01*
X115594005Y-69733825D01*
X115527775Y-69712085D01*
X115478912Y-69678868D01*
X115428460Y-69607900D01*
X115411440Y-69519958D01*
X115417499Y-69458608D01*
X115435253Y-69403026D01*
X115465327Y-69353368D01*
X115508679Y-69310825D01*
X115563382Y-69277631D01*
X115636754Y-69250985D01*
X115719601Y-69235402D01*
X115826347Y-69229614D01*
X116068911Y-69229614D01*
X116068911Y-69547282D01*
G37*
G36*
X117990619Y-68592822D02*
G01*
X118078114Y-68631066D01*
X118149516Y-68692710D01*
X118206188Y-68777001D01*
X118206188Y-69525148D01*
X118149504Y-69608156D01*
X118077198Y-69670320D01*
X117988786Y-69709114D01*
X117873255Y-69723137D01*
X117777954Y-69711927D01*
X117702438Y-69680547D01*
X117639149Y-69630317D01*
X117587949Y-69563616D01*
X117550359Y-69484656D01*
X117523835Y-69389440D01*
X117509345Y-69287212D01*
X117504296Y-69173285D01*
X117504296Y-69137412D01*
X117509558Y-69023336D01*
X117524751Y-68919731D01*
X117551948Y-68822641D01*
X117589628Y-68742044D01*
X117641060Y-68673730D01*
X117704880Y-68622518D01*
X117781242Y-68590419D01*
X117876613Y-68579012D01*
X117990619Y-68592822D01*
G37*
G36*
X118960545Y-71063219D02*
G01*
X104120752Y-71063219D01*
X104120752Y-68664344D01*
X104398530Y-68664344D01*
X104398530Y-69002468D01*
X104415783Y-69255559D01*
X104464323Y-69469583D01*
X104515793Y-69602823D01*
X104578240Y-69717998D01*
X104651321Y-69817171D01*
X104737784Y-69904361D01*
X104834773Y-69976410D01*
X104943344Y-70034089D01*
X105059407Y-70075169D01*
X105186329Y-70100471D01*
X105325889Y-70109193D01*
X105480013Y-70101688D01*
X105619591Y-70080037D01*
X105752055Y-70045815D01*
X105866429Y-70004169D01*
X105971486Y-69953098D01*
X106056786Y-69899145D01*
X106131101Y-69839104D01*
X106183182Y-69784656D01*
X106182793Y-69557510D01*
X106544508Y-69557510D01*
X106556635Y-69673410D01*
X106592288Y-69778702D01*
X106649439Y-69873286D01*
X106725401Y-69953794D01*
X106817817Y-70018369D01*
X106929496Y-70068283D01*
X107052053Y-70098660D01*
X107189920Y-70109193D01*
X107352189Y-70092860D01*
X107489728Y-70048591D01*
X107603148Y-69982798D01*
X107693824Y-69902503D01*
X107714279Y-69996384D01*
X107743283Y-70075000D01*
X108224899Y-70075000D01*
X108224899Y-70045996D01*
X108194117Y-69971618D01*
X108170250Y-69878689D01*
X108156677Y-69774935D01*
X108151474Y-69632615D01*
X108151474Y-68840199D01*
X108135890Y-68686428D01*
X108091634Y-68557641D01*
X108020158Y-68445700D01*
X107926007Y-68355225D01*
X107812450Y-68285693D01*
X107675811Y-68234019D01*
X107642518Y-68227150D01*
X108574166Y-68227150D01*
X108574166Y-70075000D01*
X109006324Y-70075000D01*
X109006324Y-68691669D01*
X109029342Y-68644565D01*
X109058378Y-68609695D01*
X109095931Y-68587061D01*
X109146305Y-68579012D01*
X109197444Y-68586645D01*
X109239270Y-68613206D01*
X109267511Y-68666176D01*
X109277739Y-68753188D01*
X109277739Y-70075000D01*
X109696157Y-70075000D01*
X109696157Y-68664344D01*
X109718962Y-68628954D01*
X109749127Y-68602062D01*
X109786178Y-68585043D01*
X109832780Y-68579012D01*
X109883155Y-68586645D01*
X109926814Y-68613969D01*
X109956581Y-68667855D01*
X109967725Y-68754867D01*
X109967725Y-70075000D01*
X110399882Y-70075000D01*
X110399882Y-69147640D01*
X110735410Y-69147640D01*
X110735410Y-69216028D01*
X110752494Y-69397498D01*
X110802882Y-69565295D01*
X110884839Y-69717992D01*
X110994918Y-69848770D01*
X111130538Y-69955571D01*
X111293811Y-70039126D01*
X111474747Y-70091114D01*
X111681546Y-70109193D01*
X111815346Y-70101688D01*
X111936017Y-70080037D01*
X112050187Y-70045977D01*
X112150340Y-70004169D01*
X112241884Y-69952802D01*
X112317646Y-69896550D01*
X112383357Y-69833783D01*
X112432898Y-69772749D01*
X112195525Y-69516599D01*
X112099965Y-69608801D01*
X111982117Y-69674594D01*
X111849768Y-69714741D01*
X111710550Y-69728327D01*
X111614145Y-69720456D01*
X111527826Y-69697644D01*
X111448534Y-69660240D01*
X111379296Y-69610480D01*
X111320321Y-69549032D01*
X111272439Y-69476452D01*
X111237923Y-69395440D01*
X111217027Y-69304719D01*
X112470603Y-69304719D01*
X112470603Y-69103218D01*
X112456004Y-68905659D01*
X112414122Y-68731816D01*
X112343787Y-68574107D01*
X112249258Y-68444068D01*
X112129697Y-68338539D01*
X111984560Y-68258749D01*
X111878441Y-68227150D01*
X112889785Y-68227150D01*
X112889785Y-68765095D01*
X112889785Y-69537055D01*
X112889785Y-70785441D01*
X113364532Y-70785441D01*
X113364532Y-69914410D01*
X113455629Y-69996441D01*
X113560995Y-70057903D01*
X113679657Y-70095774D01*
X113822335Y-70109193D01*
X113936648Y-70100835D01*
X114038993Y-70076679D01*
X114131302Y-70037447D01*
X114255122Y-69952450D01*
X114357532Y-69840221D01*
X114436664Y-69705485D01*
X114490440Y-69557510D01*
X114936693Y-69557510D01*
X114948820Y-69673410D01*
X114984473Y-69778702D01*
X115041623Y-69873286D01*
X115117585Y-69953794D01*
X115210001Y-70018369D01*
X115321680Y-70068283D01*
X115444237Y-70098660D01*
X115582104Y-70109193D01*
X115744373Y-70092860D01*
X115881912Y-70048591D01*
X115995333Y-69982798D01*
X116086008Y-69902503D01*
X116106463Y-69996384D01*
X116135467Y-70075000D01*
X116617083Y-70075000D01*
X116617083Y-70045996D01*
X116586301Y-69971618D01*
X116562434Y-69878689D01*
X116548861Y-69774935D01*
X116543658Y-69632615D01*
X116543658Y-69137412D01*
X117029549Y-69137412D01*
X117029549Y-69173285D01*
X117042284Y-69370117D01*
X117079008Y-69546519D01*
X117140683Y-69708920D01*
X117221584Y-69842816D01*
X117325277Y-69954284D01*
X117448730Y-70038363D01*
X117589595Y-70091011D01*
X117751897Y-70109193D01*
X117900676Y-70093660D01*
X118025143Y-70049507D01*
X118134736Y-69978198D01*
X118230155Y-69882048D01*
X118253968Y-70075000D01*
X118682767Y-70075000D01*
X118682767Y-67451831D01*
X118206188Y-67451831D01*
X118206188Y-68392777D01*
X118114043Y-68307647D01*
X118010642Y-68245163D01*
X117894601Y-68206587D01*
X117755408Y-68192956D01*
X117589908Y-68210634D01*
X117448730Y-68261344D01*
X117325257Y-68343261D01*
X117220821Y-68454296D01*
X117139545Y-68588646D01*
X117078244Y-68753188D01*
X117042185Y-68932720D01*
X117029549Y-69137412D01*
X116543658Y-69137412D01*
X116543658Y-68840199D01*
X116528074Y-68686428D01*
X116483818Y-68557641D01*
X116412342Y-68445700D01*
X116318191Y-68355225D01*
X116204634Y-68285693D01*
X116067995Y-68234019D01*
X115920075Y-68203500D01*
X115756433Y-68192956D01*
X115576358Y-68205330D01*
X115425789Y-68239972D01*
X115290057Y-68296661D01*
X115181699Y-68367284D01*
X115093021Y-68454796D01*
X115029658Y-68553367D01*
X114990608Y-68662285D01*
X114977603Y-68777001D01*
X115452350Y-68777001D01*
X115469571Y-68681910D01*
X115518907Y-68610611D01*
X115567402Y-68578093D01*
X115635822Y-68556386D01*
X115730787Y-68548176D01*
X115837460Y-68557962D01*
X115919245Y-68584611D01*
X115981747Y-68625876D01*
X116029537Y-68682805D01*
X116058641Y-68751902D01*
X116068911Y-68836841D01*
X116068911Y-68946140D01*
X115804213Y-68946140D01*
X115582758Y-68958213D01*
X115405595Y-68991199D01*
X115264996Y-69041206D01*
X115154374Y-69105813D01*
X115059257Y-69193782D01*
X114992262Y-69296205D01*
X114951119Y-69415926D01*
X114940519Y-69519958D01*
X114936693Y-69557510D01*
X114490440Y-69557510D01*
X114495987Y-69542245D01*
X114530896Y-69365252D01*
X114543004Y-69168095D01*
X114543004Y-69132222D01*
X114530778Y-68927571D01*
X114495987Y-68748913D01*
X114436354Y-68585099D01*
X114356769Y-68451700D01*
X114253564Y-68341715D01*
X114129623Y-68260428D01*
X113987526Y-68210482D01*
X113818824Y-68192956D01*
X113670086Y-68207739D01*
X113547256Y-68249437D01*
X113439289Y-68316963D01*
X113345756Y-68408195D01*
X113328659Y-68227150D01*
X112889785Y-68227150D01*
X111878441Y-68227150D01*
X111821142Y-68210088D01*
X111628576Y-68192956D01*
X111441153Y-68210812D01*
X111271676Y-68263023D01*
X111118410Y-68347466D01*
X110988202Y-68459486D01*
X110882732Y-68596565D01*
X110801967Y-68760820D01*
X110752556Y-68942150D01*
X110749663Y-68976823D01*
X110735410Y-69147640D01*
X110399882Y-69147640D01*
X110399882Y-68756546D01*
X110391740Y-68608965D01*
X110369962Y-68496122D01*
X110332705Y-68396453D01*
X110286156Y-68321946D01*
X110226992Y-68263131D01*
X110159760Y-68223791D01*
X110085034Y-68200777D01*
X110003598Y-68192956D01*
X109890441Y-68206622D01*
X109799502Y-68245163D01*
X109723067Y-68306577D01*
X109660284Y-68389419D01*
X109615889Y-68302705D01*
X109554714Y-68243125D01*
X109474279Y-68206282D01*
X109368261Y-68192956D01*
X109243192Y-68210887D01*
X109142031Y-68262260D01*
X109060039Y-68342604D01*
X108995943Y-68450937D01*
X108982357Y-68227150D01*
X108574166Y-68227150D01*
X107642518Y-68227150D01*
X107527891Y-68203500D01*
X107364248Y-68192956D01*
X107184173Y-68205330D01*
X107033605Y-68239972D01*
X106897873Y-68296661D01*
X106789515Y-68367284D01*
X106700837Y-68454796D01*
X106637473Y-68553367D01*
X106598423Y-68662285D01*
X106585419Y-68777001D01*
X107060166Y-68777001D01*
X107077387Y-68681910D01*
X107126722Y-68610611D01*
X107175218Y-68578093D01*
X107243638Y-68556386D01*
X107338603Y-68548176D01*
X107445276Y-68557962D01*
X107527060Y-68584611D01*
X107589562Y-68625876D01*
X107637353Y-68682805D01*
X107666457Y-68751902D01*
X107676727Y-68836841D01*
X107676727Y-68946140D01*
X107412028Y-68946140D01*
X107190574Y-68958213D01*
X107013411Y-68991199D01*
X106872812Y-69041206D01*
X106762190Y-69105813D01*
X106667073Y-69193782D01*
X106600078Y-69296205D01*
X106558935Y-69415926D01*
X106548334Y-69519958D01*
X106544508Y-69557510D01*
X106182793Y-69557510D01*
X106181502Y-68804326D01*
X105291695Y-68804326D01*
X105291695Y-69163058D01*
X105703397Y-69163058D01*
X105701565Y-69613838D01*
X105646000Y-69655818D01*
X105561584Y-69690775D01*
X105459154Y-69714589D01*
X105348176Y-69723137D01*
X105234570Y-69710033D01*
X105140906Y-69674538D01*
X105062863Y-69617369D01*
X104997993Y-69536139D01*
X104938439Y-69407119D01*
X104897891Y-69233289D01*
X104881825Y-69002468D01*
X104881825Y-68660986D01*
X104890921Y-68490595D01*
X104916019Y-68350950D01*
X104957677Y-68224146D01*
X105008221Y-68126400D01*
X105072852Y-68045396D01*
X105144844Y-67989013D01*
X105226788Y-67953769D01*
X105315662Y-67941996D01*
X105439486Y-67954292D01*
X105531044Y-67987403D01*
X105598220Y-68038472D01*
X105648858Y-68108167D01*
X105687986Y-68201971D01*
X105713625Y-68326221D01*
X106181502Y-68326221D01*
X106151534Y-68152888D01*
X106102124Y-68003515D01*
X106029157Y-67870057D01*
X105933901Y-67760188D01*
X105816001Y-67673056D01*
X105669966Y-67607231D01*
X105506035Y-67568343D01*
X105303755Y-67554261D01*
X105176791Y-67562822D01*
X105057977Y-67587995D01*
X104945939Y-67629518D01*
X104841247Y-67686883D01*
X104745854Y-67759401D01*
X104658954Y-67848115D01*
X104551852Y-68003972D01*
X104467681Y-68197230D01*
X104430201Y-68336067D01*
X104406718Y-68491067D01*
X104398530Y-68664344D01*
X104120752Y-68664344D01*
X104120752Y-67174053D01*
X118960545Y-67174053D01*
X118960545Y-71063219D01*
G37*
D11*
G36*
X119914795Y-56440005D02*
G01*
X120006553Y-56456434D01*
X120083323Y-56481940D01*
X120147379Y-56515605D01*
X120200559Y-56557109D01*
X120244176Y-56606751D01*
X120278936Y-56665430D01*
X120304889Y-56734584D01*
X120321424Y-56816098D01*
X120327306Y-56912226D01*
X120321098Y-57003881D01*
X120303289Y-57084847D01*
X120274653Y-57156741D01*
X120235336Y-57220880D01*
X120184851Y-57278224D01*
X120125762Y-57326336D01*
X120059449Y-57364077D01*
X119984894Y-57391720D01*
X119900754Y-57408974D01*
X119805420Y-57415000D01*
X119458412Y-57415000D01*
X119458412Y-57236031D01*
X119679024Y-57236031D01*
X119788323Y-57236031D01*
X119859232Y-57230118D01*
X119919132Y-57213394D01*
X119970046Y-57186677D01*
X120013454Y-57149813D01*
X120048118Y-57104516D01*
X120073478Y-57051367D01*
X120089439Y-56988844D01*
X120095092Y-56914973D01*
X120089512Y-56845427D01*
X120073744Y-56786665D01*
X120048626Y-56736753D01*
X120014125Y-56694239D01*
X119971426Y-56660195D01*
X119920515Y-56635204D01*
X119859749Y-56619392D01*
X119786980Y-56613761D01*
X119679024Y-56613761D01*
X119679024Y-57236031D01*
X119458412Y-57236031D01*
X119458412Y-56434120D01*
X119805420Y-56434120D01*
X119914795Y-56440005D01*
G37*
G36*
X120490094Y-57388316D02*
G01*
X120490094Y-57203974D01*
X120559142Y-57238981D01*
X120630019Y-57259610D01*
X120703867Y-57266500D01*
X120759415Y-57261387D01*
X120803072Y-57247311D01*
X120837407Y-57225284D01*
X120863916Y-57194901D01*
X120879949Y-57158220D01*
X120885584Y-57113299D01*
X120880085Y-57068941D01*
X120864700Y-57034160D01*
X120839593Y-57006630D01*
X120802952Y-56985392D01*
X120751307Y-56971035D01*
X120679931Y-56965593D01*
X120609695Y-56968386D01*
X120518059Y-56977866D01*
X120518059Y-56434120D01*
X121060462Y-56434120D01*
X121060462Y-56613883D01*
X120702524Y-56613883D01*
X120702524Y-56805553D01*
X120783796Y-56801461D01*
X120859177Y-56807025D01*
X120922365Y-56822654D01*
X120975475Y-56847316D01*
X121020162Y-56880779D01*
X121057005Y-56923096D01*
X121083441Y-56971843D01*
X121099833Y-57028284D01*
X121105586Y-57094187D01*
X121098915Y-57166594D01*
X121079684Y-57230056D01*
X121048234Y-57286319D01*
X121003797Y-57336598D01*
X120950493Y-57376482D01*
X120887990Y-57405705D01*
X120814519Y-57424112D01*
X120727803Y-57430631D01*
X120634106Y-57425420D01*
X120555652Y-57410885D01*
X120490094Y-57388316D01*
G37*
D12*
G36*
X126034330Y-69489110D02*
G01*
X126089727Y-69506135D01*
X126139508Y-69533713D01*
X126184514Y-69571890D01*
X126225335Y-69621327D01*
X126259618Y-69678052D01*
X126286493Y-69741504D01*
X126306159Y-69812629D01*
X126318420Y-69892670D01*
X126322696Y-69983112D01*
X126318712Y-70070803D01*
X126307220Y-70149633D01*
X126288684Y-70220811D01*
X126263254Y-70285362D01*
X126230504Y-70343534D01*
X126192351Y-70391894D01*
X126148362Y-70431229D01*
X126097795Y-70461828D01*
X126124672Y-70498927D01*
X126148490Y-70526735D01*
X126173060Y-70549831D01*
X126196896Y-70566913D01*
X126221664Y-70579485D01*
X126246859Y-70587369D01*
X126302730Y-70593047D01*
X126320636Y-70592009D01*
X126340373Y-70588590D01*
X126359562Y-70583094D01*
X126376506Y-70575950D01*
X126376506Y-70758644D01*
X126331169Y-70770673D01*
X126260735Y-70776718D01*
X126211910Y-70771099D01*
X126168228Y-70754797D01*
X126127135Y-70729070D01*
X126087262Y-70694896D01*
X126049595Y-70654144D01*
X126011974Y-70605565D01*
X125935907Y-70495350D01*
X125886365Y-70489314D01*
X125840947Y-70475323D01*
X125799070Y-70453646D01*
X125759840Y-70424427D01*
X125724961Y-70389511D01*
X125694061Y-70348682D01*
X125667473Y-70302637D01*
X125645026Y-70251193D01*
X125626696Y-70193771D01*
X125613586Y-70133761D01*
X125605600Y-70070328D01*
X125602882Y-70002956D01*
X125603462Y-69990622D01*
X125777088Y-69990622D01*
X125780665Y-70062940D01*
X125790720Y-70124060D01*
X125806538Y-70175788D01*
X125827830Y-70219600D01*
X125855669Y-70256698D01*
X125886875Y-70282649D01*
X125922143Y-70298408D01*
X125962560Y-70303864D01*
X126004462Y-70298460D01*
X126040319Y-70283008D01*
X126071345Y-70257868D01*
X126098344Y-70222348D01*
X126119317Y-70179568D01*
X126134968Y-70128488D01*
X126144965Y-70067516D01*
X126148536Y-69994713D01*
X126145057Y-69918769D01*
X126135369Y-69855731D01*
X126120323Y-69803494D01*
X126100359Y-69760301D01*
X126073923Y-69722815D01*
X126043438Y-69696466D01*
X126008102Y-69680333D01*
X125966636Y-69674694D01*
X125924734Y-69680355D01*
X125888428Y-69696656D01*
X125856543Y-69723432D01*
X125828334Y-69761645D01*
X125806743Y-69806167D01*
X125790773Y-69858205D01*
X125780669Y-69919129D01*
X125777088Y-69990622D01*
X125603462Y-69990622D01*
X125607288Y-69909234D01*
X125619927Y-69826140D01*
X125640210Y-69752166D01*
X125667939Y-69686049D01*
X125703312Y-69626822D01*
X125745766Y-69575728D01*
X125793075Y-69536076D01*
X125845919Y-69507286D01*
X125905256Y-69489425D01*
X125972269Y-69483208D01*
X126034330Y-69489110D01*
G37*
G36*
X126912497Y-70479719D02*
G01*
X126447810Y-70479719D01*
X126447810Y-70307772D01*
X126599988Y-70307772D01*
X126599988Y-69698141D01*
X126443688Y-69745036D01*
X126443688Y-69569181D01*
X126761372Y-69483208D01*
X126761372Y-70307772D01*
X126912497Y-70307772D01*
X126912497Y-70479719D01*
G37*
D11*
G36*
X139536875Y-66440334D02*
G01*
X139536875Y-66220210D01*
X139599264Y-66264906D01*
X139665957Y-66296414D01*
X139736385Y-66315533D01*
X139806702Y-66321815D01*
X139847025Y-66319820D01*
X139879487Y-66314366D01*
X139908865Y-66305057D01*
X139931388Y-66293544D01*
X139949910Y-66278712D01*
X139962468Y-66262220D01*
X139970151Y-66243423D01*
X139972726Y-66223019D01*
X139968593Y-66195823D01*
X139956301Y-66171850D01*
X139937514Y-66150720D01*
X139911544Y-66130207D01*
X139844255Y-66093387D01*
X139760296Y-66057178D01*
X139686459Y-66020784D01*
X139630429Y-65981805D01*
X139589143Y-65940491D01*
X139558111Y-65891932D01*
X139539296Y-65837006D01*
X139532784Y-65773979D01*
X139536440Y-65723786D01*
X139546849Y-65680355D01*
X139563498Y-65642576D01*
X139599753Y-65592556D01*
X139647212Y-65552145D01*
X139703450Y-65521733D01*
X139769822Y-65499938D01*
X139840796Y-65487477D01*
X139917405Y-65483208D01*
X139991759Y-65485650D01*
X140052960Y-65492367D01*
X140110538Y-65504185D01*
X140161954Y-65520516D01*
X140161954Y-65723176D01*
X140108281Y-65693989D01*
X140048503Y-65673045D01*
X139987381Y-65660772D01*
X139929679Y-65656742D01*
X139893063Y-65658608D01*
X139861352Y-65663886D01*
X139832221Y-65672792D01*
X139809450Y-65683975D01*
X139790364Y-65698483D01*
X139776660Y-65714994D01*
X139767992Y-65734053D01*
X139765059Y-65755538D01*
X139768334Y-65778950D01*
X139778004Y-65799563D01*
X139793175Y-65817923D01*
X139814884Y-65836383D01*
X139872953Y-65870516D01*
X139950195Y-65905015D01*
X140007042Y-65930885D01*
X140055708Y-65957222D01*
X140099788Y-65987082D01*
X140136003Y-66019626D01*
X140165549Y-66056931D01*
X140187233Y-66099188D01*
X140200319Y-66146164D01*
X140205001Y-66203236D01*
X140201229Y-66257100D01*
X140190628Y-66302460D01*
X140173921Y-66340744D01*
X140137267Y-66391108D01*
X140089536Y-66430870D01*
X140032928Y-66460052D01*
X139965582Y-66480329D01*
X139893671Y-66491517D01*
X139816289Y-66495350D01*
X139736844Y-66491828D01*
X139662904Y-66481550D01*
X139593335Y-66463817D01*
X139536875Y-66440334D01*
G37*
G36*
X140366507Y-66453035D02*
G01*
X140366507Y-66268693D01*
X140435556Y-66303700D01*
X140506433Y-66324329D01*
X140580280Y-66331219D01*
X140635828Y-66326106D01*
X140679486Y-66312030D01*
X140713820Y-66290003D01*
X140740329Y-66259620D01*
X140756362Y-66222939D01*
X140761997Y-66178018D01*
X140756498Y-66133660D01*
X140741113Y-66098879D01*
X140716006Y-66071349D01*
X140679366Y-66050111D01*
X140627720Y-66035754D01*
X140556345Y-66030312D01*
X140486108Y-66033105D01*
X140394473Y-66042585D01*
X140394473Y-65498839D01*
X140936875Y-65498839D01*
X140936875Y-65678602D01*
X140578937Y-65678602D01*
X140578937Y-65870272D01*
X140660209Y-65866180D01*
X140735591Y-65871744D01*
X140798778Y-65887373D01*
X140851888Y-65912035D01*
X140896575Y-65945498D01*
X140933418Y-65987815D01*
X140959855Y-66036562D01*
X140976247Y-66093003D01*
X140981999Y-66158906D01*
X140975328Y-66231313D01*
X140956097Y-66294775D01*
X140924648Y-66351038D01*
X140880211Y-66401317D01*
X140826907Y-66441201D01*
X140764403Y-66470424D01*
X140690932Y-66488831D01*
X140604216Y-66495350D01*
X140510519Y-66490139D01*
X140432065Y-66475604D01*
X140366507Y-66453035D01*
G37*
G36*
X143536875Y-39440334D02*
G01*
X143536875Y-39220210D01*
X143599264Y-39264906D01*
X143665957Y-39296414D01*
X143736385Y-39315533D01*
X143806702Y-39321815D01*
X143847025Y-39319820D01*
X143879487Y-39314366D01*
X143908865Y-39305057D01*
X143931388Y-39293544D01*
X143949910Y-39278712D01*
X143962468Y-39262220D01*
X143970151Y-39243423D01*
X143972726Y-39223019D01*
X143968593Y-39195823D01*
X143956301Y-39171850D01*
X143937514Y-39150720D01*
X143911544Y-39130207D01*
X143844255Y-39093387D01*
X143760296Y-39057178D01*
X143686459Y-39020784D01*
X143630429Y-38981805D01*
X143589143Y-38940491D01*
X143558111Y-38891932D01*
X143539296Y-38837006D01*
X143532784Y-38773979D01*
X143536440Y-38723786D01*
X143546849Y-38680355D01*
X143563498Y-38642576D01*
X143599753Y-38592556D01*
X143647212Y-38552145D01*
X143703450Y-38521733D01*
X143769822Y-38499938D01*
X143840796Y-38487477D01*
X143917405Y-38483208D01*
X143991759Y-38485650D01*
X144052960Y-38492367D01*
X144110538Y-38504185D01*
X144161954Y-38520516D01*
X144161954Y-38723176D01*
X144108281Y-38693989D01*
X144048503Y-38673045D01*
X143987381Y-38660772D01*
X143929679Y-38656742D01*
X143893063Y-38658608D01*
X143861352Y-38663886D01*
X143832221Y-38672792D01*
X143809450Y-38683975D01*
X143790364Y-38698483D01*
X143776660Y-38714994D01*
X143767992Y-38734053D01*
X143765059Y-38755538D01*
X143768334Y-38778950D01*
X143778004Y-38799563D01*
X143793175Y-38817923D01*
X143814884Y-38836383D01*
X143872953Y-38870516D01*
X143950195Y-38905015D01*
X144007042Y-38930885D01*
X144055708Y-38957222D01*
X144099788Y-38987082D01*
X144136003Y-39019626D01*
X144165549Y-39056931D01*
X144187233Y-39099188D01*
X144200319Y-39146164D01*
X144205001Y-39203236D01*
X144201229Y-39257100D01*
X144190628Y-39302460D01*
X144173921Y-39340744D01*
X144137267Y-39391108D01*
X144089536Y-39430870D01*
X144032928Y-39460052D01*
X143965582Y-39480329D01*
X143893671Y-39491517D01*
X143816289Y-39495350D01*
X143736844Y-39491828D01*
X143662904Y-39481550D01*
X143593335Y-39463817D01*
X143536875Y-39440334D01*
G37*
G36*
X144735975Y-38488014D02*
G01*
X144797899Y-38501545D01*
X144850501Y-38522864D01*
X144895232Y-38551596D01*
X144933746Y-38588920D01*
X144960425Y-38630131D01*
X144976478Y-38676073D01*
X144981999Y-38728122D01*
X144974871Y-38787508D01*
X144954106Y-38839337D01*
X144919206Y-38885485D01*
X144867858Y-38926904D01*
X144796191Y-38963511D01*
X144796191Y-38966259D01*
X144859576Y-38991042D01*
X144910488Y-39023358D01*
X144950858Y-39063101D01*
X144981662Y-39110386D01*
X144999776Y-39160509D01*
X145005874Y-39214715D01*
X144999562Y-39277817D01*
X144981467Y-39331953D01*
X144951898Y-39378973D01*
X144909886Y-39420062D01*
X144860560Y-39451293D01*
X144800858Y-39474796D01*
X144728745Y-39489918D01*
X144641769Y-39495350D01*
X144567328Y-39490247D01*
X144503574Y-39475802D01*
X144448797Y-39452888D01*
X144401617Y-39421772D01*
X144361525Y-39381750D01*
X144333446Y-39336733D01*
X144316372Y-39285699D01*
X144310453Y-39227049D01*
X144311315Y-39218134D01*
X144514701Y-39218134D01*
X144519412Y-39252264D01*
X144533191Y-39281666D01*
X144556711Y-39307588D01*
X144586384Y-39327058D01*
X144620066Y-39338856D01*
X144658866Y-39342943D01*
X144700859Y-39338768D01*
X144735164Y-39327047D01*
X144763402Y-39308260D01*
X144785303Y-39282857D01*
X144798448Y-39252829D01*
X144803030Y-39216730D01*
X144797514Y-39175478D01*
X144781281Y-39139181D01*
X144753487Y-39106446D01*
X144711669Y-39076707D01*
X144652027Y-39050279D01*
X144598639Y-39076956D01*
X144560644Y-39106825D01*
X144535015Y-39139774D01*
X144519873Y-39176439D01*
X144514701Y-39218134D01*
X144311315Y-39218134D01*
X144315815Y-39171584D01*
X144331382Y-39122345D01*
X144357087Y-39078019D01*
X144393799Y-39037724D01*
X144443253Y-39001088D01*
X144507924Y-38968274D01*
X144507924Y-38964855D01*
X144443814Y-38931650D01*
X144397455Y-38893300D01*
X144365604Y-38849789D01*
X144346451Y-38800115D01*
X144340307Y-38746624D01*
X144544133Y-38746624D01*
X144550836Y-38787927D01*
X144570838Y-38824017D01*
X144606208Y-38856526D01*
X144661613Y-38885659D01*
X144717030Y-38855855D01*
X144752415Y-38822898D01*
X144772407Y-38786555D01*
X144779094Y-38745219D01*
X144775349Y-38713254D01*
X144764731Y-38687093D01*
X144747343Y-38665413D01*
X144724557Y-38649222D01*
X144696880Y-38639182D01*
X144662957Y-38635615D01*
X144630027Y-38639247D01*
X144602038Y-38649666D01*
X144577899Y-38666817D01*
X144559194Y-38689436D01*
X144548008Y-38715660D01*
X144544133Y-38746624D01*
X144340307Y-38746624D01*
X144339823Y-38742410D01*
X144345542Y-38688048D01*
X144362208Y-38639751D01*
X144389948Y-38596142D01*
X144430010Y-38556358D01*
X144476731Y-38525242D01*
X144530263Y-38502477D01*
X144591829Y-38488219D01*
X144662957Y-38483208D01*
X144735975Y-38488014D01*
G37*
D12*
G36*
X117746035Y-78193326D02*
G01*
X117690990Y-78220752D01*
X117621966Y-78238769D01*
X117535971Y-78245350D01*
X117467901Y-78239468D01*
X117408435Y-78222693D01*
X117356296Y-78195915D01*
X117310425Y-78159438D01*
X117270036Y-78112970D01*
X117235929Y-78057912D01*
X117209213Y-77996185D01*
X117189668Y-77926849D01*
X117177479Y-77848655D01*
X117173224Y-77760101D01*
X117177927Y-77666334D01*
X117191468Y-77582739D01*
X117213320Y-77507803D01*
X117243400Y-77440283D01*
X117282080Y-77379265D01*
X117327670Y-77327225D01*
X117377946Y-77286851D01*
X117433568Y-77257587D01*
X117495444Y-77239486D01*
X117564684Y-77233208D01*
X117636219Y-77237715D01*
X117696104Y-77250255D01*
X117746035Y-77269600D01*
X117746035Y-77483312D01*
X117695189Y-77450174D01*
X117639539Y-77430026D01*
X117577965Y-77423106D01*
X117527097Y-77428908D01*
X117483085Y-77445501D01*
X117444674Y-77472332D01*
X117410949Y-77509752D01*
X117383859Y-77555422D01*
X117364148Y-77608694D01*
X117351793Y-77671040D01*
X117347430Y-77744408D01*
X117351545Y-77814804D01*
X117363206Y-77874833D01*
X117381818Y-77926298D01*
X117407377Y-77970577D01*
X117439269Y-78006807D01*
X117476093Y-78032882D01*
X117518812Y-78049086D01*
X117568760Y-78054780D01*
X117632022Y-78047610D01*
X117690787Y-78026489D01*
X117746035Y-77991337D01*
X117746035Y-78193326D01*
G37*
G36*
X118350856Y-77348551D02*
G01*
X118091608Y-78229719D01*
X117920516Y-78229719D01*
X118181779Y-77428602D01*
X117839549Y-77428602D01*
X117839549Y-77248839D01*
X118350856Y-77248839D01*
X118350856Y-77348551D01*
G37*
G36*
X50523586Y-53489688D02*
G01*
X50580178Y-53504840D01*
X50624445Y-53527748D01*
X50658695Y-53557342D01*
X50684670Y-53593409D01*
X50703417Y-53636623D01*
X50715178Y-53688467D01*
X50719363Y-53751078D01*
X50716334Y-53801017D01*
X50707548Y-53845844D01*
X50693295Y-53887287D01*
X50674254Y-53924246D01*
X50650673Y-53956514D01*
X50622231Y-53984452D01*
X50590372Y-54006848D01*
X50554362Y-54024141D01*
X50554362Y-54026889D01*
X50570276Y-54035713D01*
X50586098Y-54049115D01*
X50615819Y-54084958D01*
X50643251Y-54129043D01*
X50667065Y-54175205D01*
X50805917Y-54465000D01*
X50615865Y-54465000D01*
X50501605Y-54212819D01*
X50477013Y-54161589D01*
X50453199Y-54122998D01*
X50428058Y-54098391D01*
X50414520Y-54092009D01*
X50399619Y-54089842D01*
X50355060Y-54089842D01*
X50355060Y-54465000D01*
X50189600Y-54465000D01*
X50189600Y-53923147D01*
X50355060Y-53923147D01*
X50426775Y-53923147D01*
X50461083Y-53918239D01*
X50489160Y-53904396D01*
X50512367Y-53881992D01*
X50530624Y-53851773D01*
X50541445Y-53817668D01*
X50545157Y-53778372D01*
X50540414Y-53731362D01*
X50527425Y-53697049D01*
X50506340Y-53672127D01*
X50475102Y-53655676D01*
X50429889Y-53649412D01*
X50355060Y-53649412D01*
X50355060Y-53923147D01*
X50189600Y-53923147D01*
X50189600Y-53484120D01*
X50451917Y-53484120D01*
X50523586Y-53489688D01*
G37*
G36*
X51031963Y-54281146D02*
G01*
X51031963Y-54285237D01*
X51330138Y-54285237D01*
X51330138Y-54465000D01*
X50846491Y-54465000D01*
X50846491Y-54296167D01*
X51057105Y-54028293D01*
X51114570Y-53948308D01*
X51146498Y-53891823D01*
X51161029Y-53853941D01*
X51169543Y-53815496D01*
X51172372Y-53775868D01*
X51167649Y-53725377D01*
X51154881Y-53689134D01*
X51134589Y-53663379D01*
X51105165Y-53646710D01*
X51063242Y-53640436D01*
X51017722Y-53646417D01*
X50972790Y-53664568D01*
X50927697Y-53695849D01*
X50881846Y-53742041D01*
X50881846Y-53552142D01*
X50931073Y-53515674D01*
X50983126Y-53489663D01*
X51038560Y-53473869D01*
X51098046Y-53468489D01*
X51154516Y-53473831D01*
X51201658Y-53488795D01*
X51241076Y-53512304D01*
X51274039Y-53544021D01*
X51301410Y-53584504D01*
X51320978Y-53631106D01*
X51333084Y-53685038D01*
X51337328Y-53748025D01*
X51332173Y-53811146D01*
X51316115Y-53876884D01*
X51287596Y-53946623D01*
X51244265Y-54021582D01*
X51183089Y-54102787D01*
X51031963Y-54281146D01*
G37*
G36*
X51038305Y-44304407D02*
G01*
X51094897Y-44319559D01*
X51139164Y-44342467D01*
X51173414Y-44372061D01*
X51199389Y-44408128D01*
X51218136Y-44451342D01*
X51229897Y-44503186D01*
X51234082Y-44565797D01*
X51231053Y-44615736D01*
X51222267Y-44660563D01*
X51208014Y-44702006D01*
X51188973Y-44738965D01*
X51165392Y-44771233D01*
X51136950Y-44799171D01*
X51105091Y-44821567D01*
X51069081Y-44838860D01*
X51069081Y-44841608D01*
X51084995Y-44850432D01*
X51100817Y-44863834D01*
X51130538Y-44899677D01*
X51157970Y-44943762D01*
X51181784Y-44989924D01*
X51320636Y-45279719D01*
X51130584Y-45279719D01*
X51016324Y-45027538D01*
X50991732Y-44976308D01*
X50967918Y-44937717D01*
X50942777Y-44913110D01*
X50929239Y-44906728D01*
X50914338Y-44904561D01*
X50869779Y-44904561D01*
X50869779Y-45279719D01*
X50704319Y-45279719D01*
X50704319Y-44737866D01*
X50869779Y-44737866D01*
X50941494Y-44737866D01*
X50975802Y-44732958D01*
X51003879Y-44719115D01*
X51027086Y-44696711D01*
X51045343Y-44666492D01*
X51056164Y-44632387D01*
X51059876Y-44593091D01*
X51055133Y-44546081D01*
X51042144Y-44511768D01*
X51021059Y-44486846D01*
X50989821Y-44470395D01*
X50944608Y-44464131D01*
X50869779Y-44464131D01*
X50869779Y-44737866D01*
X50704319Y-44737866D01*
X50704319Y-44298839D01*
X50966636Y-44298839D01*
X51038305Y-44304407D01*
G37*
G36*
X51865877Y-44398551D02*
G01*
X51606629Y-45279719D01*
X51435537Y-45279719D01*
X51696800Y-44478602D01*
X51354570Y-44478602D01*
X51354570Y-44298839D01*
X51865877Y-44298839D01*
X51865877Y-44398551D01*
G37*
G36*
X112246035Y-64393326D02*
G01*
X112190990Y-64420752D01*
X112121966Y-64438769D01*
X112035971Y-64445350D01*
X111967901Y-64439468D01*
X111908435Y-64422693D01*
X111856296Y-64395915D01*
X111810425Y-64359438D01*
X111770036Y-64312970D01*
X111735929Y-64257912D01*
X111709213Y-64196185D01*
X111689668Y-64126849D01*
X111677479Y-64048655D01*
X111673224Y-63960101D01*
X111677927Y-63866334D01*
X111691468Y-63782739D01*
X111713320Y-63707803D01*
X111743400Y-63640283D01*
X111782080Y-63579265D01*
X111827670Y-63527225D01*
X111877946Y-63486851D01*
X111933568Y-63457587D01*
X111995444Y-63439486D01*
X112064684Y-63433208D01*
X112136219Y-63437715D01*
X112196104Y-63450255D01*
X112246035Y-63469600D01*
X112246035Y-63683312D01*
X112195189Y-63650174D01*
X112139539Y-63630026D01*
X112077965Y-63623106D01*
X112027097Y-63628908D01*
X111983085Y-63645501D01*
X111944674Y-63672332D01*
X111910949Y-63709752D01*
X111883859Y-63755422D01*
X111864148Y-63808694D01*
X111851793Y-63871040D01*
X111847430Y-63944408D01*
X111851545Y-64014804D01*
X111863206Y-64074833D01*
X111881818Y-64126298D01*
X111907377Y-64170577D01*
X111939269Y-64206807D01*
X111976093Y-64232882D01*
X112018812Y-64249086D01*
X112068760Y-64254780D01*
X112132022Y-64247610D01*
X112190787Y-64226489D01*
X112246035Y-64191337D01*
X112246035Y-64393326D01*
G37*
G36*
X112374400Y-64403035D02*
G01*
X112374400Y-64218693D01*
X112426186Y-64253700D01*
X112479344Y-64274329D01*
X112534730Y-64281219D01*
X112576390Y-64276106D01*
X112609134Y-64262030D01*
X112634885Y-64240003D01*
X112654766Y-64209620D01*
X112666791Y-64172939D01*
X112671017Y-64128018D01*
X112666893Y-64083660D01*
X112655354Y-64048879D01*
X112636524Y-64021349D01*
X112609044Y-64000111D01*
X112570309Y-63985754D01*
X112516778Y-63980312D01*
X112464101Y-63983105D01*
X112395374Y-63992585D01*
X112395374Y-63448839D01*
X112802176Y-63448839D01*
X112802176Y-63628602D01*
X112533722Y-63628602D01*
X112533722Y-63820272D01*
X112594676Y-63816180D01*
X112651212Y-63821744D01*
X112698603Y-63837373D01*
X112738435Y-63862035D01*
X112771951Y-63895498D01*
X112799583Y-63937815D01*
X112819410Y-63986562D01*
X112831704Y-64043003D01*
X112836019Y-64108906D01*
X112831015Y-64181313D01*
X112816592Y-64244775D01*
X112793005Y-64301038D01*
X112759677Y-64351317D01*
X112719699Y-64391201D01*
X112672822Y-64420424D01*
X112617719Y-64438831D01*
X112552682Y-64445350D01*
X112482409Y-64440139D01*
X112423569Y-64425604D01*
X112374400Y-64403035D01*
G37*
G36*
X81973586Y-56439688D02*
G01*
X82030178Y-56454840D01*
X82074445Y-56477748D01*
X82108695Y-56507342D01*
X82134670Y-56543409D01*
X82153417Y-56586623D01*
X82165178Y-56638467D01*
X82169363Y-56701078D01*
X82166334Y-56751017D01*
X82157548Y-56795844D01*
X82143295Y-56837287D01*
X82124254Y-56874246D01*
X82100673Y-56906514D01*
X82072231Y-56934452D01*
X82040372Y-56956848D01*
X82004362Y-56974141D01*
X82004362Y-56976889D01*
X82020276Y-56985713D01*
X82036098Y-56999115D01*
X82065819Y-57034958D01*
X82093251Y-57079043D01*
X82117065Y-57125205D01*
X82255917Y-57415000D01*
X82065865Y-57415000D01*
X81951605Y-57162819D01*
X81927013Y-57111589D01*
X81903199Y-57072998D01*
X81878058Y-57048391D01*
X81864520Y-57042009D01*
X81849619Y-57039842D01*
X81805060Y-57039842D01*
X81805060Y-57415000D01*
X81639600Y-57415000D01*
X81639600Y-56873147D01*
X81805060Y-56873147D01*
X81876775Y-56873147D01*
X81911083Y-56868239D01*
X81939160Y-56854396D01*
X81962367Y-56831992D01*
X81980624Y-56801773D01*
X81991445Y-56767668D01*
X81995157Y-56728372D01*
X81990414Y-56681362D01*
X81977425Y-56647049D01*
X81956340Y-56622127D01*
X81925102Y-56605676D01*
X81879889Y-56599412D01*
X81805060Y-56599412D01*
X81805060Y-56873147D01*
X81639600Y-56873147D01*
X81639600Y-56434120D01*
X81901917Y-56434120D01*
X81973586Y-56439688D01*
G37*
G36*
X82586194Y-56423480D02*
G01*
X82627325Y-56437893D01*
X82664198Y-56461363D01*
X82697501Y-56494178D01*
X82727656Y-56537252D01*
X82756462Y-56598191D01*
X82778307Y-56673145D01*
X82792468Y-56764976D01*
X82797586Y-56877116D01*
X82793634Y-56985141D01*
X82782495Y-57078050D01*
X82765046Y-57157850D01*
X82741879Y-57226315D01*
X82713277Y-57284940D01*
X82676975Y-57337295D01*
X82636072Y-57377467D01*
X82589957Y-57406436D01*
X82537654Y-57424374D01*
X82477888Y-57430631D01*
X82418506Y-57426388D01*
X82367123Y-57414383D01*
X82322641Y-57395460D01*
X82322641Y-57215697D01*
X82362802Y-57243376D01*
X82408820Y-57260508D01*
X82461997Y-57266500D01*
X82503633Y-57261320D01*
X82538601Y-57246644D01*
X82568221Y-57223023D01*
X82593384Y-57189991D01*
X82612607Y-57150571D01*
X82627176Y-57102420D01*
X82636677Y-57043786D01*
X82640279Y-56972554D01*
X82637210Y-56971210D01*
X82610052Y-57012792D01*
X82577195Y-57042322D01*
X82537505Y-57060679D01*
X82489153Y-57067198D01*
X82445241Y-57061742D01*
X82406330Y-57045935D01*
X82371420Y-57019947D01*
X82339814Y-56983056D01*
X82314372Y-56938799D01*
X82296017Y-56888492D01*
X82284629Y-56830987D01*
X82280646Y-56764764D01*
X82281817Y-56746202D01*
X82438961Y-56746202D01*
X82442286Y-56794909D01*
X82451461Y-56833474D01*
X82465843Y-56864049D01*
X82485721Y-56887723D01*
X82509633Y-56901978D01*
X82538841Y-56906974D01*
X82565474Y-56902316D01*
X82588020Y-56888832D01*
X82607489Y-56866125D01*
X82622085Y-56837090D01*
X82631017Y-56803265D01*
X82634142Y-56763360D01*
X82630800Y-56712760D01*
X82621348Y-56670205D01*
X82606207Y-56634155D01*
X82585342Y-56604917D01*
X82562041Y-56588237D01*
X82535269Y-56582620D01*
X82508909Y-56587707D01*
X82486191Y-56602644D01*
X82466118Y-56628354D01*
X82451423Y-56660580D01*
X82442229Y-56699316D01*
X82438961Y-56746202D01*
X82281817Y-56746202D01*
X82285516Y-56687536D01*
X82299405Y-56621093D01*
X82321780Y-56563478D01*
X82352866Y-56513255D01*
X82391058Y-56472308D01*
X82434257Y-56442947D01*
X82483430Y-56424814D01*
X82539895Y-56418489D01*
X82586194Y-56423480D01*
G37*
G36*
X126237558Y-56675286D02*
G01*
X126306376Y-56691715D01*
X126363954Y-56717221D01*
X126411996Y-56750886D01*
X126451881Y-56792390D01*
X126484594Y-56842032D01*
X126510663Y-56900711D01*
X126530128Y-56969865D01*
X126542529Y-57051379D01*
X126546941Y-57147507D01*
X126542285Y-57239162D01*
X126528928Y-57320128D01*
X126507451Y-57392022D01*
X126477964Y-57456161D01*
X126440100Y-57513505D01*
X126395783Y-57561617D01*
X126346048Y-57599358D01*
X126290132Y-57627001D01*
X126227027Y-57644255D01*
X126155526Y-57650281D01*
X125895270Y-57650281D01*
X125895270Y-57471312D01*
X126060730Y-57471312D01*
X126142704Y-57471312D01*
X126195885Y-57465399D01*
X126240811Y-57448675D01*
X126278996Y-57421958D01*
X126311552Y-57385094D01*
X126337550Y-57339797D01*
X126356570Y-57286648D01*
X126368541Y-57224125D01*
X126372780Y-57150254D01*
X126368595Y-57080708D01*
X126356769Y-57021946D01*
X126337931Y-56972034D01*
X126312055Y-56929520D01*
X126280031Y-56895476D01*
X126241847Y-56870485D01*
X126196273Y-56854673D01*
X126141696Y-56849042D01*
X126060730Y-56849042D01*
X126060730Y-57471312D01*
X125895270Y-57471312D01*
X125895270Y-56669401D01*
X126155526Y-56669401D01*
X126237558Y-56675286D01*
G37*
G36*
X127026100Y-56657387D02*
G01*
X127069255Y-56667014D01*
X127101433Y-56681125D01*
X127101433Y-56860888D01*
X127063139Y-56837039D01*
X127022698Y-56822741D01*
X126979480Y-56817901D01*
X126940124Y-56823294D01*
X126905746Y-56838888D01*
X126875277Y-56864618D01*
X126848046Y-56901493D01*
X126826953Y-56944579D01*
X126811025Y-56995290D01*
X126800518Y-57054990D01*
X126796068Y-57125342D01*
X126799137Y-57125342D01*
X126828585Y-57079711D01*
X126863312Y-57047687D01*
X126904337Y-57028024D01*
X126953376Y-57021111D01*
X126998462Y-57026658D01*
X127037091Y-57042498D01*
X127070517Y-57068170D01*
X127099601Y-57104215D01*
X127122572Y-57147466D01*
X127139391Y-57197615D01*
X127149957Y-57255948D01*
X127153686Y-57324094D01*
X127148987Y-57396139D01*
X127135409Y-57459942D01*
X127113213Y-57517049D01*
X127081970Y-57568581D01*
X127043888Y-57610973D01*
X127001437Y-57641082D01*
X126953738Y-57659520D01*
X126899566Y-57665912D01*
X126850550Y-57660790D01*
X126807580Y-57646096D01*
X126769626Y-57622353D01*
X126735897Y-57589413D01*
X126705897Y-57546477D01*
X126677060Y-57485173D01*
X126655309Y-57410707D01*
X126642607Y-57328979D01*
X126801198Y-57328979D01*
X126804348Y-57375463D01*
X126813386Y-57415777D01*
X126828080Y-57451100D01*
X126848355Y-57479629D01*
X126871798Y-57496140D01*
X126899566Y-57501781D01*
X126926938Y-57496643D01*
X126949775Y-57481771D01*
X126969221Y-57456535D01*
X126983311Y-57424662D01*
X126992194Y-57385893D01*
X126995371Y-57338505D01*
X126990622Y-57276596D01*
X126978182Y-57233958D01*
X126959410Y-57205306D01*
X126933683Y-57187732D01*
X126898559Y-57181334D01*
X126870266Y-57186159D01*
X126847005Y-57199944D01*
X126827576Y-57222856D01*
X126813215Y-57252258D01*
X126804332Y-57287153D01*
X126801198Y-57328979D01*
X126642607Y-57328979D01*
X126641286Y-57320482D01*
X126636242Y-57211376D01*
X126640312Y-57107828D01*
X126651897Y-57017018D01*
X126670267Y-56937300D01*
X126694981Y-56867234D01*
X126725910Y-56805628D01*
X126764519Y-56750744D01*
X126807417Y-56708811D01*
X126855178Y-56678727D01*
X126908725Y-56660200D01*
X126969267Y-56653770D01*
X127026100Y-56657387D01*
G37*
D11*
G36*
X147536875Y-58440334D02*
G01*
X147536875Y-58220210D01*
X147599264Y-58264906D01*
X147665957Y-58296414D01*
X147736385Y-58315533D01*
X147806702Y-58321815D01*
X147847025Y-58319820D01*
X147879487Y-58314366D01*
X147908865Y-58305057D01*
X147931388Y-58293544D01*
X147949910Y-58278712D01*
X147962468Y-58262220D01*
X147970151Y-58243423D01*
X147972726Y-58223019D01*
X147968593Y-58195823D01*
X147956301Y-58171850D01*
X147937514Y-58150720D01*
X147911544Y-58130207D01*
X147844255Y-58093387D01*
X147760296Y-58057178D01*
X147686459Y-58020784D01*
X147630429Y-57981805D01*
X147589143Y-57940491D01*
X147558111Y-57891932D01*
X147539296Y-57837006D01*
X147532784Y-57773979D01*
X147536440Y-57723786D01*
X147546849Y-57680355D01*
X147563498Y-57642576D01*
X147599753Y-57592556D01*
X147647212Y-57552145D01*
X147703450Y-57521733D01*
X147769822Y-57499938D01*
X147840796Y-57487477D01*
X147917405Y-57483208D01*
X147991759Y-57485650D01*
X148052960Y-57492367D01*
X148110538Y-57504185D01*
X148161954Y-57520516D01*
X148161954Y-57723176D01*
X148108281Y-57693989D01*
X148048503Y-57673045D01*
X147987381Y-57660772D01*
X147929679Y-57656742D01*
X147893063Y-57658608D01*
X147861352Y-57663886D01*
X147832221Y-57672792D01*
X147809450Y-57683975D01*
X147790364Y-57698483D01*
X147776660Y-57714994D01*
X147767992Y-57734053D01*
X147765059Y-57755538D01*
X147768334Y-57778950D01*
X147778004Y-57799563D01*
X147793175Y-57817923D01*
X147814884Y-57836383D01*
X147872953Y-57870516D01*
X147950195Y-57905015D01*
X148007042Y-57930885D01*
X148055708Y-57957222D01*
X148099788Y-57987082D01*
X148136003Y-58019626D01*
X148165549Y-58056931D01*
X148187233Y-58099188D01*
X148200319Y-58146164D01*
X148205001Y-58203236D01*
X148201229Y-58257100D01*
X148190628Y-58302460D01*
X148173921Y-58340744D01*
X148137267Y-58391108D01*
X148089536Y-58430870D01*
X148032928Y-58460052D01*
X147965582Y-58480329D01*
X147893671Y-58491517D01*
X147816289Y-58495350D01*
X147736844Y-58491828D01*
X147662904Y-58481550D01*
X147593335Y-58463817D01*
X147536875Y-58440334D01*
G37*
G36*
X148842598Y-57486825D02*
G01*
X148900139Y-57496452D01*
X148943042Y-57510563D01*
X148943042Y-57690326D01*
X148891983Y-57666477D01*
X148838063Y-57652179D01*
X148780437Y-57647339D01*
X148727964Y-57652732D01*
X148682126Y-57668326D01*
X148641501Y-57694056D01*
X148605193Y-57730931D01*
X148577069Y-57774017D01*
X148555831Y-57824728D01*
X148541822Y-57884428D01*
X148535889Y-57954780D01*
X148539980Y-57954780D01*
X148579245Y-57909149D01*
X148625548Y-57877125D01*
X148680247Y-57857462D01*
X148745633Y-57850549D01*
X148805748Y-57856096D01*
X148857253Y-57871936D01*
X148901820Y-57897608D01*
X148940600Y-57933653D01*
X148971227Y-57976904D01*
X148993653Y-58027053D01*
X149007741Y-58085386D01*
X149012712Y-58153532D01*
X149006448Y-58225577D01*
X148988344Y-58289380D01*
X148958749Y-58346487D01*
X148917091Y-58398019D01*
X148866316Y-58440411D01*
X148809714Y-58470520D01*
X148746115Y-58488958D01*
X148673887Y-58495350D01*
X148608531Y-58490228D01*
X148551238Y-58475534D01*
X148500632Y-58451791D01*
X148455661Y-58418851D01*
X148415661Y-58375915D01*
X148377211Y-58314611D01*
X148348210Y-58240145D01*
X148331274Y-58158417D01*
X148542728Y-58158417D01*
X148546929Y-58204901D01*
X148558980Y-58245215D01*
X148578571Y-58280538D01*
X148605604Y-58309067D01*
X148636862Y-58325578D01*
X148673887Y-58331219D01*
X148710382Y-58326081D01*
X148740832Y-58311209D01*
X148766760Y-58285973D01*
X148785545Y-58254100D01*
X148797391Y-58215331D01*
X148801626Y-58167943D01*
X148795294Y-58106034D01*
X148778707Y-58063396D01*
X148753678Y-58034744D01*
X148719376Y-58017170D01*
X148672543Y-58010772D01*
X148634820Y-58015597D01*
X148603804Y-58029382D01*
X148577899Y-58052294D01*
X148558752Y-58081696D01*
X148546908Y-58116591D01*
X148542728Y-58158417D01*
X148331274Y-58158417D01*
X148329513Y-58149920D01*
X148322787Y-58040814D01*
X148328214Y-57937266D01*
X148343661Y-57846456D01*
X148368154Y-57766738D01*
X148401106Y-57696672D01*
X148442344Y-57635066D01*
X148493823Y-57580182D01*
X148551021Y-57538249D01*
X148614702Y-57508165D01*
X148686098Y-57489638D01*
X148766821Y-57483208D01*
X148842598Y-57486825D01*
G37*
G36*
X55536875Y-62440334D02*
G01*
X55536875Y-62220210D01*
X55599264Y-62264906D01*
X55665957Y-62296414D01*
X55736385Y-62315533D01*
X55806702Y-62321815D01*
X55847025Y-62319820D01*
X55879487Y-62314366D01*
X55908865Y-62305057D01*
X55931388Y-62293544D01*
X55949910Y-62278712D01*
X55962468Y-62262220D01*
X55970151Y-62243423D01*
X55972726Y-62223019D01*
X55968593Y-62195823D01*
X55956301Y-62171850D01*
X55937514Y-62150720D01*
X55911544Y-62130207D01*
X55844255Y-62093387D01*
X55760296Y-62057178D01*
X55686459Y-62020784D01*
X55630429Y-61981805D01*
X55589143Y-61940491D01*
X55558111Y-61891932D01*
X55539296Y-61837006D01*
X55532784Y-61773979D01*
X55536440Y-61723786D01*
X55546849Y-61680355D01*
X55563498Y-61642576D01*
X55599753Y-61592556D01*
X55647212Y-61552145D01*
X55703450Y-61521733D01*
X55769822Y-61499938D01*
X55840796Y-61487477D01*
X55917405Y-61483208D01*
X55991759Y-61485650D01*
X56052960Y-61492367D01*
X56110538Y-61504185D01*
X56161954Y-61520516D01*
X56161954Y-61723176D01*
X56108281Y-61693989D01*
X56048503Y-61673045D01*
X55987381Y-61660772D01*
X55929679Y-61656742D01*
X55893063Y-61658608D01*
X55861352Y-61663886D01*
X55832221Y-61672792D01*
X55809450Y-61683975D01*
X55790364Y-61698483D01*
X55776660Y-61714994D01*
X55767992Y-61734053D01*
X55765059Y-61755538D01*
X55768334Y-61778950D01*
X55778004Y-61799563D01*
X55793175Y-61817923D01*
X55814884Y-61836383D01*
X55872953Y-61870516D01*
X55950195Y-61905015D01*
X56007042Y-61930885D01*
X56055708Y-61957222D01*
X56099788Y-61987082D01*
X56136003Y-62019626D01*
X56165549Y-62056931D01*
X56187233Y-62099188D01*
X56200319Y-62146164D01*
X56205001Y-62203236D01*
X56201229Y-62257100D01*
X56190628Y-62302460D01*
X56173921Y-62340744D01*
X56137267Y-62391108D01*
X56089536Y-62430870D01*
X56032928Y-62460052D01*
X55965582Y-62480329D01*
X55893671Y-62491517D01*
X55816289Y-62495350D01*
X55736844Y-62491828D01*
X55662904Y-62481550D01*
X55593335Y-62463817D01*
X55536875Y-62440334D01*
G37*
G36*
X56990181Y-62479719D02*
G01*
X56370598Y-62479719D01*
X56370598Y-62307772D01*
X56573503Y-62307772D01*
X56573503Y-61698141D01*
X56365103Y-61745036D01*
X56365103Y-61569181D01*
X56788681Y-61483208D01*
X56788681Y-62307772D01*
X56990181Y-62307772D01*
X56990181Y-62479719D01*
G37*
G36*
X63536875Y-39440334D02*
G01*
X63536875Y-39220210D01*
X63599264Y-39264906D01*
X63665957Y-39296414D01*
X63736385Y-39315533D01*
X63806702Y-39321815D01*
X63847025Y-39319820D01*
X63879487Y-39314366D01*
X63908865Y-39305057D01*
X63931388Y-39293544D01*
X63949910Y-39278712D01*
X63962468Y-39262220D01*
X63970151Y-39243423D01*
X63972726Y-39223019D01*
X63968593Y-39195823D01*
X63956301Y-39171850D01*
X63937514Y-39150720D01*
X63911544Y-39130207D01*
X63844255Y-39093387D01*
X63760296Y-39057178D01*
X63686459Y-39020784D01*
X63630429Y-38981805D01*
X63589143Y-38940491D01*
X63558111Y-38891932D01*
X63539296Y-38837006D01*
X63532784Y-38773979D01*
X63536440Y-38723786D01*
X63546849Y-38680355D01*
X63563498Y-38642576D01*
X63599753Y-38592556D01*
X63647212Y-38552145D01*
X63703450Y-38521733D01*
X63769822Y-38499938D01*
X63840796Y-38487477D01*
X63917405Y-38483208D01*
X63991759Y-38485650D01*
X64052960Y-38492367D01*
X64110538Y-38504185D01*
X64161954Y-38520516D01*
X64161954Y-38723176D01*
X64108281Y-38693989D01*
X64048503Y-38673045D01*
X63987381Y-38660772D01*
X63929679Y-38656742D01*
X63893063Y-38658608D01*
X63861352Y-38663886D01*
X63832221Y-38672792D01*
X63809450Y-38683975D01*
X63790364Y-38698483D01*
X63776660Y-38714994D01*
X63767992Y-38734053D01*
X63765059Y-38755538D01*
X63768334Y-38778950D01*
X63778004Y-38799563D01*
X63793175Y-38817923D01*
X63814884Y-38836383D01*
X63872953Y-38870516D01*
X63950195Y-38905015D01*
X64007042Y-38930885D01*
X64055708Y-38957222D01*
X64099788Y-38987082D01*
X64136003Y-39019626D01*
X64165549Y-39056931D01*
X64187233Y-39099188D01*
X64200319Y-39146164D01*
X64205001Y-39203236D01*
X64201229Y-39257100D01*
X64190628Y-39302460D01*
X64173921Y-39340744D01*
X64137267Y-39391108D01*
X64089536Y-39430870D01*
X64032928Y-39460052D01*
X63965582Y-39480329D01*
X63893671Y-39491517D01*
X63816289Y-39495350D01*
X63736844Y-39491828D01*
X63662904Y-39481550D01*
X63593335Y-39463817D01*
X63536875Y-39440334D01*
G37*
G36*
X65001783Y-38598551D02*
G01*
X64656118Y-39479719D01*
X64427995Y-39479719D01*
X64776346Y-38678602D01*
X64320040Y-38678602D01*
X64320040Y-38498839D01*
X65001783Y-38498839D01*
X65001783Y-38598551D01*
G37*
D12*
G36*
X78146035Y-77943326D02*
G01*
X78090990Y-77970752D01*
X78021966Y-77988769D01*
X77935971Y-77995350D01*
X77867901Y-77989468D01*
X77808435Y-77972693D01*
X77756296Y-77945915D01*
X77710425Y-77909438D01*
X77670036Y-77862970D01*
X77635929Y-77807912D01*
X77609213Y-77746185D01*
X77589668Y-77676849D01*
X77577479Y-77598655D01*
X77573224Y-77510101D01*
X77577927Y-77416334D01*
X77591468Y-77332739D01*
X77613320Y-77257803D01*
X77643400Y-77190283D01*
X77682080Y-77129265D01*
X77727670Y-77077225D01*
X77777946Y-77036851D01*
X77833568Y-77007587D01*
X77895444Y-76989486D01*
X77964684Y-76983208D01*
X78036219Y-76987715D01*
X78096104Y-77000255D01*
X78146035Y-77019600D01*
X78146035Y-77233312D01*
X78095189Y-77200174D01*
X78039539Y-77180026D01*
X77977965Y-77173106D01*
X77927097Y-77178908D01*
X77883085Y-77195501D01*
X77844674Y-77222332D01*
X77810949Y-77259752D01*
X77783859Y-77305422D01*
X77764148Y-77358694D01*
X77751793Y-77421040D01*
X77747430Y-77494408D01*
X77751545Y-77564804D01*
X77763206Y-77624833D01*
X77781818Y-77676298D01*
X77807377Y-77720577D01*
X77839269Y-77756807D01*
X77876093Y-77782882D01*
X77918812Y-77799086D01*
X77968760Y-77804780D01*
X78032022Y-77797610D01*
X78090787Y-77776489D01*
X78146035Y-77741337D01*
X78146035Y-77943326D01*
G37*
G36*
X78742155Y-77979719D02*
G01*
X78277468Y-77979719D01*
X78277468Y-77807772D01*
X78429646Y-77807772D01*
X78429646Y-77198141D01*
X78273346Y-77245036D01*
X78273346Y-77069181D01*
X78591030Y-76983208D01*
X78591030Y-77807772D01*
X78742155Y-77807772D01*
X78742155Y-77979719D01*
G37*
D11*
G36*
X87914795Y-56440005D02*
G01*
X88006553Y-56456434D01*
X88083323Y-56481940D01*
X88147379Y-56515605D01*
X88200559Y-56557109D01*
X88244176Y-56606751D01*
X88278936Y-56665430D01*
X88304889Y-56734584D01*
X88321424Y-56816098D01*
X88327306Y-56912226D01*
X88321098Y-57003881D01*
X88303289Y-57084847D01*
X88274653Y-57156741D01*
X88235336Y-57220880D01*
X88184851Y-57278224D01*
X88125762Y-57326336D01*
X88059449Y-57364077D01*
X87984894Y-57391720D01*
X87900754Y-57408974D01*
X87805420Y-57415000D01*
X87458412Y-57415000D01*
X87458412Y-57236031D01*
X87679024Y-57236031D01*
X87788323Y-57236031D01*
X87859232Y-57230118D01*
X87919132Y-57213394D01*
X87970046Y-57186677D01*
X88013454Y-57149813D01*
X88048118Y-57104516D01*
X88073478Y-57051367D01*
X88089439Y-56988844D01*
X88095092Y-56914973D01*
X88089512Y-56845427D01*
X88073744Y-56786665D01*
X88048626Y-56736753D01*
X88014125Y-56694239D01*
X87971426Y-56660195D01*
X87920515Y-56635204D01*
X87859749Y-56619392D01*
X87786980Y-56613761D01*
X87679024Y-56613761D01*
X87679024Y-57236031D01*
X87458412Y-57236031D01*
X87458412Y-56434120D01*
X87805420Y-56434120D01*
X87914795Y-56440005D01*
G37*
G36*
X89113768Y-57415000D02*
G01*
X88494185Y-57415000D01*
X88494185Y-57243053D01*
X88697090Y-57243053D01*
X88697090Y-56633422D01*
X88488689Y-56680317D01*
X88488689Y-56504462D01*
X88912267Y-56418489D01*
X88912267Y-57243053D01*
X89113768Y-57243053D01*
X89113768Y-57415000D01*
G37*
D12*
G36*
X104246035Y-64393326D02*
G01*
X104190990Y-64420752D01*
X104121966Y-64438769D01*
X104035971Y-64445350D01*
X103967901Y-64439468D01*
X103908435Y-64422693D01*
X103856296Y-64395915D01*
X103810425Y-64359438D01*
X103770036Y-64312970D01*
X103735929Y-64257912D01*
X103709213Y-64196185D01*
X103689668Y-64126849D01*
X103677479Y-64048655D01*
X103673224Y-63960101D01*
X103677927Y-63866334D01*
X103691468Y-63782739D01*
X103713320Y-63707803D01*
X103743400Y-63640283D01*
X103782080Y-63579265D01*
X103827670Y-63527225D01*
X103877946Y-63486851D01*
X103933568Y-63457587D01*
X103995444Y-63439486D01*
X104064684Y-63433208D01*
X104136219Y-63437715D01*
X104196104Y-63450255D01*
X104246035Y-63469600D01*
X104246035Y-63683312D01*
X104195189Y-63650174D01*
X104139539Y-63630026D01*
X104077965Y-63623106D01*
X104027097Y-63628908D01*
X103983085Y-63645501D01*
X103944674Y-63672332D01*
X103910949Y-63709752D01*
X103883859Y-63755422D01*
X103864148Y-63808694D01*
X103851793Y-63871040D01*
X103847430Y-63944408D01*
X103851545Y-64014804D01*
X103863206Y-64074833D01*
X103881818Y-64126298D01*
X103907377Y-64170577D01*
X103939269Y-64206807D01*
X103976093Y-64232882D01*
X104018812Y-64249086D01*
X104068760Y-64254780D01*
X104132022Y-64247610D01*
X104190787Y-64226489D01*
X104246035Y-64191337D01*
X104246035Y-64393326D01*
G37*
G36*
X104778133Y-64066285D02*
G01*
X104866244Y-64066285D01*
X104866244Y-64218693D01*
X104778133Y-64218693D01*
X104778133Y-64429719D01*
X104630580Y-64429719D01*
X104630580Y-64218693D01*
X104310332Y-64218693D01*
X104310332Y-64082649D01*
X104318295Y-64066285D01*
X104444558Y-64066285D01*
X104630580Y-64066285D01*
X104630580Y-63757562D01*
X104632595Y-63663773D01*
X104629527Y-63663773D01*
X104601866Y-63740465D01*
X104444558Y-64066285D01*
X104318295Y-64066285D01*
X104618765Y-63448839D01*
X104778133Y-63448839D01*
X104778133Y-64066285D01*
G37*
D11*
G36*
X87152015Y-77554125D02*
G01*
X87145856Y-77655508D01*
X87128769Y-77738987D01*
X87102339Y-77807526D01*
X87067415Y-77863602D01*
X87024048Y-77909083D01*
X86971486Y-77945109D01*
X86908242Y-77971992D01*
X86832206Y-77989191D01*
X86740771Y-77995350D01*
X86652225Y-77989355D01*
X86578556Y-77972610D01*
X86517240Y-77946422D01*
X86466240Y-77911302D01*
X86424126Y-77866928D01*
X86390185Y-77812172D01*
X86364481Y-77745195D01*
X86347856Y-77663566D01*
X86341861Y-77564384D01*
X86341861Y-76998839D01*
X86563145Y-76998839D01*
X86563145Y-77567070D01*
X86569739Y-77648192D01*
X86587243Y-77707451D01*
X86613425Y-77750055D01*
X86647863Y-77779708D01*
X86692016Y-77798135D01*
X86748953Y-77804780D01*
X86805062Y-77798310D01*
X86848480Y-77780397D01*
X86882246Y-77751651D01*
X86907844Y-77710477D01*
X86924918Y-77653358D01*
X86931341Y-77575313D01*
X86931341Y-76998839D01*
X87152015Y-76998839D01*
X87152015Y-77554125D01*
G37*
G36*
X87989279Y-77979719D02*
G01*
X87369696Y-77979719D01*
X87369696Y-77807772D01*
X87572601Y-77807772D01*
X87572601Y-77198141D01*
X87364201Y-77245036D01*
X87364201Y-77069181D01*
X87787779Y-76983208D01*
X87787779Y-77807772D01*
X87989279Y-77807772D01*
X87989279Y-77979719D01*
G37*
G36*
X63536875Y-54440334D02*
G01*
X63536875Y-54220210D01*
X63599264Y-54264906D01*
X63665957Y-54296414D01*
X63736385Y-54315533D01*
X63806702Y-54321815D01*
X63847025Y-54319820D01*
X63879487Y-54314366D01*
X63908865Y-54305057D01*
X63931388Y-54293544D01*
X63949910Y-54278712D01*
X63962468Y-54262220D01*
X63970151Y-54243423D01*
X63972726Y-54223019D01*
X63968593Y-54195823D01*
X63956301Y-54171850D01*
X63937514Y-54150720D01*
X63911544Y-54130207D01*
X63844255Y-54093387D01*
X63760296Y-54057178D01*
X63686459Y-54020784D01*
X63630429Y-53981805D01*
X63589143Y-53940491D01*
X63558111Y-53891932D01*
X63539296Y-53837006D01*
X63532784Y-53773979D01*
X63536440Y-53723786D01*
X63546849Y-53680355D01*
X63563498Y-53642576D01*
X63599753Y-53592556D01*
X63647212Y-53552145D01*
X63703450Y-53521733D01*
X63769822Y-53499938D01*
X63840796Y-53487477D01*
X63917405Y-53483208D01*
X63991759Y-53485650D01*
X64052960Y-53492367D01*
X64110538Y-53504185D01*
X64161954Y-53520516D01*
X64161954Y-53723176D01*
X64108281Y-53693989D01*
X64048503Y-53673045D01*
X63987381Y-53660772D01*
X63929679Y-53656742D01*
X63893063Y-53658608D01*
X63861352Y-53663886D01*
X63832221Y-53672792D01*
X63809450Y-53683975D01*
X63790364Y-53698483D01*
X63776660Y-53714994D01*
X63767992Y-53734053D01*
X63765059Y-53755538D01*
X63768334Y-53778950D01*
X63778004Y-53799563D01*
X63793175Y-53817923D01*
X63814884Y-53836383D01*
X63872953Y-53870516D01*
X63950195Y-53905015D01*
X64007042Y-53930885D01*
X64055708Y-53957222D01*
X64099788Y-53987082D01*
X64136003Y-54019626D01*
X64165549Y-54056931D01*
X64187233Y-54099188D01*
X64200319Y-54146164D01*
X64205001Y-54203236D01*
X64201229Y-54257100D01*
X64190628Y-54302460D01*
X64173921Y-54340744D01*
X64137267Y-54391108D01*
X64089536Y-54430870D01*
X64032928Y-54460052D01*
X63965582Y-54480329D01*
X63893671Y-54491517D01*
X63816289Y-54495350D01*
X63736844Y-54491828D01*
X63662904Y-54481550D01*
X63593335Y-54463817D01*
X63536875Y-54440334D01*
G37*
G36*
X64576189Y-54295865D02*
G01*
X64576189Y-54299956D01*
X64973756Y-54299956D01*
X64973756Y-54479719D01*
X64328894Y-54479719D01*
X64328894Y-54310886D01*
X64609712Y-54043012D01*
X64686331Y-53963027D01*
X64728902Y-53906542D01*
X64748277Y-53868660D01*
X64759629Y-53830215D01*
X64763402Y-53790587D01*
X64757103Y-53740096D01*
X64740079Y-53703853D01*
X64713024Y-53678098D01*
X64673791Y-53661429D01*
X64617894Y-53655155D01*
X64557201Y-53661136D01*
X64497292Y-53679287D01*
X64437168Y-53710568D01*
X64376032Y-53756760D01*
X64376032Y-53566861D01*
X64441669Y-53530393D01*
X64511072Y-53504382D01*
X64584985Y-53488588D01*
X64664300Y-53483208D01*
X64739592Y-53488550D01*
X64802449Y-53503514D01*
X64855006Y-53527023D01*
X64898956Y-53558740D01*
X64935452Y-53599223D01*
X64961543Y-53645825D01*
X64977683Y-53699757D01*
X64983342Y-53762744D01*
X64976469Y-53825865D01*
X64955058Y-53891603D01*
X64917033Y-53961342D01*
X64859258Y-54036301D01*
X64777690Y-54117506D01*
X64576189Y-54295865D01*
G37*
D12*
G36*
X149648586Y-65489688D02*
G01*
X149705178Y-65504840D01*
X149749445Y-65527748D01*
X149783695Y-65557342D01*
X149809670Y-65593409D01*
X149828417Y-65636623D01*
X149840178Y-65688467D01*
X149844363Y-65751078D01*
X149841334Y-65801017D01*
X149832548Y-65845844D01*
X149818295Y-65887287D01*
X149799254Y-65924246D01*
X149775673Y-65956514D01*
X149747231Y-65984452D01*
X149715372Y-66006848D01*
X149679362Y-66024141D01*
X149679362Y-66026889D01*
X149695276Y-66035713D01*
X149711098Y-66049115D01*
X149740819Y-66084958D01*
X149768251Y-66129043D01*
X149792065Y-66175205D01*
X149930917Y-66465000D01*
X149740865Y-66465000D01*
X149626605Y-66212819D01*
X149602013Y-66161589D01*
X149578199Y-66122998D01*
X149553058Y-66098391D01*
X149539520Y-66092009D01*
X149524619Y-66089842D01*
X149480060Y-66089842D01*
X149480060Y-66465000D01*
X149314600Y-66465000D01*
X149314600Y-65923147D01*
X149480060Y-65923147D01*
X149551775Y-65923147D01*
X149586083Y-65918239D01*
X149614160Y-65904396D01*
X149637367Y-65881992D01*
X149655624Y-65851773D01*
X149666445Y-65817668D01*
X149670157Y-65778372D01*
X149665414Y-65731362D01*
X149652425Y-65697049D01*
X149631340Y-65672127D01*
X149600102Y-65655676D01*
X149554889Y-65649412D01*
X149480060Y-65649412D01*
X149480060Y-65923147D01*
X149314600Y-65923147D01*
X149314600Y-65484120D01*
X149576917Y-65484120D01*
X149648586Y-65489688D01*
G37*
G36*
X149999701Y-66438316D02*
G01*
X149999701Y-66253974D01*
X150051488Y-66288981D01*
X150104646Y-66309610D01*
X150160032Y-66316500D01*
X150201692Y-66311387D01*
X150234435Y-66297311D01*
X150260186Y-66275284D01*
X150280068Y-66244901D01*
X150292093Y-66208220D01*
X150296319Y-66163299D01*
X150292195Y-66118941D01*
X150280656Y-66084160D01*
X150261826Y-66056630D01*
X150234346Y-66035392D01*
X150195611Y-66021035D01*
X150142080Y-66015593D01*
X150089402Y-66018386D01*
X150020676Y-66027866D01*
X150020676Y-65484120D01*
X150427478Y-65484120D01*
X150427478Y-65663883D01*
X150159024Y-65663883D01*
X150159024Y-65855553D01*
X150219978Y-65851461D01*
X150276514Y-65857025D01*
X150323905Y-65872654D01*
X150363737Y-65897316D01*
X150397253Y-65930779D01*
X150424885Y-65973096D01*
X150444712Y-66021843D01*
X150457006Y-66078284D01*
X150461320Y-66144187D01*
X150456317Y-66216594D01*
X150441894Y-66280056D01*
X150418307Y-66336319D01*
X150384979Y-66386598D01*
X150345001Y-66426482D01*
X150298124Y-66455705D01*
X150243021Y-66474112D01*
X150177984Y-66480631D01*
X150107711Y-66475420D01*
X150048870Y-66460885D01*
X149999701Y-66438316D01*
G37*
D11*
G36*
X111914795Y-56440005D02*
G01*
X112006553Y-56456434D01*
X112083323Y-56481940D01*
X112147379Y-56515605D01*
X112200559Y-56557109D01*
X112244176Y-56606751D01*
X112278936Y-56665430D01*
X112304889Y-56734584D01*
X112321424Y-56816098D01*
X112327306Y-56912226D01*
X112321098Y-57003881D01*
X112303289Y-57084847D01*
X112274653Y-57156741D01*
X112235336Y-57220880D01*
X112184851Y-57278224D01*
X112125762Y-57326336D01*
X112059449Y-57364077D01*
X111984894Y-57391720D01*
X111900754Y-57408974D01*
X111805420Y-57415000D01*
X111458412Y-57415000D01*
X111458412Y-57236031D01*
X111679024Y-57236031D01*
X111788323Y-57236031D01*
X111859232Y-57230118D01*
X111919132Y-57213394D01*
X111970046Y-57186677D01*
X112013454Y-57149813D01*
X112048118Y-57104516D01*
X112073478Y-57051367D01*
X112089439Y-56988844D01*
X112095092Y-56914973D01*
X112089512Y-56845427D01*
X112073744Y-56786665D01*
X112048626Y-56736753D01*
X112014125Y-56694239D01*
X111971426Y-56660195D01*
X111920515Y-56635204D01*
X111859749Y-56619392D01*
X111786980Y-56613761D01*
X111679024Y-56613761D01*
X111679024Y-57236031D01*
X111458412Y-57236031D01*
X111458412Y-56434120D01*
X111805420Y-56434120D01*
X111914795Y-56440005D01*
G37*
G36*
X113028405Y-57051566D02*
G01*
X113145886Y-57051566D01*
X113145886Y-57203974D01*
X113028405Y-57203974D01*
X113028405Y-57415000D01*
X112831667Y-57415000D01*
X112831667Y-57203974D01*
X112404670Y-57203974D01*
X112404670Y-57067930D01*
X112415288Y-57051566D01*
X112583639Y-57051566D01*
X112831667Y-57051566D01*
X112831667Y-56742843D01*
X112834354Y-56649054D01*
X112830263Y-56649054D01*
X112793382Y-56725746D01*
X112583639Y-57051566D01*
X112415288Y-57051566D01*
X112815914Y-56434120D01*
X113028405Y-56434120D01*
X113028405Y-57051566D01*
G37*
D10*
G36*
X131699445Y-51494155D02*
G01*
X131699445Y-52020132D01*
X132227131Y-52020132D01*
X132227131Y-52296127D01*
X131699445Y-52296127D01*
X131699445Y-52824790D01*
X131422107Y-52824790D01*
X131422107Y-52296127D01*
X130890635Y-52296127D01*
X130890635Y-52020132D01*
X131422107Y-52020132D01*
X131422107Y-51494155D01*
X131699445Y-51494155D01*
G37*
G36*
X131716001Y-46436017D02*
G01*
X131716001Y-47556908D01*
X131411186Y-47556908D01*
X131411186Y-46436017D01*
X131716001Y-46436017D01*
G37*
D11*
G36*
X136421120Y-49472729D02*
G01*
X136414509Y-49571942D01*
X136396174Y-49653228D01*
X136367736Y-49719716D01*
X136329895Y-49773941D01*
X136291497Y-49810507D01*
X136246969Y-49839225D01*
X136195409Y-49860381D01*
X136135558Y-49873711D01*
X136065869Y-49878416D01*
X135990839Y-49871589D01*
X135923109Y-49851671D01*
X135923109Y-49643943D01*
X135962735Y-49668474D01*
X136004764Y-49682961D01*
X136050176Y-49687846D01*
X136094828Y-49682055D01*
X136130138Y-49665743D01*
X136158400Y-49638832D01*
X136180440Y-49599096D01*
X136195459Y-49542533D01*
X136201179Y-49463814D01*
X136201179Y-48881905D01*
X136421120Y-48881905D01*
X136421120Y-49472729D01*
G37*
G36*
X136590808Y-49823400D02*
G01*
X136590808Y-49603276D01*
X136653197Y-49647972D01*
X136719890Y-49679480D01*
X136790317Y-49698599D01*
X136860635Y-49704881D01*
X136900958Y-49702886D01*
X136933419Y-49697432D01*
X136962798Y-49688123D01*
X136985321Y-49676610D01*
X137003843Y-49661778D01*
X137016401Y-49645286D01*
X137024084Y-49626489D01*
X137026659Y-49606085D01*
X137022525Y-49578889D01*
X137010234Y-49554916D01*
X136991447Y-49533786D01*
X136965476Y-49513273D01*
X136898187Y-49476453D01*
X136814229Y-49440244D01*
X136740392Y-49403850D01*
X136684362Y-49364871D01*
X136643076Y-49323557D01*
X136612044Y-49274998D01*
X136593229Y-49220072D01*
X136586717Y-49157045D01*
X136590373Y-49106852D01*
X136600782Y-49063421D01*
X136617430Y-49025642D01*
X136653686Y-48975622D01*
X136701144Y-48935211D01*
X136757383Y-48904799D01*
X136823754Y-48883004D01*
X136894729Y-48870543D01*
X136971338Y-48866274D01*
X137045692Y-48868716D01*
X137106893Y-48875433D01*
X137164471Y-48887251D01*
X137215886Y-48903582D01*
X137215886Y-49106242D01*
X137162214Y-49077055D01*
X137102435Y-49056111D01*
X137041314Y-49043838D01*
X136983611Y-49039808D01*
X136946996Y-49041674D01*
X136915284Y-49046952D01*
X136886154Y-49055858D01*
X136863383Y-49067041D01*
X136844297Y-49081549D01*
X136830593Y-49098060D01*
X136821925Y-49117119D01*
X136818992Y-49138604D01*
X136822267Y-49162016D01*
X136831937Y-49182629D01*
X136847108Y-49200989D01*
X136868817Y-49219449D01*
X136926886Y-49253582D01*
X137004128Y-49288081D01*
X137060975Y-49313951D01*
X137109641Y-49340288D01*
X137153721Y-49370148D01*
X137189935Y-49402692D01*
X137219482Y-49439997D01*
X137241165Y-49482254D01*
X137254252Y-49529230D01*
X137258934Y-49586302D01*
X137255162Y-49640166D01*
X137244561Y-49685526D01*
X137227854Y-49723810D01*
X137191200Y-49774174D01*
X137143468Y-49813936D01*
X137086861Y-49843118D01*
X137019515Y-49863395D01*
X136947604Y-49874583D01*
X136870222Y-49878416D01*
X136790776Y-49874894D01*
X136716837Y-49864616D01*
X136647268Y-49846883D01*
X136590808Y-49823400D01*
G37*
G36*
X138108350Y-49061546D02*
G01*
X137828936Y-49061546D01*
X137828936Y-49862785D01*
X137607591Y-49862785D01*
X137607591Y-49061546D01*
X137329581Y-49061546D01*
X137329581Y-48881905D01*
X138108350Y-48881905D01*
X138108350Y-49061546D01*
G37*
D12*
G36*
X153398586Y-65489688D02*
G01*
X153455178Y-65504840D01*
X153499445Y-65527748D01*
X153533695Y-65557342D01*
X153559670Y-65593409D01*
X153578417Y-65636623D01*
X153590178Y-65688467D01*
X153594363Y-65751078D01*
X153591334Y-65801017D01*
X153582548Y-65845844D01*
X153568295Y-65887287D01*
X153549254Y-65924246D01*
X153525673Y-65956514D01*
X153497231Y-65984452D01*
X153465372Y-66006848D01*
X153429362Y-66024141D01*
X153429362Y-66026889D01*
X153445276Y-66035713D01*
X153461098Y-66049115D01*
X153490819Y-66084958D01*
X153518251Y-66129043D01*
X153542065Y-66175205D01*
X153680917Y-66465000D01*
X153490865Y-66465000D01*
X153376605Y-66212819D01*
X153352013Y-66161589D01*
X153328199Y-66122998D01*
X153303058Y-66098391D01*
X153289520Y-66092009D01*
X153274619Y-66089842D01*
X153230060Y-66089842D01*
X153230060Y-66465000D01*
X153064600Y-66465000D01*
X153064600Y-65923147D01*
X153230060Y-65923147D01*
X153301775Y-65923147D01*
X153336083Y-65918239D01*
X153364160Y-65904396D01*
X153387367Y-65881992D01*
X153405624Y-65851773D01*
X153416445Y-65817668D01*
X153420157Y-65778372D01*
X153415414Y-65731362D01*
X153402425Y-65697049D01*
X153381340Y-65672127D01*
X153350102Y-65655676D01*
X153304889Y-65649412D01*
X153230060Y-65649412D01*
X153230060Y-65923147D01*
X153064600Y-65923147D01*
X153064600Y-65484120D01*
X153326917Y-65484120D01*
X153398586Y-65489688D01*
G37*
G36*
X154106769Y-65472106D02*
G01*
X154149925Y-65481733D01*
X154182103Y-65495844D01*
X154182103Y-65675607D01*
X154143809Y-65651758D01*
X154103368Y-65637460D01*
X154060149Y-65632620D01*
X154020794Y-65638013D01*
X153986416Y-65653607D01*
X153955947Y-65679337D01*
X153928716Y-65716212D01*
X153907623Y-65759298D01*
X153891695Y-65810009D01*
X153881188Y-65869709D01*
X153876738Y-65940061D01*
X153879807Y-65940061D01*
X153909255Y-65894430D01*
X153943982Y-65862406D01*
X153985007Y-65842743D01*
X154034046Y-65835830D01*
X154079132Y-65841377D01*
X154117761Y-65857217D01*
X154151186Y-65882889D01*
X154180271Y-65918934D01*
X154203241Y-65962185D01*
X154220061Y-66012334D01*
X154230627Y-66070667D01*
X154234356Y-66138813D01*
X154229657Y-66210858D01*
X154216079Y-66274661D01*
X154193883Y-66331768D01*
X154162640Y-66383300D01*
X154124558Y-66425692D01*
X154082107Y-66455801D01*
X154034408Y-66474239D01*
X153980236Y-66480631D01*
X153931219Y-66475509D01*
X153888249Y-66460815D01*
X153850295Y-66437072D01*
X153816567Y-66404132D01*
X153786567Y-66361196D01*
X153757730Y-66299892D01*
X153735979Y-66225426D01*
X153723277Y-66143698D01*
X153881867Y-66143698D01*
X153885018Y-66190182D01*
X153894056Y-66230496D01*
X153908749Y-66265819D01*
X153929025Y-66294348D01*
X153952468Y-66310859D01*
X153980236Y-66316500D01*
X154007608Y-66311362D01*
X154030445Y-66296490D01*
X154049891Y-66271254D01*
X154063980Y-66239381D01*
X154072864Y-66200612D01*
X154076040Y-66153224D01*
X154071292Y-66091315D01*
X154058852Y-66048677D01*
X154040080Y-66020025D01*
X154014353Y-66002451D01*
X153979229Y-65996053D01*
X153950936Y-66000878D01*
X153927674Y-66014663D01*
X153908246Y-66037575D01*
X153893885Y-66066977D01*
X153885002Y-66101872D01*
X153881867Y-66143698D01*
X153723277Y-66143698D01*
X153721956Y-66135201D01*
X153716912Y-66026095D01*
X153720982Y-65922547D01*
X153732567Y-65831737D01*
X153750937Y-65752019D01*
X153775651Y-65681953D01*
X153806580Y-65620347D01*
X153845189Y-65565463D01*
X153888087Y-65523530D01*
X153935848Y-65493446D01*
X153989394Y-65474919D01*
X154049937Y-65468489D01*
X154106769Y-65472106D01*
G37*
G36*
X54523586Y-69489688D02*
G01*
X54580178Y-69504840D01*
X54624445Y-69527748D01*
X54658695Y-69557342D01*
X54684670Y-69593409D01*
X54703417Y-69636623D01*
X54715178Y-69688467D01*
X54719363Y-69751078D01*
X54716334Y-69801017D01*
X54707548Y-69845844D01*
X54693295Y-69887287D01*
X54674254Y-69924246D01*
X54650673Y-69956514D01*
X54622231Y-69984452D01*
X54590372Y-70006848D01*
X54554362Y-70024141D01*
X54554362Y-70026889D01*
X54570276Y-70035713D01*
X54586098Y-70049115D01*
X54615819Y-70084958D01*
X54643251Y-70129043D01*
X54667065Y-70175205D01*
X54805917Y-70465000D01*
X54615865Y-70465000D01*
X54501605Y-70212819D01*
X54477013Y-70161589D01*
X54453199Y-70122998D01*
X54428058Y-70098391D01*
X54414520Y-70092009D01*
X54399619Y-70089842D01*
X54355060Y-70089842D01*
X54355060Y-70465000D01*
X54189600Y-70465000D01*
X54189600Y-69923147D01*
X54355060Y-69923147D01*
X54426775Y-69923147D01*
X54461083Y-69918239D01*
X54489160Y-69904396D01*
X54512367Y-69881992D01*
X54530624Y-69851773D01*
X54541445Y-69817668D01*
X54545157Y-69778372D01*
X54540414Y-69731362D01*
X54527425Y-69697049D01*
X54506340Y-69672127D01*
X54475102Y-69655676D01*
X54429889Y-69649412D01*
X54355060Y-69649412D01*
X54355060Y-69923147D01*
X54189600Y-69923147D01*
X54189600Y-69484120D01*
X54451917Y-69484120D01*
X54523586Y-69489688D01*
G37*
G36*
X55278435Y-70101566D02*
G01*
X55366546Y-70101566D01*
X55366546Y-70253974D01*
X55278435Y-70253974D01*
X55278435Y-70465000D01*
X55130882Y-70465000D01*
X55130882Y-70253974D01*
X54810634Y-70253974D01*
X54810634Y-70117930D01*
X54818597Y-70101566D01*
X54944860Y-70101566D01*
X55130882Y-70101566D01*
X55130882Y-69792843D01*
X55132897Y-69699054D01*
X55129828Y-69699054D01*
X55102168Y-69775746D01*
X54944860Y-70101566D01*
X54818597Y-70101566D01*
X55119066Y-69484120D01*
X55278435Y-69484120D01*
X55278435Y-70101566D01*
G37*
G36*
X88246035Y-64393326D02*
G01*
X88190990Y-64420752D01*
X88121966Y-64438769D01*
X88035971Y-64445350D01*
X87967901Y-64439468D01*
X87908435Y-64422693D01*
X87856296Y-64395915D01*
X87810425Y-64359438D01*
X87770036Y-64312970D01*
X87735929Y-64257912D01*
X87709213Y-64196185D01*
X87689668Y-64126849D01*
X87677479Y-64048655D01*
X87673224Y-63960101D01*
X87677927Y-63866334D01*
X87691468Y-63782739D01*
X87713320Y-63707803D01*
X87743400Y-63640283D01*
X87782080Y-63579265D01*
X87827670Y-63527225D01*
X87877946Y-63486851D01*
X87933568Y-63457587D01*
X87995444Y-63439486D01*
X88064684Y-63433208D01*
X88136219Y-63437715D01*
X88196104Y-63450255D01*
X88246035Y-63469600D01*
X88246035Y-63683312D01*
X88195189Y-63650174D01*
X88139539Y-63630026D01*
X88077965Y-63623106D01*
X88027097Y-63628908D01*
X87983085Y-63645501D01*
X87944674Y-63672332D01*
X87910949Y-63709752D01*
X87883859Y-63755422D01*
X87864148Y-63808694D01*
X87851793Y-63871040D01*
X87847430Y-63944408D01*
X87851545Y-64014804D01*
X87863206Y-64074833D01*
X87881818Y-64126298D01*
X87907377Y-64170577D01*
X87939269Y-64206807D01*
X87976093Y-64232882D01*
X88018812Y-64249086D01*
X88068760Y-64254780D01*
X88132022Y-64247610D01*
X88190787Y-64226489D01*
X88246035Y-64191337D01*
X88246035Y-64393326D01*
G37*
G36*
X88531661Y-64245865D02*
G01*
X88531661Y-64249956D01*
X88829836Y-64249956D01*
X88829836Y-64429719D01*
X88346190Y-64429719D01*
X88346190Y-64260886D01*
X88556803Y-63993012D01*
X88614268Y-63913027D01*
X88646196Y-63856542D01*
X88660727Y-63818660D01*
X88669241Y-63780215D01*
X88672071Y-63740587D01*
X88667347Y-63690096D01*
X88654579Y-63653853D01*
X88634287Y-63628098D01*
X88604863Y-63611429D01*
X88562940Y-63605155D01*
X88517420Y-63611136D01*
X88472488Y-63629287D01*
X88427396Y-63660568D01*
X88381544Y-63706760D01*
X88381544Y-63516861D01*
X88430771Y-63480393D01*
X88482824Y-63454382D01*
X88538258Y-63438588D01*
X88597744Y-63433208D01*
X88654214Y-63438550D01*
X88701356Y-63453514D01*
X88740774Y-63477023D01*
X88773737Y-63508740D01*
X88801108Y-63549223D01*
X88820677Y-63595825D01*
X88832782Y-63649757D01*
X88837026Y-63712744D01*
X88831871Y-63775865D01*
X88815813Y-63841603D01*
X88787294Y-63911342D01*
X88743963Y-63986301D01*
X88682787Y-64067506D01*
X88531661Y-64245865D01*
G37*
G36*
X126266230Y-77954125D02*
G01*
X126261611Y-78055508D01*
X126248796Y-78138987D01*
X126228974Y-78207526D01*
X126202781Y-78263602D01*
X126170255Y-78309083D01*
X126130833Y-78345109D01*
X126083400Y-78371992D01*
X126026373Y-78389191D01*
X125957797Y-78395350D01*
X125891388Y-78389355D01*
X125836136Y-78372610D01*
X125790149Y-78346422D01*
X125751899Y-78311302D01*
X125720314Y-78266928D01*
X125694858Y-78212172D01*
X125675580Y-78145195D01*
X125663111Y-78063566D01*
X125658615Y-77964384D01*
X125658615Y-77398839D01*
X125824578Y-77398839D01*
X125824578Y-77967070D01*
X125829523Y-78048192D01*
X125842651Y-78107451D01*
X125862288Y-78150055D01*
X125888116Y-78179708D01*
X125921231Y-78198135D01*
X125963934Y-78204780D01*
X126006016Y-78198310D01*
X126038579Y-78180397D01*
X126063904Y-78151651D01*
X126083102Y-78110477D01*
X126095908Y-78053358D01*
X126100725Y-77975313D01*
X126100725Y-77398839D01*
X126266230Y-77398839D01*
X126266230Y-77954125D01*
G37*
G36*
X126583685Y-78195865D02*
G01*
X126583685Y-78199956D01*
X126881860Y-78199956D01*
X126881860Y-78379719D01*
X126398213Y-78379719D01*
X126398213Y-78210886D01*
X126608827Y-77943012D01*
X126666291Y-77863027D01*
X126698220Y-77806542D01*
X126712751Y-77768660D01*
X126721265Y-77730215D01*
X126724094Y-77690587D01*
X126719370Y-77640096D01*
X126706602Y-77603853D01*
X126686311Y-77578098D01*
X126656886Y-77561429D01*
X126614963Y-77555155D01*
X126569444Y-77561136D01*
X126524512Y-77579287D01*
X126479419Y-77610568D01*
X126433567Y-77656760D01*
X126433567Y-77466861D01*
X126482795Y-77430393D01*
X126534847Y-77404382D01*
X126590282Y-77388588D01*
X126649768Y-77383208D01*
X126706237Y-77388550D01*
X126753380Y-77403514D01*
X126792797Y-77427023D01*
X126825760Y-77458740D01*
X126853132Y-77499223D01*
X126872700Y-77545825D01*
X126884805Y-77599757D01*
X126889050Y-77662744D01*
X126883895Y-77725865D01*
X126867836Y-77791603D01*
X126839318Y-77861342D01*
X126795986Y-77936301D01*
X126734810Y-78017506D01*
X126583685Y-78195865D01*
G37*
G36*
X129721702Y-56674969D02*
G01*
X129778294Y-56690121D01*
X129822561Y-56713029D01*
X129856811Y-56742623D01*
X129882786Y-56778690D01*
X129901533Y-56821904D01*
X129913294Y-56873748D01*
X129917479Y-56936359D01*
X129914450Y-56986298D01*
X129905664Y-57031125D01*
X129891411Y-57072568D01*
X129872370Y-57109527D01*
X129848789Y-57141795D01*
X129820347Y-57169733D01*
X129788488Y-57192129D01*
X129752478Y-57209422D01*
X129752478Y-57212170D01*
X129768392Y-57220994D01*
X129784214Y-57234396D01*
X129813935Y-57270239D01*
X129841367Y-57314324D01*
X129865181Y-57360486D01*
X130004033Y-57650281D01*
X129813981Y-57650281D01*
X129699721Y-57398100D01*
X129675129Y-57346870D01*
X129651315Y-57308279D01*
X129626174Y-57283672D01*
X129612636Y-57277290D01*
X129597735Y-57275123D01*
X129553176Y-57275123D01*
X129553176Y-57650281D01*
X129387716Y-57650281D01*
X129387716Y-57108428D01*
X129553176Y-57108428D01*
X129624891Y-57108428D01*
X129659199Y-57103520D01*
X129687276Y-57089677D01*
X129710483Y-57067273D01*
X129728740Y-57037054D01*
X129739561Y-57002949D01*
X129743273Y-56963653D01*
X129738530Y-56916643D01*
X129725541Y-56882330D01*
X129704456Y-56857408D01*
X129673218Y-56840957D01*
X129628005Y-56834693D01*
X129553176Y-56834693D01*
X129553176Y-57108428D01*
X129387716Y-57108428D01*
X129387716Y-56669401D01*
X129650033Y-56669401D01*
X129721702Y-56674969D01*
G37*
G36*
X130540573Y-57650281D02*
G01*
X130075886Y-57650281D01*
X130075886Y-57478334D01*
X130228064Y-57478334D01*
X130228064Y-56868703D01*
X130071764Y-56915598D01*
X130071764Y-56739743D01*
X130389448Y-56653770D01*
X130389448Y-57478334D01*
X130540573Y-57478334D01*
X130540573Y-57650281D01*
G37*
G36*
X130957789Y-56659680D02*
G01*
X131002650Y-56676448D01*
X131041110Y-56703344D01*
X131074241Y-56740630D01*
X131102616Y-56789525D01*
X131126263Y-56852108D01*
X131144666Y-56931169D01*
X131156808Y-57030080D01*
X131161240Y-57152697D01*
X131157869Y-57256178D01*
X131148438Y-57344030D01*
X131133814Y-57418336D01*
X131114641Y-57480964D01*
X131091310Y-57533532D01*
X131060799Y-57581332D01*
X131026179Y-57617808D01*
X130986937Y-57644025D01*
X130942184Y-57660247D01*
X130890726Y-57665912D01*
X130836166Y-57659968D01*
X130789890Y-57643143D01*
X130750379Y-57616251D01*
X130716506Y-57579146D01*
X130687634Y-57530733D01*
X130663676Y-57469069D01*
X130645095Y-57391494D01*
X130632866Y-57294767D01*
X130628409Y-57175167D01*
X130628573Y-57170099D01*
X130792861Y-57170099D01*
X130797583Y-57296938D01*
X130809627Y-57383753D01*
X130826395Y-57440627D01*
X130846293Y-57475827D01*
X130869047Y-57495286D01*
X130895855Y-57501781D01*
X130921594Y-57495305D01*
X130943634Y-57475743D01*
X130963107Y-57439950D01*
X130979649Y-57381535D01*
X130991590Y-57291719D01*
X130996284Y-57159841D01*
X130991653Y-57027553D01*
X130979886Y-56937621D01*
X130963614Y-56879287D01*
X130944515Y-56843676D01*
X130922981Y-56824296D01*
X130897916Y-56817901D01*
X130870875Y-56824633D01*
X130847777Y-56844924D01*
X130827428Y-56881931D01*
X130810179Y-56942161D01*
X130797746Y-57034582D01*
X130792861Y-57170099D01*
X130628573Y-57170099D01*
X130631849Y-57068919D01*
X130641457Y-56979098D01*
X130656318Y-56903487D01*
X130675753Y-56840091D01*
X130699346Y-56787187D01*
X130730253Y-56739204D01*
X130765534Y-56702465D01*
X130805749Y-56675970D01*
X130851839Y-56659526D01*
X130905060Y-56653770D01*
X130957789Y-56659680D01*
G37*
G36*
X121746035Y-78193326D02*
G01*
X121690990Y-78220752D01*
X121621966Y-78238769D01*
X121535971Y-78245350D01*
X121467901Y-78239468D01*
X121408435Y-78222693D01*
X121356296Y-78195915D01*
X121310425Y-78159438D01*
X121270036Y-78112970D01*
X121235929Y-78057912D01*
X121209213Y-77996185D01*
X121189668Y-77926849D01*
X121177479Y-77848655D01*
X121173224Y-77760101D01*
X121177927Y-77666334D01*
X121191468Y-77582739D01*
X121213320Y-77507803D01*
X121243400Y-77440283D01*
X121282080Y-77379265D01*
X121327670Y-77327225D01*
X121377946Y-77286851D01*
X121433568Y-77257587D01*
X121495444Y-77239486D01*
X121564684Y-77233208D01*
X121636219Y-77237715D01*
X121696104Y-77250255D01*
X121746035Y-77269600D01*
X121746035Y-77483312D01*
X121695189Y-77450174D01*
X121639539Y-77430026D01*
X121577965Y-77423106D01*
X121527097Y-77428908D01*
X121483085Y-77445501D01*
X121444674Y-77472332D01*
X121410949Y-77509752D01*
X121383859Y-77555422D01*
X121364148Y-77608694D01*
X121351793Y-77671040D01*
X121347430Y-77744408D01*
X121351545Y-77814804D01*
X121363206Y-77874833D01*
X121381818Y-77926298D01*
X121407377Y-77970577D01*
X121439269Y-78006807D01*
X121476093Y-78032882D01*
X121518812Y-78049086D01*
X121568760Y-78054780D01*
X121632022Y-78047610D01*
X121690787Y-78026489D01*
X121746035Y-77991337D01*
X121746035Y-78193326D01*
G37*
G36*
X122151501Y-77238014D02*
G01*
X122197944Y-77251545D01*
X122237395Y-77272864D01*
X122270943Y-77301596D01*
X122299829Y-77338920D01*
X122319838Y-77380131D01*
X122331878Y-77426073D01*
X122336019Y-77478122D01*
X122330673Y-77537508D01*
X122315099Y-77589337D01*
X122288924Y-77635485D01*
X122250413Y-77676904D01*
X122196663Y-77713511D01*
X122196663Y-77716259D01*
X122244202Y-77741042D01*
X122282386Y-77773358D01*
X122312663Y-77813101D01*
X122335766Y-77860386D01*
X122349351Y-77910509D01*
X122353925Y-77964715D01*
X122349191Y-78027817D01*
X122335620Y-78081953D01*
X122313443Y-78128973D01*
X122281934Y-78170062D01*
X122244940Y-78201293D01*
X122200163Y-78224796D01*
X122146078Y-78239918D01*
X122080846Y-78245350D01*
X122025015Y-78240247D01*
X121977200Y-78225802D01*
X121936117Y-78202888D01*
X121900732Y-78171772D01*
X121870663Y-78131750D01*
X121849604Y-78086733D01*
X121836799Y-78035699D01*
X121832359Y-77977049D01*
X121833005Y-77968134D01*
X121985545Y-77968134D01*
X121989078Y-78002264D01*
X121999412Y-78031666D01*
X122017053Y-78057588D01*
X122039307Y-78077058D01*
X122064569Y-78088856D01*
X122093669Y-78092943D01*
X122125163Y-78088768D01*
X122150893Y-78077047D01*
X122172071Y-78058260D01*
X122188497Y-78032857D01*
X122198355Y-78002829D01*
X122201792Y-77966730D01*
X122197655Y-77925478D01*
X122185480Y-77889181D01*
X122164635Y-77856446D01*
X122133271Y-77826707D01*
X122088540Y-77800279D01*
X122048498Y-77826956D01*
X122020003Y-77856825D01*
X122000781Y-77889774D01*
X121989424Y-77926439D01*
X121985545Y-77968134D01*
X121833005Y-77968134D01*
X121836381Y-77921584D01*
X121848056Y-77872345D01*
X121867335Y-77828019D01*
X121894869Y-77787724D01*
X121931959Y-77751088D01*
X121980462Y-77718274D01*
X121980462Y-77714855D01*
X121932380Y-77681650D01*
X121897611Y-77643300D01*
X121873723Y-77599789D01*
X121859358Y-77550115D01*
X121854750Y-77496624D01*
X122007619Y-77496624D01*
X122012646Y-77537927D01*
X122027648Y-77574017D01*
X122054176Y-77606526D01*
X122095729Y-77635659D01*
X122137292Y-77605855D01*
X122163831Y-77572898D01*
X122178825Y-77536555D01*
X122183840Y-77495219D01*
X122181031Y-77463254D01*
X122173068Y-77437093D01*
X122160026Y-77415413D01*
X122142937Y-77399222D01*
X122122179Y-77389182D01*
X122096737Y-77385615D01*
X122072040Y-77389247D01*
X122051048Y-77399666D01*
X122032944Y-77416817D01*
X122018915Y-77439436D01*
X122010526Y-77465660D01*
X122007619Y-77496624D01*
X121854750Y-77496624D01*
X121854387Y-77492410D01*
X121858676Y-77438048D01*
X121871175Y-77389751D01*
X121891980Y-77346142D01*
X121922027Y-77306358D01*
X121957068Y-77275242D01*
X121997217Y-77252477D01*
X122043391Y-77238219D01*
X122096737Y-77233208D01*
X122151501Y-77238014D01*
G37*
G36*
X50523586Y-69489688D02*
G01*
X50580178Y-69504840D01*
X50624445Y-69527748D01*
X50658695Y-69557342D01*
X50684670Y-69593409D01*
X50703417Y-69636623D01*
X50715178Y-69688467D01*
X50719363Y-69751078D01*
X50716334Y-69801017D01*
X50707548Y-69845844D01*
X50693295Y-69887287D01*
X50674254Y-69924246D01*
X50650673Y-69956514D01*
X50622231Y-69984452D01*
X50590372Y-70006848D01*
X50554362Y-70024141D01*
X50554362Y-70026889D01*
X50570276Y-70035713D01*
X50586098Y-70049115D01*
X50615819Y-70084958D01*
X50643251Y-70129043D01*
X50667065Y-70175205D01*
X50805917Y-70465000D01*
X50615865Y-70465000D01*
X50501605Y-70212819D01*
X50477013Y-70161589D01*
X50453199Y-70122998D01*
X50428058Y-70098391D01*
X50414520Y-70092009D01*
X50399619Y-70089842D01*
X50355060Y-70089842D01*
X50355060Y-70465000D01*
X50189600Y-70465000D01*
X50189600Y-69923147D01*
X50355060Y-69923147D01*
X50426775Y-69923147D01*
X50461083Y-69918239D01*
X50489160Y-69904396D01*
X50512367Y-69881992D01*
X50530624Y-69851773D01*
X50541445Y-69817668D01*
X50545157Y-69778372D01*
X50540414Y-69731362D01*
X50527425Y-69697049D01*
X50506340Y-69672127D01*
X50475102Y-69655676D01*
X50429889Y-69649412D01*
X50355060Y-69649412D01*
X50355060Y-69923147D01*
X50189600Y-69923147D01*
X50189600Y-69484120D01*
X50451917Y-69484120D01*
X50523586Y-69489688D01*
G37*
G36*
X51342457Y-70465000D02*
G01*
X50877770Y-70465000D01*
X50877770Y-70293053D01*
X51029948Y-70293053D01*
X51029948Y-69683422D01*
X50873648Y-69730317D01*
X50873648Y-69554462D01*
X51191332Y-69468489D01*
X51191332Y-70293053D01*
X51342457Y-70293053D01*
X51342457Y-70465000D01*
G37*
G36*
X120246035Y-64393326D02*
G01*
X120190990Y-64420752D01*
X120121966Y-64438769D01*
X120035971Y-64445350D01*
X119967901Y-64439468D01*
X119908435Y-64422693D01*
X119856296Y-64395915D01*
X119810425Y-64359438D01*
X119770036Y-64312970D01*
X119735929Y-64257912D01*
X119709213Y-64196185D01*
X119689668Y-64126849D01*
X119677479Y-64048655D01*
X119673224Y-63960101D01*
X119677927Y-63866334D01*
X119691468Y-63782739D01*
X119713320Y-63707803D01*
X119743400Y-63640283D01*
X119782080Y-63579265D01*
X119827670Y-63527225D01*
X119877946Y-63486851D01*
X119933568Y-63457587D01*
X119995444Y-63439486D01*
X120064684Y-63433208D01*
X120136219Y-63437715D01*
X120196104Y-63450255D01*
X120246035Y-63469600D01*
X120246035Y-63683312D01*
X120195189Y-63650174D01*
X120139539Y-63630026D01*
X120077965Y-63623106D01*
X120027097Y-63628908D01*
X119983085Y-63645501D01*
X119944674Y-63672332D01*
X119910949Y-63709752D01*
X119883859Y-63755422D01*
X119864148Y-63808694D01*
X119851793Y-63871040D01*
X119847430Y-63944408D01*
X119851545Y-64014804D01*
X119863206Y-64074833D01*
X119881818Y-64126298D01*
X119907377Y-64170577D01*
X119939269Y-64206807D01*
X119976093Y-64232882D01*
X120018812Y-64249086D01*
X120068760Y-64254780D01*
X120132022Y-64247610D01*
X120190787Y-64226489D01*
X120246035Y-64191337D01*
X120246035Y-64393326D01*
G37*
G36*
X120731468Y-63436825D02*
G01*
X120774623Y-63446452D01*
X120806801Y-63460563D01*
X120806801Y-63640326D01*
X120768507Y-63616477D01*
X120728066Y-63602179D01*
X120684848Y-63597339D01*
X120645492Y-63602732D01*
X120611114Y-63618326D01*
X120580645Y-63644056D01*
X120553414Y-63680931D01*
X120532321Y-63724017D01*
X120516393Y-63774728D01*
X120505886Y-63834428D01*
X120501436Y-63904780D01*
X120504505Y-63904780D01*
X120533953Y-63859149D01*
X120568680Y-63827125D01*
X120609705Y-63807462D01*
X120658744Y-63800549D01*
X120703830Y-63806096D01*
X120742459Y-63821936D01*
X120775885Y-63847608D01*
X120804969Y-63883653D01*
X120827940Y-63926904D01*
X120844759Y-63977053D01*
X120855325Y-64035386D01*
X120859054Y-64103532D01*
X120854355Y-64175577D01*
X120840777Y-64239380D01*
X120818581Y-64296487D01*
X120787338Y-64348019D01*
X120749256Y-64390411D01*
X120706805Y-64420520D01*
X120659106Y-64438958D01*
X120604934Y-64445350D01*
X120555918Y-64440228D01*
X120512948Y-64425534D01*
X120474994Y-64401791D01*
X120441265Y-64368851D01*
X120411265Y-64325915D01*
X120382428Y-64264611D01*
X120360677Y-64190145D01*
X120347975Y-64108417D01*
X120506566Y-64108417D01*
X120509716Y-64154901D01*
X120518754Y-64195215D01*
X120533448Y-64230538D01*
X120553723Y-64259067D01*
X120577166Y-64275578D01*
X120604934Y-64281219D01*
X120632306Y-64276081D01*
X120655143Y-64261209D01*
X120674589Y-64235973D01*
X120688678Y-64204100D01*
X120697562Y-64165331D01*
X120700739Y-64117943D01*
X120695990Y-64056034D01*
X120683550Y-64013396D01*
X120664778Y-63984744D01*
X120639051Y-63967170D01*
X120603927Y-63960772D01*
X120575634Y-63965597D01*
X120552373Y-63979382D01*
X120532944Y-64002294D01*
X120518583Y-64031696D01*
X120509700Y-64066591D01*
X120506566Y-64108417D01*
X120347975Y-64108417D01*
X120346654Y-64099920D01*
X120341610Y-63990814D01*
X120345680Y-63887266D01*
X120357265Y-63796456D01*
X120375635Y-63716738D01*
X120400349Y-63646672D01*
X120431278Y-63585066D01*
X120469887Y-63530182D01*
X120512785Y-63488249D01*
X120560546Y-63458165D01*
X120614093Y-63439638D01*
X120674635Y-63433208D01*
X120731468Y-63436825D01*
G37*
D11*
G36*
X103914795Y-56440005D02*
G01*
X104006553Y-56456434D01*
X104083323Y-56481940D01*
X104147379Y-56515605D01*
X104200559Y-56557109D01*
X104244176Y-56606751D01*
X104278936Y-56665430D01*
X104304889Y-56734584D01*
X104321424Y-56816098D01*
X104327306Y-56912226D01*
X104321098Y-57003881D01*
X104303289Y-57084847D01*
X104274653Y-57156741D01*
X104235336Y-57220880D01*
X104184851Y-57278224D01*
X104125762Y-57326336D01*
X104059449Y-57364077D01*
X103984894Y-57391720D01*
X103900754Y-57408974D01*
X103805420Y-57415000D01*
X103458412Y-57415000D01*
X103458412Y-57236031D01*
X103679024Y-57236031D01*
X103788323Y-57236031D01*
X103859232Y-57230118D01*
X103919132Y-57213394D01*
X103970046Y-57186677D01*
X104013454Y-57149813D01*
X104048118Y-57104516D01*
X104073478Y-57051367D01*
X104089439Y-56988844D01*
X104095092Y-56914973D01*
X104089512Y-56845427D01*
X104073744Y-56786665D01*
X104048626Y-56736753D01*
X104014125Y-56694239D01*
X103971426Y-56660195D01*
X103920515Y-56635204D01*
X103859749Y-56619392D01*
X103786980Y-56613761D01*
X103679024Y-56613761D01*
X103679024Y-57236031D01*
X103458412Y-57236031D01*
X103458412Y-56434120D01*
X103805420Y-56434120D01*
X103914795Y-56440005D01*
G37*
G36*
X104478492Y-57381966D02*
G01*
X104478492Y-57196158D01*
X104529233Y-57226688D01*
X104583891Y-57248555D01*
X104643190Y-57261915D01*
X104708019Y-57266500D01*
X104762098Y-57261985D01*
X104804170Y-57249662D01*
X104836796Y-57230657D01*
X104862235Y-57203882D01*
X104877524Y-57171209D01*
X104882897Y-57130762D01*
X104876477Y-57089797D01*
X104857884Y-57056455D01*
X104825867Y-57028790D01*
X104786187Y-57009938D01*
X104734895Y-56997522D01*
X104669063Y-56992948D01*
X104580952Y-56992948D01*
X104580952Y-56828817D01*
X104662224Y-56828817D01*
X104729656Y-56823978D01*
X104778022Y-56811289D01*
X104811914Y-56792705D01*
X104834797Y-56768944D01*
X104848626Y-56739343D01*
X104853527Y-56701994D01*
X104847580Y-56658782D01*
X104831222Y-56627078D01*
X104804495Y-56603895D01*
X104764637Y-56588502D01*
X104706676Y-56582620D01*
X104642889Y-56589313D01*
X104579508Y-56609721D01*
X104515373Y-56645146D01*
X104515373Y-56470085D01*
X104585859Y-56442046D01*
X104665467Y-56424584D01*
X104755830Y-56418489D01*
X104831654Y-56423339D01*
X104894543Y-56436852D01*
X104946652Y-56457885D01*
X104989753Y-56485900D01*
X105026767Y-56522601D01*
X105052531Y-56563352D01*
X105068099Y-56609016D01*
X105073468Y-56660961D01*
X105067689Y-56722649D01*
X105051443Y-56773503D01*
X105025476Y-56815721D01*
X104989305Y-56850770D01*
X104941277Y-56879223D01*
X104878745Y-56900685D01*
X104878745Y-56904105D01*
X104945279Y-56919007D01*
X104999143Y-56944334D01*
X105042693Y-56979698D01*
X105076036Y-57024415D01*
X105095973Y-57074975D01*
X105102838Y-57133204D01*
X105096226Y-57199952D01*
X105077272Y-57257266D01*
X105046318Y-57307080D01*
X105002393Y-57350642D01*
X104950690Y-57383973D01*
X104888645Y-57408927D01*
X104814261Y-57424910D01*
X104725116Y-57430631D01*
X104624717Y-57424517D01*
X104543647Y-57407710D01*
X104478492Y-57381966D01*
G37*
G36*
X63536875Y-70440334D02*
G01*
X63536875Y-70220210D01*
X63599264Y-70264906D01*
X63665957Y-70296414D01*
X63736385Y-70315533D01*
X63806702Y-70321815D01*
X63847025Y-70319820D01*
X63879487Y-70314366D01*
X63908865Y-70305057D01*
X63931388Y-70293544D01*
X63949910Y-70278712D01*
X63962468Y-70262220D01*
X63970151Y-70243423D01*
X63972726Y-70223019D01*
X63968593Y-70195823D01*
X63956301Y-70171850D01*
X63937514Y-70150720D01*
X63911544Y-70130207D01*
X63844255Y-70093387D01*
X63760296Y-70057178D01*
X63686459Y-70020784D01*
X63630429Y-69981805D01*
X63589143Y-69940491D01*
X63558111Y-69891932D01*
X63539296Y-69837006D01*
X63532784Y-69773979D01*
X63536440Y-69723786D01*
X63546849Y-69680355D01*
X63563498Y-69642576D01*
X63599753Y-69592556D01*
X63647212Y-69552145D01*
X63703450Y-69521733D01*
X63769822Y-69499938D01*
X63840796Y-69487477D01*
X63917405Y-69483208D01*
X63991759Y-69485650D01*
X64052960Y-69492367D01*
X64110538Y-69504185D01*
X64161954Y-69520516D01*
X64161954Y-69723176D01*
X64108281Y-69693989D01*
X64048503Y-69673045D01*
X63987381Y-69660772D01*
X63929679Y-69656742D01*
X63893063Y-69658608D01*
X63861352Y-69663886D01*
X63832221Y-69672792D01*
X63809450Y-69683975D01*
X63790364Y-69698483D01*
X63776660Y-69714994D01*
X63767992Y-69734053D01*
X63765059Y-69755538D01*
X63768334Y-69778950D01*
X63778004Y-69799563D01*
X63793175Y-69817923D01*
X63814884Y-69836383D01*
X63872953Y-69870516D01*
X63950195Y-69905015D01*
X64007042Y-69930885D01*
X64055708Y-69957222D01*
X64099788Y-69987082D01*
X64136003Y-70019626D01*
X64165549Y-70056931D01*
X64187233Y-70099188D01*
X64200319Y-70146164D01*
X64205001Y-70203236D01*
X64201229Y-70257100D01*
X64190628Y-70302460D01*
X64173921Y-70340744D01*
X64137267Y-70391108D01*
X64089536Y-70430870D01*
X64032928Y-70460052D01*
X63965582Y-70480329D01*
X63893671Y-70491517D01*
X63816289Y-70495350D01*
X63736844Y-70491828D01*
X63662904Y-70481550D01*
X63593335Y-70463817D01*
X63536875Y-70440334D01*
G37*
G36*
X64904818Y-70116285D02*
G01*
X65022299Y-70116285D01*
X65022299Y-70268693D01*
X64904818Y-70268693D01*
X64904818Y-70479719D01*
X64708081Y-70479719D01*
X64708081Y-70268693D01*
X64281083Y-70268693D01*
X64281083Y-70132649D01*
X64291701Y-70116285D01*
X64460052Y-70116285D01*
X64708081Y-70116285D01*
X64708081Y-69807562D01*
X64710767Y-69713773D01*
X64706676Y-69713773D01*
X64669795Y-69790465D01*
X64460052Y-70116285D01*
X64291701Y-70116285D01*
X64692327Y-69498839D01*
X64904818Y-69498839D01*
X64904818Y-70116285D01*
G37*
D13*
G36*
X102833456Y-77940334D02*
G01*
X102833456Y-77720210D01*
X102895845Y-77764906D01*
X102962538Y-77796414D01*
X103032966Y-77815533D01*
X103103283Y-77821815D01*
X103143606Y-77819820D01*
X103176068Y-77814366D01*
X103205446Y-77805057D01*
X103227969Y-77793544D01*
X103246491Y-77778712D01*
X103259049Y-77762220D01*
X103266732Y-77743423D01*
X103269307Y-77723019D01*
X103265174Y-77695823D01*
X103252882Y-77671850D01*
X103234095Y-77650720D01*
X103208125Y-77630207D01*
X103140836Y-77593387D01*
X103056877Y-77557178D01*
X102983040Y-77520784D01*
X102927010Y-77481805D01*
X102885724Y-77440491D01*
X102854692Y-77391932D01*
X102835877Y-77337006D01*
X102829365Y-77273979D01*
X102833021Y-77223786D01*
X102843430Y-77180355D01*
X102860079Y-77142576D01*
X102896334Y-77092556D01*
X102943793Y-77052145D01*
X103000031Y-77021733D01*
X103066403Y-76999938D01*
X103137377Y-76987477D01*
X103213986Y-76983208D01*
X103288340Y-76985650D01*
X103349541Y-76992367D01*
X103407119Y-77004185D01*
X103458535Y-77020516D01*
X103458535Y-77223176D01*
X103404862Y-77193989D01*
X103345084Y-77173045D01*
X103283962Y-77160772D01*
X103226260Y-77156742D01*
X103189644Y-77158608D01*
X103157933Y-77163886D01*
X103128802Y-77172792D01*
X103106031Y-77183975D01*
X103086945Y-77198483D01*
X103073241Y-77214994D01*
X103064573Y-77234053D01*
X103061640Y-77255538D01*
X103064915Y-77278950D01*
X103074585Y-77299563D01*
X103089756Y-77317923D01*
X103111465Y-77336383D01*
X103169534Y-77370516D01*
X103246776Y-77405015D01*
X103303623Y-77430885D01*
X103352289Y-77457222D01*
X103396369Y-77487082D01*
X103432584Y-77519626D01*
X103462130Y-77556931D01*
X103483814Y-77599188D01*
X103496900Y-77646164D01*
X103501582Y-77703236D01*
X103497810Y-77757100D01*
X103487209Y-77802460D01*
X103470502Y-77840744D01*
X103433848Y-77891108D01*
X103386117Y-77930870D01*
X103329509Y-77960052D01*
X103262163Y-77980329D01*
X103190252Y-77991517D01*
X103112870Y-77995350D01*
X103033425Y-77991828D01*
X102959485Y-77981550D01*
X102889916Y-77963817D01*
X102833456Y-77940334D01*
G37*
G36*
X104944630Y-76998839D02*
G01*
X104685733Y-77979719D01*
X104441124Y-77979719D01*
X104278580Y-77350427D01*
X104268322Y-77299524D01*
X104262826Y-77240273D01*
X104260140Y-77240273D01*
X104252138Y-77304243D01*
X104242371Y-77350427D01*
X104075675Y-77979719D01*
X103820869Y-77979719D01*
X103563315Y-76998839D01*
X103804443Y-76998839D01*
X103942441Y-77652067D01*
X103949732Y-77697428D01*
X103955447Y-77764235D01*
X103959538Y-77764235D01*
X103965598Y-77710710D01*
X103979321Y-77649319D01*
X104156947Y-76998839D01*
X104393313Y-76998839D01*
X104553842Y-77657562D01*
X104569595Y-77762892D01*
X104572343Y-77762892D01*
X104577235Y-77708815D01*
X104586692Y-77653471D01*
X104721942Y-76998839D01*
X104944630Y-76998839D01*
G37*
G36*
X105693601Y-77979719D02*
G01*
X105074018Y-77979719D01*
X105074018Y-77807772D01*
X105276923Y-77807772D01*
X105276923Y-77198141D01*
X105068522Y-77245036D01*
X105068522Y-77069181D01*
X105492100Y-76983208D01*
X105492100Y-77807772D01*
X105693601Y-77807772D01*
X105693601Y-77979719D01*
G37*
D12*
G36*
X54648586Y-53489688D02*
G01*
X54705178Y-53504840D01*
X54749445Y-53527748D01*
X54783695Y-53557342D01*
X54809670Y-53593409D01*
X54828417Y-53636623D01*
X54840178Y-53688467D01*
X54844363Y-53751078D01*
X54841334Y-53801017D01*
X54832548Y-53845844D01*
X54818295Y-53887287D01*
X54799254Y-53924246D01*
X54775673Y-53956514D01*
X54747231Y-53984452D01*
X54715372Y-54006848D01*
X54679362Y-54024141D01*
X54679362Y-54026889D01*
X54695276Y-54035713D01*
X54711098Y-54049115D01*
X54740819Y-54084958D01*
X54768251Y-54129043D01*
X54792065Y-54175205D01*
X54930917Y-54465000D01*
X54740865Y-54465000D01*
X54626605Y-54212819D01*
X54602013Y-54161589D01*
X54578199Y-54122998D01*
X54553058Y-54098391D01*
X54539520Y-54092009D01*
X54524619Y-54089842D01*
X54480060Y-54089842D01*
X54480060Y-54465000D01*
X54314600Y-54465000D01*
X54314600Y-53923147D01*
X54480060Y-53923147D01*
X54551775Y-53923147D01*
X54586083Y-53918239D01*
X54614160Y-53904396D01*
X54637367Y-53881992D01*
X54655624Y-53851773D01*
X54666445Y-53817668D01*
X54670157Y-53778372D01*
X54665414Y-53731362D01*
X54652425Y-53697049D01*
X54631340Y-53672127D01*
X54600102Y-53655676D01*
X54554889Y-53649412D01*
X54480060Y-53649412D01*
X54480060Y-53923147D01*
X54314600Y-53923147D01*
X54314600Y-53484120D01*
X54576917Y-53484120D01*
X54648586Y-53489688D01*
G37*
G36*
X54991000Y-54431966D02*
G01*
X54991000Y-54246158D01*
X55029056Y-54276688D01*
X55070049Y-54298555D01*
X55114524Y-54311915D01*
X55163146Y-54316500D01*
X55203705Y-54311985D01*
X55235259Y-54299662D01*
X55259729Y-54280657D01*
X55278807Y-54253882D01*
X55290274Y-54221209D01*
X55294304Y-54180762D01*
X55289489Y-54139797D01*
X55275544Y-54106455D01*
X55251531Y-54078790D01*
X55221771Y-54059938D01*
X55183302Y-54047522D01*
X55133928Y-54042948D01*
X55067845Y-54042948D01*
X55067845Y-53878817D01*
X55128799Y-53878817D01*
X55179373Y-53873978D01*
X55215648Y-53861289D01*
X55241067Y-53842705D01*
X55258229Y-53818944D01*
X55268601Y-53789343D01*
X55272277Y-53751994D01*
X55267816Y-53708782D01*
X55255548Y-53677078D01*
X55235502Y-53653895D01*
X55205609Y-53638502D01*
X55162138Y-53632620D01*
X55114298Y-53639313D01*
X55066762Y-53659721D01*
X55018661Y-53695146D01*
X55018661Y-53520085D01*
X55071526Y-53492046D01*
X55131231Y-53474584D01*
X55199004Y-53468489D01*
X55255871Y-53473339D01*
X55303039Y-53486852D01*
X55342120Y-53507885D01*
X55374446Y-53535900D01*
X55402206Y-53572601D01*
X55421529Y-53613352D01*
X55433205Y-53659016D01*
X55437232Y-53710961D01*
X55432898Y-53772649D01*
X55420714Y-53823503D01*
X55401238Y-53865721D01*
X55374110Y-53900770D01*
X55338089Y-53929223D01*
X55291190Y-53950685D01*
X55291190Y-53954105D01*
X55341090Y-53969007D01*
X55381489Y-53994334D01*
X55414151Y-54029698D01*
X55439158Y-54074415D01*
X55454111Y-54124975D01*
X55459260Y-54183204D01*
X55454301Y-54249952D01*
X55440085Y-54307266D01*
X55416870Y-54357080D01*
X55383926Y-54400642D01*
X55345149Y-54433973D01*
X55298615Y-54458927D01*
X55242827Y-54474910D01*
X55175969Y-54480631D01*
X55100669Y-54474517D01*
X55039867Y-54457710D01*
X54991000Y-54431966D01*
G37*
D11*
G36*
X95914795Y-56440005D02*
G01*
X96006553Y-56456434D01*
X96083323Y-56481940D01*
X96147379Y-56515605D01*
X96200559Y-56557109D01*
X96244176Y-56606751D01*
X96278936Y-56665430D01*
X96304889Y-56734584D01*
X96321424Y-56816098D01*
X96327306Y-56912226D01*
X96321098Y-57003881D01*
X96303289Y-57084847D01*
X96274653Y-57156741D01*
X96235336Y-57220880D01*
X96184851Y-57278224D01*
X96125762Y-57326336D01*
X96059449Y-57364077D01*
X95984894Y-57391720D01*
X95900754Y-57408974D01*
X95805420Y-57415000D01*
X95458412Y-57415000D01*
X95458412Y-57236031D01*
X95679024Y-57236031D01*
X95788323Y-57236031D01*
X95859232Y-57230118D01*
X95919132Y-57213394D01*
X95970046Y-57186677D01*
X96013454Y-57149813D01*
X96048118Y-57104516D01*
X96073478Y-57051367D01*
X96089439Y-56988844D01*
X96095092Y-56914973D01*
X96089512Y-56845427D01*
X96073744Y-56786665D01*
X96048626Y-56736753D01*
X96014125Y-56694239D01*
X95971426Y-56660195D01*
X95920515Y-56635204D01*
X95859749Y-56619392D01*
X95786980Y-56613761D01*
X95679024Y-56613761D01*
X95679024Y-57236031D01*
X95458412Y-57236031D01*
X95458412Y-56434120D01*
X95805420Y-56434120D01*
X95914795Y-56440005D01*
G37*
G36*
X96699776Y-57231146D02*
G01*
X96699776Y-57235237D01*
X97097342Y-57235237D01*
X97097342Y-57415000D01*
X96452480Y-57415000D01*
X96452480Y-57246167D01*
X96733299Y-56978293D01*
X96809918Y-56898308D01*
X96852489Y-56841823D01*
X96871864Y-56803941D01*
X96883216Y-56765496D01*
X96886988Y-56725868D01*
X96880690Y-56675377D01*
X96863666Y-56639134D01*
X96836610Y-56613379D01*
X96797378Y-56596710D01*
X96741481Y-56590436D01*
X96680788Y-56596417D01*
X96620879Y-56614568D01*
X96560755Y-56645849D01*
X96499619Y-56692041D01*
X96499619Y-56502142D01*
X96565256Y-56465674D01*
X96634659Y-56439663D01*
X96708572Y-56423869D01*
X96787887Y-56418489D01*
X96863179Y-56423831D01*
X96926036Y-56438795D01*
X96978592Y-56462304D01*
X97022543Y-56494021D01*
X97059039Y-56534504D01*
X97085130Y-56581106D01*
X97101270Y-56635038D01*
X97106929Y-56698025D01*
X97100056Y-56761146D01*
X97078645Y-56826884D01*
X97040620Y-56896623D01*
X96982844Y-56971582D01*
X96901277Y-57052787D01*
X96699776Y-57231146D01*
G37*
D12*
G36*
X96246035Y-64393326D02*
G01*
X96190990Y-64420752D01*
X96121966Y-64438769D01*
X96035971Y-64445350D01*
X95967901Y-64439468D01*
X95908435Y-64422693D01*
X95856296Y-64395915D01*
X95810425Y-64359438D01*
X95770036Y-64312970D01*
X95735929Y-64257912D01*
X95709213Y-64196185D01*
X95689668Y-64126849D01*
X95677479Y-64048655D01*
X95673224Y-63960101D01*
X95677927Y-63866334D01*
X95691468Y-63782739D01*
X95713320Y-63707803D01*
X95743400Y-63640283D01*
X95782080Y-63579265D01*
X95827670Y-63527225D01*
X95877946Y-63486851D01*
X95933568Y-63457587D01*
X95995444Y-63439486D01*
X96064684Y-63433208D01*
X96136219Y-63437715D01*
X96196104Y-63450255D01*
X96246035Y-63469600D01*
X96246035Y-63683312D01*
X96195189Y-63650174D01*
X96139539Y-63630026D01*
X96077965Y-63623106D01*
X96027097Y-63628908D01*
X95983085Y-63645501D01*
X95944674Y-63672332D01*
X95910949Y-63709752D01*
X95883859Y-63755422D01*
X95864148Y-63808694D01*
X95851793Y-63871040D01*
X95847430Y-63944408D01*
X95851545Y-64014804D01*
X95863206Y-64074833D01*
X95881818Y-64126298D01*
X95907377Y-64170577D01*
X95939269Y-64206807D01*
X95976093Y-64232882D01*
X96018812Y-64249086D01*
X96068760Y-64254780D01*
X96132022Y-64247610D01*
X96190787Y-64226489D01*
X96246035Y-64191337D01*
X96246035Y-64393326D01*
G37*
G36*
X96365698Y-64396685D02*
G01*
X96365698Y-64210877D01*
X96403754Y-64241407D01*
X96444748Y-64263274D01*
X96489222Y-64276634D01*
X96537844Y-64281219D01*
X96578403Y-64276704D01*
X96609957Y-64264381D01*
X96634427Y-64245376D01*
X96653505Y-64218601D01*
X96664972Y-64185928D01*
X96669002Y-64145481D01*
X96664187Y-64104516D01*
X96650242Y-64071174D01*
X96626229Y-64043509D01*
X96596469Y-64024657D01*
X96558000Y-64012241D01*
X96508626Y-64007667D01*
X96442543Y-64007667D01*
X96442543Y-63843536D01*
X96503497Y-63843536D01*
X96554071Y-63838697D01*
X96590346Y-63826008D01*
X96615765Y-63807424D01*
X96632927Y-63783663D01*
X96643299Y-63754062D01*
X96646975Y-63716713D01*
X96642514Y-63673501D01*
X96630246Y-63641797D01*
X96610200Y-63618614D01*
X96580307Y-63603221D01*
X96536836Y-63597339D01*
X96488996Y-63604032D01*
X96441461Y-63624440D01*
X96393359Y-63659865D01*
X96393359Y-63484804D01*
X96446224Y-63456765D01*
X96505929Y-63439303D01*
X96573702Y-63433208D01*
X96630570Y-63438058D01*
X96677737Y-63451571D01*
X96716819Y-63472604D01*
X96749144Y-63500619D01*
X96776904Y-63537320D01*
X96796227Y-63578071D01*
X96807903Y-63623735D01*
X96811930Y-63675680D01*
X96807596Y-63737368D01*
X96795412Y-63788222D01*
X96775936Y-63830440D01*
X96748808Y-63865489D01*
X96712787Y-63893942D01*
X96665888Y-63915404D01*
X96665888Y-63918824D01*
X96715788Y-63933726D01*
X96756187Y-63959053D01*
X96788849Y-63994417D01*
X96813856Y-64039134D01*
X96828809Y-64089694D01*
X96833958Y-64147923D01*
X96828999Y-64214671D01*
X96814783Y-64271985D01*
X96791568Y-64321799D01*
X96758624Y-64365361D01*
X96719847Y-64398692D01*
X96673313Y-64423646D01*
X96617525Y-64439629D01*
X96550667Y-64445350D01*
X96475367Y-64439236D01*
X96414565Y-64422429D01*
X96365698Y-64396685D01*
G37*
D11*
G36*
X71536875Y-62440334D02*
G01*
X71536875Y-62220210D01*
X71599264Y-62264906D01*
X71665957Y-62296414D01*
X71736385Y-62315533D01*
X71806702Y-62321815D01*
X71847025Y-62319820D01*
X71879487Y-62314366D01*
X71908865Y-62305057D01*
X71931388Y-62293544D01*
X71949910Y-62278712D01*
X71962468Y-62262220D01*
X71970151Y-62243423D01*
X71972726Y-62223019D01*
X71968593Y-62195823D01*
X71956301Y-62171850D01*
X71937514Y-62150720D01*
X71911544Y-62130207D01*
X71844255Y-62093387D01*
X71760296Y-62057178D01*
X71686459Y-62020784D01*
X71630429Y-61981805D01*
X71589143Y-61940491D01*
X71558111Y-61891932D01*
X71539296Y-61837006D01*
X71532784Y-61773979D01*
X71536440Y-61723786D01*
X71546849Y-61680355D01*
X71563498Y-61642576D01*
X71599753Y-61592556D01*
X71647212Y-61552145D01*
X71703450Y-61521733D01*
X71769822Y-61499938D01*
X71840796Y-61487477D01*
X71917405Y-61483208D01*
X71991759Y-61485650D01*
X72052960Y-61492367D01*
X72110538Y-61504185D01*
X72161954Y-61520516D01*
X72161954Y-61723176D01*
X72108281Y-61693989D01*
X72048503Y-61673045D01*
X71987381Y-61660772D01*
X71929679Y-61656742D01*
X71893063Y-61658608D01*
X71861352Y-61663886D01*
X71832221Y-61672792D01*
X71809450Y-61683975D01*
X71790364Y-61698483D01*
X71776660Y-61714994D01*
X71767992Y-61734053D01*
X71765059Y-61755538D01*
X71768334Y-61778950D01*
X71778004Y-61799563D01*
X71793175Y-61817923D01*
X71814884Y-61836383D01*
X71872953Y-61870516D01*
X71950195Y-61905015D01*
X72007042Y-61930885D01*
X72055708Y-61957222D01*
X72099788Y-61987082D01*
X72136003Y-62019626D01*
X72165549Y-62056931D01*
X72187233Y-62099188D01*
X72200319Y-62146164D01*
X72205001Y-62203236D01*
X72201229Y-62257100D01*
X72190628Y-62302460D01*
X72173921Y-62340744D01*
X72137267Y-62391108D01*
X72089536Y-62430870D01*
X72032928Y-62460052D01*
X71965582Y-62480329D01*
X71893671Y-62491517D01*
X71816289Y-62495350D01*
X71736844Y-62491828D01*
X71662904Y-62481550D01*
X71593335Y-62463817D01*
X71536875Y-62440334D01*
G37*
G36*
X72354905Y-62446685D02*
G01*
X72354905Y-62260877D01*
X72405646Y-62291407D01*
X72460304Y-62313274D01*
X72519603Y-62326634D01*
X72584433Y-62331219D01*
X72638511Y-62326704D01*
X72680584Y-62314381D01*
X72713210Y-62295376D01*
X72738648Y-62268601D01*
X72753937Y-62235928D01*
X72759310Y-62195481D01*
X72752891Y-62154516D01*
X72734297Y-62121174D01*
X72702280Y-62093509D01*
X72662600Y-62074657D01*
X72611308Y-62062241D01*
X72545476Y-62057667D01*
X72457365Y-62057667D01*
X72457365Y-61893536D01*
X72538637Y-61893536D01*
X72606069Y-61888697D01*
X72654436Y-61876008D01*
X72688328Y-61857424D01*
X72711210Y-61833663D01*
X72725039Y-61804062D01*
X72729940Y-61766713D01*
X72723993Y-61723501D01*
X72707635Y-61691797D01*
X72680908Y-61668614D01*
X72641050Y-61653221D01*
X72583089Y-61647339D01*
X72519302Y-61654032D01*
X72455922Y-61674440D01*
X72391786Y-61709865D01*
X72391786Y-61534804D01*
X72462272Y-61506765D01*
X72541880Y-61489303D01*
X72632243Y-61483208D01*
X72708067Y-61488058D01*
X72770957Y-61501571D01*
X72823066Y-61522604D01*
X72866167Y-61550619D01*
X72903180Y-61587320D01*
X72928944Y-61628071D01*
X72944512Y-61673735D01*
X72949881Y-61725680D01*
X72944102Y-61787368D01*
X72927856Y-61838222D01*
X72901889Y-61880440D01*
X72865718Y-61915489D01*
X72817691Y-61943942D01*
X72755158Y-61965404D01*
X72755158Y-61968824D01*
X72821692Y-61983726D01*
X72875557Y-62009053D01*
X72919106Y-62044417D01*
X72952449Y-62089134D01*
X72972386Y-62139694D01*
X72979251Y-62197923D01*
X72972639Y-62264671D01*
X72953685Y-62321985D01*
X72922732Y-62371799D01*
X72878806Y-62415361D01*
X72827103Y-62448692D01*
X72765058Y-62473646D01*
X72690674Y-62489629D01*
X72601530Y-62495350D01*
X72501131Y-62489236D01*
X72420060Y-62472429D01*
X72354905Y-62446685D01*
G37*
G36*
X104143544Y-51533938D02*
G01*
X104143544Y-51540074D01*
X104739893Y-51540074D01*
X104739893Y-51809719D01*
X103772600Y-51809719D01*
X103772600Y-51556469D01*
X104193827Y-51154659D01*
X104308757Y-51034681D01*
X104372613Y-50949953D01*
X104401675Y-50893131D01*
X104418703Y-50835464D01*
X104424362Y-50776022D01*
X104414915Y-50700284D01*
X104389379Y-50645921D01*
X104348795Y-50607288D01*
X104289946Y-50582284D01*
X104206101Y-50572873D01*
X104115061Y-50581845D01*
X104025198Y-50609071D01*
X103935012Y-50655993D01*
X103843308Y-50725280D01*
X103843308Y-50440432D01*
X103941764Y-50385730D01*
X104045868Y-50346714D01*
X104156737Y-50323023D01*
X104275710Y-50314952D01*
X104388648Y-50322966D01*
X104482934Y-50345412D01*
X104561768Y-50380675D01*
X104627694Y-50428250D01*
X104682437Y-50488975D01*
X104721574Y-50558878D01*
X104745785Y-50639776D01*
X104754273Y-50734256D01*
X104743964Y-50828938D01*
X104711847Y-50927545D01*
X104654809Y-51032154D01*
X104568146Y-51144592D01*
X104445794Y-51266400D01*
X104143544Y-51533938D01*
G37*
G36*
X114541862Y-51760168D02*
G01*
X114541862Y-51481456D01*
X114617973Y-51527251D01*
X114699960Y-51560051D01*
X114788908Y-51580092D01*
X114886153Y-51586969D01*
X114967270Y-51580197D01*
X115030379Y-51561712D01*
X115079318Y-51533205D01*
X115117476Y-51493042D01*
X115140410Y-51444033D01*
X115148469Y-51383362D01*
X115138840Y-51321915D01*
X115110949Y-51271902D01*
X115062923Y-51230405D01*
X115003404Y-51202126D01*
X114926465Y-51183503D01*
X114827718Y-51176641D01*
X114695552Y-51176641D01*
X114695552Y-50930444D01*
X114817459Y-50930444D01*
X114918608Y-50923187D01*
X114991157Y-50904153D01*
X115041995Y-50876277D01*
X115076318Y-50840635D01*
X115097063Y-50796233D01*
X115104414Y-50740210D01*
X115095493Y-50675393D01*
X115070956Y-50627836D01*
X115030865Y-50593062D01*
X114971078Y-50569973D01*
X114884138Y-50561149D01*
X114788457Y-50571189D01*
X114693386Y-50601800D01*
X114597183Y-50654938D01*
X114597183Y-50392347D01*
X114702912Y-50350289D01*
X114822324Y-50324096D01*
X114957868Y-50314952D01*
X115071604Y-50322228D01*
X115165939Y-50342497D01*
X115244102Y-50374046D01*
X115308754Y-50416069D01*
X115364274Y-50471120D01*
X115402919Y-50532248D01*
X115426271Y-50600744D01*
X115434325Y-50678660D01*
X115425657Y-50771193D01*
X115401288Y-50847474D01*
X115362338Y-50910800D01*
X115308081Y-50963375D01*
X115236040Y-51006053D01*
X115142241Y-51038247D01*
X115142241Y-51043376D01*
X115242042Y-51065729D01*
X115322839Y-51103720D01*
X115388163Y-51156766D01*
X115438177Y-51223842D01*
X115468082Y-51299682D01*
X115478380Y-51387026D01*
X115468462Y-51487148D01*
X115440031Y-51573119D01*
X115393601Y-51647839D01*
X115327713Y-51713182D01*
X115250159Y-51763178D01*
X115157091Y-51800609D01*
X115045515Y-51824584D01*
X114911798Y-51833166D01*
X114761200Y-51823994D01*
X114639594Y-51798784D01*
X114541862Y-51760168D01*
G37*
G36*
X116990274Y-50338400D02*
G01*
X116484050Y-51809719D01*
X116109077Y-51809719D01*
X115608989Y-50338400D01*
X115965553Y-50338400D01*
X116271925Y-51362388D01*
X116292280Y-51443563D01*
X116301693Y-51509117D01*
X116307829Y-51509117D01*
X116318901Y-51439139D01*
X116339611Y-51358266D01*
X116643968Y-50338400D01*
X116990274Y-50338400D01*
G37*
G36*
X124879641Y-51709335D02*
G01*
X124770814Y-51761457D01*
X124646963Y-51800174D01*
X124505812Y-51824588D01*
X124344749Y-51833166D01*
X124201428Y-51824386D01*
X124076266Y-51799375D01*
X123966660Y-51759559D01*
X123870420Y-51705559D01*
X123785860Y-51637161D01*
X123714034Y-51555234D01*
X123657709Y-51462137D01*
X123616385Y-51356265D01*
X123590504Y-51235447D01*
X123581429Y-51097048D01*
X123590981Y-50959449D01*
X123618555Y-50836239D01*
X123663221Y-50725212D01*
X123724990Y-50624571D01*
X123804820Y-50533031D01*
X123897723Y-50456154D01*
X124001784Y-50395968D01*
X124118577Y-50351960D01*
X124250194Y-50324525D01*
X124399154Y-50314952D01*
X124553945Y-50322660D01*
X124690483Y-50344638D01*
X124811039Y-50379524D01*
X124811039Y-50690109D01*
X124724854Y-50648449D01*
X124627899Y-50617685D01*
X124518574Y-50598394D01*
X124395032Y-50591649D01*
X124294038Y-50600499D01*
X124205932Y-50625920D01*
X124128310Y-50667243D01*
X124059443Y-50725189D01*
X124003990Y-50795562D01*
X123963782Y-50876924D01*
X123938677Y-50971386D01*
X123929841Y-51081753D01*
X123938082Y-51194924D01*
X123961118Y-51288838D01*
X123997270Y-51366885D01*
X124046070Y-51431722D01*
X124108023Y-51484970D01*
X124179647Y-51523281D01*
X124262839Y-51547093D01*
X124360228Y-51555462D01*
X124472041Y-51546055D01*
X124548722Y-51521756D01*
X124548722Y-51235809D01*
X124254623Y-51235809D01*
X124254623Y-50971477D01*
X124879641Y-50971477D01*
X124879641Y-51709335D01*
G37*
G36*
X126487339Y-51809719D02*
G01*
X126153306Y-51809719D01*
X125547614Y-50885290D01*
X125473884Y-50763199D01*
X125469762Y-50763199D01*
X125478005Y-51001244D01*
X125478005Y-51809719D01*
X125165496Y-51809719D01*
X125165496Y-50338400D01*
X125522060Y-50338400D01*
X126105129Y-51234069D01*
X126178860Y-51354145D01*
X126182982Y-51354145D01*
X126177361Y-51290508D01*
X126174738Y-51152003D01*
X126174738Y-50338400D01*
X126487339Y-50338400D01*
X126487339Y-51809719D01*
G37*
G36*
X127508969Y-50347227D02*
G01*
X127646605Y-50371870D01*
X127761760Y-50410129D01*
X127857845Y-50460627D01*
X127937615Y-50522882D01*
X128003040Y-50597345D01*
X128055180Y-50685365D01*
X128094109Y-50789095D01*
X128118911Y-50911366D01*
X128127735Y-51055558D01*
X128118422Y-51193040D01*
X128091710Y-51314490D01*
X128048756Y-51422330D01*
X127989781Y-51518540D01*
X127914053Y-51604555D01*
X127825419Y-51676723D01*
X127725950Y-51733335D01*
X127614118Y-51774799D01*
X127487907Y-51800680D01*
X127344906Y-51809719D01*
X126824394Y-51809719D01*
X126824394Y-51541265D01*
X127155312Y-51541265D01*
X127319260Y-51541265D01*
X127425624Y-51532397D01*
X127515475Y-51507311D01*
X127591844Y-51467235D01*
X127656957Y-51411938D01*
X127708954Y-51343994D01*
X127746992Y-51264269D01*
X127770935Y-51170485D01*
X127779414Y-51059679D01*
X127771043Y-50955360D01*
X127747391Y-50867216D01*
X127709715Y-50792348D01*
X127657964Y-50728578D01*
X127593915Y-50677512D01*
X127517548Y-50640025D01*
X127426400Y-50616307D01*
X127317245Y-50607861D01*
X127155312Y-50607861D01*
X127155312Y-51541265D01*
X126824394Y-51541265D01*
X126824394Y-50338400D01*
X127344906Y-50338400D01*
X127508969Y-50347227D01*
G37*
G36*
X82801427Y-50323817D02*
G01*
X82891148Y-50348969D01*
X82968069Y-50389314D01*
X83034330Y-50445243D01*
X83091080Y-50518586D01*
X83138375Y-50612460D01*
X83175181Y-50731051D01*
X83199464Y-50879417D01*
X83208328Y-51063343D01*
X83201587Y-51218565D01*
X83182724Y-51350343D01*
X83153477Y-51461802D01*
X83115131Y-51555744D01*
X83068469Y-51634596D01*
X83007446Y-51706296D01*
X82938207Y-51761010D01*
X82859723Y-51800336D01*
X82770217Y-51824668D01*
X82667300Y-51833166D01*
X82558180Y-51824250D01*
X82465629Y-51799012D01*
X82386606Y-51758674D01*
X82318860Y-51703016D01*
X82261117Y-51630398D01*
X82213201Y-51537901D01*
X82176039Y-51421539D01*
X82151581Y-51276449D01*
X82142666Y-51097048D01*
X82142994Y-51089446D01*
X82471570Y-51089446D01*
X82481015Y-51279705D01*
X82505102Y-51409927D01*
X82538639Y-51495239D01*
X82578434Y-51548039D01*
X82623943Y-51577227D01*
X82677558Y-51586969D01*
X82729036Y-51577256D01*
X82773117Y-51547912D01*
X82812062Y-51494223D01*
X82845146Y-51406600D01*
X82869028Y-51271876D01*
X82878417Y-51074059D01*
X82869155Y-50875627D01*
X82845621Y-50740730D01*
X82813077Y-50653228D01*
X82774879Y-50599812D01*
X82731810Y-50570742D01*
X82681680Y-50561149D01*
X82627598Y-50571247D01*
X82581402Y-50601683D01*
X82540704Y-50657194D01*
X82506207Y-50747539D01*
X82481340Y-50886170D01*
X82471570Y-51089446D01*
X82142994Y-51089446D01*
X82149547Y-50937676D01*
X82168762Y-50802945D01*
X82198484Y-50689528D01*
X82237354Y-50594434D01*
X82284541Y-50515079D01*
X82346354Y-50443104D01*
X82416917Y-50387996D01*
X82497346Y-50348253D01*
X82589527Y-50323587D01*
X82695968Y-50314952D01*
X82801427Y-50323817D01*
G37*
G36*
X93264531Y-51809719D02*
G01*
X92335157Y-51809719D01*
X92335157Y-51551798D01*
X92639514Y-51551798D01*
X92639514Y-50637353D01*
X92326914Y-50707695D01*
X92326914Y-50443912D01*
X92962281Y-50314952D01*
X92962281Y-51551798D01*
X93264531Y-51551798D01*
X93264531Y-51809719D01*
G37*
D12*
G36*
X157038305Y-44304407D02*
G01*
X157094897Y-44319559D01*
X157139164Y-44342467D01*
X157173414Y-44372061D01*
X157199389Y-44408128D01*
X157218136Y-44451342D01*
X157229897Y-44503186D01*
X157234082Y-44565797D01*
X157231053Y-44615736D01*
X157222267Y-44660563D01*
X157208014Y-44702006D01*
X157188973Y-44738965D01*
X157165392Y-44771233D01*
X157136950Y-44799171D01*
X157105091Y-44821567D01*
X157069081Y-44838860D01*
X157069081Y-44841608D01*
X157084995Y-44850432D01*
X157100817Y-44863834D01*
X157130538Y-44899677D01*
X157157970Y-44943762D01*
X157181784Y-44989924D01*
X157320636Y-45279719D01*
X157130584Y-45279719D01*
X157016324Y-45027538D01*
X156991732Y-44976308D01*
X156967918Y-44937717D01*
X156942777Y-44913110D01*
X156929239Y-44906728D01*
X156914338Y-44904561D01*
X156869779Y-44904561D01*
X156869779Y-45279719D01*
X156704319Y-45279719D01*
X156704319Y-44737866D01*
X156869779Y-44737866D01*
X156941494Y-44737866D01*
X156975802Y-44732958D01*
X157003879Y-44719115D01*
X157027086Y-44696711D01*
X157045343Y-44666492D01*
X157056164Y-44632387D01*
X157059876Y-44593091D01*
X157055133Y-44546081D01*
X157042144Y-44511768D01*
X157021059Y-44486846D01*
X156989821Y-44470395D01*
X156944608Y-44464131D01*
X156869779Y-44464131D01*
X156869779Y-44737866D01*
X156704319Y-44737866D01*
X156704319Y-44298839D01*
X156966636Y-44298839D01*
X157038305Y-44304407D01*
G37*
G36*
X157666522Y-44288014D02*
G01*
X157712965Y-44301545D01*
X157752416Y-44322864D01*
X157785964Y-44351596D01*
X157814850Y-44388920D01*
X157834859Y-44430131D01*
X157846899Y-44476073D01*
X157851039Y-44528122D01*
X157845693Y-44587508D01*
X157830120Y-44639337D01*
X157803945Y-44685485D01*
X157765434Y-44726904D01*
X157711684Y-44763511D01*
X157711684Y-44766259D01*
X157759223Y-44791042D01*
X157797406Y-44823358D01*
X157827684Y-44863101D01*
X157850787Y-44910386D01*
X157864372Y-44960509D01*
X157868946Y-45014715D01*
X157864212Y-45077817D01*
X157850641Y-45131953D01*
X157828464Y-45178973D01*
X157796955Y-45220062D01*
X157759961Y-45251293D01*
X157715184Y-45274796D01*
X157661099Y-45289918D01*
X157595867Y-45295350D01*
X157540036Y-45290247D01*
X157492221Y-45275802D01*
X157451138Y-45252888D01*
X157415753Y-45221772D01*
X157385684Y-45181750D01*
X157364625Y-45136733D01*
X157351820Y-45085699D01*
X157347380Y-45027049D01*
X157348026Y-45018134D01*
X157500566Y-45018134D01*
X157504099Y-45052264D01*
X157514433Y-45081666D01*
X157532074Y-45107588D01*
X157554328Y-45127058D01*
X157579590Y-45138856D01*
X157608690Y-45142943D01*
X157640184Y-45138768D01*
X157665913Y-45127047D01*
X157687091Y-45108260D01*
X157703518Y-45082857D01*
X157713376Y-45052829D01*
X157716813Y-45016730D01*
X157712676Y-44975478D01*
X157700501Y-44939181D01*
X157679656Y-44906446D01*
X157648292Y-44876707D01*
X157603560Y-44850279D01*
X157563519Y-44876956D01*
X157535024Y-44906825D01*
X157515801Y-44939774D01*
X157504445Y-44976439D01*
X157500566Y-45018134D01*
X157348026Y-45018134D01*
X157351402Y-44971584D01*
X157363077Y-44922345D01*
X157382355Y-44878019D01*
X157409890Y-44837724D01*
X157446980Y-44801088D01*
X157495483Y-44768274D01*
X157495483Y-44764855D01*
X157447401Y-44731650D01*
X157412632Y-44693300D01*
X157388743Y-44649789D01*
X157374379Y-44600115D01*
X157369771Y-44546624D01*
X157522640Y-44546624D01*
X157527667Y-44587927D01*
X157542669Y-44624017D01*
X157569197Y-44656526D01*
X157610750Y-44685659D01*
X157652313Y-44655855D01*
X157678851Y-44622898D01*
X157693846Y-44586555D01*
X157698861Y-44545219D01*
X157696052Y-44513254D01*
X157688089Y-44487093D01*
X157675047Y-44465413D01*
X157657958Y-44449222D01*
X157637200Y-44439182D01*
X157611758Y-44435615D01*
X157587061Y-44439247D01*
X157566069Y-44449666D01*
X157547965Y-44466817D01*
X157533936Y-44489436D01*
X157525547Y-44515660D01*
X157522640Y-44546624D01*
X157369771Y-44546624D01*
X157369408Y-44542410D01*
X157373697Y-44488048D01*
X157386196Y-44439751D01*
X157407001Y-44396142D01*
X157437048Y-44356358D01*
X157472089Y-44325242D01*
X157512237Y-44302477D01*
X157558412Y-44288219D01*
X157611758Y-44283208D01*
X157666522Y-44288014D01*
G37*
X117764719Y-59500000D02*
X117764719Y-54500000D01*
X119514719Y-54500000D02*
X121014719Y-54500000D01*
X121014719Y-59500000D02*
X119514719Y-59500000D01*
X122764719Y-54500000D02*
X122764719Y-59500000D01*
X117764719Y-60000000D02*
X117434719Y-60240000D01*
X117434719Y-59760000D01*
X117764719Y-60000000D01*
G36*
X117764719Y-60000000D02*
G01*
X117434719Y-60240000D01*
X117434719Y-59760000D01*
X117764719Y-60000000D01*
G37*
X121064719Y-55210000D02*
X121372719Y-55490000D01*
X122450884Y-55490000D01*
X122714719Y-55220630D01*
X122714719Y-54500000D01*
X122764719Y-54500000D01*
X122764719Y-56013266D01*
X122764719Y-56770000D01*
X120264719Y-54500000D01*
X121064719Y-54500000D01*
X121064719Y-55210000D01*
G36*
X121064719Y-55210000D02*
G01*
X121372719Y-55490000D01*
X122450884Y-55490000D01*
X122714719Y-55220630D01*
X122714719Y-54500000D01*
X122764719Y-54500000D01*
X122764719Y-56013266D01*
X122764719Y-56770000D01*
X120264719Y-54500000D01*
X121064719Y-54500000D01*
X121064719Y-55210000D01*
G37*
X124704719Y-69104719D02*
X124704719Y-70954719D01*
X124704719Y-69104719D02*
X125764719Y-69104719D01*
X126764719Y-69119719D02*
X127824719Y-69119719D01*
X127824719Y-69119719D02*
X127824719Y-70969719D01*
D14*
X124744719Y-71774719D02*
X124414719Y-72014719D01*
X124414719Y-71534719D01*
X124744719Y-71774719D01*
G36*
X124744719Y-71774719D02*
G01*
X124414719Y-72014719D01*
X124414719Y-71534719D01*
X124744719Y-71774719D01*
G37*
D12*
X137264719Y-63064719D02*
X143264719Y-63064719D01*
X143264719Y-69064719D01*
X137264719Y-69064719D01*
X137264719Y-63064719D01*
D14*
X135704719Y-67394719D02*
X135464719Y-67064719D01*
X135944719Y-67064719D01*
X135704719Y-67394719D01*
G36*
X135704719Y-67394719D02*
G01*
X135464719Y-67064719D01*
X135944719Y-67064719D01*
X135704719Y-67394719D01*
G37*
D12*
X141514719Y-37564719D02*
X141514719Y-39564719D01*
X147014719Y-37564719D02*
X147014719Y-39564719D01*
D14*
X143264719Y-42344719D02*
X142934719Y-42104719D01*
X143264719Y-41864719D01*
X143264719Y-42344719D01*
G36*
X143264719Y-42344719D02*
G01*
X142934719Y-42104719D01*
X143264719Y-41864719D01*
X143264719Y-42344719D01*
G37*
D12*
X116854719Y-77103467D02*
X116854719Y-78525971D01*
X118674719Y-77103467D02*
X118674719Y-78525971D01*
X49840000Y-53322936D02*
X49840000Y-54777064D01*
X51660000Y-53322936D02*
X51660000Y-54777064D01*
X50354719Y-45591783D02*
X50354719Y-44137655D01*
X52174719Y-45591783D02*
X52174719Y-44137655D01*
X111553467Y-63104719D02*
X112975971Y-63104719D01*
X111553467Y-64924719D02*
X112975971Y-64924719D01*
X81290000Y-57727064D02*
X81290000Y-56272936D01*
X83110000Y-57727064D02*
X83110000Y-56272936D01*
X125600000Y-55985281D02*
X125600000Y-58485281D01*
X127400000Y-55985281D02*
X127400000Y-58485281D01*
D14*
X127700000Y-55735281D02*
X127370000Y-55495281D01*
X127700000Y-55255281D01*
X127700000Y-55735281D01*
G36*
X127700000Y-55735281D02*
G01*
X127370000Y-55495281D01*
X127700000Y-55255281D01*
X127700000Y-55735281D01*
G37*
D12*
X145264719Y-55064719D02*
X151264719Y-55064719D01*
X151264719Y-61064719D01*
X145264719Y-61064719D01*
X145264719Y-55064719D01*
D14*
X143704719Y-59394719D02*
X143464719Y-59064719D01*
X143944719Y-59064719D01*
X143704719Y-59394719D01*
G36*
X143704719Y-59394719D02*
G01*
X143464719Y-59064719D01*
X143944719Y-59064719D01*
X143704719Y-59394719D01*
G37*
D12*
X53264719Y-59064719D02*
X59264719Y-59064719D01*
X59264719Y-65064719D01*
X53264719Y-65064719D01*
X53264719Y-59064719D01*
D14*
X51704719Y-63394719D02*
X51464719Y-63064719D01*
X51944719Y-63064719D01*
X51704719Y-63394719D01*
G36*
X51704719Y-63394719D02*
G01*
X51464719Y-63064719D01*
X51944719Y-63064719D01*
X51704719Y-63394719D01*
G37*
D12*
X61514719Y-37564719D02*
X61514719Y-39564719D01*
X67014719Y-37564719D02*
X67014719Y-39564719D01*
D14*
X65594719Y-42024719D02*
X65264719Y-42264719D01*
X65264719Y-41784719D01*
X65594719Y-42024719D01*
G36*
X65594719Y-42024719D02*
G01*
X65264719Y-42264719D01*
X65264719Y-41784719D01*
X65594719Y-42024719D01*
G37*
D12*
X77254719Y-78275971D02*
X77254719Y-76853467D01*
X79074719Y-78275971D02*
X79074719Y-76853467D01*
X85764719Y-59500000D02*
X85764719Y-54500000D01*
X87514719Y-54500000D02*
X89014719Y-54500000D01*
X89014719Y-59500000D02*
X87514719Y-59500000D01*
X90764719Y-54500000D02*
X90764719Y-59500000D01*
X85764719Y-60000000D02*
X85434719Y-60240000D01*
X85434719Y-59760000D01*
X85764719Y-60000000D01*
G36*
X85764719Y-60000000D02*
G01*
X85434719Y-60240000D01*
X85434719Y-59760000D01*
X85764719Y-60000000D01*
G37*
X89064719Y-55210000D02*
X89372719Y-55490000D01*
X90450884Y-55490000D01*
X90714719Y-55220630D01*
X90714719Y-54500000D01*
X90764719Y-54500000D01*
X90764719Y-56013266D01*
X90764719Y-56770000D01*
X88264719Y-54500000D01*
X89064719Y-54500000D01*
X89064719Y-55210000D01*
G36*
X89064719Y-55210000D02*
G01*
X89372719Y-55490000D01*
X90450884Y-55490000D01*
X90714719Y-55220630D01*
X90714719Y-54500000D01*
X90764719Y-54500000D01*
X90764719Y-56013266D01*
X90764719Y-56770000D01*
X88264719Y-54500000D01*
X89064719Y-54500000D01*
X89064719Y-55210000D01*
G37*
X103553467Y-63104719D02*
X104975971Y-63104719D01*
X103553467Y-64924719D02*
X104975971Y-64924719D01*
D15*
X82142400Y-75989919D02*
X82142400Y-77259919D01*
X82142400Y-77259919D02*
X82142400Y-77869519D01*
X82142400Y-77869519D02*
X82142400Y-79139519D01*
D12*
X82142400Y-79139519D02*
X92150000Y-79139519D01*
X92150000Y-75989919D02*
X82142400Y-75989919D01*
D15*
X92150000Y-79139519D02*
X92150000Y-75989919D01*
X82142400Y-77057119D02*
G75*
G02*
X82142400Y-78072319I0J-507600D01*
G01*
D14*
X82194919Y-80350233D02*
X81864919Y-80590233D01*
X81864919Y-80110233D01*
X82194919Y-80350233D01*
G36*
X82194919Y-80350233D02*
G01*
X81864919Y-80590233D01*
X81864919Y-80110233D01*
X82194919Y-80350233D01*
G37*
D12*
X61264719Y-51064719D02*
X67264719Y-51064719D01*
X67264719Y-57064719D01*
X61264719Y-57064719D01*
X61264719Y-51064719D01*
D14*
X59704719Y-55394719D02*
X59464719Y-55064719D01*
X59944719Y-55064719D01*
X59704719Y-55394719D01*
G36*
X59704719Y-55394719D02*
G01*
X59464719Y-55064719D01*
X59944719Y-55064719D01*
X59704719Y-55394719D01*
G37*
D12*
X148965000Y-65322936D02*
X148965000Y-66777064D01*
X150785000Y-65322936D02*
X150785000Y-66777064D01*
X109764719Y-59500000D02*
X109764719Y-54500000D01*
X111514719Y-54500000D02*
X113014719Y-54500000D01*
X113014719Y-59500000D02*
X111514719Y-59500000D01*
X114764719Y-54500000D02*
X114764719Y-59500000D01*
X109764719Y-60000000D02*
X109434719Y-60240000D01*
X109434719Y-59760000D01*
X109764719Y-60000000D01*
G36*
X109764719Y-60000000D02*
G01*
X109434719Y-60240000D01*
X109434719Y-59760000D01*
X109764719Y-60000000D01*
G37*
X113064719Y-55210000D02*
X113372719Y-55490000D01*
X114450884Y-55490000D01*
X114714719Y-55220630D01*
X114714719Y-54500000D01*
X114764719Y-54500000D01*
X114764719Y-56013266D01*
X114764719Y-56770000D01*
X112264719Y-54500000D01*
X113064719Y-54500000D01*
X113064719Y-55210000D01*
G36*
X113064719Y-55210000D02*
G01*
X113372719Y-55490000D01*
X114450884Y-55490000D01*
X114714719Y-55220630D01*
X114714719Y-54500000D01*
X114764719Y-54500000D01*
X114764719Y-56013266D01*
X114764719Y-56770000D01*
X112264719Y-54500000D01*
X113064719Y-54500000D01*
X113064719Y-55210000D01*
G37*
X132690000Y-45440000D02*
X132690000Y-46460000D01*
X132690000Y-46460000D02*
X134290000Y-46460000D01*
X132690000Y-52540000D02*
X134290000Y-52540000D01*
X132690000Y-53560000D02*
X132690000Y-52540000D01*
X134290000Y-46460000D02*
X134290000Y-47600000D01*
X134290000Y-52540000D02*
X134300000Y-51400000D01*
X136940000Y-45440000D02*
X132690000Y-45440000D01*
X136940000Y-53560000D02*
X132690000Y-53560000D01*
X140510000Y-51840000D02*
X140510000Y-47160000D01*
D14*
X135405000Y-50765000D02*
X135075000Y-50525000D01*
X135405000Y-50285000D01*
X135405000Y-50765000D01*
G36*
X135405000Y-50765000D02*
G01*
X135075000Y-50525000D01*
X135405000Y-50285000D01*
X135405000Y-50765000D01*
G37*
D12*
X152715000Y-65322936D02*
X152715000Y-66777064D01*
X154535000Y-65322936D02*
X154535000Y-66777064D01*
X53840000Y-69322936D02*
X53840000Y-70777064D01*
X55660000Y-69322936D02*
X55660000Y-70777064D01*
X87553467Y-63104719D02*
X88975971Y-63104719D01*
X87553467Y-64924719D02*
X88975971Y-64924719D01*
X124764719Y-78614719D02*
X124764719Y-77014719D01*
X126814719Y-76964719D02*
X125764719Y-76964719D01*
X127764719Y-78614719D02*
X127764719Y-77014719D01*
D14*
X124864719Y-79214719D02*
X124534719Y-79454719D01*
X124534719Y-78974719D01*
X124864719Y-79214719D01*
G36*
X124864719Y-79214719D02*
G01*
X124534719Y-79454719D01*
X124534719Y-78974719D01*
X124864719Y-79214719D01*
G37*
D12*
X129150000Y-57962345D02*
X129150000Y-56508217D01*
X131350000Y-57962345D02*
X131350000Y-56508217D01*
X120854719Y-77103467D02*
X120854719Y-78525971D01*
X122674719Y-77103467D02*
X122674719Y-78525971D01*
X49840000Y-69322936D02*
X49840000Y-70777064D01*
X51660000Y-69322936D02*
X51660000Y-70777064D01*
X119553467Y-63104719D02*
X120975971Y-63104719D01*
X119553467Y-64924719D02*
X120975971Y-64924719D01*
X101764719Y-59500000D02*
X101764719Y-54500000D01*
X103514719Y-54500000D02*
X105014719Y-54500000D01*
X105014719Y-59500000D02*
X103514719Y-59500000D01*
X106764719Y-54500000D02*
X106764719Y-59500000D01*
X101764719Y-60000000D02*
X101434719Y-60240000D01*
X101434719Y-59760000D01*
X101764719Y-60000000D01*
G36*
X101764719Y-60000000D02*
G01*
X101434719Y-60240000D01*
X101434719Y-59760000D01*
X101764719Y-60000000D01*
G37*
X105064719Y-55210000D02*
X105372719Y-55490000D01*
X106450884Y-55490000D01*
X106714719Y-55220630D01*
X106714719Y-54500000D01*
X106764719Y-54500000D01*
X106764719Y-56013266D01*
X106764719Y-56770000D01*
X104264719Y-54500000D01*
X105064719Y-54500000D01*
X105064719Y-55210000D01*
G36*
X105064719Y-55210000D02*
G01*
X105372719Y-55490000D01*
X106450884Y-55490000D01*
X106714719Y-55220630D01*
X106714719Y-54500000D01*
X106764719Y-54500000D01*
X106764719Y-56013266D01*
X106764719Y-56770000D01*
X104264719Y-54500000D01*
X105064719Y-54500000D01*
X105064719Y-55210000D01*
G37*
X61264719Y-67064719D02*
X67264719Y-67064719D01*
X67264719Y-73064719D01*
X61264719Y-73064719D01*
X61264719Y-67064719D01*
D14*
X59704719Y-71394719D02*
X59464719Y-71064719D01*
X59944719Y-71064719D01*
X59704719Y-71394719D01*
G36*
X59704719Y-71394719D02*
G01*
X59464719Y-71064719D01*
X59944719Y-71064719D01*
X59704719Y-71394719D01*
G37*
D12*
X99714719Y-75814719D02*
X108814719Y-75814719D01*
X99714719Y-79314719D02*
X99714719Y-75814719D01*
X108814719Y-75814719D02*
X108814719Y-79314719D01*
X108814719Y-79314719D02*
X99714719Y-79314719D01*
D14*
X100994719Y-74204719D02*
X100664719Y-74444719D01*
X100664719Y-73964719D01*
X100994719Y-74204719D01*
G36*
X100994719Y-74204719D02*
G01*
X100664719Y-74444719D01*
X100664719Y-73964719D01*
X100994719Y-74204719D01*
G37*
D12*
X53965000Y-53322936D02*
X53965000Y-54777064D01*
X55785000Y-53322936D02*
X55785000Y-54777064D01*
X93764719Y-59500000D02*
X93764719Y-54500000D01*
X95514719Y-54500000D02*
X97014719Y-54500000D01*
X97014719Y-59500000D02*
X95514719Y-59500000D01*
X98764719Y-54500000D02*
X98764719Y-59500000D01*
X93764719Y-60000000D02*
X93434719Y-60240000D01*
X93434719Y-59760000D01*
X93764719Y-60000000D01*
G36*
X93764719Y-60000000D02*
G01*
X93434719Y-60240000D01*
X93434719Y-59760000D01*
X93764719Y-60000000D01*
G37*
X97064719Y-55210000D02*
X97372719Y-55490000D01*
X98450884Y-55490000D01*
X98714719Y-55220630D01*
X98714719Y-54500000D01*
X98764719Y-54500000D01*
X98764719Y-56013266D01*
X98764719Y-56770000D01*
X96264719Y-54500000D01*
X97064719Y-54500000D01*
X97064719Y-55210000D01*
G36*
X97064719Y-55210000D02*
G01*
X97372719Y-55490000D01*
X98450884Y-55490000D01*
X98714719Y-55220630D01*
X98714719Y-54500000D01*
X98764719Y-54500000D01*
X98764719Y-56013266D01*
X98764719Y-56770000D01*
X96264719Y-54500000D01*
X97064719Y-54500000D01*
X97064719Y-55210000D01*
G37*
X95553467Y-63104719D02*
X96975971Y-63104719D01*
X95553467Y-64924719D02*
X96975971Y-64924719D01*
X69264719Y-59064719D02*
X75264719Y-59064719D01*
X75264719Y-65064719D01*
X69264719Y-65064719D01*
X69264719Y-59064719D01*
D14*
X67704719Y-63394719D02*
X67464719Y-63064719D01*
X67944719Y-63064719D01*
X67704719Y-63394719D01*
G36*
X67704719Y-63394719D02*
G01*
X67464719Y-63064719D01*
X67944719Y-63064719D01*
X67704719Y-63394719D01*
G37*
D12*
X156354719Y-45591783D02*
X156354719Y-44137655D01*
X158174719Y-45591783D02*
X158174719Y-44137655D01*
M02*
