<?xml version="1.0" encoding="UTF-8" standalone="no"?>
<!-- Created with Inkscape (http://www.inkscape.org/) -->

<svg
   width="22.413885mm"
   height="20.08246mm"
   viewBox="0 0 22.413885 20.08246"
   version="1.1"
   id="svg1"
   xml:space="preserve"
   inkscape:version="1.3.2 (091e20e, 2023-11-25)"
   sodipodi:docname="LSS_R.svg"
   xmlns:inkscape="http://www.inkscape.org/namespaces/inkscape"
   xmlns:sodipodi="http://sodipodi.sourceforge.net/DTD/sodipodi-0.dtd"
   xmlns="http://www.w3.org/2000/svg"
   xmlns:svg="http://www.w3.org/2000/svg"><sodipodi:namedview
     id="namedview1"
     pagecolor="#ffffff"
     bordercolor="#000000"
     borderopacity="0.25"
     inkscape:showpageshadow="2"
     inkscape:pageopacity="0.0"
     inkscape:pagecheckerboard="0"
     inkscape:deskcolor="#d1d1d1"
     inkscape:document-units="mm"
     inkscape:zoom="8.3859353"
     inkscape:cx="57.179072"
     inkscape:cy="55.569234"
     inkscape:window-width="1432"
     inkscape:window-height="1097"
     inkscape:window-x="0"
     inkscape:window-y="44"
     inkscape:window-maximized="0"
     inkscape:current-layer="g284" /><defs
     id="defs1" /><g
     inkscape:label="[fixed] BG"
     inkscape:groupmode="layer"
     sodipodi:insensitive="true"
     id="g1"
     transform="translate(-50.80346,-30.498543)"><rect
       x="0"
       y="0"
       width="100"
       height="100"
       style="fill:#ffffff;fill-opacity:1;stroke:none"
       id="rect1" /></g><g
     inkscape:label="F.SilkS"
     inkscape:groupmode="layer"
     id="g2"
     transform="translate(-50.80346,-30.498543)" /><g
     style="clip-rule:evenodd;fill-rule:evenodd;stroke-linecap:round;stroke-linejoin:round;stroke-miterlimit:1.5"
     id="g3"
     transform="matrix(0.01129862,0,0,0.01129862,-37.482437,-0.9749353)"><rect
       id="LSS_pcb"
       x="2.342"
       y="1.429"
       width="5634.73"
       height="1947.14"
       style="fill:none" /><g
       id="g284"><path
         d="m 4417.49,1281.64 654.703,-262.063 -81.068,712.99 -512.297,-10.866"
         style="fill:none;stroke:#000000;stroke-width:6.67px"
         id="path1" /><path
         d="m 4452.63,1292.86 298.77,-113.318 17.183,521.96 -290.806,-4.842"
         style="fill:none;stroke:#000000;stroke-width:6.67px"
         id="path2" /><path
         d="m 4472.49,1304.98 262.424,-95.423 9.93,466.332 -268.881,0.636"
         style="fill:none;stroke:#000000;stroke-width:6.67px"
         id="path3" /><path
         d="m 4516.84,1324.78 218.076,-71.423"
         style="fill:none;stroke:#000000;stroke-width:6.67px"
         id="path4" /><path
         d="m 4504.61,1363.49 230.306,-70.629"
         style="fill:none;stroke:#000000;stroke-width:6.67px"
         id="path5" /><path
         d="m 4504.61,1398.86 230.306,-58.105"
         style="fill:none;stroke:#000000;stroke-width:6.67px"
         id="path6" /><path
         d="m 4504.61,1423.19 230.306,-58.105"
         style="fill:none;stroke:#000000;stroke-width:6.67px"
         id="path7" /><path
         d="m 4478.88,1465.6 256.032,-53.782"
         style="fill:none;stroke:#000000;stroke-width:6.67px"
         id="path8" /><path
         d="m 4475.96,1499.99 264.459,-44.284"
         style="fill:none;stroke:#000000;stroke-width:6.67px"
         id="path9" /><path
         d="m 4475.96,1536.8 264.459,-35.214"
         style="fill:none;stroke:#000000;stroke-width:6.67px"
         id="path10" /><path
         d="m 4475.96,1560.37 264.459,-28.263"
         style="fill:none;stroke:#000000;stroke-width:6.67px"
         id="path11" /><path
         d="m 4475.96,1597.79 264.459,-19.925"
         style="fill:none;stroke:#000000;stroke-width:6.67px"
         id="path12" /><path
         d="m 4475.96,1638.24 266.59,-12.171"
         style="fill:none;stroke:#000000;stroke-width:6.67px"
         id="path13" /><path
         d="m 5072.2,1019.58 225.672,206.393 -46.038,487.235 13.595,113.602 -20.611,-1.475 -62.695,-547.13 -76.532,-53.415"
         style="fill:none;stroke:#000000;stroke-width:6.67px"
         id="path14" /><path
         d="m 5079.82,1189.72 22.308,10.972 70.652,647.156 -23.566,11.701 -69.394,-669.829"
         style="fill:none;stroke:#000000;stroke-width:6.67px"
         id="path15" /><path
         d="m 5149.22,1859.55 h -32.087 l -52.986,-538.601"
         style="fill:none;stroke:#000000;stroke-width:6.67px"
         id="path16" /><path
         d="m 5016.22,1800.47 91.854,-19.055"
         style="fill:none;stroke:#000000;stroke-width:6.67px"
         id="path17" /><path
         d="m 5236.39,1758.51 -67.675,16.027"
         style="fill:none;stroke:#000000;stroke-width:6.67px"
         id="path18" /><path
         d="m 5233.57,1735.25 -71.959,9.032"
         style="fill:none;stroke:#000000;stroke-width:6.67px"
         id="path19" /><path
         d="m 5229.44,1695.3 -72.09,3.437"
         style="fill:none;stroke:#000000;stroke-width:6.67px"
         id="path20" /><path
         d="m 5226.15,1669.09 -68.803,3.148"
         style="fill:none;stroke:#000000;stroke-width:6.67px"
         id="path21" /><path
         d="m 5220.6,1626.07 -71.384,1.574"
         style="fill:none;stroke:#000000;stroke-width:6.67px"
         id="path22" /><path
         d="m 5216.72,1586.26 -71.383,1.574"
         style="fill:none;stroke:#000000;stroke-width:6.67px"
         id="path23" /><path
         d="m 5212.61,1541.96 -73.083,-12.428"
         style="fill:none;stroke:#000000;stroke-width:6.67px"
         id="path24" /><path
         d="m 5207.11,1497.42 -74.934,-21.131"
         style="fill:none;stroke:#000000;stroke-width:6.67px"
         id="path25" /><path
         d="m 5201.83,1458.25 -74.007,-23.515"
         style="fill:none;stroke:#000000;stroke-width:6.67px"
         id="path26" /><path
         d="m 5195.91,1399.81 -73.223,-29.998"
         style="fill:none;stroke:#000000;stroke-width:6.67px"
         id="path27" /><path
         d="m 5191.75,1365.85 -72.894,-35.688"
         style="fill:none;stroke:#000000;stroke-width:6.67px"
         id="path28" /><path
         d="m 5185.67,1331.57 -73.793,-42.027"
         style="fill:none;stroke:#000000;stroke-width:6.67px"
         id="path29" /><path
         d="m 5183.94,1298.05 -75.867,-46.822"
         style="fill:none;stroke:#000000;stroke-width:6.67px"
         id="path30" /><path
         d="m 5016.22,1763.01 90.463,-13.625"
         style="fill:none;stroke:#000000;stroke-width:6.67px"
         id="path31" /><path
         d="m 5015.24,1732.57 v 67.907"
         style="fill:none;stroke:#000000;stroke-width:6.67px"
         id="path32" /><path
         d="m 5021.11,1706.59 79.928,-5.09"
         style="fill:none;stroke:#000000;stroke-width:6.67px"
         id="path33" /><path
         d="m 5021.11,1706.59 79.928,-5.09"
         style="fill:none;stroke:#000000;stroke-width:6.67px"
         id="path34" /><path
         d="m 5023.64,1672.24 74.815,-0.809"
         style="fill:none;stroke:#000000;stroke-width:6.67px"
         id="path35" /><path
         d="m 5029.01,1623.14 64.629,-0.559"
         style="fill:none;stroke:#000000;stroke-width:6.67px"
         id="path36" /><path
         d="m 5033.98,1570.27 54.692,4.898"
         style="fill:none;stroke:#000000;stroke-width:6.67px"
         id="path37" /><path
         d="m 5040.12,1522.41 43.586,7.115"
         style="fill:none;stroke:#000000;stroke-width:6.67px"
         id="path38" /><path
         d="m 5043.83,1494.61 38.331,6.978"
         style="fill:none;stroke:#000000;stroke-width:6.67px"
         id="path39" /><path
         d="m 5049.92,1451.71 26.09,4.002"
         style="fill:none;stroke:#000000;stroke-width:6.67px"
         id="path40" /><path
         d="m 5053.59,1407.5 18.609,3.469"
         style="fill:none;stroke:#000000;stroke-width:6.67px"
         id="path41" /><path
         d="m 4990.26,1732.57 h 24.915 l 74.378,-633.594 189.851,154.382 -94.368,24.847"
         style="fill:none;stroke:#000000;stroke-width:6.67px"
         id="path42" /><path
         d="m 5006.31,1842.67 c 0.116,7.358 -5.763,13.426 -13.121,13.543 -7.358,0.116 -13.426,-5.763 -13.543,-13.121 -0.116,-7.358 5.763,-13.426 13.121,-13.543 7.358,-0.116 13.426,5.763 13.543,13.121 z"
         style="fill:none;stroke:#000000;stroke-width:6.67px;stroke-linejoin:miter;stroke-miterlimit:10"
         id="path43" /><path
         d="m 4991.2,1730.7 c 0,0 0.961,60.777 1.562,98.846"
         style="fill:none;stroke:#000000;stroke-width:6.67px"
         id="path44" /><path
         d="m 4598.79,1842.71 c 0.096,7.358 -5.801,13.41 -13.159,13.505 -7.358,0.096 -13.41,-5.801 -13.505,-13.159 -0.096,-7.358 5.801,-13.41 13.159,-13.505 7.358,-0.096 13.41,5.801 13.505,13.159 z"
         style="fill:none;stroke:#000000;stroke-width:6.67px;stroke-linejoin:miter;stroke-miterlimit:10"
         id="path45" /><path
         d="m 4583.94,1726.05 c 0,0 0.832,64.139 1.343,103.502"
         style="fill:none;stroke:#000000;stroke-width:6.67px"
         id="path46" /><path
         d="m 4793.75,1842.73 c 0.084,7.358 -5.822,13.4 -13.18,13.484 -7.359,0.084 -13.401,-5.821 -13.485,-13.18 -0.084,-7.358 5.822,-13.401 13.18,-13.485 7.358,-0.084 13.401,5.822 13.485,13.181 z"
         style="fill:none;stroke:#000000;stroke-width:6.67px;stroke-linejoin:miter;stroke-miterlimit:10"
         id="path47" /><path
         d="m 4779.14,1730.7 c 0,0 0.694,60.775 1.129,98.844"
         style="fill:none;stroke:#000000;stroke-width:6.67px"
         id="path48" /><path
         d="m 4462.44,1842.88 c 0,7.359 5.975,13.333 13.334,13.333 7.358,0 13.333,-5.974 13.333,-13.333 0,-7.359 -5.975,-13.334 -13.333,-13.334 -7.359,0 -13.334,5.975 -13.334,13.334 z"
         style="fill:none;stroke:#000000;stroke-width:6.67px;stroke-linejoin:miter;stroke-miterlimit:10"
         id="path197" /><path
         d="m 4475.78,1829.55 c 0,-91.305 0,-359.622 0,-359.622 l 28.833,-44.011 -1.261,-73.194 -661.663,0.068 -0.338,98.921"
         style="fill:none;stroke:#000000;stroke-width:6.67px"
         id="path198" /><path
         d="m 4272.09,1843.1 c 0,7.359 5.973,13.334 13.332,13.335 7.359,10e-4 13.334,-5.973 13.335,-13.332 0,-7.358 -5.973,-13.334 -13.332,-13.335 -7.358,-10e-4 -13.334,5.973 -13.335,13.332 z"
         style="fill:none;stroke:#000000;stroke-width:6.67px;stroke-linejoin:miter;stroke-miterlimit:10"
         id="path199" /><path
         d="m 4430.78,1842.88 c -10e-4,7.358 -5.977,13.332 -13.335,13.331 -7.359,-10e-4 -13.333,-5.976 -13.332,-13.335 10e-4,-7.359 5.976,-13.333 13.335,-13.332 7.359,10e-4 13.333,5.977 13.332,13.336 z"
         style="fill:none;stroke:#000000;stroke-width:6.67px;stroke-linejoin:miter;stroke-miterlimit:10"
         id="path200" /><path
         d="m 4285.42,1829.76 c 0.012,-91.305 0.047,-359.62 0.047,-359.62 l 27.208,-44.057 80.573,-0.133 24.246,43.971 c 0,0 -0.035,268.315 -0.047,359.62"
         style="fill:none;stroke:#000000;stroke-width:6.67px"
         id="path201" /><path
         d="m 4087.4,1843.4 c 0,7.359 5.972,13.334 13.331,13.335 7.359,0 13.334,-5.973 13.335,-13.331 0,-7.359 -5.972,-13.335 -13.331,-13.336 -7.359,-10e-4 -13.334,5.973 -13.335,13.332 z"
         style="fill:none;stroke:#000000;stroke-width:6.67px;stroke-linejoin:miter;stroke-miterlimit:10"
         id="path202" /><path
         d="m 4246.1,1843.19 c 0,7.359 -5.976,13.332 -13.335,13.331 -7.359,-10e-4 -13.333,-5.976 -13.332,-13.335 0,-7.359 5.976,-13.332 13.335,-13.331 7.359,10e-4 13.333,5.976 13.332,13.335 z"
         style="fill:none;stroke:#000000;stroke-width:6.67px;stroke-linejoin:miter;stroke-miterlimit:10"
         id="path203" /><path
         d="m 4100.74,1830.07 c 0.012,-91.305 0.047,-359.62 0.047,-359.62 l 27.207,-44.057 80.574,-0.133 24.245,43.971 c 0,0 -0.035,268.315 -0.047,359.621"
         style="fill:none;stroke:#000000;stroke-width:6.67px"
         id="path204" /><path
         d="m 4061.41,1843.49 c -10e-4,7.359 -5.976,13.332 -13.335,13.331 -7.359,-10e-4 -13.333,-5.976 -13.332,-13.335 0,-7.359 5.977,-13.332 13.335,-13.331 7.359,10e-4 13.333,5.976 13.332,13.335 z"
         style="fill:none;stroke:#000000;stroke-width:6.67px;stroke-linejoin:miter;stroke-miterlimit:10"
         id="path205" /><path
         d="m 3916.08,1621.4 0.02,-150.64 27.207,-44.057 80.574,-0.133 24.245,43.971 c 0,0 -0.035,268.315 -0.047,359.621"
         style="fill:none;stroke:#000000;stroke-width:6.67px"
         id="path206" /><path
         d="m 4159.44,1163.79 380.284,172.28 h -751.745 z"
         style="fill:none;stroke:#000000;stroke-width:6.67px"
         id="path207" /><path
         d="m 4167.29,1710.7 c 8.973,0 17.579,3.565 23.923,9.909 6.345,6.345 9.91,14.951 9.91,23.924 0,44.15 0,115.846 0,115.846 h -67.666 c 0,0 0,-71.696 0,-115.846 0,-8.973 3.565,-17.579 9.91,-23.924 6.344,-6.344 14.95,-9.909 23.923,-9.909 z"
         style="fill:none;stroke:#000000;stroke-width:6.67px"
         id="path208" /><path
         d="m 4167.65,1497.42 c 18.834,0 34.101,15.267 34.101,34.1 0,41.385 0,105.704 0,105.704 h -68.293 c 0,0 0,-64.319 0,-105.704 0,-18.833 15.268,-34.1 34.101,-34.1 z"
         style="fill:none;stroke:#000000;stroke-width:6.67px"
         id="path209" /><path
         d="m 3982.15,1497.42 c 18.833,0 34.1,15.267 34.1,34.1 0,41.385 0,105.704 0,105.704 h -68.292 c 0,0 0,-64.319 0,-105.704 0,-18.833 15.267,-34.1 34.1,-34.1 z"
         style="fill:none;stroke:#000000;stroke-width:6.67px"
         id="path210" /><path
         d="m 4351.5,1497.42 c 18.833,0 34.101,15.267 34.101,34.1 0,41.385 0,105.704 0,105.704 h -68.293 c 0,0 0,-64.319 0,-105.704 0,-18.833 15.267,-34.1 34.1,-34.1 z"
         style="fill:none;stroke:#000000;stroke-width:6.67px"
         id="path211" /><path
         d="m 4062.86,897.628 c 0,-37.619 44.183,-68.161 98.604,-68.161 54.422,0 98.605,30.542 98.605,68.161"
         style="fill:none;stroke:#000000;stroke-width:6.67px"
         id="path212" /><path
         d="m 4076.98,911.885 c 17.268,-19.777 48.656,-33.012 84.481,-33.012 36.932,0 69.148,14.065 86.041,34.863"
         style="fill:none;stroke:#000000;stroke-width:6.67px"
         id="path213" /><path
         d="m 4062.86,1207.85 v -45.698"
         style="fill:none;stroke:#000000;stroke-width:6.67px"
         id="path214" /><path
         d="m 4075.58,1149.53 h 169.588"
         style="fill:none;stroke:#000000;stroke-width:6.67px"
         id="path215" /><path
         d="m 4260.07,1163.07 v 46.482"
         style="fill:none;stroke:#000000;stroke-width:6.67px"
         id="path216" /><path
         d="m 4070.01,1136.3 v -66.641 c 62.805,-28.489 123.756,-28.166 182.915,0 v 66.641"
         style="fill:none;stroke:#000000;stroke-width:6.67px"
         id="path217" /><circle
         cx="4162.27"
         cy="1096.0601"
         r="37.097"
         style="fill:none;stroke:#000000;stroke-width:6.67px"
         id="circle217" /><path
         d="M 4077.04,912.953 V 1065.94"
         style="fill:none;stroke:#000000;stroke-width:6.67px"
         id="path218" /><path
         d="m 4247.51,914.278 v 152.688"
         style="fill:none;stroke:#000000;stroke-width:6.67px"
         id="path219" /><path
         d="m 4228.14,897.628 v 161.071"
         style="fill:none;stroke:#000000;stroke-width:6.67px"
         id="path220" /><path
         d="m 4096.41,897.628 v 161.236"
         style="fill:none;stroke:#000000;stroke-width:6.67px"
         id="path221" /><path
         d="m 4113.64,889.871 v 162.477"
         style="fill:none;stroke:#000000;stroke-width:6.67px"
         id="path222" /><path
         d="m 4210.91,889.871 v 162.477"
         style="fill:none;stroke:#000000;stroke-width:6.67px"
         id="path223" /><path
         d="m 4125.18,885.937 v 165.26"
         style="fill:none;stroke:#000000;stroke-width:6.67px"
         id="path224" /><path
         d="m 4195.88,885.937 v 165.005"
         style="fill:none;stroke:#000000;stroke-width:6.67px"
         id="path225" /><ellipse
         cx="4061.3799"
         cy="1148.53"
         rx="13.257"
         ry="13.408"
         style="fill:none;stroke:#000000;stroke-width:6.67px"
         id="ellipse249" /><ellipse
         cx="4258.77"
         cy="1148.53"
         rx="13.257"
         ry="13.408"
         style="fill:none;stroke:#000000;stroke-width:6.67px"
         id="ellipse250" /><path
         d="m 3852.76,1842.88 c 0,7.359 5.975,13.333 13.334,13.333 7.359,0 13.333,-5.974 13.333,-13.333 0,-7.359 -5.974,-13.334 -13.333,-13.334 -7.359,0 -13.334,5.975 -13.334,13.334 z"
         style="fill:none;stroke:#000000;stroke-width:6.67px;stroke-linejoin:miter;stroke-miterlimit:10"
         id="path250" /><path
         d="M 3866.09,1829.55 V 1484.614 L 3703.552,1267.529 3592.789,1417.74"
         style="fill:none;stroke:#000000;stroke-width:6.67px"
         id="path251" /><path
         d="m 3916.08,1667.16 c 7.447,0 14.588,2.958 19.853,8.224 5.266,5.265 8.224,12.406 8.224,19.853 0,37.426 0,99 0,99 h -56.154 c 0,0 0,-61.574 0,-99 0,-7.447 2.958,-14.588 8.224,-19.853 5.265,-5.266 12.407,-8.224 19.853,-8.224 z"
         style="fill:none;stroke:#000000;stroke-width:6.67px"
         id="path252" /><path
         d="m 3994.79,1842.88 c 0,7.359 -5.974,13.333 -13.333,13.333 -7.359,0 -13.333,-5.974 -13.333,-13.333 0,-7.359 5.974,-13.334 13.333,-13.334 7.359,0 13.333,5.975 13.333,13.334 z"
         style="fill:none;stroke:#000000;stroke-width:6.67px;stroke-linejoin:miter;stroke-miterlimit:10"
         id="path253" /><path
         d="m 3866.09,1577.74 115.364,100.264 v 151.541"
         style="fill:none;stroke:#000000;stroke-width:6.67px"
         id="path254" /><path
         d="m 3320.77,1842.87 c -0.01,7.358 5.965,13.337 13.324,13.342 7.359,0.01 13.337,-5.965 13.342,-13.324 0,-7.359 -5.965,-13.337 -13.324,-13.343 -7.359,-0.01 -13.337,5.966 -13.342,13.325 z"
         style="fill:none;stroke:#000000;stroke-width:6.67px;stroke-linejoin:miter;stroke-miterlimit:10"
         id="path255" /><path
         d="m 3334.11,1829.55 c 0.101,-145.736 0.534,-772.851 0.534,-772.851"
         style="fill:none;stroke:#000000;stroke-width:6.67px"
         id="path256" /><path
         d="m 3606.12,1842.88 c 0,7.359 -5.974,13.333 -13.333,13.333 -7.359,0 -13.333,-5.974 -13.333,-13.333 0,-7.359 5.974,-13.334 13.333,-13.334 7.359,0 13.333,5.975 13.333,13.334 z"
         style="fill:none;stroke:#000000;stroke-width:6.67px;stroke-linejoin:miter;stroke-miterlimit:10"
         id="path257" /><path
         d="m 3592.79,1056.34 v 773.202"
         style="fill:none;stroke:#000000;stroke-width:6.67px"
         id="path258" /><path
         d="m 3427.01,1143.66 c 18.833,0 34.1,15.267 34.1,34.1 0,45.799 0,121.501 0,121.501 h -68.292 c 0,0 0,-75.702 0,-121.501 0,-18.833 15.267,-34.1 34.1,-34.1 0.031,0 0.061,0 0.092,0 z"
         style="fill:none;stroke:#000000;stroke-width:6.67px"
         id="path259" /><path
         d="m 3404.83,1463.18 c 6.634,0 12.013,5.378 12.013,12.013 0,20.867 0,61.607 0,61.607 h -24.026 c 0,0 0,-40.74 0,-61.607 0,-6.635 5.378,-12.013 12.013,-12.013 z"
         style="fill:none;stroke:#000000;stroke-width:6.67px"
         id="path260" /><path
         d="m 3452.88,1463.18 c 6.634,0 12.012,5.378 12.012,12.013 0,20.867 0,61.607 0,61.607 h -24.025 v -61.607 c 0,-6.635 5.378,-12.013 12.012,-12.013 0,0 0,0 0,0 z"
         style="fill:none;stroke:#000000;stroke-width:6.67px"
         id="path261" /><path
         d="m 3500.93,1463.18 c 6.634,0 12.012,5.378 12.012,12.013 0,20.867 0,61.607 0,61.607 h -24.026 c 0,0 0,-40.74 0,-61.607 0,-6.635 5.379,-12.013 12.013,-12.013 z"
         style="fill:none;stroke:#000000;stroke-width:6.67px"
         id="path262" /><path
         d="m 3495.3,1143.66 c 18.833,0 34.1,15.267 34.1,34.1 0,45.799 0,121.501 0,121.501 h -68.293 c 0,0 0,-75.702 0,-121.501 0,-18.833 15.268,-34.1 34.101,-34.1 0.03,0 0.061,0 0.092,0 z"
         style="fill:none;stroke:#000000;stroke-width:6.67px"
         id="path263" /><path
         d="m 3464.94,1694.33 c 18.833,0 34.101,15.267 34.101,34.101 0,28.944 0,65.81 0,65.81 h -68.293 c 0,0 0,-36.866 0,-65.81 0,-18.834 15.268,-34.101 34.101,-34.101 0.03,0 0.061,0 0.091,0 z"
         style="fill:none;stroke:#000000;stroke-width:6.67px"
         id="path264" /><path
         d="m 3659.55,1842.88 c 0,7.359 5.974,13.333 13.333,13.333 7.359,0 13.334,-5.974 13.334,-13.333 0,-7.359 -5.975,-13.334 -13.334,-13.334 -7.359,0 -13.333,5.975 -13.333,13.334 z"
         style="fill:none;stroke:#000000;stroke-width:6.67px;stroke-linejoin:miter;stroke-miterlimit:10"
         id="path265" /><path
         d="m 3760.29,1842.88 c 0,7.359 -5.975,13.333 -13.334,13.333 -7.359,0 -13.333,-5.974 -13.333,-13.333 0,-7.359 5.974,-13.334 13.333,-13.334 7.359,0 13.334,5.975 13.334,13.334 z"
         style="fill:none;stroke:#000000;stroke-width:6.67px;stroke-linejoin:miter;stroke-miterlimit:10"
         id="path266" /><path
         d="m 3672.88,1829.55 v -35.81 c 0,-18.833 15.268,-34.101 34.101,-34.101 h 5.877 c 18.833,0 34.1,15.268 34.1,34.101 v 35.81"
         style="fill:none;stroke:#000000;stroke-width:6.67px"
         id="path267" /><path
         d="m 3428.86,1463.18 c 6.634,0 12.013,5.378 12.013,12.013 0,20.867 0,61.607 0,61.607 h -24.026 c 0,0 0,-40.74 0,-61.607 0,-6.635 5.378,-12.013 12.012,-12.013 0,0 0,0 0,0 z"
         style="fill:none;stroke:#000000;stroke-width:6.67px"
         id="path268" /><path
         d="m 3476.91,1463.18 c 6.634,0 12.012,5.378 12.012,12.013 0,20.867 0,61.607 0,61.607 h -24.026 c 0,0 0,-40.74 0,-61.607 0,-6.635 5.379,-12.013 12.013,-12.013 0,0 10e-4,0 10e-4,0 z"
         style="fill:none;stroke:#000000;stroke-width:6.67px"
         id="path269" /><path
         d="m 3524.96,1463.18 c 6.635,0 12.013,5.378 12.013,12.013 0,20.867 0,61.607 0,61.607 h -24.026 c 0,0 0,-40.74 0,-61.607 0,-6.635 5.379,-12.013 12.013,-12.013 z"
         style="fill:none;stroke:#000000;stroke-width:6.67px"
         id="path270" /><path
         d="m 3661.87,1536.8 c 6.634,0 12.012,5.379 12.012,12.013 0,35.662 0,138.449 0,138.449 h -24.026 c 0,0 0,-102.787 0,-138.449 0,-6.634 5.379,-12.013 12.013,-12.013 z"
         style="fill:none;stroke:#000000;stroke-width:6.67px"
         id="path271" /><path
         d="m 3709.92,1536.8 c 6.635,0 12.013,5.379 12.013,12.013 0,35.662 0,138.449 0,138.449 h -24.026 c 0,0 0,-102.787 0,-138.449 0,-6.634 5.379,-12.013 12.013,-12.013 z"
         style="fill:none;stroke:#000000;stroke-width:6.67px"
         id="path272" /><path
         d="m 3757.97,1536.8 c 6.635,0 12.013,5.379 12.013,12.013 0,35.662 0,138.449 0,138.449 h -24.026 c 0,0 0,-102.787 0,-138.449 0,-6.634 5.378,-12.013 12.013,-12.013 z"
         style="fill:none;stroke:#000000;stroke-width:6.67px"
         id="path273" /><path
         d="m 3685.89,1536.8 c 6.634,0 12.012,5.379 12.012,12.013 0,35.662 0,138.449 0,138.449 h -24.026 c 0,0 0,-102.787 0,-138.449 0,-6.634 5.379,-12.013 12.013,-12.013 z"
         style="fill:none;stroke:#000000;stroke-width:6.67px"
         id="path274" /><path
         d="m 3733.95,1536.8 c 6.635,0 12.013,5.379 12.013,12.013 0,35.662 0,138.449 0,138.449 h -24.026 c 0,0 0,-102.787 0,-138.449 0,-6.634 5.378,-12.013 12.013,-12.013 z"
         style="fill:none;stroke:#000000;stroke-width:6.67px"
         id="path275" /><path
         d="m 3337.67,1028.77 22.335,-94.118 25.918,109.22 h -37.93"
         style="fill:none;stroke:#000000;stroke-width:6.67px"
         id="path276" /><path
         d="m 3463.44,117.18 77.513,926.689 h -155.025 z"
         style="fill:none;stroke:#000000;stroke-width:6.67px"
         id="path277" /><ellipse
         cx="3334.3899"
         cy="1042.58"
         rx="13.257"
         ry="13.408"
         style="fill:none;stroke:#000000;stroke-width:6.67px"
         id="ellipse277" /><path
         d="m 3579.3,1043.87 h -38.347 l 25.918,-109.22 22.426,94.504"
         style="fill:none;stroke:#000000;stroke-width:6.67px"
         id="path278" /><path
         d="m 3717.13,1438.65 c 18.79,0 36.812,7.465 50.099,20.752 13.287,13.287 20.752,31.309 20.752,50.099 v 207.335 h -158.19 v -207.335 c 0,-18.79 7.464,-36.812 20.752,-50.099 13.287,-13.287 31.308,-20.752 50.099,-20.752 z"
         style="fill:none;stroke:#000000;stroke-width:6.67px"
         id="path279" /><ellipse
         cx="3592.79"
         cy="1042.58"
         rx="13.257"
         ry="13.408"
         style="fill:none;stroke:#000000;stroke-width:6.67px"
         id="ellipse279" /><ellipse
         cx="3463.4099"
         cy="103.031"
         rx="13.257"
         ry="13.408"
         style="fill:none;stroke:#000000;stroke-width:6.67px"
         id="ellipse280" /></g></g></svg>
