<?xml version="1.0" encoding="UTF-8" standalone="no"?>
<!DOCTYPE svg PUBLIC "-//W3C//DTD SVG 1.1//EN" "http://www.w3.org/Graphics/SVG/1.1/DTD/svg11.dtd">
<svg width="100%" height="100%" viewBox="0 0 4725 1418" version="1.1" xmlns="http://www.w3.org/2000/svg" xmlns:xlink="http://www.w3.org/1999/xlink" xml:space="preserve" xmlns:serif="http://www.serif.com/" style="fill-rule:evenodd;clip-rule:evenodd;stroke-linejoin:round;stroke-miterlimit:2;">
    <g transform="matrix(1,0,0,1,0,-1738)">
        <g id="UKRI_logo" transform="matrix(1.05562,0,0,1.00665,0,380.531)">
            <rect x="0" y="1348.9" width="4475.46" height="1407.95" style="fill:none;"/>
            <g transform="matrix(9.04953,0,0,9.48975,-23.2029,1299.34)">
                <path d="M206.973,58.373C206.973,68.264 201.13,72.405 194.045,72.405C186.96,72.405 181.026,68.264 181.026,58.373L181.026,39.971L187.421,39.971L187.421,57.913C187.421,63.158 189.629,66.332 194.045,66.332C198.462,66.332 200.579,63.158 200.579,57.913L200.579,39.971L206.973,39.971L206.973,58.373Z" style="fill-rule:nonzero;"/>
                <path d="M221.418,58.603L218.749,58.603L218.749,72.175L212.585,72.175L212.585,39.971L218.749,39.971L218.749,52.623L221.325,52.623L229.468,39.971L236.507,39.971L226.478,55.613L237.887,72.175L230.802,72.175L221.418,58.603Z" style="fill-rule:nonzero;"/>
                <path d="M259.831,54.647L264.891,54.647C267.513,54.647 269.261,52.623 269.261,49.954C269.261,47.286 267.467,45.722 264.891,45.722L259.831,45.722L259.831,54.647ZM270.503,72.175L263.649,60.352L259.831,60.352L259.831,72.175L253.988,72.175L253.988,39.971L265.351,39.971C270.641,39.971 275.334,43.514 275.334,49.862C275.334,54.279 272.85,57.637 269.538,59.248L277.312,72.175L270.503,72.175Z" style="fill-rule:nonzero;"/>
                <path d="M284.397,57.775L294.749,57.775C294.058,55.061 292.172,53.957 289.872,53.957C287.341,53.957 285.317,55.383 284.397,57.775ZM300.821,62.422L284.029,62.422C284.719,65.918 287.572,67.206 290.056,67.206C293.184,67.206 294.518,65.274 294.518,65.274L300.315,65.274C298.567,69.874 294.38,72.405 289.872,72.405C283.661,72.405 278.232,67.666 278.232,60.489C278.232,53.359 283.615,48.942 289.688,48.942C295.577,48.942 301.557,53.037 300.821,62.422Z" style="fill-rule:nonzero;"/>
                <path d="M313.38,53.819C311.448,53.819 310.62,54.785 310.62,55.751C310.62,57.315 312.69,57.775 314.071,58.051C318.165,58.925 322.305,60.167 322.305,65.044C322.305,69.783 318.395,72.405 313.657,72.405C308.366,72.405 304.271,69.185 303.996,64.308L309.654,64.308C309.792,65.688 310.712,67.482 313.518,67.482C315.865,67.482 316.417,66.24 316.417,65.274C316.417,63.572 314.806,63.066 313.243,62.698C310.528,62.1 304.685,60.996 304.685,55.751C304.685,51.242 309.009,48.942 313.472,48.942C318.625,48.942 322.029,52.07 322.305,55.935L316.647,55.935C316.462,55.153 315.726,53.819 313.38,53.819Z" style="fill-rule:nonzero;"/>
                <path d="M331.322,57.775L341.673,57.775C340.983,55.061 339.097,53.957 336.796,53.957C334.266,53.957 332.242,55.383 331.322,57.775ZM347.746,62.422L330.954,62.422C331.644,65.918 334.497,67.206 336.981,67.206C340.109,67.206 341.443,65.274 341.443,65.274L347.24,65.274C345.492,69.874 341.305,72.405 336.796,72.405C330.586,72.405 325.157,67.666 325.157,60.489C325.157,53.359 330.54,48.942 336.613,48.942C342.502,48.942 348.482,53.037 347.746,62.422Z" style="fill-rule:nonzero;"/>
                <path d="M364.904,62.514L364.904,62.054C360.717,62.514 356.577,63.019 356.577,65.412C356.577,68.908 364.536,68.632 364.904,62.514ZM373.277,67.758L373.277,72.175L371.897,72.175C369.228,72.175 367.342,71.208 366.56,69.23C365.18,71.117 362.879,72.405 359.292,72.405C354.092,72.405 350.78,69.736 350.78,65.596C350.78,58.419 360.58,57.775 364.996,57.545C364.904,54.877 363.432,53.911 361.086,53.911C357.819,53.911 357.589,55.889 357.589,55.889L351.838,55.889C352.253,51.794 355.611,48.942 361.223,48.942C366.698,48.942 370.563,51.656 370.563,58.327L370.563,64.446C370.563,67.114 371.529,67.758 373.277,67.758Z" style="fill-rule:nonzero;"/>
                <path d="M391.403,48.942L391.403,54.831C390.943,54.739 390.161,54.647 389.378,54.647C386.158,54.647 382.799,56.303 382.799,60.536L382.799,72.175L376.681,72.175L376.681,49.172L381.374,49.172L382.202,51.703L382.938,51.703C383.95,50.69 386.204,48.942 389.976,48.942L391.403,48.942Z" style="fill-rule:nonzero;"/>
                <path d="M404.421,72.405C398.027,72.405 392.782,67.482 392.782,60.72C392.782,53.865 398.211,48.942 404.652,48.942C409.896,48.942 414.359,52.208 415.647,57.591L409.39,57.591C408.424,55.705 406.722,54.509 404.513,54.509C401.294,54.509 398.717,57.085 398.717,60.673C398.717,64.262 401.294,66.838 404.513,66.838C406.584,66.838 408.194,65.78 409.207,64.078L415.508,64.078C414.037,69.553 409.298,72.405 404.421,72.405Z" style="fill-rule:nonzero;"/>
                <path d="M441.363,59.707L441.363,72.175L435.198,72.175L435.198,61.087C435.198,58.833 435.566,54.279 431.425,54.279C429.402,54.279 425.491,55.337 425.491,61.364L425.491,72.175L419.327,72.175L419.327,39.511L425.169,39.511L425.169,51.564L425.951,51.564C427.055,50.415 429.171,48.942 432.576,48.942C438.51,48.942 441.363,53.359 441.363,59.707Z" style="fill-rule:nonzero;"/>
                <path d="M194.689,109.639L194.689,109.179C190.503,109.639 186.363,110.145 186.363,112.538C186.363,116.034 194.321,115.758 194.689,109.639ZM203.062,114.883L203.062,119.3L201.682,119.3C199.014,119.3 197.127,118.334 196.345,116.356C194.965,118.242 192.665,119.531 189.077,119.531C183.878,119.531 180.566,116.862 180.566,112.721C180.566,105.544 190.365,104.901 194.782,104.67C194.689,102.002 193.217,101.037 190.871,101.037C187.605,101.037 187.375,103.014 187.375,103.014L181.624,103.014C182.038,98.921 185.397,96.068 191.009,96.068C196.484,96.068 200.348,98.782 200.348,105.453L200.348,111.572C200.348,114.24 201.314,114.883 203.062,114.883Z" style="fill-rule:nonzero;"/>
                <path d="M228.548,106.833L228.548,119.3L222.43,119.3L222.43,108.213C222.43,107.431 222.982,101.634 218.565,101.404C216.403,101.266 212.539,102.462 212.539,108.489L212.539,119.3L206.466,119.3L206.466,96.298L211.159,96.298L211.941,99.104L212.723,99.104C213.689,97.954 215.851,96.068 219.715,96.068C225.65,96.068 228.548,100.484 228.548,106.833Z" style="fill-rule:nonzero;"/>
                <path d="M249.158,107.799C249.158,103.981 247.087,101.726 244.097,101.726C241.291,101.726 238.485,103.75 238.485,107.799C238.485,111.847 241.291,113.872 244.097,113.872C247.087,113.872 249.158,111.618 249.158,107.799ZM254.909,86.637L254.909,119.3L250.4,119.3L249.755,117.092L249.066,117.092C247.639,118.656 245.708,119.531 243.223,119.531C237.38,119.531 232.503,114.746 232.503,107.799C232.503,100.852 237.38,96.068 243.223,96.068C245.616,96.068 247.686,96.896 249.158,98.553L249.158,86.637L254.909,86.637Z" style="fill-rule:nonzero;"/>
                <rect x="272.849" y="87.097" width="6.395" height="32.203" style="fill-rule:nonzero;"/>
                <path d="M307.03,106.833L307.03,119.3L300.912,119.3L300.912,108.213C300.912,107.431 301.463,101.634 297.046,101.404C294.884,101.266 291.02,102.462 291.02,108.489L291.02,119.3L284.948,119.3L284.948,96.298L289.64,96.298L290.422,99.104L291.205,99.104C292.17,97.954 294.333,96.068 298.197,96.068C304.131,96.068 307.03,100.484 307.03,106.833Z" style="fill-rule:nonzero;"/>
                <path d="M334.08,106.833L334.08,119.3L327.961,119.3L327.961,108.213C327.961,107.431 328.513,101.634 324.096,101.404C321.934,101.266 318.07,102.462 318.07,108.489L318.07,119.3L311.998,119.3L311.998,96.298L316.69,96.298L317.472,99.104L318.254,99.104C319.22,97.954 321.382,96.068 325.247,96.068C331.181,96.068 334.08,100.484 334.08,106.833Z" style="fill-rule:nonzero;"/>
                <path d="M355.516,107.799C355.516,104.21 353.4,101.404 349.904,101.404C346.407,101.404 344.061,104.21 344.061,107.799C344.061,111.387 346.407,114.194 349.904,114.194C353.4,114.194 355.516,111.387 355.516,107.799ZM338.034,107.845C338.034,100.484 343.739,96.068 349.904,96.068C356.114,96.068 361.543,100.53 361.543,107.753C361.543,115.068 355.93,119.531 349.719,119.531C343.462,119.531 338.034,115.068 338.034,107.845Z" style="fill-rule:nonzero;"/>
                <path d="M386.661,96.298L379.208,119.3L370.283,119.3L362.83,96.298L368.949,96.298L374.286,113.228L375.206,113.228L380.543,96.298L386.661,96.298Z" style="fill-rule:nonzero;"/>
                <path d="M402.809,109.639L402.809,109.179C398.623,109.639 394.482,110.145 394.482,112.538C394.482,116.034 402.441,115.758 402.809,109.639ZM411.182,114.883L411.182,119.3L409.802,119.3C407.133,119.3 405.248,118.334 404.465,116.356C403.086,118.242 400.785,119.531 397.197,119.531C391.998,119.531 388.685,116.862 388.685,112.721C388.685,105.544 398.485,104.901 402.901,104.67C402.809,102.002 401.337,101.037 398.991,101.037C395.724,101.037 395.495,103.014 395.495,103.014L389.744,103.014C390.158,98.921 393.516,96.068 399.128,96.068C404.603,96.068 408.467,98.782 408.467,105.453L408.467,111.572C408.467,114.24 409.434,114.883 411.182,114.883Z" style="fill-rule:nonzero;"/>
                <path d="M429.675,117.598C429.675,117.598 427.743,119.531 424.201,119.531C419.784,119.531 415.965,116.54 415.965,111.893L415.965,101.22L411.365,101.22L411.365,96.712L413.666,96.712C415.23,96.712 416.288,95.654 416.288,93.998L416.288,89.397L421.854,89.397L421.854,96.298L427.651,96.298L427.651,101.22L421.854,101.22L421.854,111.526C421.854,113.089 423.142,114.286 424.798,114.286C426.179,114.286 427.467,113.503 427.467,113.503L429.675,117.598Z" style="fill-rule:nonzero;"/>
                <path d="M438.093,119.3L432.205,119.3L432.205,96.298L438.093,96.298L438.093,119.3ZM431.193,89.857C431.193,87.649 432.987,85.947 435.149,85.947C437.265,85.947 439.013,87.649 439.013,89.857C439.013,91.928 437.265,93.722 435.149,93.722C432.987,93.722 431.193,91.928 431.193,89.857Z" style="fill-rule:nonzero;"/>
                <path d="M459.853,107.799C459.853,104.21 457.737,101.404 454.241,101.404C450.744,101.404 448.398,104.21 448.398,107.799C448.398,111.387 450.744,114.194 454.241,114.194C457.737,114.194 459.853,111.387 459.853,107.799ZM442.371,107.845C442.371,100.484 448.076,96.068 454.241,96.068C460.451,96.068 465.879,100.53 465.879,107.753C465.879,115.068 460.267,119.531 454.056,119.531C447.799,119.531 442.371,115.068 442.371,107.845Z" style="fill-rule:nonzero;"/>
                <path d="M491.873,106.833L491.873,119.3L485.754,119.3L485.754,108.213C485.754,107.431 486.306,101.634 481.889,101.404C479.727,101.266 475.863,102.462 475.863,108.489L475.863,119.3L469.791,119.3L469.791,96.298L474.483,96.298L475.265,99.104L476.047,99.104C477.013,97.954 479.175,96.068 483.04,96.068C488.974,96.068 491.873,100.484 491.873,106.833Z" style="fill-rule:nonzero;"/>
                <path d="M150.231,150.497L8.499,150.497L8.499,8.765L150.231,8.765L150.231,150.497ZM134.633,24.362L118.107,24.362L95.891,48.02L95.891,24.362L63.787,24.362L63.787,55.769C63.787,62.492 58.809,66.395 52.205,66.395C45.601,66.395 40.622,62.492 40.622,55.769L40.622,24.362L24.096,24.362L24.096,56.008C24.096,70.182 35.539,78.312 48.447,79.63L24.096,79.63L24.096,134.898L40.622,134.898L40.622,114.416L47.841,114.416L63.112,134.898L134.633,134.898L134.633,123.735L115.262,123.735L115.262,90.794L134.633,90.794L134.633,76.213L110.946,51.958L134.633,27.78L134.633,24.362ZM118.107,79.63L95.891,79.63L95.891,55.907L118.107,79.63ZM98.736,123.735L79.365,123.735L79.365,131.48L65.73,113.611C76.111,111.7 81.472,106.332 81.472,96.984C81.472,94.678 81.143,92.619 80.495,90.794L98.736,90.794L98.736,123.735ZM40.622,90.794L55.743,90.794C61.959,90.794 64.478,93.203 64.478,96.984C64.478,100.766 61.959,103.252 55.743,103.252L40.622,103.252L40.622,90.794ZM79.365,62.723L79.365,88.363C75.846,82.422 67.754,79.663 55.743,79.632C66.46,78.544 76.368,72.762 79.365,62.723Z"/>
            </g>
        </g>
    </g>
</svg>
