%TF.GenerationSoftware,KiCad,Pcbnew,8.0.0*%
%TF.CreationDate,2024-05-31T17:11:51+01:00*%
%TF.ProjectId,basic_kit_SMT_bumpers_D_pad,62617369-635f-46b6-9974-5f534d545f62,v1.4*%
%TF.SameCoordinates,Original*%
%TF.FileFunction,Drillmap*%
%TF.FilePolarity,Positive*%
%FSLAX45Y45*%
G04 Gerber Fmt 4.5, Leading zero omitted, Abs format (unit mm)*
G04 Created by KiCad (PCBNEW 8.0.0) date 2024-05-31 17:11:51*
%MOMM*%
%LPD*%
G01*
G04 APERTURE LIST*
%ADD10C,0.100000*%
%ADD11C,0.200000*%
%ADD12C,0.300000*%
%ADD13C,0.400000*%
G04 APERTURE END LIST*
D10*
X14603600Y-4935700D02*
G75*
G02*
X15175100Y-5507200I0J-571500D01*
G01*
X5396100Y-5507200D02*
G75*
G02*
X5967600Y-4935700I571500J0D01*
G01*
X14603600Y-8498589D02*
X5967600Y-8498589D01*
X5967600Y-8498589D02*
G75*
G02*
X5396102Y-7927088I0J571499D01*
G01*
X15175100Y-7927088D02*
X15175100Y-5507200D01*
X15175100Y-7927088D02*
G75*
G02*
X14603600Y-8498590I-571500J-2D01*
G01*
X5967600Y-4935700D02*
X14603600Y-4935700D01*
X5396100Y-5507200D02*
X5396100Y-7927088D01*
D11*
D10*
X6139500Y-7066600D02*
X6179500Y-7106600D01*
X6179500Y-7066600D02*
X6139500Y-7106600D01*
X6350000Y-7814000D02*
X6390000Y-7854000D01*
X6390000Y-7814000D02*
X6350000Y-7854000D01*
X6647500Y-5250500D02*
X6687500Y-5290500D01*
X6687500Y-5250500D02*
X6647500Y-5290500D01*
X6838000Y-6342700D02*
X6878000Y-6382700D01*
X6878000Y-6342700D02*
X6838000Y-6382700D01*
X7536500Y-7066600D02*
X7576500Y-7106600D01*
X7576500Y-7066600D02*
X7536500Y-7106600D01*
X8273000Y-6514000D02*
X8313000Y-6554000D01*
X8313000Y-6514000D02*
X8273000Y-6554000D01*
X8273000Y-7153000D02*
X8313000Y-7193000D01*
X8313000Y-7153000D02*
X8273000Y-7193000D01*
X10076000Y-8299000D02*
X10116000Y-8339000D01*
X10116000Y-8299000D02*
X10076000Y-8339000D01*
X10076500Y-7384100D02*
X10116500Y-7424100D01*
X10116500Y-7384100D02*
X10076500Y-7424100D01*
X10201000Y-8299000D02*
X10241000Y-8339000D01*
X10241000Y-8299000D02*
X10201000Y-8339000D01*
X10203500Y-7384100D02*
X10243500Y-7424100D01*
X10243500Y-7384100D02*
X10203500Y-7424100D01*
X10253000Y-6176000D02*
X10293000Y-6216000D01*
X10293000Y-6176000D02*
X10253000Y-6216000D01*
X10330500Y-7384100D02*
X10370500Y-7424100D01*
X10370500Y-7384100D02*
X10330500Y-7424100D01*
X10330500Y-8298500D02*
X10370500Y-8338500D01*
X10370500Y-8298500D02*
X10330500Y-8338500D01*
X10457000Y-7384000D02*
X10497000Y-7424000D01*
X10497000Y-7384000D02*
X10457000Y-7424000D01*
X10553000Y-8299000D02*
X10593000Y-8339000D01*
X10593000Y-8299000D02*
X10553000Y-8339000D01*
X10581000Y-7383000D02*
X10621000Y-7423000D01*
X10621000Y-7383000D02*
X10581000Y-7423000D01*
X10749600Y-7320600D02*
X10789600Y-7360600D01*
X10789600Y-7320600D02*
X10749600Y-7360600D01*
X10755000Y-8299000D02*
X10795000Y-8339000D01*
X10795000Y-8299000D02*
X10755000Y-8339000D01*
X12994000Y-8004000D02*
X13034000Y-8044000D01*
X13034000Y-8004000D02*
X12994000Y-8044000D01*
X13910500Y-5250500D02*
X13950500Y-5290500D01*
X13950500Y-5250500D02*
X13910500Y-5290500D01*
X14318000Y-7862000D02*
X14358000Y-7902000D01*
X14358000Y-7862000D02*
X14318000Y-7902000D01*
D12*
X15072500Y-6717140D02*
G75*
G02*
X14772500Y-6717140I-150000J0D01*
G01*
X14772500Y-6717140D02*
G75*
G02*
X15072500Y-6717140I150000J0D01*
G01*
D13*
X8132850Y-5019700D02*
X8132850Y-5419700D01*
X7932850Y-5219700D02*
X8332850Y-5219700D01*
X9148850Y-5019700D02*
X9148850Y-5419700D01*
X8948850Y-5219700D02*
X9348850Y-5219700D01*
X10291850Y-5019700D02*
X10291850Y-5419700D01*
X10091850Y-5219700D02*
X10491850Y-5219700D01*
X11434850Y-5019700D02*
X11434850Y-5419700D01*
X11234850Y-5219700D02*
X11634850Y-5219700D01*
X12450850Y-5019700D02*
X12450850Y-5419700D01*
X12250850Y-5219700D02*
X12650850Y-5219700D01*
D11*
X5651877Y-8815072D02*
X5651877Y-8615072D01*
X5651877Y-8615072D02*
X5699496Y-8615072D01*
X5699496Y-8615072D02*
X5728067Y-8624596D01*
X5728067Y-8624596D02*
X5747115Y-8643644D01*
X5747115Y-8643644D02*
X5756639Y-8662691D01*
X5756639Y-8662691D02*
X5766162Y-8700787D01*
X5766162Y-8700787D02*
X5766162Y-8729358D01*
X5766162Y-8729358D02*
X5756639Y-8767453D01*
X5756639Y-8767453D02*
X5747115Y-8786501D01*
X5747115Y-8786501D02*
X5728067Y-8805549D01*
X5728067Y-8805549D02*
X5699496Y-8815072D01*
X5699496Y-8815072D02*
X5651877Y-8815072D01*
X5851877Y-8815072D02*
X5851877Y-8681739D01*
X5851877Y-8719834D02*
X5861401Y-8700787D01*
X5861401Y-8700787D02*
X5870924Y-8691263D01*
X5870924Y-8691263D02*
X5889972Y-8681739D01*
X5889972Y-8681739D02*
X5909020Y-8681739D01*
X5975686Y-8815072D02*
X5975686Y-8681739D01*
X5975686Y-8615072D02*
X5966162Y-8624596D01*
X5966162Y-8624596D02*
X5975686Y-8634120D01*
X5975686Y-8634120D02*
X5985210Y-8624596D01*
X5985210Y-8624596D02*
X5975686Y-8615072D01*
X5975686Y-8615072D02*
X5975686Y-8634120D01*
X6099496Y-8815072D02*
X6080448Y-8805549D01*
X6080448Y-8805549D02*
X6070924Y-8786501D01*
X6070924Y-8786501D02*
X6070924Y-8615072D01*
X6204258Y-8815072D02*
X6185210Y-8805549D01*
X6185210Y-8805549D02*
X6175686Y-8786501D01*
X6175686Y-8786501D02*
X6175686Y-8615072D01*
X6432829Y-8815072D02*
X6432829Y-8615072D01*
X6432829Y-8615072D02*
X6499496Y-8757929D01*
X6499496Y-8757929D02*
X6566162Y-8615072D01*
X6566162Y-8615072D02*
X6566162Y-8815072D01*
X6747115Y-8815072D02*
X6747115Y-8710310D01*
X6747115Y-8710310D02*
X6737591Y-8691263D01*
X6737591Y-8691263D02*
X6718543Y-8681739D01*
X6718543Y-8681739D02*
X6680448Y-8681739D01*
X6680448Y-8681739D02*
X6661401Y-8691263D01*
X6747115Y-8805549D02*
X6728067Y-8815072D01*
X6728067Y-8815072D02*
X6680448Y-8815072D01*
X6680448Y-8815072D02*
X6661401Y-8805549D01*
X6661401Y-8805549D02*
X6651877Y-8786501D01*
X6651877Y-8786501D02*
X6651877Y-8767453D01*
X6651877Y-8767453D02*
X6661401Y-8748406D01*
X6661401Y-8748406D02*
X6680448Y-8738882D01*
X6680448Y-8738882D02*
X6728067Y-8738882D01*
X6728067Y-8738882D02*
X6747115Y-8729358D01*
X6842353Y-8681739D02*
X6842353Y-8881739D01*
X6842353Y-8691263D02*
X6861401Y-8681739D01*
X6861401Y-8681739D02*
X6899496Y-8681739D01*
X6899496Y-8681739D02*
X6918543Y-8691263D01*
X6918543Y-8691263D02*
X6928067Y-8700787D01*
X6928067Y-8700787D02*
X6937591Y-8719834D01*
X6937591Y-8719834D02*
X6937591Y-8776977D01*
X6937591Y-8776977D02*
X6928067Y-8796025D01*
X6928067Y-8796025D02*
X6918543Y-8805549D01*
X6918543Y-8805549D02*
X6899496Y-8815072D01*
X6899496Y-8815072D02*
X6861401Y-8815072D01*
X6861401Y-8815072D02*
X6842353Y-8805549D01*
X7023305Y-8796025D02*
X7032829Y-8805549D01*
X7032829Y-8805549D02*
X7023305Y-8815072D01*
X7023305Y-8815072D02*
X7013782Y-8805549D01*
X7013782Y-8805549D02*
X7023305Y-8796025D01*
X7023305Y-8796025D02*
X7023305Y-8815072D01*
X7023305Y-8691263D02*
X7032829Y-8700787D01*
X7032829Y-8700787D02*
X7023305Y-8710310D01*
X7023305Y-8710310D02*
X7013782Y-8700787D01*
X7013782Y-8700787D02*
X7023305Y-8691263D01*
X7023305Y-8691263D02*
X7023305Y-8710310D01*
D10*
X5351100Y-9123589D02*
X5391100Y-9163589D01*
X5391100Y-9123589D02*
X5351100Y-9163589D01*
D11*
X5689972Y-9035072D02*
X5709020Y-9035072D01*
X5709020Y-9035072D02*
X5728067Y-9044596D01*
X5728067Y-9044596D02*
X5737591Y-9054120D01*
X5737591Y-9054120D02*
X5747115Y-9073168D01*
X5747115Y-9073168D02*
X5756639Y-9111263D01*
X5756639Y-9111263D02*
X5756639Y-9158882D01*
X5756639Y-9158882D02*
X5747115Y-9196977D01*
X5747115Y-9196977D02*
X5737591Y-9216025D01*
X5737591Y-9216025D02*
X5728067Y-9225549D01*
X5728067Y-9225549D02*
X5709020Y-9235072D01*
X5709020Y-9235072D02*
X5689972Y-9235072D01*
X5689972Y-9235072D02*
X5670924Y-9225549D01*
X5670924Y-9225549D02*
X5661401Y-9216025D01*
X5661401Y-9216025D02*
X5651877Y-9196977D01*
X5651877Y-9196977D02*
X5642353Y-9158882D01*
X5642353Y-9158882D02*
X5642353Y-9111263D01*
X5642353Y-9111263D02*
X5651877Y-9073168D01*
X5651877Y-9073168D02*
X5661401Y-9054120D01*
X5661401Y-9054120D02*
X5670924Y-9044596D01*
X5670924Y-9044596D02*
X5689972Y-9035072D01*
X5842353Y-9216025D02*
X5851877Y-9225549D01*
X5851877Y-9225549D02*
X5842353Y-9235072D01*
X5842353Y-9235072D02*
X5832829Y-9225549D01*
X5832829Y-9225549D02*
X5842353Y-9216025D01*
X5842353Y-9216025D02*
X5842353Y-9235072D01*
X6023305Y-9101739D02*
X6023305Y-9235072D01*
X5975686Y-9025549D02*
X5928067Y-9168406D01*
X5928067Y-9168406D02*
X6051877Y-9168406D01*
X6166162Y-9035072D02*
X6185210Y-9035072D01*
X6185210Y-9035072D02*
X6204258Y-9044596D01*
X6204258Y-9044596D02*
X6213782Y-9054120D01*
X6213782Y-9054120D02*
X6223305Y-9073168D01*
X6223305Y-9073168D02*
X6232829Y-9111263D01*
X6232829Y-9111263D02*
X6232829Y-9158882D01*
X6232829Y-9158882D02*
X6223305Y-9196977D01*
X6223305Y-9196977D02*
X6213782Y-9216025D01*
X6213782Y-9216025D02*
X6204258Y-9225549D01*
X6204258Y-9225549D02*
X6185210Y-9235072D01*
X6185210Y-9235072D02*
X6166162Y-9235072D01*
X6166162Y-9235072D02*
X6147115Y-9225549D01*
X6147115Y-9225549D02*
X6137591Y-9216025D01*
X6137591Y-9216025D02*
X6128067Y-9196977D01*
X6128067Y-9196977D02*
X6118543Y-9158882D01*
X6118543Y-9158882D02*
X6118543Y-9111263D01*
X6118543Y-9111263D02*
X6128067Y-9073168D01*
X6128067Y-9073168D02*
X6137591Y-9054120D01*
X6137591Y-9054120D02*
X6147115Y-9044596D01*
X6147115Y-9044596D02*
X6166162Y-9035072D01*
X6356639Y-9035072D02*
X6375686Y-9035072D01*
X6375686Y-9035072D02*
X6394734Y-9044596D01*
X6394734Y-9044596D02*
X6404258Y-9054120D01*
X6404258Y-9054120D02*
X6413782Y-9073168D01*
X6413782Y-9073168D02*
X6423305Y-9111263D01*
X6423305Y-9111263D02*
X6423305Y-9158882D01*
X6423305Y-9158882D02*
X6413782Y-9196977D01*
X6413782Y-9196977D02*
X6404258Y-9216025D01*
X6404258Y-9216025D02*
X6394734Y-9225549D01*
X6394734Y-9225549D02*
X6375686Y-9235072D01*
X6375686Y-9235072D02*
X6356639Y-9235072D01*
X6356639Y-9235072D02*
X6337591Y-9225549D01*
X6337591Y-9225549D02*
X6328067Y-9216025D01*
X6328067Y-9216025D02*
X6318543Y-9196977D01*
X6318543Y-9196977D02*
X6309020Y-9158882D01*
X6309020Y-9158882D02*
X6309020Y-9111263D01*
X6309020Y-9111263D02*
X6318543Y-9073168D01*
X6318543Y-9073168D02*
X6328067Y-9054120D01*
X6328067Y-9054120D02*
X6337591Y-9044596D01*
X6337591Y-9044596D02*
X6356639Y-9035072D01*
X6509020Y-9235072D02*
X6509020Y-9101739D01*
X6509020Y-9120787D02*
X6518543Y-9111263D01*
X6518543Y-9111263D02*
X6537591Y-9101739D01*
X6537591Y-9101739D02*
X6566163Y-9101739D01*
X6566163Y-9101739D02*
X6585210Y-9111263D01*
X6585210Y-9111263D02*
X6594734Y-9130310D01*
X6594734Y-9130310D02*
X6594734Y-9235072D01*
X6594734Y-9130310D02*
X6604258Y-9111263D01*
X6604258Y-9111263D02*
X6623305Y-9101739D01*
X6623305Y-9101739D02*
X6651877Y-9101739D01*
X6651877Y-9101739D02*
X6670924Y-9111263D01*
X6670924Y-9111263D02*
X6680448Y-9130310D01*
X6680448Y-9130310D02*
X6680448Y-9235072D01*
X6775686Y-9235072D02*
X6775686Y-9101739D01*
X6775686Y-9120787D02*
X6785210Y-9111263D01*
X6785210Y-9111263D02*
X6804258Y-9101739D01*
X6804258Y-9101739D02*
X6832829Y-9101739D01*
X6832829Y-9101739D02*
X6851877Y-9111263D01*
X6851877Y-9111263D02*
X6861401Y-9130310D01*
X6861401Y-9130310D02*
X6861401Y-9235072D01*
X6861401Y-9130310D02*
X6870924Y-9111263D01*
X6870924Y-9111263D02*
X6889972Y-9101739D01*
X6889972Y-9101739D02*
X6918543Y-9101739D01*
X6918543Y-9101739D02*
X6937591Y-9111263D01*
X6937591Y-9111263D02*
X6947115Y-9130310D01*
X6947115Y-9130310D02*
X6947115Y-9235072D01*
X7337591Y-9025549D02*
X7166163Y-9282691D01*
X7594734Y-9035072D02*
X7613782Y-9035072D01*
X7613782Y-9035072D02*
X7632829Y-9044596D01*
X7632829Y-9044596D02*
X7642353Y-9054120D01*
X7642353Y-9054120D02*
X7651877Y-9073168D01*
X7651877Y-9073168D02*
X7661401Y-9111263D01*
X7661401Y-9111263D02*
X7661401Y-9158882D01*
X7661401Y-9158882D02*
X7651877Y-9196977D01*
X7651877Y-9196977D02*
X7642353Y-9216025D01*
X7642353Y-9216025D02*
X7632829Y-9225549D01*
X7632829Y-9225549D02*
X7613782Y-9235072D01*
X7613782Y-9235072D02*
X7594734Y-9235072D01*
X7594734Y-9235072D02*
X7575686Y-9225549D01*
X7575686Y-9225549D02*
X7566163Y-9216025D01*
X7566163Y-9216025D02*
X7556639Y-9196977D01*
X7556639Y-9196977D02*
X7547115Y-9158882D01*
X7547115Y-9158882D02*
X7547115Y-9111263D01*
X7547115Y-9111263D02*
X7556639Y-9073168D01*
X7556639Y-9073168D02*
X7566163Y-9054120D01*
X7566163Y-9054120D02*
X7575686Y-9044596D01*
X7575686Y-9044596D02*
X7594734Y-9035072D01*
X7747115Y-9216025D02*
X7756639Y-9225549D01*
X7756639Y-9225549D02*
X7747115Y-9235072D01*
X7747115Y-9235072D02*
X7737591Y-9225549D01*
X7737591Y-9225549D02*
X7747115Y-9216025D01*
X7747115Y-9216025D02*
X7747115Y-9235072D01*
X7880448Y-9035072D02*
X7899496Y-9035072D01*
X7899496Y-9035072D02*
X7918544Y-9044596D01*
X7918544Y-9044596D02*
X7928067Y-9054120D01*
X7928067Y-9054120D02*
X7937591Y-9073168D01*
X7937591Y-9073168D02*
X7947115Y-9111263D01*
X7947115Y-9111263D02*
X7947115Y-9158882D01*
X7947115Y-9158882D02*
X7937591Y-9196977D01*
X7937591Y-9196977D02*
X7928067Y-9216025D01*
X7928067Y-9216025D02*
X7918544Y-9225549D01*
X7918544Y-9225549D02*
X7899496Y-9235072D01*
X7899496Y-9235072D02*
X7880448Y-9235072D01*
X7880448Y-9235072D02*
X7861401Y-9225549D01*
X7861401Y-9225549D02*
X7851877Y-9216025D01*
X7851877Y-9216025D02*
X7842353Y-9196977D01*
X7842353Y-9196977D02*
X7832829Y-9158882D01*
X7832829Y-9158882D02*
X7832829Y-9111263D01*
X7832829Y-9111263D02*
X7842353Y-9073168D01*
X7842353Y-9073168D02*
X7851877Y-9054120D01*
X7851877Y-9054120D02*
X7861401Y-9044596D01*
X7861401Y-9044596D02*
X7880448Y-9035072D01*
X8137591Y-9235072D02*
X8023306Y-9235072D01*
X8080448Y-9235072D02*
X8080448Y-9035072D01*
X8080448Y-9035072D02*
X8061401Y-9063644D01*
X8061401Y-9063644D02*
X8042353Y-9082691D01*
X8042353Y-9082691D02*
X8023306Y-9092215D01*
X8318544Y-9035072D02*
X8223306Y-9035072D01*
X8223306Y-9035072D02*
X8213782Y-9130310D01*
X8213782Y-9130310D02*
X8223306Y-9120787D01*
X8223306Y-9120787D02*
X8242353Y-9111263D01*
X8242353Y-9111263D02*
X8289972Y-9111263D01*
X8289972Y-9111263D02*
X8309020Y-9120787D01*
X8309020Y-9120787D02*
X8318544Y-9130310D01*
X8318544Y-9130310D02*
X8328067Y-9149358D01*
X8328067Y-9149358D02*
X8328067Y-9196977D01*
X8328067Y-9196977D02*
X8318544Y-9216025D01*
X8318544Y-9216025D02*
X8309020Y-9225549D01*
X8309020Y-9225549D02*
X8289972Y-9235072D01*
X8289972Y-9235072D02*
X8242353Y-9235072D01*
X8242353Y-9235072D02*
X8223306Y-9225549D01*
X8223306Y-9225549D02*
X8213782Y-9216025D01*
X8394734Y-9035072D02*
X8528068Y-9035072D01*
X8528068Y-9035072D02*
X8442353Y-9235072D01*
X8594734Y-9035072D02*
X8594734Y-9073168D01*
X8670925Y-9035072D02*
X8670925Y-9073168D01*
X8966163Y-9311263D02*
X8956639Y-9301739D01*
X8956639Y-9301739D02*
X8937591Y-9273168D01*
X8937591Y-9273168D02*
X8928068Y-9254120D01*
X8928068Y-9254120D02*
X8918544Y-9225549D01*
X8918544Y-9225549D02*
X8909020Y-9177929D01*
X8909020Y-9177929D02*
X8909020Y-9139834D01*
X8909020Y-9139834D02*
X8918544Y-9092215D01*
X8918544Y-9092215D02*
X8928068Y-9063644D01*
X8928068Y-9063644D02*
X8937591Y-9044596D01*
X8937591Y-9044596D02*
X8956639Y-9016025D01*
X8956639Y-9016025D02*
X8966163Y-9006501D01*
X9032830Y-9054120D02*
X9042353Y-9044596D01*
X9042353Y-9044596D02*
X9061401Y-9035072D01*
X9061401Y-9035072D02*
X9109020Y-9035072D01*
X9109020Y-9035072D02*
X9128068Y-9044596D01*
X9128068Y-9044596D02*
X9137591Y-9054120D01*
X9137591Y-9054120D02*
X9147115Y-9073168D01*
X9147115Y-9073168D02*
X9147115Y-9092215D01*
X9147115Y-9092215D02*
X9137591Y-9120787D01*
X9137591Y-9120787D02*
X9023306Y-9235072D01*
X9023306Y-9235072D02*
X9147115Y-9235072D01*
X9223306Y-9054120D02*
X9232830Y-9044596D01*
X9232830Y-9044596D02*
X9251877Y-9035072D01*
X9251877Y-9035072D02*
X9299496Y-9035072D01*
X9299496Y-9035072D02*
X9318544Y-9044596D01*
X9318544Y-9044596D02*
X9328068Y-9054120D01*
X9328068Y-9054120D02*
X9337591Y-9073168D01*
X9337591Y-9073168D02*
X9337591Y-9092215D01*
X9337591Y-9092215D02*
X9328068Y-9120787D01*
X9328068Y-9120787D02*
X9213782Y-9235072D01*
X9213782Y-9235072D02*
X9337591Y-9235072D01*
X9575687Y-9235072D02*
X9575687Y-9035072D01*
X9661401Y-9235072D02*
X9661401Y-9130310D01*
X9661401Y-9130310D02*
X9651877Y-9111263D01*
X9651877Y-9111263D02*
X9632830Y-9101739D01*
X9632830Y-9101739D02*
X9604258Y-9101739D01*
X9604258Y-9101739D02*
X9585211Y-9111263D01*
X9585211Y-9111263D02*
X9575687Y-9120787D01*
X9785211Y-9235072D02*
X9766163Y-9225549D01*
X9766163Y-9225549D02*
X9756639Y-9216025D01*
X9756639Y-9216025D02*
X9747115Y-9196977D01*
X9747115Y-9196977D02*
X9747115Y-9139834D01*
X9747115Y-9139834D02*
X9756639Y-9120787D01*
X9756639Y-9120787D02*
X9766163Y-9111263D01*
X9766163Y-9111263D02*
X9785211Y-9101739D01*
X9785211Y-9101739D02*
X9813782Y-9101739D01*
X9813782Y-9101739D02*
X9832830Y-9111263D01*
X9832830Y-9111263D02*
X9842353Y-9120787D01*
X9842353Y-9120787D02*
X9851877Y-9139834D01*
X9851877Y-9139834D02*
X9851877Y-9196977D01*
X9851877Y-9196977D02*
X9842353Y-9216025D01*
X9842353Y-9216025D02*
X9832830Y-9225549D01*
X9832830Y-9225549D02*
X9813782Y-9235072D01*
X9813782Y-9235072D02*
X9785211Y-9235072D01*
X9966163Y-9235072D02*
X9947115Y-9225549D01*
X9947115Y-9225549D02*
X9937592Y-9206501D01*
X9937592Y-9206501D02*
X9937592Y-9035072D01*
X10118544Y-9225549D02*
X10099496Y-9235072D01*
X10099496Y-9235072D02*
X10061401Y-9235072D01*
X10061401Y-9235072D02*
X10042353Y-9225549D01*
X10042353Y-9225549D02*
X10032830Y-9206501D01*
X10032830Y-9206501D02*
X10032830Y-9130310D01*
X10032830Y-9130310D02*
X10042353Y-9111263D01*
X10042353Y-9111263D02*
X10061401Y-9101739D01*
X10061401Y-9101739D02*
X10099496Y-9101739D01*
X10099496Y-9101739D02*
X10118544Y-9111263D01*
X10118544Y-9111263D02*
X10128068Y-9130310D01*
X10128068Y-9130310D02*
X10128068Y-9149358D01*
X10128068Y-9149358D02*
X10032830Y-9168406D01*
X10204258Y-9225549D02*
X10223306Y-9235072D01*
X10223306Y-9235072D02*
X10261401Y-9235072D01*
X10261401Y-9235072D02*
X10280449Y-9225549D01*
X10280449Y-9225549D02*
X10289973Y-9206501D01*
X10289973Y-9206501D02*
X10289973Y-9196977D01*
X10289973Y-9196977D02*
X10280449Y-9177929D01*
X10280449Y-9177929D02*
X10261401Y-9168406D01*
X10261401Y-9168406D02*
X10232830Y-9168406D01*
X10232830Y-9168406D02*
X10213782Y-9158882D01*
X10213782Y-9158882D02*
X10204258Y-9139834D01*
X10204258Y-9139834D02*
X10204258Y-9130310D01*
X10204258Y-9130310D02*
X10213782Y-9111263D01*
X10213782Y-9111263D02*
X10232830Y-9101739D01*
X10232830Y-9101739D02*
X10261401Y-9101739D01*
X10261401Y-9101739D02*
X10280449Y-9111263D01*
X10356639Y-9311263D02*
X10366163Y-9301739D01*
X10366163Y-9301739D02*
X10385211Y-9273168D01*
X10385211Y-9273168D02*
X10394734Y-9254120D01*
X10394734Y-9254120D02*
X10404258Y-9225549D01*
X10404258Y-9225549D02*
X10413782Y-9177929D01*
X10413782Y-9177929D02*
X10413782Y-9139834D01*
X10413782Y-9139834D02*
X10404258Y-9092215D01*
X10404258Y-9092215D02*
X10394734Y-9063644D01*
X10394734Y-9063644D02*
X10385211Y-9044596D01*
X10385211Y-9044596D02*
X10366163Y-9016025D01*
X10366163Y-9016025D02*
X10356639Y-9006501D01*
X5391100Y-9407589D02*
G75*
G02*
X5191100Y-9407589I-100000J0D01*
G01*
X5191100Y-9407589D02*
G75*
G02*
X5391100Y-9407589I100000J0D01*
G01*
X5632829Y-9299072D02*
X5756639Y-9299072D01*
X5756639Y-9299072D02*
X5689972Y-9375263D01*
X5689972Y-9375263D02*
X5718543Y-9375263D01*
X5718543Y-9375263D02*
X5737591Y-9384787D01*
X5737591Y-9384787D02*
X5747115Y-9394310D01*
X5747115Y-9394310D02*
X5756639Y-9413358D01*
X5756639Y-9413358D02*
X5756639Y-9460977D01*
X5756639Y-9460977D02*
X5747115Y-9480025D01*
X5747115Y-9480025D02*
X5737591Y-9489549D01*
X5737591Y-9489549D02*
X5718543Y-9499072D01*
X5718543Y-9499072D02*
X5661401Y-9499072D01*
X5661401Y-9499072D02*
X5642353Y-9489549D01*
X5642353Y-9489549D02*
X5632829Y-9480025D01*
X5842353Y-9480025D02*
X5851877Y-9489549D01*
X5851877Y-9489549D02*
X5842353Y-9499072D01*
X5842353Y-9499072D02*
X5832829Y-9489549D01*
X5832829Y-9489549D02*
X5842353Y-9480025D01*
X5842353Y-9480025D02*
X5842353Y-9499072D01*
X5975686Y-9299072D02*
X5994734Y-9299072D01*
X5994734Y-9299072D02*
X6013782Y-9308596D01*
X6013782Y-9308596D02*
X6023305Y-9318120D01*
X6023305Y-9318120D02*
X6032829Y-9337168D01*
X6032829Y-9337168D02*
X6042353Y-9375263D01*
X6042353Y-9375263D02*
X6042353Y-9422882D01*
X6042353Y-9422882D02*
X6032829Y-9460977D01*
X6032829Y-9460977D02*
X6023305Y-9480025D01*
X6023305Y-9480025D02*
X6013782Y-9489549D01*
X6013782Y-9489549D02*
X5994734Y-9499072D01*
X5994734Y-9499072D02*
X5975686Y-9499072D01*
X5975686Y-9499072D02*
X5956639Y-9489549D01*
X5956639Y-9489549D02*
X5947115Y-9480025D01*
X5947115Y-9480025D02*
X5937591Y-9460977D01*
X5937591Y-9460977D02*
X5928067Y-9422882D01*
X5928067Y-9422882D02*
X5928067Y-9375263D01*
X5928067Y-9375263D02*
X5937591Y-9337168D01*
X5937591Y-9337168D02*
X5947115Y-9318120D01*
X5947115Y-9318120D02*
X5956639Y-9308596D01*
X5956639Y-9308596D02*
X5975686Y-9299072D01*
X6166162Y-9299072D02*
X6185210Y-9299072D01*
X6185210Y-9299072D02*
X6204258Y-9308596D01*
X6204258Y-9308596D02*
X6213782Y-9318120D01*
X6213782Y-9318120D02*
X6223305Y-9337168D01*
X6223305Y-9337168D02*
X6232829Y-9375263D01*
X6232829Y-9375263D02*
X6232829Y-9422882D01*
X6232829Y-9422882D02*
X6223305Y-9460977D01*
X6223305Y-9460977D02*
X6213782Y-9480025D01*
X6213782Y-9480025D02*
X6204258Y-9489549D01*
X6204258Y-9489549D02*
X6185210Y-9499072D01*
X6185210Y-9499072D02*
X6166162Y-9499072D01*
X6166162Y-9499072D02*
X6147115Y-9489549D01*
X6147115Y-9489549D02*
X6137591Y-9480025D01*
X6137591Y-9480025D02*
X6128067Y-9460977D01*
X6128067Y-9460977D02*
X6118543Y-9422882D01*
X6118543Y-9422882D02*
X6118543Y-9375263D01*
X6118543Y-9375263D02*
X6128067Y-9337168D01*
X6128067Y-9337168D02*
X6137591Y-9318120D01*
X6137591Y-9318120D02*
X6147115Y-9308596D01*
X6147115Y-9308596D02*
X6166162Y-9299072D01*
X6356639Y-9299072D02*
X6375686Y-9299072D01*
X6375686Y-9299072D02*
X6394734Y-9308596D01*
X6394734Y-9308596D02*
X6404258Y-9318120D01*
X6404258Y-9318120D02*
X6413782Y-9337168D01*
X6413782Y-9337168D02*
X6423305Y-9375263D01*
X6423305Y-9375263D02*
X6423305Y-9422882D01*
X6423305Y-9422882D02*
X6413782Y-9460977D01*
X6413782Y-9460977D02*
X6404258Y-9480025D01*
X6404258Y-9480025D02*
X6394734Y-9489549D01*
X6394734Y-9489549D02*
X6375686Y-9499072D01*
X6375686Y-9499072D02*
X6356639Y-9499072D01*
X6356639Y-9499072D02*
X6337591Y-9489549D01*
X6337591Y-9489549D02*
X6328067Y-9480025D01*
X6328067Y-9480025D02*
X6318543Y-9460977D01*
X6318543Y-9460977D02*
X6309020Y-9422882D01*
X6309020Y-9422882D02*
X6309020Y-9375263D01*
X6309020Y-9375263D02*
X6318543Y-9337168D01*
X6318543Y-9337168D02*
X6328067Y-9318120D01*
X6328067Y-9318120D02*
X6337591Y-9308596D01*
X6337591Y-9308596D02*
X6356639Y-9299072D01*
X6509020Y-9499072D02*
X6509020Y-9365739D01*
X6509020Y-9384787D02*
X6518543Y-9375263D01*
X6518543Y-9375263D02*
X6537591Y-9365739D01*
X6537591Y-9365739D02*
X6566163Y-9365739D01*
X6566163Y-9365739D02*
X6585210Y-9375263D01*
X6585210Y-9375263D02*
X6594734Y-9394310D01*
X6594734Y-9394310D02*
X6594734Y-9499072D01*
X6594734Y-9394310D02*
X6604258Y-9375263D01*
X6604258Y-9375263D02*
X6623305Y-9365739D01*
X6623305Y-9365739D02*
X6651877Y-9365739D01*
X6651877Y-9365739D02*
X6670924Y-9375263D01*
X6670924Y-9375263D02*
X6680448Y-9394310D01*
X6680448Y-9394310D02*
X6680448Y-9499072D01*
X6775686Y-9499072D02*
X6775686Y-9365739D01*
X6775686Y-9384787D02*
X6785210Y-9375263D01*
X6785210Y-9375263D02*
X6804258Y-9365739D01*
X6804258Y-9365739D02*
X6832829Y-9365739D01*
X6832829Y-9365739D02*
X6851877Y-9375263D01*
X6851877Y-9375263D02*
X6861401Y-9394310D01*
X6861401Y-9394310D02*
X6861401Y-9499072D01*
X6861401Y-9394310D02*
X6870924Y-9375263D01*
X6870924Y-9375263D02*
X6889972Y-9365739D01*
X6889972Y-9365739D02*
X6918543Y-9365739D01*
X6918543Y-9365739D02*
X6937591Y-9375263D01*
X6937591Y-9375263D02*
X6947115Y-9394310D01*
X6947115Y-9394310D02*
X6947115Y-9499072D01*
X7337591Y-9289549D02*
X7166163Y-9546691D01*
X7594734Y-9299072D02*
X7613782Y-9299072D01*
X7613782Y-9299072D02*
X7632829Y-9308596D01*
X7632829Y-9308596D02*
X7642353Y-9318120D01*
X7642353Y-9318120D02*
X7651877Y-9337168D01*
X7651877Y-9337168D02*
X7661401Y-9375263D01*
X7661401Y-9375263D02*
X7661401Y-9422882D01*
X7661401Y-9422882D02*
X7651877Y-9460977D01*
X7651877Y-9460977D02*
X7642353Y-9480025D01*
X7642353Y-9480025D02*
X7632829Y-9489549D01*
X7632829Y-9489549D02*
X7613782Y-9499072D01*
X7613782Y-9499072D02*
X7594734Y-9499072D01*
X7594734Y-9499072D02*
X7575686Y-9489549D01*
X7575686Y-9489549D02*
X7566163Y-9480025D01*
X7566163Y-9480025D02*
X7556639Y-9460977D01*
X7556639Y-9460977D02*
X7547115Y-9422882D01*
X7547115Y-9422882D02*
X7547115Y-9375263D01*
X7547115Y-9375263D02*
X7556639Y-9337168D01*
X7556639Y-9337168D02*
X7566163Y-9318120D01*
X7566163Y-9318120D02*
X7575686Y-9308596D01*
X7575686Y-9308596D02*
X7594734Y-9299072D01*
X7747115Y-9480025D02*
X7756639Y-9489549D01*
X7756639Y-9489549D02*
X7747115Y-9499072D01*
X7747115Y-9499072D02*
X7737591Y-9489549D01*
X7737591Y-9489549D02*
X7747115Y-9480025D01*
X7747115Y-9480025D02*
X7747115Y-9499072D01*
X7947115Y-9499072D02*
X7832829Y-9499072D01*
X7889972Y-9499072D02*
X7889972Y-9299072D01*
X7889972Y-9299072D02*
X7870925Y-9327644D01*
X7870925Y-9327644D02*
X7851877Y-9346691D01*
X7851877Y-9346691D02*
X7832829Y-9356215D01*
X8137591Y-9499072D02*
X8023306Y-9499072D01*
X8080448Y-9499072D02*
X8080448Y-9299072D01*
X8080448Y-9299072D02*
X8061401Y-9327644D01*
X8061401Y-9327644D02*
X8042353Y-9346691D01*
X8042353Y-9346691D02*
X8023306Y-9356215D01*
X8251877Y-9384787D02*
X8232829Y-9375263D01*
X8232829Y-9375263D02*
X8223306Y-9365739D01*
X8223306Y-9365739D02*
X8213782Y-9346691D01*
X8213782Y-9346691D02*
X8213782Y-9337168D01*
X8213782Y-9337168D02*
X8223306Y-9318120D01*
X8223306Y-9318120D02*
X8232829Y-9308596D01*
X8232829Y-9308596D02*
X8251877Y-9299072D01*
X8251877Y-9299072D02*
X8289972Y-9299072D01*
X8289972Y-9299072D02*
X8309020Y-9308596D01*
X8309020Y-9308596D02*
X8318544Y-9318120D01*
X8318544Y-9318120D02*
X8328067Y-9337168D01*
X8328067Y-9337168D02*
X8328067Y-9346691D01*
X8328067Y-9346691D02*
X8318544Y-9365739D01*
X8318544Y-9365739D02*
X8309020Y-9375263D01*
X8309020Y-9375263D02*
X8289972Y-9384787D01*
X8289972Y-9384787D02*
X8251877Y-9384787D01*
X8251877Y-9384787D02*
X8232829Y-9394310D01*
X8232829Y-9394310D02*
X8223306Y-9403834D01*
X8223306Y-9403834D02*
X8213782Y-9422882D01*
X8213782Y-9422882D02*
X8213782Y-9460977D01*
X8213782Y-9460977D02*
X8223306Y-9480025D01*
X8223306Y-9480025D02*
X8232829Y-9489549D01*
X8232829Y-9489549D02*
X8251877Y-9499072D01*
X8251877Y-9499072D02*
X8289972Y-9499072D01*
X8289972Y-9499072D02*
X8309020Y-9489549D01*
X8309020Y-9489549D02*
X8318544Y-9480025D01*
X8318544Y-9480025D02*
X8328067Y-9460977D01*
X8328067Y-9460977D02*
X8328067Y-9422882D01*
X8328067Y-9422882D02*
X8318544Y-9403834D01*
X8318544Y-9403834D02*
X8309020Y-9394310D01*
X8309020Y-9394310D02*
X8289972Y-9384787D01*
X8518544Y-9499072D02*
X8404258Y-9499072D01*
X8461401Y-9499072D02*
X8461401Y-9299072D01*
X8461401Y-9299072D02*
X8442353Y-9327644D01*
X8442353Y-9327644D02*
X8423306Y-9346691D01*
X8423306Y-9346691D02*
X8404258Y-9356215D01*
X8594734Y-9299072D02*
X8594734Y-9337168D01*
X8670925Y-9299072D02*
X8670925Y-9337168D01*
X8966163Y-9575263D02*
X8956639Y-9565739D01*
X8956639Y-9565739D02*
X8937591Y-9537168D01*
X8937591Y-9537168D02*
X8928068Y-9518120D01*
X8928068Y-9518120D02*
X8918544Y-9489549D01*
X8918544Y-9489549D02*
X8909020Y-9441929D01*
X8909020Y-9441929D02*
X8909020Y-9403834D01*
X8909020Y-9403834D02*
X8918544Y-9356215D01*
X8918544Y-9356215D02*
X8928068Y-9327644D01*
X8928068Y-9327644D02*
X8937591Y-9308596D01*
X8937591Y-9308596D02*
X8956639Y-9280025D01*
X8956639Y-9280025D02*
X8966163Y-9270501D01*
X9147115Y-9499072D02*
X9032830Y-9499072D01*
X9089972Y-9499072D02*
X9089972Y-9299072D01*
X9089972Y-9299072D02*
X9070925Y-9327644D01*
X9070925Y-9327644D02*
X9051877Y-9346691D01*
X9051877Y-9346691D02*
X9032830Y-9356215D01*
X9385211Y-9499072D02*
X9385211Y-9299072D01*
X9470925Y-9499072D02*
X9470925Y-9394310D01*
X9470925Y-9394310D02*
X9461401Y-9375263D01*
X9461401Y-9375263D02*
X9442353Y-9365739D01*
X9442353Y-9365739D02*
X9413782Y-9365739D01*
X9413782Y-9365739D02*
X9394734Y-9375263D01*
X9394734Y-9375263D02*
X9385211Y-9384787D01*
X9594734Y-9499072D02*
X9575687Y-9489549D01*
X9575687Y-9489549D02*
X9566163Y-9480025D01*
X9566163Y-9480025D02*
X9556639Y-9460977D01*
X9556639Y-9460977D02*
X9556639Y-9403834D01*
X9556639Y-9403834D02*
X9566163Y-9384787D01*
X9566163Y-9384787D02*
X9575687Y-9375263D01*
X9575687Y-9375263D02*
X9594734Y-9365739D01*
X9594734Y-9365739D02*
X9623306Y-9365739D01*
X9623306Y-9365739D02*
X9642353Y-9375263D01*
X9642353Y-9375263D02*
X9651877Y-9384787D01*
X9651877Y-9384787D02*
X9661401Y-9403834D01*
X9661401Y-9403834D02*
X9661401Y-9460977D01*
X9661401Y-9460977D02*
X9651877Y-9480025D01*
X9651877Y-9480025D02*
X9642353Y-9489549D01*
X9642353Y-9489549D02*
X9623306Y-9499072D01*
X9623306Y-9499072D02*
X9594734Y-9499072D01*
X9775687Y-9499072D02*
X9756639Y-9489549D01*
X9756639Y-9489549D02*
X9747115Y-9470501D01*
X9747115Y-9470501D02*
X9747115Y-9299072D01*
X9928068Y-9489549D02*
X9909020Y-9499072D01*
X9909020Y-9499072D02*
X9870925Y-9499072D01*
X9870925Y-9499072D02*
X9851877Y-9489549D01*
X9851877Y-9489549D02*
X9842353Y-9470501D01*
X9842353Y-9470501D02*
X9842353Y-9394310D01*
X9842353Y-9394310D02*
X9851877Y-9375263D01*
X9851877Y-9375263D02*
X9870925Y-9365739D01*
X9870925Y-9365739D02*
X9909020Y-9365739D01*
X9909020Y-9365739D02*
X9928068Y-9375263D01*
X9928068Y-9375263D02*
X9937592Y-9394310D01*
X9937592Y-9394310D02*
X9937592Y-9413358D01*
X9937592Y-9413358D02*
X9842353Y-9432406D01*
X10004258Y-9575263D02*
X10013782Y-9565739D01*
X10013782Y-9565739D02*
X10032830Y-9537168D01*
X10032830Y-9537168D02*
X10042353Y-9518120D01*
X10042353Y-9518120D02*
X10051877Y-9489549D01*
X10051877Y-9489549D02*
X10061401Y-9441929D01*
X10061401Y-9441929D02*
X10061401Y-9403834D01*
X10061401Y-9403834D02*
X10051877Y-9356215D01*
X10051877Y-9356215D02*
X10042353Y-9327644D01*
X10042353Y-9327644D02*
X10032830Y-9308596D01*
X10032830Y-9308596D02*
X10013782Y-9280025D01*
X10013782Y-9280025D02*
X10004258Y-9270501D01*
X5291100Y-9627589D02*
X5291100Y-9827589D01*
X5191100Y-9727589D02*
X5391100Y-9727589D01*
X5737591Y-9685739D02*
X5737591Y-9819072D01*
X5689972Y-9609549D02*
X5642353Y-9752406D01*
X5642353Y-9752406D02*
X5766162Y-9752406D01*
X5842353Y-9800025D02*
X5851877Y-9809549D01*
X5851877Y-9809549D02*
X5842353Y-9819072D01*
X5842353Y-9819072D02*
X5832829Y-9809549D01*
X5832829Y-9809549D02*
X5842353Y-9800025D01*
X5842353Y-9800025D02*
X5842353Y-9819072D01*
X5975686Y-9619072D02*
X5994734Y-9619072D01*
X5994734Y-9619072D02*
X6013782Y-9628596D01*
X6013782Y-9628596D02*
X6023305Y-9638120D01*
X6023305Y-9638120D02*
X6032829Y-9657168D01*
X6032829Y-9657168D02*
X6042353Y-9695263D01*
X6042353Y-9695263D02*
X6042353Y-9742882D01*
X6042353Y-9742882D02*
X6032829Y-9780977D01*
X6032829Y-9780977D02*
X6023305Y-9800025D01*
X6023305Y-9800025D02*
X6013782Y-9809549D01*
X6013782Y-9809549D02*
X5994734Y-9819072D01*
X5994734Y-9819072D02*
X5975686Y-9819072D01*
X5975686Y-9819072D02*
X5956639Y-9809549D01*
X5956639Y-9809549D02*
X5947115Y-9800025D01*
X5947115Y-9800025D02*
X5937591Y-9780977D01*
X5937591Y-9780977D02*
X5928067Y-9742882D01*
X5928067Y-9742882D02*
X5928067Y-9695263D01*
X5928067Y-9695263D02*
X5937591Y-9657168D01*
X5937591Y-9657168D02*
X5947115Y-9638120D01*
X5947115Y-9638120D02*
X5956639Y-9628596D01*
X5956639Y-9628596D02*
X5975686Y-9619072D01*
X6166162Y-9619072D02*
X6185210Y-9619072D01*
X6185210Y-9619072D02*
X6204258Y-9628596D01*
X6204258Y-9628596D02*
X6213782Y-9638120D01*
X6213782Y-9638120D02*
X6223305Y-9657168D01*
X6223305Y-9657168D02*
X6232829Y-9695263D01*
X6232829Y-9695263D02*
X6232829Y-9742882D01*
X6232829Y-9742882D02*
X6223305Y-9780977D01*
X6223305Y-9780977D02*
X6213782Y-9800025D01*
X6213782Y-9800025D02*
X6204258Y-9809549D01*
X6204258Y-9809549D02*
X6185210Y-9819072D01*
X6185210Y-9819072D02*
X6166162Y-9819072D01*
X6166162Y-9819072D02*
X6147115Y-9809549D01*
X6147115Y-9809549D02*
X6137591Y-9800025D01*
X6137591Y-9800025D02*
X6128067Y-9780977D01*
X6128067Y-9780977D02*
X6118543Y-9742882D01*
X6118543Y-9742882D02*
X6118543Y-9695263D01*
X6118543Y-9695263D02*
X6128067Y-9657168D01*
X6128067Y-9657168D02*
X6137591Y-9638120D01*
X6137591Y-9638120D02*
X6147115Y-9628596D01*
X6147115Y-9628596D02*
X6166162Y-9619072D01*
X6356639Y-9619072D02*
X6375686Y-9619072D01*
X6375686Y-9619072D02*
X6394734Y-9628596D01*
X6394734Y-9628596D02*
X6404258Y-9638120D01*
X6404258Y-9638120D02*
X6413782Y-9657168D01*
X6413782Y-9657168D02*
X6423305Y-9695263D01*
X6423305Y-9695263D02*
X6423305Y-9742882D01*
X6423305Y-9742882D02*
X6413782Y-9780977D01*
X6413782Y-9780977D02*
X6404258Y-9800025D01*
X6404258Y-9800025D02*
X6394734Y-9809549D01*
X6394734Y-9809549D02*
X6375686Y-9819072D01*
X6375686Y-9819072D02*
X6356639Y-9819072D01*
X6356639Y-9819072D02*
X6337591Y-9809549D01*
X6337591Y-9809549D02*
X6328067Y-9800025D01*
X6328067Y-9800025D02*
X6318543Y-9780977D01*
X6318543Y-9780977D02*
X6309020Y-9742882D01*
X6309020Y-9742882D02*
X6309020Y-9695263D01*
X6309020Y-9695263D02*
X6318543Y-9657168D01*
X6318543Y-9657168D02*
X6328067Y-9638120D01*
X6328067Y-9638120D02*
X6337591Y-9628596D01*
X6337591Y-9628596D02*
X6356639Y-9619072D01*
X6509020Y-9819072D02*
X6509020Y-9685739D01*
X6509020Y-9704787D02*
X6518543Y-9695263D01*
X6518543Y-9695263D02*
X6537591Y-9685739D01*
X6537591Y-9685739D02*
X6566163Y-9685739D01*
X6566163Y-9685739D02*
X6585210Y-9695263D01*
X6585210Y-9695263D02*
X6594734Y-9714310D01*
X6594734Y-9714310D02*
X6594734Y-9819072D01*
X6594734Y-9714310D02*
X6604258Y-9695263D01*
X6604258Y-9695263D02*
X6623305Y-9685739D01*
X6623305Y-9685739D02*
X6651877Y-9685739D01*
X6651877Y-9685739D02*
X6670924Y-9695263D01*
X6670924Y-9695263D02*
X6680448Y-9714310D01*
X6680448Y-9714310D02*
X6680448Y-9819072D01*
X6775686Y-9819072D02*
X6775686Y-9685739D01*
X6775686Y-9704787D02*
X6785210Y-9695263D01*
X6785210Y-9695263D02*
X6804258Y-9685739D01*
X6804258Y-9685739D02*
X6832829Y-9685739D01*
X6832829Y-9685739D02*
X6851877Y-9695263D01*
X6851877Y-9695263D02*
X6861401Y-9714310D01*
X6861401Y-9714310D02*
X6861401Y-9819072D01*
X6861401Y-9714310D02*
X6870924Y-9695263D01*
X6870924Y-9695263D02*
X6889972Y-9685739D01*
X6889972Y-9685739D02*
X6918543Y-9685739D01*
X6918543Y-9685739D02*
X6937591Y-9695263D01*
X6937591Y-9695263D02*
X6947115Y-9714310D01*
X6947115Y-9714310D02*
X6947115Y-9819072D01*
X7337591Y-9609549D02*
X7166163Y-9866691D01*
X7594734Y-9619072D02*
X7613782Y-9619072D01*
X7613782Y-9619072D02*
X7632829Y-9628596D01*
X7632829Y-9628596D02*
X7642353Y-9638120D01*
X7642353Y-9638120D02*
X7651877Y-9657168D01*
X7651877Y-9657168D02*
X7661401Y-9695263D01*
X7661401Y-9695263D02*
X7661401Y-9742882D01*
X7661401Y-9742882D02*
X7651877Y-9780977D01*
X7651877Y-9780977D02*
X7642353Y-9800025D01*
X7642353Y-9800025D02*
X7632829Y-9809549D01*
X7632829Y-9809549D02*
X7613782Y-9819072D01*
X7613782Y-9819072D02*
X7594734Y-9819072D01*
X7594734Y-9819072D02*
X7575686Y-9809549D01*
X7575686Y-9809549D02*
X7566163Y-9800025D01*
X7566163Y-9800025D02*
X7556639Y-9780977D01*
X7556639Y-9780977D02*
X7547115Y-9742882D01*
X7547115Y-9742882D02*
X7547115Y-9695263D01*
X7547115Y-9695263D02*
X7556639Y-9657168D01*
X7556639Y-9657168D02*
X7566163Y-9638120D01*
X7566163Y-9638120D02*
X7575686Y-9628596D01*
X7575686Y-9628596D02*
X7594734Y-9619072D01*
X7747115Y-9800025D02*
X7756639Y-9809549D01*
X7756639Y-9809549D02*
X7747115Y-9819072D01*
X7747115Y-9819072D02*
X7737591Y-9809549D01*
X7737591Y-9809549D02*
X7747115Y-9800025D01*
X7747115Y-9800025D02*
X7747115Y-9819072D01*
X7947115Y-9819072D02*
X7832829Y-9819072D01*
X7889972Y-9819072D02*
X7889972Y-9619072D01*
X7889972Y-9619072D02*
X7870925Y-9647644D01*
X7870925Y-9647644D02*
X7851877Y-9666691D01*
X7851877Y-9666691D02*
X7832829Y-9676215D01*
X8128067Y-9619072D02*
X8032829Y-9619072D01*
X8032829Y-9619072D02*
X8023306Y-9714310D01*
X8023306Y-9714310D02*
X8032829Y-9704787D01*
X8032829Y-9704787D02*
X8051877Y-9695263D01*
X8051877Y-9695263D02*
X8099496Y-9695263D01*
X8099496Y-9695263D02*
X8118544Y-9704787D01*
X8118544Y-9704787D02*
X8128067Y-9714310D01*
X8128067Y-9714310D02*
X8137591Y-9733358D01*
X8137591Y-9733358D02*
X8137591Y-9780977D01*
X8137591Y-9780977D02*
X8128067Y-9800025D01*
X8128067Y-9800025D02*
X8118544Y-9809549D01*
X8118544Y-9809549D02*
X8099496Y-9819072D01*
X8099496Y-9819072D02*
X8051877Y-9819072D01*
X8051877Y-9819072D02*
X8032829Y-9809549D01*
X8032829Y-9809549D02*
X8023306Y-9800025D01*
X8204258Y-9619072D02*
X8337591Y-9619072D01*
X8337591Y-9619072D02*
X8251877Y-9819072D01*
X8509020Y-9619072D02*
X8413782Y-9619072D01*
X8413782Y-9619072D02*
X8404258Y-9714310D01*
X8404258Y-9714310D02*
X8413782Y-9704787D01*
X8413782Y-9704787D02*
X8432829Y-9695263D01*
X8432829Y-9695263D02*
X8480449Y-9695263D01*
X8480449Y-9695263D02*
X8499496Y-9704787D01*
X8499496Y-9704787D02*
X8509020Y-9714310D01*
X8509020Y-9714310D02*
X8518544Y-9733358D01*
X8518544Y-9733358D02*
X8518544Y-9780977D01*
X8518544Y-9780977D02*
X8509020Y-9800025D01*
X8509020Y-9800025D02*
X8499496Y-9809549D01*
X8499496Y-9809549D02*
X8480449Y-9819072D01*
X8480449Y-9819072D02*
X8432829Y-9819072D01*
X8432829Y-9819072D02*
X8413782Y-9809549D01*
X8413782Y-9809549D02*
X8404258Y-9800025D01*
X8594734Y-9619072D02*
X8594734Y-9657168D01*
X8670925Y-9619072D02*
X8670925Y-9657168D01*
X8966163Y-9895263D02*
X8956639Y-9885739D01*
X8956639Y-9885739D02*
X8937591Y-9857168D01*
X8937591Y-9857168D02*
X8928068Y-9838120D01*
X8928068Y-9838120D02*
X8918544Y-9809549D01*
X8918544Y-9809549D02*
X8909020Y-9761929D01*
X8909020Y-9761929D02*
X8909020Y-9723834D01*
X8909020Y-9723834D02*
X8918544Y-9676215D01*
X8918544Y-9676215D02*
X8928068Y-9647644D01*
X8928068Y-9647644D02*
X8937591Y-9628596D01*
X8937591Y-9628596D02*
X8956639Y-9600025D01*
X8956639Y-9600025D02*
X8966163Y-9590501D01*
X9137591Y-9619072D02*
X9042353Y-9619072D01*
X9042353Y-9619072D02*
X9032830Y-9714310D01*
X9032830Y-9714310D02*
X9042353Y-9704787D01*
X9042353Y-9704787D02*
X9061401Y-9695263D01*
X9061401Y-9695263D02*
X9109020Y-9695263D01*
X9109020Y-9695263D02*
X9128068Y-9704787D01*
X9128068Y-9704787D02*
X9137591Y-9714310D01*
X9137591Y-9714310D02*
X9147115Y-9733358D01*
X9147115Y-9733358D02*
X9147115Y-9780977D01*
X9147115Y-9780977D02*
X9137591Y-9800025D01*
X9137591Y-9800025D02*
X9128068Y-9809549D01*
X9128068Y-9809549D02*
X9109020Y-9819072D01*
X9109020Y-9819072D02*
X9061401Y-9819072D01*
X9061401Y-9819072D02*
X9042353Y-9809549D01*
X9042353Y-9809549D02*
X9032830Y-9800025D01*
X9385211Y-9819072D02*
X9385211Y-9619072D01*
X9470925Y-9819072D02*
X9470925Y-9714310D01*
X9470925Y-9714310D02*
X9461401Y-9695263D01*
X9461401Y-9695263D02*
X9442353Y-9685739D01*
X9442353Y-9685739D02*
X9413782Y-9685739D01*
X9413782Y-9685739D02*
X9394734Y-9695263D01*
X9394734Y-9695263D02*
X9385211Y-9704787D01*
X9594734Y-9819072D02*
X9575687Y-9809549D01*
X9575687Y-9809549D02*
X9566163Y-9800025D01*
X9566163Y-9800025D02*
X9556639Y-9780977D01*
X9556639Y-9780977D02*
X9556639Y-9723834D01*
X9556639Y-9723834D02*
X9566163Y-9704787D01*
X9566163Y-9704787D02*
X9575687Y-9695263D01*
X9575687Y-9695263D02*
X9594734Y-9685739D01*
X9594734Y-9685739D02*
X9623306Y-9685739D01*
X9623306Y-9685739D02*
X9642353Y-9695263D01*
X9642353Y-9695263D02*
X9651877Y-9704787D01*
X9651877Y-9704787D02*
X9661401Y-9723834D01*
X9661401Y-9723834D02*
X9661401Y-9780977D01*
X9661401Y-9780977D02*
X9651877Y-9800025D01*
X9651877Y-9800025D02*
X9642353Y-9809549D01*
X9642353Y-9809549D02*
X9623306Y-9819072D01*
X9623306Y-9819072D02*
X9594734Y-9819072D01*
X9775687Y-9819072D02*
X9756639Y-9809549D01*
X9756639Y-9809549D02*
X9747115Y-9790501D01*
X9747115Y-9790501D02*
X9747115Y-9619072D01*
X9928068Y-9809549D02*
X9909020Y-9819072D01*
X9909020Y-9819072D02*
X9870925Y-9819072D01*
X9870925Y-9819072D02*
X9851877Y-9809549D01*
X9851877Y-9809549D02*
X9842353Y-9790501D01*
X9842353Y-9790501D02*
X9842353Y-9714310D01*
X9842353Y-9714310D02*
X9851877Y-9695263D01*
X9851877Y-9695263D02*
X9870925Y-9685739D01*
X9870925Y-9685739D02*
X9909020Y-9685739D01*
X9909020Y-9685739D02*
X9928068Y-9695263D01*
X9928068Y-9695263D02*
X9937592Y-9714310D01*
X9937592Y-9714310D02*
X9937592Y-9733358D01*
X9937592Y-9733358D02*
X9842353Y-9752406D01*
X10013782Y-9809549D02*
X10032830Y-9819072D01*
X10032830Y-9819072D02*
X10070925Y-9819072D01*
X10070925Y-9819072D02*
X10089973Y-9809549D01*
X10089973Y-9809549D02*
X10099496Y-9790501D01*
X10099496Y-9790501D02*
X10099496Y-9780977D01*
X10099496Y-9780977D02*
X10089973Y-9761929D01*
X10089973Y-9761929D02*
X10070925Y-9752406D01*
X10070925Y-9752406D02*
X10042353Y-9752406D01*
X10042353Y-9752406D02*
X10023306Y-9742882D01*
X10023306Y-9742882D02*
X10013782Y-9723834D01*
X10013782Y-9723834D02*
X10013782Y-9714310D01*
X10013782Y-9714310D02*
X10023306Y-9695263D01*
X10023306Y-9695263D02*
X10042353Y-9685739D01*
X10042353Y-9685739D02*
X10070925Y-9685739D01*
X10070925Y-9685739D02*
X10089973Y-9695263D01*
X10166163Y-9895263D02*
X10175687Y-9885739D01*
X10175687Y-9885739D02*
X10194734Y-9857168D01*
X10194734Y-9857168D02*
X10204258Y-9838120D01*
X10204258Y-9838120D02*
X10213782Y-9809549D01*
X10213782Y-9809549D02*
X10223306Y-9761929D01*
X10223306Y-9761929D02*
X10223306Y-9723834D01*
X10223306Y-9723834D02*
X10213782Y-9676215D01*
X10213782Y-9676215D02*
X10204258Y-9647644D01*
X10204258Y-9647644D02*
X10194734Y-9628596D01*
X10194734Y-9628596D02*
X10175687Y-9600025D01*
X10175687Y-9600025D02*
X10166163Y-9590501D01*
M02*
