G04 #@! TF.GenerationSoftware,KiCad,Pcbnew,8.0.0*
G04 #@! TF.CreationDate,2024-05-31T17:11:35+01:00*
G04 #@! TF.ProjectId,basic_kit_SMT_bumpers_D_pad,62617369-635f-46b6-9974-5f534d545f62,v1.4*
G04 #@! TF.SameCoordinates,Original*
G04 #@! TF.FileFunction,Legend,Top*
G04 #@! TF.FilePolarity,Positive*
%FSLAX46Y46*%
G04 Gerber Fmt 4.6, Leading zero omitted, Abs format (unit mm)*
G04 Created by KiCad (PCBNEW 8.0.0) date 2024-05-31 17:11:35*
%MOMM*%
%LPD*%
G01*
G04 APERTURE LIST*
G04 Aperture macros list*
%AMRoundRect*
0 Rectangle with rounded corners*
0 $1 Rounding radius*
0 $2 $3 $4 $5 $6 $7 $8 $9 X,Y pos of 4 corners*
0 Add a 4 corners polygon primitive as box body*
4,1,4,$2,$3,$4,$5,$6,$7,$8,$9,$2,$3,0*
0 Add four circle primitives for the rounded corners*
1,1,$1+$1,$2,$3*
1,1,$1+$1,$4,$5*
1,1,$1+$1,$6,$7*
1,1,$1+$1,$8,$9*
0 Add four rect primitives between the rounded corners*
20,1,$1+$1,$2,$3,$4,$5,0*
20,1,$1+$1,$4,$5,$6,$7,0*
20,1,$1+$1,$6,$7,$8,$9,0*
20,1,$1+$1,$8,$9,$2,$3,0*%
G04 Aperture macros list end*
%ADD10C,0.150000*%
%ADD11C,0.200000*%
%ADD12C,0.300000*%
%ADD13C,0.250000*%
%ADD14C,0.100000*%
%ADD15C,0.120000*%
%ADD16C,0.127000*%
%ADD17C,0.152400*%
%ADD18C,0.000000*%
%ADD19C,1.550000*%
%ADD20RoundRect,0.250000X-0.412500X-0.650000X0.412500X-0.650000X0.412500X0.650000X-0.412500X0.650000X0*%
%ADD21RoundRect,0.250000X-0.625000X0.400000X-0.625000X-0.400000X0.625000X-0.400000X0.625000X0.400000X0*%
%ADD22RoundRect,0.250000X-0.400000X-0.625000X0.400000X-0.625000X0.400000X0.625000X-0.400000X0.625000X0*%
%ADD23RoundRect,0.250000X0.400000X0.625000X-0.400000X0.625000X-0.400000X-0.625000X0.400000X-0.625000X0*%
%ADD24RoundRect,0.102000X-1.050000X-0.700000X1.050000X-0.700000X1.050000X0.700000X-1.050000X0.700000X0*%
%ADD25R,0.900000X1.500000*%
%ADD26RoundRect,0.250000X0.650000X-0.412500X0.650000X0.412500X-0.650000X0.412500X-0.650000X-0.412500X0*%
%ADD27R,1.400000X4.500000*%
%ADD28R,3.500000X1.600000*%
%ADD29RoundRect,0.102000X0.266700X-0.850900X0.266700X0.850900X-0.266700X0.850900X-0.266700X-0.850900X0*%
%ADD30C,5.000000*%
G04 APERTURE END LIST*
D10*
X71970000Y-54490000D02*
X70471000Y-53024800D01*
X71988000Y-53019400D01*
X71970000Y-54490000D01*
G36*
X71970000Y-54490000D02*
G01*
X70471000Y-53024800D01*
X71988000Y-53019400D01*
X71970000Y-54490000D01*
G37*
D11*
X140611000Y-63693000D02*
X140611000Y-61153000D01*
X143151000Y-61153000D01*
X140611000Y-63693000D01*
D10*
X134110000Y-79220000D02*
X132980000Y-79220000D01*
X134155600Y-77890607D01*
X134110000Y-79220000D01*
G36*
X134110000Y-79220000D02*
G01*
X132980000Y-79220000D01*
X134155600Y-77890607D01*
X134110000Y-79220000D01*
G37*
D11*
X68580000Y-83566000D02*
X67564000Y-82550000D01*
X69596000Y-82550000D01*
X68580000Y-83566000D01*
G36*
X68580000Y-83566000D02*
G01*
X67564000Y-82550000D01*
X69596000Y-82550000D01*
X68580000Y-83566000D01*
G37*
D10*
X132901750Y-55550318D02*
X132921000Y-54271000D01*
X134101000Y-54261000D01*
X132901750Y-55550318D01*
G36*
X132901750Y-55550318D02*
G01*
X132921000Y-54271000D01*
X134101000Y-54261000D01*
X132901750Y-55550318D01*
G37*
D11*
X134155600Y-80430607D02*
X131615600Y-80430607D01*
X134155600Y-77890607D01*
X134155600Y-80430607D01*
X55626000Y-71755000D02*
X54610000Y-70739000D01*
X55626000Y-69723000D01*
X55626000Y-71755000D01*
G36*
X55626000Y-71755000D02*
G01*
X54610000Y-70739000D01*
X55626000Y-69723000D01*
X55626000Y-71755000D01*
G37*
D10*
X141917200Y-62326800D02*
X141920000Y-61160000D01*
X143151000Y-61153000D01*
X141917200Y-62326800D01*
G36*
X141917200Y-62326800D02*
G01*
X141920000Y-61160000D01*
X143151000Y-61153000D01*
X141917200Y-62326800D01*
G37*
X140611000Y-63693000D02*
X140641000Y-62343000D01*
X141821000Y-62333000D01*
X140611000Y-63693000D01*
G36*
X140611000Y-63693000D02*
G01*
X140641000Y-62343000D01*
X141821000Y-62333000D01*
X140611000Y-63693000D01*
G37*
D11*
X69596000Y-59309000D02*
X67564000Y-59309000D01*
X68580000Y-58293000D01*
X69596000Y-59309000D01*
G36*
X69596000Y-59309000D02*
G01*
X67564000Y-59309000D01*
X68580000Y-58293000D01*
X69596000Y-59309000D01*
G37*
D10*
X134170000Y-54200000D02*
X134157950Y-53010318D01*
X135441750Y-53010318D01*
X134170000Y-54200000D01*
G36*
X134170000Y-54200000D02*
G01*
X134157950Y-53010318D01*
X135441750Y-53010318D01*
X134170000Y-54200000D01*
G37*
X132809400Y-80430607D02*
X131615600Y-80430607D01*
X132809400Y-79236807D01*
X132809400Y-80430607D01*
G36*
X132809400Y-80430607D02*
G01*
X131615600Y-80430607D01*
X132809400Y-79236807D01*
X132809400Y-80430607D01*
G37*
D11*
X73011000Y-55564800D02*
X70471000Y-53024800D01*
X73011000Y-53024800D01*
X73011000Y-55564800D01*
X132901750Y-55550318D02*
X132901750Y-53010318D01*
X135441750Y-53010318D01*
X132901750Y-55550318D01*
X82804000Y-70739000D02*
X81788000Y-71755000D01*
X81788000Y-69723000D01*
X82804000Y-70739000D01*
G36*
X82804000Y-70739000D02*
G01*
X81788000Y-71755000D01*
X81788000Y-69723000D01*
X82804000Y-70739000D01*
G37*
D10*
X73011000Y-55564800D02*
X71841000Y-54261000D01*
X72999393Y-54261000D01*
X73011000Y-55564800D01*
G36*
X73011000Y-55564800D02*
G01*
X71841000Y-54261000D01*
X72999393Y-54261000D01*
X73011000Y-55564800D01*
G37*
D12*
G36*
X87950434Y-72376270D02*
G01*
X88535639Y-72310325D01*
X88577527Y-72401427D01*
X88629917Y-72458824D01*
X88723032Y-72494578D01*
X88785744Y-72499369D01*
X88886003Y-72486961D01*
X88951341Y-72455405D01*
X88992862Y-72380178D01*
X88938152Y-72302997D01*
X88842342Y-72274713D01*
X88737073Y-72253928D01*
X88702213Y-72247799D01*
X88598521Y-72229137D01*
X88493260Y-72207886D01*
X88393686Y-72184286D01*
X88292862Y-72153032D01*
X88204603Y-72106515D01*
X88127952Y-72039198D01*
X88096491Y-72001113D01*
X88047375Y-71915888D01*
X88019747Y-71813948D01*
X88015891Y-71754916D01*
X88026165Y-71656386D01*
X88060809Y-71560089D01*
X88102841Y-71495531D01*
X88176984Y-71421433D01*
X88260638Y-71367511D01*
X88340245Y-71333353D01*
X88443962Y-71305275D01*
X88540881Y-71290300D01*
X88650195Y-71281980D01*
X88740315Y-71280108D01*
X88849198Y-71282142D01*
X88957665Y-71289446D01*
X89059327Y-71304014D01*
X89131592Y-71322607D01*
X89228248Y-71364957D01*
X89311038Y-71422947D01*
X89344572Y-71454986D01*
X89405594Y-71533869D01*
X89456101Y-71626334D01*
X89493560Y-71716326D01*
X88930336Y-71749543D01*
X88874931Y-71666516D01*
X88864390Y-71659662D01*
X88771185Y-71628216D01*
X88712960Y-71624002D01*
X88614288Y-71637855D01*
X88585465Y-71653311D01*
X88547363Y-71721699D01*
X88593769Y-71787157D01*
X88693529Y-71814737D01*
X88794820Y-71830070D01*
X88827754Y-71834051D01*
X88928103Y-71846685D01*
X89032589Y-71863725D01*
X89135400Y-71886234D01*
X89229896Y-71915424D01*
X89247852Y-71922467D01*
X89335945Y-71967763D01*
X89414668Y-72030869D01*
X89461808Y-72087575D01*
X89510198Y-72178439D01*
X89533919Y-72276398D01*
X89536547Y-72324002D01*
X89523567Y-72428448D01*
X89488545Y-72522855D01*
X89457900Y-72577038D01*
X89393268Y-72655329D01*
X89316179Y-72716085D01*
X89221630Y-72766918D01*
X89211215Y-72771455D01*
X89107342Y-72806167D01*
X88999311Y-72827485D01*
X88892661Y-72838775D01*
X88792243Y-72842982D01*
X88756923Y-72843263D01*
X88636004Y-72840412D01*
X88526343Y-72831861D01*
X88427940Y-72817610D01*
X88324717Y-72792983D01*
X88224779Y-72753877D01*
X88177579Y-72726515D01*
X88098170Y-72660844D01*
X88033842Y-72580579D01*
X87984597Y-72485722D01*
X87953879Y-72390750D01*
X87950434Y-72376270D01*
G37*
G36*
X90651782Y-71284184D02*
G01*
X90752968Y-71296412D01*
X90869896Y-71323159D01*
X90976211Y-71362643D01*
X91071912Y-71414865D01*
X91156999Y-71479823D01*
X91217426Y-71540960D01*
X91280011Y-71623128D01*
X91329648Y-71712098D01*
X91366336Y-71807868D01*
X91390075Y-71910438D01*
X91400866Y-72019809D01*
X91401585Y-72057778D01*
X91396016Y-72162509D01*
X91379307Y-72261157D01*
X91344554Y-72371508D01*
X91293761Y-72473099D01*
X91226928Y-72565932D01*
X91173462Y-72622956D01*
X91098093Y-72686423D01*
X91014256Y-72739133D01*
X90921952Y-72781086D01*
X90821180Y-72812282D01*
X90711941Y-72832721D01*
X90594235Y-72842402D01*
X90544781Y-72843263D01*
X90436379Y-72838802D01*
X90334656Y-72825421D01*
X90221404Y-72797589D01*
X90117768Y-72756911D01*
X90023750Y-72703388D01*
X89966414Y-72660569D01*
X89887889Y-72586151D01*
X89822673Y-72504864D01*
X89770767Y-72416708D01*
X89732170Y-72321682D01*
X89706882Y-72219787D01*
X89694904Y-72111023D01*
X89693839Y-72065593D01*
X89694077Y-72061197D01*
X90285884Y-72061197D01*
X90291796Y-72162365D01*
X90315078Y-72263766D01*
X90360622Y-72346473D01*
X90438954Y-72411338D01*
X90533815Y-72436489D01*
X90547712Y-72436842D01*
X90645156Y-72417308D01*
X90724998Y-72358704D01*
X90734314Y-72347938D01*
X90782071Y-72256522D01*
X90802240Y-72160638D01*
X90808075Y-72055335D01*
X90802202Y-71956842D01*
X90779071Y-71857766D01*
X90733825Y-71776410D01*
X90656810Y-71711895D01*
X90558334Y-71686616D01*
X90551620Y-71686528D01*
X90452587Y-71706600D01*
X90370728Y-71766814D01*
X90361110Y-71777875D01*
X90312404Y-71868702D01*
X90290585Y-71971499D01*
X90285884Y-72061197D01*
X89694077Y-72061197D01*
X89699456Y-71961671D01*
X89716307Y-71863616D01*
X89751358Y-71753695D01*
X89802586Y-71652224D01*
X89869992Y-71559202D01*
X89923916Y-71501881D01*
X89999715Y-71437991D01*
X90083313Y-71384931D01*
X90174711Y-71342698D01*
X90273908Y-71311295D01*
X90380905Y-71290721D01*
X90495702Y-71280975D01*
X90543804Y-71280108D01*
X90651782Y-71284184D01*
G37*
G36*
X91647782Y-70779899D02*
G01*
X92239826Y-70779899D01*
X92239826Y-72812000D01*
X91647782Y-72812000D01*
X91647782Y-70779899D01*
G37*
G36*
X94127824Y-72812000D02*
G01*
X93573392Y-72812000D01*
X93573392Y-72641030D01*
X93503198Y-72711466D01*
X93418397Y-72771501D01*
X93395095Y-72783667D01*
X93298123Y-72819983D01*
X93193320Y-72839538D01*
X93119101Y-72843263D01*
X93009346Y-72835071D01*
X92909792Y-72810496D01*
X92820439Y-72769537D01*
X92741288Y-72712196D01*
X92672337Y-72638471D01*
X92651620Y-72610255D01*
X92597003Y-72519442D01*
X92553686Y-72421760D01*
X92521669Y-72317209D01*
X92500953Y-72205789D01*
X92492321Y-72107691D01*
X92491360Y-72066082D01*
X93080999Y-72066082D01*
X93086061Y-72167490D01*
X93105996Y-72268345D01*
X93144990Y-72349404D01*
X93221359Y-72417630D01*
X93301794Y-72436842D01*
X93398193Y-72411889D01*
X93468368Y-72348427D01*
X93512330Y-72256682D01*
X93530897Y-72159557D01*
X93536267Y-72052404D01*
X93529541Y-71945014D01*
X93506605Y-71848923D01*
X93467391Y-71775921D01*
X93389844Y-71708877D01*
X93294956Y-71686528D01*
X93198037Y-71716665D01*
X93143036Y-71772013D01*
X93102870Y-71861786D01*
X93085906Y-71958491D01*
X93080999Y-72066082D01*
X92491360Y-72066082D01*
X92490908Y-72046542D01*
X92495249Y-71935042D01*
X92508272Y-71831962D01*
X92535360Y-71719379D01*
X92574951Y-71618921D01*
X92627043Y-71530587D01*
X92668717Y-71478434D01*
X92751327Y-71401156D01*
X92843146Y-71342860D01*
X92944176Y-71303543D01*
X93054414Y-71283207D01*
X93121543Y-71280108D01*
X93226181Y-71286800D01*
X93322595Y-71306874D01*
X93364321Y-71320653D01*
X93455389Y-71361747D01*
X93531871Y-71416884D01*
X93531871Y-70779899D01*
X94127824Y-70779899D01*
X94127824Y-72812000D01*
G37*
G36*
X95310879Y-71283423D02*
G01*
X95415854Y-71293366D01*
X95526603Y-71313345D01*
X95624731Y-71342346D01*
X95698794Y-71374386D01*
X95785836Y-71426593D01*
X95861826Y-71489424D01*
X95926764Y-71562881D01*
X95980650Y-71646961D01*
X96023179Y-71742918D01*
X96050424Y-71837649D01*
X96068366Y-71942432D01*
X96076340Y-72040246D01*
X96077859Y-72109557D01*
X96077859Y-72186738D01*
X94958738Y-72186738D01*
X94983951Y-72285992D01*
X95025660Y-72351357D01*
X95107513Y-72412716D01*
X95202695Y-72436091D01*
X95225451Y-72436842D01*
X95325098Y-72421064D01*
X95374439Y-72400206D01*
X95452528Y-72334198D01*
X95473113Y-72310813D01*
X96055388Y-72377247D01*
X96001487Y-72468558D01*
X95944563Y-72549049D01*
X95874332Y-72629282D01*
X95799987Y-72694788D01*
X95732988Y-72739215D01*
X95632176Y-72784736D01*
X95528038Y-72813898D01*
X95426945Y-72830968D01*
X95314929Y-72840722D01*
X95213239Y-72843263D01*
X95107657Y-72840326D01*
X94995418Y-72829477D01*
X94894960Y-72810633D01*
X94794576Y-72779309D01*
X94750154Y-72759732D01*
X94659132Y-72704665D01*
X94577305Y-72633988D01*
X94512291Y-72558059D01*
X94468298Y-72493018D01*
X94419572Y-72397733D01*
X94384767Y-72294571D01*
X94365733Y-72197843D01*
X94357358Y-72095084D01*
X94356923Y-72064616D01*
X94362386Y-71958280D01*
X94376206Y-71874107D01*
X94960692Y-71874107D01*
X95475556Y-71874107D01*
X95441295Y-71779908D01*
X95396421Y-71733912D01*
X95302675Y-71694349D01*
X95220078Y-71686528D01*
X95118858Y-71700366D01*
X95032405Y-71745904D01*
X95017845Y-71758824D01*
X94966933Y-71844381D01*
X94960692Y-71874107D01*
X94376206Y-71874107D01*
X94378772Y-71858479D01*
X94412855Y-71747345D01*
X94462669Y-71645622D01*
X94528214Y-71553309D01*
X94580650Y-71496996D01*
X94670472Y-71423288D01*
X94772144Y-71364830D01*
X94865922Y-71327764D01*
X94967929Y-71301289D01*
X95078165Y-71285403D01*
X95196630Y-71280108D01*
X95310879Y-71283423D01*
G37*
G36*
X96298166Y-71311371D02*
G01*
X96853085Y-71311371D01*
X96853085Y-71501392D01*
X96905800Y-71417150D01*
X96979302Y-71345511D01*
X96984488Y-71341658D01*
X97071843Y-71297479D01*
X97168868Y-71280649D01*
X97191606Y-71280108D01*
X97292242Y-71291924D01*
X97393301Y-71323513D01*
X97482255Y-71364128D01*
X97297607Y-71795461D01*
X97201498Y-71760656D01*
X97132988Y-71749055D01*
X97037991Y-71772905D01*
X96975695Y-71833563D01*
X96931388Y-71932910D01*
X96910137Y-72028396D01*
X96898322Y-72127246D01*
X96892414Y-72241792D01*
X96891676Y-72304951D01*
X96891676Y-72812000D01*
X96298166Y-72812000D01*
X96298166Y-71311371D01*
G37*
G36*
X97595584Y-71311371D02*
G01*
X98224265Y-71311371D01*
X98224265Y-71905370D01*
X97595584Y-71905370D01*
X97595584Y-71311371D01*
G37*
G36*
X97595584Y-72218001D02*
G01*
X98224265Y-72218001D01*
X98224265Y-72812000D01*
X97595584Y-72812000D01*
X97595584Y-72218001D01*
G37*
G36*
X99183651Y-71417373D02*
G01*
X99266306Y-71358880D01*
X99352178Y-71320653D01*
X99452316Y-71292937D01*
X99553170Y-71281098D01*
X99593979Y-71280108D01*
X99693063Y-71287046D01*
X99800283Y-71312679D01*
X99898481Y-71357198D01*
X99987656Y-71420603D01*
X100045828Y-71477457D01*
X100106587Y-71557404D01*
X100154775Y-71649236D01*
X100190393Y-71752951D01*
X100213439Y-71868550D01*
X100223042Y-71973961D01*
X100224614Y-72041169D01*
X100220710Y-72144886D01*
X100208999Y-72243181D01*
X100186056Y-72348877D01*
X100152915Y-72447490D01*
X100143036Y-72471036D01*
X100098493Y-72558475D01*
X100038820Y-72642831D01*
X99969023Y-72712348D01*
X99916868Y-72750450D01*
X99823445Y-72799394D01*
X99723916Y-72830211D01*
X99618281Y-72842900D01*
X99596421Y-72843263D01*
X99495928Y-72836221D01*
X99393014Y-72812476D01*
X99320427Y-72783667D01*
X99233809Y-72728970D01*
X99157807Y-72658552D01*
X99142129Y-72641030D01*
X99142129Y-72812000D01*
X98587698Y-72812000D01*
X98587698Y-72052404D01*
X99179254Y-72052404D01*
X99184548Y-72158887D01*
X99202847Y-72255631D01*
X99246177Y-72347450D01*
X99321526Y-72414494D01*
X99413727Y-72436842D01*
X99508627Y-72409176D01*
X99570043Y-72349404D01*
X99611791Y-72257002D01*
X99629422Y-72157396D01*
X99634523Y-72046542D01*
X99629538Y-71948397D01*
X99609908Y-71850690D01*
X99571508Y-71772013D01*
X99498181Y-71705312D01*
X99422032Y-71686528D01*
X99325067Y-71708877D01*
X99247154Y-71775921D01*
X99203191Y-71864677D01*
X99183498Y-71964965D01*
X99179254Y-72052404D01*
X98587698Y-72052404D01*
X98587698Y-70779899D01*
X99183651Y-70779899D01*
X99183651Y-71417373D01*
G37*
G36*
X100471299Y-70779899D02*
G01*
X101061878Y-70779899D01*
X101061878Y-71186319D01*
X100471299Y-71186319D01*
X100471299Y-70779899D01*
G37*
G36*
X100471299Y-71311371D02*
G01*
X101061878Y-71311371D01*
X101061878Y-72812000D01*
X100471299Y-72812000D01*
X100471299Y-71311371D01*
G37*
G36*
X102088675Y-70770618D02*
G01*
X102088675Y-71311371D01*
X102396421Y-71311371D01*
X102396421Y-71749055D01*
X102088675Y-71749055D01*
X102088675Y-72274665D01*
X102097003Y-72374970D01*
X102104795Y-72395810D01*
X102187349Y-72436842D01*
X102287756Y-72420242D01*
X102373462Y-72394344D01*
X102418403Y-72796856D01*
X102309409Y-72817159D01*
X102205667Y-72831661D01*
X102107176Y-72840362D01*
X102013937Y-72843263D01*
X101914316Y-72839752D01*
X101809110Y-72825488D01*
X101711200Y-72793889D01*
X101697886Y-72787087D01*
X101617985Y-72726806D01*
X101558653Y-72644273D01*
X101545479Y-72616605D01*
X101517668Y-72521974D01*
X101503500Y-72420677D01*
X101497394Y-72312599D01*
X101496630Y-72252195D01*
X101496630Y-71749055D01*
X101290978Y-71749055D01*
X101290978Y-71311371D01*
X101496630Y-71311371D01*
X101496630Y-71060778D01*
X102088675Y-70770618D01*
G37*
G36*
X104609261Y-72155475D02*
G01*
X104609261Y-71655265D01*
X105601864Y-71655265D01*
X105601864Y-72490576D01*
X105514714Y-72551892D01*
X105430951Y-72606696D01*
X105334907Y-72663866D01*
X105243739Y-72711660D01*
X105143541Y-72755567D01*
X105102632Y-72770478D01*
X105005002Y-72798839D01*
X104899752Y-72820233D01*
X104786882Y-72834662D01*
X104684071Y-72841486D01*
X104594118Y-72843263D01*
X104484082Y-72840257D01*
X104380511Y-72831241D01*
X104283403Y-72816215D01*
X104175405Y-72790249D01*
X104076716Y-72755627D01*
X104001585Y-72720164D01*
X103906072Y-72660558D01*
X103820424Y-72589452D01*
X103744639Y-72506846D01*
X103687532Y-72426887D01*
X103645479Y-72353800D01*
X103602649Y-72259919D01*
X103568680Y-72161092D01*
X103543572Y-72057320D01*
X103527326Y-71948601D01*
X103519942Y-71834937D01*
X103519450Y-71795949D01*
X103522825Y-71694679D01*
X103535785Y-71578633D01*
X103558465Y-71468564D01*
X103590865Y-71364470D01*
X103632986Y-71266353D01*
X103657691Y-71219536D01*
X103714048Y-71131569D01*
X103779438Y-71051947D01*
X103853862Y-70980672D01*
X103937319Y-70917744D01*
X104029808Y-70863161D01*
X104062646Y-70846822D01*
X104160466Y-70808564D01*
X104255102Y-70783250D01*
X104359699Y-70764840D01*
X104474257Y-70753334D01*
X104577330Y-70749019D01*
X104620496Y-70748636D01*
X104721571Y-70750186D01*
X104832030Y-70756140D01*
X104930673Y-70766558D01*
X105030824Y-70784356D01*
X105125591Y-70812139D01*
X105216103Y-70853462D01*
X105305976Y-70912520D01*
X105384592Y-70985411D01*
X105405981Y-71009976D01*
X105464847Y-71092180D01*
X105515599Y-71188218D01*
X105553899Y-71285197D01*
X105578417Y-71365105D01*
X104948270Y-71469641D01*
X104904713Y-71381885D01*
X104834096Y-71309528D01*
X104823706Y-71302579D01*
X104727475Y-71262279D01*
X104623236Y-71249055D01*
X104606819Y-71248845D01*
X104501911Y-71259008D01*
X104400302Y-71294137D01*
X104314436Y-71354358D01*
X104291745Y-71377317D01*
X104235074Y-71461793D01*
X104200269Y-71557383D01*
X104181836Y-71656853D01*
X104174623Y-71771096D01*
X104174509Y-71788622D01*
X104178682Y-71895348D01*
X104194099Y-72004409D01*
X104225630Y-72108670D01*
X104278837Y-72199980D01*
X104293211Y-72216535D01*
X104376607Y-72283254D01*
X104467406Y-72322173D01*
X104573121Y-72341076D01*
X104624893Y-72343053D01*
X104725154Y-72338046D01*
X104820775Y-72323025D01*
X104918839Y-72296403D01*
X105011657Y-72263090D01*
X105025451Y-72257568D01*
X105025451Y-72155475D01*
X104609261Y-72155475D01*
G37*
G36*
X106741528Y-71281487D02*
G01*
X106851254Y-71286441D01*
X106948768Y-71294997D01*
X107043874Y-71308929D01*
X107144944Y-71336305D01*
X107233893Y-71378803D01*
X107304237Y-71430562D01*
X107370549Y-71508231D01*
X107415549Y-71597830D01*
X107420985Y-71612279D01*
X107450036Y-71712804D01*
X107463110Y-71815944D01*
X107463483Y-71836005D01*
X107463483Y-72484226D01*
X107467347Y-72584707D01*
X107475695Y-72642983D01*
X107507790Y-72735567D01*
X107542618Y-72812000D01*
X106983790Y-72812000D01*
X106939765Y-72722668D01*
X106936896Y-72714302D01*
X106921752Y-72647380D01*
X106844860Y-72711497D01*
X106761035Y-72762554D01*
X106720008Y-72781713D01*
X106620689Y-72814171D01*
X106523307Y-72833105D01*
X106418353Y-72842301D01*
X106369275Y-72843263D01*
X106258452Y-72837512D01*
X106159783Y-72820262D01*
X106061903Y-72786465D01*
X105970764Y-72730488D01*
X105961878Y-72723095D01*
X105894108Y-72650667D01*
X105844820Y-72559495D01*
X105822915Y-72457066D01*
X105821683Y-72424142D01*
X105826202Y-72379690D01*
X106413727Y-72379690D01*
X106454272Y-72465663D01*
X106549328Y-72498184D01*
X106579324Y-72499369D01*
X106681001Y-72485592D01*
X106745409Y-72460290D01*
X106826503Y-72402056D01*
X106853364Y-72366012D01*
X106882604Y-72268494D01*
X106885116Y-72220443D01*
X106885116Y-72161337D01*
X106789053Y-72189758D01*
X106687192Y-72215511D01*
X106663832Y-72220932D01*
X106564032Y-72248124D01*
X106471418Y-72286439D01*
X106455249Y-72298113D01*
X106413727Y-72379690D01*
X105826202Y-72379690D01*
X105831653Y-72326063D01*
X105865651Y-72231400D01*
X105923776Y-72150590D01*
X106002983Y-72089424D01*
X106102168Y-72043593D01*
X106197584Y-72013984D01*
X106292094Y-71992809D01*
X106402084Y-71971199D01*
X106510697Y-71949244D01*
X106608836Y-71928445D01*
X106698515Y-71907324D01*
X106797403Y-71878340D01*
X106885116Y-71847729D01*
X106865433Y-71748477D01*
X106847014Y-71723653D01*
X106754874Y-71688849D01*
X106708284Y-71686528D01*
X106605355Y-71695130D01*
X106510936Y-71731469D01*
X106450003Y-71814273D01*
X106426428Y-71875572D01*
X105862715Y-71809627D01*
X105886472Y-71708133D01*
X105918114Y-71615222D01*
X105955528Y-71541937D01*
X106021860Y-71460857D01*
X106104299Y-71395060D01*
X106124544Y-71382202D01*
X106218089Y-71338605D01*
X106315316Y-71311634D01*
X106340454Y-71306487D01*
X106437248Y-71291469D01*
X106538890Y-71282684D01*
X106635500Y-71280108D01*
X106741528Y-71281487D01*
G37*
G36*
X107760482Y-71311371D02*
G01*
X108313937Y-71311371D01*
X108313937Y-71499927D01*
X108383775Y-71428646D01*
X108462131Y-71370142D01*
X108519101Y-71338238D01*
X108614126Y-71302815D01*
X108713061Y-71284707D01*
X108802422Y-71280108D01*
X108907218Y-71286405D01*
X109005743Y-71307878D01*
X109086721Y-71344588D01*
X109169601Y-71408903D01*
X109233595Y-71489860D01*
X109248410Y-71516047D01*
X109322141Y-71442583D01*
X109401481Y-71378964D01*
X109478975Y-71333353D01*
X109578248Y-71298879D01*
X109675346Y-71283436D01*
X109753504Y-71280108D01*
X109854243Y-71287051D01*
X109957008Y-71311986D01*
X110046584Y-71355057D01*
X110122971Y-71416263D01*
X110131592Y-71425189D01*
X110191218Y-71507498D01*
X110233808Y-71609836D01*
X110257099Y-71715811D01*
X110266682Y-71818851D01*
X110267879Y-71874595D01*
X110267879Y-72812000D01*
X109675835Y-72812000D01*
X109675835Y-71958127D01*
X109662096Y-71859323D01*
X109640664Y-71818908D01*
X109562185Y-71757309D01*
X109512681Y-71749055D01*
X109416433Y-71772820D01*
X109364669Y-71816466D01*
X109322538Y-71905004D01*
X109308987Y-72008773D01*
X109308494Y-72036773D01*
X109308494Y-72812000D01*
X108716937Y-72812000D01*
X108716937Y-71987924D01*
X108712320Y-71887615D01*
X108707168Y-71861406D01*
X108650503Y-71779829D01*
X108556714Y-71749055D01*
X108457796Y-71775769D01*
X108410168Y-71817443D01*
X108366937Y-71909034D01*
X108353428Y-72008181D01*
X108352527Y-72047031D01*
X108352527Y-72812000D01*
X107760482Y-72812000D01*
X107760482Y-71311371D01*
G37*
G36*
X111440676Y-71283423D02*
G01*
X111545651Y-71293366D01*
X111656401Y-71313345D01*
X111754528Y-71342346D01*
X111828591Y-71374386D01*
X111915633Y-71426593D01*
X111991623Y-71489424D01*
X112056561Y-71562881D01*
X112110448Y-71646961D01*
X112152976Y-71742918D01*
X112180221Y-71837649D01*
X112198163Y-71942432D01*
X112206137Y-72040246D01*
X112207656Y-72109557D01*
X112207656Y-72186738D01*
X111088535Y-72186738D01*
X111113748Y-72285992D01*
X111155458Y-72351357D01*
X111237310Y-72412716D01*
X111332493Y-72436091D01*
X111355249Y-72436842D01*
X111454895Y-72421064D01*
X111504237Y-72400206D01*
X111582326Y-72334198D01*
X111602911Y-72310813D01*
X112185186Y-72377247D01*
X112131284Y-72468558D01*
X112074361Y-72549049D01*
X112004129Y-72629282D01*
X111929784Y-72694788D01*
X111862785Y-72739215D01*
X111761974Y-72784736D01*
X111657836Y-72813898D01*
X111556742Y-72830968D01*
X111444726Y-72840722D01*
X111343036Y-72843263D01*
X111237455Y-72840326D01*
X111125216Y-72829477D01*
X111024758Y-72810633D01*
X110924374Y-72779309D01*
X110879952Y-72759732D01*
X110788929Y-72704665D01*
X110707103Y-72633988D01*
X110642088Y-72558059D01*
X110598096Y-72493018D01*
X110549369Y-72397733D01*
X110514565Y-72294571D01*
X110495531Y-72197843D01*
X110487156Y-72095084D01*
X110486721Y-72064616D01*
X110492183Y-71958280D01*
X110506003Y-71874107D01*
X111090489Y-71874107D01*
X111605353Y-71874107D01*
X111571093Y-71779908D01*
X111526219Y-71733912D01*
X111432473Y-71694349D01*
X111349875Y-71686528D01*
X111248656Y-71700366D01*
X111162202Y-71745904D01*
X111147642Y-71758824D01*
X111096730Y-71844381D01*
X111090489Y-71874107D01*
X110506003Y-71874107D01*
X110508569Y-71858479D01*
X110542653Y-71747345D01*
X110592467Y-71645622D01*
X110658012Y-71553309D01*
X110710448Y-71496996D01*
X110800270Y-71423288D01*
X110901942Y-71364830D01*
X110995720Y-71327764D01*
X111097727Y-71301289D01*
X111207963Y-71285403D01*
X111326428Y-71280108D01*
X111440676Y-71283423D01*
G37*
G36*
X113542258Y-71288214D02*
G01*
X113640621Y-71312532D01*
X113743180Y-71361392D01*
X113832602Y-71432317D01*
X113898794Y-71510674D01*
X113954407Y-71600679D01*
X113998513Y-71698138D01*
X114031114Y-71803049D01*
X114052209Y-71915415D01*
X114060998Y-72014746D01*
X114062436Y-72076829D01*
X114058071Y-72188739D01*
X114044977Y-72292134D01*
X114017740Y-72404969D01*
X113977932Y-72505542D01*
X113925553Y-72593852D01*
X113883651Y-72645914D01*
X113800920Y-72722811D01*
X113709168Y-72780820D01*
X113608392Y-72819943D01*
X113498594Y-72840179D01*
X113431801Y-72843263D01*
X113328032Y-72836571D01*
X113231841Y-72816497D01*
X113190001Y-72802718D01*
X113098718Y-72761381D01*
X113021473Y-72706487D01*
X113021473Y-73374735D01*
X112425521Y-73374735D01*
X112425521Y-72069990D01*
X113017077Y-72069990D01*
X113022525Y-72168406D01*
X113043982Y-72267178D01*
X113085953Y-72347938D01*
X113163501Y-72414616D01*
X113258389Y-72436842D01*
X113355307Y-72407050D01*
X113410308Y-72352334D01*
X113450475Y-72262475D01*
X113467438Y-72165045D01*
X113472346Y-72056312D01*
X113467207Y-71955848D01*
X113446967Y-71855728D01*
X113407377Y-71774944D01*
X113331284Y-71705956D01*
X113251550Y-71686528D01*
X113155013Y-71711620D01*
X113084488Y-71775433D01*
X113040842Y-71866936D01*
X113022409Y-71963545D01*
X113017077Y-72069990D01*
X112425521Y-72069990D01*
X112425521Y-71311371D01*
X112979952Y-71311371D01*
X112979952Y-71481853D01*
X113049198Y-71412365D01*
X113133504Y-71352824D01*
X113156784Y-71340681D01*
X113254649Y-71303769D01*
X113350876Y-71284900D01*
X113434244Y-71280108D01*
X113542258Y-71288214D01*
G37*
G36*
X115139574Y-71281487D02*
G01*
X115249300Y-71286441D01*
X115346814Y-71294997D01*
X115441920Y-71308929D01*
X115542990Y-71336305D01*
X115631939Y-71378803D01*
X115702283Y-71430562D01*
X115768595Y-71508231D01*
X115813595Y-71597830D01*
X115819031Y-71612279D01*
X115848082Y-71712804D01*
X115861156Y-71815944D01*
X115861529Y-71836005D01*
X115861529Y-72484226D01*
X115865393Y-72584707D01*
X115873741Y-72642983D01*
X115905836Y-72735567D01*
X115940664Y-72812000D01*
X115381836Y-72812000D01*
X115337811Y-72722668D01*
X115334942Y-72714302D01*
X115319799Y-72647380D01*
X115242906Y-72711497D01*
X115159081Y-72762554D01*
X115118054Y-72781713D01*
X115018735Y-72814171D01*
X114921354Y-72833105D01*
X114816399Y-72842301D01*
X114767321Y-72843263D01*
X114656498Y-72837512D01*
X114557830Y-72820262D01*
X114459949Y-72786465D01*
X114368810Y-72730488D01*
X114359924Y-72723095D01*
X114292154Y-72650667D01*
X114242866Y-72559495D01*
X114220961Y-72457066D01*
X114219729Y-72424142D01*
X114224248Y-72379690D01*
X114811773Y-72379690D01*
X114852318Y-72465663D01*
X114947374Y-72498184D01*
X114977370Y-72499369D01*
X115079047Y-72485592D01*
X115143455Y-72460290D01*
X115224549Y-72402056D01*
X115251411Y-72366012D01*
X115280650Y-72268494D01*
X115283162Y-72220443D01*
X115283162Y-72161337D01*
X115187099Y-72189758D01*
X115085238Y-72215511D01*
X115061878Y-72220932D01*
X114962078Y-72248124D01*
X114869464Y-72286439D01*
X114853295Y-72298113D01*
X114811773Y-72379690D01*
X114224248Y-72379690D01*
X114229699Y-72326063D01*
X114263697Y-72231400D01*
X114321822Y-72150590D01*
X114401029Y-72089424D01*
X114500214Y-72043593D01*
X114595630Y-72013984D01*
X114690140Y-71992809D01*
X114800130Y-71971199D01*
X114908743Y-71949244D01*
X115006882Y-71928445D01*
X115096561Y-71907324D01*
X115195449Y-71878340D01*
X115283162Y-71847729D01*
X115263479Y-71748477D01*
X115245060Y-71723653D01*
X115152920Y-71688849D01*
X115106330Y-71686528D01*
X115003401Y-71695130D01*
X114908982Y-71731469D01*
X114848049Y-71814273D01*
X114824474Y-71875572D01*
X114260762Y-71809627D01*
X114284518Y-71708133D01*
X114316160Y-71615222D01*
X114353574Y-71541937D01*
X114419906Y-71460857D01*
X114502345Y-71395060D01*
X114522590Y-71382202D01*
X114616135Y-71338605D01*
X114713362Y-71311634D01*
X114738501Y-71306487D01*
X114835294Y-71291469D01*
X114936936Y-71282684D01*
X115033546Y-71280108D01*
X115139574Y-71281487D01*
G37*
G36*
X117721683Y-72812000D02*
G01*
X117167251Y-72812000D01*
X117167251Y-72641030D01*
X117097057Y-72711466D01*
X117012256Y-72771501D01*
X116988954Y-72783667D01*
X116891982Y-72819983D01*
X116787179Y-72839538D01*
X116712960Y-72843263D01*
X116603205Y-72835071D01*
X116503651Y-72810496D01*
X116414298Y-72769537D01*
X116335147Y-72712196D01*
X116266196Y-72638471D01*
X116245479Y-72610255D01*
X116190862Y-72519442D01*
X116147545Y-72421760D01*
X116115528Y-72317209D01*
X116094812Y-72205789D01*
X116086180Y-72107691D01*
X116085219Y-72066082D01*
X116674858Y-72066082D01*
X116679920Y-72167490D01*
X116699855Y-72268345D01*
X116738849Y-72349404D01*
X116815218Y-72417630D01*
X116895653Y-72436842D01*
X116992052Y-72411889D01*
X117062227Y-72348427D01*
X117106189Y-72256682D01*
X117124756Y-72159557D01*
X117130127Y-72052404D01*
X117123400Y-71945014D01*
X117100464Y-71848923D01*
X117061250Y-71775921D01*
X116983703Y-71708877D01*
X116888815Y-71686528D01*
X116791896Y-71716665D01*
X116736896Y-71772013D01*
X116696729Y-71861786D01*
X116679765Y-71958491D01*
X116674858Y-72066082D01*
X116085219Y-72066082D01*
X116084767Y-72046542D01*
X116089108Y-71935042D01*
X116102131Y-71831962D01*
X116129219Y-71719379D01*
X116168810Y-71618921D01*
X116220902Y-71530587D01*
X116262576Y-71478434D01*
X116345186Y-71401156D01*
X116437005Y-71342860D01*
X116538035Y-71303543D01*
X116648274Y-71283207D01*
X116715402Y-71280108D01*
X116820040Y-71286800D01*
X116916454Y-71306874D01*
X116958180Y-71320653D01*
X117049248Y-71361747D01*
X117125730Y-71416884D01*
X117125730Y-70779899D01*
X117721683Y-70779899D01*
X117721683Y-72812000D01*
G37*
D13*
G36*
X143557639Y-83523000D02*
G01*
X143263571Y-82788317D01*
X143466293Y-82788317D01*
X143603557Y-83163230D01*
X143643369Y-83288526D01*
X143658634Y-83241586D01*
X143663397Y-83225512D01*
X143678509Y-83178846D01*
X143683913Y-83163230D01*
X143822643Y-82788317D01*
X144021212Y-82788317D01*
X143731296Y-83523000D01*
X143557639Y-83523000D01*
G37*
G36*
X144588344Y-83523000D02*
G01*
X144395392Y-83523000D01*
X144395392Y-82787829D01*
X144354403Y-82825638D01*
X144310751Y-82859567D01*
X144264437Y-82889615D01*
X144215462Y-82915781D01*
X144163824Y-82938067D01*
X144146020Y-82944632D01*
X144146020Y-82757054D01*
X144194478Y-82737696D01*
X144240292Y-82713013D01*
X144282767Y-82685299D01*
X144310152Y-82665219D01*
X144351001Y-82629864D01*
X144384890Y-82591702D01*
X144411818Y-82550730D01*
X144431785Y-82506949D01*
X144588344Y-82506949D01*
X144588344Y-83523000D01*
G37*
G36*
X144914164Y-83523000D02*
G01*
X144914164Y-83335421D01*
X145107360Y-83335421D01*
X145107360Y-83523000D01*
X144914164Y-83523000D01*
G37*
G36*
X145827144Y-83147842D02*
G01*
X145952196Y-83147842D01*
X145952196Y-83319789D01*
X145827144Y-83319789D01*
X145827144Y-83523000D01*
X145640298Y-83523000D01*
X145640298Y-83319789D01*
X145228260Y-83319789D01*
X145228260Y-83148575D01*
X145228772Y-83147842D01*
X145409000Y-83147842D01*
X145640298Y-83147842D01*
X145640298Y-82816649D01*
X145409000Y-83147842D01*
X145228772Y-83147842D01*
X145665211Y-82522581D01*
X145827144Y-82522581D01*
X145827144Y-83147842D01*
G37*
D10*
G36*
X133482889Y-53389717D02*
G01*
X133535330Y-53394632D01*
X133583400Y-53412812D01*
X133603484Y-53435082D01*
X133614419Y-53479637D01*
X133613732Y-53490451D01*
X133594879Y-53531954D01*
X133588493Y-53538611D01*
X133544321Y-53560091D01*
X133513104Y-53566041D01*
X133461767Y-53572401D01*
X133330609Y-53572401D01*
X133330609Y-53389512D01*
X133467385Y-53389512D01*
X133482889Y-53389717D01*
G37*
G36*
X134108627Y-54207000D02*
G01*
X132918222Y-54207000D01*
X132918222Y-53206623D01*
X133018222Y-53206623D01*
X133018222Y-53389512D01*
X133018222Y-54107000D01*
X133330609Y-54107000D01*
X133330609Y-53741221D01*
X133358208Y-53741221D01*
X133388845Y-53744158D01*
X133434412Y-53762104D01*
X133464405Y-53791981D01*
X133490832Y-53831567D01*
X133656917Y-54107000D01*
X134008627Y-54107000D01*
X133858173Y-53848273D01*
X133844395Y-53827572D01*
X133814454Y-53791560D01*
X133799173Y-53774689D01*
X133764872Y-53743200D01*
X133731900Y-53726439D01*
X133683784Y-53709568D01*
X133696530Y-53706864D01*
X133745760Y-53693631D01*
X133792960Y-53673957D01*
X133822544Y-53655753D01*
X133860623Y-53623656D01*
X133891146Y-53585810D01*
X133911587Y-53546040D01*
X133923544Y-53501387D01*
X133927050Y-53456556D01*
X133926638Y-53440671D01*
X133920455Y-53395773D01*
X133904885Y-53350740D01*
X133880155Y-53310817D01*
X133848113Y-53277024D01*
X133806199Y-53248430D01*
X133757301Y-53228824D01*
X133747509Y-53226136D01*
X133696859Y-53216184D01*
X133642786Y-53210287D01*
X133588484Y-53207403D01*
X133536750Y-53206623D01*
X133018222Y-53206623D01*
X132918222Y-53206623D01*
X132918222Y-53106623D01*
X134108627Y-53106623D01*
X134108627Y-54207000D01*
G37*
G36*
X134107138Y-80353000D02*
G01*
X132811953Y-80353000D01*
X132811953Y-80253000D01*
X132911953Y-80253000D01*
X133259755Y-80253000D01*
X133458813Y-79963718D01*
X133657383Y-80253000D01*
X134007138Y-80253000D01*
X133664221Y-79788743D01*
X133977585Y-79352623D01*
X133638087Y-79352623D01*
X133465163Y-79629594D01*
X133286378Y-79352623D01*
X132943705Y-79352623D01*
X133259755Y-79783687D01*
X132911953Y-80253000D01*
X132811953Y-80253000D01*
X132811953Y-79252623D01*
X134107138Y-79252623D01*
X134107138Y-80353000D01*
G37*
G36*
X72959790Y-54217000D02*
G01*
X71963070Y-54217000D01*
X71963070Y-53216623D01*
X72063070Y-53216623D01*
X72063070Y-54117000D01*
X72859790Y-54117000D01*
X72859790Y-53891905D01*
X72374235Y-53891905D01*
X72374235Y-53216623D01*
X72063070Y-53216623D01*
X71963070Y-53216623D01*
X71963070Y-53116623D01*
X72959790Y-53116623D01*
X72959790Y-54217000D01*
G37*
G36*
X141906138Y-62345000D02*
G01*
X140610465Y-62345000D01*
X140610465Y-61344623D01*
X140710465Y-61344623D01*
X141102719Y-61867791D01*
X141102719Y-62245000D01*
X141414373Y-62245000D01*
X141414373Y-61867791D01*
X141806138Y-61344623D01*
X141462489Y-61344623D01*
X141259279Y-61642916D01*
X141055824Y-61344623D01*
X140710465Y-61344623D01*
X140610465Y-61344623D01*
X140610465Y-61244623D01*
X141906138Y-61244623D01*
X141906138Y-62345000D01*
G37*
X115400833Y-68685580D02*
X115367500Y-68733200D01*
X115367500Y-68733200D02*
X115267500Y-68780819D01*
X115267500Y-68780819D02*
X115200833Y-68780819D01*
X115200833Y-68780819D02*
X115100833Y-68733200D01*
X115100833Y-68733200D02*
X115034167Y-68637961D01*
X115034167Y-68637961D02*
X115000833Y-68542723D01*
X115000833Y-68542723D02*
X114967500Y-68352247D01*
X114967500Y-68352247D02*
X114967500Y-68209390D01*
X114967500Y-68209390D02*
X115000833Y-68018914D01*
X115000833Y-68018914D02*
X115034167Y-67923676D01*
X115034167Y-67923676D02*
X115100833Y-67828438D01*
X115100833Y-67828438D02*
X115200833Y-67780819D01*
X115200833Y-67780819D02*
X115267500Y-67780819D01*
X115267500Y-67780819D02*
X115367500Y-67828438D01*
X115367500Y-67828438D02*
X115400833Y-67876057D01*
X116000833Y-67780819D02*
X115867500Y-67780819D01*
X115867500Y-67780819D02*
X115800833Y-67828438D01*
X115800833Y-67828438D02*
X115767500Y-67876057D01*
X115767500Y-67876057D02*
X115700833Y-68018914D01*
X115700833Y-68018914D02*
X115667500Y-68209390D01*
X115667500Y-68209390D02*
X115667500Y-68590342D01*
X115667500Y-68590342D02*
X115700833Y-68685580D01*
X115700833Y-68685580D02*
X115734167Y-68733200D01*
X115734167Y-68733200D02*
X115800833Y-68780819D01*
X115800833Y-68780819D02*
X115934167Y-68780819D01*
X115934167Y-68780819D02*
X116000833Y-68733200D01*
X116000833Y-68733200D02*
X116034167Y-68685580D01*
X116034167Y-68685580D02*
X116067500Y-68590342D01*
X116067500Y-68590342D02*
X116067500Y-68352247D01*
X116067500Y-68352247D02*
X116034167Y-68257009D01*
X116034167Y-68257009D02*
X116000833Y-68209390D01*
X116000833Y-68209390D02*
X115934167Y-68161771D01*
X115934167Y-68161771D02*
X115800833Y-68161771D01*
X115800833Y-68161771D02*
X115734167Y-68209390D01*
X115734167Y-68209390D02*
X115700833Y-68257009D01*
X115700833Y-68257009D02*
X115667500Y-68352247D01*
X109050833Y-68685580D02*
X109017500Y-68733200D01*
X109017500Y-68733200D02*
X108917500Y-68780819D01*
X108917500Y-68780819D02*
X108850833Y-68780819D01*
X108850833Y-68780819D02*
X108750833Y-68733200D01*
X108750833Y-68733200D02*
X108684167Y-68637961D01*
X108684167Y-68637961D02*
X108650833Y-68542723D01*
X108650833Y-68542723D02*
X108617500Y-68352247D01*
X108617500Y-68352247D02*
X108617500Y-68209390D01*
X108617500Y-68209390D02*
X108650833Y-68018914D01*
X108650833Y-68018914D02*
X108684167Y-67923676D01*
X108684167Y-67923676D02*
X108750833Y-67828438D01*
X108750833Y-67828438D02*
X108850833Y-67780819D01*
X108850833Y-67780819D02*
X108917500Y-67780819D01*
X108917500Y-67780819D02*
X109017500Y-67828438D01*
X109017500Y-67828438D02*
X109050833Y-67876057D01*
X109684167Y-67780819D02*
X109350833Y-67780819D01*
X109350833Y-67780819D02*
X109317500Y-68257009D01*
X109317500Y-68257009D02*
X109350833Y-68209390D01*
X109350833Y-68209390D02*
X109417500Y-68161771D01*
X109417500Y-68161771D02*
X109584167Y-68161771D01*
X109584167Y-68161771D02*
X109650833Y-68209390D01*
X109650833Y-68209390D02*
X109684167Y-68257009D01*
X109684167Y-68257009D02*
X109717500Y-68352247D01*
X109717500Y-68352247D02*
X109717500Y-68590342D01*
X109717500Y-68590342D02*
X109684167Y-68685580D01*
X109684167Y-68685580D02*
X109650833Y-68733200D01*
X109650833Y-68733200D02*
X109584167Y-68780819D01*
X109584167Y-68780819D02*
X109417500Y-68780819D01*
X109417500Y-68780819D02*
X109350833Y-68733200D01*
X109350833Y-68733200D02*
X109317500Y-68685580D01*
X102700833Y-68685580D02*
X102667500Y-68733200D01*
X102667500Y-68733200D02*
X102567500Y-68780819D01*
X102567500Y-68780819D02*
X102500833Y-68780819D01*
X102500833Y-68780819D02*
X102400833Y-68733200D01*
X102400833Y-68733200D02*
X102334167Y-68637961D01*
X102334167Y-68637961D02*
X102300833Y-68542723D01*
X102300833Y-68542723D02*
X102267500Y-68352247D01*
X102267500Y-68352247D02*
X102267500Y-68209390D01*
X102267500Y-68209390D02*
X102300833Y-68018914D01*
X102300833Y-68018914D02*
X102334167Y-67923676D01*
X102334167Y-67923676D02*
X102400833Y-67828438D01*
X102400833Y-67828438D02*
X102500833Y-67780819D01*
X102500833Y-67780819D02*
X102567500Y-67780819D01*
X102567500Y-67780819D02*
X102667500Y-67828438D01*
X102667500Y-67828438D02*
X102700833Y-67876057D01*
X103300833Y-68114152D02*
X103300833Y-68780819D01*
X103134167Y-67733200D02*
X102967500Y-68447485D01*
X102967500Y-68447485D02*
X103400833Y-68447485D01*
X96350833Y-68685580D02*
X96317500Y-68733200D01*
X96317500Y-68733200D02*
X96217500Y-68780819D01*
X96217500Y-68780819D02*
X96150833Y-68780819D01*
X96150833Y-68780819D02*
X96050833Y-68733200D01*
X96050833Y-68733200D02*
X95984167Y-68637961D01*
X95984167Y-68637961D02*
X95950833Y-68542723D01*
X95950833Y-68542723D02*
X95917500Y-68352247D01*
X95917500Y-68352247D02*
X95917500Y-68209390D01*
X95917500Y-68209390D02*
X95950833Y-68018914D01*
X95950833Y-68018914D02*
X95984167Y-67923676D01*
X95984167Y-67923676D02*
X96050833Y-67828438D01*
X96050833Y-67828438D02*
X96150833Y-67780819D01*
X96150833Y-67780819D02*
X96217500Y-67780819D01*
X96217500Y-67780819D02*
X96317500Y-67828438D01*
X96317500Y-67828438D02*
X96350833Y-67876057D01*
X96584167Y-67780819D02*
X97017500Y-67780819D01*
X97017500Y-67780819D02*
X96784167Y-68161771D01*
X96784167Y-68161771D02*
X96884167Y-68161771D01*
X96884167Y-68161771D02*
X96950833Y-68209390D01*
X96950833Y-68209390D02*
X96984167Y-68257009D01*
X96984167Y-68257009D02*
X97017500Y-68352247D01*
X97017500Y-68352247D02*
X97017500Y-68590342D01*
X97017500Y-68590342D02*
X96984167Y-68685580D01*
X96984167Y-68685580D02*
X96950833Y-68733200D01*
X96950833Y-68733200D02*
X96884167Y-68780819D01*
X96884167Y-68780819D02*
X96684167Y-68780819D01*
X96684167Y-68780819D02*
X96617500Y-68733200D01*
X96617500Y-68733200D02*
X96584167Y-68685580D01*
X90000833Y-68685580D02*
X89967500Y-68733200D01*
X89967500Y-68733200D02*
X89867500Y-68780819D01*
X89867500Y-68780819D02*
X89800833Y-68780819D01*
X89800833Y-68780819D02*
X89700833Y-68733200D01*
X89700833Y-68733200D02*
X89634167Y-68637961D01*
X89634167Y-68637961D02*
X89600833Y-68542723D01*
X89600833Y-68542723D02*
X89567500Y-68352247D01*
X89567500Y-68352247D02*
X89567500Y-68209390D01*
X89567500Y-68209390D02*
X89600833Y-68018914D01*
X89600833Y-68018914D02*
X89634167Y-67923676D01*
X89634167Y-67923676D02*
X89700833Y-67828438D01*
X89700833Y-67828438D02*
X89800833Y-67780819D01*
X89800833Y-67780819D02*
X89867500Y-67780819D01*
X89867500Y-67780819D02*
X89967500Y-67828438D01*
X89967500Y-67828438D02*
X90000833Y-67876057D01*
X90267500Y-67876057D02*
X90300833Y-67828438D01*
X90300833Y-67828438D02*
X90367500Y-67780819D01*
X90367500Y-67780819D02*
X90534167Y-67780819D01*
X90534167Y-67780819D02*
X90600833Y-67828438D01*
X90600833Y-67828438D02*
X90634167Y-67876057D01*
X90634167Y-67876057D02*
X90667500Y-67971295D01*
X90667500Y-67971295D02*
X90667500Y-68066533D01*
X90667500Y-68066533D02*
X90634167Y-68209390D01*
X90634167Y-68209390D02*
X90234167Y-68780819D01*
X90234167Y-68780819D02*
X90667500Y-68780819D01*
X85530819Y-63489666D02*
X85054628Y-63722999D01*
X85530819Y-63889666D02*
X84530819Y-63889666D01*
X84530819Y-63889666D02*
X84530819Y-63622999D01*
X84530819Y-63622999D02*
X84578438Y-63556333D01*
X84578438Y-63556333D02*
X84626057Y-63522999D01*
X84626057Y-63522999D02*
X84721295Y-63489666D01*
X84721295Y-63489666D02*
X84864152Y-63489666D01*
X84864152Y-63489666D02*
X84959390Y-63522999D01*
X84959390Y-63522999D02*
X85007009Y-63556333D01*
X85007009Y-63556333D02*
X85054628Y-63622999D01*
X85054628Y-63622999D02*
X85054628Y-63889666D01*
X85530819Y-63156333D02*
X85530819Y-63022999D01*
X85530819Y-63022999D02*
X85483200Y-62956333D01*
X85483200Y-62956333D02*
X85435580Y-62922999D01*
X85435580Y-62922999D02*
X85292723Y-62856333D01*
X85292723Y-62856333D02*
X85102247Y-62822999D01*
X85102247Y-62822999D02*
X84721295Y-62822999D01*
X84721295Y-62822999D02*
X84626057Y-62856333D01*
X84626057Y-62856333D02*
X84578438Y-62889666D01*
X84578438Y-62889666D02*
X84530819Y-62956333D01*
X84530819Y-62956333D02*
X84530819Y-63089666D01*
X84530819Y-63089666D02*
X84578438Y-63156333D01*
X84578438Y-63156333D02*
X84626057Y-63189666D01*
X84626057Y-63189666D02*
X84721295Y-63222999D01*
X84721295Y-63222999D02*
X84959390Y-63222999D01*
X84959390Y-63222999D02*
X85054628Y-63189666D01*
X85054628Y-63189666D02*
X85102247Y-63156333D01*
X85102247Y-63156333D02*
X85149866Y-63089666D01*
X85149866Y-63089666D02*
X85149866Y-62956333D01*
X85149866Y-62956333D02*
X85102247Y-62889666D01*
X85102247Y-62889666D02*
X85054628Y-62856333D01*
X85054628Y-62856333D02*
X84959390Y-62822999D01*
X60314333Y-54175819D02*
X60081000Y-53699628D01*
X59914333Y-54175819D02*
X59914333Y-53175819D01*
X59914333Y-53175819D02*
X60181000Y-53175819D01*
X60181000Y-53175819D02*
X60247667Y-53223438D01*
X60247667Y-53223438D02*
X60281000Y-53271057D01*
X60281000Y-53271057D02*
X60314333Y-53366295D01*
X60314333Y-53366295D02*
X60314333Y-53509152D01*
X60314333Y-53509152D02*
X60281000Y-53604390D01*
X60281000Y-53604390D02*
X60247667Y-53652009D01*
X60247667Y-53652009D02*
X60181000Y-53699628D01*
X60181000Y-53699628D02*
X59914333Y-53699628D01*
X60547667Y-53175819D02*
X61014333Y-53175819D01*
X61014333Y-53175819D02*
X60714333Y-54175819D01*
X145284333Y-54175819D02*
X145051000Y-53699628D01*
X144884333Y-54175819D02*
X144884333Y-53175819D01*
X144884333Y-53175819D02*
X145151000Y-53175819D01*
X145151000Y-53175819D02*
X145217667Y-53223438D01*
X145217667Y-53223438D02*
X145251000Y-53271057D01*
X145251000Y-53271057D02*
X145284333Y-53366295D01*
X145284333Y-53366295D02*
X145284333Y-53509152D01*
X145284333Y-53509152D02*
X145251000Y-53604390D01*
X145251000Y-53604390D02*
X145217667Y-53652009D01*
X145217667Y-53652009D02*
X145151000Y-53699628D01*
X145151000Y-53699628D02*
X144884333Y-53699628D01*
X145684333Y-53604390D02*
X145617667Y-53556771D01*
X145617667Y-53556771D02*
X145584333Y-53509152D01*
X145584333Y-53509152D02*
X145551000Y-53413914D01*
X145551000Y-53413914D02*
X145551000Y-53366295D01*
X145551000Y-53366295D02*
X145584333Y-53271057D01*
X145584333Y-53271057D02*
X145617667Y-53223438D01*
X145617667Y-53223438D02*
X145684333Y-53175819D01*
X145684333Y-53175819D02*
X145817667Y-53175819D01*
X145817667Y-53175819D02*
X145884333Y-53223438D01*
X145884333Y-53223438D02*
X145917667Y-53271057D01*
X145917667Y-53271057D02*
X145951000Y-53366295D01*
X145951000Y-53366295D02*
X145951000Y-53413914D01*
X145951000Y-53413914D02*
X145917667Y-53509152D01*
X145917667Y-53509152D02*
X145884333Y-53556771D01*
X145884333Y-53556771D02*
X145817667Y-53604390D01*
X145817667Y-53604390D02*
X145684333Y-53604390D01*
X145684333Y-53604390D02*
X145617667Y-53652009D01*
X145617667Y-53652009D02*
X145584333Y-53699628D01*
X145584333Y-53699628D02*
X145551000Y-53794866D01*
X145551000Y-53794866D02*
X145551000Y-53985342D01*
X145551000Y-53985342D02*
X145584333Y-54080580D01*
X145584333Y-54080580D02*
X145617667Y-54128200D01*
X145617667Y-54128200D02*
X145684333Y-54175819D01*
X145684333Y-54175819D02*
X145817667Y-54175819D01*
X145817667Y-54175819D02*
X145884333Y-54128200D01*
X145884333Y-54128200D02*
X145917667Y-54080580D01*
X145917667Y-54080580D02*
X145951000Y-53985342D01*
X145951000Y-53985342D02*
X145951000Y-53794866D01*
X145951000Y-53794866D02*
X145917667Y-53699628D01*
X145917667Y-53699628D02*
X145884333Y-53652009D01*
X145884333Y-53652009D02*
X145817667Y-53604390D01*
X78559819Y-78856666D02*
X78083628Y-79089999D01*
X78559819Y-79256666D02*
X77559819Y-79256666D01*
X77559819Y-79256666D02*
X77559819Y-78989999D01*
X77559819Y-78989999D02*
X77607438Y-78923333D01*
X77607438Y-78923333D02*
X77655057Y-78889999D01*
X77655057Y-78889999D02*
X77750295Y-78856666D01*
X77750295Y-78856666D02*
X77893152Y-78856666D01*
X77893152Y-78856666D02*
X77988390Y-78889999D01*
X77988390Y-78889999D02*
X78036009Y-78923333D01*
X78036009Y-78923333D02*
X78083628Y-78989999D01*
X78083628Y-78989999D02*
X78083628Y-79256666D01*
X78559819Y-78189999D02*
X78559819Y-78589999D01*
X78559819Y-78389999D02*
X77559819Y-78389999D01*
X77559819Y-78389999D02*
X77702676Y-78456666D01*
X77702676Y-78456666D02*
X77797914Y-78523333D01*
X77797914Y-78523333D02*
X77845533Y-78589999D01*
X81734819Y-78856666D02*
X81258628Y-79089999D01*
X81734819Y-79256666D02*
X80734819Y-79256666D01*
X80734819Y-79256666D02*
X80734819Y-78989999D01*
X80734819Y-78989999D02*
X80782438Y-78923333D01*
X80782438Y-78923333D02*
X80830057Y-78889999D01*
X80830057Y-78889999D02*
X80925295Y-78856666D01*
X80925295Y-78856666D02*
X81068152Y-78856666D01*
X81068152Y-78856666D02*
X81163390Y-78889999D01*
X81163390Y-78889999D02*
X81211009Y-78923333D01*
X81211009Y-78923333D02*
X81258628Y-78989999D01*
X81258628Y-78989999D02*
X81258628Y-79256666D01*
X80830057Y-78589999D02*
X80782438Y-78556666D01*
X80782438Y-78556666D02*
X80734819Y-78489999D01*
X80734819Y-78489999D02*
X80734819Y-78323333D01*
X80734819Y-78323333D02*
X80782438Y-78256666D01*
X80782438Y-78256666D02*
X80830057Y-78223333D01*
X80830057Y-78223333D02*
X80925295Y-78189999D01*
X80925295Y-78189999D02*
X81020533Y-78189999D01*
X81020533Y-78189999D02*
X81163390Y-78223333D01*
X81163390Y-78223333D02*
X81734819Y-78623333D01*
X81734819Y-78623333D02*
X81734819Y-78189999D01*
X84909819Y-78856666D02*
X84433628Y-79089999D01*
X84909819Y-79256666D02*
X83909819Y-79256666D01*
X83909819Y-79256666D02*
X83909819Y-78989999D01*
X83909819Y-78989999D02*
X83957438Y-78923333D01*
X83957438Y-78923333D02*
X84005057Y-78889999D01*
X84005057Y-78889999D02*
X84100295Y-78856666D01*
X84100295Y-78856666D02*
X84243152Y-78856666D01*
X84243152Y-78856666D02*
X84338390Y-78889999D01*
X84338390Y-78889999D02*
X84386009Y-78923333D01*
X84386009Y-78923333D02*
X84433628Y-78989999D01*
X84433628Y-78989999D02*
X84433628Y-79256666D01*
X83909819Y-78623333D02*
X83909819Y-78189999D01*
X83909819Y-78189999D02*
X84290771Y-78423333D01*
X84290771Y-78423333D02*
X84290771Y-78323333D01*
X84290771Y-78323333D02*
X84338390Y-78256666D01*
X84338390Y-78256666D02*
X84386009Y-78223333D01*
X84386009Y-78223333D02*
X84481247Y-78189999D01*
X84481247Y-78189999D02*
X84719342Y-78189999D01*
X84719342Y-78189999D02*
X84814580Y-78223333D01*
X84814580Y-78223333D02*
X84862200Y-78256666D01*
X84862200Y-78256666D02*
X84909819Y-78323333D01*
X84909819Y-78323333D02*
X84909819Y-78523333D01*
X84909819Y-78523333D02*
X84862200Y-78589999D01*
X84862200Y-78589999D02*
X84814580Y-78623333D01*
X88084819Y-78856666D02*
X87608628Y-79089999D01*
X88084819Y-79256666D02*
X87084819Y-79256666D01*
X87084819Y-79256666D02*
X87084819Y-78989999D01*
X87084819Y-78989999D02*
X87132438Y-78923333D01*
X87132438Y-78923333D02*
X87180057Y-78889999D01*
X87180057Y-78889999D02*
X87275295Y-78856666D01*
X87275295Y-78856666D02*
X87418152Y-78856666D01*
X87418152Y-78856666D02*
X87513390Y-78889999D01*
X87513390Y-78889999D02*
X87561009Y-78923333D01*
X87561009Y-78923333D02*
X87608628Y-78989999D01*
X87608628Y-78989999D02*
X87608628Y-79256666D01*
X87418152Y-78256666D02*
X88084819Y-78256666D01*
X87037200Y-78423333D02*
X87751485Y-78589999D01*
X87751485Y-78589999D02*
X87751485Y-78156666D01*
X149552819Y-79110666D02*
X149076628Y-79343999D01*
X149552819Y-79510666D02*
X148552819Y-79510666D01*
X148552819Y-79510666D02*
X148552819Y-79243999D01*
X148552819Y-79243999D02*
X148600438Y-79177333D01*
X148600438Y-79177333D02*
X148648057Y-79143999D01*
X148648057Y-79143999D02*
X148743295Y-79110666D01*
X148743295Y-79110666D02*
X148886152Y-79110666D01*
X148886152Y-79110666D02*
X148981390Y-79143999D01*
X148981390Y-79143999D02*
X149029009Y-79177333D01*
X149029009Y-79177333D02*
X149076628Y-79243999D01*
X149076628Y-79243999D02*
X149076628Y-79510666D01*
X148552819Y-78510666D02*
X148552819Y-78643999D01*
X148552819Y-78643999D02*
X148600438Y-78710666D01*
X148600438Y-78710666D02*
X148648057Y-78743999D01*
X148648057Y-78743999D02*
X148790914Y-78810666D01*
X148790914Y-78810666D02*
X148981390Y-78843999D01*
X148981390Y-78843999D02*
X149362342Y-78843999D01*
X149362342Y-78843999D02*
X149457580Y-78810666D01*
X149457580Y-78810666D02*
X149505200Y-78777333D01*
X149505200Y-78777333D02*
X149552819Y-78710666D01*
X149552819Y-78710666D02*
X149552819Y-78577333D01*
X149552819Y-78577333D02*
X149505200Y-78510666D01*
X149505200Y-78510666D02*
X149457580Y-78477333D01*
X149457580Y-78477333D02*
X149362342Y-78443999D01*
X149362342Y-78443999D02*
X149124247Y-78443999D01*
X149124247Y-78443999D02*
X149029009Y-78477333D01*
X149029009Y-78477333D02*
X148981390Y-78510666D01*
X148981390Y-78510666D02*
X148933771Y-78577333D01*
X148933771Y-78577333D02*
X148933771Y-78710666D01*
X148933771Y-78710666D02*
X148981390Y-78777333D01*
X148981390Y-78777333D02*
X149029009Y-78810666D01*
X149029009Y-78810666D02*
X149124247Y-78843999D01*
X146377819Y-79110666D02*
X145901628Y-79343999D01*
X146377819Y-79510666D02*
X145377819Y-79510666D01*
X145377819Y-79510666D02*
X145377819Y-79243999D01*
X145377819Y-79243999D02*
X145425438Y-79177333D01*
X145425438Y-79177333D02*
X145473057Y-79143999D01*
X145473057Y-79143999D02*
X145568295Y-79110666D01*
X145568295Y-79110666D02*
X145711152Y-79110666D01*
X145711152Y-79110666D02*
X145806390Y-79143999D01*
X145806390Y-79143999D02*
X145854009Y-79177333D01*
X145854009Y-79177333D02*
X145901628Y-79243999D01*
X145901628Y-79243999D02*
X145901628Y-79510666D01*
X145377819Y-78477333D02*
X145377819Y-78810666D01*
X145377819Y-78810666D02*
X145854009Y-78843999D01*
X145854009Y-78843999D02*
X145806390Y-78810666D01*
X145806390Y-78810666D02*
X145758771Y-78743999D01*
X145758771Y-78743999D02*
X145758771Y-78577333D01*
X145758771Y-78577333D02*
X145806390Y-78510666D01*
X145806390Y-78510666D02*
X145854009Y-78477333D01*
X145854009Y-78477333D02*
X145949247Y-78443999D01*
X145949247Y-78443999D02*
X146187342Y-78443999D01*
X146187342Y-78443999D02*
X146282580Y-78477333D01*
X146282580Y-78477333D02*
X146330200Y-78510666D01*
X146330200Y-78510666D02*
X146377819Y-78577333D01*
X146377819Y-78577333D02*
X146377819Y-78743999D01*
X146377819Y-78743999D02*
X146330200Y-78810666D01*
X146330200Y-78810666D02*
X146282580Y-78843999D01*
X131826095Y-72960200D02*
X131968952Y-73007819D01*
X131968952Y-73007819D02*
X132207047Y-73007819D01*
X132207047Y-73007819D02*
X132302285Y-72960200D01*
X132302285Y-72960200D02*
X132349904Y-72912580D01*
X132349904Y-72912580D02*
X132397523Y-72817342D01*
X132397523Y-72817342D02*
X132397523Y-72722104D01*
X132397523Y-72722104D02*
X132349904Y-72626866D01*
X132349904Y-72626866D02*
X132302285Y-72579247D01*
X132302285Y-72579247D02*
X132207047Y-72531628D01*
X132207047Y-72531628D02*
X132016571Y-72484009D01*
X132016571Y-72484009D02*
X131921333Y-72436390D01*
X131921333Y-72436390D02*
X131873714Y-72388771D01*
X131873714Y-72388771D02*
X131826095Y-72293533D01*
X131826095Y-72293533D02*
X131826095Y-72198295D01*
X131826095Y-72198295D02*
X131873714Y-72103057D01*
X131873714Y-72103057D02*
X131921333Y-72055438D01*
X131921333Y-72055438D02*
X132016571Y-72007819D01*
X132016571Y-72007819D02*
X132254666Y-72007819D01*
X132254666Y-72007819D02*
X132397523Y-72055438D01*
X133302285Y-72007819D02*
X132826095Y-72007819D01*
X132826095Y-72007819D02*
X132778476Y-72484009D01*
X132778476Y-72484009D02*
X132826095Y-72436390D01*
X132826095Y-72436390D02*
X132921333Y-72388771D01*
X132921333Y-72388771D02*
X133159428Y-72388771D01*
X133159428Y-72388771D02*
X133254666Y-72436390D01*
X133254666Y-72436390D02*
X133302285Y-72484009D01*
X133302285Y-72484009D02*
X133349904Y-72579247D01*
X133349904Y-72579247D02*
X133349904Y-72817342D01*
X133349904Y-72817342D02*
X133302285Y-72912580D01*
X133302285Y-72912580D02*
X133254666Y-72960200D01*
X133254666Y-72960200D02*
X133159428Y-73007819D01*
X133159428Y-73007819D02*
X132921333Y-73007819D01*
X132921333Y-73007819D02*
X132826095Y-72960200D01*
X132826095Y-72960200D02*
X132778476Y-72912580D01*
X116010819Y-64111094D02*
X115010819Y-64111094D01*
X115010819Y-64111094D02*
X115010819Y-63872999D01*
X115010819Y-63872999D02*
X115058438Y-63730142D01*
X115058438Y-63730142D02*
X115153676Y-63634904D01*
X115153676Y-63634904D02*
X115248914Y-63587285D01*
X115248914Y-63587285D02*
X115439390Y-63539666D01*
X115439390Y-63539666D02*
X115582247Y-63539666D01*
X115582247Y-63539666D02*
X115772723Y-63587285D01*
X115772723Y-63587285D02*
X115867961Y-63634904D01*
X115867961Y-63634904D02*
X115963200Y-63730142D01*
X115963200Y-63730142D02*
X116010819Y-63872999D01*
X116010819Y-63872999D02*
X116010819Y-64111094D01*
X115010819Y-62634904D02*
X115010819Y-63111094D01*
X115010819Y-63111094D02*
X115487009Y-63158713D01*
X115487009Y-63158713D02*
X115439390Y-63111094D01*
X115439390Y-63111094D02*
X115391771Y-63015856D01*
X115391771Y-63015856D02*
X115391771Y-62777761D01*
X115391771Y-62777761D02*
X115439390Y-62682523D01*
X115439390Y-62682523D02*
X115487009Y-62634904D01*
X115487009Y-62634904D02*
X115582247Y-62587285D01*
X115582247Y-62587285D02*
X115820342Y-62587285D01*
X115820342Y-62587285D02*
X115915580Y-62634904D01*
X115915580Y-62634904D02*
X115963200Y-62682523D01*
X115963200Y-62682523D02*
X116010819Y-62777761D01*
X116010819Y-62777761D02*
X116010819Y-63015856D01*
X116010819Y-63015856D02*
X115963200Y-63111094D01*
X115963200Y-63111094D02*
X115915580Y-63158713D01*
X113375580Y-64642999D02*
X113423200Y-64595380D01*
X113423200Y-64595380D02*
X113470819Y-64642999D01*
X113470819Y-64642999D02*
X113423200Y-64690618D01*
X113423200Y-64690618D02*
X113375580Y-64642999D01*
X113375580Y-64642999D02*
X113470819Y-64642999D01*
X94394580Y-78906666D02*
X94442200Y-78954285D01*
X94442200Y-78954285D02*
X94489819Y-79097142D01*
X94489819Y-79097142D02*
X94489819Y-79192380D01*
X94489819Y-79192380D02*
X94442200Y-79335237D01*
X94442200Y-79335237D02*
X94346961Y-79430475D01*
X94346961Y-79430475D02*
X94251723Y-79478094D01*
X94251723Y-79478094D02*
X94061247Y-79525713D01*
X94061247Y-79525713D02*
X93918390Y-79525713D01*
X93918390Y-79525713D02*
X93727914Y-79478094D01*
X93727914Y-79478094D02*
X93632676Y-79430475D01*
X93632676Y-79430475D02*
X93537438Y-79335237D01*
X93537438Y-79335237D02*
X93489819Y-79192380D01*
X93489819Y-79192380D02*
X93489819Y-79097142D01*
X93489819Y-79097142D02*
X93537438Y-78954285D01*
X93537438Y-78954285D02*
X93585057Y-78906666D01*
X94489819Y-77954285D02*
X94489819Y-78525713D01*
X94489819Y-78239999D02*
X93489819Y-78239999D01*
X93489819Y-78239999D02*
X93632676Y-78335237D01*
X93632676Y-78335237D02*
X93727914Y-78430475D01*
X93727914Y-78430475D02*
X93775533Y-78525713D01*
X90610819Y-64113294D02*
X89610819Y-64113294D01*
X89610819Y-64113294D02*
X89610819Y-63875199D01*
X89610819Y-63875199D02*
X89658438Y-63732342D01*
X89658438Y-63732342D02*
X89753676Y-63637104D01*
X89753676Y-63637104D02*
X89848914Y-63589485D01*
X89848914Y-63589485D02*
X90039390Y-63541866D01*
X90039390Y-63541866D02*
X90182247Y-63541866D01*
X90182247Y-63541866D02*
X90372723Y-63589485D01*
X90372723Y-63589485D02*
X90467961Y-63637104D01*
X90467961Y-63637104D02*
X90563200Y-63732342D01*
X90563200Y-63732342D02*
X90610819Y-63875199D01*
X90610819Y-63875199D02*
X90610819Y-64113294D01*
X90610819Y-62589485D02*
X90610819Y-63160913D01*
X90610819Y-62875199D02*
X89610819Y-62875199D01*
X89610819Y-62875199D02*
X89753676Y-62970437D01*
X89753676Y-62970437D02*
X89848914Y-63065675D01*
X89848914Y-63065675D02*
X89896533Y-63160913D01*
X87975580Y-64642999D02*
X88023200Y-64595380D01*
X88023200Y-64595380D02*
X88070819Y-64642999D01*
X88070819Y-64642999D02*
X88023200Y-64690618D01*
X88023200Y-64690618D02*
X87975580Y-64642999D01*
X87975580Y-64642999D02*
X88070819Y-64642999D01*
D14*
X138543095Y-51082800D02*
X138685952Y-51130419D01*
X138685952Y-51130419D02*
X138924047Y-51130419D01*
X138924047Y-51130419D02*
X139019285Y-51082800D01*
X139019285Y-51082800D02*
X139066904Y-51035180D01*
X139066904Y-51035180D02*
X139114523Y-50939942D01*
X139114523Y-50939942D02*
X139114523Y-50844704D01*
X139114523Y-50844704D02*
X139066904Y-50749466D01*
X139066904Y-50749466D02*
X139019285Y-50701847D01*
X139019285Y-50701847D02*
X138924047Y-50654228D01*
X138924047Y-50654228D02*
X138733571Y-50606609D01*
X138733571Y-50606609D02*
X138638333Y-50558990D01*
X138638333Y-50558990D02*
X138590714Y-50511371D01*
X138590714Y-50511371D02*
X138543095Y-50416133D01*
X138543095Y-50416133D02*
X138543095Y-50320895D01*
X138543095Y-50320895D02*
X138590714Y-50225657D01*
X138590714Y-50225657D02*
X138638333Y-50178038D01*
X138638333Y-50178038D02*
X138733571Y-50130419D01*
X138733571Y-50130419D02*
X138971666Y-50130419D01*
X138971666Y-50130419D02*
X139114523Y-50178038D01*
X139685952Y-50558990D02*
X139590714Y-50511371D01*
X139590714Y-50511371D02*
X139543095Y-50463752D01*
X139543095Y-50463752D02*
X139495476Y-50368514D01*
X139495476Y-50368514D02*
X139495476Y-50320895D01*
X139495476Y-50320895D02*
X139543095Y-50225657D01*
X139543095Y-50225657D02*
X139590714Y-50178038D01*
X139590714Y-50178038D02*
X139685952Y-50130419D01*
X139685952Y-50130419D02*
X139876428Y-50130419D01*
X139876428Y-50130419D02*
X139971666Y-50178038D01*
X139971666Y-50178038D02*
X140019285Y-50225657D01*
X140019285Y-50225657D02*
X140066904Y-50320895D01*
X140066904Y-50320895D02*
X140066904Y-50368514D01*
X140066904Y-50368514D02*
X140019285Y-50463752D01*
X140019285Y-50463752D02*
X139971666Y-50511371D01*
X139971666Y-50511371D02*
X139876428Y-50558990D01*
X139876428Y-50558990D02*
X139685952Y-50558990D01*
X139685952Y-50558990D02*
X139590714Y-50606609D01*
X139590714Y-50606609D02*
X139543095Y-50654228D01*
X139543095Y-50654228D02*
X139495476Y-50749466D01*
X139495476Y-50749466D02*
X139495476Y-50939942D01*
X139495476Y-50939942D02*
X139543095Y-51035180D01*
X139543095Y-51035180D02*
X139590714Y-51082800D01*
X139590714Y-51082800D02*
X139685952Y-51130419D01*
X139685952Y-51130419D02*
X139876428Y-51130419D01*
X139876428Y-51130419D02*
X139971666Y-51082800D01*
X139971666Y-51082800D02*
X140019285Y-51035180D01*
X140019285Y-51035180D02*
X140066904Y-50939942D01*
X140066904Y-50939942D02*
X140066904Y-50749466D01*
X140066904Y-50749466D02*
X140019285Y-50654228D01*
X140019285Y-50654228D02*
X139971666Y-50606609D01*
X139971666Y-50606609D02*
X139876428Y-50558990D01*
D10*
X138844595Y-65685200D02*
X138987452Y-65732819D01*
X138987452Y-65732819D02*
X139225547Y-65732819D01*
X139225547Y-65732819D02*
X139320785Y-65685200D01*
X139320785Y-65685200D02*
X139368404Y-65637580D01*
X139368404Y-65637580D02*
X139416023Y-65542342D01*
X139416023Y-65542342D02*
X139416023Y-65447104D01*
X139416023Y-65447104D02*
X139368404Y-65351866D01*
X139368404Y-65351866D02*
X139320785Y-65304247D01*
X139320785Y-65304247D02*
X139225547Y-65256628D01*
X139225547Y-65256628D02*
X139035071Y-65209009D01*
X139035071Y-65209009D02*
X138939833Y-65161390D01*
X138939833Y-65161390D02*
X138892214Y-65113771D01*
X138892214Y-65113771D02*
X138844595Y-65018533D01*
X138844595Y-65018533D02*
X138844595Y-64923295D01*
X138844595Y-64923295D02*
X138892214Y-64828057D01*
X138892214Y-64828057D02*
X138939833Y-64780438D01*
X138939833Y-64780438D02*
X139035071Y-64732819D01*
X139035071Y-64732819D02*
X139273166Y-64732819D01*
X139273166Y-64732819D02*
X139416023Y-64780438D01*
X140273166Y-64732819D02*
X140082690Y-64732819D01*
X140082690Y-64732819D02*
X139987452Y-64780438D01*
X139987452Y-64780438D02*
X139939833Y-64828057D01*
X139939833Y-64828057D02*
X139844595Y-64970914D01*
X139844595Y-64970914D02*
X139796976Y-65161390D01*
X139796976Y-65161390D02*
X139796976Y-65542342D01*
X139796976Y-65542342D02*
X139844595Y-65637580D01*
X139844595Y-65637580D02*
X139892214Y-65685200D01*
X139892214Y-65685200D02*
X139987452Y-65732819D01*
X139987452Y-65732819D02*
X140177928Y-65732819D01*
X140177928Y-65732819D02*
X140273166Y-65685200D01*
X140273166Y-65685200D02*
X140320785Y-65637580D01*
X140320785Y-65637580D02*
X140368404Y-65542342D01*
X140368404Y-65542342D02*
X140368404Y-65304247D01*
X140368404Y-65304247D02*
X140320785Y-65209009D01*
X140320785Y-65209009D02*
X140273166Y-65161390D01*
X140273166Y-65161390D02*
X140177928Y-65113771D01*
X140177928Y-65113771D02*
X139987452Y-65113771D01*
X139987452Y-65113771D02*
X139892214Y-65161390D01*
X139892214Y-65161390D02*
X139844595Y-65209009D01*
X139844595Y-65209009D02*
X139796976Y-65304247D01*
X60833095Y-69332200D02*
X60975952Y-69379819D01*
X60975952Y-69379819D02*
X61214047Y-69379819D01*
X61214047Y-69379819D02*
X61309285Y-69332200D01*
X61309285Y-69332200D02*
X61356904Y-69284580D01*
X61356904Y-69284580D02*
X61404523Y-69189342D01*
X61404523Y-69189342D02*
X61404523Y-69094104D01*
X61404523Y-69094104D02*
X61356904Y-68998866D01*
X61356904Y-68998866D02*
X61309285Y-68951247D01*
X61309285Y-68951247D02*
X61214047Y-68903628D01*
X61214047Y-68903628D02*
X61023571Y-68856009D01*
X61023571Y-68856009D02*
X60928333Y-68808390D01*
X60928333Y-68808390D02*
X60880714Y-68760771D01*
X60880714Y-68760771D02*
X60833095Y-68665533D01*
X60833095Y-68665533D02*
X60833095Y-68570295D01*
X60833095Y-68570295D02*
X60880714Y-68475057D01*
X60880714Y-68475057D02*
X60928333Y-68427438D01*
X60928333Y-68427438D02*
X61023571Y-68379819D01*
X61023571Y-68379819D02*
X61261666Y-68379819D01*
X61261666Y-68379819D02*
X61404523Y-68427438D01*
X62356904Y-69379819D02*
X61785476Y-69379819D01*
X62071190Y-69379819D02*
X62071190Y-68379819D01*
X62071190Y-68379819D02*
X61975952Y-68522676D01*
X61975952Y-68522676D02*
X61880714Y-68617914D01*
X61880714Y-68617914D02*
X61785476Y-68665533D01*
D14*
X65931095Y-51082800D02*
X66073952Y-51130419D01*
X66073952Y-51130419D02*
X66312047Y-51130419D01*
X66312047Y-51130419D02*
X66407285Y-51082800D01*
X66407285Y-51082800D02*
X66454904Y-51035180D01*
X66454904Y-51035180D02*
X66502523Y-50939942D01*
X66502523Y-50939942D02*
X66502523Y-50844704D01*
X66502523Y-50844704D02*
X66454904Y-50749466D01*
X66454904Y-50749466D02*
X66407285Y-50701847D01*
X66407285Y-50701847D02*
X66312047Y-50654228D01*
X66312047Y-50654228D02*
X66121571Y-50606609D01*
X66121571Y-50606609D02*
X66026333Y-50558990D01*
X66026333Y-50558990D02*
X65978714Y-50511371D01*
X65978714Y-50511371D02*
X65931095Y-50416133D01*
X65931095Y-50416133D02*
X65931095Y-50320895D01*
X65931095Y-50320895D02*
X65978714Y-50225657D01*
X65978714Y-50225657D02*
X66026333Y-50178038D01*
X66026333Y-50178038D02*
X66121571Y-50130419D01*
X66121571Y-50130419D02*
X66359666Y-50130419D01*
X66359666Y-50130419D02*
X66502523Y-50178038D01*
X66835857Y-50130419D02*
X67502523Y-50130419D01*
X67502523Y-50130419D02*
X67073952Y-51130419D01*
D10*
X104146182Y-77723688D02*
X104146182Y-79051620D01*
X104146182Y-79051620D02*
X104224295Y-79207847D01*
X104224295Y-79207847D02*
X104302409Y-79285961D01*
X104302409Y-79285961D02*
X104458636Y-79364074D01*
X104458636Y-79364074D02*
X104771091Y-79364074D01*
X104771091Y-79364074D02*
X104927318Y-79285961D01*
X104927318Y-79285961D02*
X105005431Y-79207847D01*
X105005431Y-79207847D02*
X105083545Y-79051620D01*
X105083545Y-79051620D02*
X105083545Y-77723688D01*
X106723931Y-79364074D02*
X105786568Y-79364074D01*
X106255250Y-79364074D02*
X106255250Y-77723688D01*
X106255250Y-77723688D02*
X106099022Y-77958029D01*
X106099022Y-77958029D02*
X105942795Y-78114256D01*
X105942795Y-78114256D02*
X105786568Y-78192370D01*
X67818095Y-62347200D02*
X67960952Y-62394819D01*
X67960952Y-62394819D02*
X68199047Y-62394819D01*
X68199047Y-62394819D02*
X68294285Y-62347200D01*
X68294285Y-62347200D02*
X68341904Y-62299580D01*
X68341904Y-62299580D02*
X68389523Y-62204342D01*
X68389523Y-62204342D02*
X68389523Y-62109104D01*
X68389523Y-62109104D02*
X68341904Y-62013866D01*
X68341904Y-62013866D02*
X68294285Y-61966247D01*
X68294285Y-61966247D02*
X68199047Y-61918628D01*
X68199047Y-61918628D02*
X68008571Y-61871009D01*
X68008571Y-61871009D02*
X67913333Y-61823390D01*
X67913333Y-61823390D02*
X67865714Y-61775771D01*
X67865714Y-61775771D02*
X67818095Y-61680533D01*
X67818095Y-61680533D02*
X67818095Y-61585295D01*
X67818095Y-61585295D02*
X67865714Y-61490057D01*
X67865714Y-61490057D02*
X67913333Y-61442438D01*
X67913333Y-61442438D02*
X68008571Y-61394819D01*
X68008571Y-61394819D02*
X68246666Y-61394819D01*
X68246666Y-61394819D02*
X68389523Y-61442438D01*
X68770476Y-61490057D02*
X68818095Y-61442438D01*
X68818095Y-61442438D02*
X68913333Y-61394819D01*
X68913333Y-61394819D02*
X69151428Y-61394819D01*
X69151428Y-61394819D02*
X69246666Y-61442438D01*
X69246666Y-61442438D02*
X69294285Y-61490057D01*
X69294285Y-61490057D02*
X69341904Y-61585295D01*
X69341904Y-61585295D02*
X69341904Y-61680533D01*
X69341904Y-61680533D02*
X69294285Y-61823390D01*
X69294285Y-61823390D02*
X68722857Y-62394819D01*
X68722857Y-62394819D02*
X69341904Y-62394819D01*
X96960819Y-64021094D02*
X95960819Y-64021094D01*
X95960819Y-64021094D02*
X95960819Y-63782999D01*
X95960819Y-63782999D02*
X96008438Y-63640142D01*
X96008438Y-63640142D02*
X96103676Y-63544904D01*
X96103676Y-63544904D02*
X96198914Y-63497285D01*
X96198914Y-63497285D02*
X96389390Y-63449666D01*
X96389390Y-63449666D02*
X96532247Y-63449666D01*
X96532247Y-63449666D02*
X96722723Y-63497285D01*
X96722723Y-63497285D02*
X96817961Y-63544904D01*
X96817961Y-63544904D02*
X96913200Y-63640142D01*
X96913200Y-63640142D02*
X96960819Y-63782999D01*
X96960819Y-63782999D02*
X96960819Y-64021094D01*
X96056057Y-63068713D02*
X96008438Y-63021094D01*
X96008438Y-63021094D02*
X95960819Y-62925856D01*
X95960819Y-62925856D02*
X95960819Y-62687761D01*
X95960819Y-62687761D02*
X96008438Y-62592523D01*
X96008438Y-62592523D02*
X96056057Y-62544904D01*
X96056057Y-62544904D02*
X96151295Y-62497285D01*
X96151295Y-62497285D02*
X96246533Y-62497285D01*
X96246533Y-62497285D02*
X96389390Y-62544904D01*
X96389390Y-62544904D02*
X96960819Y-63116332D01*
X96960819Y-63116332D02*
X96960819Y-62497285D01*
X94325580Y-64642999D02*
X94373200Y-64595380D01*
X94373200Y-64595380D02*
X94420819Y-64642999D01*
X94420819Y-64642999D02*
X94373200Y-64690618D01*
X94373200Y-64690618D02*
X94325580Y-64642999D01*
X94325580Y-64642999D02*
X94420819Y-64642999D01*
X103310819Y-64021094D02*
X102310819Y-64021094D01*
X102310819Y-64021094D02*
X102310819Y-63782999D01*
X102310819Y-63782999D02*
X102358438Y-63640142D01*
X102358438Y-63640142D02*
X102453676Y-63544904D01*
X102453676Y-63544904D02*
X102548914Y-63497285D01*
X102548914Y-63497285D02*
X102739390Y-63449666D01*
X102739390Y-63449666D02*
X102882247Y-63449666D01*
X102882247Y-63449666D02*
X103072723Y-63497285D01*
X103072723Y-63497285D02*
X103167961Y-63544904D01*
X103167961Y-63544904D02*
X103263200Y-63640142D01*
X103263200Y-63640142D02*
X103310819Y-63782999D01*
X103310819Y-63782999D02*
X103310819Y-64021094D01*
X102310819Y-63116332D02*
X102310819Y-62497285D01*
X102310819Y-62497285D02*
X102691771Y-62830618D01*
X102691771Y-62830618D02*
X102691771Y-62687761D01*
X102691771Y-62687761D02*
X102739390Y-62592523D01*
X102739390Y-62592523D02*
X102787009Y-62544904D01*
X102787009Y-62544904D02*
X102882247Y-62497285D01*
X102882247Y-62497285D02*
X103120342Y-62497285D01*
X103120342Y-62497285D02*
X103215580Y-62544904D01*
X103215580Y-62544904D02*
X103263200Y-62592523D01*
X103263200Y-62592523D02*
X103310819Y-62687761D01*
X103310819Y-62687761D02*
X103310819Y-62973475D01*
X103310819Y-62973475D02*
X103263200Y-63068713D01*
X103263200Y-63068713D02*
X103215580Y-63116332D01*
X100675580Y-64642999D02*
X100723200Y-64595380D01*
X100723200Y-64595380D02*
X100770819Y-64642999D01*
X100770819Y-64642999D02*
X100723200Y-64690618D01*
X100723200Y-64690618D02*
X100675580Y-64642999D01*
X100675580Y-64642999D02*
X100770819Y-64642999D01*
X67818095Y-76952200D02*
X67960952Y-76999819D01*
X67960952Y-76999819D02*
X68199047Y-76999819D01*
X68199047Y-76999819D02*
X68294285Y-76952200D01*
X68294285Y-76952200D02*
X68341904Y-76904580D01*
X68341904Y-76904580D02*
X68389523Y-76809342D01*
X68389523Y-76809342D02*
X68389523Y-76714104D01*
X68389523Y-76714104D02*
X68341904Y-76618866D01*
X68341904Y-76618866D02*
X68294285Y-76571247D01*
X68294285Y-76571247D02*
X68199047Y-76523628D01*
X68199047Y-76523628D02*
X68008571Y-76476009D01*
X68008571Y-76476009D02*
X67913333Y-76428390D01*
X67913333Y-76428390D02*
X67865714Y-76380771D01*
X67865714Y-76380771D02*
X67818095Y-76285533D01*
X67818095Y-76285533D02*
X67818095Y-76190295D01*
X67818095Y-76190295D02*
X67865714Y-76095057D01*
X67865714Y-76095057D02*
X67913333Y-76047438D01*
X67913333Y-76047438D02*
X68008571Y-75999819D01*
X68008571Y-75999819D02*
X68246666Y-75999819D01*
X68246666Y-75999819D02*
X68389523Y-76047438D01*
X69246666Y-76333152D02*
X69246666Y-76999819D01*
X69008571Y-75952200D02*
X68770476Y-76666485D01*
X68770476Y-76666485D02*
X69389523Y-76666485D01*
X109660819Y-64021094D02*
X108660819Y-64021094D01*
X108660819Y-64021094D02*
X108660819Y-63782999D01*
X108660819Y-63782999D02*
X108708438Y-63640142D01*
X108708438Y-63640142D02*
X108803676Y-63544904D01*
X108803676Y-63544904D02*
X108898914Y-63497285D01*
X108898914Y-63497285D02*
X109089390Y-63449666D01*
X109089390Y-63449666D02*
X109232247Y-63449666D01*
X109232247Y-63449666D02*
X109422723Y-63497285D01*
X109422723Y-63497285D02*
X109517961Y-63544904D01*
X109517961Y-63544904D02*
X109613200Y-63640142D01*
X109613200Y-63640142D02*
X109660819Y-63782999D01*
X109660819Y-63782999D02*
X109660819Y-64021094D01*
X108994152Y-62592523D02*
X109660819Y-62592523D01*
X108613200Y-62830618D02*
X109327485Y-63068713D01*
X109327485Y-63068713D02*
X109327485Y-62449666D01*
X107025580Y-64642999D02*
X107073200Y-64595380D01*
X107073200Y-64595380D02*
X107120819Y-64642999D01*
X107120819Y-64642999D02*
X107073200Y-64690618D01*
X107073200Y-64690618D02*
X107025580Y-64642999D01*
X107025580Y-64642999D02*
X107120819Y-64642999D01*
X74803095Y-69332200D02*
X74945952Y-69379819D01*
X74945952Y-69379819D02*
X75184047Y-69379819D01*
X75184047Y-69379819D02*
X75279285Y-69332200D01*
X75279285Y-69332200D02*
X75326904Y-69284580D01*
X75326904Y-69284580D02*
X75374523Y-69189342D01*
X75374523Y-69189342D02*
X75374523Y-69094104D01*
X75374523Y-69094104D02*
X75326904Y-68998866D01*
X75326904Y-68998866D02*
X75279285Y-68951247D01*
X75279285Y-68951247D02*
X75184047Y-68903628D01*
X75184047Y-68903628D02*
X74993571Y-68856009D01*
X74993571Y-68856009D02*
X74898333Y-68808390D01*
X74898333Y-68808390D02*
X74850714Y-68760771D01*
X74850714Y-68760771D02*
X74803095Y-68665533D01*
X74803095Y-68665533D02*
X74803095Y-68570295D01*
X74803095Y-68570295D02*
X74850714Y-68475057D01*
X74850714Y-68475057D02*
X74898333Y-68427438D01*
X74898333Y-68427438D02*
X74993571Y-68379819D01*
X74993571Y-68379819D02*
X75231666Y-68379819D01*
X75231666Y-68379819D02*
X75374523Y-68427438D01*
X75707857Y-68379819D02*
X76326904Y-68379819D01*
X76326904Y-68379819D02*
X75993571Y-68760771D01*
X75993571Y-68760771D02*
X76136428Y-68760771D01*
X76136428Y-68760771D02*
X76231666Y-68808390D01*
X76231666Y-68808390D02*
X76279285Y-68856009D01*
X76279285Y-68856009D02*
X76326904Y-68951247D01*
X76326904Y-68951247D02*
X76326904Y-69189342D01*
X76326904Y-69189342D02*
X76279285Y-69284580D01*
X76279285Y-69284580D02*
X76231666Y-69332200D01*
X76231666Y-69332200D02*
X76136428Y-69379819D01*
X76136428Y-69379819D02*
X75850714Y-69379819D01*
X75850714Y-69379819D02*
X75755476Y-69332200D01*
X75755476Y-69332200D02*
X75707857Y-69284580D01*
D14*
G36*
X81048803Y-56012920D02*
G01*
X81097320Y-56018832D01*
X81148799Y-56031410D01*
X81161347Y-56035862D01*
X81207005Y-56056493D01*
X81248716Y-56083649D01*
X81267837Y-56100342D01*
X81302670Y-56138578D01*
X81331307Y-56181374D01*
X81332805Y-56184117D01*
X81354360Y-56231684D01*
X81369313Y-56279215D01*
X81371151Y-56286455D01*
X81382096Y-56335744D01*
X81390352Y-56385945D01*
X81395920Y-56437057D01*
X81398800Y-56489081D01*
X81399239Y-56519219D01*
X81398423Y-56568864D01*
X81394798Y-56631077D01*
X81388272Y-56688741D01*
X81378846Y-56741856D01*
X81366519Y-56790423D01*
X81347032Y-56844733D01*
X81323013Y-56891936D01*
X81306427Y-56916846D01*
X81266917Y-56959593D01*
X81226803Y-56988460D01*
X81180153Y-57011185D01*
X81126969Y-57027768D01*
X81067248Y-57038209D01*
X81014767Y-57042140D01*
X80986957Y-57042631D01*
X80933718Y-57040714D01*
X80885130Y-57034964D01*
X80835297Y-57023698D01*
X80786497Y-57005040D01*
X80781549Y-57002575D01*
X80739689Y-56976970D01*
X80702311Y-56945491D01*
X80669416Y-56908139D01*
X80653077Y-56884850D01*
X80628050Y-56837784D01*
X80610657Y-56789904D01*
X80597696Y-56740082D01*
X80596413Y-56734152D01*
X80587544Y-56685029D01*
X80581209Y-56633402D01*
X80577408Y-56579272D01*
X80576161Y-56529854D01*
X80576150Y-56525813D01*
X80853845Y-56525813D01*
X80854674Y-56582255D01*
X80857160Y-56632817D01*
X80862332Y-56685731D01*
X80871383Y-56736763D01*
X80887795Y-56785443D01*
X80917585Y-56827861D01*
X80963279Y-56852605D01*
X80986469Y-56855053D01*
X81035203Y-56843508D01*
X81060230Y-56825499D01*
X81088760Y-56784448D01*
X81105216Y-56736149D01*
X81106148Y-56732198D01*
X81114630Y-56679916D01*
X81118951Y-56624560D01*
X81120683Y-56573678D01*
X81121047Y-56533140D01*
X81120218Y-56474412D01*
X81117731Y-56422029D01*
X81112559Y-56367544D01*
X81103508Y-56315525D01*
X81087097Y-56266916D01*
X81056826Y-56225242D01*
X81013180Y-56201800D01*
X80985003Y-56198528D01*
X80934973Y-56210016D01*
X80897600Y-56244481D01*
X80884620Y-56268137D01*
X80869743Y-56316662D01*
X80861539Y-56367361D01*
X80856850Y-56419839D01*
X80854596Y-56469934D01*
X80853845Y-56525813D01*
X80576150Y-56525813D01*
X80576141Y-56522638D01*
X80577049Y-56470833D01*
X80579773Y-56422028D01*
X80586230Y-56361624D01*
X80595916Y-56306555D01*
X80608830Y-56256821D01*
X80629513Y-56202156D01*
X80655241Y-56155827D01*
X80679456Y-56124766D01*
X80722085Y-56086086D01*
X80763409Y-56059966D01*
X80810003Y-56039404D01*
X80861869Y-56024398D01*
X80919006Y-56014951D01*
X80968511Y-56011394D01*
X80994529Y-56010949D01*
X81048803Y-56012920D01*
G37*
G36*
X123527885Y-56698737D02*
G01*
X123527885Y-56464264D01*
X124008555Y-56464264D01*
X124008555Y-56870196D01*
X123966206Y-56899927D01*
X123917434Y-56931480D01*
X123870894Y-56958534D01*
X123826587Y-56981088D01*
X123777717Y-57001715D01*
X123764312Y-57006483D01*
X123716032Y-57020568D01*
X123663941Y-57031194D01*
X123608040Y-57038360D01*
X123557093Y-57041749D01*
X123512498Y-57042631D01*
X123458091Y-57041152D01*
X123406916Y-57036716D01*
X123349771Y-57027488D01*
X123297281Y-57014001D01*
X123249445Y-56996255D01*
X123220139Y-56982059D01*
X123173191Y-56952730D01*
X123131081Y-56917745D01*
X123093810Y-56877103D01*
X123061378Y-56830804D01*
X123045017Y-56801808D01*
X123023934Y-56755600D01*
X123007213Y-56706919D01*
X122994854Y-56655766D01*
X122986857Y-56602139D01*
X122983222Y-56546040D01*
X122982980Y-56526790D01*
X122984637Y-56476772D01*
X122991003Y-56419504D01*
X123002143Y-56365242D01*
X123018057Y-56313986D01*
X123038745Y-56265734D01*
X123050879Y-56242736D01*
X123078648Y-56199450D01*
X123110848Y-56160269D01*
X123147479Y-56125193D01*
X123188540Y-56094221D01*
X123234033Y-56067353D01*
X123250181Y-56059309D01*
X123298343Y-56040466D01*
X123353284Y-56026251D01*
X123405772Y-56017750D01*
X123463239Y-56012649D01*
X123514933Y-56010996D01*
X123525687Y-56010949D01*
X123575767Y-56011713D01*
X123630446Y-56014643D01*
X123679219Y-56019773D01*
X123728653Y-56028535D01*
X123775303Y-56042212D01*
X123824286Y-56064986D01*
X123867734Y-56094534D01*
X123905649Y-56130855D01*
X123912568Y-56138933D01*
X123941198Y-56178534D01*
X123965539Y-56223700D01*
X123985591Y-56274430D01*
X123994878Y-56305018D01*
X123694703Y-56354843D01*
X123671612Y-56310629D01*
X123634442Y-56275534D01*
X123631689Y-56273755D01*
X123584877Y-56253418D01*
X123535625Y-56245865D01*
X123518848Y-56245422D01*
X123464568Y-56250697D01*
X123416856Y-56266520D01*
X123375713Y-56292892D01*
X123355694Y-56312101D01*
X123326296Y-56355751D01*
X123308241Y-56404867D01*
X123298679Y-56455807D01*
X123295115Y-56505386D01*
X123294878Y-56523127D01*
X123297042Y-56577646D01*
X123305036Y-56633438D01*
X123318920Y-56680816D01*
X123342001Y-56724657D01*
X123356427Y-56742457D01*
X123394874Y-56774217D01*
X123440971Y-56795582D01*
X123494719Y-56806554D01*
X123527885Y-56808158D01*
X123578749Y-56805593D01*
X123627292Y-56797900D01*
X123674895Y-56785116D01*
X123724649Y-56767472D01*
X123735980Y-56762973D01*
X123735980Y-56698737D01*
X123527885Y-56698737D01*
G37*
G36*
X124189051Y-56026581D02*
G01*
X124479700Y-56026581D01*
X124859009Y-56590293D01*
X124859009Y-56026581D01*
X125152100Y-56026581D01*
X125152100Y-57027000D01*
X124859009Y-57027000D01*
X124481654Y-56466218D01*
X124481654Y-57027000D01*
X124189051Y-57027000D01*
X124189051Y-56026581D01*
G37*
G36*
X125868489Y-56027877D02*
G01*
X125921433Y-56032668D01*
X125975816Y-56042464D01*
X126023664Y-56056870D01*
X126039923Y-56063461D01*
X126085003Y-56086738D01*
X126125446Y-56115076D01*
X126161253Y-56148476D01*
X126179142Y-56169219D01*
X126207658Y-56209758D01*
X126231383Y-56253892D01*
X126250316Y-56301619D01*
X126258765Y-56329686D01*
X126270689Y-56381938D01*
X126278711Y-56435929D01*
X126282566Y-56485380D01*
X126283433Y-56523371D01*
X126282137Y-56581013D01*
X126278247Y-56633589D01*
X126270431Y-56688525D01*
X126259086Y-56736565D01*
X126246553Y-56772254D01*
X126223684Y-56819610D01*
X126196295Y-56862483D01*
X126164385Y-56900874D01*
X126144703Y-56920265D01*
X126102991Y-56953625D01*
X126059371Y-56979208D01*
X126013843Y-56997016D01*
X126004508Y-56999644D01*
X125954545Y-57011612D01*
X125901220Y-57020989D01*
X125850947Y-57026038D01*
X125819128Y-57027000D01*
X125356776Y-57027000D01*
X125356776Y-56261054D01*
X125667941Y-56261054D01*
X125667941Y-56792526D01*
X125744145Y-56792526D01*
X125794519Y-56790884D01*
X125844017Y-56784417D01*
X125882875Y-56771766D01*
X125921631Y-56740694D01*
X125947355Y-56698737D01*
X125961643Y-56650469D01*
X125968513Y-56596392D01*
X125970711Y-56544063D01*
X125970802Y-56529721D01*
X125968965Y-56475179D01*
X125962176Y-56420228D01*
X125948292Y-56368876D01*
X125924864Y-56325702D01*
X125918534Y-56318207D01*
X125879293Y-56288068D01*
X125832475Y-56270486D01*
X125781710Y-56262449D01*
X125745610Y-56261054D01*
X125667941Y-56261054D01*
X125356776Y-56261054D01*
X125356776Y-56026581D01*
X125819128Y-56026581D01*
X125868489Y-56027877D01*
G37*
G36*
X113747495Y-56323580D02*
G01*
X113482980Y-56279616D01*
X113497482Y-56232945D01*
X113519807Y-56183921D01*
X113547952Y-56140741D01*
X113581917Y-56103405D01*
X113609742Y-56080314D01*
X113654503Y-56053286D01*
X113706720Y-56032897D01*
X113757413Y-56020704D01*
X113813584Y-56013388D01*
X113864578Y-56011017D01*
X113875234Y-56010949D01*
X113934234Y-56012690D01*
X113987891Y-56017914D01*
X114036205Y-56026620D01*
X114087130Y-56041664D01*
X114136818Y-56065553D01*
X114160509Y-56082268D01*
X114198978Y-56120111D01*
X114226455Y-56162563D01*
X114242941Y-56209626D01*
X114248437Y-56261298D01*
X114242511Y-56310563D01*
X114222876Y-56359289D01*
X114212533Y-56375604D01*
X114177554Y-56415182D01*
X114138573Y-56445396D01*
X114104822Y-56465485D01*
X114153483Y-56480244D01*
X114193971Y-56499435D01*
X114233527Y-56530577D01*
X114264576Y-56569292D01*
X114271884Y-56581745D01*
X114290918Y-56629984D01*
X114299048Y-56681558D01*
X114299728Y-56703133D01*
X114296076Y-56752445D01*
X114285122Y-56800635D01*
X114266864Y-56847705D01*
X114253566Y-56873371D01*
X114224530Y-56916165D01*
X114189080Y-56953046D01*
X114147216Y-56984016D01*
X114121186Y-56998667D01*
X114074551Y-57017901D01*
X114021108Y-57031640D01*
X113968760Y-57039153D01*
X113919741Y-57042245D01*
X113893796Y-57042631D01*
X113844357Y-57041506D01*
X113791822Y-57037350D01*
X113738566Y-57028852D01*
X113687301Y-57014510D01*
X113677153Y-57010635D01*
X113630284Y-56987599D01*
X113588901Y-56958791D01*
X113553004Y-56924210D01*
X113546483Y-56916602D01*
X113516892Y-56874751D01*
X113491929Y-56826747D01*
X113473418Y-56778282D01*
X113468081Y-56761019D01*
X113747495Y-56730000D01*
X113762344Y-56776860D01*
X113788150Y-56818338D01*
X113798541Y-56827942D01*
X113843707Y-56849863D01*
X113886957Y-56855053D01*
X113935490Y-56846520D01*
X113978148Y-56818607D01*
X113980502Y-56816218D01*
X114007500Y-56773946D01*
X114017785Y-56724325D01*
X114018116Y-56712415D01*
X114012150Y-56663594D01*
X113990440Y-56619583D01*
X113981968Y-56610077D01*
X113939592Y-56582783D01*
X113888107Y-56573720D01*
X113884271Y-56573685D01*
X113833418Y-56579791D01*
X113793657Y-56589316D01*
X113808067Y-56383175D01*
X113844459Y-56386106D01*
X113894834Y-56378596D01*
X113936050Y-56356064D01*
X113966844Y-56316515D01*
X113972931Y-56284990D01*
X113958673Y-56236664D01*
X113945331Y-56222219D01*
X113900487Y-56201327D01*
X113869860Y-56198528D01*
X113819955Y-56207338D01*
X113789260Y-56226371D01*
X113762146Y-56267552D01*
X113748946Y-56315043D01*
X113747495Y-56323580D01*
G37*
G36*
X114354927Y-56026581D02*
G01*
X114680502Y-56026581D01*
X114907160Y-56746609D01*
X115130398Y-56026581D01*
X115446448Y-56026581D01*
X115072756Y-57027000D01*
X114735457Y-57027000D01*
X114354927Y-56026581D01*
G37*
G36*
X103296587Y-56960000D02*
G01*
X102457124Y-56960000D01*
X102466234Y-56905681D01*
X102480953Y-56852789D01*
X102501283Y-56801323D01*
X102527222Y-56751283D01*
X102544563Y-56723328D01*
X102576540Y-56680409D01*
X102610061Y-56642741D01*
X102649832Y-56603344D01*
X102686148Y-56570581D01*
X102726463Y-56536711D01*
X102770778Y-56501735D01*
X102819092Y-56465652D01*
X102862129Y-56433475D01*
X102904437Y-56399798D01*
X102942371Y-56366406D01*
X102976385Y-56329364D01*
X103001104Y-56286703D01*
X103010823Y-56240949D01*
X102998854Y-56191737D01*
X102976873Y-56163524D01*
X102933116Y-56137652D01*
X102891388Y-56131528D01*
X102842601Y-56140198D01*
X102803705Y-56166210D01*
X102776761Y-56210088D01*
X102762238Y-56261883D01*
X102758032Y-56287843D01*
X102477641Y-56264640D01*
X102486216Y-56215518D01*
X102499222Y-56165475D01*
X102517941Y-56116950D01*
X102538213Y-56080725D01*
X102569197Y-56042386D01*
X102607193Y-56010105D01*
X102652201Y-55983882D01*
X102662044Y-55979364D01*
X102711976Y-55962245D01*
X102764534Y-55951731D01*
X102816833Y-55946163D01*
X102866349Y-55944088D01*
X102883817Y-55943949D01*
X102936836Y-55945117D01*
X102992876Y-55949431D01*
X103042651Y-55956925D01*
X103091866Y-55969381D01*
X103113405Y-55977166D01*
X103161390Y-56001233D01*
X103202458Y-56032216D01*
X103236609Y-56070117D01*
X103242609Y-56078527D01*
X103267468Y-56122891D01*
X103283119Y-56170500D01*
X103289564Y-56221352D01*
X103289748Y-56231912D01*
X103285479Y-56281989D01*
X103272669Y-56330830D01*
X103251321Y-56378434D01*
X103235771Y-56404347D01*
X103203271Y-56446509D01*
X103165793Y-56485054D01*
X103126953Y-56519321D01*
X103081913Y-56554721D01*
X103039644Y-56585087D01*
X102996532Y-56614648D01*
X102955857Y-56643381D01*
X102926559Y-56665443D01*
X102889298Y-56697700D01*
X102859637Y-56725526D01*
X103296587Y-56725526D01*
X103296587Y-56960000D01*
G37*
G36*
X91610195Y-56010949D02*
G01*
X91610195Y-57027000D01*
X91327118Y-57027000D01*
X91327118Y-56361682D01*
X91284652Y-56392980D01*
X91243045Y-56420319D01*
X91198269Y-56445819D01*
X91194250Y-56447900D01*
X91146249Y-56470251D01*
X91095950Y-56490019D01*
X91045257Y-56507362D01*
X91033294Y-56511159D01*
X91033294Y-56276685D01*
X91084625Y-56259097D01*
X91131456Y-56240221D01*
X91180407Y-56216570D01*
X91223233Y-56191167D01*
X91255066Y-56167997D01*
X91292374Y-56134277D01*
X91325408Y-56096862D01*
X91354168Y-56055753D01*
X91378653Y-56010949D01*
X91610195Y-56010949D01*
G37*
D15*
X114806248Y-67416000D02*
X116228752Y-67416000D01*
X114806248Y-69236000D02*
X116228752Y-69236000D01*
X108456248Y-67416000D02*
X109878752Y-67416000D01*
X108456248Y-69236000D02*
X109878752Y-69236000D01*
X102106248Y-67416000D02*
X103528752Y-67416000D01*
X102106248Y-69236000D02*
X103528752Y-69236000D01*
X95756248Y-67416000D02*
X97178752Y-67416000D01*
X95756248Y-69236000D02*
X97178752Y-69236000D01*
X89406248Y-67416000D02*
X90828752Y-67416000D01*
X89406248Y-69236000D02*
X90828752Y-69236000D01*
X85986000Y-62645936D02*
X85986000Y-64100064D01*
X84166000Y-62645936D02*
X84166000Y-64100064D01*
X59703936Y-52811000D02*
X61158064Y-52811000D01*
X59703936Y-54631000D02*
X61158064Y-54631000D01*
X146128064Y-54631000D02*
X144673936Y-54631000D01*
X146128064Y-52811000D02*
X144673936Y-52811000D01*
X79015000Y-78012936D02*
X79015000Y-79467064D01*
X77195000Y-78012936D02*
X77195000Y-79467064D01*
X82190000Y-78012936D02*
X82190000Y-79467064D01*
X80370000Y-78012936D02*
X80370000Y-79467064D01*
X85365000Y-78012936D02*
X85365000Y-79467064D01*
X83545000Y-78012936D02*
X83545000Y-79467064D01*
X88540000Y-78012936D02*
X88540000Y-79467064D01*
X86720000Y-78012936D02*
X86720000Y-79467064D01*
X150008000Y-78266936D02*
X150008000Y-79721064D01*
X148188000Y-78266936D02*
X148188000Y-79721064D01*
X146833000Y-78266936D02*
X146833000Y-79721064D01*
X145013000Y-78266936D02*
X145013000Y-79721064D01*
D16*
X136858000Y-77458000D02*
X136858000Y-71458000D01*
X136858000Y-71458000D02*
X130858000Y-71458000D01*
X130858000Y-77458000D02*
X136858000Y-77458000D01*
X130858000Y-71458000D02*
X130858000Y-77458000D01*
D11*
X127708000Y-72208000D02*
G75*
G02*
X127508000Y-72208000I-100000J0D01*
G01*
X127508000Y-72208000D02*
G75*
G02*
X127708000Y-72208000I100000J0D01*
G01*
D15*
X112806000Y-66933000D02*
X112806000Y-59633000D01*
X118306000Y-59633000D02*
X117156000Y-59633000D01*
X118306000Y-66933000D02*
X118306000Y-59633000D01*
X96795000Y-79451252D02*
X96795000Y-78028748D01*
X94975000Y-79451252D02*
X94975000Y-78028748D01*
X87406000Y-66935200D02*
X87406000Y-59635200D01*
X92906000Y-59635200D02*
X91756000Y-59635200D01*
X92906000Y-66935200D02*
X92906000Y-59635200D01*
D14*
X142305000Y-56479000D02*
X142305000Y-51979000D01*
X142305000Y-51979000D02*
X145805000Y-51979000D01*
X136605000Y-51579000D02*
X142005000Y-51579000D01*
X136305000Y-51979000D02*
X136305000Y-56479000D01*
X132805000Y-51979000D02*
X136305000Y-51979000D01*
D16*
X143876500Y-70183000D02*
X143876500Y-64183000D01*
X143876500Y-64183000D02*
X137876500Y-64183000D01*
X137876500Y-70183000D02*
X143876500Y-70183000D01*
X137876500Y-64183000D02*
X137876500Y-70183000D01*
D11*
X134726500Y-64933000D02*
G75*
G02*
X134526500Y-64933000I-100000J0D01*
G01*
X134526500Y-64933000D02*
G75*
G02*
X134726500Y-64933000I100000J0D01*
G01*
D16*
X58595000Y-67830000D02*
X58595000Y-73830000D01*
X58595000Y-73830000D02*
X64595000Y-73830000D01*
X64595000Y-67830000D02*
X58595000Y-67830000D01*
X64595000Y-73830000D02*
X64595000Y-67830000D01*
D11*
X55445000Y-68580000D02*
G75*
G02*
X55245000Y-68580000I-100000J0D01*
G01*
X55245000Y-68580000D02*
G75*
G02*
X55445000Y-68580000I100000J0D01*
G01*
D14*
X69661000Y-56479000D02*
X69661000Y-51979000D01*
X69661000Y-51979000D02*
X73161000Y-51979000D01*
X63961000Y-51579000D02*
X69361000Y-51579000D01*
X63661000Y-51979000D02*
X63661000Y-56479000D01*
X60161000Y-51979000D02*
X63661000Y-51979000D01*
D17*
X97852200Y-77089000D02*
X97852200Y-78359000D01*
X97852200Y-78359000D02*
X97852200Y-78968600D01*
X97852200Y-78968600D02*
X97852200Y-80238600D01*
X107859800Y-80238600D02*
X107859800Y-77089000D01*
X97852200Y-78359000D02*
G75*
G02*
X97852200Y-78968600I0J-304800D01*
G01*
D16*
X65580000Y-60555000D02*
X65580000Y-66555000D01*
X65580000Y-66555000D02*
X71580000Y-66555000D01*
X71580000Y-60555000D02*
X65580000Y-60555000D01*
X71580000Y-66555000D02*
X71580000Y-60555000D01*
D11*
X62430000Y-61305000D02*
G75*
G02*
X62230000Y-61305000I-100000J0D01*
G01*
X62230000Y-61305000D02*
G75*
G02*
X62430000Y-61305000I100000J0D01*
G01*
D15*
X93756000Y-66933000D02*
X93756000Y-59633000D01*
X99256000Y-59633000D02*
X98106000Y-59633000D01*
X99256000Y-66933000D02*
X99256000Y-59633000D01*
X100106000Y-66933000D02*
X100106000Y-59633000D01*
X105606000Y-59633000D02*
X104456000Y-59633000D01*
X105606000Y-66933000D02*
X105606000Y-59633000D01*
D16*
X65580000Y-75105000D02*
X65580000Y-81105000D01*
X65580000Y-81105000D02*
X71580000Y-81105000D01*
X71580000Y-75105000D02*
X65580000Y-75105000D01*
X71580000Y-81105000D02*
X71580000Y-75105000D01*
D11*
X62430000Y-75855000D02*
G75*
G02*
X62230000Y-75855000I-100000J0D01*
G01*
X62230000Y-75855000D02*
G75*
G02*
X62430000Y-75855000I100000J0D01*
G01*
D15*
X106456000Y-66933000D02*
X106456000Y-59633000D01*
X111956000Y-59633000D02*
X110806000Y-59633000D01*
X111956000Y-66933000D02*
X111956000Y-59633000D01*
D16*
X72565000Y-67830000D02*
X72565000Y-73830000D01*
X72565000Y-73830000D02*
X78565000Y-73830000D01*
X78565000Y-67830000D02*
X72565000Y-67830000D01*
X78565000Y-73830000D02*
X78565000Y-67830000D01*
D11*
X69415000Y-68580000D02*
G75*
G02*
X69215000Y-68580000I-100000J0D01*
G01*
X69215000Y-68580000D02*
G75*
G02*
X69415000Y-68580000I100000J0D01*
G01*
D14*
X77325607Y-57197000D02*
X77325607Y-49797000D01*
X126918500Y-58797000D02*
X78925607Y-58797000D01*
X128518500Y-49797000D02*
X128518500Y-57197000D01*
X78925607Y-58797000D02*
G75*
G02*
X77325607Y-57197000I-1J1599999D01*
G01*
X128518500Y-57197000D02*
G75*
G02*
X126918500Y-58797000I-1600000J0D01*
G01*
%LPC*%
D18*
G36*
X113538752Y-77212778D02*
G01*
X113570010Y-77219288D01*
X113602383Y-77235456D01*
X113631324Y-77260349D01*
X113655661Y-77292132D01*
X113674219Y-77328967D01*
X113685824Y-77369016D01*
X113689354Y-77406056D01*
X113689354Y-77421993D01*
X113495060Y-77421993D01*
X113300766Y-77421993D01*
X113304081Y-77404440D01*
X113316991Y-77359592D01*
X113337560Y-77317549D01*
X113364384Y-77280275D01*
X113396056Y-77249732D01*
X113430115Y-77228379D01*
X113463337Y-77217252D01*
X113501023Y-77211956D01*
X113538752Y-77212778D01*
G37*
G36*
X116595609Y-77212778D02*
G01*
X116626868Y-77219288D01*
X116659240Y-77235456D01*
X116688182Y-77260349D01*
X116712518Y-77292132D01*
X116731076Y-77328967D01*
X116742681Y-77369016D01*
X116746211Y-77406056D01*
X116746211Y-77421993D01*
X116551917Y-77421993D01*
X116357623Y-77421993D01*
X116360938Y-77404440D01*
X116373848Y-77359592D01*
X116394418Y-77317549D01*
X116421241Y-77280275D01*
X116452914Y-77249732D01*
X116486972Y-77228379D01*
X116520194Y-77217252D01*
X116557880Y-77211956D01*
X116595609Y-77212778D01*
G37*
G36*
X117095949Y-80428893D02*
G01*
X117094563Y-80816401D01*
X117010533Y-80817883D01*
X116981428Y-80818164D01*
X116956205Y-80817967D01*
X116936805Y-80817343D01*
X116925171Y-80816341D01*
X116922770Y-80815632D01*
X116922154Y-80809748D01*
X116921571Y-80793929D01*
X116921027Y-80769043D01*
X116920532Y-80735957D01*
X116920093Y-80695538D01*
X116919719Y-80648654D01*
X116919418Y-80596171D01*
X116919199Y-80538957D01*
X116919070Y-80477879D01*
X116919037Y-80426642D01*
X116919037Y-80041385D01*
X117008186Y-80041385D01*
X117097335Y-80041385D01*
X117095949Y-80428893D01*
G37*
G36*
X113408512Y-80243915D02*
G01*
X113408512Y-80819101D01*
X113322999Y-80819101D01*
X113293640Y-80818884D01*
X113268164Y-80818286D01*
X113248494Y-80817384D01*
X113236548Y-80816256D01*
X113233886Y-80815500D01*
X113233397Y-80809720D01*
X113232927Y-80793848D01*
X113232482Y-80768591D01*
X113232065Y-80734658D01*
X113231681Y-80692760D01*
X113231334Y-80643603D01*
X113231029Y-80587898D01*
X113230770Y-80526352D01*
X113230562Y-80459675D01*
X113230409Y-80388575D01*
X113230315Y-80313761D01*
X113230285Y-80240314D01*
X113230285Y-79668729D01*
X113319399Y-79668729D01*
X113408512Y-79668729D01*
X113408512Y-80243915D01*
G37*
G36*
X117041391Y-79682686D02*
G01*
X117055665Y-79686827D01*
X117080950Y-79702557D01*
X117098885Y-79724214D01*
X117109452Y-79749791D01*
X117112631Y-79777282D01*
X117108402Y-79804679D01*
X117096747Y-79829974D01*
X117077645Y-79851162D01*
X117057385Y-79863627D01*
X117034206Y-79870543D01*
X117007299Y-79873291D01*
X116981674Y-79871632D01*
X116967644Y-79867907D01*
X116949601Y-79857008D01*
X116931395Y-79840120D01*
X116917150Y-79821171D01*
X116915543Y-79818266D01*
X116909465Y-79798454D01*
X116907723Y-79774054D01*
X116910329Y-79750279D01*
X116915342Y-79735612D01*
X116929752Y-79715198D01*
X116948997Y-79697184D01*
X116968935Y-79685432D01*
X116969346Y-79685275D01*
X116990550Y-79680722D01*
X117016388Y-79679892D01*
X117041391Y-79682686D01*
G37*
G36*
X119495046Y-77555599D02*
G01*
X119490863Y-77614757D01*
X119479108Y-77666789D01*
X119459901Y-77711461D01*
X119433364Y-77748541D01*
X119399619Y-77777795D01*
X119371111Y-77793797D01*
X119341433Y-77803537D01*
X119307085Y-77808799D01*
X119272462Y-77809274D01*
X119241959Y-77804651D01*
X119237182Y-77803233D01*
X119203616Y-77787257D01*
X119177923Y-77764335D01*
X119160663Y-77735476D01*
X119152399Y-77701686D01*
X119153691Y-77663972D01*
X119155129Y-77656130D01*
X119161319Y-77633983D01*
X119170858Y-77617025D01*
X119183981Y-77602371D01*
X119193824Y-77593116D01*
X119203949Y-77585147D01*
X119215409Y-77578190D01*
X119229259Y-77571975D01*
X119246552Y-77566230D01*
X119268341Y-77560684D01*
X119295680Y-77555064D01*
X119329623Y-77549099D01*
X119371223Y-77542519D01*
X119421535Y-77535050D01*
X119474969Y-77527368D01*
X119495222Y-77524480D01*
X119495046Y-77555599D01*
G37*
G36*
X111501538Y-79729387D02*
G01*
X111518857Y-79730178D01*
X111528104Y-79731394D01*
X111529127Y-79732044D01*
X111527114Y-79737464D01*
X111521214Y-79752264D01*
X111511673Y-79775845D01*
X111498737Y-79807606D01*
X111482654Y-79846949D01*
X111463668Y-79893273D01*
X111442026Y-79945979D01*
X111417975Y-80004467D01*
X111391761Y-80068137D01*
X111363629Y-80136391D01*
X111333826Y-80208629D01*
X111302599Y-80284250D01*
X111270193Y-80362655D01*
X111268538Y-80366657D01*
X111007853Y-80997074D01*
X110928528Y-80997201D01*
X110849203Y-80997328D01*
X110886334Y-80906864D01*
X110893494Y-80889449D01*
X110904449Y-80862840D01*
X110918873Y-80827831D01*
X110936439Y-80785210D01*
X110956821Y-80735771D01*
X110979694Y-80680304D01*
X111004730Y-80619602D01*
X111031603Y-80554454D01*
X111059987Y-80485653D01*
X111089555Y-80413989D01*
X111119981Y-80340255D01*
X111147482Y-80273619D01*
X111371498Y-79730838D01*
X111450264Y-79729344D01*
X111478042Y-79729087D01*
X111501538Y-79729387D01*
G37*
G36*
X118398370Y-79729387D02*
G01*
X118415689Y-79730178D01*
X118424936Y-79731394D01*
X118425959Y-79732044D01*
X118423946Y-79737464D01*
X118418045Y-79752264D01*
X118408504Y-79775845D01*
X118395569Y-79807606D01*
X118379485Y-79846949D01*
X118360500Y-79893273D01*
X118338858Y-79945979D01*
X118314807Y-80004467D01*
X118288592Y-80068137D01*
X118260461Y-80136391D01*
X118230658Y-80208629D01*
X118199431Y-80284250D01*
X118167025Y-80362655D01*
X118165370Y-80366657D01*
X117904685Y-80997074D01*
X117825360Y-80997201D01*
X117746035Y-80997328D01*
X117783166Y-80906864D01*
X117790326Y-80889449D01*
X117801281Y-80862840D01*
X117815704Y-80827831D01*
X117833271Y-80785210D01*
X117853653Y-80735771D01*
X117876526Y-80680304D01*
X117901562Y-80619602D01*
X117928435Y-80554454D01*
X117956818Y-80485653D01*
X117986387Y-80413989D01*
X118016813Y-80340255D01*
X118044313Y-80273619D01*
X118268330Y-79730838D01*
X118347096Y-79729344D01*
X118374874Y-79729087D01*
X118398370Y-79729387D01*
G37*
G36*
X120386899Y-77223911D02*
G01*
X120404221Y-77227485D01*
X120419630Y-77232660D01*
X120460498Y-77253502D01*
X120494407Y-77282523D01*
X120521274Y-77319572D01*
X120541019Y-77364499D01*
X120553560Y-77417155D01*
X120558815Y-77477390D01*
X120558983Y-77489503D01*
X120555692Y-77554151D01*
X120545609Y-77612430D01*
X120529052Y-77663860D01*
X120506339Y-77707962D01*
X120477791Y-77744257D01*
X120443726Y-77772265D01*
X120404462Y-77791507D01*
X120360319Y-77801504D01*
X120350857Y-77802357D01*
X120327617Y-77802965D01*
X120304918Y-77801965D01*
X120290196Y-77800014D01*
X120247762Y-77785765D01*
X120210235Y-77762466D01*
X120178420Y-77731062D01*
X120153122Y-77692497D01*
X120135148Y-77647715D01*
X120126621Y-77608321D01*
X120124101Y-77581223D01*
X120123033Y-77547986D01*
X120123308Y-77511567D01*
X120124820Y-77474923D01*
X120127460Y-77441012D01*
X120131119Y-77412790D01*
X120134315Y-77397689D01*
X120151878Y-77350984D01*
X120177124Y-77309391D01*
X120208844Y-77274458D01*
X120245832Y-77247733D01*
X120255189Y-77242796D01*
X120275012Y-77233798D01*
X120292514Y-77228210D01*
X120311961Y-77225044D01*
X120337619Y-77223314D01*
X120339899Y-77223215D01*
X120366778Y-77222644D01*
X120386899Y-77223911D01*
G37*
G36*
X112532713Y-77226059D02*
G01*
X112572218Y-77238000D01*
X112607665Y-77258908D01*
X112640731Y-77289318D01*
X112656537Y-77309152D01*
X112671539Y-77332262D01*
X112678536Y-77345436D01*
X112683223Y-77355723D01*
X112686761Y-77365031D01*
X112689311Y-77375040D01*
X112691035Y-77387430D01*
X112692095Y-77403881D01*
X112692653Y-77426074D01*
X112692869Y-77455688D01*
X112692905Y-77494405D01*
X112692905Y-77494904D01*
X112692796Y-77535271D01*
X112692387Y-77566581D01*
X112691556Y-77590575D01*
X112690182Y-77608995D01*
X112688144Y-77623585D01*
X112685318Y-77636086D01*
X112682345Y-77645948D01*
X112664581Y-77686619D01*
X112639835Y-77723787D01*
X112609865Y-77755513D01*
X112576430Y-77779856D01*
X112549783Y-77792227D01*
X112526002Y-77798156D01*
X112497081Y-77801943D01*
X112467361Y-77803311D01*
X112441183Y-77801981D01*
X112429593Y-77799930D01*
X112387514Y-77783981D01*
X112350724Y-77759187D01*
X112319618Y-77726331D01*
X112294591Y-77686196D01*
X112276036Y-77639565D01*
X112264348Y-77587222D01*
X112259921Y-77529949D01*
X112263076Y-77469180D01*
X112273583Y-77410097D01*
X112290784Y-77358339D01*
X112314322Y-77314302D01*
X112343840Y-77278378D01*
X112378980Y-77250963D01*
X112419385Y-77232449D01*
X112464698Y-77223231D01*
X112487169Y-77222221D01*
X112532713Y-77226059D01*
G37*
G36*
X121805413Y-77225076D02*
G01*
X121826033Y-77225991D01*
X121841469Y-77228029D01*
X121854526Y-77231608D01*
X121868012Y-77237146D01*
X121872226Y-77239095D01*
X121912169Y-77263066D01*
X121945029Y-77294366D01*
X121971018Y-77333348D01*
X121990349Y-77380361D01*
X122003232Y-77435756D01*
X122006831Y-77462139D01*
X122009771Y-77519698D01*
X122005907Y-77575133D01*
X121995666Y-77627037D01*
X121979475Y-77674004D01*
X121957762Y-77714627D01*
X121930955Y-77747498D01*
X121916309Y-77760182D01*
X121882924Y-77779847D01*
X121843094Y-77794105D01*
X121800054Y-77802338D01*
X121757044Y-77803924D01*
X121717431Y-77798277D01*
X121670437Y-77781008D01*
X121629793Y-77755054D01*
X121595894Y-77720742D01*
X121569132Y-77678397D01*
X121566698Y-77673385D01*
X121552286Y-77639432D01*
X121542673Y-77607324D01*
X121537111Y-77573397D01*
X121534853Y-77533987D01*
X121534707Y-77516507D01*
X121536177Y-77470622D01*
X121540841Y-77431993D01*
X121549336Y-77397378D01*
X121562298Y-77363539D01*
X121566558Y-77354301D01*
X121588548Y-77315035D01*
X121613842Y-77284286D01*
X121644556Y-77259834D01*
X121670489Y-77245237D01*
X121688248Y-77236643D01*
X121702199Y-77230886D01*
X121715306Y-77227397D01*
X121730535Y-77225610D01*
X121750853Y-77224955D01*
X121776802Y-77224863D01*
X121805413Y-77225076D01*
G37*
G36*
X123462279Y-77227478D02*
G01*
X123505045Y-77242540D01*
X123543190Y-77266810D01*
X123575769Y-77299665D01*
X123601834Y-77340484D01*
X123604713Y-77346381D01*
X123609245Y-77356288D01*
X123612678Y-77365365D01*
X123615164Y-77375257D01*
X123616857Y-77387611D01*
X123617908Y-77404071D01*
X123618470Y-77426282D01*
X123618697Y-77455891D01*
X123618739Y-77494541D01*
X123618739Y-77497604D01*
X123618672Y-77537476D01*
X123618379Y-77568252D01*
X123617725Y-77591636D01*
X123616575Y-77609333D01*
X123614795Y-77623048D01*
X123612249Y-77634485D01*
X123608801Y-77645349D01*
X123606536Y-77651527D01*
X123589021Y-77688848D01*
X123566405Y-77723199D01*
X123540978Y-77751309D01*
X123530772Y-77759890D01*
X123495176Y-77781171D01*
X123454545Y-77795646D01*
X123412012Y-77802638D01*
X123370709Y-77801471D01*
X123353471Y-77798133D01*
X123311415Y-77782021D01*
X123274206Y-77756614D01*
X123242704Y-77722657D01*
X123217771Y-77680894D01*
X123217705Y-77680752D01*
X123204712Y-77650245D01*
X123195804Y-77621474D01*
X123190385Y-77591249D01*
X123187859Y-77556376D01*
X123187557Y-77519207D01*
X123191069Y-77457824D01*
X123200374Y-77404647D01*
X123215827Y-77358546D01*
X123237780Y-77318397D01*
X123259252Y-77290922D01*
X123293479Y-77259399D01*
X123331121Y-77237786D01*
X123373315Y-77225588D01*
X123415839Y-77222245D01*
X123462279Y-77227478D01*
G37*
G36*
X117549687Y-79926145D02*
G01*
X117551142Y-80041385D01*
X117642851Y-80041385D01*
X117734559Y-80041385D01*
X117734559Y-80108895D01*
X117734559Y-80176405D01*
X117642525Y-80176405D01*
X117550490Y-80176405D01*
X117552061Y-80404589D01*
X117552466Y-80460365D01*
X117552875Y-80506381D01*
X117553341Y-80543679D01*
X117553916Y-80573300D01*
X117554655Y-80596286D01*
X117555608Y-80613679D01*
X117556829Y-80626519D01*
X117558370Y-80635848D01*
X117560285Y-80642709D01*
X117562625Y-80648143D01*
X117564557Y-80651676D01*
X117581633Y-80671074D01*
X117605902Y-80685117D01*
X117634882Y-80693259D01*
X117666092Y-80694951D01*
X117697053Y-80689647D01*
X117711766Y-80684155D01*
X117734879Y-80673664D01*
X117733369Y-80742118D01*
X117731859Y-80810573D01*
X117700697Y-80820052D01*
X117671469Y-80826543D01*
X117635938Y-80830852D01*
X117598432Y-80832712D01*
X117563278Y-80831856D01*
X117543845Y-80829733D01*
X117500056Y-80818410D01*
X117461137Y-80799486D01*
X117428556Y-80773991D01*
X117403783Y-80742955D01*
X117394379Y-80724753D01*
X117389311Y-80711264D01*
X117385066Y-80695796D01*
X117381576Y-80677341D01*
X117378776Y-80654892D01*
X117376598Y-80627441D01*
X117374976Y-80593982D01*
X117373843Y-80553506D01*
X117373133Y-80505007D01*
X117372778Y-80447477D01*
X117372705Y-80397447D01*
X117372705Y-80176405D01*
X117307895Y-80176405D01*
X117243086Y-80176405D01*
X117243086Y-80108895D01*
X117243086Y-80041385D01*
X117307895Y-80041385D01*
X117372705Y-80041385D01*
X117372711Y-79950921D01*
X117372718Y-79860458D01*
X117460475Y-79835681D01*
X117548231Y-79810904D01*
X117549687Y-79926145D01*
G37*
G36*
X115829041Y-80032679D02*
G01*
X115838342Y-80035763D01*
X115855078Y-80042695D01*
X115855078Y-80123052D01*
X115854890Y-80151123D01*
X115854372Y-80174919D01*
X115853594Y-80192566D01*
X115852624Y-80202190D01*
X115852109Y-80203409D01*
X115845753Y-80201162D01*
X115834204Y-80195679D01*
X115832801Y-80194959D01*
X115814411Y-80188774D01*
X115789548Y-80184660D01*
X115762397Y-80182938D01*
X115737145Y-80183928D01*
X115722439Y-80186515D01*
X115688189Y-80201226D01*
X115656705Y-80225398D01*
X115629091Y-80257816D01*
X115606452Y-80297267D01*
X115594688Y-80326818D01*
X115591726Y-80336072D01*
X115589270Y-80345285D01*
X115587259Y-80355580D01*
X115585629Y-80368083D01*
X115584315Y-80383916D01*
X115583253Y-80404204D01*
X115582381Y-80430070D01*
X115581634Y-80462640D01*
X115580949Y-80503036D01*
X115580262Y-80552382D01*
X115579786Y-80589567D01*
X115576936Y-80816401D01*
X115492906Y-80817883D01*
X115463801Y-80818164D01*
X115438578Y-80817967D01*
X115419178Y-80817343D01*
X115407544Y-80816341D01*
X115405142Y-80815632D01*
X115404527Y-80809748D01*
X115403944Y-80793929D01*
X115403400Y-80769043D01*
X115402905Y-80735957D01*
X115402466Y-80695538D01*
X115402092Y-80648654D01*
X115401791Y-80596171D01*
X115401572Y-80538957D01*
X115401443Y-80477879D01*
X115401410Y-80426642D01*
X115401410Y-80041385D01*
X115490523Y-80041385D01*
X115579637Y-80041385D01*
X115579831Y-80121047D01*
X115580025Y-80200708D01*
X115598440Y-80161459D01*
X115621316Y-80122097D01*
X115650076Y-80087505D01*
X115682670Y-80059834D01*
X115710177Y-80044106D01*
X115738503Y-80034745D01*
X115770296Y-80029555D01*
X115801746Y-80028783D01*
X115829041Y-80032679D01*
G37*
G36*
X114342852Y-80243915D02*
G01*
X114342852Y-80819101D01*
X114256600Y-80819101D01*
X114170349Y-80819101D01*
X114168837Y-80750593D01*
X114167325Y-80682085D01*
X114141803Y-80716838D01*
X114113879Y-80749407D01*
X114081374Y-80778434D01*
X114047528Y-80801196D01*
X114032219Y-80808894D01*
X113986484Y-80824171D01*
X113935723Y-80832602D01*
X113883524Y-80833857D01*
X113833476Y-80827607D01*
X113831994Y-80827289D01*
X113784144Y-80811605D01*
X113738612Y-80786547D01*
X113697320Y-80753537D01*
X113662185Y-80713995D01*
X113645886Y-80689482D01*
X113621603Y-80638987D01*
X113603726Y-80581594D01*
X113592431Y-80519229D01*
X113587896Y-80453818D01*
X113588960Y-80424339D01*
X113766868Y-80424339D01*
X113768235Y-80479155D01*
X113776176Y-80531981D01*
X113776306Y-80532566D01*
X113790140Y-80574302D01*
X113811416Y-80612447D01*
X113838640Y-80645121D01*
X113870321Y-80670446D01*
X113896216Y-80683527D01*
X113930621Y-80692255D01*
X113969479Y-80694838D01*
X114008369Y-80691286D01*
X114038814Y-80683202D01*
X114067184Y-80668252D01*
X114095580Y-80645791D01*
X114121034Y-80618688D01*
X114140576Y-80589813D01*
X114145234Y-80580357D01*
X114154557Y-80557186D01*
X114161358Y-80534553D01*
X114165933Y-80510241D01*
X114168576Y-80482033D01*
X114169581Y-80447714D01*
X114169245Y-80405066D01*
X114169155Y-80400538D01*
X114168303Y-80365923D01*
X114167230Y-80340080D01*
X114165693Y-80320983D01*
X114163448Y-80306602D01*
X114160251Y-80294910D01*
X114155859Y-80283878D01*
X114154884Y-80281721D01*
X114131034Y-80239600D01*
X114102221Y-80206937D01*
X114068030Y-80183393D01*
X114028047Y-80168627D01*
X114012941Y-80165525D01*
X113965019Y-80162239D01*
X113920935Y-80168968D01*
X113881182Y-80185457D01*
X113846254Y-80211448D01*
X113816645Y-80246686D01*
X113799658Y-80276090D01*
X113782836Y-80319992D01*
X113771821Y-80370346D01*
X113766868Y-80424339D01*
X113588960Y-80424339D01*
X113590298Y-80387289D01*
X113599813Y-80321568D01*
X113608668Y-80284554D01*
X113628055Y-80230612D01*
X113654793Y-80180272D01*
X113687653Y-80135112D01*
X113725404Y-80096713D01*
X113766817Y-80066653D01*
X113786568Y-80056150D01*
X113821104Y-80041581D01*
X113853623Y-80032127D01*
X113888138Y-80026948D01*
X113928661Y-80025201D01*
X113934222Y-80025182D01*
X113987561Y-80028474D01*
X114033758Y-80038886D01*
X114074430Y-80057222D01*
X114111199Y-80084289D01*
X114145684Y-80120891D01*
X114157574Y-80136184D01*
X114169426Y-80152101D01*
X114169726Y-79910415D01*
X114170026Y-79668729D01*
X114256439Y-79668729D01*
X114342852Y-79668729D01*
X114342852Y-80243915D01*
G37*
G36*
X124923035Y-80243915D02*
G01*
X124923035Y-80819101D01*
X124836783Y-80819101D01*
X124750531Y-80819101D01*
X124749020Y-80750593D01*
X124747508Y-80682085D01*
X124721986Y-80716838D01*
X124694062Y-80749407D01*
X124661557Y-80778434D01*
X124627711Y-80801196D01*
X124612402Y-80808894D01*
X124566667Y-80824171D01*
X124515906Y-80832602D01*
X124463707Y-80833857D01*
X124413659Y-80827607D01*
X124412177Y-80827289D01*
X124364326Y-80811605D01*
X124318795Y-80786547D01*
X124277503Y-80753537D01*
X124242368Y-80713995D01*
X124226069Y-80689482D01*
X124201786Y-80638987D01*
X124183909Y-80581594D01*
X124172614Y-80519229D01*
X124168079Y-80453818D01*
X124169143Y-80424339D01*
X124347051Y-80424339D01*
X124348417Y-80479155D01*
X124356359Y-80531981D01*
X124356489Y-80532566D01*
X124370323Y-80574302D01*
X124391598Y-80612447D01*
X124418823Y-80645121D01*
X124450504Y-80670446D01*
X124476398Y-80683527D01*
X124510804Y-80692255D01*
X124549662Y-80694838D01*
X124588552Y-80691286D01*
X124618997Y-80683202D01*
X124647367Y-80668252D01*
X124675763Y-80645791D01*
X124701217Y-80618688D01*
X124720759Y-80589813D01*
X124725417Y-80580357D01*
X124734740Y-80557186D01*
X124741541Y-80534553D01*
X124746116Y-80510241D01*
X124748758Y-80482033D01*
X124749764Y-80447714D01*
X124749428Y-80405066D01*
X124749338Y-80400538D01*
X124748486Y-80365923D01*
X124747413Y-80340080D01*
X124745876Y-80320983D01*
X124743631Y-80306602D01*
X124740434Y-80294910D01*
X124736042Y-80283878D01*
X124735067Y-80281721D01*
X124711217Y-80239600D01*
X124682404Y-80206937D01*
X124648213Y-80183393D01*
X124608230Y-80168627D01*
X124593124Y-80165525D01*
X124545202Y-80162239D01*
X124501118Y-80168968D01*
X124461365Y-80185457D01*
X124426437Y-80211448D01*
X124396828Y-80246686D01*
X124379841Y-80276090D01*
X124363019Y-80319992D01*
X124352004Y-80370346D01*
X124347051Y-80424339D01*
X124169143Y-80424339D01*
X124170480Y-80387289D01*
X124179996Y-80321568D01*
X124188851Y-80284554D01*
X124208238Y-80230612D01*
X124234976Y-80180272D01*
X124267836Y-80135112D01*
X124305587Y-80096713D01*
X124347000Y-80066653D01*
X124366751Y-80056150D01*
X124401287Y-80041581D01*
X124433806Y-80032127D01*
X124468321Y-80026948D01*
X124508843Y-80025201D01*
X124514405Y-80025182D01*
X124567744Y-80028474D01*
X124613940Y-80038886D01*
X124654613Y-80057222D01*
X124691382Y-80084289D01*
X124725867Y-80120891D01*
X124737757Y-80136184D01*
X124749609Y-80152101D01*
X124749909Y-79910415D01*
X124750209Y-79668729D01*
X124836622Y-79668729D01*
X124923035Y-79668729D01*
X124923035Y-80243915D01*
G37*
G36*
X116158820Y-79922357D02*
G01*
X116160224Y-80175984D01*
X116187228Y-80139757D01*
X116219197Y-80103495D01*
X116256187Y-80072724D01*
X116295500Y-80049521D01*
X116314873Y-80041515D01*
X116343718Y-80034041D01*
X116379284Y-80028777D01*
X116417675Y-80025962D01*
X116454992Y-80025834D01*
X116487337Y-80028629D01*
X116497049Y-80030405D01*
X116548496Y-80046953D01*
X116594580Y-80072742D01*
X116635011Y-80107478D01*
X116669501Y-80150868D01*
X116697763Y-80202619D01*
X116717214Y-80254717D01*
X116722462Y-80272492D01*
X116726311Y-80287940D01*
X116728978Y-80303259D01*
X116730681Y-80320650D01*
X116731638Y-80342312D01*
X116732066Y-80370444D01*
X116732183Y-80405939D01*
X116731959Y-80447109D01*
X116731117Y-80479449D01*
X116729528Y-80504922D01*
X116727063Y-80525488D01*
X116723592Y-80543108D01*
X116722989Y-80545569D01*
X116702040Y-80611896D01*
X116674664Y-80669896D01*
X116641056Y-80719390D01*
X116601411Y-80760203D01*
X116555925Y-80792158D01*
X116504790Y-80815079D01*
X116448204Y-80828789D01*
X116405960Y-80832791D01*
X116380262Y-80833171D01*
X116355703Y-80832431D01*
X116336305Y-80830727D01*
X116330934Y-80829821D01*
X116292526Y-80817568D01*
X116254115Y-80797955D01*
X116218594Y-80772939D01*
X116188853Y-80744478D01*
X116172337Y-80722462D01*
X116160224Y-80702984D01*
X116157523Y-80759692D01*
X116154823Y-80816401D01*
X116068410Y-80816401D01*
X115981997Y-80816401D01*
X115981116Y-80448758D01*
X116153233Y-80448758D01*
X116154006Y-80485996D01*
X116156876Y-80518087D01*
X116156958Y-80518672D01*
X116168186Y-80564930D01*
X116187528Y-80605942D01*
X116214144Y-80640539D01*
X116247197Y-80667557D01*
X116274084Y-80681486D01*
X116311897Y-80692017D01*
X116353382Y-80695151D01*
X116394275Y-80690820D01*
X116418999Y-80683790D01*
X116455283Y-80664539D01*
X116487092Y-80635969D01*
X116513823Y-80598846D01*
X116534873Y-80553936D01*
X116544205Y-80524757D01*
X116550116Y-80495119D01*
X116554062Y-80459010D01*
X116555946Y-80419978D01*
X116555676Y-80381569D01*
X116553156Y-80347328D01*
X116549497Y-80325483D01*
X116533784Y-80277235D01*
X116511409Y-80236846D01*
X116482934Y-80204731D01*
X116448920Y-80181306D01*
X116409930Y-80166985D01*
X116366524Y-80162184D01*
X116332235Y-80164950D01*
X116286344Y-80176989D01*
X116246800Y-80197733D01*
X116213799Y-80227004D01*
X116187542Y-80264624D01*
X116168225Y-80310418D01*
X116167780Y-80311838D01*
X116161829Y-80337914D01*
X116157311Y-80371542D01*
X116154390Y-80409548D01*
X116153233Y-80448758D01*
X115981116Y-80448758D01*
X115980622Y-80242565D01*
X115979247Y-79668729D01*
X116068332Y-79668729D01*
X116157417Y-79668729D01*
X116158820Y-79922357D01*
G37*
G36*
X111949848Y-80026167D02*
G01*
X111989035Y-80029472D01*
X112026070Y-80035625D01*
X112065061Y-80045113D01*
X112096116Y-80053610D01*
X112096116Y-80128509D01*
X112095841Y-80155544D01*
X112095087Y-80178236D01*
X112093960Y-80194643D01*
X112092563Y-80202824D01*
X112092065Y-80203389D01*
X112085126Y-80200801D01*
X112073484Y-80194494D01*
X112071781Y-80193469D01*
X112034892Y-80175579D01*
X111992683Y-80162738D01*
X111947794Y-80155171D01*
X111902864Y-80153104D01*
X111860533Y-80156765D01*
X111823441Y-80166379D01*
X111812167Y-80171201D01*
X111786941Y-80188471D01*
X111770132Y-80210541D01*
X111761860Y-80235489D01*
X111762245Y-80261394D01*
X111771409Y-80286334D01*
X111789472Y-80308386D01*
X111802926Y-80318392D01*
X111811118Y-80323321D01*
X111819779Y-80327973D01*
X111830516Y-80333038D01*
X111844936Y-80339200D01*
X111864646Y-80347148D01*
X111891253Y-80357568D01*
X111925990Y-80371003D01*
X111984391Y-80396409D01*
X112032555Y-80423772D01*
X112070934Y-80453479D01*
X112099979Y-80485918D01*
X112120139Y-80521476D01*
X112128287Y-80544936D01*
X112132976Y-80573690D01*
X112133555Y-80607130D01*
X112130335Y-80641109D01*
X112123624Y-80671484D01*
X112117694Y-80687004D01*
X112102420Y-80711498D01*
X112080515Y-80737486D01*
X112055096Y-80761819D01*
X112029286Y-80781350D01*
X112017378Y-80788244D01*
X111967110Y-80808753D01*
X111909918Y-80823422D01*
X111848172Y-80831919D01*
X111784237Y-80833912D01*
X111723460Y-80829457D01*
X111679524Y-80822384D01*
X111641576Y-80812768D01*
X111611393Y-80802091D01*
X111583039Y-80790842D01*
X111583039Y-80710640D01*
X111583039Y-80630438D01*
X111606975Y-80646593D01*
X111657982Y-80674702D01*
X111714047Y-80694137D01*
X111772987Y-80704242D01*
X111802856Y-80705590D01*
X111851663Y-80702814D01*
X111891614Y-80694268D01*
X111922617Y-80680006D01*
X111944583Y-80660087D01*
X111957420Y-80634565D01*
X111961095Y-80607173D01*
X111957822Y-80584785D01*
X111947482Y-80564626D01*
X111929294Y-80546027D01*
X111902479Y-80528320D01*
X111866256Y-80510838D01*
X111833231Y-80497763D01*
X111773552Y-80474037D01*
X111723821Y-80450569D01*
X111683215Y-80426807D01*
X111650912Y-80402195D01*
X111626088Y-80376178D01*
X111607921Y-80348204D01*
X111606231Y-80344857D01*
X111599449Y-80330088D01*
X111595061Y-80316935D01*
X111592555Y-80302341D01*
X111591419Y-80283247D01*
X111591141Y-80256595D01*
X111591140Y-80254717D01*
X111591414Y-80227221D01*
X111592541Y-80207577D01*
X111594982Y-80192839D01*
X111599196Y-80180066D01*
X111604642Y-80168304D01*
X111629690Y-80130065D01*
X111663514Y-80097102D01*
X111705248Y-80069831D01*
X111754021Y-80048666D01*
X111808966Y-80034022D01*
X111869214Y-80026315D01*
X111904259Y-80025182D01*
X111949848Y-80026167D01*
G37*
G36*
X122967522Y-80027129D02*
G01*
X123013787Y-80033754D01*
X123054666Y-80047194D01*
X123092094Y-80068075D01*
X123125992Y-80095168D01*
X123163663Y-80136889D01*
X123193716Y-80186143D01*
X123216082Y-80242739D01*
X123230690Y-80306482D01*
X123237471Y-80377182D01*
X123237982Y-80404262D01*
X123234097Y-80479506D01*
X123222603Y-80548744D01*
X123203743Y-80611542D01*
X123177763Y-80667462D01*
X123144904Y-80716070D01*
X123105411Y-80756930D01*
X123059527Y-80789604D01*
X123009615Y-80812895D01*
X122992687Y-80818689D01*
X122977533Y-80822666D01*
X122961435Y-80825162D01*
X122941673Y-80826514D01*
X122915530Y-80827061D01*
X122894751Y-80827143D01*
X122818860Y-80827202D01*
X122778634Y-80807142D01*
X122748552Y-80790441D01*
X122723327Y-80772019D01*
X122699408Y-80748986D01*
X122680455Y-80727267D01*
X122660307Y-80702984D01*
X122660202Y-80939269D01*
X122660096Y-81175554D01*
X122574583Y-81175554D01*
X122545224Y-81175338D01*
X122519748Y-81174740D01*
X122500078Y-81173838D01*
X122488132Y-81172709D01*
X122485470Y-81171954D01*
X122484977Y-81166171D01*
X122484505Y-81150301D01*
X122484057Y-81125056D01*
X122483637Y-81091152D01*
X122483252Y-81049303D01*
X122482904Y-81000221D01*
X122482599Y-80944621D01*
X122482341Y-80883217D01*
X122482134Y-80816723D01*
X122481984Y-80745853D01*
X122481894Y-80671320D01*
X122481869Y-80604869D01*
X122481869Y-80448758D01*
X122655806Y-80448758D01*
X122656579Y-80485996D01*
X122659449Y-80518087D01*
X122659531Y-80518672D01*
X122670759Y-80564930D01*
X122690100Y-80605942D01*
X122716717Y-80640539D01*
X122749770Y-80667557D01*
X122776656Y-80681486D01*
X122814470Y-80692017D01*
X122855955Y-80695151D01*
X122896848Y-80690820D01*
X122921571Y-80683790D01*
X122957856Y-80664539D01*
X122989665Y-80635969D01*
X123016395Y-80598846D01*
X123037446Y-80553936D01*
X123046778Y-80524757D01*
X123052689Y-80495119D01*
X123056634Y-80459010D01*
X123058519Y-80419978D01*
X123058249Y-80381569D01*
X123055729Y-80347328D01*
X123052070Y-80325483D01*
X123036356Y-80277235D01*
X123013982Y-80236846D01*
X122985507Y-80204731D01*
X122951493Y-80181306D01*
X122912503Y-80166985D01*
X122869097Y-80162184D01*
X122834808Y-80164950D01*
X122788917Y-80176989D01*
X122749372Y-80197733D01*
X122716372Y-80227004D01*
X122690115Y-80264624D01*
X122670798Y-80310418D01*
X122670353Y-80311838D01*
X122664402Y-80337914D01*
X122659883Y-80371542D01*
X122656963Y-80409548D01*
X122655806Y-80448758D01*
X122481869Y-80448758D01*
X122481869Y-80041385D01*
X122570821Y-80041385D01*
X122659773Y-80041385D01*
X122661285Y-80108704D01*
X122662796Y-80176022D01*
X122689800Y-80139776D01*
X122723864Y-80100268D01*
X122760909Y-80069961D01*
X122802331Y-80048152D01*
X122849525Y-80034138D01*
X122903884Y-80027216D01*
X122913934Y-80026694D01*
X122967522Y-80027129D01*
G37*
G36*
X112729077Y-80026855D02*
G01*
X112747932Y-80029136D01*
X112767198Y-80032842D01*
X112778638Y-80035474D01*
X112837927Y-80054639D01*
X112890414Y-80082117D01*
X112935905Y-80117675D01*
X112974206Y-80161079D01*
X113005123Y-80212099D01*
X113028463Y-80270501D01*
X113044030Y-80336053D01*
X113047189Y-80357332D01*
X113051078Y-80413760D01*
X113048896Y-80471823D01*
X113041014Y-80528319D01*
X113027802Y-80580049D01*
X113018586Y-80604863D01*
X112989200Y-80661549D01*
X112952335Y-80710567D01*
X112908341Y-80751692D01*
X112857567Y-80784697D01*
X112800365Y-80809355D01*
X112737085Y-80825441D01*
X112668076Y-80832727D01*
X112665901Y-80832808D01*
X112620592Y-80833075D01*
X112581970Y-80830577D01*
X112562530Y-80827713D01*
X112507559Y-80814273D01*
X112460199Y-80795911D01*
X112417879Y-80771316D01*
X112378032Y-80739180D01*
X112365642Y-80727345D01*
X112331692Y-80689735D01*
X112305265Y-80650587D01*
X112284419Y-80606624D01*
X112271108Y-80567963D01*
X112265337Y-80547905D01*
X112261301Y-80530474D01*
X112258698Y-80512942D01*
X112257225Y-80492576D01*
X112256579Y-80466646D01*
X112256457Y-80435644D01*
X112256476Y-80433348D01*
X112432502Y-80433348D01*
X112435921Y-80486991D01*
X112446735Y-80538244D01*
X112453216Y-80557652D01*
X112473989Y-80599098D01*
X112502575Y-80635006D01*
X112537401Y-80663785D01*
X112576897Y-80683839D01*
X112577969Y-80684229D01*
X112604879Y-80690755D01*
X112637887Y-80694131D01*
X112672734Y-80694282D01*
X112705164Y-80691133D01*
X112724534Y-80686808D01*
X112765009Y-80669099D01*
X112799643Y-80642575D01*
X112827983Y-80607785D01*
X112849574Y-80565278D01*
X112863190Y-80519348D01*
X112867113Y-80492146D01*
X112869313Y-80458131D01*
X112869785Y-80421154D01*
X112868525Y-80385066D01*
X112865529Y-80353718D01*
X112863400Y-80341129D01*
X112853508Y-80306640D01*
X112838701Y-80272037D01*
X112820676Y-80240570D01*
X112801132Y-80215487D01*
X112794227Y-80208800D01*
X112759716Y-80185208D01*
X112720448Y-80169783D01*
X112678284Y-80162338D01*
X112635085Y-80162682D01*
X112592711Y-80170627D01*
X112553022Y-80185985D01*
X112517880Y-80208565D01*
X112489144Y-80238180D01*
X112487863Y-80239904D01*
X112464158Y-80280592D01*
X112446866Y-80327897D01*
X112436232Y-80379566D01*
X112432502Y-80433348D01*
X112256476Y-80433348D01*
X112256759Y-80399954D01*
X112257783Y-80372334D01*
X112259783Y-80350062D01*
X112263012Y-80330416D01*
X112267723Y-80310675D01*
X112268249Y-80308725D01*
X112290261Y-80245539D01*
X112319881Y-80190020D01*
X112357128Y-80142147D01*
X112402024Y-80101899D01*
X112454587Y-80069257D01*
X112514838Y-80044198D01*
X112527037Y-80040328D01*
X112547063Y-80035283D01*
X112570389Y-80031565D01*
X112599318Y-80028915D01*
X112636153Y-80027069D01*
X112646998Y-80026699D01*
X112681407Y-80025823D01*
X112707834Y-80025813D01*
X112729077Y-80026855D01*
G37*
G36*
X114962643Y-80028661D02*
G01*
X115014492Y-80039418D01*
X115060484Y-80057929D01*
X115101884Y-80084675D01*
X115131370Y-80111119D01*
X115163231Y-80148422D01*
X115188523Y-80189623D01*
X115207702Y-80236000D01*
X115221226Y-80288830D01*
X115229551Y-80349392D01*
X115232401Y-80393787D01*
X115235625Y-80473449D01*
X114972696Y-80473449D01*
X114912021Y-80473480D01*
X114861270Y-80473592D01*
X114819566Y-80473812D01*
X114786032Y-80474167D01*
X114759790Y-80474685D01*
X114739964Y-80475394D01*
X114725676Y-80476320D01*
X114716048Y-80477491D01*
X114710205Y-80478935D01*
X114707267Y-80480678D01*
X114706576Y-80481766D01*
X114705656Y-80493322D01*
X114707834Y-80511927D01*
X114712451Y-80534500D01*
X114718848Y-80557963D01*
X114726366Y-80579237D01*
X114728490Y-80584179D01*
X114739365Y-80603203D01*
X114754534Y-80623753D01*
X114765797Y-80636303D01*
X114798810Y-80663311D01*
X114836671Y-80682639D01*
X114880570Y-80694705D01*
X114931699Y-80699926D01*
X114948228Y-80700219D01*
X115008118Y-80696001D01*
X115064390Y-80682734D01*
X115119785Y-80659729D01*
X115129469Y-80654717D01*
X115174576Y-80630721D01*
X115174576Y-80699808D01*
X115174576Y-80768895D01*
X115138121Y-80785341D01*
X115090167Y-80804766D01*
X115044649Y-80818212D01*
X115015395Y-80824264D01*
X114991529Y-80827469D01*
X114961498Y-80830000D01*
X114928174Y-80831773D01*
X114894429Y-80832705D01*
X114863133Y-80832713D01*
X114837158Y-80831713D01*
X114820887Y-80829915D01*
X114768982Y-80816709D01*
X114719624Y-80796897D01*
X114675037Y-80771658D01*
X114637444Y-80742169D01*
X114619327Y-80723113D01*
X114605242Y-80704438D01*
X114590057Y-80681491D01*
X114578878Y-80662478D01*
X114554891Y-80607931D01*
X114538456Y-80547841D01*
X114529540Y-80484226D01*
X114528109Y-80419107D01*
X114534129Y-80354502D01*
X114536476Y-80343662D01*
X114706167Y-80343662D01*
X114707560Y-80349479D01*
X114713615Y-80350856D01*
X114728907Y-80352022D01*
X114751871Y-80352974D01*
X114780943Y-80353714D01*
X114814559Y-80354240D01*
X114851157Y-80354553D01*
X114889173Y-80354651D01*
X114927042Y-80354534D01*
X114963202Y-80354202D01*
X114996088Y-80353654D01*
X115024137Y-80352891D01*
X115045785Y-80351910D01*
X115059469Y-80350713D01*
X115063644Y-80349580D01*
X115064771Y-80340815D01*
X115063488Y-80324648D01*
X115060342Y-80304068D01*
X115055877Y-80282060D01*
X115050641Y-80261612D01*
X115045179Y-80245712D01*
X115044302Y-80243749D01*
X115022077Y-80208068D01*
X114993318Y-80180594D01*
X114959112Y-80161877D01*
X114920544Y-80152469D01*
X114878701Y-80152919D01*
X114868354Y-80154543D01*
X114827316Y-80166255D01*
X114792975Y-80185522D01*
X114763703Y-80213456D01*
X114745515Y-80238514D01*
X114733139Y-80260437D01*
X114722175Y-80284371D01*
X114713465Y-80307858D01*
X114707848Y-80328441D01*
X114706167Y-80343662D01*
X114536476Y-80343662D01*
X114547566Y-80292430D01*
X114568387Y-80234912D01*
X114586616Y-80199649D01*
X114598467Y-80182414D01*
X114615484Y-80161103D01*
X114634947Y-80139022D01*
X114646413Y-80127033D01*
X114669519Y-80104842D01*
X114690008Y-80088284D01*
X114711895Y-80074471D01*
X114738226Y-80060977D01*
X114771524Y-80046066D01*
X114800882Y-80035814D01*
X114829916Y-80029437D01*
X114862239Y-80026155D01*
X114901465Y-80025184D01*
X114903667Y-80025182D01*
X114962643Y-80028661D01*
G37*
G36*
X122043102Y-80028661D02*
G01*
X122094952Y-80039418D01*
X122140943Y-80057929D01*
X122182343Y-80084675D01*
X122211829Y-80111119D01*
X122243690Y-80148422D01*
X122268982Y-80189623D01*
X122288162Y-80236000D01*
X122301685Y-80288830D01*
X122310010Y-80349392D01*
X122312861Y-80393787D01*
X122316084Y-80473449D01*
X122053156Y-80473449D01*
X121992480Y-80473480D01*
X121941729Y-80473592D01*
X121900025Y-80473812D01*
X121866491Y-80474167D01*
X121840250Y-80474685D01*
X121820423Y-80475394D01*
X121806135Y-80476320D01*
X121796508Y-80477491D01*
X121790664Y-80478935D01*
X121787727Y-80480678D01*
X121787036Y-80481766D01*
X121786116Y-80493322D01*
X121788294Y-80511927D01*
X121792910Y-80534500D01*
X121799307Y-80557963D01*
X121806825Y-80579237D01*
X121808949Y-80584179D01*
X121819825Y-80603203D01*
X121834993Y-80623753D01*
X121846256Y-80636303D01*
X121879269Y-80663311D01*
X121917130Y-80682639D01*
X121961030Y-80694705D01*
X122012159Y-80699926D01*
X122028688Y-80700219D01*
X122088577Y-80696001D01*
X122144849Y-80682734D01*
X122200245Y-80659729D01*
X122209928Y-80654717D01*
X122255035Y-80630721D01*
X122255035Y-80699808D01*
X122255035Y-80768895D01*
X122218580Y-80785341D01*
X122170626Y-80804766D01*
X122125108Y-80818212D01*
X122095854Y-80824264D01*
X122071988Y-80827469D01*
X122041957Y-80830000D01*
X122008633Y-80831773D01*
X121974888Y-80832705D01*
X121943592Y-80832713D01*
X121917618Y-80831713D01*
X121901347Y-80829915D01*
X121849441Y-80816709D01*
X121800083Y-80796897D01*
X121755496Y-80771658D01*
X121717903Y-80742169D01*
X121699786Y-80723113D01*
X121685701Y-80704438D01*
X121670516Y-80681491D01*
X121659338Y-80662478D01*
X121635350Y-80607931D01*
X121618915Y-80547841D01*
X121609999Y-80484226D01*
X121608568Y-80419107D01*
X121614588Y-80354502D01*
X121616935Y-80343662D01*
X121786626Y-80343662D01*
X121788019Y-80349479D01*
X121794075Y-80350856D01*
X121809366Y-80352022D01*
X121832330Y-80352974D01*
X121861402Y-80353714D01*
X121895019Y-80354240D01*
X121931617Y-80354553D01*
X121969632Y-80354651D01*
X122007501Y-80354534D01*
X122043661Y-80354202D01*
X122076547Y-80353654D01*
X122104596Y-80352891D01*
X122126244Y-80351910D01*
X122139928Y-80350713D01*
X122144103Y-80349580D01*
X122145230Y-80340815D01*
X122143948Y-80324648D01*
X122140801Y-80304068D01*
X122136337Y-80282060D01*
X122131101Y-80261612D01*
X122125638Y-80245712D01*
X122124761Y-80243749D01*
X122102536Y-80208068D01*
X122073777Y-80180594D01*
X122039571Y-80161877D01*
X122001003Y-80152469D01*
X121959160Y-80152919D01*
X121948814Y-80154543D01*
X121907776Y-80166255D01*
X121873434Y-80185522D01*
X121844162Y-80213456D01*
X121825974Y-80238514D01*
X121813598Y-80260437D01*
X121802634Y-80284371D01*
X121793924Y-80307858D01*
X121788308Y-80328441D01*
X121786626Y-80343662D01*
X121616935Y-80343662D01*
X121628025Y-80292430D01*
X121648846Y-80234912D01*
X121667075Y-80199649D01*
X121678926Y-80182414D01*
X121695944Y-80161103D01*
X121715406Y-80139022D01*
X121726872Y-80127033D01*
X121749978Y-80104842D01*
X121770467Y-80088284D01*
X121792354Y-80074471D01*
X121818686Y-80060977D01*
X121851983Y-80046066D01*
X121881341Y-80035814D01*
X121910375Y-80029437D01*
X121942698Y-80026155D01*
X121981924Y-80025184D01*
X121984126Y-80025182D01*
X122043102Y-80028661D01*
G37*
G36*
X119813321Y-80026065D02*
G01*
X119836520Y-80027379D01*
X119855991Y-80029934D01*
X119869229Y-80032655D01*
X119920173Y-80049069D01*
X119963148Y-80072650D01*
X119998509Y-80103744D01*
X120026613Y-80142699D01*
X120047815Y-80189862D01*
X120055295Y-80214211D01*
X120057416Y-80222971D01*
X120059200Y-80232846D01*
X120060676Y-80244800D01*
X120061873Y-80259801D01*
X120062820Y-80278816D01*
X120063546Y-80302811D01*
X120064081Y-80332753D01*
X120064453Y-80369608D01*
X120064692Y-80414343D01*
X120064826Y-80467924D01*
X120064884Y-80531319D01*
X120064885Y-80532858D01*
X120065008Y-80816401D01*
X119981295Y-80816401D01*
X119897583Y-80816401D01*
X119894882Y-80754913D01*
X119892182Y-80693426D01*
X119875041Y-80719808D01*
X119842928Y-80759776D01*
X119804281Y-80791506D01*
X119759917Y-80814675D01*
X119710655Y-80828958D01*
X119657312Y-80834032D01*
X119600705Y-80829571D01*
X119598819Y-80829263D01*
X119550226Y-80816282D01*
X119508169Y-80794971D01*
X119473191Y-80765986D01*
X119445835Y-80729985D01*
X119426645Y-80687624D01*
X119416162Y-80639559D01*
X119414274Y-80606139D01*
X119415808Y-80585525D01*
X119581635Y-80585525D01*
X119586113Y-80621773D01*
X119599317Y-80651989D01*
X119620906Y-80675666D01*
X119650537Y-80692294D01*
X119654546Y-80693767D01*
X119678487Y-80698722D01*
X119708304Y-80699999D01*
X119739780Y-80697768D01*
X119768698Y-80692198D01*
X119779474Y-80688752D01*
X119815826Y-80669476D01*
X119846763Y-80641128D01*
X119871624Y-80604336D01*
X119874630Y-80598450D01*
X119882292Y-80582117D01*
X119887442Y-80568130D01*
X119890674Y-80553464D01*
X119892581Y-80535092D01*
X119893757Y-80509988D01*
X119894101Y-80499223D01*
X119894547Y-80469477D01*
X119893859Y-80448648D01*
X119892079Y-80437448D01*
X119890552Y-80435644D01*
X119879808Y-80436528D01*
X119860633Y-80438948D01*
X119835231Y-80442552D01*
X119805807Y-80446990D01*
X119774564Y-80451911D01*
X119743708Y-80456964D01*
X119715441Y-80461799D01*
X119691970Y-80466064D01*
X119675498Y-80469409D01*
X119670409Y-80470674D01*
X119635224Y-80484901D01*
X119609127Y-80504855D01*
X119591816Y-80530929D01*
X119582988Y-80563515D01*
X119581635Y-80585525D01*
X119415808Y-80585525D01*
X119418103Y-80554700D01*
X119429720Y-80510003D01*
X119449568Y-80470874D01*
X119478087Y-80436137D01*
X119478162Y-80436062D01*
X119497117Y-80418602D01*
X119516900Y-80403772D01*
X119538832Y-80391120D01*
X119564235Y-80380192D01*
X119594430Y-80370535D01*
X119630740Y-80361696D01*
X119674485Y-80353222D01*
X119726989Y-80344661D01*
X119758512Y-80339977D01*
X119894882Y-80320210D01*
X119894882Y-80297895D01*
X119890122Y-80258496D01*
X119876461Y-80223598D01*
X119854824Y-80194437D01*
X119826138Y-80172246D01*
X119791329Y-80158263D01*
X119789870Y-80157903D01*
X119770095Y-80155210D01*
X119743358Y-80154309D01*
X119713325Y-80155066D01*
X119683664Y-80157349D01*
X119658040Y-80161025D01*
X119649146Y-80163008D01*
X119609272Y-80176179D01*
X119568142Y-80194598D01*
X119530990Y-80215833D01*
X119521324Y-80222444D01*
X119506961Y-80232447D01*
X119496343Y-80239256D01*
X119492357Y-80241215D01*
X119491431Y-80236141D01*
X119490849Y-80222219D01*
X119490649Y-80201397D01*
X119490863Y-80175624D01*
X119491019Y-80166953D01*
X119492522Y-80092692D01*
X119527627Y-80075497D01*
X119568640Y-80057340D01*
X119608730Y-80044022D01*
X119650851Y-80034886D01*
X119697955Y-80029272D01*
X119746360Y-80026708D01*
X119784050Y-80025880D01*
X119813321Y-80026065D01*
G37*
G36*
X123750510Y-80026065D02*
G01*
X123773709Y-80027379D01*
X123793180Y-80029934D01*
X123806418Y-80032655D01*
X123857362Y-80049069D01*
X123900337Y-80072650D01*
X123935698Y-80103744D01*
X123963802Y-80142699D01*
X123985004Y-80189862D01*
X123992484Y-80214211D01*
X123994605Y-80222971D01*
X123996389Y-80232846D01*
X123997865Y-80244800D01*
X123999062Y-80259801D01*
X124000009Y-80278816D01*
X124000735Y-80302811D01*
X124001270Y-80332753D01*
X124001642Y-80369608D01*
X124001881Y-80414343D01*
X124002015Y-80467924D01*
X124002073Y-80531319D01*
X124002074Y-80532858D01*
X124002197Y-80816401D01*
X123918484Y-80816401D01*
X123834772Y-80816401D01*
X123832071Y-80754913D01*
X123829371Y-80693426D01*
X123812230Y-80719808D01*
X123780117Y-80759776D01*
X123741470Y-80791506D01*
X123697106Y-80814675D01*
X123647844Y-80828958D01*
X123594501Y-80834032D01*
X123537894Y-80829571D01*
X123536008Y-80829263D01*
X123487415Y-80816282D01*
X123445358Y-80794971D01*
X123410380Y-80765986D01*
X123383024Y-80729985D01*
X123363834Y-80687624D01*
X123353351Y-80639559D01*
X123351463Y-80606139D01*
X123352997Y-80585525D01*
X123518824Y-80585525D01*
X123523302Y-80621773D01*
X123536506Y-80651989D01*
X123558095Y-80675666D01*
X123587726Y-80692294D01*
X123591735Y-80693767D01*
X123615676Y-80698722D01*
X123645493Y-80699999D01*
X123676969Y-80697768D01*
X123705887Y-80692198D01*
X123716663Y-80688752D01*
X123753015Y-80669476D01*
X123783952Y-80641128D01*
X123808813Y-80604336D01*
X123811819Y-80598450D01*
X123819481Y-80582117D01*
X123824631Y-80568130D01*
X123827863Y-80553464D01*
X123829770Y-80535092D01*
X123830946Y-80509988D01*
X123831290Y-80499223D01*
X123831736Y-80469477D01*
X123831048Y-80448648D01*
X123829268Y-80437448D01*
X123827741Y-80435644D01*
X123816997Y-80436528D01*
X123797822Y-80438948D01*
X123772420Y-80442552D01*
X123742996Y-80446990D01*
X123711753Y-80451911D01*
X123680897Y-80456964D01*
X123652631Y-80461799D01*
X123629159Y-80466064D01*
X123612688Y-80469409D01*
X123607598Y-80470674D01*
X123572413Y-80484901D01*
X123546316Y-80504855D01*
X123529005Y-80530929D01*
X123520177Y-80563515D01*
X123518824Y-80585525D01*
X123352997Y-80585525D01*
X123355292Y-80554700D01*
X123366909Y-80510003D01*
X123386757Y-80470874D01*
X123415276Y-80436137D01*
X123415351Y-80436062D01*
X123434306Y-80418602D01*
X123454089Y-80403772D01*
X123476021Y-80391120D01*
X123501424Y-80380192D01*
X123531619Y-80370535D01*
X123567929Y-80361696D01*
X123611674Y-80353222D01*
X123664178Y-80344661D01*
X123695701Y-80339977D01*
X123832071Y-80320210D01*
X123832071Y-80297895D01*
X123827312Y-80258496D01*
X123813650Y-80223598D01*
X123792013Y-80194437D01*
X123763327Y-80172246D01*
X123728518Y-80158263D01*
X123727059Y-80157903D01*
X123707284Y-80155210D01*
X123680547Y-80154309D01*
X123650514Y-80155066D01*
X123620853Y-80157349D01*
X123595229Y-80161025D01*
X123586335Y-80163008D01*
X123546461Y-80176179D01*
X123505331Y-80194598D01*
X123468179Y-80215833D01*
X123458513Y-80222444D01*
X123444150Y-80232447D01*
X123433532Y-80239256D01*
X123429546Y-80241215D01*
X123428620Y-80236141D01*
X123428038Y-80222219D01*
X123427838Y-80201397D01*
X123428052Y-80175624D01*
X123428208Y-80166953D01*
X123429711Y-80092692D01*
X123464816Y-80075497D01*
X123505829Y-80057340D01*
X123545919Y-80044022D01*
X123588040Y-80034886D01*
X123635144Y-80029272D01*
X123683549Y-80026708D01*
X123721239Y-80025880D01*
X123750510Y-80026065D01*
G37*
G36*
X118845738Y-80026453D02*
G01*
X118897655Y-80032191D01*
X118942087Y-80044735D01*
X118980466Y-80064792D01*
X119014224Y-80093074D01*
X119038854Y-80122080D01*
X119060457Y-80151044D01*
X119061997Y-80096214D01*
X119063536Y-80041385D01*
X119150012Y-80041385D01*
X119236488Y-80041385D01*
X119234572Y-80450496D01*
X119234208Y-80528475D01*
X119233863Y-80596473D01*
X119233487Y-80655311D01*
X119233028Y-80705810D01*
X119232437Y-80748791D01*
X119231663Y-80785074D01*
X119230655Y-80815480D01*
X119229363Y-80840830D01*
X119227737Y-80861944D01*
X119225726Y-80879644D01*
X119223280Y-80894750D01*
X119220348Y-80908082D01*
X119216879Y-80920462D01*
X119212824Y-80932710D01*
X119208132Y-80945648D01*
X119203340Y-80958511D01*
X119178260Y-81011142D01*
X119144759Y-81057218D01*
X119103207Y-81096462D01*
X119053974Y-81128595D01*
X118997429Y-81153339D01*
X118933944Y-81170417D01*
X118917336Y-81173406D01*
X118883424Y-81177325D01*
X118842392Y-81179550D01*
X118797786Y-81180100D01*
X118753152Y-81178990D01*
X118712035Y-81176239D01*
X118680329Y-81172267D01*
X118651635Y-81166424D01*
X118619737Y-81158369D01*
X118591490Y-81149833D01*
X118591216Y-81149740D01*
X118547381Y-81134802D01*
X118545889Y-81055763D01*
X118544397Y-80976725D01*
X118598348Y-81000919D01*
X118664800Y-81025924D01*
X118729393Y-81040442D01*
X118792518Y-81044554D01*
X118809320Y-81043893D01*
X118867767Y-81036721D01*
X118917955Y-81022780D01*
X118960239Y-81001816D01*
X118994978Y-80973572D01*
X119022526Y-80937794D01*
X119043242Y-80894226D01*
X119050634Y-80871292D01*
X119053496Y-80857020D01*
X119056158Y-80836390D01*
X119058514Y-80811495D01*
X119060455Y-80784430D01*
X119061877Y-80757290D01*
X119062673Y-80732168D01*
X119062737Y-80711160D01*
X119061961Y-80696360D01*
X119060241Y-80689863D01*
X119059852Y-80689735D01*
X119054465Y-80693978D01*
X119045296Y-80704754D01*
X119036154Y-80717164D01*
X119002548Y-80756199D01*
X118961385Y-80788263D01*
X118914022Y-80812481D01*
X118865136Y-80827295D01*
X118806760Y-80834628D01*
X118750884Y-80831792D01*
X118698251Y-80819277D01*
X118649608Y-80797571D01*
X118605698Y-80767164D01*
X118567266Y-80728545D01*
X118535057Y-80682203D01*
X118509815Y-80628627D01*
X118496126Y-80584875D01*
X118486170Y-80530578D01*
X118481658Y-80470375D01*
X118482193Y-80432868D01*
X118659695Y-80432868D01*
X118662012Y-80485819D01*
X118670710Y-80535507D01*
X118685820Y-80579315D01*
X118687016Y-80581879D01*
X118711595Y-80622879D01*
X118742079Y-80655115D01*
X118778140Y-80678285D01*
X118801219Y-80687367D01*
X118828875Y-80692760D01*
X118861505Y-80694211D01*
X118894051Y-80691784D01*
X118920425Y-80685895D01*
X118962408Y-80666372D01*
X118997589Y-80638461D01*
X119025954Y-80602172D01*
X119038494Y-80578966D01*
X119048000Y-80555825D01*
X119054911Y-80531227D01*
X119059486Y-80503180D01*
X119061989Y-80469688D01*
X119062681Y-80428759D01*
X119062291Y-80397601D01*
X119061533Y-80364470D01*
X119060616Y-80339961D01*
X119059213Y-80321897D01*
X119056997Y-80308102D01*
X119053641Y-80296397D01*
X119048817Y-80284606D01*
X119043669Y-80273619D01*
X119019465Y-80233706D01*
X118989154Y-80202676D01*
X118952448Y-80180312D01*
X118909060Y-80166398D01*
X118898890Y-80164499D01*
X118853973Y-80162185D01*
X118811397Y-80169983D01*
X118772275Y-80187269D01*
X118737722Y-80213423D01*
X118708851Y-80247823D01*
X118690702Y-80280624D01*
X118674072Y-80327653D01*
X118663725Y-80379274D01*
X118659695Y-80432868D01*
X118482193Y-80432868D01*
X118482552Y-80407668D01*
X118488816Y-80345860D01*
X118499336Y-80292522D01*
X118517252Y-80238960D01*
X118542611Y-80188488D01*
X118574171Y-80142750D01*
X118610691Y-80103390D01*
X118650932Y-80072052D01*
X118676649Y-80057637D01*
X118713533Y-80041981D01*
X118748747Y-80031902D01*
X118785841Y-80026744D01*
X118828364Y-80025853D01*
X118845738Y-80026453D01*
G37*
G36*
X120737341Y-80027236D02*
G01*
X120773916Y-80033608D01*
X120804117Y-80043761D01*
X120804918Y-80044138D01*
X120831358Y-80059891D01*
X120858189Y-80081345D01*
X120882751Y-80105883D01*
X120902384Y-80130890D01*
X120913281Y-80150731D01*
X120919923Y-80165282D01*
X120925525Y-80174580D01*
X120927719Y-80176385D01*
X120932642Y-80172217D01*
X120940819Y-80161552D01*
X120946191Y-80153451D01*
X120967607Y-80124951D01*
X120994651Y-80096950D01*
X121024094Y-80072405D01*
X121052708Y-80054271D01*
X121056671Y-80052314D01*
X121089927Y-80038729D01*
X121122955Y-80030211D01*
X121159136Y-80026176D01*
X121201854Y-80026037D01*
X121207283Y-80026243D01*
X121234803Y-80027739D01*
X121255228Y-80030092D01*
X121272263Y-80034092D01*
X121289614Y-80040527D01*
X121303621Y-80046759D01*
X121338676Y-80066473D01*
X121367422Y-80091043D01*
X121391123Y-80122032D01*
X121411045Y-80161003D01*
X121423902Y-80195308D01*
X121426643Y-80203718D01*
X121428962Y-80211793D01*
X121430899Y-80220493D01*
X121432497Y-80230773D01*
X121433796Y-80243592D01*
X121434840Y-80259906D01*
X121435668Y-80280675D01*
X121436324Y-80306855D01*
X121436849Y-80339404D01*
X121437285Y-80379279D01*
X121437673Y-80427438D01*
X121438054Y-80484839D01*
X121438310Y-80526107D01*
X121440109Y-80819101D01*
X121353727Y-80819101D01*
X121267345Y-80819101D01*
X121265288Y-80558512D01*
X121264760Y-80495722D01*
X121264195Y-80442718D01*
X121263510Y-80398482D01*
X121262621Y-80361999D01*
X121261445Y-80332253D01*
X121259898Y-80308228D01*
X121257898Y-80288906D01*
X121255360Y-80273273D01*
X121252201Y-80260311D01*
X121248339Y-80249005D01*
X121243688Y-80238338D01*
X121238168Y-80227294D01*
X121238100Y-80227164D01*
X121222459Y-80205684D01*
X121200347Y-80186163D01*
X121175975Y-80172178D01*
X121171286Y-80170390D01*
X121154522Y-80166559D01*
X121132457Y-80164013D01*
X121115044Y-80163360D01*
X121091616Y-80164539D01*
X121073763Y-80168692D01*
X121056400Y-80177041D01*
X121055184Y-80177748D01*
X121021048Y-80203926D01*
X120992816Y-80238643D01*
X120971029Y-80281061D01*
X120956233Y-80330340D01*
X120956216Y-80330422D01*
X120954121Y-80342533D01*
X120952401Y-80357921D01*
X120951023Y-80377621D01*
X120949954Y-80402670D01*
X120949164Y-80434104D01*
X120948621Y-80472959D01*
X120948292Y-80520272D01*
X120948146Y-80577078D01*
X120948134Y-80593617D01*
X120948040Y-80819101D01*
X120861627Y-80819101D01*
X120775214Y-80819101D01*
X120775170Y-80599018D01*
X120775026Y-80549140D01*
X120774633Y-80500830D01*
X120774024Y-80455569D01*
X120773226Y-80414837D01*
X120772271Y-80380113D01*
X120771189Y-80352878D01*
X120770010Y-80334612D01*
X120769718Y-80331746D01*
X120760823Y-80281277D01*
X120746646Y-80240104D01*
X120726973Y-80207987D01*
X120701593Y-80184686D01*
X120670292Y-80169957D01*
X120632859Y-80163562D01*
X120621142Y-80163232D01*
X120583380Y-80167450D01*
X120550892Y-80180566D01*
X120522586Y-80203179D01*
X120502338Y-80228333D01*
X120492881Y-80242265D01*
X120484933Y-80254765D01*
X120478351Y-80266896D01*
X120472994Y-80279719D01*
X120468718Y-80294297D01*
X120465380Y-80311692D01*
X120462838Y-80332964D01*
X120460949Y-80359178D01*
X120459571Y-80391394D01*
X120458560Y-80430674D01*
X120457773Y-80478081D01*
X120457069Y-80534676D01*
X120456689Y-80567963D01*
X120453866Y-80816401D01*
X120369835Y-80817883D01*
X120340731Y-80818164D01*
X120315508Y-80817967D01*
X120296108Y-80817343D01*
X120284473Y-80816341D01*
X120282072Y-80815632D01*
X120281457Y-80809748D01*
X120280873Y-80793929D01*
X120280330Y-80769043D01*
X120279834Y-80735957D01*
X120279396Y-80695538D01*
X120279022Y-80648654D01*
X120278721Y-80596171D01*
X120278502Y-80538957D01*
X120278373Y-80477879D01*
X120278340Y-80426642D01*
X120278340Y-80041385D01*
X120367453Y-80041385D01*
X120456566Y-80041385D01*
X120456820Y-80102144D01*
X120457074Y-80162903D01*
X120471438Y-80144000D01*
X120508160Y-80101956D01*
X120547563Y-80069561D01*
X120591173Y-80045721D01*
X120626508Y-80033105D01*
X120659924Y-80026755D01*
X120698106Y-80024875D01*
X120737341Y-80027236D01*
G37*
G36*
X115202727Y-75392277D02*
G01*
X115517880Y-75392294D01*
X115843268Y-75392321D01*
X116178869Y-75392358D01*
X116524668Y-75392406D01*
X116880643Y-75392465D01*
X117246776Y-75392534D01*
X117623049Y-75392613D01*
X118009442Y-75392703D01*
X118082911Y-75392721D01*
X118424495Y-75392806D01*
X118755445Y-75392889D01*
X119075931Y-75392971D01*
X119386122Y-75393052D01*
X119686185Y-75393133D01*
X119976290Y-75393212D01*
X120256604Y-75393292D01*
X120527298Y-75393372D01*
X120788539Y-75393452D01*
X121040496Y-75393533D01*
X121283338Y-75393614D01*
X121517233Y-75393696D01*
X121742350Y-75393780D01*
X121958857Y-75393865D01*
X122166923Y-75393952D01*
X122366717Y-75394041D01*
X122558408Y-75394132D01*
X122742164Y-75394226D01*
X122918153Y-75394323D01*
X123086544Y-75394422D01*
X123247507Y-75394525D01*
X123401208Y-75394632D01*
X123547818Y-75394742D01*
X123687505Y-75394856D01*
X123820437Y-75394974D01*
X123946783Y-75395097D01*
X124066712Y-75395225D01*
X124180392Y-75395358D01*
X124287992Y-75395496D01*
X124389680Y-75395640D01*
X124485625Y-75395789D01*
X124575997Y-75395945D01*
X124660962Y-75396106D01*
X124740691Y-75396274D01*
X124815351Y-75396449D01*
X124885111Y-75396631D01*
X124950141Y-75396821D01*
X125010607Y-75397018D01*
X125066680Y-75397222D01*
X125118528Y-75397435D01*
X125166319Y-75397656D01*
X125210222Y-75397885D01*
X125250406Y-75398123D01*
X125287039Y-75398370D01*
X125320289Y-75398627D01*
X125350327Y-75398893D01*
X125377319Y-75399168D01*
X125401435Y-75399454D01*
X125422844Y-75399750D01*
X125441713Y-75400057D01*
X125458212Y-75400374D01*
X125472509Y-75400702D01*
X125484774Y-75401042D01*
X125495173Y-75401393D01*
X125503877Y-75401756D01*
X125511054Y-75402131D01*
X125516871Y-75402518D01*
X125521499Y-75402918D01*
X125525106Y-75403330D01*
X125527797Y-75403744D01*
X125634546Y-75427662D01*
X125734623Y-75459938D01*
X125828458Y-75500790D01*
X125916483Y-75550439D01*
X125999130Y-75609106D01*
X126076829Y-75677011D01*
X126091719Y-75691625D01*
X126161692Y-75768662D01*
X126222358Y-75850645D01*
X126273910Y-75937951D01*
X126316541Y-76030957D01*
X126350443Y-76130043D01*
X126375809Y-76235585D01*
X126379528Y-76255547D01*
X126380257Y-76260141D01*
X126380947Y-76265730D01*
X126381599Y-76272612D01*
X126382216Y-76281086D01*
X126382798Y-76291448D01*
X126383347Y-76303997D01*
X126383864Y-76319030D01*
X126384351Y-76336846D01*
X126384808Y-76357742D01*
X126385237Y-76382017D01*
X126385639Y-76409967D01*
X126386017Y-76441891D01*
X126386370Y-76478087D01*
X126386700Y-76518853D01*
X126387010Y-76564486D01*
X126387299Y-76615284D01*
X126387569Y-76671545D01*
X126387823Y-76733568D01*
X126388060Y-76801649D01*
X126388282Y-76876087D01*
X126388491Y-76957179D01*
X126388688Y-77045224D01*
X126388875Y-77140519D01*
X126389052Y-77243363D01*
X126389221Y-77354052D01*
X126389383Y-77472885D01*
X126389540Y-77600160D01*
X126389693Y-77736175D01*
X126389843Y-77881227D01*
X126389991Y-78035614D01*
X126390140Y-78199634D01*
X126390290Y-78373585D01*
X126390442Y-78557766D01*
X126390586Y-78737090D01*
X126390747Y-78955926D01*
X126390876Y-79165271D01*
X126390972Y-79365062D01*
X126391035Y-79555232D01*
X126391066Y-79735718D01*
X126391065Y-79906455D01*
X126391032Y-80067378D01*
X126390967Y-80218423D01*
X126390869Y-80359525D01*
X126390740Y-80490619D01*
X126390579Y-80611641D01*
X126390386Y-80722527D01*
X126390162Y-80823212D01*
X126389906Y-80913630D01*
X126389619Y-80993719D01*
X126389300Y-81063412D01*
X126388950Y-81122645D01*
X126388568Y-81171355D01*
X126388156Y-81209475D01*
X126387713Y-81236942D01*
X126387238Y-81253691D01*
X126387093Y-81256566D01*
X126379251Y-81341865D01*
X126366167Y-81420312D01*
X126347127Y-81494860D01*
X126321417Y-81568463D01*
X126299018Y-81621121D01*
X126251589Y-81712715D01*
X126195506Y-81798331D01*
X126131419Y-81877450D01*
X126059978Y-81949550D01*
X125981832Y-82014113D01*
X125897631Y-82070620D01*
X125808025Y-82118550D01*
X125713663Y-82157384D01*
X125615195Y-82186602D01*
X125582910Y-82193839D01*
X125551651Y-82199447D01*
X125514320Y-82204836D01*
X125475639Y-82209388D01*
X125440896Y-82212445D01*
X125432501Y-82212650D01*
X125413545Y-82212850D01*
X125384267Y-82213046D01*
X125344907Y-82213236D01*
X125295706Y-82213423D01*
X125236903Y-82213604D01*
X125168739Y-82213781D01*
X125091453Y-82213953D01*
X125005285Y-82214120D01*
X124910476Y-82214283D01*
X124807265Y-82214441D01*
X124695892Y-82214594D01*
X124576598Y-82214743D01*
X124449622Y-82214887D01*
X124315204Y-82215026D01*
X124173585Y-82215161D01*
X124025005Y-82215291D01*
X123869702Y-82215416D01*
X123707918Y-82215537D01*
X123539893Y-82215653D01*
X123365865Y-82215764D01*
X123186077Y-82215871D01*
X123000766Y-82215973D01*
X122810174Y-82216070D01*
X122614540Y-82216163D01*
X122414105Y-82216251D01*
X122209108Y-82216335D01*
X121999789Y-82216414D01*
X121786389Y-82216488D01*
X121569147Y-82216558D01*
X121348303Y-82216623D01*
X121124098Y-82216683D01*
X120896771Y-82216739D01*
X120666562Y-82216790D01*
X120433712Y-82216836D01*
X120198461Y-82216878D01*
X119961047Y-82216915D01*
X119721712Y-82216948D01*
X119480695Y-82216976D01*
X119238237Y-82216999D01*
X118994577Y-82217018D01*
X118749955Y-82217032D01*
X118504612Y-82217042D01*
X118258787Y-82217047D01*
X118012720Y-82217047D01*
X117766652Y-82217043D01*
X117520822Y-82217034D01*
X117275471Y-82217021D01*
X117030837Y-82217003D01*
X116787162Y-82216980D01*
X116544686Y-82216953D01*
X116303648Y-82216921D01*
X116064288Y-82216884D01*
X115826846Y-82216843D01*
X115591563Y-82216798D01*
X115358678Y-82216748D01*
X115128432Y-82216693D01*
X114901064Y-82216633D01*
X114676814Y-82216569D01*
X114455923Y-82216501D01*
X114238629Y-82216428D01*
X114025175Y-82216350D01*
X113815798Y-82216268D01*
X113610740Y-82216181D01*
X113410240Y-82216090D01*
X113214539Y-82215994D01*
X113023876Y-82215893D01*
X112838491Y-82215788D01*
X112658625Y-82215679D01*
X112484517Y-82215564D01*
X112316407Y-82215446D01*
X112154535Y-82215322D01*
X111999142Y-82215195D01*
X111850467Y-82215062D01*
X111708751Y-82214925D01*
X111574233Y-82214784D01*
X111447153Y-82214638D01*
X111327751Y-82214487D01*
X111216268Y-82214332D01*
X111112943Y-82214172D01*
X111018017Y-82214008D01*
X110931729Y-82213840D01*
X110854319Y-82213666D01*
X110786027Y-82213489D01*
X110727094Y-82213306D01*
X110677759Y-82213119D01*
X110638262Y-82212928D01*
X110608844Y-82212732D01*
X110589744Y-82212532D01*
X110581203Y-82212327D01*
X110581189Y-82212326D01*
X110479781Y-82200245D01*
X110379995Y-82177636D01*
X110282576Y-82144734D01*
X110188266Y-82101777D01*
X110128047Y-82068009D01*
X110043371Y-82010541D01*
X109965293Y-81944904D01*
X109894348Y-81871866D01*
X109831074Y-81792193D01*
X109776005Y-81706656D01*
X109729679Y-81616022D01*
X109692629Y-81521060D01*
X109665394Y-81422536D01*
X109660143Y-81397242D01*
X109655518Y-81369482D01*
X109650950Y-81335285D01*
X109646965Y-81299005D01*
X109644109Y-81265208D01*
X109643700Y-81253776D01*
X109643308Y-81231970D01*
X109642933Y-81200215D01*
X109642574Y-81158940D01*
X109642231Y-81108570D01*
X109641905Y-81049532D01*
X109641595Y-80982254D01*
X109641301Y-80907162D01*
X109641024Y-80824682D01*
X109640764Y-80735243D01*
X109640520Y-80639270D01*
X109640292Y-80537190D01*
X109640081Y-80429430D01*
X109639887Y-80316417D01*
X109639708Y-80198577D01*
X109639547Y-80076339D01*
X109639402Y-79950127D01*
X109639273Y-79820370D01*
X109639160Y-79687493D01*
X109639064Y-79551925D01*
X109638985Y-79414091D01*
X109638922Y-79274418D01*
X109638876Y-79133333D01*
X109638846Y-78991263D01*
X109638832Y-78848635D01*
X109638833Y-78807300D01*
X109857481Y-78807300D01*
X109857482Y-79003843D01*
X109857485Y-79189878D01*
X109857493Y-79365700D01*
X109857505Y-79531604D01*
X109857523Y-79687883D01*
X109857549Y-79834831D01*
X109857583Y-79972743D01*
X109857627Y-80101914D01*
X109857682Y-80222637D01*
X109857748Y-80335206D01*
X109857828Y-80439917D01*
X109857922Y-80537063D01*
X109858031Y-80626938D01*
X109858157Y-80709836D01*
X109858300Y-80786053D01*
X109858463Y-80855882D01*
X109858645Y-80919617D01*
X109858849Y-80977553D01*
X109859075Y-81029984D01*
X109859324Y-81077204D01*
X109859598Y-81119508D01*
X109859898Y-81157189D01*
X109860225Y-81190542D01*
X109860580Y-81219861D01*
X109860965Y-81245441D01*
X109861379Y-81267576D01*
X109861826Y-81286559D01*
X109862305Y-81302686D01*
X109862818Y-81316250D01*
X109863366Y-81327546D01*
X109863951Y-81336868D01*
X109864573Y-81344510D01*
X109865233Y-81350766D01*
X109865933Y-81355932D01*
X109866674Y-81360300D01*
X109867457Y-81364165D01*
X109867548Y-81364583D01*
X109890639Y-81449512D01*
X109921876Y-81529492D01*
X109938831Y-81564605D01*
X109985545Y-81644482D01*
X110040277Y-81717738D01*
X110102311Y-81783862D01*
X110170926Y-81842343D01*
X110245406Y-81892671D01*
X110325031Y-81934335D01*
X110409083Y-81966824D01*
X110496845Y-81989629D01*
X110548784Y-81998167D01*
X110554771Y-81998247D01*
X110571365Y-81998325D01*
X110598371Y-81998402D01*
X110635593Y-81998477D01*
X110682836Y-81998550D01*
X110739906Y-81998622D01*
X110806607Y-81998691D01*
X110882745Y-81998759D01*
X110968124Y-81998826D01*
X111062550Y-81998890D01*
X111165826Y-81998952D01*
X111277760Y-81999013D01*
X111398154Y-81999071D01*
X111526814Y-81999128D01*
X111663546Y-81999182D01*
X111808154Y-81999234D01*
X111960443Y-81999284D01*
X112120219Y-81999332D01*
X112287285Y-81999378D01*
X112461447Y-81999421D01*
X112642511Y-81999462D01*
X112830280Y-81999501D01*
X113024560Y-81999537D01*
X113225157Y-81999571D01*
X113431874Y-81999602D01*
X113644517Y-81999631D01*
X113862891Y-81999658D01*
X114086801Y-81999681D01*
X114316051Y-81999703D01*
X114550447Y-81999721D01*
X114789794Y-81999737D01*
X115033897Y-81999750D01*
X115282560Y-81999760D01*
X115535589Y-81999767D01*
X115792789Y-81999772D01*
X116053964Y-81999773D01*
X116318920Y-81999772D01*
X116587461Y-81999767D01*
X116859393Y-81999760D01*
X117134520Y-81999750D01*
X117412648Y-81999736D01*
X117693581Y-81999719D01*
X117977125Y-81999699D01*
X118031604Y-81999695D01*
X125498221Y-81999115D01*
X125554929Y-81984777D01*
X125611129Y-81969231D01*
X125660461Y-81952435D01*
X125706858Y-81932932D01*
X125743957Y-81914686D01*
X125823552Y-81867375D01*
X125896452Y-81811955D01*
X125962150Y-81749132D01*
X126020136Y-81679606D01*
X126069900Y-81604080D01*
X126110934Y-81523258D01*
X126142728Y-81437841D01*
X126164773Y-81348531D01*
X126168069Y-81329638D01*
X126168747Y-81320040D01*
X126169399Y-81300056D01*
X126170025Y-81270106D01*
X126170623Y-81230605D01*
X126171195Y-81181971D01*
X126171740Y-81124621D01*
X126172259Y-81058972D01*
X126172751Y-80985441D01*
X126173216Y-80904446D01*
X126173654Y-80816403D01*
X126174065Y-80721729D01*
X126174450Y-80620842D01*
X126174808Y-80514160D01*
X126175140Y-80402097D01*
X126175444Y-80285073D01*
X126175722Y-80163504D01*
X126175973Y-80037808D01*
X126176198Y-79908400D01*
X126176395Y-79775700D01*
X126176566Y-79640122D01*
X126176711Y-79502086D01*
X126176828Y-79362007D01*
X126176919Y-79220303D01*
X126176983Y-79077391D01*
X126177020Y-78933689D01*
X126177031Y-78789612D01*
X126177015Y-78645579D01*
X126176972Y-78502006D01*
X126176902Y-78359312D01*
X126176806Y-78217911D01*
X126176683Y-78078223D01*
X126176533Y-77940663D01*
X126176356Y-77805650D01*
X126176153Y-77673600D01*
X126175923Y-77544930D01*
X126175666Y-77420057D01*
X126175383Y-77299399D01*
X126175073Y-77183373D01*
X126174736Y-77072395D01*
X126174372Y-76966883D01*
X126173982Y-76867254D01*
X126173565Y-76773926D01*
X126173121Y-76687314D01*
X126172651Y-76607837D01*
X126172153Y-76535911D01*
X126171629Y-76471954D01*
X126171079Y-76416382D01*
X126170501Y-76369613D01*
X126169897Y-76332064D01*
X126169266Y-76304152D01*
X126168608Y-76286294D01*
X126168069Y-76279561D01*
X126148044Y-76189157D01*
X126118162Y-76102580D01*
X126078900Y-76020520D01*
X126030738Y-75943668D01*
X125974154Y-75872715D01*
X125909627Y-75808351D01*
X125837635Y-75751267D01*
X125773863Y-75710659D01*
X125691693Y-75669559D01*
X125606098Y-75638620D01*
X125516450Y-75617620D01*
X125500921Y-75615048D01*
X125497672Y-75614677D01*
X125492644Y-75614318D01*
X125485674Y-75613970D01*
X125476599Y-75613634D01*
X125465255Y-75613310D01*
X125451478Y-75612996D01*
X125435105Y-75612694D01*
X125415972Y-75612403D01*
X125393915Y-75612123D01*
X125368771Y-75611853D01*
X125340377Y-75611594D01*
X125308568Y-75611345D01*
X125273182Y-75611107D01*
X125234054Y-75610878D01*
X125191021Y-75610660D01*
X125143919Y-75610452D01*
X125092585Y-75610253D01*
X125036855Y-75610064D01*
X124976565Y-75609884D01*
X124911553Y-75609714D01*
X124841653Y-75609553D01*
X124766704Y-75609401D01*
X124686541Y-75609257D01*
X124601000Y-75609123D01*
X124509918Y-75608997D01*
X124413131Y-75608879D01*
X124310476Y-75608770D01*
X124201789Y-75608669D01*
X124086907Y-75608576D01*
X123965666Y-75608491D01*
X123837902Y-75608413D01*
X123703452Y-75608344D01*
X123562151Y-75608281D01*
X123413838Y-75608226D01*
X123258347Y-75608179D01*
X123095516Y-75608138D01*
X122925180Y-75608104D01*
X122747177Y-75608077D01*
X122561342Y-75608057D01*
X122367512Y-75608043D01*
X122165523Y-75608035D01*
X121955212Y-75608034D01*
X121736416Y-75608039D01*
X121508969Y-75608049D01*
X121272710Y-75608066D01*
X121027474Y-75608088D01*
X120773098Y-75608115D01*
X120509418Y-75608148D01*
X120236270Y-75608186D01*
X119953492Y-75608230D01*
X119660919Y-75608278D01*
X119358387Y-75608331D01*
X119045734Y-75608388D01*
X118722795Y-75608451D01*
X118389407Y-75608517D01*
X118045407Y-75608588D01*
X117991097Y-75608599D01*
X110532582Y-75610161D01*
X110483974Y-75621851D01*
X110390926Y-75649332D01*
X110304218Y-75685526D01*
X110223683Y-75730525D01*
X110149155Y-75784422D01*
X110087574Y-75840115D01*
X110025487Y-75909599D01*
X109972630Y-75984665D01*
X109928973Y-76065370D01*
X109894484Y-76151771D01*
X109870103Y-76239533D01*
X109857481Y-76295924D01*
X109857481Y-78807300D01*
X109638833Y-78807300D01*
X109638835Y-78705876D01*
X109638854Y-78563412D01*
X109638890Y-78421670D01*
X109638942Y-78281077D01*
X109639011Y-78142060D01*
X109639096Y-78005045D01*
X109639198Y-77870460D01*
X109639316Y-77738731D01*
X109639451Y-77610285D01*
X109639602Y-77485549D01*
X109639770Y-77364950D01*
X109639954Y-77248914D01*
X109640154Y-77137868D01*
X109640372Y-77032239D01*
X109640605Y-76932454D01*
X109640855Y-76838940D01*
X109641121Y-76752123D01*
X109641404Y-76672430D01*
X109641704Y-76600289D01*
X109642020Y-76536125D01*
X109642352Y-76480366D01*
X109642701Y-76433439D01*
X109643066Y-76395769D01*
X109643448Y-76367785D01*
X109643847Y-76349913D01*
X109644100Y-76344122D01*
X109656144Y-76239151D01*
X109677759Y-76138827D01*
X109709212Y-76042311D01*
X109750771Y-75948765D01*
X109795212Y-75869374D01*
X109850499Y-75789406D01*
X109914719Y-75714355D01*
X109986743Y-75645207D01*
X110065442Y-75582949D01*
X110149688Y-75528569D01*
X110235537Y-75484326D01*
X110310370Y-75453463D01*
X110384066Y-75429798D01*
X110459581Y-75412615D01*
X110539875Y-75401200D01*
X110600092Y-75396285D01*
X110610230Y-75396003D01*
X110631151Y-75395732D01*
X110662836Y-75395471D01*
X110705266Y-75395220D01*
X110758421Y-75394979D01*
X110822284Y-75394748D01*
X110896835Y-75394528D01*
X110982054Y-75394317D01*
X111077924Y-75394117D01*
X111184426Y-75393927D01*
X111301539Y-75393748D01*
X111429246Y-75393579D01*
X111567528Y-75393420D01*
X111716365Y-75393271D01*
X111875739Y-75393132D01*
X112045631Y-75393004D01*
X112226021Y-75392886D01*
X112416892Y-75392778D01*
X112618223Y-75392681D01*
X112829997Y-75392594D01*
X113052193Y-75392517D01*
X113284794Y-75392451D01*
X113527780Y-75392395D01*
X113781132Y-75392349D01*
X114044832Y-75392314D01*
X114318861Y-75392289D01*
X114603198Y-75392275D01*
X114897827Y-75392271D01*
X115202727Y-75392277D01*
G37*
G36*
X118307401Y-75898887D02*
G01*
X118552258Y-75898896D01*
X118796607Y-75898910D01*
X119040207Y-75898930D01*
X119282817Y-75898955D01*
X119524196Y-75898986D01*
X119764103Y-75899022D01*
X120002299Y-75899063D01*
X120238542Y-75899110D01*
X120472592Y-75899163D01*
X120704208Y-75899220D01*
X120933149Y-75899284D01*
X121159175Y-75899352D01*
X121382045Y-75899426D01*
X121601519Y-75899506D01*
X121817356Y-75899591D01*
X122029315Y-75899681D01*
X122237155Y-75899777D01*
X122440636Y-75899879D01*
X122639518Y-75899986D01*
X122833559Y-75900098D01*
X123022519Y-75900216D01*
X123206158Y-75900339D01*
X123384234Y-75900467D01*
X123556507Y-75900601D01*
X123722737Y-75900741D01*
X123882683Y-75900886D01*
X124036103Y-75901036D01*
X124182758Y-75901192D01*
X124322407Y-75901353D01*
X124454809Y-75901520D01*
X124579723Y-75901692D01*
X124696910Y-75901870D01*
X124806127Y-75902053D01*
X124907135Y-75902241D01*
X124999694Y-75902435D01*
X125083561Y-75902635D01*
X125158497Y-75902840D01*
X125224261Y-75903050D01*
X125280612Y-75903266D01*
X125327311Y-75903487D01*
X125364115Y-75903713D01*
X125390784Y-75903945D01*
X125407079Y-75904183D01*
X125412409Y-75904370D01*
X125489501Y-75916231D01*
X125561729Y-75937707D01*
X125628993Y-75968753D01*
X125691190Y-76009321D01*
X125746902Y-76058044D01*
X125796718Y-76115200D01*
X125837057Y-76177520D01*
X125867872Y-76244905D01*
X125889116Y-76317252D01*
X125900577Y-76392538D01*
X125901234Y-76405499D01*
X125901849Y-76428579D01*
X125902421Y-76461091D01*
X125902950Y-76502353D01*
X125903436Y-76551679D01*
X125903879Y-76608386D01*
X125904278Y-76671790D01*
X125904635Y-76741206D01*
X125904949Y-76815950D01*
X125905219Y-76895339D01*
X125905447Y-76978688D01*
X125905632Y-77065312D01*
X125905773Y-77154528D01*
X125905872Y-77245651D01*
X125905927Y-77337998D01*
X125905939Y-77430884D01*
X125905909Y-77523625D01*
X125905835Y-77615537D01*
X125905718Y-77705936D01*
X125905559Y-77794137D01*
X125905356Y-77879457D01*
X125905110Y-77961211D01*
X125904821Y-78038715D01*
X125904489Y-78111285D01*
X125904114Y-78178236D01*
X125903696Y-78238886D01*
X125903235Y-78292548D01*
X125902731Y-78338540D01*
X125902184Y-78376178D01*
X125901594Y-78404776D01*
X125900961Y-78423651D01*
X125900577Y-78429845D01*
X125888716Y-78506937D01*
X125867240Y-78579165D01*
X125836194Y-78646428D01*
X125795626Y-78708625D01*
X125746902Y-78764338D01*
X125689747Y-78814154D01*
X125627426Y-78854493D01*
X125560042Y-78885308D01*
X125487694Y-78906552D01*
X125412409Y-78918012D01*
X125404587Y-78918228D01*
X125386206Y-78918438D01*
X125357504Y-78918643D01*
X125318723Y-78918842D01*
X125270102Y-78919037D01*
X125211882Y-78919227D01*
X125144304Y-78919411D01*
X125067607Y-78919590D01*
X124982033Y-78919764D01*
X124887820Y-78919933D01*
X124785210Y-78920097D01*
X124674443Y-78920255D01*
X124555759Y-78920409D01*
X124429398Y-78920557D01*
X124295601Y-78920701D01*
X124154608Y-78920839D01*
X124006660Y-78920972D01*
X123851996Y-78921100D01*
X123690857Y-78921223D01*
X123523484Y-78921341D01*
X123350116Y-78921454D01*
X123170994Y-78921562D01*
X122986358Y-78921665D01*
X122796448Y-78921763D01*
X122601506Y-78921856D01*
X122401770Y-78921944D01*
X122197482Y-78922027D01*
X121988882Y-78922105D01*
X121776209Y-78922178D01*
X121559705Y-78922246D01*
X121339609Y-78922309D01*
X121116163Y-78922367D01*
X120889606Y-78922420D01*
X120660178Y-78922468D01*
X120428120Y-78922511D01*
X120193672Y-78922549D01*
X119957075Y-78922583D01*
X119718568Y-78922611D01*
X119478393Y-78922635D01*
X119236788Y-78922653D01*
X118993996Y-78922667D01*
X118750255Y-78922676D01*
X118505807Y-78922680D01*
X118260891Y-78922679D01*
X118015749Y-78922674D01*
X117770619Y-78922663D01*
X117525743Y-78922648D01*
X117281361Y-78922627D01*
X117037712Y-78922602D01*
X116795039Y-78922572D01*
X116553580Y-78922538D01*
X116313576Y-78922498D01*
X116075267Y-78922454D01*
X115838894Y-78922405D01*
X115604697Y-78922351D01*
X115372916Y-78922292D01*
X115143791Y-78922229D01*
X114917564Y-78922161D01*
X114694474Y-78922088D01*
X114474761Y-78922010D01*
X114258666Y-78921928D01*
X114046429Y-78921841D01*
X113838290Y-78921749D01*
X113634490Y-78921653D01*
X113435269Y-78921551D01*
X113240867Y-78921445D01*
X113051525Y-78921335D01*
X112867483Y-78921220D01*
X112688981Y-78921100D01*
X112516259Y-78920975D01*
X112349558Y-78920846D01*
X112189119Y-78920712D01*
X112035181Y-78920573D01*
X111887984Y-78920430D01*
X111747770Y-78920282D01*
X111614778Y-78920130D01*
X111489248Y-78919973D01*
X111371422Y-78919811D01*
X111261539Y-78919645D01*
X111159839Y-78919474D01*
X111066563Y-78919298D01*
X110981951Y-78919118D01*
X110906244Y-78918934D01*
X110839682Y-78918745D01*
X110782504Y-78918551D01*
X110734952Y-78918353D01*
X110697266Y-78918150D01*
X110669686Y-78917943D01*
X110652452Y-78917731D01*
X110645999Y-78917538D01*
X110573782Y-78905665D01*
X110503808Y-78883618D01*
X110437302Y-78851975D01*
X110375491Y-78811316D01*
X110321706Y-78764338D01*
X110271890Y-78707182D01*
X110231551Y-78644862D01*
X110200736Y-78577477D01*
X110179492Y-78505130D01*
X110168031Y-78429845D01*
X110167373Y-78416883D01*
X110166758Y-78393804D01*
X110166187Y-78361291D01*
X110165658Y-78320030D01*
X110165172Y-78270703D01*
X110164729Y-78213996D01*
X110164329Y-78150592D01*
X110163973Y-78081176D01*
X110163659Y-78006432D01*
X110163388Y-77927043D01*
X110163161Y-77843695D01*
X110162976Y-77757070D01*
X110162835Y-77667854D01*
X110162736Y-77576731D01*
X110162705Y-77524803D01*
X112052884Y-77524803D01*
X112053530Y-77569501D01*
X112055768Y-77611478D01*
X112059593Y-77647384D01*
X112060970Y-77656027D01*
X112076566Y-77719382D01*
X112099865Y-77777207D01*
X112130237Y-77828760D01*
X112167052Y-77873300D01*
X112209679Y-77910084D01*
X112257487Y-77938370D01*
X112309846Y-77957416D01*
X112318902Y-77959624D01*
X112342512Y-77963153D01*
X112372874Y-77965061D01*
X112406893Y-77965423D01*
X112441478Y-77964317D01*
X112473535Y-77961818D01*
X112499973Y-77958003D01*
X112512746Y-77954832D01*
X112565075Y-77933085D01*
X112612019Y-77903800D01*
X112651976Y-77868141D01*
X112679083Y-77833943D01*
X112695605Y-77808999D01*
X112695605Y-77877435D01*
X112695605Y-77945871D01*
X112798221Y-77945871D01*
X112900836Y-77945871D01*
X112900836Y-77510256D01*
X113095115Y-77510256D01*
X113095489Y-77548638D01*
X113096974Y-77585049D01*
X113099565Y-77616312D01*
X113101084Y-77627815D01*
X113106043Y-77653209D01*
X113113335Y-77682662D01*
X113121453Y-77710139D01*
X113122129Y-77712177D01*
X113147331Y-77771338D01*
X113180752Y-77823760D01*
X113221783Y-77868907D01*
X113269816Y-77906243D01*
X113324243Y-77935231D01*
X113384456Y-77955335D01*
X113402335Y-77959312D01*
X113427154Y-77962771D01*
X113459614Y-77965169D01*
X113496601Y-77966470D01*
X113535004Y-77966635D01*
X113571709Y-77965628D01*
X113603603Y-77963412D01*
X113616443Y-77961885D01*
X113671177Y-77951733D01*
X113723440Y-77937533D01*
X113769595Y-77920316D01*
X113779817Y-77915630D01*
X113818973Y-77896858D01*
X113818973Y-77813348D01*
X113818769Y-77784697D01*
X113818206Y-77760284D01*
X113817358Y-77741949D01*
X113816298Y-77731530D01*
X113815629Y-77729839D01*
X113809661Y-77732447D01*
X113797196Y-77739290D01*
X113780909Y-77748899D01*
X113780581Y-77749098D01*
X113729892Y-77775067D01*
X113676299Y-77793767D01*
X113621368Y-77805173D01*
X113566661Y-77809255D01*
X113513744Y-77805986D01*
X113464179Y-77795340D01*
X113419532Y-77777289D01*
X113386499Y-77756010D01*
X113354862Y-77724369D01*
X113329634Y-77685251D01*
X113311806Y-77640521D01*
X113303119Y-77598774D01*
X113299251Y-77567815D01*
X113594217Y-77567815D01*
X113889184Y-77567815D01*
X113889184Y-77509614D01*
X113886051Y-77431203D01*
X113876526Y-77361054D01*
X113860421Y-77298588D01*
X113837545Y-77243225D01*
X113807711Y-77194385D01*
X113773331Y-77154085D01*
X113729964Y-77117842D01*
X113680496Y-77089613D01*
X113661369Y-77082544D01*
X113948593Y-77082544D01*
X113950417Y-77088444D01*
X113955708Y-77103727D01*
X113964193Y-77127640D01*
X113975599Y-77159430D01*
X113989655Y-77198347D01*
X114006086Y-77243638D01*
X114024622Y-77294551D01*
X114044988Y-77350335D01*
X114066913Y-77410237D01*
X114090124Y-77473506D01*
X114106223Y-77517309D01*
X114263853Y-77945871D01*
X114942341Y-77945871D01*
X115044957Y-77945871D01*
X115147572Y-77945871D01*
X115147572Y-77542581D01*
X115341854Y-77542581D01*
X115343585Y-77586617D01*
X115347609Y-77625540D01*
X115350351Y-77641307D01*
X115368717Y-77705653D01*
X115395883Y-77764486D01*
X115431191Y-77817133D01*
X115473979Y-77862919D01*
X115523590Y-77901172D01*
X115579364Y-77931217D01*
X115640642Y-77952383D01*
X115659108Y-77956713D01*
X115700936Y-77963086D01*
X115748788Y-77966413D01*
X115798306Y-77966632D01*
X115845135Y-77963685D01*
X115873981Y-77959704D01*
X115933949Y-77945433D01*
X115987037Y-77925595D01*
X115999809Y-77919423D01*
X116022503Y-77907846D01*
X116022503Y-77818842D01*
X116022310Y-77789205D01*
X116021775Y-77763749D01*
X116020966Y-77744255D01*
X116019951Y-77732504D01*
X116019133Y-77729839D01*
X116013289Y-77732630D01*
X116001090Y-77739972D01*
X115985096Y-77750319D01*
X115983950Y-77751083D01*
X115933814Y-77778488D01*
X115881027Y-77796016D01*
X115826840Y-77803584D01*
X115772501Y-77801111D01*
X115719259Y-77788513D01*
X115678384Y-77771137D01*
X115647515Y-77750069D01*
X115618230Y-77720604D01*
X115592287Y-77685147D01*
X115571441Y-77646103D01*
X115557452Y-77605875D01*
X115557388Y-77605620D01*
X115552881Y-77578538D01*
X115550557Y-77545024D01*
X115550371Y-77510256D01*
X116151972Y-77510256D01*
X116152347Y-77548638D01*
X116153832Y-77585049D01*
X116156423Y-77616312D01*
X116157941Y-77627815D01*
X116162901Y-77653209D01*
X116170192Y-77682662D01*
X116178310Y-77710139D01*
X116178986Y-77712177D01*
X116204189Y-77771338D01*
X116237610Y-77823760D01*
X116278641Y-77868907D01*
X116326674Y-77906243D01*
X116381101Y-77935231D01*
X116441313Y-77955335D01*
X116459192Y-77959312D01*
X116484012Y-77962771D01*
X116516471Y-77965169D01*
X116553459Y-77966470D01*
X116591861Y-77966635D01*
X116628566Y-77965628D01*
X116660460Y-77963412D01*
X116673300Y-77961885D01*
X116728034Y-77951733D01*
X116780298Y-77937533D01*
X116819278Y-77922992D01*
X117070260Y-77922992D01*
X117114816Y-77937452D01*
X117142080Y-77945534D01*
X117171940Y-77953210D01*
X117198244Y-77958906D01*
X117199879Y-77959205D01*
X117232361Y-77963395D01*
X117271658Y-77965915D01*
X117314219Y-77966759D01*
X117356496Y-77965923D01*
X117394939Y-77963400D01*
X117424013Y-77959558D01*
X117487167Y-77944265D01*
X117542447Y-77923083D01*
X117589506Y-77896312D01*
X117628000Y-77864253D01*
X117657581Y-77827207D01*
X117677904Y-77785475D01*
X117688623Y-77739357D01*
X117689652Y-77728725D01*
X117689127Y-77675923D01*
X117679253Y-77628339D01*
X117659868Y-77585507D01*
X117630808Y-77546962D01*
X117623383Y-77539291D01*
X117600498Y-77520152D01*
X117569428Y-77499356D01*
X117532398Y-77478119D01*
X117491635Y-77457657D01*
X117449367Y-77439186D01*
X117419076Y-77427741D01*
X117373607Y-77410554D01*
X117340042Y-77394989D01*
X117864178Y-77394989D01*
X117864178Y-77470600D01*
X117864178Y-77546211D01*
X118099114Y-77546211D01*
X118334049Y-77546211D01*
X118334049Y-77470600D01*
X118334049Y-77394989D01*
X118099114Y-77394989D01*
X117864178Y-77394989D01*
X117340042Y-77394989D01*
X117337967Y-77394027D01*
X117311270Y-77377433D01*
X117292633Y-77360046D01*
X117281171Y-77341136D01*
X117276000Y-77319978D01*
X117275490Y-77309643D01*
X117280553Y-77282945D01*
X117295090Y-77259580D01*
X117318127Y-77240148D01*
X117348689Y-77225247D01*
X117385802Y-77215477D01*
X117428489Y-77211436D01*
X117435459Y-77211361D01*
X117494380Y-77215844D01*
X117549772Y-77229737D01*
X117596136Y-77249418D01*
X117615720Y-77259001D01*
X117631723Y-77266357D01*
X117641650Y-77270360D01*
X117643393Y-77270770D01*
X117644977Y-77265667D01*
X117646337Y-77251545D01*
X117647378Y-77230186D01*
X117648005Y-77203372D01*
X117648146Y-77181874D01*
X117648146Y-77092977D01*
X117613527Y-77082285D01*
X117575371Y-77071709D01*
X117538985Y-77064520D01*
X117500699Y-77060211D01*
X117456839Y-77058278D01*
X117437515Y-77058059D01*
X117384979Y-77059228D01*
X117339911Y-77063539D01*
X117299316Y-77071442D01*
X117260201Y-77083387D01*
X117253887Y-77085700D01*
X117200795Y-77110107D01*
X117156305Y-77140125D01*
X117120718Y-77175278D01*
X117094335Y-77215086D01*
X117077458Y-77259073D01*
X117070387Y-77306759D01*
X117073425Y-77357668D01*
X117075404Y-77368873D01*
X117085008Y-77404444D01*
X117099561Y-77436353D01*
X117119892Y-77465302D01*
X117146829Y-77491994D01*
X117181200Y-77517129D01*
X117223832Y-77541409D01*
X117275553Y-77565537D01*
X117336008Y-77589767D01*
X117382097Y-77608231D01*
X117418448Y-77625453D01*
X117445937Y-77642196D01*
X117465439Y-77659220D01*
X117477830Y-77677290D01*
X117483986Y-77697166D01*
X117484805Y-77719283D01*
X117480280Y-77746246D01*
X117469514Y-77766585D01*
X117450756Y-77782838D01*
X117434814Y-77791745D01*
X117395220Y-77805894D01*
X117349795Y-77813020D01*
X117300649Y-77813425D01*
X117249890Y-77807410D01*
X117199628Y-77795277D01*
X117151971Y-77777328D01*
X117109028Y-77753864D01*
X117093573Y-77742949D01*
X117081997Y-77734652D01*
X117074326Y-77730123D01*
X117073320Y-77729839D01*
X117072340Y-77734955D01*
X117071489Y-77749162D01*
X117070823Y-77770751D01*
X117070396Y-77798011D01*
X117070260Y-77826416D01*
X117070260Y-77922992D01*
X116819278Y-77922992D01*
X116826452Y-77920316D01*
X116836675Y-77915630D01*
X116875831Y-77896858D01*
X116875831Y-77813348D01*
X116875627Y-77784697D01*
X116875064Y-77760284D01*
X116874216Y-77741949D01*
X116873156Y-77731530D01*
X116872486Y-77729839D01*
X116866519Y-77732447D01*
X116854054Y-77739290D01*
X116837767Y-77748899D01*
X116837438Y-77749098D01*
X116786749Y-77775067D01*
X116733157Y-77793767D01*
X116678225Y-77805173D01*
X116623519Y-77809255D01*
X116570601Y-77805986D01*
X116521037Y-77795340D01*
X116476389Y-77777289D01*
X116443356Y-77756010D01*
X116411719Y-77724369D01*
X116386492Y-77685251D01*
X116368663Y-77640521D01*
X116359977Y-77598774D01*
X116356108Y-77567815D01*
X116651075Y-77567815D01*
X116946041Y-77567815D01*
X116946041Y-77509614D01*
X116942908Y-77431203D01*
X116933383Y-77361054D01*
X116917278Y-77298588D01*
X116894402Y-77243225D01*
X116864568Y-77194385D01*
X116830189Y-77154085D01*
X116786821Y-77117842D01*
X116737353Y-77089613D01*
X116683111Y-77069566D01*
X116625418Y-77057870D01*
X116565599Y-77054693D01*
X116504979Y-77060204D01*
X116444882Y-77074570D01*
X116387057Y-77097753D01*
X116329983Y-77131548D01*
X116279989Y-77173280D01*
X116237470Y-77222402D01*
X116202825Y-77278365D01*
X116176449Y-77340621D01*
X116158738Y-77408621D01*
X116157571Y-77415069D01*
X116154579Y-77440293D01*
X116152715Y-77473081D01*
X116151972Y-77510256D01*
X115550371Y-77510256D01*
X115550363Y-77508698D01*
X115552244Y-77473183D01*
X115556146Y-77442100D01*
X115560117Y-77424693D01*
X115580496Y-77373081D01*
X115608568Y-77327595D01*
X115643445Y-77289142D01*
X115684240Y-77258624D01*
X115730066Y-77236945D01*
X115750542Y-77230708D01*
X115803333Y-77222544D01*
X115857698Y-77224308D01*
X115911748Y-77235695D01*
X115963592Y-77256401D01*
X115985352Y-77268467D01*
X116001380Y-77277907D01*
X116013634Y-77284575D01*
X116019283Y-77286973D01*
X116020320Y-77281859D01*
X116021069Y-77267664D01*
X116021492Y-77246102D01*
X116021555Y-77218890D01*
X116021277Y-77191192D01*
X116019803Y-77095411D01*
X115975996Y-77080870D01*
X115917958Y-77066130D01*
X115854362Y-77058001D01*
X115788296Y-77056617D01*
X115722847Y-77062114D01*
X115687492Y-77068274D01*
X115620770Y-77087491D01*
X115559921Y-77115561D01*
X115505448Y-77151961D01*
X115457857Y-77196169D01*
X115417653Y-77247664D01*
X115385341Y-77305924D01*
X115361426Y-77370426D01*
X115350406Y-77416592D01*
X115345265Y-77453889D01*
X115342414Y-77497112D01*
X115341854Y-77542581D01*
X115147572Y-77542581D01*
X115147572Y-77511106D01*
X115147572Y-77076341D01*
X115044957Y-77076341D01*
X114942341Y-77076341D01*
X114942341Y-77511106D01*
X114942341Y-77945871D01*
X114263853Y-77945871D01*
X114374913Y-77945844D01*
X114485973Y-77945816D01*
X114652178Y-77515129D01*
X114677249Y-77450113D01*
X114701169Y-77387984D01*
X114723656Y-77329481D01*
X114744427Y-77275341D01*
X114763202Y-77226304D01*
X114779697Y-77183108D01*
X114793630Y-77146491D01*
X114804720Y-77117192D01*
X114812685Y-77095950D01*
X114817241Y-77083502D01*
X114818253Y-77080392D01*
X114813082Y-77079155D01*
X114798737Y-77078070D01*
X114776845Y-77077200D01*
X114749034Y-77076605D01*
X114716931Y-77076347D01*
X114711151Y-77076341D01*
X114604179Y-77076341D01*
X114500753Y-77391199D01*
X114482092Y-77448257D01*
X114464288Y-77503171D01*
X114447660Y-77554928D01*
X114432528Y-77602511D01*
X114419209Y-77644907D01*
X114408023Y-77681100D01*
X114399288Y-77710076D01*
X114393324Y-77730819D01*
X114390462Y-77742247D01*
X114383597Y-77778437D01*
X114376706Y-77747387D01*
X114373866Y-77736751D01*
X114368062Y-77716811D01*
X114359596Y-77688558D01*
X114348773Y-77652982D01*
X114335897Y-77611074D01*
X114321274Y-77563825D01*
X114305207Y-77512226D01*
X114288001Y-77457267D01*
X114269961Y-77399938D01*
X114268825Y-77396339D01*
X114167835Y-77076341D01*
X114058214Y-77076341D01*
X114017754Y-77076543D01*
X113987332Y-77077176D01*
X113966187Y-77078283D01*
X113953563Y-77079908D01*
X113948702Y-77082093D01*
X113948593Y-77082544D01*
X113661369Y-77082544D01*
X113626254Y-77069566D01*
X113568560Y-77057870D01*
X113508742Y-77054693D01*
X113448121Y-77060204D01*
X113388025Y-77074570D01*
X113330200Y-77097753D01*
X113273126Y-77131548D01*
X113223131Y-77173280D01*
X113180613Y-77222402D01*
X113145968Y-77278365D01*
X113119591Y-77340621D01*
X113101880Y-77408621D01*
X113100714Y-77415069D01*
X113097722Y-77440293D01*
X113095857Y-77473081D01*
X113095115Y-77510256D01*
X112900836Y-77510256D01*
X112900836Y-77303175D01*
X112900836Y-76788220D01*
X114926139Y-76788220D01*
X114930769Y-76824012D01*
X114944084Y-76853985D01*
X114965218Y-76877366D01*
X114993305Y-76893385D01*
X115027481Y-76901269D01*
X115053302Y-76901620D01*
X115074051Y-76899073D01*
X115092853Y-76894724D01*
X115102021Y-76891225D01*
X115125116Y-76875046D01*
X115146008Y-76853042D01*
X115157110Y-76836117D01*
X115164632Y-76812024D01*
X115165973Y-76783359D01*
X115161363Y-76754243D01*
X115151142Y-76728985D01*
X115130354Y-76703475D01*
X115103468Y-76685282D01*
X115072598Y-76674701D01*
X115039853Y-76672026D01*
X115007347Y-76677555D01*
X114977191Y-76691582D01*
X114962813Y-76702626D01*
X114942881Y-76724411D01*
X114931260Y-76747705D01*
X114926474Y-76775957D01*
X114926139Y-76788220D01*
X112900836Y-76788220D01*
X112900836Y-76660479D01*
X118566284Y-76660479D01*
X118566284Y-77303175D01*
X118566284Y-77945871D01*
X118668899Y-77945871D01*
X118771514Y-77945871D01*
X118771514Y-77706148D01*
X118955222Y-77706148D01*
X118957881Y-77754211D01*
X118966518Y-77796070D01*
X118981795Y-77834925D01*
X118981908Y-77835155D01*
X119007352Y-77875007D01*
X119041116Y-77908953D01*
X119081897Y-77935987D01*
X119128393Y-77955109D01*
X119142991Y-77959087D01*
X119172523Y-77963933D01*
X119208365Y-77966358D01*
X119246295Y-77966355D01*
X119282094Y-77963920D01*
X119310348Y-77959332D01*
X119361128Y-77941918D01*
X119407239Y-77914946D01*
X119447899Y-77878934D01*
X119468557Y-77854269D01*
X119489822Y-77825969D01*
X119489822Y-77885920D01*
X119489822Y-77945871D01*
X119589737Y-77945871D01*
X119689652Y-77945871D01*
X119689652Y-77635097D01*
X119689619Y-77563782D01*
X119689469Y-77502337D01*
X119689128Y-77449830D01*
X119688518Y-77405330D01*
X119687564Y-77367904D01*
X119686191Y-77336622D01*
X119684322Y-77310552D01*
X119681881Y-77288762D01*
X119678793Y-77270321D01*
X119674981Y-77254296D01*
X119670371Y-77239756D01*
X119664886Y-77225770D01*
X119658449Y-77211406D01*
X119654471Y-77202995D01*
X119628782Y-77161534D01*
X119594575Y-77126221D01*
X119552567Y-77097598D01*
X119503475Y-77076211D01*
X119477409Y-77068627D01*
X119422293Y-77059184D01*
X119361362Y-77056145D01*
X119297250Y-77059182D01*
X119232587Y-77067969D01*
X119170008Y-77082177D01*
X119112145Y-77101480D01*
X119073959Y-77118825D01*
X119044255Y-77134249D01*
X119042774Y-77224113D01*
X119042432Y-77253899D01*
X119042423Y-77279513D01*
X119042723Y-77299184D01*
X119043310Y-77311139D01*
X119043916Y-77313977D01*
X119049225Y-77311131D01*
X119061339Y-77303485D01*
X119078174Y-77292376D01*
X119089105Y-77284992D01*
X119146498Y-77251817D01*
X119206474Y-77228413D01*
X119267933Y-77215102D01*
X119329774Y-77212211D01*
X119335091Y-77212460D01*
X119379823Y-77219046D01*
X119417209Y-77233411D01*
X119447036Y-77255361D01*
X119469097Y-77284702D01*
X119483180Y-77321241D01*
X119488462Y-77354231D01*
X119491096Y-77387045D01*
X119362190Y-77404927D01*
X119322989Y-77410542D01*
X119284553Y-77416371D01*
X119249103Y-77422053D01*
X119218862Y-77427226D01*
X119196051Y-77431529D01*
X119188449Y-77433167D01*
X119129596Y-77451136D01*
X119078971Y-77475836D01*
X119036752Y-77507059D01*
X119003117Y-77544599D01*
X118978242Y-77588247D01*
X118962304Y-77637795D01*
X118955482Y-77693037D01*
X118955222Y-77706148D01*
X118771514Y-77706148D01*
X118771514Y-77303175D01*
X118771514Y-76660479D01*
X119921886Y-76660479D01*
X119921886Y-77303175D01*
X119921886Y-77945871D01*
X120024502Y-77945871D01*
X120127117Y-77945871D01*
X120127288Y-77890513D01*
X120127459Y-77835155D01*
X120139047Y-77851357D01*
X120165403Y-77881659D01*
X120198594Y-77909875D01*
X120235647Y-77934036D01*
X120273591Y-77952171D01*
X120305344Y-77961580D01*
X120332802Y-77965015D01*
X120366815Y-77966509D01*
X120403323Y-77966114D01*
X120438265Y-77963886D01*
X120467582Y-77959878D01*
X120470068Y-77959377D01*
X120526953Y-77942181D01*
X120578808Y-77915712D01*
X120625267Y-77880441D01*
X120656776Y-77846681D01*
X120923164Y-77846681D01*
X120926577Y-77876246D01*
X120939055Y-77906549D01*
X120959626Y-77931761D01*
X120986413Y-77950942D01*
X121017536Y-77963156D01*
X121051119Y-77967464D01*
X121085284Y-77962927D01*
X121094349Y-77960069D01*
X121126527Y-77943423D01*
X121151246Y-77919777D01*
X121167594Y-77890389D01*
X121174656Y-77856518D01*
X121174874Y-77849118D01*
X121169810Y-77814855D01*
X121155383Y-77784586D01*
X121132737Y-77759809D01*
X121103018Y-77742021D01*
X121089203Y-77737138D01*
X121052969Y-77731261D01*
X121018818Y-77734345D01*
X120988004Y-77745318D01*
X120961779Y-77763110D01*
X120941396Y-77786649D01*
X120928107Y-77814863D01*
X120923164Y-77846681D01*
X120656776Y-77846681D01*
X120665961Y-77836840D01*
X120700524Y-77785380D01*
X120728587Y-77726532D01*
X120749783Y-77660766D01*
X120763744Y-77588555D01*
X120764626Y-77581817D01*
X120767593Y-77546739D01*
X120768525Y-77513821D01*
X121325835Y-77513821D01*
X121326076Y-77550040D01*
X121327371Y-77583408D01*
X121329720Y-77610803D01*
X121331391Y-77621823D01*
X121349155Y-77689878D01*
X121375259Y-77751552D01*
X121409391Y-77806451D01*
X121451239Y-77854181D01*
X121500493Y-77894349D01*
X121556840Y-77926561D01*
X121580751Y-77936913D01*
X121616083Y-77949221D01*
X121651960Y-77957840D01*
X121690918Y-77963121D01*
X121735493Y-77965415D01*
X121785165Y-77965150D01*
X121820378Y-77964009D01*
X121847663Y-77962346D01*
X121869893Y-77959808D01*
X121889942Y-77956036D01*
X121910682Y-77950674D01*
X121917284Y-77948757D01*
X121925146Y-77945871D01*
X122411659Y-77945871D01*
X122514274Y-77945871D01*
X122616890Y-77945871D01*
X122616890Y-77711289D01*
X122616958Y-77648325D01*
X122617237Y-77595052D01*
X122617839Y-77550359D01*
X122618254Y-77535410D01*
X122978369Y-77535410D01*
X122981063Y-77607575D01*
X122989529Y-77671501D01*
X123004159Y-77728320D01*
X123025349Y-77779162D01*
X123053494Y-77825158D01*
X123088988Y-77867437D01*
X123097118Y-77875661D01*
X123137104Y-77910290D01*
X123178551Y-77936074D01*
X123223141Y-77953608D01*
X123272554Y-77963488D01*
X123328472Y-77966308D01*
X123351399Y-77965670D01*
X123405319Y-77960635D01*
X123451492Y-77950324D01*
X123492032Y-77933879D01*
X123529051Y-77910440D01*
X123564660Y-77879148D01*
X123565093Y-77878716D01*
X123582491Y-77860855D01*
X123597757Y-77844340D01*
X123608690Y-77831593D01*
X123612066Y-77827053D01*
X123615795Y-77821900D01*
X123618301Y-77820940D01*
X123619841Y-77825579D01*
X123620667Y-77837220D01*
X123621035Y-77857268D01*
X123621157Y-77877239D01*
X123618076Y-77942950D01*
X123608087Y-78000437D01*
X123591005Y-78049929D01*
X123566642Y-78091657D01*
X123534814Y-78125850D01*
X123495333Y-78152740D01*
X123448013Y-78172558D01*
X123392669Y-78185532D01*
X123369469Y-78188719D01*
X123307558Y-78190724D01*
X123242822Y-78183324D01*
X123177045Y-78166880D01*
X123112014Y-78141756D01*
X123092812Y-78132527D01*
X123074104Y-78123446D01*
X123058871Y-78116676D01*
X123049856Y-78113421D01*
X123048961Y-78113296D01*
X123046652Y-78118587D01*
X123045168Y-78134491D01*
X123044506Y-78161058D01*
X123044665Y-78198338D01*
X123044776Y-78205920D01*
X123046254Y-78298545D01*
X123081288Y-78311641D01*
X123147575Y-78331935D01*
X123220113Y-78346092D01*
X123296052Y-78353794D01*
X123372541Y-78354724D01*
X123430448Y-78350577D01*
X123489890Y-78341640D01*
X123542528Y-78328460D01*
X123591849Y-78310069D01*
X123614324Y-78299623D01*
X123665490Y-78268545D01*
X123710772Y-78229084D01*
X123749017Y-78182570D01*
X123779067Y-78130332D01*
X123794026Y-78092842D01*
X123799052Y-78077786D01*
X123803463Y-78064265D01*
X123807302Y-78051497D01*
X123810613Y-78038704D01*
X123813438Y-78025104D01*
X123815821Y-78009919D01*
X123817806Y-77992368D01*
X123819435Y-77971672D01*
X123820751Y-77947051D01*
X123821798Y-77917724D01*
X123822619Y-77882912D01*
X123823257Y-77841836D01*
X123823756Y-77793714D01*
X123824159Y-77737769D01*
X123824508Y-77673218D01*
X123824848Y-77599284D01*
X123825148Y-77531359D01*
X123827182Y-77076341D01*
X123724311Y-77076341D01*
X123621440Y-77076341D01*
X123621440Y-77130551D01*
X123621440Y-77184762D01*
X123598333Y-77156205D01*
X123567532Y-77125142D01*
X123529554Y-77097873D01*
X123487926Y-77076747D01*
X123468396Y-77069699D01*
X123447534Y-77063973D01*
X123426935Y-77060337D01*
X123403170Y-77058396D01*
X123372816Y-77057756D01*
X123364901Y-77057750D01*
X123303501Y-77061223D01*
X123249201Y-77071798D01*
X123200482Y-77090065D01*
X123155826Y-77116612D01*
X123113718Y-77152028D01*
X123108363Y-77157303D01*
X123068051Y-77204144D01*
X123035472Y-77256450D01*
X123010421Y-77314817D01*
X122992691Y-77379843D01*
X122982078Y-77452125D01*
X122978376Y-77532262D01*
X122978369Y-77535410D01*
X122618254Y-77535410D01*
X122618872Y-77513137D01*
X122620449Y-77482275D01*
X122622681Y-77456663D01*
X122625677Y-77435190D01*
X122629550Y-77416747D01*
X122634410Y-77400223D01*
X122640367Y-77384507D01*
X122647532Y-77368490D01*
X122652052Y-77359102D01*
X122674396Y-77322417D01*
X122702233Y-77291067D01*
X122733609Y-77266895D01*
X122765373Y-77252116D01*
X122798229Y-77245711D01*
X122833628Y-77245321D01*
X122867376Y-77250696D01*
X122891636Y-77259614D01*
X122905346Y-77266309D01*
X122914633Y-77270290D01*
X122916419Y-77270770D01*
X122917350Y-77265653D01*
X122918158Y-77251438D01*
X122918792Y-77229828D01*
X122919201Y-77202525D01*
X122919335Y-77173422D01*
X122919335Y-77076074D01*
X122904483Y-77069815D01*
X122892566Y-77067006D01*
X122873192Y-77064763D01*
X122849701Y-77063421D01*
X122838323Y-77063198D01*
X122813017Y-77063353D01*
X122794681Y-77064731D01*
X122779493Y-77068069D01*
X122763633Y-77074106D01*
X122750431Y-77080168D01*
X122710228Y-77104865D01*
X122674401Y-77138102D01*
X122644971Y-77177874D01*
X122636566Y-77192948D01*
X122617421Y-77230264D01*
X122617155Y-77153303D01*
X122616890Y-77076341D01*
X122514274Y-77076341D01*
X122411659Y-77076341D01*
X122411659Y-77511106D01*
X122411659Y-77945871D01*
X121925146Y-77945871D01*
X121978321Y-77926351D01*
X122031529Y-77897350D01*
X122068661Y-77869488D01*
X122115672Y-77822846D01*
X122153687Y-77770920D01*
X122183057Y-77713078D01*
X122204133Y-77648689D01*
X122212181Y-77611021D01*
X122215473Y-77583854D01*
X122217396Y-77549256D01*
X122217981Y-77510509D01*
X122217262Y-77470891D01*
X122215272Y-77433684D01*
X122212042Y-77402167D01*
X122209977Y-77389588D01*
X122191992Y-77321119D01*
X122166330Y-77260163D01*
X122133090Y-77206827D01*
X122092375Y-77161220D01*
X122044285Y-77123448D01*
X121988921Y-77093620D01*
X121926384Y-77071843D01*
X121907877Y-77067265D01*
X121880620Y-77062848D01*
X121845790Y-77059807D01*
X121806535Y-77058174D01*
X121765999Y-77057980D01*
X121727328Y-77059256D01*
X121693668Y-77062034D01*
X121674449Y-77064951D01*
X121605303Y-77083478D01*
X121543064Y-77110213D01*
X121488010Y-77144868D01*
X121440420Y-77187155D01*
X121400573Y-77236785D01*
X121368749Y-77293470D01*
X121345227Y-77356922D01*
X121331431Y-77419292D01*
X121328513Y-77445325D01*
X121326648Y-77477875D01*
X121325835Y-77513821D01*
X120768525Y-77513821D01*
X120768753Y-77505761D01*
X120768211Y-77462147D01*
X120766075Y-77419160D01*
X120762450Y-77380065D01*
X120757445Y-77348127D01*
X120756907Y-77345610D01*
X120738368Y-77282334D01*
X120712264Y-77225612D01*
X120679073Y-77176007D01*
X120639275Y-77134082D01*
X120593349Y-77100400D01*
X120541775Y-77075526D01*
X120521376Y-77068673D01*
X120471505Y-77058571D01*
X120417398Y-77055999D01*
X120362287Y-77060682D01*
X120309407Y-77072349D01*
X120262348Y-77090547D01*
X120232285Y-77108643D01*
X120200377Y-77133287D01*
X120169979Y-77161559D01*
X120144447Y-77190540D01*
X120139000Y-77197859D01*
X120127459Y-77214062D01*
X120127288Y-76937270D01*
X120127117Y-76660479D01*
X120024502Y-76660479D01*
X119921886Y-76660479D01*
X118771514Y-76660479D01*
X118668899Y-76660479D01*
X118566284Y-76660479D01*
X112900836Y-76660479D01*
X112798221Y-76660479D01*
X112695605Y-76660479D01*
X112695605Y-76922903D01*
X112695605Y-77185327D01*
X112674760Y-77158956D01*
X112637962Y-77120454D01*
X112595391Y-77090968D01*
X112546530Y-77070165D01*
X112528180Y-77064958D01*
X112501612Y-77060524D01*
X112468044Y-77058189D01*
X112431065Y-77057900D01*
X112394260Y-77059604D01*
X112361215Y-77063250D01*
X112339152Y-77067730D01*
X112281042Y-77088910D01*
X112228644Y-77119049D01*
X112182292Y-77157741D01*
X112142321Y-77204575D01*
X112109065Y-77259146D01*
X112082858Y-77321044D01*
X112064034Y-77389862D01*
X112060559Y-77407884D01*
X112056393Y-77440644D01*
X112053837Y-77480733D01*
X112052884Y-77524803D01*
X110162705Y-77524803D01*
X110162681Y-77484384D01*
X110162668Y-77391498D01*
X110162699Y-77298757D01*
X110162773Y-77206845D01*
X110162890Y-77116446D01*
X110163049Y-77028245D01*
X110163252Y-76942925D01*
X110163498Y-76861172D01*
X110163787Y-76783668D01*
X110164119Y-76711098D01*
X110164494Y-76644146D01*
X110164912Y-76583497D01*
X110165373Y-76529834D01*
X110165877Y-76483842D01*
X110166424Y-76446205D01*
X110167014Y-76417606D01*
X110167647Y-76398731D01*
X110168031Y-76392538D01*
X110179892Y-76315445D01*
X110201368Y-76243217D01*
X110232414Y-76175954D01*
X110272982Y-76113757D01*
X110321706Y-76058044D01*
X110378861Y-76008228D01*
X110441182Y-75967890D01*
X110508566Y-75937075D01*
X110580913Y-75915830D01*
X110656199Y-75904370D01*
X110664321Y-75904128D01*
X110683004Y-75903892D01*
X110712007Y-75903661D01*
X110751090Y-75903436D01*
X110800011Y-75903216D01*
X110858532Y-75903001D01*
X110926410Y-75902792D01*
X111003405Y-75902589D01*
X111089276Y-75902391D01*
X111183783Y-75902198D01*
X111286686Y-75902011D01*
X111397743Y-75901829D01*
X111516714Y-75901652D01*
X111643358Y-75901481D01*
X111777434Y-75901316D01*
X111918703Y-75901156D01*
X112066923Y-75901001D01*
X112221853Y-75900852D01*
X112383254Y-75900709D01*
X112550883Y-75900570D01*
X112724502Y-75900437D01*
X112903868Y-75900310D01*
X113088742Y-75900188D01*
X113278883Y-75900072D01*
X113474050Y-75899961D01*
X113674002Y-75899855D01*
X113878499Y-75899755D01*
X114087300Y-75899660D01*
X114300165Y-75899571D01*
X114516853Y-75899487D01*
X114737123Y-75899409D01*
X114960734Y-75899336D01*
X115187447Y-75899269D01*
X115417020Y-75899207D01*
X115649212Y-75899150D01*
X115883783Y-75899099D01*
X116120493Y-75899053D01*
X116359101Y-75899013D01*
X116599365Y-75898978D01*
X116841046Y-75898949D01*
X117083903Y-75898925D01*
X117327695Y-75898907D01*
X117572181Y-75898894D01*
X117817121Y-75898886D01*
X118062275Y-75898884D01*
X118307401Y-75898887D01*
G37*
D19*
X115123500Y-52197000D02*
G75*
G02*
X113573500Y-52197000I-775000J0D01*
G01*
X113573500Y-52197000D02*
G75*
G02*
X115123500Y-52197000I775000J0D01*
G01*
D20*
X113955000Y-68326000D03*
X117080000Y-68326000D03*
X107605000Y-68326000D03*
X110730000Y-68326000D03*
X101255000Y-68326000D03*
X104380000Y-68326000D03*
X94905000Y-68326000D03*
X98030000Y-68326000D03*
X88555000Y-68326000D03*
X91680000Y-68326000D03*
D21*
X85076000Y-61823000D03*
X85076000Y-64923000D03*
D22*
X58881000Y-53721000D03*
X61981000Y-53721000D03*
D23*
X146951000Y-53721000D03*
X143851000Y-53721000D03*
D21*
X78105000Y-77190000D03*
X78105000Y-80290000D03*
X81280000Y-77190000D03*
X81280000Y-80290000D03*
X84455000Y-77190000D03*
X84455000Y-80290000D03*
X87630000Y-77190000D03*
X87630000Y-80290000D03*
X149098000Y-77444000D03*
X149098000Y-80544000D03*
X145923000Y-77444000D03*
X145923000Y-80544000D03*
D24*
X129308000Y-72208000D03*
X129308000Y-76708000D03*
X138408000Y-72208000D03*
X138408000Y-76708000D03*
D25*
X113906000Y-65733000D03*
X117206000Y-65733000D03*
X117206000Y-60833000D03*
X113906000Y-60833000D03*
D26*
X95885000Y-77177500D03*
X95885000Y-80302500D03*
D25*
X88506000Y-65735200D03*
X91806000Y-65735200D03*
X91806000Y-60835200D03*
X88506000Y-60835200D03*
D27*
X141305000Y-54229000D03*
X137305000Y-54229000D03*
D28*
X144055000Y-50779000D03*
X134555000Y-50779000D03*
D24*
X136326500Y-64933000D03*
X136326500Y-69433000D03*
X145426500Y-64933000D03*
X145426500Y-69433000D03*
X57045000Y-68580000D03*
X57045000Y-73080000D03*
X66145000Y-68580000D03*
X66145000Y-73080000D03*
D27*
X64661000Y-54229000D03*
X68661000Y-54229000D03*
D28*
X71411000Y-50779000D03*
X61911000Y-50779000D03*
D29*
X98411000Y-81254600D03*
X99681000Y-81254600D03*
X100951000Y-81254600D03*
X102221000Y-81254600D03*
X103491000Y-81254600D03*
X104761000Y-81254600D03*
X106031000Y-81254600D03*
X107301000Y-81254600D03*
X107301000Y-76073000D03*
X106031000Y-76073000D03*
X104761000Y-76073000D03*
X103491000Y-76073000D03*
X102221000Y-76073000D03*
X100951000Y-76073000D03*
X99681000Y-76073000D03*
X98411000Y-76073000D03*
D24*
X64030000Y-61305000D03*
X64030000Y-65805000D03*
X73130000Y-61305000D03*
X73130000Y-65805000D03*
D25*
X94856000Y-65733000D03*
X98156000Y-65733000D03*
X98156000Y-60833000D03*
X94856000Y-60833000D03*
X101206000Y-65733000D03*
X104506000Y-65733000D03*
X104506000Y-60833000D03*
X101206000Y-60833000D03*
D24*
X64030000Y-75855000D03*
X64030000Y-80355000D03*
X73130000Y-75855000D03*
X73130000Y-80355000D03*
D25*
X107556000Y-65733000D03*
X110856000Y-65733000D03*
X110856000Y-60833000D03*
X107556000Y-60833000D03*
D24*
X71015000Y-68580000D03*
X71015000Y-73080000D03*
X80115000Y-68580000D03*
X80115000Y-73080000D03*
D30*
X81328500Y-52197000D03*
X91488500Y-52197000D03*
X102918500Y-52197000D03*
X114348500Y-52197000D03*
X124508500Y-52197000D03*
%LPD*%
M02*
