%TF.GenerationSoftware,KiCad,Pcbnew,9.0.6*%
%TF.CreationDate,2026-02-02T16:58:08+00:00*%
%TF.ProjectId,solderbit-gamepad,736f6c64-6572-4626-9974-2d67616d6570,v0.8*%
%TF.SameCoordinates,PX636f40fPY2cfad2f*%
%TF.FileFunction,Legend,Top*%
%TF.FilePolarity,Positive*%
%FSLAX46Y46*%
G04 Gerber Fmt 4.6, Leading zero omitted, Abs format (unit mm)*
G04 Created by KiCad (PCBNEW 9.0.6) date 2026-02-02 16:58:08*
%MOMM*%
%LPD*%
G01*
G04 APERTURE LIST*
%ADD10C,0.500000*%
%ADD11C,0.200000*%
%ADD12C,0.150000*%
%ADD13C,0.180000*%
%ADD14C,0.120000*%
%ADD15C,0.152400*%
G04 APERTURE END LIST*
D10*
G36*
X-16602062Y-23325082D02*
G01*
X-16602062Y-22886514D01*
X-16467023Y-22958138D01*
X-16336448Y-23007261D01*
X-16205221Y-23037422D01*
X-16086252Y-23046951D01*
X-15951238Y-23036063D01*
X-15860022Y-23008177D01*
X-15812523Y-22976442D01*
X-15786083Y-22937877D01*
X-15777132Y-22890177D01*
X-15786535Y-22843395D01*
X-15814685Y-22805150D01*
X-15856117Y-22774154D01*
X-15911161Y-22745616D01*
X-16040151Y-22699668D01*
X-16175095Y-22653720D01*
X-16358736Y-22569609D01*
X-16432803Y-22520000D01*
X-16492001Y-22464890D01*
X-16539184Y-22400997D01*
X-16573975Y-22327198D01*
X-16594574Y-22244697D01*
X-16602062Y-22141726D01*
X-16585381Y-22002988D01*
X-16538101Y-21890003D01*
X-16463561Y-21794323D01*
X-16367284Y-21717354D01*
X-16254441Y-21659670D01*
X-16123041Y-21618588D01*
X-15983642Y-21595101D01*
X-15836972Y-21587142D01*
X-15601277Y-21605155D01*
X-15365583Y-21657362D01*
X-15365583Y-22075628D01*
X-15471475Y-22022588D01*
X-15585096Y-21984647D01*
X-15701934Y-21961735D01*
X-15814685Y-21954269D01*
X-15914672Y-21963581D01*
X-15997561Y-21990448D01*
X-16053890Y-22035938D01*
X-16069198Y-22065525D01*
X-16074345Y-22099136D01*
X-16066599Y-22143567D01*
X-16043662Y-22180805D01*
X-15963367Y-22239576D01*
X-15853153Y-22283692D01*
X-15732711Y-22323687D01*
X-15538080Y-22405355D01*
X-15455966Y-22454255D01*
X-15388633Y-22509159D01*
X-15333513Y-22573771D01*
X-15292921Y-22648682D01*
X-15268489Y-22733344D01*
X-15259643Y-22839192D01*
X-15277300Y-22985777D01*
X-15327115Y-23103737D01*
X-15405461Y-23202959D01*
X-15506481Y-23282340D01*
X-15624870Y-23341035D01*
X-15764462Y-23382632D01*
X-15912252Y-23406120D01*
X-16067476Y-23414078D01*
X-16258318Y-23403846D01*
X-16435967Y-23373929D01*
X-16602062Y-23325082D01*
G37*
G36*
X-13875181Y-21604073D02*
G01*
X-13693015Y-21651805D01*
X-13538973Y-21727580D01*
X-13408435Y-21831232D01*
X-13301774Y-21960583D01*
X-13225068Y-22108651D01*
X-13177500Y-22279070D01*
X-13160833Y-22476796D01*
X-13178331Y-22691434D01*
X-13227891Y-22873591D01*
X-13307084Y-23029113D01*
X-13416220Y-23162356D01*
X-13550830Y-23269465D01*
X-13708919Y-23347592D01*
X-13895077Y-23396694D01*
X-14115365Y-23414078D01*
X-14332594Y-23397162D01*
X-14515797Y-23349443D01*
X-14670989Y-23273658D01*
X-14802756Y-23169988D01*
X-14909881Y-23040607D01*
X-14987435Y-22890061D01*
X-15035874Y-22714216D01*
X-15052952Y-22507479D01*
X-15052379Y-22500610D01*
X-14504780Y-22500610D01*
X-14490607Y-22669981D01*
X-14452867Y-22794256D01*
X-14396118Y-22884156D01*
X-14320968Y-22947174D01*
X-14223973Y-22986584D01*
X-14098268Y-23000850D01*
X-13980497Y-22986751D01*
X-13888746Y-22947509D01*
X-13816742Y-22883990D01*
X-13761659Y-22792128D01*
X-13724660Y-22663634D01*
X-13710685Y-22487024D01*
X-13724390Y-22321878D01*
X-13760851Y-22200858D01*
X-13815594Y-22113467D01*
X-13887947Y-22052333D01*
X-13981155Y-22014170D01*
X-14101779Y-22000370D01*
X-14223074Y-22015777D01*
X-14320231Y-22059324D01*
X-14398992Y-22131040D01*
X-14455047Y-22223822D01*
X-14491423Y-22344428D01*
X-14504780Y-22500610D01*
X-15052379Y-22500610D01*
X-15035128Y-22293881D01*
X-14984751Y-22113815D01*
X-14904338Y-21961107D01*
X-14793444Y-21831232D01*
X-14657180Y-21727451D01*
X-14497942Y-21651634D01*
X-14311313Y-21603989D01*
X-14091551Y-21587142D01*
X-13875181Y-21604073D01*
G37*
G36*
X-12269652Y-23375000D02*
G01*
X-12809276Y-23375000D01*
X-12809276Y-20786025D01*
X-12269652Y-20786025D01*
X-12269652Y-23375000D01*
G37*
G36*
X-10103982Y-23375000D02*
G01*
X-10643606Y-23375000D01*
X-10643606Y-23130757D01*
X-10650475Y-23130757D01*
X-10731913Y-23233555D01*
X-10824856Y-23311584D01*
X-10930645Y-23367471D01*
X-11051794Y-23402008D01*
X-11191778Y-23414078D01*
X-11351523Y-23398921D01*
X-11490151Y-23355356D01*
X-11611863Y-23284209D01*
X-11719495Y-23183574D01*
X-11803073Y-23063889D01*
X-11865318Y-22920053D01*
X-11905086Y-22747296D01*
X-11919316Y-22539689D01*
X-11918234Y-22524424D01*
X-11371144Y-22524424D01*
X-11358782Y-22674249D01*
X-11325251Y-22789258D01*
X-11273905Y-22877049D01*
X-11201303Y-22945374D01*
X-11113003Y-22986432D01*
X-11004016Y-23000850D01*
X-10900972Y-22986202D01*
X-10813210Y-22943444D01*
X-10736723Y-22870333D01*
X-10681151Y-22778012D01*
X-10645995Y-22664514D01*
X-10633378Y-22524424D01*
X-10633378Y-22393754D01*
X-10644975Y-22284456D01*
X-10678145Y-22191818D01*
X-10732449Y-22112264D01*
X-10804830Y-22050288D01*
X-10889477Y-22013235D01*
X-10990278Y-22000370D01*
X-11102705Y-22016411D01*
X-11194356Y-22062484D01*
X-11270394Y-22140352D01*
X-11323791Y-22238607D01*
X-11358462Y-22364260D01*
X-11371144Y-22524424D01*
X-11918234Y-22524424D01*
X-11904037Y-22324044D01*
X-11860829Y-22140076D01*
X-11792277Y-21982582D01*
X-11699040Y-21847413D01*
X-11579975Y-21733255D01*
X-11446317Y-21653000D01*
X-11295073Y-21604099D01*
X-11121711Y-21587142D01*
X-10956871Y-21604172D01*
X-10828299Y-21651177D01*
X-10727781Y-21725546D01*
X-10650475Y-21829553D01*
X-10643606Y-21829553D01*
X-10643606Y-20786025D01*
X-10103982Y-20786025D01*
X-10103982Y-23375000D01*
G37*
G36*
X-8689107Y-21602799D02*
G01*
X-8531006Y-21646854D01*
X-8398384Y-21716829D01*
X-8286967Y-21812914D01*
X-8198201Y-21931112D01*
X-8133164Y-22069790D01*
X-8092194Y-22232893D01*
X-8077682Y-22425505D01*
X-8077682Y-22651125D01*
X-9218449Y-22651125D01*
X-9196983Y-22769101D01*
X-9154269Y-22860512D01*
X-9091282Y-22931161D01*
X-9005346Y-22984004D01*
X-8890557Y-23018676D01*
X-8738511Y-23031533D01*
X-8549953Y-23015835D01*
X-8382117Y-22970430D01*
X-8231250Y-22896284D01*
X-8231250Y-23284630D01*
X-8398045Y-23353212D01*
X-8605175Y-23397858D01*
X-8861396Y-23414078D01*
X-9072244Y-23397713D01*
X-9248201Y-23351766D01*
X-9395534Y-23279150D01*
X-9519020Y-23180216D01*
X-9618160Y-23056764D01*
X-9690759Y-22910183D01*
X-9736590Y-22735875D01*
X-9752882Y-22527782D01*
X-9736118Y-22319870D01*
X-9221807Y-22319870D01*
X-8577922Y-22319870D01*
X-8592814Y-22174638D01*
X-8631841Y-22074562D01*
X-8690770Y-22007263D01*
X-8771595Y-21965956D01*
X-8882004Y-21950911D01*
X-8963917Y-21962439D01*
X-9037894Y-21996822D01*
X-9106555Y-22056546D01*
X-9160761Y-22131473D01*
X-9199233Y-22218444D01*
X-9221807Y-22319870D01*
X-9736118Y-22319870D01*
X-9735571Y-22313084D01*
X-9686521Y-22130596D01*
X-9608156Y-21974570D01*
X-9500244Y-21840696D01*
X-9366033Y-21729392D01*
X-9219615Y-21651023D01*
X-9058343Y-21603484D01*
X-8878493Y-21587142D01*
X-8689107Y-21602799D01*
G37*
G36*
X-6615125Y-22108906D02*
G01*
X-6718369Y-22069819D01*
X-6842271Y-22056088D01*
X-6953130Y-22071080D01*
X-7043077Y-22113871D01*
X-7117197Y-22185384D01*
X-7170009Y-22276644D01*
X-7203940Y-22391897D01*
X-7216268Y-22537399D01*
X-7216268Y-23375000D01*
X-7755892Y-23375000D01*
X-7755892Y-21626221D01*
X-7216268Y-21626221D01*
X-7216268Y-21946789D01*
X-7209398Y-21946789D01*
X-7145629Y-21810036D01*
X-7068732Y-21711131D01*
X-6978838Y-21642914D01*
X-6873572Y-21601578D01*
X-6748390Y-21587142D01*
X-6667987Y-21593038D01*
X-6615125Y-21607903D01*
X-6615125Y-22108906D01*
G37*
G36*
X-5983757Y-22173325D02*
G01*
X-6069293Y-22163834D01*
X-6142354Y-22136543D01*
X-6205713Y-22091503D01*
X-6255333Y-22032226D01*
X-6284563Y-21965616D01*
X-6294556Y-21889087D01*
X-6284183Y-21810602D01*
X-6254087Y-21743853D01*
X-6203271Y-21685908D01*
X-6138420Y-21642456D01*
X-6063325Y-21615937D01*
X-5975209Y-21606681D01*
X-5886006Y-21616148D01*
X-5811606Y-21643046D01*
X-5748826Y-21686823D01*
X-5699915Y-21744949D01*
X-5670892Y-21811448D01*
X-5660899Y-21889087D01*
X-5671181Y-21968897D01*
X-5700865Y-22036223D01*
X-5750658Y-22094098D01*
X-5814505Y-22137183D01*
X-5891070Y-22163875D01*
X-5983757Y-22173325D01*
G37*
G36*
X-5983757Y-23414078D02*
G01*
X-6069252Y-23404527D01*
X-6142311Y-23377045D01*
X-6205713Y-23331646D01*
X-6255380Y-23272005D01*
X-6284589Y-23205325D01*
X-6294556Y-23129077D01*
X-6284186Y-23050806D01*
X-6254094Y-22984260D01*
X-6203271Y-22926509D01*
X-6138431Y-22883146D01*
X-6063336Y-22856675D01*
X-5975209Y-22847435D01*
X-5885985Y-22856870D01*
X-5811584Y-22883673D01*
X-5748826Y-22927272D01*
X-5699903Y-22985297D01*
X-5670887Y-23051646D01*
X-5660899Y-23129077D01*
X-5671154Y-23208605D01*
X-5700818Y-23276004D01*
X-5750658Y-23334241D01*
X-5814550Y-23377680D01*
X-5891113Y-23404565D01*
X-5983757Y-23414078D01*
G37*
G36*
X-4737203Y-21892751D02*
G01*
X-4730334Y-21892751D01*
X-4641942Y-21780955D01*
X-4542688Y-21696647D01*
X-4431340Y-21636702D01*
X-4305478Y-21599922D01*
X-4161706Y-21587142D01*
X-3996287Y-21602792D01*
X-3857574Y-21647129D01*
X-3740233Y-21718539D01*
X-3640705Y-21818562D01*
X-3564405Y-21937649D01*
X-3507408Y-22079732D01*
X-3470989Y-22249181D01*
X-3457981Y-22451304D01*
X-3472852Y-22669185D01*
X-3514868Y-22855071D01*
X-3581386Y-23014105D01*
X-3671541Y-23150449D01*
X-3787541Y-23266047D01*
X-3918904Y-23347281D01*
X-4068737Y-23396847D01*
X-4241848Y-23414078D01*
X-4398068Y-23397698D01*
X-4528219Y-23351206D01*
X-4637865Y-23275678D01*
X-4730334Y-23168309D01*
X-4737203Y-23168309D01*
X-4737203Y-23375000D01*
X-5276827Y-23375000D01*
X-5276827Y-22434512D01*
X-4745751Y-22434512D01*
X-4745751Y-22612504D01*
X-4734343Y-22720764D01*
X-4701761Y-22812283D01*
X-4648512Y-22890635D01*
X-4577436Y-22951914D01*
X-4495483Y-22988296D01*
X-4399079Y-23000850D01*
X-4283292Y-22984526D01*
X-4189765Y-22937850D01*
X-4113010Y-22859342D01*
X-4059546Y-22759676D01*
X-4024358Y-22628786D01*
X-4011344Y-22458173D01*
X-4023049Y-22317367D01*
X-4055049Y-22207390D01*
X-4104461Y-22121728D01*
X-4174306Y-22055024D01*
X-4261055Y-22014656D01*
X-4370075Y-22000370D01*
X-4472769Y-22013965D01*
X-4561209Y-22053605D01*
X-4639048Y-22120812D01*
X-4697054Y-22206562D01*
X-4733012Y-22309584D01*
X-4745751Y-22434512D01*
X-5276827Y-22434512D01*
X-5276827Y-20786025D01*
X-4737203Y-20786025D01*
X-4737203Y-21892751D01*
G37*
G36*
X-2834704Y-21342899D02*
G01*
X-2922575Y-21333334D01*
X-2996131Y-21306083D01*
X-3058491Y-21261536D01*
X-3107119Y-21202722D01*
X-3135736Y-21136991D01*
X-3145503Y-21061867D01*
X-3135550Y-20984670D01*
X-3106785Y-20919387D01*
X-3058491Y-20863114D01*
X-2996439Y-20821063D01*
X-2922874Y-20795154D01*
X-2834704Y-20786025D01*
X-2745423Y-20795211D01*
X-2671672Y-20821170D01*
X-2610153Y-20863114D01*
X-2562318Y-20919331D01*
X-2533786Y-20984615D01*
X-2523905Y-21061867D01*
X-2533792Y-21140297D01*
X-2562345Y-21206757D01*
X-2610153Y-21264131D01*
X-2671794Y-21307052D01*
X-2745543Y-21333540D01*
X-2834704Y-21342899D01*
G37*
G36*
X-2568326Y-23375000D02*
G01*
X-3107950Y-23375000D01*
X-3107950Y-21626221D01*
X-2568326Y-21626221D01*
X-2568326Y-23375000D01*
G37*
G36*
X-1056769Y-23354544D02*
G01*
X-1139148Y-23384841D01*
X-1255919Y-23405978D01*
X-1417027Y-23414078D01*
X-1577281Y-23400420D01*
X-1703275Y-23362934D01*
X-1802202Y-23304745D01*
X-1879154Y-23225915D01*
X-1936557Y-23123457D01*
X-1973836Y-22991729D01*
X-1987486Y-22823011D01*
X-1987486Y-22024184D01*
X-2270961Y-22024184D01*
X-2270961Y-21626221D01*
X-1987486Y-21626221D01*
X-1987486Y-21251308D01*
X-1449542Y-21098656D01*
X-1449542Y-21626221D01*
X-1056769Y-21626221D01*
X-1056769Y-22024184D01*
X-1449542Y-22024184D01*
X-1449542Y-22728672D01*
X-1438758Y-22836513D01*
X-1410599Y-22910455D01*
X-1368344Y-22959837D01*
X-1310799Y-22989936D01*
X-1232623Y-23000850D01*
X-1147905Y-22989857D01*
X-1056769Y-22954902D01*
X-1056769Y-23354544D01*
G37*
G36*
X9523111Y-21890236D02*
G01*
X9599290Y-21921755D01*
X9663469Y-21971926D01*
X9715458Y-22038686D01*
X9754053Y-22117776D01*
X9782166Y-22214541D01*
X9798046Y-22318292D01*
X9803538Y-22432222D01*
X9803538Y-22468095D01*
X9798258Y-22580704D01*
X9782930Y-22684250D01*
X9755859Y-22781326D01*
X9718053Y-22862700D01*
X9666609Y-22931834D01*
X9602801Y-22983906D01*
X9526506Y-23016693D01*
X9431220Y-23028327D01*
X9311303Y-23014293D01*
X9223614Y-22976273D01*
X9153186Y-22915604D01*
X9099813Y-22837055D01*
X9099813Y-22065095D01*
X9153476Y-21985770D01*
X9223614Y-21927708D01*
X9310615Y-21892110D01*
X9427709Y-21879012D01*
X9523111Y-21890236D01*
G37*
G36*
X3412008Y-22847282D02*
G01*
X3355679Y-22918265D01*
X3270194Y-22980547D01*
X3159216Y-23024969D01*
X3026104Y-23041913D01*
X2937102Y-23033825D01*
X2870871Y-23012085D01*
X2822009Y-22978868D01*
X2771557Y-22907900D01*
X2754536Y-22819958D01*
X2760596Y-22758608D01*
X2778350Y-22703026D01*
X2808423Y-22653368D01*
X2851776Y-22610825D01*
X2906478Y-22577631D01*
X2979850Y-22550985D01*
X3062698Y-22535402D01*
X3169444Y-22529614D01*
X3412008Y-22529614D01*
X3412008Y-22847282D01*
G37*
G36*
X7447609Y-21884739D02*
G01*
X7520172Y-21905573D01*
X7584624Y-21939237D01*
X7637104Y-21982357D01*
X7679135Y-22035105D01*
X7710529Y-22097609D01*
X7730510Y-22165852D01*
X7739533Y-22239270D01*
X7739533Y-22276823D01*
X6960856Y-22276823D01*
X6982605Y-22189247D01*
X7011995Y-22112875D01*
X7050775Y-22043795D01*
X7096564Y-21986632D01*
X7151068Y-21939824D01*
X7213495Y-21905573D01*
X7282672Y-21884573D01*
X7360499Y-21877333D01*
X7447609Y-21884739D01*
G37*
G36*
X11804192Y-22847282D02*
G01*
X11747863Y-22918265D01*
X11662378Y-22980547D01*
X11551401Y-23024969D01*
X11418288Y-23041913D01*
X11329286Y-23033825D01*
X11263056Y-23012085D01*
X11214193Y-22978868D01*
X11163741Y-22907900D01*
X11146721Y-22819958D01*
X11152780Y-22758608D01*
X11170534Y-22703026D01*
X11200608Y-22653368D01*
X11243960Y-22610825D01*
X11298663Y-22577631D01*
X11372035Y-22550985D01*
X11454882Y-22535402D01*
X11561628Y-22529614D01*
X11804192Y-22529614D01*
X11804192Y-22847282D01*
G37*
G36*
X13725900Y-21892822D02*
G01*
X13813395Y-21931066D01*
X13884797Y-21992710D01*
X13941469Y-22077001D01*
X13941469Y-22825148D01*
X13884785Y-22908156D01*
X13812479Y-22970320D01*
X13724067Y-23009114D01*
X13608536Y-23023137D01*
X13513235Y-23011927D01*
X13437719Y-22980547D01*
X13374430Y-22930317D01*
X13323230Y-22863616D01*
X13285640Y-22784656D01*
X13259116Y-22689440D01*
X13244626Y-22587212D01*
X13239577Y-22473285D01*
X13239577Y-22437412D01*
X13244839Y-22323336D01*
X13260032Y-22219731D01*
X13287229Y-22122641D01*
X13324909Y-22042044D01*
X13376341Y-21973730D01*
X13440161Y-21922518D01*
X13516523Y-21890419D01*
X13611894Y-21879012D01*
X13725900Y-21892822D01*
G37*
G36*
X14695826Y-24363219D02*
G01*
X-143967Y-24363219D01*
X-143967Y-21964344D01*
X133811Y-21964344D01*
X133811Y-22302468D01*
X151064Y-22555559D01*
X199604Y-22769583D01*
X251074Y-22902823D01*
X313521Y-23017998D01*
X386602Y-23117171D01*
X473065Y-23204361D01*
X570054Y-23276410D01*
X678625Y-23334089D01*
X794688Y-23375169D01*
X921610Y-23400471D01*
X1061170Y-23409193D01*
X1215294Y-23401688D01*
X1354872Y-23380037D01*
X1487336Y-23345815D01*
X1601710Y-23304169D01*
X1706767Y-23253098D01*
X1792067Y-23199145D01*
X1866382Y-23139104D01*
X1918463Y-23084656D01*
X1918074Y-22857510D01*
X2279789Y-22857510D01*
X2291916Y-22973410D01*
X2327569Y-23078702D01*
X2384720Y-23173286D01*
X2460682Y-23253794D01*
X2553098Y-23318369D01*
X2664777Y-23368283D01*
X2787334Y-23398660D01*
X2925201Y-23409193D01*
X3087470Y-23392860D01*
X3225009Y-23348591D01*
X3338429Y-23282798D01*
X3429105Y-23202503D01*
X3449560Y-23296384D01*
X3478564Y-23375000D01*
X3960180Y-23375000D01*
X3960180Y-23345996D01*
X3929398Y-23271618D01*
X3905531Y-23178689D01*
X3891958Y-23074935D01*
X3886755Y-22932615D01*
X3886755Y-22140199D01*
X3871171Y-21986428D01*
X3826915Y-21857641D01*
X3755439Y-21745700D01*
X3661288Y-21655225D01*
X3547731Y-21585693D01*
X3411092Y-21534019D01*
X3377799Y-21527150D01*
X4309447Y-21527150D01*
X4309447Y-23375000D01*
X4741605Y-23375000D01*
X4741605Y-21991669D01*
X4764623Y-21944565D01*
X4793659Y-21909695D01*
X4831212Y-21887061D01*
X4881586Y-21879012D01*
X4932725Y-21886645D01*
X4974551Y-21913206D01*
X5002792Y-21966176D01*
X5013020Y-22053188D01*
X5013020Y-23375000D01*
X5431438Y-23375000D01*
X5431438Y-21964344D01*
X5454243Y-21928954D01*
X5484408Y-21902062D01*
X5521459Y-21885043D01*
X5568061Y-21879012D01*
X5618436Y-21886645D01*
X5662095Y-21913969D01*
X5691862Y-21967855D01*
X5703006Y-22054867D01*
X5703006Y-23375000D01*
X6135163Y-23375000D01*
X6135163Y-22447640D01*
X6470691Y-22447640D01*
X6470691Y-22516028D01*
X6487775Y-22697498D01*
X6538163Y-22865295D01*
X6620120Y-23017992D01*
X6730199Y-23148770D01*
X6865819Y-23255571D01*
X7029092Y-23339126D01*
X7210028Y-23391114D01*
X7416827Y-23409193D01*
X7550627Y-23401688D01*
X7671298Y-23380037D01*
X7785468Y-23345977D01*
X7885621Y-23304169D01*
X7977165Y-23252802D01*
X8052927Y-23196550D01*
X8118638Y-23133783D01*
X8168179Y-23072749D01*
X7930806Y-22816599D01*
X7835246Y-22908801D01*
X7717398Y-22974594D01*
X7585049Y-23014741D01*
X7445831Y-23028327D01*
X7349426Y-23020456D01*
X7263107Y-22997644D01*
X7183815Y-22960240D01*
X7114577Y-22910480D01*
X7055602Y-22849032D01*
X7007720Y-22776452D01*
X6973204Y-22695440D01*
X6952308Y-22604719D01*
X8205884Y-22604719D01*
X8205884Y-22403218D01*
X8191285Y-22205659D01*
X8149403Y-22031816D01*
X8079068Y-21874107D01*
X7984539Y-21744068D01*
X7864978Y-21638539D01*
X7719841Y-21558749D01*
X7613722Y-21527150D01*
X8625066Y-21527150D01*
X8625066Y-22065095D01*
X8625066Y-24085441D01*
X9099813Y-24085441D01*
X9099813Y-23214410D01*
X9190910Y-23296441D01*
X9296276Y-23357903D01*
X9414938Y-23395774D01*
X9557616Y-23409193D01*
X9671929Y-23400835D01*
X9774274Y-23376679D01*
X9866583Y-23337447D01*
X9990403Y-23252450D01*
X10092813Y-23140221D01*
X10171945Y-23005485D01*
X10225721Y-22857510D01*
X10671974Y-22857510D01*
X10684101Y-22973410D01*
X10719754Y-23078702D01*
X10776904Y-23173286D01*
X10852866Y-23253794D01*
X10945282Y-23318369D01*
X11056961Y-23368283D01*
X11179518Y-23398660D01*
X11317385Y-23409193D01*
X11479654Y-23392860D01*
X11617193Y-23348591D01*
X11730614Y-23282798D01*
X11821289Y-23202503D01*
X11841744Y-23296384D01*
X11870748Y-23375000D01*
X12352364Y-23375000D01*
X12352364Y-23345996D01*
X12321582Y-23271618D01*
X12297715Y-23178689D01*
X12284142Y-23074935D01*
X12278939Y-22932615D01*
X12278939Y-22437412D01*
X12764830Y-22437412D01*
X12764830Y-22473285D01*
X12777565Y-22670117D01*
X12814289Y-22846519D01*
X12875964Y-23008920D01*
X12956865Y-23142816D01*
X13060558Y-23254284D01*
X13184011Y-23338363D01*
X13324876Y-23391011D01*
X13487178Y-23409193D01*
X13635957Y-23393660D01*
X13760424Y-23349507D01*
X13870017Y-23278198D01*
X13965436Y-23182048D01*
X13989249Y-23375000D01*
X14418048Y-23375000D01*
X14418048Y-20751831D01*
X13941469Y-20751831D01*
X13941469Y-21692777D01*
X13849324Y-21607647D01*
X13745923Y-21545163D01*
X13629882Y-21506587D01*
X13490689Y-21492956D01*
X13325189Y-21510634D01*
X13184011Y-21561344D01*
X13060538Y-21643261D01*
X12956102Y-21754296D01*
X12874826Y-21888646D01*
X12813525Y-22053188D01*
X12777466Y-22232720D01*
X12764830Y-22437412D01*
X12278939Y-22437412D01*
X12278939Y-22140199D01*
X12263355Y-21986428D01*
X12219099Y-21857641D01*
X12147623Y-21745700D01*
X12053472Y-21655225D01*
X11939915Y-21585693D01*
X11803276Y-21534019D01*
X11655356Y-21503500D01*
X11491714Y-21492956D01*
X11311639Y-21505330D01*
X11161070Y-21539972D01*
X11025338Y-21596661D01*
X10916980Y-21667284D01*
X10828302Y-21754796D01*
X10764939Y-21853367D01*
X10725889Y-21962285D01*
X10712884Y-22077001D01*
X11187631Y-22077001D01*
X11204852Y-21981910D01*
X11254188Y-21910611D01*
X11302683Y-21878093D01*
X11371103Y-21856386D01*
X11466068Y-21848176D01*
X11572741Y-21857962D01*
X11654526Y-21884611D01*
X11717028Y-21925876D01*
X11764818Y-21982805D01*
X11793922Y-22051902D01*
X11804192Y-22136841D01*
X11804192Y-22246140D01*
X11539494Y-22246140D01*
X11318039Y-22258213D01*
X11140876Y-22291199D01*
X11000277Y-22341206D01*
X10889655Y-22405813D01*
X10794538Y-22493782D01*
X10727543Y-22596205D01*
X10686400Y-22715926D01*
X10675800Y-22819958D01*
X10671974Y-22857510D01*
X10225721Y-22857510D01*
X10231268Y-22842245D01*
X10266177Y-22665252D01*
X10278285Y-22468095D01*
X10278285Y-22432222D01*
X10266059Y-22227571D01*
X10231268Y-22048913D01*
X10171635Y-21885099D01*
X10092050Y-21751700D01*
X9988845Y-21641715D01*
X9864904Y-21560428D01*
X9722807Y-21510482D01*
X9554105Y-21492956D01*
X9405367Y-21507739D01*
X9282537Y-21549437D01*
X9174570Y-21616963D01*
X9081037Y-21708195D01*
X9063940Y-21527150D01*
X8625066Y-21527150D01*
X7613722Y-21527150D01*
X7556423Y-21510088D01*
X7363857Y-21492956D01*
X7176434Y-21510812D01*
X7006957Y-21563023D01*
X6853691Y-21647466D01*
X6723483Y-21759486D01*
X6618013Y-21896565D01*
X6537248Y-22060820D01*
X6487837Y-22242150D01*
X6484944Y-22276823D01*
X6470691Y-22447640D01*
X6135163Y-22447640D01*
X6135163Y-22056546D01*
X6127021Y-21908965D01*
X6105243Y-21796122D01*
X6067986Y-21696453D01*
X6021437Y-21621946D01*
X5962273Y-21563131D01*
X5895041Y-21523791D01*
X5820315Y-21500777D01*
X5738879Y-21492956D01*
X5625722Y-21506622D01*
X5534783Y-21545163D01*
X5458348Y-21606577D01*
X5395565Y-21689419D01*
X5351170Y-21602705D01*
X5289995Y-21543125D01*
X5209560Y-21506282D01*
X5103542Y-21492956D01*
X4978473Y-21510887D01*
X4877312Y-21562260D01*
X4795320Y-21642604D01*
X4731224Y-21750937D01*
X4717638Y-21527150D01*
X4309447Y-21527150D01*
X3377799Y-21527150D01*
X3263172Y-21503500D01*
X3099529Y-21492956D01*
X2919454Y-21505330D01*
X2768886Y-21539972D01*
X2633154Y-21596661D01*
X2524796Y-21667284D01*
X2436118Y-21754796D01*
X2372754Y-21853367D01*
X2333704Y-21962285D01*
X2320700Y-22077001D01*
X2795447Y-22077001D01*
X2812668Y-21981910D01*
X2862003Y-21910611D01*
X2910499Y-21878093D01*
X2978919Y-21856386D01*
X3073884Y-21848176D01*
X3180557Y-21857962D01*
X3262341Y-21884611D01*
X3324843Y-21925876D01*
X3372634Y-21982805D01*
X3401738Y-22051902D01*
X3412008Y-22136841D01*
X3412008Y-22246140D01*
X3147309Y-22246140D01*
X2925855Y-22258213D01*
X2748692Y-22291199D01*
X2608093Y-22341206D01*
X2497471Y-22405813D01*
X2402354Y-22493782D01*
X2335359Y-22596205D01*
X2294216Y-22715926D01*
X2283615Y-22819958D01*
X2279789Y-22857510D01*
X1918074Y-22857510D01*
X1916783Y-22104326D01*
X1026976Y-22104326D01*
X1026976Y-22463058D01*
X1438678Y-22463058D01*
X1436846Y-22913838D01*
X1381281Y-22955818D01*
X1296865Y-22990775D01*
X1194435Y-23014589D01*
X1083457Y-23023137D01*
X969851Y-23010033D01*
X876187Y-22974538D01*
X798144Y-22917369D01*
X733274Y-22836139D01*
X673720Y-22707119D01*
X633172Y-22533289D01*
X617106Y-22302468D01*
X617106Y-21960986D01*
X626202Y-21790595D01*
X651300Y-21650950D01*
X692958Y-21524146D01*
X743502Y-21426400D01*
X808133Y-21345396D01*
X880125Y-21289013D01*
X962069Y-21253769D01*
X1050943Y-21241996D01*
X1174767Y-21254292D01*
X1266325Y-21287403D01*
X1333501Y-21338472D01*
X1384139Y-21408167D01*
X1423267Y-21501971D01*
X1448906Y-21626221D01*
X1916783Y-21626221D01*
X1886815Y-21452888D01*
X1837405Y-21303515D01*
X1764438Y-21170057D01*
X1669182Y-21060188D01*
X1551282Y-20973056D01*
X1405247Y-20907231D01*
X1241316Y-20868343D01*
X1039036Y-20854261D01*
X912072Y-20862822D01*
X793258Y-20887995D01*
X681220Y-20929518D01*
X576528Y-20986883D01*
X481135Y-21059401D01*
X394235Y-21148115D01*
X287133Y-21303972D01*
X202962Y-21497230D01*
X165482Y-21636067D01*
X141999Y-21791067D01*
X133811Y-21964344D01*
X-143967Y-21964344D01*
X-143967Y-20474053D01*
X14695826Y-20474053D01*
X14695826Y-24363219D01*
G37*
D11*
G36*
X10277144Y-5470450D02*
G01*
X10277144Y-5191738D01*
X10353255Y-5237533D01*
X10435242Y-5270333D01*
X10524190Y-5290374D01*
X10621435Y-5297251D01*
X10702552Y-5290479D01*
X10765661Y-5271994D01*
X10814600Y-5243487D01*
X10852758Y-5203324D01*
X10875692Y-5154315D01*
X10883751Y-5093644D01*
X10874122Y-5032197D01*
X10846231Y-4982184D01*
X10798205Y-4940687D01*
X10738686Y-4912408D01*
X10661747Y-4893785D01*
X10563000Y-4886923D01*
X10430834Y-4886923D01*
X10430834Y-4640726D01*
X10552741Y-4640726D01*
X10653890Y-4633469D01*
X10726439Y-4614435D01*
X10777277Y-4586559D01*
X10811600Y-4550917D01*
X10832345Y-4506515D01*
X10839696Y-4450492D01*
X10830775Y-4385675D01*
X10806238Y-4338118D01*
X10766147Y-4303344D01*
X10706360Y-4280255D01*
X10619420Y-4271431D01*
X10523739Y-4281471D01*
X10428668Y-4312082D01*
X10332465Y-4365220D01*
X10332465Y-4102629D01*
X10438194Y-4060571D01*
X10557606Y-4034378D01*
X10693150Y-4025234D01*
X10806886Y-4032510D01*
X10901221Y-4052779D01*
X10979384Y-4084328D01*
X11044036Y-4126351D01*
X11099556Y-4181402D01*
X11138201Y-4242530D01*
X11161553Y-4311026D01*
X11169607Y-4388942D01*
X11160939Y-4481475D01*
X11136570Y-4557756D01*
X11097620Y-4621082D01*
X11043363Y-4673657D01*
X10971322Y-4716335D01*
X10877523Y-4748529D01*
X10877523Y-4753658D01*
X10977324Y-4776011D01*
X11058121Y-4814002D01*
X11123445Y-4867048D01*
X11173459Y-4934124D01*
X11203364Y-5009964D01*
X11213662Y-5097308D01*
X11203744Y-5197430D01*
X11175313Y-5283401D01*
X11128883Y-5358121D01*
X11062995Y-5423464D01*
X10985441Y-5473460D01*
X10892373Y-5510891D01*
X10780797Y-5534866D01*
X10647080Y-5543448D01*
X10496482Y-5534276D01*
X10374876Y-5509066D01*
X10277144Y-5470450D01*
G37*
G36*
X12725555Y-4048682D02*
G01*
X12219331Y-5520000D01*
X11844358Y-5520000D01*
X11344271Y-4048682D01*
X11700834Y-4048682D01*
X12007206Y-5072670D01*
X12027561Y-5153845D01*
X12036974Y-5219399D01*
X12043110Y-5219399D01*
X12054182Y-5149421D01*
X12074892Y-5068548D01*
X12379249Y-4048682D01*
X12725555Y-4048682D01*
G37*
G36*
X-121174Y-5244220D02*
G01*
X-121174Y-5250356D01*
X475175Y-5250356D01*
X475175Y-5520000D01*
X-492118Y-5520000D01*
X-492118Y-5266751D01*
X-70891Y-4864941D01*
X44039Y-4744963D01*
X107895Y-4660235D01*
X136957Y-4603413D01*
X153985Y-4545746D01*
X159644Y-4486304D01*
X150197Y-4410566D01*
X124661Y-4356203D01*
X84077Y-4317570D01*
X25228Y-4292566D01*
X-58617Y-4283155D01*
X-149657Y-4292127D01*
X-239520Y-4319353D01*
X-329706Y-4366275D01*
X-421410Y-4435562D01*
X-421410Y-4150714D01*
X-322954Y-4096012D01*
X-218850Y-4056996D01*
X-107981Y-4033305D01*
X10992Y-4025234D01*
X123930Y-4033248D01*
X218216Y-4055694D01*
X297050Y-4090957D01*
X362976Y-4138532D01*
X417719Y-4199257D01*
X456856Y-4269160D01*
X481067Y-4350058D01*
X489555Y-4444538D01*
X479246Y-4539220D01*
X447129Y-4637827D01*
X390091Y-4742436D01*
X303428Y-4854874D01*
X181076Y-4976682D01*
X-121174Y-5244220D01*
G37*
G36*
X-11000187Y-5520000D02*
G01*
X-11929561Y-5520000D01*
X-11929561Y-5262080D01*
X-11625204Y-5262080D01*
X-11625204Y-4347635D01*
X-11937804Y-4417977D01*
X-11937804Y-4154194D01*
X-11302437Y-4025234D01*
X-11302437Y-5262080D01*
X-11000187Y-5262080D01*
X-11000187Y-5520000D01*
G37*
G36*
X-21463291Y-4034099D02*
G01*
X-21373570Y-4059251D01*
X-21296649Y-4099596D01*
X-21230388Y-4155525D01*
X-21173638Y-4228868D01*
X-21126343Y-4322742D01*
X-21089537Y-4441333D01*
X-21065254Y-4589699D01*
X-21056390Y-4773625D01*
X-21063131Y-4928847D01*
X-21081994Y-5060625D01*
X-21111241Y-5172084D01*
X-21149587Y-5266026D01*
X-21196249Y-5344878D01*
X-21257272Y-5416578D01*
X-21326511Y-5471292D01*
X-21404995Y-5510618D01*
X-21494501Y-5534950D01*
X-21597418Y-5543448D01*
X-21706538Y-5534532D01*
X-21799089Y-5509294D01*
X-21878112Y-5468956D01*
X-21945858Y-5413298D01*
X-22003601Y-5340680D01*
X-22051517Y-5248183D01*
X-22088679Y-5131821D01*
X-22113137Y-4986731D01*
X-22122052Y-4807330D01*
X-22121724Y-4799728D01*
X-21793148Y-4799728D01*
X-21783703Y-4989987D01*
X-21759616Y-5120209D01*
X-21726079Y-5205521D01*
X-21686284Y-5258321D01*
X-21640775Y-5287509D01*
X-21587160Y-5297251D01*
X-21535682Y-5287538D01*
X-21491601Y-5258194D01*
X-21452656Y-5204505D01*
X-21419572Y-5116882D01*
X-21395690Y-4982158D01*
X-21386301Y-4784341D01*
X-21395563Y-4585909D01*
X-21419097Y-4451012D01*
X-21451641Y-4363510D01*
X-21489839Y-4310094D01*
X-21532908Y-4281024D01*
X-21583038Y-4271431D01*
X-21637120Y-4281529D01*
X-21683316Y-4311965D01*
X-21724014Y-4367476D01*
X-21758511Y-4457821D01*
X-21783378Y-4596452D01*
X-21793148Y-4799728D01*
X-22121724Y-4799728D01*
X-22115171Y-4647958D01*
X-22095956Y-4513227D01*
X-22066234Y-4399810D01*
X-22027364Y-4304716D01*
X-21980177Y-4225361D01*
X-21918364Y-4153386D01*
X-21847801Y-4098278D01*
X-21767372Y-4058535D01*
X-21675191Y-4033869D01*
X-21568750Y-4025234D01*
X-21463291Y-4034099D01*
G37*
G36*
X20614922Y-5419617D02*
G01*
X20506095Y-5471739D01*
X20382244Y-5510456D01*
X20241093Y-5534870D01*
X20080030Y-5543448D01*
X19936709Y-5534668D01*
X19811547Y-5509657D01*
X19701941Y-5469841D01*
X19605701Y-5415841D01*
X19521141Y-5347443D01*
X19449315Y-5265516D01*
X19392990Y-5172419D01*
X19351666Y-5066547D01*
X19325785Y-4945729D01*
X19316710Y-4807330D01*
X19326262Y-4669731D01*
X19353836Y-4546521D01*
X19398502Y-4435494D01*
X19460271Y-4334853D01*
X19540101Y-4243313D01*
X19633004Y-4166436D01*
X19737065Y-4106250D01*
X19853858Y-4062242D01*
X19985475Y-4034807D01*
X20134435Y-4025234D01*
X20289226Y-4032942D01*
X20425764Y-4054920D01*
X20546320Y-4089806D01*
X20546320Y-4400391D01*
X20460135Y-4358731D01*
X20363180Y-4327967D01*
X20253855Y-4308676D01*
X20130313Y-4301931D01*
X20029319Y-4310781D01*
X19941213Y-4336202D01*
X19863591Y-4377525D01*
X19794724Y-4435471D01*
X19739271Y-4505844D01*
X19699063Y-4587206D01*
X19673958Y-4681668D01*
X19665122Y-4792035D01*
X19673363Y-4905206D01*
X19696399Y-4999120D01*
X19732551Y-5077167D01*
X19781351Y-5142004D01*
X19843304Y-5195252D01*
X19914928Y-5233563D01*
X19998120Y-5257375D01*
X20095509Y-5265744D01*
X20207322Y-5256337D01*
X20284003Y-5232038D01*
X20284003Y-4946091D01*
X19989904Y-4946091D01*
X19989904Y-4681759D01*
X20614922Y-4681759D01*
X20614922Y-5419617D01*
G37*
G36*
X22222620Y-5520000D02*
G01*
X21888587Y-5520000D01*
X21282895Y-4595572D01*
X21209165Y-4473481D01*
X21205043Y-4473481D01*
X21213286Y-4711526D01*
X21213286Y-5520000D01*
X20900777Y-5520000D01*
X20900777Y-4048682D01*
X21257341Y-4048682D01*
X21840410Y-4944351D01*
X21914141Y-5064427D01*
X21918263Y-5064427D01*
X21912642Y-5000790D01*
X21910019Y-4862285D01*
X21910019Y-4048682D01*
X22222620Y-4048682D01*
X22222620Y-5520000D01*
G37*
G36*
X23244250Y-4057509D02*
G01*
X23381886Y-4082152D01*
X23497041Y-4120411D01*
X23593126Y-4170909D01*
X23672896Y-4233164D01*
X23738321Y-4307627D01*
X23790461Y-4395647D01*
X23829390Y-4499377D01*
X23854192Y-4621648D01*
X23863016Y-4765840D01*
X23853703Y-4903322D01*
X23826991Y-5024772D01*
X23784037Y-5132612D01*
X23725062Y-5228822D01*
X23649334Y-5314837D01*
X23560700Y-5387005D01*
X23461231Y-5443617D01*
X23349399Y-5485081D01*
X23223188Y-5510962D01*
X23080187Y-5520000D01*
X22559675Y-5520000D01*
X22559675Y-5251547D01*
X22890593Y-5251547D01*
X23054541Y-5251547D01*
X23160905Y-5242679D01*
X23250756Y-5217593D01*
X23327125Y-5177517D01*
X23392238Y-5122220D01*
X23444235Y-5054276D01*
X23482273Y-4974551D01*
X23506216Y-4880767D01*
X23514695Y-4769961D01*
X23506324Y-4665642D01*
X23482672Y-4577498D01*
X23444996Y-4502630D01*
X23393245Y-4438860D01*
X23329196Y-4387794D01*
X23252829Y-4350307D01*
X23161681Y-4326589D01*
X23052526Y-4318143D01*
X22890593Y-4318143D01*
X22890593Y-5251547D01*
X22559675Y-5251547D01*
X22559675Y-4048682D01*
X23080187Y-4048682D01*
X23244250Y-4057509D01*
G37*
D12*
G36*
X-8018684Y-18578607D02*
G01*
X-8073729Y-18606033D01*
X-8142753Y-18624050D01*
X-8228748Y-18630631D01*
X-8296818Y-18624749D01*
X-8356284Y-18607974D01*
X-8408423Y-18581196D01*
X-8454294Y-18544719D01*
X-8494683Y-18498251D01*
X-8528790Y-18443193D01*
X-8555506Y-18381466D01*
X-8575051Y-18312130D01*
X-8587240Y-18233936D01*
X-8591495Y-18145382D01*
X-8586792Y-18051615D01*
X-8573251Y-17968020D01*
X-8551399Y-17893084D01*
X-8521319Y-17825564D01*
X-8482639Y-17764546D01*
X-8437049Y-17712506D01*
X-8386773Y-17672132D01*
X-8331151Y-17642868D01*
X-8269275Y-17624767D01*
X-8200035Y-17618489D01*
X-8128500Y-17622996D01*
X-8068615Y-17635536D01*
X-8018684Y-17654881D01*
X-8018684Y-17868593D01*
X-8069530Y-17835455D01*
X-8125180Y-17815307D01*
X-8186754Y-17808387D01*
X-8237622Y-17814189D01*
X-8281634Y-17830782D01*
X-8320045Y-17857613D01*
X-8353770Y-17895033D01*
X-8380860Y-17940703D01*
X-8400571Y-17993975D01*
X-8412926Y-18056321D01*
X-8417289Y-18129689D01*
X-8413174Y-18200085D01*
X-8401513Y-18260114D01*
X-8382901Y-18311579D01*
X-8357342Y-18355858D01*
X-8325450Y-18392088D01*
X-8288626Y-18418163D01*
X-8245907Y-18434367D01*
X-8195959Y-18440061D01*
X-8132697Y-18432891D01*
X-8073932Y-18411770D01*
X-8018684Y-18376618D01*
X-8018684Y-18578607D01*
G37*
G36*
X-7899021Y-18581966D02*
G01*
X-7899021Y-18396158D01*
X-7860965Y-18426688D01*
X-7819971Y-18448555D01*
X-7775497Y-18461915D01*
X-7726875Y-18466500D01*
X-7686316Y-18461985D01*
X-7654762Y-18449662D01*
X-7630292Y-18430657D01*
X-7611214Y-18403882D01*
X-7599747Y-18371209D01*
X-7595717Y-18330762D01*
X-7600532Y-18289797D01*
X-7614477Y-18256455D01*
X-7638490Y-18228790D01*
X-7668250Y-18209938D01*
X-7706719Y-18197522D01*
X-7756093Y-18192948D01*
X-7822176Y-18192948D01*
X-7822176Y-18028817D01*
X-7761222Y-18028817D01*
X-7710648Y-18023978D01*
X-7674373Y-18011289D01*
X-7648954Y-17992705D01*
X-7631792Y-17968944D01*
X-7621420Y-17939343D01*
X-7617744Y-17901994D01*
X-7622205Y-17858782D01*
X-7634473Y-17827078D01*
X-7654519Y-17803895D01*
X-7684412Y-17788502D01*
X-7727883Y-17782620D01*
X-7775723Y-17789313D01*
X-7823258Y-17809721D01*
X-7871360Y-17845146D01*
X-7871360Y-17670085D01*
X-7818495Y-17642046D01*
X-7758790Y-17624584D01*
X-7691017Y-17618489D01*
X-7634149Y-17623339D01*
X-7586982Y-17636852D01*
X-7547900Y-17657885D01*
X-7515575Y-17685900D01*
X-7487815Y-17722601D01*
X-7468492Y-17763352D01*
X-7456816Y-17809016D01*
X-7452789Y-17860961D01*
X-7457123Y-17922649D01*
X-7469307Y-17973503D01*
X-7488783Y-18015721D01*
X-7515911Y-18050770D01*
X-7551932Y-18079223D01*
X-7598831Y-18100685D01*
X-7598831Y-18104105D01*
X-7548931Y-18119007D01*
X-7508532Y-18144334D01*
X-7475870Y-18179698D01*
X-7450863Y-18224415D01*
X-7435910Y-18274975D01*
X-7430761Y-18333204D01*
X-7435720Y-18399952D01*
X-7449936Y-18457266D01*
X-7473151Y-18507080D01*
X-7506095Y-18550642D01*
X-7544872Y-18583973D01*
X-7591406Y-18608927D01*
X-7647194Y-18624910D01*
X-7714052Y-18630631D01*
X-7789352Y-18624517D01*
X-7850154Y-18607710D01*
X-7899021Y-18581966D01*
G37*
D11*
G36*
X-8349924Y-10640005D02*
G01*
X-8258166Y-10656434D01*
X-8181396Y-10681940D01*
X-8117340Y-10715605D01*
X-8064160Y-10757109D01*
X-8020543Y-10806751D01*
X-7985783Y-10865430D01*
X-7959830Y-10934584D01*
X-7943295Y-11016098D01*
X-7937413Y-11112226D01*
X-7943621Y-11203881D01*
X-7961430Y-11284847D01*
X-7990066Y-11356741D01*
X-8029383Y-11420880D01*
X-8079868Y-11478224D01*
X-8138957Y-11526336D01*
X-8205270Y-11564077D01*
X-8279825Y-11591720D01*
X-8363965Y-11608974D01*
X-8459299Y-11615000D01*
X-8806307Y-11615000D01*
X-8806307Y-11436031D01*
X-8585695Y-11436031D01*
X-8476396Y-11436031D01*
X-8405487Y-11430118D01*
X-8345587Y-11413394D01*
X-8294673Y-11386677D01*
X-8251265Y-11349813D01*
X-8216601Y-11304516D01*
X-8191241Y-11251367D01*
X-8175280Y-11188844D01*
X-8169627Y-11114973D01*
X-8175207Y-11045427D01*
X-8190975Y-10986665D01*
X-8216093Y-10936753D01*
X-8250594Y-10894239D01*
X-8293293Y-10860195D01*
X-8344204Y-10835204D01*
X-8404970Y-10819392D01*
X-8477739Y-10813761D01*
X-8585695Y-10813761D01*
X-8585695Y-11436031D01*
X-8806307Y-11436031D01*
X-8806307Y-10634120D01*
X-8459299Y-10634120D01*
X-8349924Y-10640005D01*
G37*
G36*
X-7564943Y-11431146D02*
G01*
X-7564943Y-11435237D01*
X-7167377Y-11435237D01*
X-7167377Y-11615000D01*
X-7812239Y-11615000D01*
X-7812239Y-11446167D01*
X-7531420Y-11178293D01*
X-7454801Y-11098308D01*
X-7412230Y-11041823D01*
X-7392855Y-11003941D01*
X-7381503Y-10965496D01*
X-7377731Y-10925868D01*
X-7384029Y-10875377D01*
X-7401053Y-10839134D01*
X-7428109Y-10813379D01*
X-7467341Y-10796710D01*
X-7523238Y-10790436D01*
X-7583931Y-10796417D01*
X-7643840Y-10814568D01*
X-7703964Y-10845849D01*
X-7765100Y-10892041D01*
X-7765100Y-10702142D01*
X-7699463Y-10665674D01*
X-7630060Y-10639663D01*
X-7556147Y-10623869D01*
X-7476832Y-10618489D01*
X-7401540Y-10623831D01*
X-7338683Y-10638795D01*
X-7286127Y-10662304D01*
X-7242176Y-10694021D01*
X-7205680Y-10734504D01*
X-7179589Y-10781106D01*
X-7163449Y-10835038D01*
X-7157790Y-10898025D01*
X-7164663Y-10961146D01*
X-7186074Y-11026884D01*
X-7224099Y-11096623D01*
X-7281875Y-11171582D01*
X-7363442Y-11252787D01*
X-7564943Y-11431146D01*
G37*
D12*
G36*
X15981316Y-18578607D02*
G01*
X15926271Y-18606033D01*
X15857247Y-18624050D01*
X15771252Y-18630631D01*
X15703182Y-18624749D01*
X15643716Y-18607974D01*
X15591577Y-18581196D01*
X15545706Y-18544719D01*
X15505317Y-18498251D01*
X15471210Y-18443193D01*
X15444494Y-18381466D01*
X15424949Y-18312130D01*
X15412760Y-18233936D01*
X15408505Y-18145382D01*
X15413208Y-18051615D01*
X15426749Y-17968020D01*
X15448601Y-17893084D01*
X15478681Y-17825564D01*
X15517361Y-17764546D01*
X15562951Y-17712506D01*
X15613227Y-17672132D01*
X15668849Y-17642868D01*
X15730725Y-17624767D01*
X15799965Y-17618489D01*
X15871500Y-17622996D01*
X15931385Y-17635536D01*
X15981316Y-17654881D01*
X15981316Y-17868593D01*
X15930470Y-17835455D01*
X15874820Y-17815307D01*
X15813246Y-17808387D01*
X15762378Y-17814189D01*
X15718366Y-17830782D01*
X15679955Y-17857613D01*
X15646230Y-17895033D01*
X15619140Y-17940703D01*
X15599429Y-17993975D01*
X15587074Y-18056321D01*
X15582711Y-18129689D01*
X15586826Y-18200085D01*
X15598487Y-18260114D01*
X15617099Y-18311579D01*
X15642658Y-18355858D01*
X15674550Y-18392088D01*
X15711374Y-18418163D01*
X15754093Y-18434367D01*
X15804041Y-18440061D01*
X15867303Y-18432891D01*
X15926068Y-18411770D01*
X15981316Y-18376618D01*
X15981316Y-18578607D01*
G37*
G36*
X16466749Y-17622106D02*
G01*
X16509904Y-17631733D01*
X16542082Y-17645844D01*
X16542082Y-17825607D01*
X16503788Y-17801758D01*
X16463347Y-17787460D01*
X16420129Y-17782620D01*
X16380773Y-17788013D01*
X16346395Y-17803607D01*
X16315926Y-17829337D01*
X16288695Y-17866212D01*
X16267602Y-17909298D01*
X16251674Y-17960009D01*
X16241167Y-18019709D01*
X16236717Y-18090061D01*
X16239786Y-18090061D01*
X16269234Y-18044430D01*
X16303961Y-18012406D01*
X16344986Y-17992743D01*
X16394025Y-17985830D01*
X16439111Y-17991377D01*
X16477740Y-18007217D01*
X16511166Y-18032889D01*
X16540250Y-18068934D01*
X16563221Y-18112185D01*
X16580040Y-18162334D01*
X16590606Y-18220667D01*
X16594335Y-18288813D01*
X16589636Y-18360858D01*
X16576058Y-18424661D01*
X16553862Y-18481768D01*
X16522619Y-18533300D01*
X16484537Y-18575692D01*
X16442086Y-18605801D01*
X16394387Y-18624239D01*
X16340215Y-18630631D01*
X16291199Y-18625509D01*
X16248229Y-18610815D01*
X16210275Y-18587072D01*
X16176546Y-18554132D01*
X16146546Y-18511196D01*
X16117709Y-18449892D01*
X16095958Y-18375426D01*
X16083256Y-18293698D01*
X16241847Y-18293698D01*
X16244997Y-18340182D01*
X16254035Y-18380496D01*
X16268729Y-18415819D01*
X16289004Y-18444348D01*
X16312447Y-18460859D01*
X16340215Y-18466500D01*
X16367587Y-18461362D01*
X16390424Y-18446490D01*
X16409870Y-18421254D01*
X16423959Y-18389381D01*
X16432843Y-18350612D01*
X16436020Y-18303224D01*
X16431271Y-18241315D01*
X16418831Y-18198677D01*
X16400059Y-18170025D01*
X16374332Y-18152451D01*
X16339208Y-18146053D01*
X16310915Y-18150878D01*
X16287654Y-18164663D01*
X16268225Y-18187575D01*
X16253864Y-18216977D01*
X16244981Y-18251872D01*
X16241847Y-18293698D01*
X16083256Y-18293698D01*
X16081935Y-18285201D01*
X16076891Y-18176095D01*
X16080961Y-18072547D01*
X16092546Y-17981737D01*
X16110916Y-17902019D01*
X16135630Y-17831953D01*
X16166559Y-17770347D01*
X16205168Y-17715463D01*
X16248066Y-17673530D01*
X16295827Y-17643446D01*
X16349374Y-17624919D01*
X16409916Y-17618489D01*
X16466749Y-17622106D01*
G37*
G36*
X25071702Y-10874969D02*
G01*
X25128294Y-10890121D01*
X25172561Y-10913029D01*
X25206811Y-10942623D01*
X25232786Y-10978690D01*
X25251533Y-11021904D01*
X25263294Y-11073748D01*
X25267479Y-11136359D01*
X25264450Y-11186298D01*
X25255664Y-11231125D01*
X25241411Y-11272568D01*
X25222370Y-11309527D01*
X25198789Y-11341795D01*
X25170347Y-11369733D01*
X25138488Y-11392129D01*
X25102478Y-11409422D01*
X25102478Y-11412170D01*
X25118392Y-11420994D01*
X25134214Y-11434396D01*
X25163935Y-11470239D01*
X25191367Y-11514324D01*
X25215181Y-11560486D01*
X25354033Y-11850281D01*
X25163981Y-11850281D01*
X25049721Y-11598100D01*
X25025129Y-11546870D01*
X25001315Y-11508279D01*
X24976174Y-11483672D01*
X24962636Y-11477290D01*
X24947735Y-11475123D01*
X24903176Y-11475123D01*
X24903176Y-11850281D01*
X24737716Y-11850281D01*
X24737716Y-11308428D01*
X24903176Y-11308428D01*
X24974891Y-11308428D01*
X25009199Y-11303520D01*
X25037276Y-11289677D01*
X25060483Y-11267273D01*
X25078740Y-11237054D01*
X25089561Y-11202949D01*
X25093273Y-11163653D01*
X25088530Y-11116643D01*
X25075541Y-11082330D01*
X25054456Y-11057408D01*
X25023218Y-11040957D01*
X24978005Y-11034693D01*
X24903176Y-11034693D01*
X24903176Y-11308428D01*
X24737716Y-11308428D01*
X24737716Y-10869401D01*
X25000033Y-10869401D01*
X25071702Y-10874969D01*
G37*
G36*
X25890573Y-11850281D02*
G01*
X25425886Y-11850281D01*
X25425886Y-11678334D01*
X25578064Y-11678334D01*
X25578064Y-11068703D01*
X25421764Y-11115598D01*
X25421764Y-10939743D01*
X25739448Y-10853770D01*
X25739448Y-11678334D01*
X25890573Y-11678334D01*
X25890573Y-11850281D01*
G37*
G36*
X26307789Y-10859680D02*
G01*
X26352650Y-10876448D01*
X26391110Y-10903344D01*
X26424241Y-10940630D01*
X26452616Y-10989525D01*
X26476263Y-11052108D01*
X26494666Y-11131169D01*
X26506808Y-11230080D01*
X26511240Y-11352697D01*
X26507869Y-11456178D01*
X26498438Y-11544030D01*
X26483814Y-11618336D01*
X26464641Y-11680964D01*
X26441310Y-11733532D01*
X26410799Y-11781332D01*
X26376179Y-11817808D01*
X26336937Y-11844025D01*
X26292184Y-11860247D01*
X26240726Y-11865912D01*
X26186166Y-11859968D01*
X26139890Y-11843143D01*
X26100379Y-11816251D01*
X26066506Y-11779146D01*
X26037634Y-11730733D01*
X26013676Y-11669069D01*
X25995095Y-11591494D01*
X25982866Y-11494767D01*
X25978409Y-11375167D01*
X25978573Y-11370099D01*
X26142861Y-11370099D01*
X26147583Y-11496938D01*
X26159627Y-11583753D01*
X26176395Y-11640627D01*
X26196293Y-11675827D01*
X26219047Y-11695286D01*
X26245855Y-11701781D01*
X26271594Y-11695305D01*
X26293634Y-11675743D01*
X26313107Y-11639950D01*
X26329649Y-11581535D01*
X26341590Y-11491719D01*
X26346284Y-11359841D01*
X26341653Y-11227553D01*
X26329886Y-11137621D01*
X26313614Y-11079287D01*
X26294515Y-11043676D01*
X26272981Y-11024296D01*
X26247916Y-11017901D01*
X26220875Y-11024633D01*
X26197777Y-11044924D01*
X26177428Y-11081931D01*
X26160179Y-11142161D01*
X26147746Y-11234582D01*
X26142861Y-11370099D01*
X25978573Y-11370099D01*
X25981849Y-11268919D01*
X25991457Y-11179098D01*
X26006318Y-11103487D01*
X26025753Y-11040091D01*
X26049346Y-10987187D01*
X26080253Y-10939204D01*
X26115534Y-10902465D01*
X26155749Y-10875970D01*
X26201839Y-10859526D01*
X26255060Y-10853770D01*
X26307789Y-10859680D01*
G37*
G36*
X-16018684Y-18578607D02*
G01*
X-16073729Y-18606033D01*
X-16142753Y-18624050D01*
X-16228748Y-18630631D01*
X-16296818Y-18624749D01*
X-16356284Y-18607974D01*
X-16408423Y-18581196D01*
X-16454294Y-18544719D01*
X-16494683Y-18498251D01*
X-16528790Y-18443193D01*
X-16555506Y-18381466D01*
X-16575051Y-18312130D01*
X-16587240Y-18233936D01*
X-16591495Y-18145382D01*
X-16586792Y-18051615D01*
X-16573251Y-17968020D01*
X-16551399Y-17893084D01*
X-16521319Y-17825564D01*
X-16482639Y-17764546D01*
X-16437049Y-17712506D01*
X-16386773Y-17672132D01*
X-16331151Y-17642868D01*
X-16269275Y-17624767D01*
X-16200035Y-17618489D01*
X-16128500Y-17622996D01*
X-16068615Y-17635536D01*
X-16018684Y-17654881D01*
X-16018684Y-17868593D01*
X-16069530Y-17835455D01*
X-16125180Y-17815307D01*
X-16186754Y-17808387D01*
X-16237622Y-17814189D01*
X-16281634Y-17830782D01*
X-16320045Y-17857613D01*
X-16353770Y-17895033D01*
X-16380860Y-17940703D01*
X-16400571Y-17993975D01*
X-16412926Y-18056321D01*
X-16417289Y-18129689D01*
X-16413174Y-18200085D01*
X-16401513Y-18260114D01*
X-16382901Y-18311579D01*
X-16357342Y-18355858D01*
X-16325450Y-18392088D01*
X-16288626Y-18418163D01*
X-16245907Y-18434367D01*
X-16195959Y-18440061D01*
X-16132697Y-18432891D01*
X-16073932Y-18411770D01*
X-16018684Y-18376618D01*
X-16018684Y-18578607D01*
G37*
G36*
X-15733058Y-18431146D02*
G01*
X-15733058Y-18435237D01*
X-15434883Y-18435237D01*
X-15434883Y-18615000D01*
X-15918529Y-18615000D01*
X-15918529Y-18446167D01*
X-15707916Y-18178293D01*
X-15650451Y-18098308D01*
X-15618523Y-18041823D01*
X-15603992Y-18003941D01*
X-15595478Y-17965496D01*
X-15592648Y-17925868D01*
X-15597372Y-17875377D01*
X-15610140Y-17839134D01*
X-15630432Y-17813379D01*
X-15659856Y-17796710D01*
X-15701779Y-17790436D01*
X-15747299Y-17796417D01*
X-15792231Y-17814568D01*
X-15837323Y-17845849D01*
X-15883175Y-17892041D01*
X-15883175Y-17702142D01*
X-15833948Y-17665674D01*
X-15781895Y-17639663D01*
X-15726461Y-17623869D01*
X-15666975Y-17618489D01*
X-15610505Y-17623831D01*
X-15563363Y-17638795D01*
X-15523945Y-17662304D01*
X-15490982Y-17694021D01*
X-15463611Y-17734504D01*
X-15444042Y-17781106D01*
X-15431937Y-17835038D01*
X-15427693Y-17898025D01*
X-15432848Y-17961146D01*
X-15448906Y-18026884D01*
X-15477425Y-18096623D01*
X-15520756Y-18171582D01*
X-15581932Y-18252787D01*
X-15733058Y-18431146D01*
G37*
D11*
G36*
X-16349924Y-10640005D02*
G01*
X-16258166Y-10656434D01*
X-16181396Y-10681940D01*
X-16117340Y-10715605D01*
X-16064160Y-10757109D01*
X-16020543Y-10806751D01*
X-15985783Y-10865430D01*
X-15959830Y-10934584D01*
X-15943295Y-11016098D01*
X-15937413Y-11112226D01*
X-15943621Y-11203881D01*
X-15961430Y-11284847D01*
X-15990066Y-11356741D01*
X-16029383Y-11420880D01*
X-16079868Y-11478224D01*
X-16138957Y-11526336D01*
X-16205270Y-11564077D01*
X-16279825Y-11591720D01*
X-16363965Y-11608974D01*
X-16459299Y-11615000D01*
X-16806307Y-11615000D01*
X-16806307Y-11436031D01*
X-16585695Y-11436031D01*
X-16476396Y-11436031D01*
X-16405487Y-11430118D01*
X-16345587Y-11413394D01*
X-16294673Y-11386677D01*
X-16251265Y-11349813D01*
X-16216601Y-11304516D01*
X-16191241Y-11251367D01*
X-16175280Y-11188844D01*
X-16169627Y-11114973D01*
X-16175207Y-11045427D01*
X-16190975Y-10986665D01*
X-16216093Y-10936753D01*
X-16250594Y-10894239D01*
X-16293293Y-10860195D01*
X-16344204Y-10835204D01*
X-16404970Y-10819392D01*
X-16477739Y-10813761D01*
X-16585695Y-10813761D01*
X-16585695Y-11436031D01*
X-16806307Y-11436031D01*
X-16806307Y-10634120D01*
X-16459299Y-10634120D01*
X-16349924Y-10640005D01*
G37*
G36*
X-15150951Y-11615000D02*
G01*
X-15770534Y-11615000D01*
X-15770534Y-11443053D01*
X-15567629Y-11443053D01*
X-15567629Y-10833422D01*
X-15776030Y-10880317D01*
X-15776030Y-10704462D01*
X-15352452Y-10618489D01*
X-15352452Y-11443053D01*
X-15150951Y-11443053D01*
X-15150951Y-11615000D01*
G37*
G36*
X-349924Y-10640005D02*
G01*
X-258166Y-10656434D01*
X-181396Y-10681940D01*
X-117340Y-10715605D01*
X-64160Y-10757109D01*
X-20543Y-10806751D01*
X14217Y-10865430D01*
X40170Y-10934584D01*
X56705Y-11016098D01*
X62587Y-11112226D01*
X56379Y-11203881D01*
X38570Y-11284847D01*
X9934Y-11356741D01*
X-29383Y-11420880D01*
X-79868Y-11478224D01*
X-138957Y-11526336D01*
X-205270Y-11564077D01*
X-279825Y-11591720D01*
X-363965Y-11608974D01*
X-459299Y-11615000D01*
X-806307Y-11615000D01*
X-806307Y-11436031D01*
X-585695Y-11436031D01*
X-476396Y-11436031D01*
X-405487Y-11430118D01*
X-345587Y-11413394D01*
X-294673Y-11386677D01*
X-251265Y-11349813D01*
X-216601Y-11304516D01*
X-191241Y-11251367D01*
X-175280Y-11188844D01*
X-169627Y-11114973D01*
X-175207Y-11045427D01*
X-190975Y-10986665D01*
X-216093Y-10936753D01*
X-250594Y-10894239D01*
X-293293Y-10860195D01*
X-344204Y-10835204D01*
X-404970Y-10819392D01*
X-477739Y-10813761D01*
X-585695Y-10813761D01*
X-585695Y-11436031D01*
X-806307Y-11436031D01*
X-806307Y-10634120D01*
X-459299Y-10634120D01*
X-349924Y-10640005D01*
G37*
G36*
X213773Y-11581966D02*
G01*
X213773Y-11396158D01*
X264514Y-11426688D01*
X319172Y-11448555D01*
X378471Y-11461915D01*
X443300Y-11466500D01*
X497379Y-11461985D01*
X539451Y-11449662D01*
X572077Y-11430657D01*
X597516Y-11403882D01*
X612805Y-11371209D01*
X618178Y-11330762D01*
X611758Y-11289797D01*
X593165Y-11256455D01*
X561148Y-11228790D01*
X521468Y-11209938D01*
X470176Y-11197522D01*
X404344Y-11192948D01*
X316233Y-11192948D01*
X316233Y-11028817D01*
X397505Y-11028817D01*
X464937Y-11023978D01*
X513303Y-11011289D01*
X547195Y-10992705D01*
X570078Y-10968944D01*
X583907Y-10939343D01*
X588808Y-10901994D01*
X582861Y-10858782D01*
X566503Y-10827078D01*
X539776Y-10803895D01*
X499918Y-10788502D01*
X441957Y-10782620D01*
X378170Y-10789313D01*
X314789Y-10809721D01*
X250654Y-10845146D01*
X250654Y-10670085D01*
X321140Y-10642046D01*
X400748Y-10624584D01*
X491111Y-10618489D01*
X566935Y-10623339D01*
X629824Y-10636852D01*
X681933Y-10657885D01*
X725034Y-10685900D01*
X762048Y-10722601D01*
X787812Y-10763352D01*
X803380Y-10809016D01*
X808749Y-10860961D01*
X802970Y-10922649D01*
X786724Y-10973503D01*
X760757Y-11015721D01*
X724586Y-11050770D01*
X676558Y-11079223D01*
X614026Y-11100685D01*
X614026Y-11104105D01*
X680560Y-11119007D01*
X734424Y-11144334D01*
X777974Y-11179698D01*
X811317Y-11224415D01*
X831254Y-11274975D01*
X838119Y-11333204D01*
X831507Y-11399952D01*
X812553Y-11457266D01*
X781599Y-11507080D01*
X737674Y-11550642D01*
X685971Y-11583973D01*
X623926Y-11608927D01*
X549542Y-11624910D01*
X460397Y-11630631D01*
X359998Y-11624517D01*
X278928Y-11607710D01*
X213773Y-11581966D01*
G37*
G36*
X7650076Y-10640005D02*
G01*
X7741834Y-10656434D01*
X7818604Y-10681940D01*
X7882660Y-10715605D01*
X7935840Y-10757109D01*
X7979457Y-10806751D01*
X8014217Y-10865430D01*
X8040170Y-10934584D01*
X8056705Y-11016098D01*
X8062587Y-11112226D01*
X8056379Y-11203881D01*
X8038570Y-11284847D01*
X8009934Y-11356741D01*
X7970617Y-11420880D01*
X7920132Y-11478224D01*
X7861043Y-11526336D01*
X7794730Y-11564077D01*
X7720175Y-11591720D01*
X7636035Y-11608974D01*
X7540701Y-11615000D01*
X7193693Y-11615000D01*
X7193693Y-11436031D01*
X7414305Y-11436031D01*
X7523604Y-11436031D01*
X7594513Y-11430118D01*
X7654413Y-11413394D01*
X7705327Y-11386677D01*
X7748735Y-11349813D01*
X7783399Y-11304516D01*
X7808759Y-11251367D01*
X7824720Y-11188844D01*
X7830373Y-11114973D01*
X7824793Y-11045427D01*
X7809025Y-10986665D01*
X7783907Y-10936753D01*
X7749406Y-10894239D01*
X7706707Y-10860195D01*
X7655796Y-10835204D01*
X7595030Y-10819392D01*
X7522261Y-10813761D01*
X7414305Y-10813761D01*
X7414305Y-11436031D01*
X7193693Y-11436031D01*
X7193693Y-10634120D01*
X7540701Y-10634120D01*
X7650076Y-10640005D01*
G37*
G36*
X8763686Y-11251566D02*
G01*
X8881167Y-11251566D01*
X8881167Y-11403974D01*
X8763686Y-11403974D01*
X8763686Y-11615000D01*
X8566948Y-11615000D01*
X8566948Y-11403974D01*
X8139951Y-11403974D01*
X8139951Y-11267930D01*
X8150569Y-11251566D01*
X8318920Y-11251566D01*
X8566948Y-11251566D01*
X8566948Y-10942843D01*
X8569635Y-10849054D01*
X8565544Y-10849054D01*
X8528663Y-10925746D01*
X8318920Y-11251566D01*
X8150569Y-11251566D01*
X8551195Y-10634120D01*
X8763686Y-10634120D01*
X8763686Y-11251566D01*
G37*
D12*
G36*
X-18684Y-18578607D02*
G01*
X-73729Y-18606033D01*
X-142753Y-18624050D01*
X-228748Y-18630631D01*
X-296818Y-18624749D01*
X-356284Y-18607974D01*
X-408423Y-18581196D01*
X-454294Y-18544719D01*
X-494683Y-18498251D01*
X-528790Y-18443193D01*
X-555506Y-18381466D01*
X-575051Y-18312130D01*
X-587240Y-18233936D01*
X-591495Y-18145382D01*
X-586792Y-18051615D01*
X-573251Y-17968020D01*
X-551399Y-17893084D01*
X-521319Y-17825564D01*
X-482639Y-17764546D01*
X-437049Y-17712506D01*
X-386773Y-17672132D01*
X-331151Y-17642868D01*
X-269275Y-17624767D01*
X-200035Y-17618489D01*
X-128500Y-17622996D01*
X-68615Y-17635536D01*
X-18684Y-17654881D01*
X-18684Y-17868593D01*
X-69530Y-17835455D01*
X-125180Y-17815307D01*
X-186754Y-17808387D01*
X-237622Y-17814189D01*
X-281634Y-17830782D01*
X-320045Y-17857613D01*
X-353770Y-17895033D01*
X-380860Y-17940703D01*
X-400571Y-17993975D01*
X-412926Y-18056321D01*
X-417289Y-18129689D01*
X-413174Y-18200085D01*
X-401513Y-18260114D01*
X-382901Y-18311579D01*
X-357342Y-18355858D01*
X-325450Y-18392088D01*
X-288626Y-18418163D01*
X-245907Y-18434367D01*
X-195959Y-18440061D01*
X-132697Y-18432891D01*
X-73932Y-18411770D01*
X-18684Y-18376618D01*
X-18684Y-18578607D01*
G37*
G36*
X513414Y-18251566D02*
G01*
X601525Y-18251566D01*
X601525Y-18403974D01*
X513414Y-18403974D01*
X513414Y-18615000D01*
X365861Y-18615000D01*
X365861Y-18403974D01*
X45613Y-18403974D01*
X45613Y-18267930D01*
X53576Y-18251566D01*
X179839Y-18251566D01*
X365861Y-18251566D01*
X365861Y-17942843D01*
X367876Y-17849054D01*
X364808Y-17849054D01*
X337147Y-17925746D01*
X179839Y-18251566D01*
X53576Y-18251566D01*
X354046Y-17634120D01*
X513414Y-17634120D01*
X513414Y-18251566D01*
G37*
G36*
X21587558Y-10875286D02*
G01*
X21656376Y-10891715D01*
X21713954Y-10917221D01*
X21761996Y-10950886D01*
X21801881Y-10992390D01*
X21834594Y-11042032D01*
X21860663Y-11100711D01*
X21880128Y-11169865D01*
X21892529Y-11251379D01*
X21896941Y-11347507D01*
X21892285Y-11439162D01*
X21878928Y-11520128D01*
X21857451Y-11592022D01*
X21827964Y-11656161D01*
X21790100Y-11713505D01*
X21745783Y-11761617D01*
X21696048Y-11799358D01*
X21640132Y-11827001D01*
X21577027Y-11844255D01*
X21505526Y-11850281D01*
X21245270Y-11850281D01*
X21245270Y-11671312D01*
X21410730Y-11671312D01*
X21492704Y-11671312D01*
X21545885Y-11665399D01*
X21590811Y-11648675D01*
X21628996Y-11621958D01*
X21661552Y-11585094D01*
X21687550Y-11539797D01*
X21706570Y-11486648D01*
X21718541Y-11424125D01*
X21722780Y-11350254D01*
X21718595Y-11280708D01*
X21706769Y-11221946D01*
X21687931Y-11172034D01*
X21662055Y-11129520D01*
X21630031Y-11095476D01*
X21591847Y-11070485D01*
X21546273Y-11054673D01*
X21491696Y-11049042D01*
X21410730Y-11049042D01*
X21410730Y-11671312D01*
X21245270Y-11671312D01*
X21245270Y-10869401D01*
X21505526Y-10869401D01*
X21587558Y-10875286D01*
G37*
G36*
X22376100Y-10857387D02*
G01*
X22419255Y-10867014D01*
X22451433Y-10881125D01*
X22451433Y-11060888D01*
X22413139Y-11037039D01*
X22372698Y-11022741D01*
X22329480Y-11017901D01*
X22290124Y-11023294D01*
X22255746Y-11038888D01*
X22225277Y-11064618D01*
X22198046Y-11101493D01*
X22176953Y-11144579D01*
X22161025Y-11195290D01*
X22150518Y-11254990D01*
X22146068Y-11325342D01*
X22149137Y-11325342D01*
X22178585Y-11279711D01*
X22213312Y-11247687D01*
X22254337Y-11228024D01*
X22303376Y-11221111D01*
X22348462Y-11226658D01*
X22387091Y-11242498D01*
X22420517Y-11268170D01*
X22449601Y-11304215D01*
X22472572Y-11347466D01*
X22489391Y-11397615D01*
X22499957Y-11455948D01*
X22503686Y-11524094D01*
X22498987Y-11596139D01*
X22485409Y-11659942D01*
X22463213Y-11717049D01*
X22431970Y-11768581D01*
X22393888Y-11810973D01*
X22351437Y-11841082D01*
X22303738Y-11859520D01*
X22249566Y-11865912D01*
X22200550Y-11860790D01*
X22157580Y-11846096D01*
X22119626Y-11822353D01*
X22085897Y-11789413D01*
X22055897Y-11746477D01*
X22027060Y-11685173D01*
X22005309Y-11610707D01*
X21992607Y-11528979D01*
X22151198Y-11528979D01*
X22154348Y-11575463D01*
X22163386Y-11615777D01*
X22178080Y-11651100D01*
X22198355Y-11679629D01*
X22221798Y-11696140D01*
X22249566Y-11701781D01*
X22276938Y-11696643D01*
X22299775Y-11681771D01*
X22319221Y-11656535D01*
X22333311Y-11624662D01*
X22342194Y-11585893D01*
X22345371Y-11538505D01*
X22340622Y-11476596D01*
X22328182Y-11433958D01*
X22309410Y-11405306D01*
X22283683Y-11387732D01*
X22248559Y-11381334D01*
X22220266Y-11386159D01*
X22197005Y-11399944D01*
X22177576Y-11422856D01*
X22163215Y-11452258D01*
X22154332Y-11487153D01*
X22151198Y-11528979D01*
X21992607Y-11528979D01*
X21991286Y-11520482D01*
X21986242Y-11411376D01*
X21990312Y-11307828D01*
X22001897Y-11217018D01*
X22020267Y-11137300D01*
X22044981Y-11067234D01*
X22075910Y-11005628D01*
X22114519Y-10950744D01*
X22157417Y-10908811D01*
X22205178Y-10878727D01*
X22258725Y-10860200D01*
X22319267Y-10853770D01*
X22376100Y-10857387D01*
G37*
D11*
G36*
X15650076Y-10640005D02*
G01*
X15741834Y-10656434D01*
X15818604Y-10681940D01*
X15882660Y-10715605D01*
X15935840Y-10757109D01*
X15979457Y-10806751D01*
X16014217Y-10865430D01*
X16040170Y-10934584D01*
X16056705Y-11016098D01*
X16062587Y-11112226D01*
X16056379Y-11203881D01*
X16038570Y-11284847D01*
X16009934Y-11356741D01*
X15970617Y-11420880D01*
X15920132Y-11478224D01*
X15861043Y-11526336D01*
X15794730Y-11564077D01*
X15720175Y-11591720D01*
X15636035Y-11608974D01*
X15540701Y-11615000D01*
X15193693Y-11615000D01*
X15193693Y-11436031D01*
X15414305Y-11436031D01*
X15523604Y-11436031D01*
X15594513Y-11430118D01*
X15654413Y-11413394D01*
X15705327Y-11386677D01*
X15748735Y-11349813D01*
X15783399Y-11304516D01*
X15808759Y-11251367D01*
X15824720Y-11188844D01*
X15830373Y-11114973D01*
X15824793Y-11045427D01*
X15809025Y-10986665D01*
X15783907Y-10936753D01*
X15749406Y-10894239D01*
X15706707Y-10860195D01*
X15655796Y-10835204D01*
X15595030Y-10819392D01*
X15522261Y-10813761D01*
X15414305Y-10813761D01*
X15414305Y-11436031D01*
X15193693Y-11436031D01*
X15193693Y-10634120D01*
X15540701Y-10634120D01*
X15650076Y-10640005D01*
G37*
G36*
X16225375Y-11588316D02*
G01*
X16225375Y-11403974D01*
X16294423Y-11438981D01*
X16365300Y-11459610D01*
X16439148Y-11466500D01*
X16494696Y-11461387D01*
X16538353Y-11447311D01*
X16572688Y-11425284D01*
X16599197Y-11394901D01*
X16615230Y-11358220D01*
X16620865Y-11313299D01*
X16615366Y-11268941D01*
X16599981Y-11234160D01*
X16574874Y-11206630D01*
X16538233Y-11185392D01*
X16486588Y-11171035D01*
X16415212Y-11165593D01*
X16344976Y-11168386D01*
X16253340Y-11177866D01*
X16253340Y-10634120D01*
X16795743Y-10634120D01*
X16795743Y-10813883D01*
X16437805Y-10813883D01*
X16437805Y-11005553D01*
X16519077Y-11001461D01*
X16594458Y-11007025D01*
X16657646Y-11022654D01*
X16710756Y-11047316D01*
X16755443Y-11080779D01*
X16792286Y-11123096D01*
X16818722Y-11171843D01*
X16835114Y-11228284D01*
X16840867Y-11294187D01*
X16834196Y-11366594D01*
X16814965Y-11430056D01*
X16783515Y-11486319D01*
X16739078Y-11536598D01*
X16685774Y-11576482D01*
X16623271Y-11605705D01*
X16549800Y-11624112D01*
X16463084Y-11630631D01*
X16369387Y-11625420D01*
X16290933Y-11610885D01*
X16225375Y-11588316D01*
G37*
D12*
G36*
X-21826414Y-10639688D02*
G01*
X-21769822Y-10654840D01*
X-21725555Y-10677748D01*
X-21691305Y-10707342D01*
X-21665330Y-10743409D01*
X-21646583Y-10786623D01*
X-21634822Y-10838467D01*
X-21630637Y-10901078D01*
X-21633666Y-10951017D01*
X-21642452Y-10995844D01*
X-21656705Y-11037287D01*
X-21675746Y-11074246D01*
X-21699327Y-11106514D01*
X-21727769Y-11134452D01*
X-21759628Y-11156848D01*
X-21795638Y-11174141D01*
X-21795638Y-11176889D01*
X-21779724Y-11185713D01*
X-21763902Y-11199115D01*
X-21734181Y-11234958D01*
X-21706749Y-11279043D01*
X-21682935Y-11325205D01*
X-21544083Y-11615000D01*
X-21734135Y-11615000D01*
X-21848395Y-11362819D01*
X-21872987Y-11311589D01*
X-21896801Y-11272998D01*
X-21921942Y-11248391D01*
X-21935480Y-11242009D01*
X-21950381Y-11239842D01*
X-21994940Y-11239842D01*
X-21994940Y-11615000D01*
X-22160400Y-11615000D01*
X-22160400Y-11073147D01*
X-21994940Y-11073147D01*
X-21923225Y-11073147D01*
X-21888917Y-11068239D01*
X-21860840Y-11054396D01*
X-21837633Y-11031992D01*
X-21819376Y-11001773D01*
X-21808555Y-10967668D01*
X-21804843Y-10928372D01*
X-21809586Y-10881362D01*
X-21822575Y-10847049D01*
X-21843660Y-10822127D01*
X-21874898Y-10805676D01*
X-21920111Y-10799412D01*
X-21994940Y-10799412D01*
X-21994940Y-11073147D01*
X-22160400Y-11073147D01*
X-22160400Y-10634120D01*
X-21898083Y-10634120D01*
X-21826414Y-10639688D01*
G37*
G36*
X-21213806Y-10623480D02*
G01*
X-21172675Y-10637893D01*
X-21135802Y-10661363D01*
X-21102499Y-10694178D01*
X-21072344Y-10737252D01*
X-21043538Y-10798191D01*
X-21021693Y-10873145D01*
X-21007532Y-10964976D01*
X-21002414Y-11077116D01*
X-21006366Y-11185141D01*
X-21017505Y-11278050D01*
X-21034954Y-11357850D01*
X-21058121Y-11426315D01*
X-21086723Y-11484940D01*
X-21123025Y-11537295D01*
X-21163928Y-11577467D01*
X-21210043Y-11606436D01*
X-21262346Y-11624374D01*
X-21322112Y-11630631D01*
X-21381494Y-11626388D01*
X-21432877Y-11614383D01*
X-21477359Y-11595460D01*
X-21477359Y-11415697D01*
X-21437198Y-11443376D01*
X-21391180Y-11460508D01*
X-21338003Y-11466500D01*
X-21296367Y-11461320D01*
X-21261399Y-11446644D01*
X-21231779Y-11423023D01*
X-21206616Y-11389991D01*
X-21187393Y-11350571D01*
X-21172824Y-11302420D01*
X-21163323Y-11243786D01*
X-21159721Y-11172554D01*
X-21162790Y-11171210D01*
X-21189948Y-11212792D01*
X-21222805Y-11242322D01*
X-21262495Y-11260679D01*
X-21310847Y-11267198D01*
X-21354759Y-11261742D01*
X-21393670Y-11245935D01*
X-21428580Y-11219947D01*
X-21460186Y-11183056D01*
X-21485628Y-11138799D01*
X-21503983Y-11088492D01*
X-21515371Y-11030987D01*
X-21519354Y-10964764D01*
X-21518183Y-10946202D01*
X-21361039Y-10946202D01*
X-21357714Y-10994909D01*
X-21348539Y-11033474D01*
X-21334157Y-11064049D01*
X-21314279Y-11087723D01*
X-21290367Y-11101978D01*
X-21261159Y-11106974D01*
X-21234526Y-11102316D01*
X-21211980Y-11088832D01*
X-21192511Y-11066125D01*
X-21177915Y-11037090D01*
X-21168983Y-11003265D01*
X-21165858Y-10963360D01*
X-21169200Y-10912760D01*
X-21178652Y-10870205D01*
X-21193793Y-10834155D01*
X-21214658Y-10804917D01*
X-21237959Y-10788237D01*
X-21264731Y-10782620D01*
X-21291091Y-10787707D01*
X-21313809Y-10802644D01*
X-21333882Y-10828354D01*
X-21348577Y-10860580D01*
X-21357771Y-10899316D01*
X-21361039Y-10946202D01*
X-21518183Y-10946202D01*
X-21514484Y-10887536D01*
X-21500595Y-10821093D01*
X-21478220Y-10763478D01*
X-21447134Y-10713255D01*
X-21408942Y-10672308D01*
X-21365743Y-10642947D01*
X-21316570Y-10624814D01*
X-21260105Y-10618489D01*
X-21213806Y-10623480D01*
G37*
G36*
X7981316Y-18578607D02*
G01*
X7926271Y-18606033D01*
X7857247Y-18624050D01*
X7771252Y-18630631D01*
X7703182Y-18624749D01*
X7643716Y-18607974D01*
X7591577Y-18581196D01*
X7545706Y-18544719D01*
X7505317Y-18498251D01*
X7471210Y-18443193D01*
X7444494Y-18381466D01*
X7424949Y-18312130D01*
X7412760Y-18233936D01*
X7408505Y-18145382D01*
X7413208Y-18051615D01*
X7426749Y-17968020D01*
X7448601Y-17893084D01*
X7478681Y-17825564D01*
X7517361Y-17764546D01*
X7562951Y-17712506D01*
X7613227Y-17672132D01*
X7668849Y-17642868D01*
X7730725Y-17624767D01*
X7799965Y-17618489D01*
X7871500Y-17622996D01*
X7931385Y-17635536D01*
X7981316Y-17654881D01*
X7981316Y-17868593D01*
X7930470Y-17835455D01*
X7874820Y-17815307D01*
X7813246Y-17808387D01*
X7762378Y-17814189D01*
X7718366Y-17830782D01*
X7679955Y-17857613D01*
X7646230Y-17895033D01*
X7619140Y-17940703D01*
X7599429Y-17993975D01*
X7587074Y-18056321D01*
X7582711Y-18129689D01*
X7586826Y-18200085D01*
X7598487Y-18260114D01*
X7617099Y-18311579D01*
X7642658Y-18355858D01*
X7674550Y-18392088D01*
X7711374Y-18418163D01*
X7754093Y-18434367D01*
X7804041Y-18440061D01*
X7867303Y-18432891D01*
X7926068Y-18411770D01*
X7981316Y-18376618D01*
X7981316Y-18578607D01*
G37*
G36*
X8109681Y-18588316D02*
G01*
X8109681Y-18403974D01*
X8161467Y-18438981D01*
X8214625Y-18459610D01*
X8270011Y-18466500D01*
X8311671Y-18461387D01*
X8344415Y-18447311D01*
X8370166Y-18425284D01*
X8390047Y-18394901D01*
X8402072Y-18358220D01*
X8406298Y-18313299D01*
X8402174Y-18268941D01*
X8390635Y-18234160D01*
X8371805Y-18206630D01*
X8344325Y-18185392D01*
X8305590Y-18171035D01*
X8252059Y-18165593D01*
X8199382Y-18168386D01*
X8130655Y-18177866D01*
X8130655Y-17634120D01*
X8537457Y-17634120D01*
X8537457Y-17813883D01*
X8269003Y-17813883D01*
X8269003Y-18005553D01*
X8329957Y-18001461D01*
X8386493Y-18007025D01*
X8433884Y-18022654D01*
X8473716Y-18047316D01*
X8507232Y-18080779D01*
X8534864Y-18123096D01*
X8554691Y-18171843D01*
X8566985Y-18228284D01*
X8571300Y-18294187D01*
X8566296Y-18366594D01*
X8551873Y-18430056D01*
X8528286Y-18486319D01*
X8494958Y-18536598D01*
X8454980Y-18576482D01*
X8408103Y-18605705D01*
X8353000Y-18624112D01*
X8287963Y-18630631D01*
X8217690Y-18625420D01*
X8158850Y-18610885D01*
X8109681Y-18588316D01*
G37*
G36*
X21769611Y-22324391D02*
G01*
X21825008Y-22341416D01*
X21874789Y-22368994D01*
X21919795Y-22407171D01*
X21960616Y-22456608D01*
X21994899Y-22513333D01*
X22021774Y-22576785D01*
X22041440Y-22647910D01*
X22053701Y-22727951D01*
X22057977Y-22818393D01*
X22053993Y-22906084D01*
X22042501Y-22984914D01*
X22023965Y-23056092D01*
X21998535Y-23120643D01*
X21965785Y-23178815D01*
X21927632Y-23227175D01*
X21883643Y-23266510D01*
X21833076Y-23297109D01*
X21859953Y-23334208D01*
X21883771Y-23362016D01*
X21908341Y-23385112D01*
X21932177Y-23402194D01*
X21956945Y-23414766D01*
X21982140Y-23422650D01*
X22038011Y-23428328D01*
X22055917Y-23427290D01*
X22075654Y-23423871D01*
X22094843Y-23418375D01*
X22111787Y-23411231D01*
X22111787Y-23593925D01*
X22066450Y-23605954D01*
X21996016Y-23611999D01*
X21947191Y-23606380D01*
X21903509Y-23590078D01*
X21862416Y-23564351D01*
X21822543Y-23530177D01*
X21784876Y-23489425D01*
X21747255Y-23440846D01*
X21671188Y-23330631D01*
X21621646Y-23324595D01*
X21576228Y-23310604D01*
X21534351Y-23288927D01*
X21495121Y-23259708D01*
X21460242Y-23224792D01*
X21429342Y-23183963D01*
X21402754Y-23137918D01*
X21380307Y-23086474D01*
X21361977Y-23029052D01*
X21348867Y-22969042D01*
X21340881Y-22905609D01*
X21338163Y-22838237D01*
X21338743Y-22825903D01*
X21512369Y-22825903D01*
X21515946Y-22898221D01*
X21526001Y-22959341D01*
X21541819Y-23011069D01*
X21563111Y-23054881D01*
X21590950Y-23091979D01*
X21622156Y-23117930D01*
X21657424Y-23133689D01*
X21697841Y-23139145D01*
X21739743Y-23133741D01*
X21775600Y-23118289D01*
X21806626Y-23093149D01*
X21833625Y-23057629D01*
X21854598Y-23014849D01*
X21870249Y-22963769D01*
X21880246Y-22902797D01*
X21883817Y-22829994D01*
X21880338Y-22754050D01*
X21870650Y-22691012D01*
X21855604Y-22638775D01*
X21835640Y-22595582D01*
X21809204Y-22558096D01*
X21778719Y-22531747D01*
X21743383Y-22515614D01*
X21701917Y-22509975D01*
X21660015Y-22515636D01*
X21623709Y-22531937D01*
X21591824Y-22558713D01*
X21563615Y-22596926D01*
X21542024Y-22641448D01*
X21526054Y-22693486D01*
X21515950Y-22754410D01*
X21512369Y-22825903D01*
X21338743Y-22825903D01*
X21342569Y-22744515D01*
X21355208Y-22661421D01*
X21375491Y-22587447D01*
X21403220Y-22521330D01*
X21438593Y-22462103D01*
X21481047Y-22411009D01*
X21528356Y-22371357D01*
X21581200Y-22342567D01*
X21640537Y-22324706D01*
X21707550Y-22318489D01*
X21769611Y-22324391D01*
G37*
G36*
X22647778Y-23315000D02*
G01*
X22183091Y-23315000D01*
X22183091Y-23143053D01*
X22335269Y-23143053D01*
X22335269Y-22533422D01*
X22178969Y-22580317D01*
X22178969Y-22404462D01*
X22496653Y-22318489D01*
X22496653Y-23143053D01*
X22647778Y-23143053D01*
X22647778Y-23315000D01*
G37*
D11*
G36*
X35272156Y-19275615D02*
G01*
X35272156Y-19055491D01*
X35334545Y-19100187D01*
X35401238Y-19131695D01*
X35471666Y-19150814D01*
X35541983Y-19157096D01*
X35582306Y-19155101D01*
X35614768Y-19149647D01*
X35644146Y-19140338D01*
X35666669Y-19128825D01*
X35685191Y-19113993D01*
X35697749Y-19097501D01*
X35705432Y-19078704D01*
X35708007Y-19058300D01*
X35703874Y-19031104D01*
X35691582Y-19007131D01*
X35672795Y-18986001D01*
X35646825Y-18965488D01*
X35579536Y-18928668D01*
X35495577Y-18892459D01*
X35421740Y-18856065D01*
X35365710Y-18817086D01*
X35324424Y-18775772D01*
X35293392Y-18727213D01*
X35274577Y-18672287D01*
X35268065Y-18609260D01*
X35271721Y-18559067D01*
X35282130Y-18515636D01*
X35298779Y-18477857D01*
X35335034Y-18427837D01*
X35382493Y-18387426D01*
X35438731Y-18357014D01*
X35505103Y-18335219D01*
X35576077Y-18322758D01*
X35652686Y-18318489D01*
X35727040Y-18320931D01*
X35788241Y-18327648D01*
X35845819Y-18339466D01*
X35897235Y-18355797D01*
X35897235Y-18558457D01*
X35843562Y-18529270D01*
X35783784Y-18508326D01*
X35722662Y-18496053D01*
X35664960Y-18492023D01*
X35628344Y-18493889D01*
X35596633Y-18499167D01*
X35567502Y-18508073D01*
X35544731Y-18519256D01*
X35525645Y-18533764D01*
X35511941Y-18550275D01*
X35503273Y-18569334D01*
X35500340Y-18590819D01*
X35503615Y-18614231D01*
X35513285Y-18634844D01*
X35528456Y-18653204D01*
X35550165Y-18671664D01*
X35608234Y-18705797D01*
X35685476Y-18740296D01*
X35742323Y-18766166D01*
X35790989Y-18792503D01*
X35835069Y-18822363D01*
X35871284Y-18854907D01*
X35900830Y-18892212D01*
X35922514Y-18934469D01*
X35935600Y-18981445D01*
X35940282Y-19038517D01*
X35936510Y-19092381D01*
X35925909Y-19137741D01*
X35909202Y-19176025D01*
X35872548Y-19226389D01*
X35824817Y-19266151D01*
X35768209Y-19295333D01*
X35700863Y-19315610D01*
X35628952Y-19326798D01*
X35551570Y-19330631D01*
X35472125Y-19327109D01*
X35398185Y-19316831D01*
X35328616Y-19299098D01*
X35272156Y-19275615D01*
G37*
G36*
X36101788Y-19288316D02*
G01*
X36101788Y-19103974D01*
X36170837Y-19138981D01*
X36241714Y-19159610D01*
X36315561Y-19166500D01*
X36371109Y-19161387D01*
X36414767Y-19147311D01*
X36449101Y-19125284D01*
X36475610Y-19094901D01*
X36491643Y-19058220D01*
X36497278Y-19013299D01*
X36491779Y-18968941D01*
X36476394Y-18934160D01*
X36451287Y-18906630D01*
X36414647Y-18885392D01*
X36363001Y-18871035D01*
X36291626Y-18865593D01*
X36221389Y-18868386D01*
X36129754Y-18877866D01*
X36129754Y-18334120D01*
X36672156Y-18334120D01*
X36672156Y-18513883D01*
X36314218Y-18513883D01*
X36314218Y-18705553D01*
X36395490Y-18701461D01*
X36470872Y-18707025D01*
X36534059Y-18722654D01*
X36587169Y-18747316D01*
X36631856Y-18780779D01*
X36668699Y-18823096D01*
X36695136Y-18871843D01*
X36711528Y-18928284D01*
X36717280Y-18994187D01*
X36710609Y-19066594D01*
X36691378Y-19130056D01*
X36659929Y-19186319D01*
X36615492Y-19236598D01*
X36562188Y-19276482D01*
X36499684Y-19305705D01*
X36426213Y-19324112D01*
X36339497Y-19330631D01*
X36245800Y-19325420D01*
X36167346Y-19310885D01*
X36101788Y-19288316D01*
G37*
G36*
X39272156Y7724385D02*
G01*
X39272156Y7944509D01*
X39334545Y7899813D01*
X39401238Y7868305D01*
X39471666Y7849186D01*
X39541983Y7842904D01*
X39582306Y7844899D01*
X39614768Y7850353D01*
X39644146Y7859662D01*
X39666669Y7871175D01*
X39685191Y7886007D01*
X39697749Y7902499D01*
X39705432Y7921296D01*
X39708007Y7941700D01*
X39703874Y7968896D01*
X39691582Y7992869D01*
X39672795Y8013999D01*
X39646825Y8034512D01*
X39579536Y8071332D01*
X39495577Y8107541D01*
X39421740Y8143935D01*
X39365710Y8182914D01*
X39324424Y8224228D01*
X39293392Y8272787D01*
X39274577Y8327713D01*
X39268065Y8390740D01*
X39271721Y8440933D01*
X39282130Y8484364D01*
X39298779Y8522143D01*
X39335034Y8572163D01*
X39382493Y8612574D01*
X39438731Y8642986D01*
X39505103Y8664781D01*
X39576077Y8677242D01*
X39652686Y8681511D01*
X39727040Y8679069D01*
X39788241Y8672352D01*
X39845819Y8660534D01*
X39897235Y8644203D01*
X39897235Y8441543D01*
X39843562Y8470730D01*
X39783784Y8491674D01*
X39722662Y8503947D01*
X39664960Y8507977D01*
X39628344Y8506111D01*
X39596633Y8500833D01*
X39567502Y8491927D01*
X39544731Y8480744D01*
X39525645Y8466236D01*
X39511941Y8449725D01*
X39503273Y8430666D01*
X39500340Y8409181D01*
X39503615Y8385769D01*
X39513285Y8365156D01*
X39528456Y8346796D01*
X39550165Y8328336D01*
X39608234Y8294203D01*
X39685476Y8259704D01*
X39742323Y8233834D01*
X39790989Y8207497D01*
X39835069Y8177637D01*
X39871284Y8145093D01*
X39900830Y8107788D01*
X39922514Y8065531D01*
X39935600Y8018555D01*
X39940282Y7961483D01*
X39936510Y7907619D01*
X39925909Y7862259D01*
X39909202Y7823975D01*
X39872548Y7773611D01*
X39824817Y7733849D01*
X39768209Y7704667D01*
X39700863Y7684390D01*
X39628952Y7673202D01*
X39551570Y7669369D01*
X39472125Y7672891D01*
X39398185Y7683169D01*
X39328616Y7700902D01*
X39272156Y7724385D01*
G37*
G36*
X40471256Y8676705D02*
G01*
X40533180Y8663174D01*
X40585782Y8641855D01*
X40630513Y8613123D01*
X40669027Y8575799D01*
X40695706Y8534588D01*
X40711759Y8488646D01*
X40717280Y8436597D01*
X40710152Y8377211D01*
X40689387Y8325382D01*
X40654487Y8279234D01*
X40603139Y8237815D01*
X40531472Y8201208D01*
X40531472Y8198460D01*
X40594857Y8173677D01*
X40645769Y8141361D01*
X40686139Y8101618D01*
X40716943Y8054333D01*
X40735057Y8004210D01*
X40741155Y7950004D01*
X40734843Y7886902D01*
X40716748Y7832766D01*
X40687179Y7785746D01*
X40645167Y7744657D01*
X40595841Y7713426D01*
X40536139Y7689923D01*
X40464026Y7674801D01*
X40377050Y7669369D01*
X40302609Y7674472D01*
X40238855Y7688917D01*
X40184078Y7711831D01*
X40136898Y7742947D01*
X40096806Y7782969D01*
X40068727Y7827986D01*
X40051653Y7879020D01*
X40045734Y7937670D01*
X40046596Y7946585D01*
X40249982Y7946585D01*
X40254693Y7912455D01*
X40268472Y7883053D01*
X40291992Y7857131D01*
X40321665Y7837661D01*
X40355347Y7825863D01*
X40394147Y7821776D01*
X40436140Y7825951D01*
X40470445Y7837672D01*
X40498683Y7856459D01*
X40520584Y7881862D01*
X40533729Y7911890D01*
X40538311Y7947989D01*
X40532795Y7989241D01*
X40516562Y8025538D01*
X40488768Y8058273D01*
X40446950Y8088012D01*
X40387308Y8114440D01*
X40333920Y8087763D01*
X40295925Y8057894D01*
X40270296Y8024945D01*
X40255154Y7988280D01*
X40249982Y7946585D01*
X40046596Y7946585D01*
X40051096Y7993135D01*
X40066663Y8042374D01*
X40092368Y8086700D01*
X40129080Y8126995D01*
X40178534Y8163631D01*
X40243205Y8196445D01*
X40243205Y8199864D01*
X40179095Y8233069D01*
X40132736Y8271419D01*
X40100885Y8314930D01*
X40081732Y8364604D01*
X40075588Y8418095D01*
X40279414Y8418095D01*
X40286117Y8376792D01*
X40306119Y8340702D01*
X40341489Y8308193D01*
X40396894Y8279060D01*
X40452311Y8308864D01*
X40487696Y8341821D01*
X40507688Y8378164D01*
X40514375Y8419500D01*
X40510630Y8451465D01*
X40500012Y8477626D01*
X40482624Y8499306D01*
X40459838Y8515497D01*
X40432161Y8525537D01*
X40398238Y8529104D01*
X40365308Y8525472D01*
X40337319Y8515053D01*
X40313180Y8497902D01*
X40294475Y8475283D01*
X40283289Y8449059D01*
X40279414Y8418095D01*
X40075588Y8418095D01*
X40075104Y8422309D01*
X40080823Y8476671D01*
X40097489Y8524968D01*
X40125229Y8568577D01*
X40165291Y8608361D01*
X40212012Y8639477D01*
X40265544Y8662242D01*
X40327110Y8676500D01*
X40398238Y8681511D01*
X40471256Y8676705D01*
G37*
D12*
G36*
X13481316Y-31028607D02*
G01*
X13426271Y-31056033D01*
X13357247Y-31074050D01*
X13271252Y-31080631D01*
X13203182Y-31074749D01*
X13143716Y-31057974D01*
X13091577Y-31031196D01*
X13045706Y-30994719D01*
X13005317Y-30948251D01*
X12971210Y-30893193D01*
X12944494Y-30831466D01*
X12924949Y-30762130D01*
X12912760Y-30683936D01*
X12908505Y-30595382D01*
X12913208Y-30501615D01*
X12926749Y-30418020D01*
X12948601Y-30343084D01*
X12978681Y-30275564D01*
X13017361Y-30214546D01*
X13062951Y-30162506D01*
X13113227Y-30122132D01*
X13168849Y-30092868D01*
X13230725Y-30074767D01*
X13299965Y-30068489D01*
X13371500Y-30072996D01*
X13431385Y-30085536D01*
X13481316Y-30104881D01*
X13481316Y-30318593D01*
X13430470Y-30285455D01*
X13374820Y-30265307D01*
X13313246Y-30258387D01*
X13262378Y-30264189D01*
X13218366Y-30280782D01*
X13179955Y-30307613D01*
X13146230Y-30345033D01*
X13119140Y-30390703D01*
X13099429Y-30443975D01*
X13087074Y-30506321D01*
X13082711Y-30579689D01*
X13086826Y-30650085D01*
X13098487Y-30710114D01*
X13117099Y-30761579D01*
X13142658Y-30805858D01*
X13174550Y-30842088D01*
X13211374Y-30868163D01*
X13254093Y-30884367D01*
X13304041Y-30890061D01*
X13367303Y-30882891D01*
X13426068Y-30861770D01*
X13481316Y-30826618D01*
X13481316Y-31028607D01*
G37*
G36*
X14086137Y-30183832D02*
G01*
X13826889Y-31065000D01*
X13655797Y-31065000D01*
X13917060Y-30263883D01*
X13574830Y-30263883D01*
X13574830Y-30084120D01*
X14086137Y-30084120D01*
X14086137Y-30183832D01*
G37*
G36*
X-53741133Y-6324969D02*
G01*
X-53684541Y-6340121D01*
X-53640274Y-6363029D01*
X-53606024Y-6392623D01*
X-53580049Y-6428690D01*
X-53561302Y-6471904D01*
X-53549541Y-6523748D01*
X-53545356Y-6586359D01*
X-53548385Y-6636298D01*
X-53557171Y-6681125D01*
X-53571424Y-6722568D01*
X-53590465Y-6759527D01*
X-53614046Y-6791795D01*
X-53642488Y-6819733D01*
X-53674347Y-6842129D01*
X-53710357Y-6859422D01*
X-53710357Y-6862170D01*
X-53694443Y-6870994D01*
X-53678621Y-6884396D01*
X-53648900Y-6920239D01*
X-53621468Y-6964324D01*
X-53597654Y-7010486D01*
X-53458802Y-7300281D01*
X-53648854Y-7300281D01*
X-53763114Y-7048100D01*
X-53787706Y-6996870D01*
X-53811520Y-6958279D01*
X-53836661Y-6933672D01*
X-53850199Y-6927290D01*
X-53865100Y-6925123D01*
X-53909659Y-6925123D01*
X-53909659Y-7300281D01*
X-54075119Y-7300281D01*
X-54075119Y-6758428D01*
X-53909659Y-6758428D01*
X-53837944Y-6758428D01*
X-53803636Y-6753520D01*
X-53775559Y-6739677D01*
X-53752352Y-6717273D01*
X-53734095Y-6687054D01*
X-53723274Y-6652949D01*
X-53719562Y-6613653D01*
X-53724305Y-6566643D01*
X-53737294Y-6532330D01*
X-53758379Y-6507408D01*
X-53789617Y-6490957D01*
X-53834830Y-6484693D01*
X-53909659Y-6484693D01*
X-53909659Y-6758428D01*
X-54075119Y-6758428D01*
X-54075119Y-6319401D01*
X-53812802Y-6319401D01*
X-53741133Y-6324969D01*
G37*
G36*
X-53232756Y-7116427D02*
G01*
X-53232756Y-7120518D01*
X-52934581Y-7120518D01*
X-52934581Y-7300281D01*
X-53418228Y-7300281D01*
X-53418228Y-7131448D01*
X-53207614Y-6863574D01*
X-53150149Y-6783589D01*
X-53118221Y-6727104D01*
X-53103690Y-6689222D01*
X-53095176Y-6650777D01*
X-53092347Y-6611149D01*
X-53097070Y-6560658D01*
X-53109838Y-6524415D01*
X-53130130Y-6498660D01*
X-53159554Y-6481991D01*
X-53201477Y-6475717D01*
X-53246997Y-6481698D01*
X-53291929Y-6499849D01*
X-53337022Y-6531130D01*
X-53382873Y-6577322D01*
X-53382873Y-6387423D01*
X-53333646Y-6350955D01*
X-53281593Y-6324944D01*
X-53226159Y-6309150D01*
X-53166673Y-6303770D01*
X-53110203Y-6309112D01*
X-53063061Y-6324076D01*
X-53023643Y-6347585D01*
X-52990680Y-6379302D01*
X-52963309Y-6419785D01*
X-52943741Y-6466387D01*
X-52931635Y-6520319D01*
X-52927391Y-6583306D01*
X-52932546Y-6646427D01*
X-52948604Y-6712165D01*
X-52977123Y-6781904D01*
X-53020454Y-6856863D01*
X-53081630Y-6938068D01*
X-53232756Y-7116427D01*
G37*
G36*
X-53226414Y2860312D02*
G01*
X-53169822Y2845160D01*
X-53125555Y2822252D01*
X-53091305Y2792658D01*
X-53065330Y2756591D01*
X-53046583Y2713377D01*
X-53034822Y2661533D01*
X-53030637Y2598922D01*
X-53033666Y2548983D01*
X-53042452Y2504156D01*
X-53056705Y2462713D01*
X-53075746Y2425754D01*
X-53099327Y2393486D01*
X-53127769Y2365548D01*
X-53159628Y2343152D01*
X-53195638Y2325859D01*
X-53195638Y2323111D01*
X-53179724Y2314287D01*
X-53163902Y2300885D01*
X-53134181Y2265042D01*
X-53106749Y2220957D01*
X-53082935Y2174795D01*
X-52944083Y1885000D01*
X-53134135Y1885000D01*
X-53248395Y2137181D01*
X-53272987Y2188411D01*
X-53296801Y2227002D01*
X-53321942Y2251609D01*
X-53335480Y2257991D01*
X-53350381Y2260158D01*
X-53394940Y2260158D01*
X-53394940Y1885000D01*
X-53560400Y1885000D01*
X-53560400Y2426853D01*
X-53394940Y2426853D01*
X-53323225Y2426853D01*
X-53288917Y2431761D01*
X-53260840Y2445604D01*
X-53237633Y2468008D01*
X-53219376Y2498227D01*
X-53208555Y2532332D01*
X-53204843Y2571628D01*
X-53209586Y2618638D01*
X-53222575Y2652951D01*
X-53243660Y2677873D01*
X-53274898Y2694324D01*
X-53320111Y2700588D01*
X-53394940Y2700588D01*
X-53394940Y2426853D01*
X-53560400Y2426853D01*
X-53560400Y2865880D01*
X-53298083Y2865880D01*
X-53226414Y2860312D01*
G37*
G36*
X-52398842Y2766168D02*
G01*
X-52658090Y1885000D01*
X-52829182Y1885000D01*
X-52567919Y2686117D01*
X-52910149Y2686117D01*
X-52910149Y2865880D01*
X-52398842Y2865880D01*
X-52398842Y2766168D01*
G37*
D11*
G36*
X43272156Y-11275615D02*
G01*
X43272156Y-11055491D01*
X43334545Y-11100187D01*
X43401238Y-11131695D01*
X43471666Y-11150814D01*
X43541983Y-11157096D01*
X43582306Y-11155101D01*
X43614768Y-11149647D01*
X43644146Y-11140338D01*
X43666669Y-11128825D01*
X43685191Y-11113993D01*
X43697749Y-11097501D01*
X43705432Y-11078704D01*
X43708007Y-11058300D01*
X43703874Y-11031104D01*
X43691582Y-11007131D01*
X43672795Y-10986001D01*
X43646825Y-10965488D01*
X43579536Y-10928668D01*
X43495577Y-10892459D01*
X43421740Y-10856065D01*
X43365710Y-10817086D01*
X43324424Y-10775772D01*
X43293392Y-10727213D01*
X43274577Y-10672287D01*
X43268065Y-10609260D01*
X43271721Y-10559067D01*
X43282130Y-10515636D01*
X43298779Y-10477857D01*
X43335034Y-10427837D01*
X43382493Y-10387426D01*
X43438731Y-10357014D01*
X43505103Y-10335219D01*
X43576077Y-10322758D01*
X43652686Y-10318489D01*
X43727040Y-10320931D01*
X43788241Y-10327648D01*
X43845819Y-10339466D01*
X43897235Y-10355797D01*
X43897235Y-10558457D01*
X43843562Y-10529270D01*
X43783784Y-10508326D01*
X43722662Y-10496053D01*
X43664960Y-10492023D01*
X43628344Y-10493889D01*
X43596633Y-10499167D01*
X43567502Y-10508073D01*
X43544731Y-10519256D01*
X43525645Y-10533764D01*
X43511941Y-10550275D01*
X43503273Y-10569334D01*
X43500340Y-10590819D01*
X43503615Y-10614231D01*
X43513285Y-10634844D01*
X43528456Y-10653204D01*
X43550165Y-10671664D01*
X43608234Y-10705797D01*
X43685476Y-10740296D01*
X43742323Y-10766166D01*
X43790989Y-10792503D01*
X43835069Y-10822363D01*
X43871284Y-10854907D01*
X43900830Y-10892212D01*
X43922514Y-10934469D01*
X43935600Y-10981445D01*
X43940282Y-11038517D01*
X43936510Y-11092381D01*
X43925909Y-11137741D01*
X43909202Y-11176025D01*
X43872548Y-11226389D01*
X43824817Y-11266151D01*
X43768209Y-11295333D01*
X43700863Y-11315610D01*
X43628952Y-11326798D01*
X43551570Y-11330631D01*
X43472125Y-11327109D01*
X43398185Y-11316831D01*
X43328616Y-11299098D01*
X43272156Y-11275615D01*
G37*
G36*
X44577879Y-10322106D02*
G01*
X44635420Y-10331733D01*
X44678323Y-10345844D01*
X44678323Y-10525607D01*
X44627264Y-10501758D01*
X44573344Y-10487460D01*
X44515718Y-10482620D01*
X44463245Y-10488013D01*
X44417407Y-10503607D01*
X44376782Y-10529337D01*
X44340474Y-10566212D01*
X44312350Y-10609298D01*
X44291112Y-10660009D01*
X44277103Y-10719709D01*
X44271170Y-10790061D01*
X44275261Y-10790061D01*
X44314526Y-10744430D01*
X44360829Y-10712406D01*
X44415528Y-10692743D01*
X44480914Y-10685830D01*
X44541029Y-10691377D01*
X44592534Y-10707217D01*
X44637101Y-10732889D01*
X44675881Y-10768934D01*
X44706508Y-10812185D01*
X44728934Y-10862334D01*
X44743022Y-10920667D01*
X44747993Y-10988813D01*
X44741729Y-11060858D01*
X44723625Y-11124661D01*
X44694030Y-11181768D01*
X44652372Y-11233300D01*
X44601597Y-11275692D01*
X44544995Y-11305801D01*
X44481396Y-11324239D01*
X44409168Y-11330631D01*
X44343812Y-11325509D01*
X44286519Y-11310815D01*
X44235913Y-11287072D01*
X44190942Y-11254132D01*
X44150942Y-11211196D01*
X44112492Y-11149892D01*
X44083491Y-11075426D01*
X44066555Y-10993698D01*
X44278009Y-10993698D01*
X44282210Y-11040182D01*
X44294261Y-11080496D01*
X44313852Y-11115819D01*
X44340885Y-11144348D01*
X44372143Y-11160859D01*
X44409168Y-11166500D01*
X44445663Y-11161362D01*
X44476113Y-11146490D01*
X44502041Y-11121254D01*
X44520826Y-11089381D01*
X44532672Y-11050612D01*
X44536907Y-11003224D01*
X44530575Y-10941315D01*
X44513988Y-10898677D01*
X44488959Y-10870025D01*
X44454657Y-10852451D01*
X44407824Y-10846053D01*
X44370101Y-10850878D01*
X44339085Y-10864663D01*
X44313180Y-10887575D01*
X44294033Y-10916977D01*
X44282189Y-10951872D01*
X44278009Y-10993698D01*
X44066555Y-10993698D01*
X44064794Y-10985201D01*
X44058068Y-10876095D01*
X44063495Y-10772547D01*
X44078942Y-10681737D01*
X44103435Y-10602019D01*
X44136387Y-10531953D01*
X44177625Y-10470347D01*
X44229104Y-10415463D01*
X44286302Y-10373530D01*
X44349983Y-10343446D01*
X44421379Y-10324919D01*
X44502102Y-10318489D01*
X44577879Y-10322106D01*
G37*
G36*
X-48727844Y-15275615D02*
G01*
X-48727844Y-15055491D01*
X-48665455Y-15100187D01*
X-48598762Y-15131695D01*
X-48528334Y-15150814D01*
X-48458017Y-15157096D01*
X-48417694Y-15155101D01*
X-48385232Y-15149647D01*
X-48355854Y-15140338D01*
X-48333331Y-15128825D01*
X-48314809Y-15113993D01*
X-48302251Y-15097501D01*
X-48294568Y-15078704D01*
X-48291993Y-15058300D01*
X-48296126Y-15031104D01*
X-48308418Y-15007131D01*
X-48327205Y-14986001D01*
X-48353175Y-14965488D01*
X-48420464Y-14928668D01*
X-48504423Y-14892459D01*
X-48578260Y-14856065D01*
X-48634290Y-14817086D01*
X-48675576Y-14775772D01*
X-48706608Y-14727213D01*
X-48725423Y-14672287D01*
X-48731935Y-14609260D01*
X-48728279Y-14559067D01*
X-48717870Y-14515636D01*
X-48701221Y-14477857D01*
X-48664966Y-14427837D01*
X-48617507Y-14387426D01*
X-48561269Y-14357014D01*
X-48494897Y-14335219D01*
X-48423923Y-14322758D01*
X-48347314Y-14318489D01*
X-48272960Y-14320931D01*
X-48211759Y-14327648D01*
X-48154181Y-14339466D01*
X-48102765Y-14355797D01*
X-48102765Y-14558457D01*
X-48156438Y-14529270D01*
X-48216216Y-14508326D01*
X-48277338Y-14496053D01*
X-48335040Y-14492023D01*
X-48371656Y-14493889D01*
X-48403367Y-14499167D01*
X-48432498Y-14508073D01*
X-48455269Y-14519256D01*
X-48474355Y-14533764D01*
X-48488059Y-14550275D01*
X-48496727Y-14569334D01*
X-48499660Y-14590819D01*
X-48496385Y-14614231D01*
X-48486715Y-14634844D01*
X-48471544Y-14653204D01*
X-48449835Y-14671664D01*
X-48391766Y-14705797D01*
X-48314524Y-14740296D01*
X-48257677Y-14766166D01*
X-48209011Y-14792503D01*
X-48164931Y-14822363D01*
X-48128716Y-14854907D01*
X-48099170Y-14892212D01*
X-48077486Y-14934469D01*
X-48064400Y-14981445D01*
X-48059718Y-15038517D01*
X-48063490Y-15092381D01*
X-48074091Y-15137741D01*
X-48090798Y-15176025D01*
X-48127452Y-15226389D01*
X-48175183Y-15266151D01*
X-48231791Y-15295333D01*
X-48299137Y-15315610D01*
X-48371048Y-15326798D01*
X-48448430Y-15330631D01*
X-48527875Y-15327109D01*
X-48601815Y-15316831D01*
X-48671384Y-15299098D01*
X-48727844Y-15275615D01*
G37*
G36*
X-47274538Y-15315000D02*
G01*
X-47894121Y-15315000D01*
X-47894121Y-15143053D01*
X-47691216Y-15143053D01*
X-47691216Y-14533422D01*
X-47899616Y-14580317D01*
X-47899616Y-14404462D01*
X-47476038Y-14318489D01*
X-47476038Y-15143053D01*
X-47274538Y-15143053D01*
X-47274538Y-15315000D01*
G37*
G36*
X-40727844Y7724385D02*
G01*
X-40727844Y7944509D01*
X-40665455Y7899813D01*
X-40598762Y7868305D01*
X-40528334Y7849186D01*
X-40458017Y7842904D01*
X-40417694Y7844899D01*
X-40385232Y7850353D01*
X-40355854Y7859662D01*
X-40333331Y7871175D01*
X-40314809Y7886007D01*
X-40302251Y7902499D01*
X-40294568Y7921296D01*
X-40291993Y7941700D01*
X-40296126Y7968896D01*
X-40308418Y7992869D01*
X-40327205Y8013999D01*
X-40353175Y8034512D01*
X-40420464Y8071332D01*
X-40504423Y8107541D01*
X-40578260Y8143935D01*
X-40634290Y8182914D01*
X-40675576Y8224228D01*
X-40706608Y8272787D01*
X-40725423Y8327713D01*
X-40731935Y8390740D01*
X-40728279Y8440933D01*
X-40717870Y8484364D01*
X-40701221Y8522143D01*
X-40664966Y8572163D01*
X-40617507Y8612574D01*
X-40561269Y8642986D01*
X-40494897Y8664781D01*
X-40423923Y8677242D01*
X-40347314Y8681511D01*
X-40272960Y8679069D01*
X-40211759Y8672352D01*
X-40154181Y8660534D01*
X-40102765Y8644203D01*
X-40102765Y8441543D01*
X-40156438Y8470730D01*
X-40216216Y8491674D01*
X-40277338Y8503947D01*
X-40335040Y8507977D01*
X-40371656Y8506111D01*
X-40403367Y8500833D01*
X-40432498Y8491927D01*
X-40455269Y8480744D01*
X-40474355Y8466236D01*
X-40488059Y8449725D01*
X-40496727Y8430666D01*
X-40499660Y8409181D01*
X-40496385Y8385769D01*
X-40486715Y8365156D01*
X-40471544Y8346796D01*
X-40449835Y8328336D01*
X-40391766Y8294203D01*
X-40314524Y8259704D01*
X-40257677Y8233834D01*
X-40209011Y8207497D01*
X-40164931Y8177637D01*
X-40128716Y8145093D01*
X-40099170Y8107788D01*
X-40077486Y8065531D01*
X-40064400Y8018555D01*
X-40059718Y7961483D01*
X-40063490Y7907619D01*
X-40074091Y7862259D01*
X-40090798Y7823975D01*
X-40127452Y7773611D01*
X-40175183Y7733849D01*
X-40231791Y7704667D01*
X-40299137Y7684390D01*
X-40371048Y7673202D01*
X-40448430Y7669369D01*
X-40527875Y7672891D01*
X-40601815Y7683169D01*
X-40671384Y7700902D01*
X-40727844Y7724385D01*
G37*
G36*
X-39262936Y8566168D02*
G01*
X-39608601Y7685000D01*
X-39836724Y7685000D01*
X-39488373Y8486117D01*
X-39944679Y8486117D01*
X-39944679Y8665880D01*
X-39262936Y8665880D01*
X-39262936Y8566168D01*
G37*
D12*
G36*
X-26118684Y-30778607D02*
G01*
X-26173729Y-30806033D01*
X-26242753Y-30824050D01*
X-26328748Y-30830631D01*
X-26396818Y-30824749D01*
X-26456284Y-30807974D01*
X-26508423Y-30781196D01*
X-26554294Y-30744719D01*
X-26594683Y-30698251D01*
X-26628790Y-30643193D01*
X-26655506Y-30581466D01*
X-26675051Y-30512130D01*
X-26687240Y-30433936D01*
X-26691495Y-30345382D01*
X-26686792Y-30251615D01*
X-26673251Y-30168020D01*
X-26651399Y-30093084D01*
X-26621319Y-30025564D01*
X-26582639Y-29964546D01*
X-26537049Y-29912506D01*
X-26486773Y-29872132D01*
X-26431151Y-29842868D01*
X-26369275Y-29824767D01*
X-26300035Y-29818489D01*
X-26228500Y-29822996D01*
X-26168615Y-29835536D01*
X-26118684Y-29854881D01*
X-26118684Y-30068593D01*
X-26169530Y-30035455D01*
X-26225180Y-30015307D01*
X-26286754Y-30008387D01*
X-26337622Y-30014189D01*
X-26381634Y-30030782D01*
X-26420045Y-30057613D01*
X-26453770Y-30095033D01*
X-26480860Y-30140703D01*
X-26500571Y-30193975D01*
X-26512926Y-30256321D01*
X-26517289Y-30329689D01*
X-26513174Y-30400085D01*
X-26501513Y-30460114D01*
X-26482901Y-30511579D01*
X-26457342Y-30555858D01*
X-26425450Y-30592088D01*
X-26388626Y-30618163D01*
X-26345907Y-30634367D01*
X-26295959Y-30640061D01*
X-26232697Y-30632891D01*
X-26173932Y-30611770D01*
X-26118684Y-30576618D01*
X-26118684Y-30778607D01*
G37*
G36*
X-25522564Y-30815000D02*
G01*
X-25987251Y-30815000D01*
X-25987251Y-30643053D01*
X-25835073Y-30643053D01*
X-25835073Y-30033422D01*
X-25991373Y-30080317D01*
X-25991373Y-29904462D01*
X-25673689Y-29818489D01*
X-25673689Y-30643053D01*
X-25522564Y-30643053D01*
X-25522564Y-30815000D01*
G37*
D11*
G36*
X-17112704Y-30389406D02*
G01*
X-17118863Y-30490789D01*
X-17135950Y-30574268D01*
X-17162380Y-30642807D01*
X-17197304Y-30698883D01*
X-17240671Y-30744364D01*
X-17293233Y-30780390D01*
X-17356477Y-30807273D01*
X-17432513Y-30824472D01*
X-17523948Y-30830631D01*
X-17612494Y-30824636D01*
X-17686163Y-30807891D01*
X-17747479Y-30781703D01*
X-17798479Y-30746583D01*
X-17840593Y-30702209D01*
X-17874534Y-30647453D01*
X-17900238Y-30580476D01*
X-17916863Y-30498847D01*
X-17922858Y-30399665D01*
X-17922858Y-29834120D01*
X-17701574Y-29834120D01*
X-17701574Y-30402351D01*
X-17694980Y-30483473D01*
X-17677476Y-30542732D01*
X-17651294Y-30585336D01*
X-17616856Y-30614989D01*
X-17572703Y-30633416D01*
X-17515766Y-30640061D01*
X-17459657Y-30633591D01*
X-17416239Y-30615678D01*
X-17382473Y-30586932D01*
X-17356875Y-30545758D01*
X-17339801Y-30488639D01*
X-17333378Y-30410594D01*
X-17333378Y-29834120D01*
X-17112704Y-29834120D01*
X-17112704Y-30389406D01*
G37*
G36*
X-16275440Y-30815000D02*
G01*
X-16895023Y-30815000D01*
X-16895023Y-30643053D01*
X-16692118Y-30643053D01*
X-16692118Y-30033422D01*
X-16900518Y-30080317D01*
X-16900518Y-29904462D01*
X-16476940Y-29818489D01*
X-16476940Y-30643053D01*
X-16275440Y-30643053D01*
X-16275440Y-30815000D01*
G37*
G36*
X-40727844Y-7275615D02*
G01*
X-40727844Y-7055491D01*
X-40665455Y-7100187D01*
X-40598762Y-7131695D01*
X-40528334Y-7150814D01*
X-40458017Y-7157096D01*
X-40417694Y-7155101D01*
X-40385232Y-7149647D01*
X-40355854Y-7140338D01*
X-40333331Y-7128825D01*
X-40314809Y-7113993D01*
X-40302251Y-7097501D01*
X-40294568Y-7078704D01*
X-40291993Y-7058300D01*
X-40296126Y-7031104D01*
X-40308418Y-7007131D01*
X-40327205Y-6986001D01*
X-40353175Y-6965488D01*
X-40420464Y-6928668D01*
X-40504423Y-6892459D01*
X-40578260Y-6856065D01*
X-40634290Y-6817086D01*
X-40675576Y-6775772D01*
X-40706608Y-6727213D01*
X-40725423Y-6672287D01*
X-40731935Y-6609260D01*
X-40728279Y-6559067D01*
X-40717870Y-6515636D01*
X-40701221Y-6477857D01*
X-40664966Y-6427837D01*
X-40617507Y-6387426D01*
X-40561269Y-6357014D01*
X-40494897Y-6335219D01*
X-40423923Y-6322758D01*
X-40347314Y-6318489D01*
X-40272960Y-6320931D01*
X-40211759Y-6327648D01*
X-40154181Y-6339466D01*
X-40102765Y-6355797D01*
X-40102765Y-6558457D01*
X-40156438Y-6529270D01*
X-40216216Y-6508326D01*
X-40277338Y-6496053D01*
X-40335040Y-6492023D01*
X-40371656Y-6493889D01*
X-40403367Y-6499167D01*
X-40432498Y-6508073D01*
X-40455269Y-6519256D01*
X-40474355Y-6533764D01*
X-40488059Y-6550275D01*
X-40496727Y-6569334D01*
X-40499660Y-6590819D01*
X-40496385Y-6614231D01*
X-40486715Y-6634844D01*
X-40471544Y-6653204D01*
X-40449835Y-6671664D01*
X-40391766Y-6705797D01*
X-40314524Y-6740296D01*
X-40257677Y-6766166D01*
X-40209011Y-6792503D01*
X-40164931Y-6822363D01*
X-40128716Y-6854907D01*
X-40099170Y-6892212D01*
X-40077486Y-6934469D01*
X-40064400Y-6981445D01*
X-40059718Y-7038517D01*
X-40063490Y-7092381D01*
X-40074091Y-7137741D01*
X-40090798Y-7176025D01*
X-40127452Y-7226389D01*
X-40175183Y-7266151D01*
X-40231791Y-7295333D01*
X-40299137Y-7315610D01*
X-40371048Y-7326798D01*
X-40448430Y-7330631D01*
X-40527875Y-7327109D01*
X-40601815Y-7316831D01*
X-40671384Y-7299098D01*
X-40727844Y-7275615D01*
G37*
G36*
X-39688530Y-7131146D02*
G01*
X-39688530Y-7135237D01*
X-39290963Y-7135237D01*
X-39290963Y-7315000D01*
X-39935825Y-7315000D01*
X-39935825Y-7146167D01*
X-39655007Y-6878293D01*
X-39578388Y-6798308D01*
X-39535817Y-6741823D01*
X-39516442Y-6703941D01*
X-39505090Y-6665496D01*
X-39501317Y-6625868D01*
X-39507616Y-6575377D01*
X-39524640Y-6539134D01*
X-39551695Y-6513379D01*
X-39590928Y-6496710D01*
X-39646825Y-6490436D01*
X-39707518Y-6496417D01*
X-39767427Y-6514568D01*
X-39827551Y-6545849D01*
X-39888687Y-6592041D01*
X-39888687Y-6402142D01*
X-39823050Y-6365674D01*
X-39753647Y-6339663D01*
X-39679734Y-6323869D01*
X-39600419Y-6318489D01*
X-39525127Y-6323831D01*
X-39462270Y-6338795D01*
X-39409713Y-6362304D01*
X-39365763Y-6394021D01*
X-39329267Y-6434504D01*
X-39303176Y-6481106D01*
X-39287036Y-6535038D01*
X-39281377Y-6598025D01*
X-39288250Y-6661146D01*
X-39309661Y-6726884D01*
X-39347686Y-6796623D01*
X-39405461Y-6871582D01*
X-39487029Y-6952787D01*
X-39688530Y-7131146D01*
G37*
D12*
G36*
X45383867Y-18324969D02*
G01*
X45440459Y-18340121D01*
X45484726Y-18363029D01*
X45518976Y-18392623D01*
X45544951Y-18428690D01*
X45563698Y-18471904D01*
X45575459Y-18523748D01*
X45579644Y-18586359D01*
X45576615Y-18636298D01*
X45567829Y-18681125D01*
X45553576Y-18722568D01*
X45534535Y-18759527D01*
X45510954Y-18791795D01*
X45482512Y-18819733D01*
X45450653Y-18842129D01*
X45414643Y-18859422D01*
X45414643Y-18862170D01*
X45430557Y-18870994D01*
X45446379Y-18884396D01*
X45476100Y-18920239D01*
X45503532Y-18964324D01*
X45527346Y-19010486D01*
X45666198Y-19300281D01*
X45476146Y-19300281D01*
X45361886Y-19048100D01*
X45337294Y-18996870D01*
X45313480Y-18958279D01*
X45288339Y-18933672D01*
X45274801Y-18927290D01*
X45259900Y-18925123D01*
X45215341Y-18925123D01*
X45215341Y-19300281D01*
X45049881Y-19300281D01*
X45049881Y-18758428D01*
X45215341Y-18758428D01*
X45287056Y-18758428D01*
X45321364Y-18753520D01*
X45349441Y-18739677D01*
X45372648Y-18717273D01*
X45390905Y-18687054D01*
X45401726Y-18652949D01*
X45405438Y-18613653D01*
X45400695Y-18566643D01*
X45387706Y-18532330D01*
X45366621Y-18507408D01*
X45335383Y-18490957D01*
X45290170Y-18484693D01*
X45215341Y-18484693D01*
X45215341Y-18758428D01*
X45049881Y-18758428D01*
X45049881Y-18319401D01*
X45312198Y-18319401D01*
X45383867Y-18324969D01*
G37*
G36*
X45734982Y-19273597D02*
G01*
X45734982Y-19089255D01*
X45786769Y-19124262D01*
X45839927Y-19144891D01*
X45895313Y-19151781D01*
X45936973Y-19146668D01*
X45969716Y-19132592D01*
X45995467Y-19110565D01*
X46015349Y-19080182D01*
X46027374Y-19043501D01*
X46031600Y-18998580D01*
X46027476Y-18954222D01*
X46015937Y-18919441D01*
X45997107Y-18891911D01*
X45969627Y-18870673D01*
X45930892Y-18856316D01*
X45877361Y-18850874D01*
X45824683Y-18853667D01*
X45755957Y-18863147D01*
X45755957Y-18319401D01*
X46162759Y-18319401D01*
X46162759Y-18499164D01*
X45894305Y-18499164D01*
X45894305Y-18690834D01*
X45955259Y-18686742D01*
X46011795Y-18692306D01*
X46059186Y-18707935D01*
X46099018Y-18732597D01*
X46132534Y-18766060D01*
X46160166Y-18808377D01*
X46179993Y-18857124D01*
X46192287Y-18913565D01*
X46196601Y-18979468D01*
X46191598Y-19051875D01*
X46177175Y-19115337D01*
X46153588Y-19171600D01*
X46120260Y-19221879D01*
X46080282Y-19261763D01*
X46033405Y-19290986D01*
X45978302Y-19309393D01*
X45913265Y-19315912D01*
X45842992Y-19310701D01*
X45784151Y-19296166D01*
X45734982Y-19273597D01*
G37*
D10*
G36*
X27434726Y-4329436D02*
G01*
X27434726Y-4855413D01*
X27962412Y-4855413D01*
X27962412Y-5131408D01*
X27434726Y-5131408D01*
X27434726Y-5660071D01*
X27157388Y-5660071D01*
X27157388Y-5131408D01*
X26625916Y-5131408D01*
X26625916Y-4855413D01*
X27157388Y-4855413D01*
X27157388Y-4329436D01*
X27434726Y-4329436D01*
G37*
G36*
X27451282Y728702D02*
G01*
X27451282Y-392189D01*
X27146467Y-392189D01*
X27146467Y728702D01*
X27451282Y728702D01*
G37*
D11*
G36*
X32156401Y-2308010D02*
G01*
X32149790Y-2407223D01*
X32131455Y-2488509D01*
X32103017Y-2554997D01*
X32065176Y-2609222D01*
X32026778Y-2645788D01*
X31982250Y-2674506D01*
X31930690Y-2695662D01*
X31870839Y-2708992D01*
X31801150Y-2713697D01*
X31726120Y-2706870D01*
X31658390Y-2686952D01*
X31658390Y-2479224D01*
X31698016Y-2503755D01*
X31740045Y-2518242D01*
X31785457Y-2523127D01*
X31830109Y-2517336D01*
X31865419Y-2501024D01*
X31893681Y-2474113D01*
X31915721Y-2434377D01*
X31930740Y-2377814D01*
X31936460Y-2299095D01*
X31936460Y-1717186D01*
X32156401Y-1717186D01*
X32156401Y-2308010D01*
G37*
G36*
X32326089Y-2658681D02*
G01*
X32326089Y-2438557D01*
X32388478Y-2483253D01*
X32455171Y-2514761D01*
X32525598Y-2533880D01*
X32595916Y-2540162D01*
X32636239Y-2538167D01*
X32668700Y-2532713D01*
X32698079Y-2523404D01*
X32720602Y-2511891D01*
X32739124Y-2497059D01*
X32751682Y-2480567D01*
X32759365Y-2461770D01*
X32761940Y-2441366D01*
X32757806Y-2414170D01*
X32745515Y-2390197D01*
X32726728Y-2369067D01*
X32700757Y-2348554D01*
X32633468Y-2311734D01*
X32549510Y-2275525D01*
X32475673Y-2239131D01*
X32419643Y-2200152D01*
X32378357Y-2158838D01*
X32347325Y-2110279D01*
X32328510Y-2055353D01*
X32321998Y-1992326D01*
X32325654Y-1942133D01*
X32336063Y-1898702D01*
X32352711Y-1860923D01*
X32388967Y-1810903D01*
X32436425Y-1770492D01*
X32492664Y-1740080D01*
X32559035Y-1718285D01*
X32630010Y-1705824D01*
X32706619Y-1701555D01*
X32780973Y-1703997D01*
X32842174Y-1710714D01*
X32899752Y-1722532D01*
X32951167Y-1738863D01*
X32951167Y-1941523D01*
X32897495Y-1912336D01*
X32837716Y-1891392D01*
X32776595Y-1879119D01*
X32718892Y-1875089D01*
X32682277Y-1876955D01*
X32650565Y-1882233D01*
X32621435Y-1891139D01*
X32598664Y-1902322D01*
X32579578Y-1916830D01*
X32565874Y-1933341D01*
X32557206Y-1952400D01*
X32554273Y-1973885D01*
X32557548Y-1997297D01*
X32567218Y-2017910D01*
X32582389Y-2036270D01*
X32604098Y-2054730D01*
X32662167Y-2088863D01*
X32739409Y-2123362D01*
X32796256Y-2149232D01*
X32844922Y-2175569D01*
X32889002Y-2205429D01*
X32925216Y-2237973D01*
X32954763Y-2275278D01*
X32976446Y-2317535D01*
X32989533Y-2364511D01*
X32994215Y-2421583D01*
X32990443Y-2475447D01*
X32979842Y-2520807D01*
X32963135Y-2559091D01*
X32926481Y-2609455D01*
X32878749Y-2649217D01*
X32822142Y-2678399D01*
X32754796Y-2698676D01*
X32682885Y-2709864D01*
X32605503Y-2713697D01*
X32526057Y-2710175D01*
X32452118Y-2699897D01*
X32382549Y-2682164D01*
X32326089Y-2658681D01*
G37*
G36*
X33843631Y-1896827D02*
G01*
X33564217Y-1896827D01*
X33564217Y-2698066D01*
X33342872Y-2698066D01*
X33342872Y-1896827D01*
X33064862Y-1896827D01*
X33064862Y-1717186D01*
X33843631Y-1717186D01*
X33843631Y-1896827D01*
G37*
D12*
G36*
X49133867Y-18324969D02*
G01*
X49190459Y-18340121D01*
X49234726Y-18363029D01*
X49268976Y-18392623D01*
X49294951Y-18428690D01*
X49313698Y-18471904D01*
X49325459Y-18523748D01*
X49329644Y-18586359D01*
X49326615Y-18636298D01*
X49317829Y-18681125D01*
X49303576Y-18722568D01*
X49284535Y-18759527D01*
X49260954Y-18791795D01*
X49232512Y-18819733D01*
X49200653Y-18842129D01*
X49164643Y-18859422D01*
X49164643Y-18862170D01*
X49180557Y-18870994D01*
X49196379Y-18884396D01*
X49226100Y-18920239D01*
X49253532Y-18964324D01*
X49277346Y-19010486D01*
X49416198Y-19300281D01*
X49226146Y-19300281D01*
X49111886Y-19048100D01*
X49087294Y-18996870D01*
X49063480Y-18958279D01*
X49038339Y-18933672D01*
X49024801Y-18927290D01*
X49009900Y-18925123D01*
X48965341Y-18925123D01*
X48965341Y-19300281D01*
X48799881Y-19300281D01*
X48799881Y-18758428D01*
X48965341Y-18758428D01*
X49037056Y-18758428D01*
X49071364Y-18753520D01*
X49099441Y-18739677D01*
X49122648Y-18717273D01*
X49140905Y-18687054D01*
X49151726Y-18652949D01*
X49155438Y-18613653D01*
X49150695Y-18566643D01*
X49137706Y-18532330D01*
X49116621Y-18507408D01*
X49085383Y-18490957D01*
X49040170Y-18484693D01*
X48965341Y-18484693D01*
X48965341Y-18758428D01*
X48799881Y-18758428D01*
X48799881Y-18319401D01*
X49062198Y-18319401D01*
X49133867Y-18324969D01*
G37*
G36*
X49842050Y-18307387D02*
G01*
X49885206Y-18317014D01*
X49917384Y-18331125D01*
X49917384Y-18510888D01*
X49879090Y-18487039D01*
X49838649Y-18472741D01*
X49795430Y-18467901D01*
X49756075Y-18473294D01*
X49721697Y-18488888D01*
X49691228Y-18514618D01*
X49663997Y-18551493D01*
X49642904Y-18594579D01*
X49626976Y-18645290D01*
X49616469Y-18704990D01*
X49612019Y-18775342D01*
X49615088Y-18775342D01*
X49644536Y-18729711D01*
X49679263Y-18697687D01*
X49720288Y-18678024D01*
X49769327Y-18671111D01*
X49814413Y-18676658D01*
X49853042Y-18692498D01*
X49886467Y-18718170D01*
X49915552Y-18754215D01*
X49938522Y-18797466D01*
X49955342Y-18847615D01*
X49965908Y-18905948D01*
X49969637Y-18974094D01*
X49964938Y-19046139D01*
X49951360Y-19109942D01*
X49929164Y-19167049D01*
X49897921Y-19218581D01*
X49859839Y-19260973D01*
X49817388Y-19291082D01*
X49769689Y-19309520D01*
X49715517Y-19315912D01*
X49666500Y-19310790D01*
X49623530Y-19296096D01*
X49585576Y-19272353D01*
X49551848Y-19239413D01*
X49521848Y-19196477D01*
X49493011Y-19135173D01*
X49471260Y-19060707D01*
X49458558Y-18978979D01*
X49617148Y-18978979D01*
X49620299Y-19025463D01*
X49629337Y-19065777D01*
X49644030Y-19101100D01*
X49664306Y-19129629D01*
X49687749Y-19146140D01*
X49715517Y-19151781D01*
X49742889Y-19146643D01*
X49765726Y-19131771D01*
X49785172Y-19106535D01*
X49799261Y-19074662D01*
X49808145Y-19035893D01*
X49811321Y-18988505D01*
X49806573Y-18926596D01*
X49794133Y-18883958D01*
X49775361Y-18855306D01*
X49749634Y-18837732D01*
X49714510Y-18831334D01*
X49686217Y-18836159D01*
X49662955Y-18849944D01*
X49643527Y-18872856D01*
X49629166Y-18902258D01*
X49620283Y-18937153D01*
X49617148Y-18978979D01*
X49458558Y-18978979D01*
X49457237Y-18970482D01*
X49452193Y-18861376D01*
X49456263Y-18757828D01*
X49467848Y-18667018D01*
X49486218Y-18587300D01*
X49510932Y-18517234D01*
X49541861Y-18455628D01*
X49580470Y-18400744D01*
X49623368Y-18358811D01*
X49671129Y-18328727D01*
X49724675Y-18310200D01*
X49785218Y-18303770D01*
X49842050Y-18307387D01*
G37*
G36*
X-49741133Y-22324969D02*
G01*
X-49684541Y-22340121D01*
X-49640274Y-22363029D01*
X-49606024Y-22392623D01*
X-49580049Y-22428690D01*
X-49561302Y-22471904D01*
X-49549541Y-22523748D01*
X-49545356Y-22586359D01*
X-49548385Y-22636298D01*
X-49557171Y-22681125D01*
X-49571424Y-22722568D01*
X-49590465Y-22759527D01*
X-49614046Y-22791795D01*
X-49642488Y-22819733D01*
X-49674347Y-22842129D01*
X-49710357Y-22859422D01*
X-49710357Y-22862170D01*
X-49694443Y-22870994D01*
X-49678621Y-22884396D01*
X-49648900Y-22920239D01*
X-49621468Y-22964324D01*
X-49597654Y-23010486D01*
X-49458802Y-23300281D01*
X-49648854Y-23300281D01*
X-49763114Y-23048100D01*
X-49787706Y-22996870D01*
X-49811520Y-22958279D01*
X-49836661Y-22933672D01*
X-49850199Y-22927290D01*
X-49865100Y-22925123D01*
X-49909659Y-22925123D01*
X-49909659Y-23300281D01*
X-50075119Y-23300281D01*
X-50075119Y-22758428D01*
X-49909659Y-22758428D01*
X-49837944Y-22758428D01*
X-49803636Y-22753520D01*
X-49775559Y-22739677D01*
X-49752352Y-22717273D01*
X-49734095Y-22687054D01*
X-49723274Y-22652949D01*
X-49719562Y-22613653D01*
X-49724305Y-22566643D01*
X-49737294Y-22532330D01*
X-49758379Y-22507408D01*
X-49789617Y-22490957D01*
X-49834830Y-22484693D01*
X-49909659Y-22484693D01*
X-49909659Y-22758428D01*
X-50075119Y-22758428D01*
X-50075119Y-22319401D01*
X-49812802Y-22319401D01*
X-49741133Y-22324969D01*
G37*
G36*
X-48986284Y-22936847D02*
G01*
X-48898173Y-22936847D01*
X-48898173Y-23089255D01*
X-48986284Y-23089255D01*
X-48986284Y-23300281D01*
X-49133837Y-23300281D01*
X-49133837Y-23089255D01*
X-49454085Y-23089255D01*
X-49454085Y-22953211D01*
X-49446122Y-22936847D01*
X-49319859Y-22936847D01*
X-49133837Y-22936847D01*
X-49133837Y-22628124D01*
X-49131822Y-22534335D01*
X-49134891Y-22534335D01*
X-49162551Y-22611027D01*
X-49319859Y-22936847D01*
X-49446122Y-22936847D01*
X-49145653Y-22319401D01*
X-48986284Y-22319401D01*
X-48986284Y-22936847D01*
G37*
G36*
X22001511Y-30789406D02*
G01*
X21996892Y-30890789D01*
X21984077Y-30974268D01*
X21964255Y-31042807D01*
X21938062Y-31098883D01*
X21905536Y-31144364D01*
X21866114Y-31180390D01*
X21818681Y-31207273D01*
X21761654Y-31224472D01*
X21693078Y-31230631D01*
X21626669Y-31224636D01*
X21571417Y-31207891D01*
X21525430Y-31181703D01*
X21487180Y-31146583D01*
X21455595Y-31102209D01*
X21430139Y-31047453D01*
X21410861Y-30980476D01*
X21398392Y-30898847D01*
X21393896Y-30799665D01*
X21393896Y-30234120D01*
X21559859Y-30234120D01*
X21559859Y-30802351D01*
X21564804Y-30883473D01*
X21577932Y-30942732D01*
X21597569Y-30985336D01*
X21623397Y-31014989D01*
X21656512Y-31033416D01*
X21699215Y-31040061D01*
X21741297Y-31033591D01*
X21773860Y-31015678D01*
X21799185Y-30986932D01*
X21818383Y-30945758D01*
X21831189Y-30888639D01*
X21836006Y-30810594D01*
X21836006Y-30234120D01*
X22001511Y-30234120D01*
X22001511Y-30789406D01*
G37*
G36*
X22318966Y-31031146D02*
G01*
X22318966Y-31035237D01*
X22617141Y-31035237D01*
X22617141Y-31215000D01*
X22133494Y-31215000D01*
X22133494Y-31046167D01*
X22344108Y-30778293D01*
X22401572Y-30698308D01*
X22433501Y-30641823D01*
X22448032Y-30603941D01*
X22456546Y-30565496D01*
X22459375Y-30525868D01*
X22454651Y-30475377D01*
X22441883Y-30439134D01*
X22421592Y-30413379D01*
X22392167Y-30396710D01*
X22350244Y-30390436D01*
X22304725Y-30396417D01*
X22259793Y-30414568D01*
X22214700Y-30445849D01*
X22168848Y-30492041D01*
X22168848Y-30302142D01*
X22218076Y-30265674D01*
X22270128Y-30239663D01*
X22325563Y-30223869D01*
X22385049Y-30218489D01*
X22441518Y-30223831D01*
X22488661Y-30238795D01*
X22528078Y-30262304D01*
X22561041Y-30294021D01*
X22588413Y-30334504D01*
X22607981Y-30381106D01*
X22620086Y-30435038D01*
X22624331Y-30498025D01*
X22619176Y-30561146D01*
X22603117Y-30626884D01*
X22574599Y-30696623D01*
X22531267Y-30771582D01*
X22470091Y-30852787D01*
X22318966Y-31031146D01*
G37*
G36*
X17481316Y-31028607D02*
G01*
X17426271Y-31056033D01*
X17357247Y-31074050D01*
X17271252Y-31080631D01*
X17203182Y-31074749D01*
X17143716Y-31057974D01*
X17091577Y-31031196D01*
X17045706Y-30994719D01*
X17005317Y-30948251D01*
X16971210Y-30893193D01*
X16944494Y-30831466D01*
X16924949Y-30762130D01*
X16912760Y-30683936D01*
X16908505Y-30595382D01*
X16913208Y-30501615D01*
X16926749Y-30418020D01*
X16948601Y-30343084D01*
X16978681Y-30275564D01*
X17017361Y-30214546D01*
X17062951Y-30162506D01*
X17113227Y-30122132D01*
X17168849Y-30092868D01*
X17230725Y-30074767D01*
X17299965Y-30068489D01*
X17371500Y-30072996D01*
X17431385Y-30085536D01*
X17481316Y-30104881D01*
X17481316Y-30318593D01*
X17430470Y-30285455D01*
X17374820Y-30265307D01*
X17313246Y-30258387D01*
X17262378Y-30264189D01*
X17218366Y-30280782D01*
X17179955Y-30307613D01*
X17146230Y-30345033D01*
X17119140Y-30390703D01*
X17099429Y-30443975D01*
X17087074Y-30506321D01*
X17082711Y-30579689D01*
X17086826Y-30650085D01*
X17098487Y-30710114D01*
X17117099Y-30761579D01*
X17142658Y-30805858D01*
X17174550Y-30842088D01*
X17211374Y-30868163D01*
X17254093Y-30884367D01*
X17304041Y-30890061D01*
X17367303Y-30882891D01*
X17426068Y-30861770D01*
X17481316Y-30826618D01*
X17481316Y-31028607D01*
G37*
G36*
X17886782Y-30073295D02*
G01*
X17933225Y-30086826D01*
X17972676Y-30108145D01*
X18006224Y-30136877D01*
X18035110Y-30174201D01*
X18055119Y-30215412D01*
X18067159Y-30261354D01*
X18071300Y-30313403D01*
X18065954Y-30372789D01*
X18050380Y-30424618D01*
X18024205Y-30470766D01*
X17985694Y-30512185D01*
X17931944Y-30548792D01*
X17931944Y-30551540D01*
X17979483Y-30576323D01*
X18017667Y-30608639D01*
X18047944Y-30648382D01*
X18071047Y-30695667D01*
X18084632Y-30745790D01*
X18089206Y-30799996D01*
X18084472Y-30863098D01*
X18070901Y-30917234D01*
X18048724Y-30964254D01*
X18017215Y-31005343D01*
X17980221Y-31036574D01*
X17935444Y-31060077D01*
X17881359Y-31075199D01*
X17816127Y-31080631D01*
X17760296Y-31075528D01*
X17712481Y-31061083D01*
X17671398Y-31038169D01*
X17636013Y-31007053D01*
X17605944Y-30967031D01*
X17584885Y-30922014D01*
X17572080Y-30870980D01*
X17567640Y-30812330D01*
X17568286Y-30803415D01*
X17720826Y-30803415D01*
X17724359Y-30837545D01*
X17734693Y-30866947D01*
X17752334Y-30892869D01*
X17774588Y-30912339D01*
X17799850Y-30924137D01*
X17828950Y-30928224D01*
X17860444Y-30924049D01*
X17886174Y-30912328D01*
X17907352Y-30893541D01*
X17923778Y-30868138D01*
X17933636Y-30838110D01*
X17937073Y-30802011D01*
X17932936Y-30760759D01*
X17920761Y-30724462D01*
X17899916Y-30691727D01*
X17868552Y-30661988D01*
X17823821Y-30635560D01*
X17783779Y-30662237D01*
X17755284Y-30692106D01*
X17736062Y-30725055D01*
X17724705Y-30761720D01*
X17720826Y-30803415D01*
X17568286Y-30803415D01*
X17571662Y-30756865D01*
X17583337Y-30707626D01*
X17602616Y-30663300D01*
X17630150Y-30623005D01*
X17667240Y-30586369D01*
X17715743Y-30553555D01*
X17715743Y-30550136D01*
X17667661Y-30516931D01*
X17632892Y-30478581D01*
X17609004Y-30435070D01*
X17594639Y-30385396D01*
X17590031Y-30331905D01*
X17742900Y-30331905D01*
X17747927Y-30373208D01*
X17762929Y-30409298D01*
X17789457Y-30441807D01*
X17831010Y-30470940D01*
X17872573Y-30441136D01*
X17899112Y-30408179D01*
X17914106Y-30371836D01*
X17919121Y-30330500D01*
X17916312Y-30298535D01*
X17908349Y-30272374D01*
X17895307Y-30250694D01*
X17878218Y-30234503D01*
X17857460Y-30224463D01*
X17832018Y-30220896D01*
X17807321Y-30224528D01*
X17786329Y-30234947D01*
X17768225Y-30252098D01*
X17754196Y-30274717D01*
X17745807Y-30300941D01*
X17742900Y-30331905D01*
X17590031Y-30331905D01*
X17589668Y-30327691D01*
X17593957Y-30273329D01*
X17606456Y-30225032D01*
X17627261Y-30181423D01*
X17657308Y-30141639D01*
X17692349Y-30110523D01*
X17732498Y-30087758D01*
X17778672Y-30073500D01*
X17832018Y-30068489D01*
X17886782Y-30073295D01*
G37*
G36*
X-53741133Y-22324969D02*
G01*
X-53684541Y-22340121D01*
X-53640274Y-22363029D01*
X-53606024Y-22392623D01*
X-53580049Y-22428690D01*
X-53561302Y-22471904D01*
X-53549541Y-22523748D01*
X-53545356Y-22586359D01*
X-53548385Y-22636298D01*
X-53557171Y-22681125D01*
X-53571424Y-22722568D01*
X-53590465Y-22759527D01*
X-53614046Y-22791795D01*
X-53642488Y-22819733D01*
X-53674347Y-22842129D01*
X-53710357Y-22859422D01*
X-53710357Y-22862170D01*
X-53694443Y-22870994D01*
X-53678621Y-22884396D01*
X-53648900Y-22920239D01*
X-53621468Y-22964324D01*
X-53597654Y-23010486D01*
X-53458802Y-23300281D01*
X-53648854Y-23300281D01*
X-53763114Y-23048100D01*
X-53787706Y-22996870D01*
X-53811520Y-22958279D01*
X-53836661Y-22933672D01*
X-53850199Y-22927290D01*
X-53865100Y-22925123D01*
X-53909659Y-22925123D01*
X-53909659Y-23300281D01*
X-54075119Y-23300281D01*
X-54075119Y-22758428D01*
X-53909659Y-22758428D01*
X-53837944Y-22758428D01*
X-53803636Y-22753520D01*
X-53775559Y-22739677D01*
X-53752352Y-22717273D01*
X-53734095Y-22687054D01*
X-53723274Y-22652949D01*
X-53719562Y-22613653D01*
X-53724305Y-22566643D01*
X-53737294Y-22532330D01*
X-53758379Y-22507408D01*
X-53789617Y-22490957D01*
X-53834830Y-22484693D01*
X-53909659Y-22484693D01*
X-53909659Y-22758428D01*
X-54075119Y-22758428D01*
X-54075119Y-22319401D01*
X-53812802Y-22319401D01*
X-53741133Y-22324969D01*
G37*
G36*
X-52922262Y-23300281D02*
G01*
X-53386949Y-23300281D01*
X-53386949Y-23128334D01*
X-53234771Y-23128334D01*
X-53234771Y-22518703D01*
X-53391071Y-22565598D01*
X-53391071Y-22389743D01*
X-53073387Y-22303770D01*
X-53073387Y-23128334D01*
X-52922262Y-23128334D01*
X-52922262Y-23300281D01*
G37*
D11*
G36*
X-40727844Y-23275615D02*
G01*
X-40727844Y-23055491D01*
X-40665455Y-23100187D01*
X-40598762Y-23131695D01*
X-40528334Y-23150814D01*
X-40458017Y-23157096D01*
X-40417694Y-23155101D01*
X-40385232Y-23149647D01*
X-40355854Y-23140338D01*
X-40333331Y-23128825D01*
X-40314809Y-23113993D01*
X-40302251Y-23097501D01*
X-40294568Y-23078704D01*
X-40291993Y-23058300D01*
X-40296126Y-23031104D01*
X-40308418Y-23007131D01*
X-40327205Y-22986001D01*
X-40353175Y-22965488D01*
X-40420464Y-22928668D01*
X-40504423Y-22892459D01*
X-40578260Y-22856065D01*
X-40634290Y-22817086D01*
X-40675576Y-22775772D01*
X-40706608Y-22727213D01*
X-40725423Y-22672287D01*
X-40731935Y-22609260D01*
X-40728279Y-22559067D01*
X-40717870Y-22515636D01*
X-40701221Y-22477857D01*
X-40664966Y-22427837D01*
X-40617507Y-22387426D01*
X-40561269Y-22357014D01*
X-40494897Y-22335219D01*
X-40423923Y-22322758D01*
X-40347314Y-22318489D01*
X-40272960Y-22320931D01*
X-40211759Y-22327648D01*
X-40154181Y-22339466D01*
X-40102765Y-22355797D01*
X-40102765Y-22558457D01*
X-40156438Y-22529270D01*
X-40216216Y-22508326D01*
X-40277338Y-22496053D01*
X-40335040Y-22492023D01*
X-40371656Y-22493889D01*
X-40403367Y-22499167D01*
X-40432498Y-22508073D01*
X-40455269Y-22519256D01*
X-40474355Y-22533764D01*
X-40488059Y-22550275D01*
X-40496727Y-22569334D01*
X-40499660Y-22590819D01*
X-40496385Y-22614231D01*
X-40486715Y-22634844D01*
X-40471544Y-22653204D01*
X-40449835Y-22671664D01*
X-40391766Y-22705797D01*
X-40314524Y-22740296D01*
X-40257677Y-22766166D01*
X-40209011Y-22792503D01*
X-40164931Y-22822363D01*
X-40128716Y-22854907D01*
X-40099170Y-22892212D01*
X-40077486Y-22934469D01*
X-40064400Y-22981445D01*
X-40059718Y-23038517D01*
X-40063490Y-23092381D01*
X-40074091Y-23137741D01*
X-40090798Y-23176025D01*
X-40127452Y-23226389D01*
X-40175183Y-23266151D01*
X-40231791Y-23295333D01*
X-40299137Y-23315610D01*
X-40371048Y-23326798D01*
X-40448430Y-23330631D01*
X-40527875Y-23327109D01*
X-40601815Y-23316831D01*
X-40671384Y-23299098D01*
X-40727844Y-23275615D01*
G37*
G36*
X-39359901Y-22951566D02*
G01*
X-39242420Y-22951566D01*
X-39242420Y-23103974D01*
X-39359901Y-23103974D01*
X-39359901Y-23315000D01*
X-39556638Y-23315000D01*
X-39556638Y-23103974D01*
X-39983636Y-23103974D01*
X-39983636Y-22967930D01*
X-39973018Y-22951566D01*
X-39804667Y-22951566D01*
X-39556638Y-22951566D01*
X-39556638Y-22642843D01*
X-39553952Y-22549054D01*
X-39558043Y-22549054D01*
X-39594924Y-22625746D01*
X-39804667Y-22951566D01*
X-39973018Y-22951566D01*
X-39572392Y-22334120D01*
X-39359901Y-22334120D01*
X-39359901Y-22951566D01*
G37*
D13*
G36*
X-1431263Y-30775615D02*
G01*
X-1431263Y-30555491D01*
X-1368874Y-30600187D01*
X-1302181Y-30631695D01*
X-1231753Y-30650814D01*
X-1161436Y-30657096D01*
X-1121113Y-30655101D01*
X-1088651Y-30649647D01*
X-1059273Y-30640338D01*
X-1036750Y-30628825D01*
X-1018228Y-30613993D01*
X-1005670Y-30597501D01*
X-997987Y-30578704D01*
X-995412Y-30558300D01*
X-999545Y-30531104D01*
X-1011837Y-30507131D01*
X-1030624Y-30486001D01*
X-1056594Y-30465488D01*
X-1123883Y-30428668D01*
X-1207842Y-30392459D01*
X-1281679Y-30356065D01*
X-1337709Y-30317086D01*
X-1378995Y-30275772D01*
X-1410027Y-30227213D01*
X-1428842Y-30172287D01*
X-1435354Y-30109260D01*
X-1431698Y-30059067D01*
X-1421289Y-30015636D01*
X-1404640Y-29977857D01*
X-1368385Y-29927837D01*
X-1320926Y-29887426D01*
X-1264688Y-29857014D01*
X-1198316Y-29835219D01*
X-1127342Y-29822758D01*
X-1050733Y-29818489D01*
X-976379Y-29820931D01*
X-915178Y-29827648D01*
X-857600Y-29839466D01*
X-806184Y-29855797D01*
X-806184Y-30058457D01*
X-859857Y-30029270D01*
X-919635Y-30008326D01*
X-980757Y-29996053D01*
X-1038459Y-29992023D01*
X-1075075Y-29993889D01*
X-1106786Y-29999167D01*
X-1135917Y-30008073D01*
X-1158688Y-30019256D01*
X-1177774Y-30033764D01*
X-1191478Y-30050275D01*
X-1200146Y-30069334D01*
X-1203079Y-30090819D01*
X-1199804Y-30114231D01*
X-1190134Y-30134844D01*
X-1174963Y-30153204D01*
X-1153254Y-30171664D01*
X-1095185Y-30205797D01*
X-1017943Y-30240296D01*
X-961096Y-30266166D01*
X-912430Y-30292503D01*
X-868350Y-30322363D01*
X-832135Y-30354907D01*
X-802589Y-30392212D01*
X-780905Y-30434469D01*
X-767819Y-30481445D01*
X-763137Y-30538517D01*
X-766909Y-30592381D01*
X-777510Y-30637741D01*
X-794217Y-30676025D01*
X-830871Y-30726389D01*
X-878602Y-30766151D01*
X-935210Y-30795333D01*
X-1002556Y-30815610D01*
X-1074467Y-30826798D01*
X-1151849Y-30830631D01*
X-1231294Y-30827109D01*
X-1305234Y-30816831D01*
X-1374803Y-30799098D01*
X-1431263Y-30775615D01*
G37*
G36*
X679911Y-29834120D02*
G01*
X421014Y-30815000D01*
X176405Y-30815000D01*
X13861Y-30185708D01*
X3603Y-30134805D01*
X-1893Y-30075554D01*
X-4579Y-30075554D01*
X-12581Y-30139524D01*
X-22348Y-30185708D01*
X-189044Y-30815000D01*
X-443850Y-30815000D01*
X-701404Y-29834120D01*
X-460276Y-29834120D01*
X-322278Y-30487348D01*
X-314987Y-30532709D01*
X-309272Y-30599516D01*
X-305181Y-30599516D01*
X-299121Y-30545991D01*
X-285398Y-30484600D01*
X-107772Y-29834120D01*
X128594Y-29834120D01*
X289123Y-30492843D01*
X304876Y-30598173D01*
X307624Y-30598173D01*
X312516Y-30544096D01*
X321973Y-30488752D01*
X457223Y-29834120D01*
X679911Y-29834120D01*
G37*
G36*
X1428882Y-30815000D02*
G01*
X809299Y-30815000D01*
X809299Y-30643053D01*
X1012204Y-30643053D01*
X1012204Y-30033422D01*
X803803Y-30080317D01*
X803803Y-29904462D01*
X1227381Y-29818489D01*
X1227381Y-30643053D01*
X1428882Y-30643053D01*
X1428882Y-30815000D01*
G37*
D12*
G36*
X-49616133Y-6324969D02*
G01*
X-49559541Y-6340121D01*
X-49515274Y-6363029D01*
X-49481024Y-6392623D01*
X-49455049Y-6428690D01*
X-49436302Y-6471904D01*
X-49424541Y-6523748D01*
X-49420356Y-6586359D01*
X-49423385Y-6636298D01*
X-49432171Y-6681125D01*
X-49446424Y-6722568D01*
X-49465465Y-6759527D01*
X-49489046Y-6791795D01*
X-49517488Y-6819733D01*
X-49549347Y-6842129D01*
X-49585357Y-6859422D01*
X-49585357Y-6862170D01*
X-49569443Y-6870994D01*
X-49553621Y-6884396D01*
X-49523900Y-6920239D01*
X-49496468Y-6964324D01*
X-49472654Y-7010486D01*
X-49333802Y-7300281D01*
X-49523854Y-7300281D01*
X-49638114Y-7048100D01*
X-49662706Y-6996870D01*
X-49686520Y-6958279D01*
X-49711661Y-6933672D01*
X-49725199Y-6927290D01*
X-49740100Y-6925123D01*
X-49784659Y-6925123D01*
X-49784659Y-7300281D01*
X-49950119Y-7300281D01*
X-49950119Y-6758428D01*
X-49784659Y-6758428D01*
X-49712944Y-6758428D01*
X-49678636Y-6753520D01*
X-49650559Y-6739677D01*
X-49627352Y-6717273D01*
X-49609095Y-6687054D01*
X-49598274Y-6652949D01*
X-49594562Y-6613653D01*
X-49599305Y-6566643D01*
X-49612294Y-6532330D01*
X-49633379Y-6507408D01*
X-49664617Y-6490957D01*
X-49709830Y-6484693D01*
X-49784659Y-6484693D01*
X-49784659Y-6758428D01*
X-49950119Y-6758428D01*
X-49950119Y-6319401D01*
X-49687802Y-6319401D01*
X-49616133Y-6324969D01*
G37*
G36*
X-49273719Y-7267247D02*
G01*
X-49273719Y-7081439D01*
X-49235663Y-7111969D01*
X-49194670Y-7133836D01*
X-49150195Y-7147196D01*
X-49101573Y-7151781D01*
X-49061014Y-7147266D01*
X-49029460Y-7134943D01*
X-49004990Y-7115938D01*
X-48985912Y-7089163D01*
X-48974445Y-7056490D01*
X-48970415Y-7016043D01*
X-48975230Y-6975078D01*
X-48989175Y-6941736D01*
X-49013188Y-6914071D01*
X-49042948Y-6895219D01*
X-49081417Y-6882803D01*
X-49130791Y-6878229D01*
X-49196874Y-6878229D01*
X-49196874Y-6714098D01*
X-49135920Y-6714098D01*
X-49085346Y-6709259D01*
X-49049071Y-6696570D01*
X-49023652Y-6677986D01*
X-49006490Y-6654225D01*
X-48996118Y-6624624D01*
X-48992442Y-6587275D01*
X-48996903Y-6544063D01*
X-49009171Y-6512359D01*
X-49029217Y-6489176D01*
X-49059110Y-6473783D01*
X-49102581Y-6467901D01*
X-49150421Y-6474594D01*
X-49197957Y-6495002D01*
X-49246058Y-6530427D01*
X-49246058Y-6355366D01*
X-49193193Y-6327327D01*
X-49133488Y-6309865D01*
X-49065715Y-6303770D01*
X-49008848Y-6308620D01*
X-48961680Y-6322133D01*
X-48922599Y-6343166D01*
X-48890273Y-6371181D01*
X-48862513Y-6407882D01*
X-48843190Y-6448633D01*
X-48831514Y-6494297D01*
X-48827487Y-6546242D01*
X-48831821Y-6607930D01*
X-48844005Y-6658784D01*
X-48863481Y-6701002D01*
X-48890609Y-6736051D01*
X-48926630Y-6764504D01*
X-48973529Y-6785966D01*
X-48973529Y-6789386D01*
X-48923629Y-6804288D01*
X-48883230Y-6829615D01*
X-48850568Y-6864979D01*
X-48825561Y-6909696D01*
X-48810608Y-6960256D01*
X-48805459Y-7018485D01*
X-48810418Y-7085233D01*
X-48824634Y-7142547D01*
X-48847849Y-7192361D01*
X-48880793Y-7235923D01*
X-48919570Y-7269254D01*
X-48966104Y-7294208D01*
X-49021892Y-7310191D01*
X-49088750Y-7315912D01*
X-49164050Y-7309798D01*
X-49224852Y-7292991D01*
X-49273719Y-7267247D01*
G37*
D11*
G36*
X-32727844Y-15275615D02*
G01*
X-32727844Y-15055491D01*
X-32665455Y-15100187D01*
X-32598762Y-15131695D01*
X-32528334Y-15150814D01*
X-32458017Y-15157096D01*
X-32417694Y-15155101D01*
X-32385232Y-15149647D01*
X-32355854Y-15140338D01*
X-32333331Y-15128825D01*
X-32314809Y-15113993D01*
X-32302251Y-15097501D01*
X-32294568Y-15078704D01*
X-32291993Y-15058300D01*
X-32296126Y-15031104D01*
X-32308418Y-15007131D01*
X-32327205Y-14986001D01*
X-32353175Y-14965488D01*
X-32420464Y-14928668D01*
X-32504423Y-14892459D01*
X-32578260Y-14856065D01*
X-32634290Y-14817086D01*
X-32675576Y-14775772D01*
X-32706608Y-14727213D01*
X-32725423Y-14672287D01*
X-32731935Y-14609260D01*
X-32728279Y-14559067D01*
X-32717870Y-14515636D01*
X-32701221Y-14477857D01*
X-32664966Y-14427837D01*
X-32617507Y-14387426D01*
X-32561269Y-14357014D01*
X-32494897Y-14335219D01*
X-32423923Y-14322758D01*
X-32347314Y-14318489D01*
X-32272960Y-14320931D01*
X-32211759Y-14327648D01*
X-32154181Y-14339466D01*
X-32102765Y-14355797D01*
X-32102765Y-14558457D01*
X-32156438Y-14529270D01*
X-32216216Y-14508326D01*
X-32277338Y-14496053D01*
X-32335040Y-14492023D01*
X-32371656Y-14493889D01*
X-32403367Y-14499167D01*
X-32432498Y-14508073D01*
X-32455269Y-14519256D01*
X-32474355Y-14533764D01*
X-32488059Y-14550275D01*
X-32496727Y-14569334D01*
X-32499660Y-14590819D01*
X-32496385Y-14614231D01*
X-32486715Y-14634844D01*
X-32471544Y-14653204D01*
X-32449835Y-14671664D01*
X-32391766Y-14705797D01*
X-32314524Y-14740296D01*
X-32257677Y-14766166D01*
X-32209011Y-14792503D01*
X-32164931Y-14822363D01*
X-32128716Y-14854907D01*
X-32099170Y-14892212D01*
X-32077486Y-14934469D01*
X-32064400Y-14981445D01*
X-32059718Y-15038517D01*
X-32063490Y-15092381D01*
X-32074091Y-15137741D01*
X-32090798Y-15176025D01*
X-32127452Y-15226389D01*
X-32175183Y-15266151D01*
X-32231791Y-15295333D01*
X-32299137Y-15315610D01*
X-32371048Y-15326798D01*
X-32448430Y-15330631D01*
X-32527875Y-15327109D01*
X-32601815Y-15316831D01*
X-32671384Y-15299098D01*
X-32727844Y-15275615D01*
G37*
G36*
X-31909814Y-15281966D02*
G01*
X-31909814Y-15096158D01*
X-31859073Y-15126688D01*
X-31804415Y-15148555D01*
X-31745116Y-15161915D01*
X-31680286Y-15166500D01*
X-31626208Y-15161985D01*
X-31584135Y-15149662D01*
X-31551509Y-15130657D01*
X-31526071Y-15103882D01*
X-31510782Y-15071209D01*
X-31505409Y-15030762D01*
X-31511828Y-14989797D01*
X-31530422Y-14956455D01*
X-31562439Y-14928790D01*
X-31602119Y-14909938D01*
X-31653411Y-14897522D01*
X-31719243Y-14892948D01*
X-31807354Y-14892948D01*
X-31807354Y-14728817D01*
X-31726082Y-14728817D01*
X-31658650Y-14723978D01*
X-31610283Y-14711289D01*
X-31576391Y-14692705D01*
X-31553509Y-14668944D01*
X-31539680Y-14639343D01*
X-31534779Y-14601994D01*
X-31540726Y-14558782D01*
X-31557084Y-14527078D01*
X-31583811Y-14503895D01*
X-31623669Y-14488502D01*
X-31681630Y-14482620D01*
X-31745417Y-14489313D01*
X-31808797Y-14509721D01*
X-31872933Y-14545146D01*
X-31872933Y-14370085D01*
X-31802447Y-14342046D01*
X-31722839Y-14324584D01*
X-31632476Y-14318489D01*
X-31556652Y-14323339D01*
X-31493762Y-14336852D01*
X-31441653Y-14357885D01*
X-31398552Y-14385900D01*
X-31361539Y-14422601D01*
X-31335775Y-14463352D01*
X-31320207Y-14509016D01*
X-31314838Y-14560961D01*
X-31320617Y-14622649D01*
X-31336863Y-14673503D01*
X-31362830Y-14715721D01*
X-31399001Y-14750770D01*
X-31447028Y-14779223D01*
X-31509561Y-14800685D01*
X-31509561Y-14804105D01*
X-31443027Y-14819007D01*
X-31389162Y-14844334D01*
X-31345613Y-14879698D01*
X-31312270Y-14924415D01*
X-31292333Y-14974975D01*
X-31285468Y-15033204D01*
X-31292080Y-15099952D01*
X-31311034Y-15157266D01*
X-31341987Y-15207080D01*
X-31385913Y-15250642D01*
X-31437616Y-15283973D01*
X-31499661Y-15308927D01*
X-31574045Y-15324910D01*
X-31663189Y-15330631D01*
X-31763588Y-15324517D01*
X-31844659Y-15307710D01*
X-31909814Y-15281966D01*
G37*
D12*
G36*
X52773586Y2860312D02*
G01*
X52830178Y2845160D01*
X52874445Y2822252D01*
X52908695Y2792658D01*
X52934670Y2756591D01*
X52953417Y2713377D01*
X52965178Y2661533D01*
X52969363Y2598922D01*
X52966334Y2548983D01*
X52957548Y2504156D01*
X52943295Y2462713D01*
X52924254Y2425754D01*
X52900673Y2393486D01*
X52872231Y2365548D01*
X52840372Y2343152D01*
X52804362Y2325859D01*
X52804362Y2323111D01*
X52820276Y2314287D01*
X52836098Y2300885D01*
X52865819Y2265042D01*
X52893251Y2220957D01*
X52917065Y2174795D01*
X53055917Y1885000D01*
X52865865Y1885000D01*
X52751605Y2137181D01*
X52727013Y2188411D01*
X52703199Y2227002D01*
X52678058Y2251609D01*
X52664520Y2257991D01*
X52649619Y2260158D01*
X52605060Y2260158D01*
X52605060Y1885000D01*
X52439600Y1885000D01*
X52439600Y2426853D01*
X52605060Y2426853D01*
X52676775Y2426853D01*
X52711083Y2431761D01*
X52739160Y2445604D01*
X52762367Y2468008D01*
X52780624Y2498227D01*
X52791445Y2532332D01*
X52795157Y2571628D01*
X52790414Y2618638D01*
X52777425Y2652951D01*
X52756340Y2677873D01*
X52725102Y2694324D01*
X52679889Y2700588D01*
X52605060Y2700588D01*
X52605060Y2426853D01*
X52439600Y2426853D01*
X52439600Y2865880D01*
X52701917Y2865880D01*
X52773586Y2860312D01*
G37*
G36*
X53401803Y2876705D02*
G01*
X53448246Y2863174D01*
X53487697Y2841855D01*
X53521245Y2813123D01*
X53550131Y2775799D01*
X53570140Y2734588D01*
X53582180Y2688646D01*
X53586320Y2636597D01*
X53580974Y2577211D01*
X53565401Y2525382D01*
X53539226Y2479234D01*
X53500715Y2437815D01*
X53446965Y2401208D01*
X53446965Y2398460D01*
X53494504Y2373677D01*
X53532687Y2341361D01*
X53562965Y2301618D01*
X53586068Y2254333D01*
X53599653Y2204210D01*
X53604227Y2150004D01*
X53599493Y2086902D01*
X53585922Y2032766D01*
X53563745Y1985746D01*
X53532236Y1944657D01*
X53495242Y1913426D01*
X53450465Y1889923D01*
X53396380Y1874801D01*
X53331148Y1869369D01*
X53275317Y1874472D01*
X53227502Y1888917D01*
X53186419Y1911831D01*
X53151034Y1942947D01*
X53120965Y1982969D01*
X53099906Y2027986D01*
X53087101Y2079020D01*
X53082661Y2137670D01*
X53083307Y2146585D01*
X53235847Y2146585D01*
X53239380Y2112455D01*
X53249714Y2083053D01*
X53267355Y2057131D01*
X53289609Y2037661D01*
X53314871Y2025863D01*
X53343971Y2021776D01*
X53375465Y2025951D01*
X53401194Y2037672D01*
X53422372Y2056459D01*
X53438799Y2081862D01*
X53448657Y2111890D01*
X53452094Y2147989D01*
X53447957Y2189241D01*
X53435782Y2225538D01*
X53414937Y2258273D01*
X53383573Y2288012D01*
X53338841Y2314440D01*
X53298800Y2287763D01*
X53270305Y2257894D01*
X53251082Y2224945D01*
X53239726Y2188280D01*
X53235847Y2146585D01*
X53083307Y2146585D01*
X53086683Y2193135D01*
X53098358Y2242374D01*
X53117636Y2286700D01*
X53145171Y2326995D01*
X53182261Y2363631D01*
X53230764Y2396445D01*
X53230764Y2399864D01*
X53182682Y2433069D01*
X53147913Y2471419D01*
X53124024Y2514930D01*
X53109660Y2564604D01*
X53105052Y2618095D01*
X53257921Y2618095D01*
X53262948Y2576792D01*
X53277950Y2540702D01*
X53304478Y2508193D01*
X53346031Y2479060D01*
X53387594Y2508864D01*
X53414132Y2541821D01*
X53429127Y2578164D01*
X53434142Y2619500D01*
X53431333Y2651465D01*
X53423370Y2677626D01*
X53410328Y2699306D01*
X53393239Y2715497D01*
X53372481Y2725537D01*
X53347039Y2729104D01*
X53322342Y2725472D01*
X53301350Y2715053D01*
X53283246Y2697902D01*
X53269217Y2675283D01*
X53260828Y2649059D01*
X53257921Y2618095D01*
X53105052Y2618095D01*
X53104689Y2622309D01*
X53108978Y2676671D01*
X53121477Y2724968D01*
X53142282Y2768577D01*
X53172329Y2808361D01*
X53207370Y2839477D01*
X53247518Y2862242D01*
X53293693Y2876500D01*
X53347039Y2881511D01*
X53401803Y2876705D01*
G37*
%TO.C,C3*%
X-8711252Y-19110000D02*
X-7288748Y-19110000D01*
X-8711252Y-17290000D02*
X-7288748Y-17290000D01*
%TO.C,D2*%
X-7200000Y-9410000D02*
X-6892000Y-9690000D01*
X-5813835Y-9690000D01*
X-5550000Y-9420630D01*
X-5550000Y-8700000D01*
X-5500000Y-8700000D01*
X-5500000Y-10213266D01*
X-5500000Y-10970000D01*
X-8000000Y-8700000D01*
X-7200000Y-8700000D01*
X-7200000Y-9410000D01*
G36*
X-7200000Y-9410000D02*
G01*
X-6892000Y-9690000D01*
X-5813835Y-9690000D01*
X-5550000Y-9420630D01*
X-5550000Y-8700000D01*
X-5500000Y-8700000D01*
X-5500000Y-10213266D01*
X-5500000Y-10970000D01*
X-8000000Y-8700000D01*
X-7200000Y-8700000D01*
X-7200000Y-9410000D01*
G37*
X-10500000Y-14200000D02*
X-10830000Y-14440000D01*
X-10830000Y-13960000D01*
X-10500000Y-14200000D01*
G36*
X-10500000Y-14200000D02*
G01*
X-10830000Y-14440000D01*
X-10830000Y-13960000D01*
X-10500000Y-14200000D01*
G37*
X-5500000Y-8700000D02*
X-5500000Y-13700000D01*
X-7250000Y-13700000D02*
X-8750000Y-13700000D01*
X-8750000Y-8700000D02*
X-7250000Y-8700000D01*
X-10500000Y-13700000D02*
X-10500000Y-8700000D01*
%TO.C,C6*%
X15288748Y-19110000D02*
X16711252Y-19110000D01*
X15288748Y-17290000D02*
X16711252Y-17290000D01*
%TO.C,R10*%
X26700000Y-12162345D02*
X26700000Y-10708217D01*
X24500000Y-12162345D02*
X24500000Y-10708217D01*
%TO.C,C2*%
X-16711252Y-19110000D02*
X-15288748Y-19110000D01*
X-16711252Y-17290000D02*
X-15288748Y-17290000D01*
%TO.C,D1*%
X-15200000Y-9410000D02*
X-14892000Y-9690000D01*
X-13813835Y-9690000D01*
X-13550000Y-9420630D01*
X-13550000Y-8700000D01*
X-13500000Y-8700000D01*
X-13500000Y-10213266D01*
X-13500000Y-10970000D01*
X-16000000Y-8700000D01*
X-15200000Y-8700000D01*
X-15200000Y-9410000D01*
G36*
X-15200000Y-9410000D02*
G01*
X-14892000Y-9690000D01*
X-13813835Y-9690000D01*
X-13550000Y-9420630D01*
X-13550000Y-8700000D01*
X-13500000Y-8700000D01*
X-13500000Y-10213266D01*
X-13500000Y-10970000D01*
X-16000000Y-8700000D01*
X-15200000Y-8700000D01*
X-15200000Y-9410000D01*
G37*
X-18500000Y-14200000D02*
X-18830000Y-14440000D01*
X-18830000Y-13960000D01*
X-18500000Y-14200000D01*
G36*
X-18500000Y-14200000D02*
G01*
X-18830000Y-14440000D01*
X-18830000Y-13960000D01*
X-18500000Y-14200000D01*
G37*
X-13500000Y-8700000D02*
X-13500000Y-13700000D01*
X-15250000Y-13700000D02*
X-16750000Y-13700000D01*
X-16750000Y-8700000D02*
X-15250000Y-8700000D01*
X-18500000Y-13700000D02*
X-18500000Y-8700000D01*
%TO.C,D3*%
X800000Y-9410000D02*
X1108000Y-9690000D01*
X2186165Y-9690000D01*
X2450000Y-9420630D01*
X2450000Y-8700000D01*
X2500000Y-8700000D01*
X2500000Y-10213266D01*
X2500000Y-10970000D01*
X0Y-8700000D01*
X800000Y-8700000D01*
X800000Y-9410000D01*
G36*
X800000Y-9410000D02*
G01*
X1108000Y-9690000D01*
X2186165Y-9690000D01*
X2450000Y-9420630D01*
X2450000Y-8700000D01*
X2500000Y-8700000D01*
X2500000Y-10213266D01*
X2500000Y-10970000D01*
X0Y-8700000D01*
X800000Y-8700000D01*
X800000Y-9410000D01*
G37*
X-2500000Y-14200000D02*
X-2830000Y-14440000D01*
X-2830000Y-13960000D01*
X-2500000Y-14200000D01*
G36*
X-2500000Y-14200000D02*
G01*
X-2830000Y-14440000D01*
X-2830000Y-13960000D01*
X-2500000Y-14200000D01*
G37*
X2500000Y-8700000D02*
X2500000Y-13700000D01*
X750000Y-13700000D02*
X-750000Y-13700000D01*
X-750000Y-8700000D02*
X750000Y-8700000D01*
X-2500000Y-13700000D02*
X-2500000Y-8700000D01*
%TO.C,D4*%
X8800000Y-9410000D02*
X9108000Y-9690000D01*
X10186165Y-9690000D01*
X10450000Y-9420630D01*
X10450000Y-8700000D01*
X10500000Y-8700000D01*
X10500000Y-10213266D01*
X10500000Y-10970000D01*
X8000000Y-8700000D01*
X8800000Y-8700000D01*
X8800000Y-9410000D01*
G36*
X8800000Y-9410000D02*
G01*
X9108000Y-9690000D01*
X10186165Y-9690000D01*
X10450000Y-9420630D01*
X10450000Y-8700000D01*
X10500000Y-8700000D01*
X10500000Y-10213266D01*
X10500000Y-10970000D01*
X8000000Y-8700000D01*
X8800000Y-8700000D01*
X8800000Y-9410000D01*
G37*
X5500000Y-14200000D02*
X5170000Y-14440000D01*
X5170000Y-13960000D01*
X5500000Y-14200000D01*
G36*
X5500000Y-14200000D02*
G01*
X5170000Y-14440000D01*
X5170000Y-13960000D01*
X5500000Y-14200000D01*
G37*
X10500000Y-8700000D02*
X10500000Y-13700000D01*
X8750000Y-13700000D02*
X7250000Y-13700000D01*
X7250000Y-8700000D02*
X8750000Y-8700000D01*
X5500000Y-13700000D02*
X5500000Y-8700000D01*
%TO.C,C4*%
X-711252Y-19110000D02*
X711252Y-19110000D01*
X-711252Y-17290000D02*
X711252Y-17290000D01*
D14*
%TO.C,D6*%
X23050000Y-9935281D02*
X22720000Y-9695281D01*
X23050000Y-9455281D01*
X23050000Y-9935281D01*
G36*
X23050000Y-9935281D02*
G01*
X22720000Y-9695281D01*
X23050000Y-9455281D01*
X23050000Y-9935281D01*
G37*
D12*
X22750000Y-10185281D02*
X22750000Y-12685281D01*
X20950000Y-10185281D02*
X20950000Y-12685281D01*
%TO.C,D5*%
X16800000Y-9410000D02*
X17108000Y-9690000D01*
X18186165Y-9690000D01*
X18450000Y-9420630D01*
X18450000Y-8700000D01*
X18500000Y-8700000D01*
X18500000Y-10213266D01*
X18500000Y-10970000D01*
X16000000Y-8700000D01*
X16800000Y-8700000D01*
X16800000Y-9410000D01*
G36*
X16800000Y-9410000D02*
G01*
X17108000Y-9690000D01*
X18186165Y-9690000D01*
X18450000Y-9420630D01*
X18450000Y-8700000D01*
X18500000Y-8700000D01*
X18500000Y-10213266D01*
X18500000Y-10970000D01*
X16000000Y-8700000D01*
X16800000Y-8700000D01*
X16800000Y-9410000D01*
G37*
X13500000Y-14200000D02*
X13170000Y-14440000D01*
X13170000Y-13960000D01*
X13500000Y-14200000D01*
G36*
X13500000Y-14200000D02*
G01*
X13170000Y-14440000D01*
X13170000Y-13960000D01*
X13500000Y-14200000D01*
G37*
X18500000Y-8700000D02*
X18500000Y-13700000D01*
X16750000Y-13700000D02*
X15250000Y-13700000D01*
X15250000Y-8700000D02*
X16750000Y-8700000D01*
X13500000Y-13700000D02*
X13500000Y-8700000D01*
%TO.C,R9*%
X-20690000Y-11927064D02*
X-20690000Y-10472936D01*
X-22510000Y-11927064D02*
X-22510000Y-10472936D01*
%TO.C,C5*%
X7288748Y-19110000D02*
X8711252Y-19110000D01*
X7288748Y-17290000D02*
X8711252Y-17290000D01*
%TO.C,Q1*%
X20440000Y-21940000D02*
X20440000Y-23790000D01*
X20440000Y-21940000D02*
X21500000Y-21940000D01*
X22500000Y-21955000D02*
X23560000Y-21955000D01*
X23560000Y-21955000D02*
X23560000Y-23805000D01*
D14*
X20480000Y-24610000D02*
X20150000Y-24850000D01*
X20150000Y-24370000D01*
X20480000Y-24610000D01*
G36*
X20480000Y-24610000D02*
G01*
X20150000Y-24850000D01*
X20150000Y-24370000D01*
X20480000Y-24610000D01*
G37*
%TO.C,S5*%
D12*
X33000000Y-15900000D02*
X39000000Y-15900000D01*
X39000000Y-21900000D01*
X33000000Y-21900000D01*
X33000000Y-15900000D01*
D14*
X31440000Y-20230000D02*
X31200000Y-19900000D01*
X31680000Y-19900000D01*
X31440000Y-20230000D01*
G36*
X31440000Y-20230000D02*
G01*
X31200000Y-19900000D01*
X31680000Y-19900000D01*
X31440000Y-20230000D01*
G37*
D12*
%TO.C,S8*%
X37250000Y9600000D02*
X37250000Y7600000D01*
X42750000Y9600000D02*
X42750000Y7600000D01*
D14*
X39000000Y4820000D02*
X38670000Y5060000D01*
X39000000Y5300000D01*
X39000000Y4820000D01*
G36*
X39000000Y4820000D02*
G01*
X38670000Y5060000D01*
X39000000Y5300000D01*
X39000000Y4820000D01*
G37*
D12*
%TO.C,C7*%
X12590000Y-29938748D02*
X12590000Y-31361252D01*
X14410000Y-29938748D02*
X14410000Y-31361252D01*
%TO.C,R2*%
X-54424719Y-6158217D02*
X-54424719Y-7612345D01*
X-52604719Y-6158217D02*
X-52604719Y-7612345D01*
%TO.C,R7*%
X-53910000Y1572936D02*
X-53910000Y3027064D01*
X-52090000Y1572936D02*
X-52090000Y3027064D01*
%TO.C,S6*%
X41000000Y-7900000D02*
X47000000Y-7900000D01*
X47000000Y-13900000D01*
X41000000Y-13900000D01*
X41000000Y-7900000D01*
D14*
X39440000Y-12230000D02*
X39200000Y-11900000D01*
X39680000Y-11900000D01*
X39440000Y-12230000D01*
G36*
X39440000Y-12230000D02*
G01*
X39200000Y-11900000D01*
X39680000Y-11900000D01*
X39440000Y-12230000D01*
G37*
%TO.C,S1*%
D12*
X-51000000Y-11900000D02*
X-45000000Y-11900000D01*
X-45000000Y-17900000D01*
X-51000000Y-17900000D01*
X-51000000Y-11900000D01*
D14*
X-52560000Y-16230000D02*
X-52800000Y-15900000D01*
X-52320000Y-15900000D01*
X-52560000Y-16230000D01*
G36*
X-52560000Y-16230000D02*
G01*
X-52800000Y-15900000D01*
X-52320000Y-15900000D01*
X-52560000Y-16230000D01*
G37*
D12*
%TO.C,S7*%
X-42750000Y9600000D02*
X-42750000Y7600000D01*
X-37250000Y9600000D02*
X-37250000Y7600000D01*
D14*
X-38670000Y5140000D02*
X-39000000Y4900000D01*
X-39000000Y5380000D01*
X-38670000Y5140000D01*
G36*
X-38670000Y5140000D02*
G01*
X-39000000Y4900000D01*
X-39000000Y5380000D01*
X-38670000Y5140000D01*
G37*
D12*
%TO.C,C1*%
X-27010000Y-31111252D02*
X-27010000Y-29688748D01*
X-25190000Y-31111252D02*
X-25190000Y-29688748D01*
D15*
%TO.C,U1*%
X-22122319Y-28825200D02*
X-22122319Y-30095200D01*
X-22122319Y-30095200D02*
X-22122319Y-30704800D01*
X-22122319Y-30704800D02*
X-22122319Y-31974800D01*
D12*
X-22122319Y-31974800D02*
X-12114719Y-31974800D01*
X-12114719Y-28825200D02*
X-22122319Y-28825200D01*
D15*
X-12114719Y-31974800D02*
X-12114719Y-28825200D01*
X-22122319Y-29892400D02*
G75*
G02*
X-22122319Y-30907600I0J-507600D01*
G01*
D14*
X-22069800Y-33185514D02*
X-22399800Y-33425514D01*
X-22399800Y-32945514D01*
X-22069800Y-33185514D01*
G36*
X-22069800Y-33185514D02*
G01*
X-22399800Y-33425514D01*
X-22399800Y-32945514D01*
X-22069800Y-33185514D01*
G37*
%TO.C,S2*%
D12*
X-43000000Y-3900000D02*
X-37000000Y-3900000D01*
X-37000000Y-9900000D01*
X-43000000Y-9900000D01*
X-43000000Y-3900000D01*
D14*
X-44560000Y-8230000D02*
X-44800000Y-7900000D01*
X-44320000Y-7900000D01*
X-44560000Y-8230000D01*
G36*
X-44560000Y-8230000D02*
G01*
X-44800000Y-7900000D01*
X-44320000Y-7900000D01*
X-44560000Y-8230000D01*
G37*
D12*
%TO.C,R5*%
X44700281Y-18158217D02*
X44700281Y-19612345D01*
X46520281Y-18158217D02*
X46520281Y-19612345D01*
%TO.C,J2*%
X28425281Y1724719D02*
X28425281Y704719D01*
X28425281Y704719D02*
X30025281Y704719D01*
X28425281Y-5375281D02*
X30025281Y-5375281D01*
X28425281Y-6395281D02*
X28425281Y-5375281D01*
X30025281Y704719D02*
X30025281Y-435281D01*
X30025281Y-5375281D02*
X30035281Y-4235281D01*
X32675281Y1724719D02*
X28425281Y1724719D01*
X32675281Y-6395281D02*
X28425281Y-6395281D01*
X36245281Y-4675281D02*
X36245281Y4719D01*
D14*
X31140281Y-3600281D02*
X30810281Y-3360281D01*
X31140281Y-3120281D01*
X31140281Y-3600281D01*
G36*
X31140281Y-3600281D02*
G01*
X30810281Y-3360281D01*
X31140281Y-3120281D01*
X31140281Y-3600281D01*
G37*
D12*
%TO.C,R6*%
X48450281Y-18158217D02*
X48450281Y-19612345D01*
X50270281Y-18158217D02*
X50270281Y-19612345D01*
%TO.C,R4*%
X-50424719Y-22158217D02*
X-50424719Y-23612345D01*
X-48604719Y-22158217D02*
X-48604719Y-23612345D01*
%TO.C,U2*%
X20500000Y-31450000D02*
X20500000Y-29850000D01*
X22550000Y-29800000D02*
X21500000Y-29800000D01*
X23500000Y-31450000D02*
X23500000Y-29850000D01*
D14*
X20600000Y-32050000D02*
X20270000Y-32290000D01*
X20270000Y-31810000D01*
X20600000Y-32050000D01*
G36*
X20600000Y-32050000D02*
G01*
X20270000Y-32290000D01*
X20270000Y-31810000D01*
X20600000Y-32050000D01*
G37*
D12*
%TO.C,C8*%
X16590000Y-29938748D02*
X16590000Y-31361252D01*
X18410000Y-29938748D02*
X18410000Y-31361252D01*
%TO.C,R1*%
X-54424719Y-22158217D02*
X-54424719Y-23612345D01*
X-52604719Y-22158217D02*
X-52604719Y-23612345D01*
%TO.C,S4*%
X-43000000Y-19900000D02*
X-37000000Y-19900000D01*
X-37000000Y-25900000D01*
X-43000000Y-25900000D01*
X-43000000Y-19900000D01*
D14*
X-44560000Y-24230000D02*
X-44800000Y-23900000D01*
X-44320000Y-23900000D01*
X-44560000Y-24230000D01*
G36*
X-44560000Y-24230000D02*
G01*
X-44800000Y-23900000D01*
X-44320000Y-23900000D01*
X-44560000Y-24230000D01*
G37*
D12*
%TO.C,SW1*%
X-4550000Y-28650000D02*
X4550000Y-28650000D01*
X-4550000Y-32150000D02*
X-4550000Y-28650000D01*
X4550000Y-28650000D02*
X4550000Y-32150000D01*
X4550000Y-32150000D02*
X-4550000Y-32150000D01*
D14*
X-3270000Y-27040000D02*
X-3600000Y-27280000D01*
X-3600000Y-26800000D01*
X-3270000Y-27040000D01*
G36*
X-3270000Y-27040000D02*
G01*
X-3600000Y-27280000D01*
X-3600000Y-26800000D01*
X-3270000Y-27040000D01*
G37*
D12*
%TO.C,R3*%
X-50299719Y-6158217D02*
X-50299719Y-7612345D01*
X-48479719Y-6158217D02*
X-48479719Y-7612345D01*
%TO.C,S3*%
X-35000000Y-11900000D02*
X-29000000Y-11900000D01*
X-29000000Y-17900000D01*
X-35000000Y-17900000D01*
X-35000000Y-11900000D01*
D14*
X-36560000Y-16230000D02*
X-36800000Y-15900000D01*
X-36320000Y-15900000D01*
X-36560000Y-16230000D01*
G36*
X-36560000Y-16230000D02*
G01*
X-36800000Y-15900000D01*
X-36320000Y-15900000D01*
X-36560000Y-16230000D01*
G37*
D12*
%TO.C,R8*%
X52090000Y1572936D02*
X52090000Y3027064D01*
X53910000Y1572936D02*
X53910000Y3027064D01*
%TD*%
M02*
